<svg xmlns="http://www.w3.org/2000/svg" xmlns:xlink="http://www.w3.org/1999/xlink" viewBox="0 0 106 106"><defs><style>.cls-1{fill:none;}.cls-2{clip-path:url(#clip-path);}.cls-3{fill:#62bfb3;fill-rule:evenodd;}.cls-4{fill:#1d1d1b;}</style><clipPath id="clip-path"><rect class="cls-1" x="0.21" y="113.81" width="106.08" height="27.76" rx="4.5"/></clipPath></defs><title>webIcons</title><g id="Buttons-2" data-name="Buttons"><g class="cls-2"><path class="cls-3" d="M.12,73.35c0-.06.05-.11,0-.16s-.11-.07-.19,0a.9.9,0,0,1-.51.1,1.49,1.49,0,0,1,.83-.18l0,.08s0,0,0-.09a.43.43,0,0,1,.23-.14,5.21,5.21,0,0,1,1.71-.2.58.58,0,0,0,.32,0,.07.07,0,0,0,.06-.07.21.21,0,0,0-.09-.13.67.67,0,0,0-.37,0c-.08,0-.06,0,0-.08l.06,0,.14,0,.08,0h0l-.08,0h.07a.13.13,0,0,0,0-.06h.21c.28,0,.58,0,.79-.28h.06c.09,0,.23,0,.22-.15s-.13-.08-.22,0S3,71.9,2.77,72s-.25,0-.36.07h0v.13H2.2A.28.28,0,0,0,2,72.3h0c-.14,0-.28,0-.37.15l0,.06a.66.66,0,0,0-.2,0,.09.09,0,0,0-.07,0c-.09-.07-.22,0-.32-.16s-.28-.08-.43,0-.12.12,0,.2-.06.15-.12.21l-.2.08,0,0h0L0,72.92H0a3.78,3.78,0,0,0-1,.2v.21c.16.23.4.22.64.21h.15A.27.27,0,0,0,.12,73.35Z"/><path class="cls-3" d="M105.77,85.06c0,.06,0,.12,0,.15s.15,0,.19-.08l.29-.41v-.14C106,84.67,106,84.94,105.77,85.06Z"/><path class="cls-3" d="M43.48,34.83c.08.06.16.1.22,0l.12-.31h-.35C43.57,34.6,43.48,34.71,43.48,34.83Z"/><path class="cls-3" d="M86.57,41c.08-.09.18-.16.09-.28s-.12-.07-.15,0S86.45,40.93,86.57,41Z"/><path class="cls-3" d="M97.27,62.54l-.09.1c.06.12.13.22.28.13s0,0,0,0,0-.07,0-.1,0-.11,0-.14A.12.12,0,0,0,97.27,62.54Z"/><path class="cls-3" d="M49.9,43.6h0c-.09-.13,0-.33-.21-.42l-.07-.07c-.09,0-.23,0-.17.12a1,1,0,0,0,.37.45C49.88,43.72,49.89,43.64,49.9,43.6Z"/><path class="cls-3" d="M104.26,86.71h0s0,.05-.06.07-.26.18-.31.34l0,0s-.06,0-.06.06h0l-.06.07a1.37,1.37,0,0,1-.5.42,1.67,1.67,0,0,0-.45.54l-.36.34a.21.21,0,0,1-.06.08h0c-.06.06,0,.11,0,.15h.05a.2.2,0,0,0,.08,0l0,0,.08,0,.08,0,.41-.38a4.19,4.19,0,0,1,.54-.49,3.13,3.13,0,0,1,.25-.26.75.75,0,0,0,.07-.12.39.39,0,0,0,0-.21c.1,0,.16,0,.23-.09l.1-.09c.14-.13.21-.32.36-.44h0a.26.26,0,0,1,.12-.23.63.63,0,0,0,.25-.31c0-.07,0-.09-.08-.08l-.2.15C104.62,86.32,104.35,86.45,104.26,86.71Z"/><path class="cls-3" d="M49.26,36.15s-.13-.08-.11,0a1.35,1.35,0,0,0,.11.32c.09,0,.12.2.26.19a0,0,0,0,1,0,0C49.44,36.49,49.47,36.26,49.26,36.15Z"/><path class="cls-3" d="M105.77,96.72h.06c0-.08-.13-.07-.21-.06A.17.17,0,0,0,105.77,96.72Z"/><path class="cls-3" d="M2.34,77.74h.07c.08,0,.24-.06.09-.21l0-.07V77.4h0a.17.17,0,0,0-.1,0,.32.32,0,0,0-.19,0h0c-.06.06,0,.13,0,.19v0a.61.61,0,0,1-.36-.09c-.12-.07-.29.08-.44,0l0,0H1.28l-.18.09c0,.06.14,0,.17.11s.23.09.36.07h.14c.15-.11.32,0,.48-.06Z"/><path class="cls-3" d="M104.64,70.36c.06.11.17.12.27.14a.51.51,0,0,1,.21.2.33.33,0,0,0,.32.18l0,0v-.34c-.13,0-.27,0-.35-.11s-.23-.13-.35-.18S104.58,70.23,104.64,70.36Z"/><polygon class="cls-3" points="105.48 70.85 105.48 70.85 105.47 70.85 105.48 70.85"/><path class="cls-3" d="M105.62,71.05l.07.07s.09.07.19,0c-.14-.11-.16-.32-.4-.3C105.43,71,105.56,71,105.62,71.05Z"/><path class="cls-3" d="M105.39,75.93a.11.11,0,0,0,0,.08,1.55,1.55,0,0,1,0,.31.19.19,0,0,0,0,.08c-.06.09.26.3-.09.3a.13.13,0,0,0,0-.06.07.07,0,0,0-.06-.07h0V76.5a.37.37,0,0,1-.09-.2c-.08-.07-.07-.19-.13-.28s-.14.06-.15.15a.31.31,0,0,0,0,.21.41.41,0,0,1,0,.22.11.11,0,0,1,0,.08c-.15.13-.19.24.06.31.08-.07.14-.16.26-.14h0c0,.13.06.25.23.27a.07.07,0,0,0,0,.05.46.46,0,0,0,.08.32,1.66,1.66,0,0,1,.21.59h0a.21.21,0,0,0,0-.06.2.2,0,0,0-.09-.09.08.08,0,0,0-.08,0,.12.12,0,0,0,0,.1.24.24,0,0,0,0,.08l0,.07,0,.12.06.11.09.15c.06.07.08.2.21.14a.69.69,0,0,0,.13.11.15.15,0,0,0-.23.09s0,0,0,.07.16.1.28.08a1.7,1.7,0,0,1,0-.22h0a.38.38,0,0,1,.21.07v-.41h-.06c0-.07,0-.15-.08-.2h0c-.05-.14-.09-.28-.14-.42s0-.22-.14-.27a.13.13,0,0,1,0-.06.08.08,0,0,1,0-.09v0a.3.3,0,0,1-.08-.22s0-.09,0-.13-.12-.22,0-.29,0-.23,0-.35-.09-.21-.07-.33a1.72,1.72,0,0,1-.07-.21C105.51,75.74,105.45,75.81,105.39,75.93Z"/><path class="cls-3" d="M105.93,77a.41.41,0,0,0,0,.09c.06,0,.07-.08.08-.14s-.06-.11-.13-.08S105.91,77,105.93,77Z"/><path class="cls-3" d="M82.25,43.15c-.15.11-.31.05-.47,0l-.09,0-.18,0h-.05l0,0s-.09.09,0,.16h0c.16.08.34.13.5.21l.07.07c.15,0,.34-.06.44.13.1,0,.2,0,.29.06s.2,0,.28-.09,0-.17-.07-.24h-.07c-.12-.09-.3-.1-.42-.22A.17.17,0,0,0,82.25,43.15Z"/><path class="cls-3" d="M82.51,43.05c0,.14.1.15.21.17a.12.12,0,0,0,.09,0s.15,0,.06-.14,0,0-.07-.06h0C82.7,43,82.59,42.94,82.51,43.05Z"/><path class="cls-3" d="M6.92,56.93a.55.55,0,0,0-.08-.43c-.06,0-.13-.06-.14.06a1.36,1.36,0,0,0,.08.49A.13.13,0,0,0,6.92,56.93Z"/><path class="cls-3" d="M6.85,54.22c-.14-.07,0-.24-.15-.38v.52c0,.11.08.09.15.07Z"/><path class="cls-3" d="M12,48.12a.76.76,0,0,0,0-.21c-.05-.13-.05-.27-.15-.37a.18.18,0,0,0-.1,0c-.05,0-.07.06-.1.1h0l.21.83C12.05,48.4,12,48.24,12,48.12Z"/><path class="cls-3" d="M12.22,49.58a.4.4,0,0,0-.08-.47L12,49.05a1.36,1.36,0,0,0,.08.69c.05,0,.06.07.07.12S12.2,49.68,12.22,49.58Z"/><path class="cls-3" d="M12.78,55.67h0c-.24,0-.25,0-.15.21l.08.06h0C12.9,55.89,12.82,55.78,12.78,55.67Z"/><path class="cls-3" d="M10.71,35.23c0,.19,0,.38,0,.56.09-.07,0-.18.06-.27s0-.2.07-.27a.17.17,0,0,0,0-.21C10.73,35.05,10.71,35.13,10.71,35.23Z"/><path class="cls-3" d="M20.37,37.39a2.17,2.17,0,0,0,0,.26l.06.07a.19.19,0,0,0,.14-.13h0l-.07-.06h0c0-.05,0-.1,0-.14s.07-.1,0-.14S20.36,37.3,20.37,37.39Z"/><path class="cls-3" d="M18.86,36.41a.13.13,0,0,0,0-.06h0a.1.1,0,0,0-.05,0s-.05.09,0,.11S18.86,36.45,18.86,36.41Z"/><path class="cls-3" d="M15,38.27c0,.07,0,.13.09.12a.12.12,0,0,0,.11-.14c0-.06,0-.14-.11-.13S15,38.21,15,38.27Z"/><path class="cls-3" d="M102.83,67.47a.13.13,0,0,1,0,.06.78.78,0,0,1,.21.35.12.12,0,0,0,.13-.13h0a.12.12,0,0,1,0-.15.34.34,0,0,0-.06-.2s-.11,0-.15-.07a0,0,0,0,0-.07,0S102.88,67.43,102.83,67.47Z"/><path class="cls-3" d="M103.33,68.36c.07,0,.12,0,.15-.07a.11.11,0,0,1,0-.05.66.66,0,0,1-.14-.15h0C103.21,68.18,103.29,68.27,103.33,68.36Z"/><path class="cls-3" d="M98.4,65a.13.13,0,0,1,0-.06c-.18-.18-.19-.18-.29,0v0l0,0,.06,0h.1Z"/><path class="cls-3" d="M97,63.81c0,.06,0,.08.06.08l.23.24s.09.09.15.06,0-.11.06-.18a3.31,3.31,0,0,0-.5-.41C97,63.67,97.06,63.74,97,63.81Z"/><path class="cls-3" d="M101.83,64.43a.25.25,0,0,1,0,.11s0,0,0,0l-.09,0c-.15,0-.11-.19-.25-.18-.1.17.07.3,0,.45v0l0,.11a.25.25,0,0,0,0,.07.28.28,0,0,0,.11.13c.31,0,0-.27.2-.33s.08.08.12.12l0,0,.08.06a.15.15,0,0,0,.17,0,.11.11,0,0,0,0-.08,0,0,0,0,1,0-.06.09.09,0,0,0,0-.07.17.17,0,0,0,0-.15s0,0,0,0l0-.07a.18.18,0,0,0-.1-.09c.07,0,.12-.1.08-.19h0a.23.23,0,0,0-.07-.07h0C102,64.21,101.84,64.25,101.83,64.43Z"/><path class="cls-3" d="M4.21,73.27s0,.08,0,.13a.17.17,0,0,0,.21,0h0C4.4,73.26,4.31,73.26,4.21,73.27Z"/><path class="cls-3" d="M12.07,77l0,0c.07,0,.14,0,.17,0s0-.1-.07-.13h0c-.08,0-.17,0-.22,0S12.06,76.94,12.07,77Z"/><path class="cls-3" d="M10.93,76.39s0,0-.06,0a0,0,0,0,0,.05.06s.05,0,.05,0A.05.05,0,0,0,10.93,76.39Z"/><path class="cls-3" d="M9.63,71.67s.13,0,.08-.14c-.26-.09-.35-.06-.36.15l.27,0Z"/><path class="cls-3" d="M3.49,77.53a1.72,1.72,0,0,0,.64-.06.69.69,0,0,1,.51,0,.49.49,0,0,0,.21,0,2.45,2.45,0,0,1,.81.07.23.23,0,0,0,.26-.06h.21s0,0,0-.06h.51c.11,0,.08-.07.06-.14a1.22,1.22,0,0,1-.38,0,.86.86,0,0,0-.57,0H5.63l-.14,0H5.35c0-.08,0-.17-.15-.06l-.2.06c-.17,0-.28,0-.3-.2-.07,0-.14-.25-.21,0s.1.23-.12.24l-.17,0c-.24-.08-.47,0-.71,0A.15.15,0,0,0,3.49,77.53Z"/><path class="cls-3" d="M54.48,43.53a.35.35,0,0,1,0-.08l-.08-.06c-.13,0-.14,0-.08.13h0c.06.09,0,.19,0,.29s-.08.36.06.51.15.1.24,0,0,0,0-.05,0-.25,0-.36a.15.15,0,0,1,0-.07c-.08-.1,0-.24-.07-.34Z"/><path class="cls-3" d="M50.33,38.77c-.12,0-.21-.11-.34-.08a.4.4,0,0,0,.06.35,1.25,1.25,0,0,1,0,.47c0,.07,0,.15.08.17s.15-.06.17-.14A1.54,1.54,0,0,0,50.33,38.77Z"/><path class="cls-3" d="M79.37,38.28c0,.06-.09.12,0,.18a.09.09,0,0,0,.15,0c0-.05.1-.11.06-.18s-.12,0-.18,0Z"/><path class="cls-3" d="M80.17,41.66h.06c.15,0,.33.06.42-.13h0l-.07,0a.11.11,0,0,1-.08,0h0A.31.31,0,0,0,80.17,41.66Z"/><path class="cls-3" d="M82.09,43c.08,0,.16.05.22,0s0-.07-.08-.1S82,42.79,82.09,43Z"/><path class="cls-3" d="M5.86,105.82a.18.18,0,0,0-.05-.07.67.67,0,0,0-.14-.09l-.07,0h0a.13.13,0,0,0-.07.14.46.46,0,0,1,.07.07l.07.06a.15.15,0,0,0,.21,0A.08.08,0,0,0,5.86,105.82Z"/><path class="cls-3" d="M3.27,104.45h0a.17.17,0,0,0-.21,0h0v.13h0l.07.06C3.28,104.65,3.36,104.6,3.27,104.45Z"/><path class="cls-3" d="M.19,90.44c.09,0,.15,0,.14-.13S.12,90.29.19,90.44Z"/><path class="cls-3" d="M100.19,98c.1,0,.2,0,.2-.13h-.2Z"/><path class="cls-3" d="M100.18,97.26l-.06,0c-.19.11-.18.25-.13.43.18,0,.18-.23.33-.24a.13.13,0,0,0,0-.06c.09-.08.13-.17,0-.25S100.2,97.17,100.18,97.26Z"/><path class="cls-3" d="M102.66,71.91a.09.09,0,0,0,0,.08.39.39,0,0,0,.1.08s.08.12.17.1h.14a.66.66,0,0,1-.07-.33l-.06,0c-.1-.11-.19-.08-.28,0A.36.36,0,0,0,102.66,71.91Z"/><path class="cls-3" d="M104.41,72.08c.07,0,.13.09.21,0s.23-.06.25.13.11,0,.17,0l.07-.07a.18.18,0,0,1,.14-.06v-.26l-.13,0c-.21-.13-.39,0-.57.07S104.28,71.94,104.41,72.08Z"/><path class="cls-3" d="M103.63,71.67h0s.07,0,.12,0,0-.12.09-.16h0a.61.61,0,0,1,0-.14h-.21A.2.2,0,0,0,103.63,71.67Z"/><path class="cls-3" d="M54.55,36.28c0-.07,0-.14,0-.21V36c0-.11,0-.23,0-.34A.63.63,0,0,0,54.55,36.28Z"/><path class="cls-3" d="M.05,72.57a.12.12,0,0,0-.06.12C.15,72.72.07,72.63.05,72.57Z"/><path class="cls-3" d="M105.56,78.71c.13,0,.08-.07.06-.13S105.51,78.63,105.56,78.71Z"/><path class="cls-3" d="M95.23,52.49c.12.1.17-.06.25-.11l0,0c.1-.16,0-.17-.13-.18a.21.21,0,0,1-.15.07C95.21,52.31,95.11,52.41,95.23,52.49Z"/><path class="cls-3" d="M102.82,68.23h-.06c-.09,0-.07.14-.08.22s0,.22,0,.33.1.18.12.28a.12.12,0,0,0,.08,0c.14,0,.23-.09.15-.24h0a.15.15,0,0,1,0-.21l.06-.07c0-.08,0-.16-.07-.21S102.89,68.29,102.82,68.23Z"/><path class="cls-3" d="M101.76,67.7c-.08-.06-.19-.14-.22,0l.21.28c.13,0,.29.07.29-.15h0A.9.9,0,0,1,101.76,67.7Z"/><path class="cls-3" d="M101.76,68.37a.13.13,0,0,0,0,.06c.08,0-.06.22.13.21h0v-.23C101.89,68.3,101.82,68.35,101.76,68.37Z"/><path class="cls-3" d="M100.47,66.77c.17.09.14,0,.14-.12S100.47,66.68,100.47,66.77Z"/><path class="cls-3" d="M98.54,65.33c0,.18.17,0,.22.13s.06-.08.06-.13a.21.21,0,0,0-.28,0Z"/><path class="cls-3" d="M95.47,62.21l.12.1,0,0h0a.1.1,0,0,0-.05,0c0,.16.06.25.18.32l.15.07,0,.06.09.14a1,1,0,0,0,.22.23l.16.16.07,0,.09,0c.15,0,.16,0,.1-.15a1.39,1.39,0,0,0-.15-.19.62.62,0,0,1-.14-.28.26.26,0,0,1-.21-.14.78.78,0,0,0-.29-.28l-.15-.13a.47.47,0,0,0-.2-.22C95.45,62.06,95.46,62.14,95.47,62.21Z"/><path class="cls-3" d="M104.2,69.94h0l.06.07.07.07s.06.11.14.07l.07-.07c0-.09-.13-.16-.14-.27l-.07-.07A.17.17,0,0,0,104.2,69.94Z"/><path class="cls-3" d="M104,69.74a.3.3,0,0,0-.16-.38C103.84,69.5,103.83,69.64,104,69.74Z"/><path class="cls-3" d="M.85,77.58s0,0-.07,0a.24.24,0,0,0-.08.06H.8S.85,77.59.85,77.58Z"/><path class="cls-3" d="M5.63,72.58a.93.93,0,0,0-.8.19,2,2,0,0,0,.8-.13S5.66,72.6,5.63,72.58Z"/><path class="cls-3" d="M7.62,77.2l-.06-.07a.15.15,0,0,0-.15.06l0,.14a.35.35,0,0,0,.2-.07A.13.13,0,0,0,7.62,77.2Z"/><path class="cls-3" d="M10,77.06c.18.07.2-.09.32-.17a.61.61,0,0,0-.34,0h0C10,76.92,9.9,77,10,77.06Z"/><path class="cls-3" d="M11.23,76.92a.12.12,0,0,0-.12.09.08.08,0,0,0,.09.08.14.14,0,0,0,.12-.1S11.28,76.92,11.23,76.92Z"/><path class="cls-3" d="M10.4,71.24a.1.1,0,0,0-.12,0,.93.93,0,0,0-.36.14l.09.08.31,0A.1.1,0,0,0,10.4,71.24Z"/><path class="cls-3" d="M11.89,71.32l.33,0,.13-.15c0-.18-.17,0-.21-.13h-.06C12.09,71.18,12,71.25,11.89,71.32Z"/><path class="cls-3" d="M4.35,87.13s0-.08,0-.09S4.09,87,4,87.13H4a.41.41,0,0,0,.36,0Z"/><path class="cls-3" d="M7.63,81.82c0,.19-.26.27-.28.48a.13.13,0,0,0-.06.07.14.14,0,0,0,0,.06c.11.1.14-.06.22-.06s.17-.13.24-.21A.75.75,0,0,0,7.8,82a.08.08,0,0,0,0-.08c0-.08.13-.17,0-.24S7.7,81.8,7.63,81.82Z"/><path class="cls-3" d="M8.57,80.44h0a.11.11,0,0,1-.15,0H8.35c0,.14.06.29-.06.42l-.08.07c-.05.08,0,.13.07.14h0l0,0,0,0s0,0,0,0l0,0,0,0,.05-.06s.1-.09.06-.17v-.2l0,0A0,0,0,0,0,8.57,80.44Z"/><polygon class="cls-3" points="8.63 80.44 8.63 80.44 8.64 80.44 8.63 80.44"/><path class="cls-3" d="M78.38,42.22l-.12.06c-.08.09-.08.16,0,.21s.38,0,.61,0c-.16,0-.29-.06-.26-.23h0a.15.15,0,0,0-.14,0,.2.2,0,0,0-.08,0Z"/><path class="cls-3" d="M77.46,40.58c0,.07,0,.1.1.11s.15,0,.15-.1,0-.1-.14-.1A.1.1,0,0,0,77.46,40.58Z"/><path class="cls-3" d="M79.44,41.63v0l-.15-.08h-.05c0,.11,0,.22.13.21l.07-.08Z"/><path class="cls-3" d="M99.48,84.28l.06,0s.13,0,.11-.09a.11.11,0,0,0-.13-.08C99.44,84.16,99.47,84.23,99.48,84.28Z"/><path class="cls-3" d="M96.1,88.85l-.14.07a.59.59,0,0,0-.36.07c0,.19,0,.19.22.14l.14-.08.43-.13s.11,0,.14-.07h0C96.39,88.72,96.24,88.81,96.1,88.85Z"/><path class="cls-3" d="M101.41,89.55c0,.17.17.1.27.06l0-.2-.09-.08-.06,0C101.54,89.44,101.44,89.47,101.41,89.55Z"/><path class="cls-3" d="M99.75,91a.42.42,0,0,1-.27.18c-.09.18-.34.12-.44.28a1.17,1.17,0,0,0-.43.48l-.78.62c-.07.08,0,.13,0,.17s.26-.1.35-.2a1.62,1.62,0,0,1,.6-.4c.11-.07.16-.19.25-.28s.2-.13.27-.23a.47.47,0,0,1,.1-.1.9.9,0,0,0,.38-.34,1.18,1.18,0,0,0,.36-.41c0-.07,0-.1-.08-.08A1.47,1.47,0,0,0,99.75,91Z"/><path class="cls-3" d="M99.2,95.42c0,.06,0,.14-.09.16a.14.14,0,0,0-.11.12.19.19,0,0,0,0,.08c0,.06,0,.11,0,.16l0,.08a.3.3,0,0,1,0,.08c.08.12.1.29.27.34a.17.17,0,0,0,.08-.14c0-.18-.16-.36,0-.55a.44.44,0,0,1-.07-.28s0,0,0-.06h0C99.33,95.31,99.26,95.29,99.2,95.42Z"/><path class="cls-3" d="M99.54,94.16V94C99.46,94.08,99.46,94.12,99.54,94.16Z"/><path class="cls-3" d="M99.76,98h0a.16.16,0,0,0-.24,0C99.6,98.05,99.68,98,99.76,98Z"/><path class="cls-3" d="M103,69.47h.07s0-.14,0-.15.1.05.15.09l0,.06c.13,0,.12-.11.21-.14v-.07l0-.06c-.15-.09-.29-.18-.44,0A.34.34,0,0,0,103,69.47Z"/><path class="cls-3" d="M104.05,70.78h.06l.08-.06c.06,0,.07-.09,0-.14s-.14,0-.19.05S103.92,70.76,104.05,70.78Z"/><path class="cls-3" d="M103.65,70.11s0,0,.06,0,0-.16,0-.24A.15.15,0,0,0,103.65,70.11Z"/><path class="cls-3" d="M103.9,73.13a.75.75,0,0,0,.36.48c.07,0,.15.21.21,0a3.85,3.85,0,0,0-.43-.83c-.11-.08-.23,0-.34,0C103.64,73,103.82,73,103.9,73.13Z"/><path class="cls-3" d="M68.27,38.47l-.11.12,0,0c-.07.09-.16,0-.24,0s-.2,0-.24.11l.06.07a.24.24,0,0,0,.2,0,.19.19,0,0,1,.23,0,.19.19,0,0,0,.26,0h0c0,.16.19.11.3.12s.22,0,.3.07-.11.09-.11.16a.08.08,0,0,0,0,.07c.06,0,.15,0,.2,0h0c.21.1.17-.16.29-.19v0l.07-.07h0c.15-.08.28.13.43,0l0,0a.25.25,0,0,0,.22.05h.58c-.13-.18-.35-.07-.46-.19h0c-.08-.1-.19,0-.3-.07s-.18-.1-.22-.2-.08,0-.1,0a.11.11,0,0,0,0,.07c0,.07-.1,0-.15,0l-.1,0a.94.94,0,0,1-.28-.06c-.18,0-.34-.15-.53-.11a.11.11,0,0,0,0,0c-.09-.06-.11-.18-.22-.22A.14.14,0,0,0,68.27,38.47Z"/><path class="cls-3" d="M9.92,70.23h0c-.06-.08-.28-.13-.06-.27h0a.13.13,0,0,1-.07-.08s0,0,0-.06a.49.49,0,0,0-.26-.1.12.12,0,0,0-.09,0c-.09,0-.15.05-.15.14.15,0,.31.07.3.27s.06.12.13.15S9.87,70.3,9.92,70.23Z"/><path class="cls-3" d="M104.47,75.34c.09,0,.07-.13.08-.21s-.15.05-.15.14Z"/><path class="cls-3" d="M104.54,74.79a.16.16,0,0,0,.08-.15s-.09,0-.12,0S104.49,74.74,104.54,74.79Z"/><path class="cls-3" d="M104.66,75.18c0,.1.11.19.17.29h0s.05,0,0-.08v-.13c-.07-.06,0-.16-.08-.21h-.06C104.69,75.07,104.6,75.08,104.66,75.18Z"/><path class="cls-3" d="M105.35,77.73c.09,0,.12,0,.12-.12l-.07-.11s0-.07-.07-.07-.06.06-.06.1S105.33,77.66,105.35,77.73Z"/><path class="cls-3" d="M95.47,53.94h.06c.2.05.15-.13.21-.21v0C95.47,53.68,95.47,53.68,95.47,53.94Z"/><path class="cls-3" d="M17.51,53.8h0c-.13,0-.12.06-.08.14h0c.05.05,0,.11.07.15s.15.32.23.47a.19.19,0,0,1,.07.14l.13.07a.57.57,0,0,1,0,.13c.08,0,.06-.09,0-.13v-.2a6,6,0,0,1-.28-.7S17.54,53.85,17.51,53.8Z"/><path class="cls-3" d="M32.25,51.93a.09.09,0,0,0,.11.07.07.07,0,0,0,.07-.07s0-.07-.09-.09S32.25,51.88,32.25,51.93Z"/><path class="cls-3" d="M46,40.85,46,40.71c-.16-.1-.15.07-.21.12s-.13.17,0,.18S46,41,46,40.85Z"/><path class="cls-3" d="M100.32,68.92a.15.15,0,0,0,.07-.14h0l-.06-.08-.07-.13c-.12-.18-.34-.11-.5-.2s-.07.08-.07.13.3.1.42.21h0a.1.1,0,0,0,.06.09h0a.05.05,0,0,0,0,0s.1,0,.13.08Z"/><path class="cls-3" d="M100.08,69.09s.06,0,.07-.06,0-.09-.08-.1A.07.07,0,0,0,100,69,.12.12,0,0,0,100.08,69.09Z"/><path class="cls-3" d="M99.39,68.23a.29.29,0,0,0,.1,0s0-.06,0-.09-.05-.06-.08,0a.25.25,0,0,0,0,.09Z"/><path class="cls-3" d="M92.78,104.9a.11.11,0,0,0,.1.08.05.05,0,0,0,.07,0c0-.07,0-.11-.1-.09S92.8,104.88,92.78,104.9Z"/><path class="cls-3" d="M91.69,105.61h0a.24.24,0,0,0,.08-.19C91.66,105.42,91.66,105.5,91.69,105.61Z"/><path class="cls-3" d="M7,68.5l-.07-.06a.33.33,0,0,0-.14-.1.08.08,0,0,0-.08,0v.14a.13.13,0,0,1,0,.06l.14.08C6.94,68.64,7.07,68.67,7,68.5Z"/><path class="cls-3" d="M20.34,72.9c.09-.05.11-.12,0-.2s-.16,0-.22-.06h0a.38.38,0,0,0,0,.48.46.46,0,0,0,.07-.07C20.22,73,20.28,72.94,20.34,72.9Z"/><path class="cls-3" d="M15.07,70.85h0s.11,0,.15-.07h.21a.74.74,0,0,0,.65-.33c.12-.19,0-.15-.14-.15-.32.11-.71-.07-1,.21a1.43,1.43,0,0,1-.34.14,1.45,1.45,0,0,0-.22.09l0,0c.11.13.26.09.39,0A.38.38,0,0,1,15.07,70.85Z"/><path class="cls-3" d="M49.05,49.54c0,.17.14.22.33.25a.93.93,0,0,0-.17-.33.09.09,0,0,0-.16.08Z"/><path class="cls-3" d="M57,41.69a.12.12,0,0,0-.18,0c-.11.12.06.14.09.21h0C57,41.82,57.08,41.79,57,41.69Z"/><path class="cls-3" d="M56.69,41.18c-.12-.08,0-.24-.14-.4v.41c0,.05,0,.12.1.1S56.69,41.23,56.69,41.18Z"/><path class="cls-3" d="M56.63,40.15v-.08s-.12,0-.12,0a.15.15,0,0,0,.05.22h0S56.58,40.18,56.63,40.15Z"/><path class="cls-3" d="M49.35,56.48c0,.08.12.11.2,0s.08-.18.15-.17.18-.13.27-.19c-.07-.11-.18,0-.27-.06h0l-.07.06a1.88,1.88,0,0,0-.24.14A.14.14,0,0,0,49.35,56.48Z"/><path class="cls-3" d="M49,50.91c0-.1-.13,0-.2,0l.07.13C49,51,49.08,51,49,50.91Z"/><path class="cls-3" d="M45.12,46.53c-.14,0-.14.08-.15.17a2.82,2.82,0,0,0-.57.15.14.14,0,0,1-.14.06c-.15.1-.29,0-.44,0s0,.13-.07.2l.09.09.42-.16h.06c.17.08.33,0,.49,0a.14.14,0,0,0,0-.06,3.26,3.26,0,0,1,.68-.13c.18-.05.35-.2.3-.28s-.23,0-.34,0Z"/><path class="cls-3" d="M45.26,46.21l-.14,0C45.17,46.3,45.22,46.28,45.26,46.21Z"/><path class="cls-3" d="M41.89,47.32l-.06.08c-.13,0-.31.13-.4-.09l-.11.08s0,.09,0,.14a.12.12,0,0,0,0,.13h.28a.25.25,0,0,1,.22-.13H42l0-.09c0-.07,0-.13,0-.17S41.93,47.28,41.89,47.32Z"/><path class="cls-3" d="M42.68,46.77h0a0,0,0,0,0,0,.07c.1.07.19,0,.28,0C42.92,46.61,42.79,46.73,42.68,46.77Z"/><path class="cls-3" d="M44,46.7s0,0,0,0l0,0s0,.05,0,.05S44,46.74,44,46.7Z"/><path class="cls-3" d="M47.62,42.62c.08,0,.07-.11.05-.18C47.47,42.45,47.58,42.55,47.62,42.62Z"/><path class="cls-3" d="M44.25,44.14V44H44s-.1,0-.11.12,0,.06,0,.07h0A.2.2,0,0,0,44.25,44.14Z"/><path class="cls-3" d="M42.26,46a.43.43,0,0,0,.06.27l0,0a.31.31,0,0,0,.17-.05.2.2,0,0,0,.08,0h0c.07-.08.19-.15.07-.27a.9.9,0,0,0-.22.11C42.36,46.08,42.32,46,42.26,46Z"/><path class="cls-3" d="M46.14,41.33c-.07-.11-.16,0-.24,0s0,.23.14.27S46.21,41.45,46.14,41.33Z"/><path class="cls-3" d="M60.72,41.17c.07.06,0,.17.12.21l0-.06c-.06-.08,0-.17-.06-.26A.12.12,0,0,0,60.72,41.17Z"/><path class="cls-3" d="M75.8,41.32s-.11.06-.1.13a.18.18,0,0,0,.1.14c.12.06.19-.13.23-.1s.14-.06.2-.1h0c-.09-.07-.21,0-.3-.06H75.8Z"/><path class="cls-3" d="M75.87,40.15s.1,0,.11-.07,0-.12-.1-.12a1.51,1.51,0,0,0-.28,0A.31.31,0,0,0,75.87,40.15Z"/><path class="cls-3" d="M5.78,103.38l-.09-.1c-.09.07-.05.18-.06.27h0a.16.16,0,0,1,0,.07.21.21,0,0,0,0,.07h0C6,103.57,6,103.55,5.78,103.38Z"/><path class="cls-3" d="M96.76,87.9v0c0,.08.1.15.2.07h0C97,87.88,96.88,87.87,96.76,87.9Z"/><path class="cls-3" d="M98.19,91.83c.15-.2.37-.36.42-.62a1.58,1.58,0,0,0-.5.34C98.1,91.65,98,91.78,98.19,91.83Z"/><path class="cls-3" d="M94.89,89.4l.07-.06V89.2h-.15C94.78,89.28,94.69,89.39,94.89,89.4Z"/><path class="cls-3" d="M97.38,87.55a.33.33,0,0,0-.27.07c0,.19.12.1.21.07Z"/><path class="cls-3" d="M94.52,84.92a.12.12,0,0,0-.06-.14c-.09,0-.16.15-.28.14l.06.14C94.38,85.09,94.45,85,94.52,84.92Z"/><path class="cls-3" d="M98,101.68h0a.08.08,0,0,0,.14,0l.07-.06c0-.14,0-.22-.2-.13A1.21,1.21,0,0,1,98,101.68Z"/><path class="cls-3" d="M73.68,40.2c0,.08.09.09.11.14a.14.14,0,0,0,.21,0c.09-.11,0-.14-.07-.2h-.07C73.8,40.16,73.71,40.12,73.68,40.2Z"/><path class="cls-3" d="M69,38.7l.08.07c.1,0,.22,0,.21-.14a.47.47,0,0,0-.28-.07A.11.11,0,0,0,69,38.7Z"/><path class="cls-3" d="M74.16,40.43c.08.26.13,0,.19,0l0-.06c0-.08,0-.14-.12-.06A.6.6,0,0,0,74.16,40.43Z"/><path class="cls-3" d="M102.76,71.19c0,.15.11.14.21.14h0a.11.11,0,0,0,0-.14l-.08-.06C102.82,71.09,102.79,71.13,102.76,71.19Z"/><path class="cls-3" d="M102.5,71.22c-.18,0-.37,0-.31.25h0c.08.07.2,0,.29.06h0a.23.23,0,0,0,.07.07h0l.12,0c.06,0,.15.06.15-.06s-.06-.09-.12-.09-.15-.05-.15-.14Z"/><path class="cls-3" d="M102.63,72.15a.19.19,0,0,0-.16-.06s0,.06-.07,0,0,0,0-.08a.36.36,0,0,0,0-.1s-.05,0-.08-.06-.11-.14-.17-.2-.09-.09-.15,0,0,.1,0,.15a.63.63,0,0,1,.19.49h0a.12.12,0,0,0,.11,0c.06,0,.07.07.1.11s0-.2.21-.17S102.66,72.19,102.63,72.15Z"/><path class="cls-3" d="M71.35,40.93s0-.07-.06-.07-.12.06-.15.12a.09.09,0,0,1,0,.05l0,0s0,0,0,0S71.36,41,71.35,40.93Z"/><path class="cls-3" d="M9.92,68.67a.06.06,0,0,0-.06.06c0,.09.05.1.12.11l0,0C10,68.74,10,68.68,9.92,68.67Z"/><path class="cls-3" d="M104.76,76.5l-.14-.13-.07-.07c-.09,0-.07.13-.08.21l.08.13h.29s0,0,0-.06Z"/><path class="cls-3" d="M81.57,56.85c.05.09.11.17.23.13s.11,0,.13-.06l-.14-.14h-.14C81.59,56.76,81.57,56.8,81.57,56.85Z"/><path class="cls-3" d="M86.16,57.94a.13.13,0,0,0,.22.07c0-.13-.1-.13-.21-.13S86.14,57.92,86.16,57.94Z"/><path class="cls-3" d="M76.08,47.59l.07-.06c0-.08.13-.19-.06-.2S76,47.5,76.08,47.59Z"/><path class="cls-3" d="M16.35,64.78l-.13-.21c-.18,0-.18.14-.28.28C16.1,64.81,16.25,65,16.35,64.78Z"/><path class="cls-3" d="M16.41,65.25c0-.06-.05-.1-.12-.11s-.1.09-.1.15,0,.16.1.14S16.41,65.33,16.41,65.25Z"/><path class="cls-3" d="M18,66.51a.19.19,0,0,0-.17-.22s-.1,0-.1.08.11.25.2.24S18,66.55,18,66.51Z"/><path class="cls-3" d="M13.77,60.78c.06.07.1,0,.15,0S13.82,60.71,13.77,60.78Z"/><path class="cls-3" d="M15.13,58.16h0c0-.07,0-.14,0-.21s-.13-.16-.15-.27a.32.32,0,0,1-.13-.15l-.07-.07h0v-.07a.2.2,0,0,0-.13,0l-.05,0h0c0-.12-.06-.11-.14-.07l-.07,0a1,1,0,0,0,.42.61h0a.08.08,0,0,0,0,.06h0l.08.09v0l.09.13C15.05,58.29,15.13,58.3,15.13,58.16Zm-.55-.69h0Z"/><path class="cls-3" d="M10.79,62.37h0s0,.08.09,0Z"/><path class="cls-3" d="M18.14,58.56c0-.13,0-.27,0-.4-.22.16-.23.28-.06.47h0l.08-.07Z"/><path class="cls-3" d="M31.07,48.9a.75.75,0,0,0-.7.21l-.28.07c-.08,0-.1,0-.14.07a1.8,1.8,0,0,1-.65.14.16.16,0,0,1-.08.06h-.06l-.07.07h0c-.14,0-.29,0-.39.11.11.07.22,0,.32,0l.07-.06.15,0a.19.19,0,0,0,.16-.05h0l.12,0a.15.15,0,0,0,.15-.06c.14,0,.28-.07.42,0s.17-.16.32-.17a3.58,3.58,0,0,0,.45-.09,1,1,0,0,0,.37-.08C31.31,48.94,31.18,48.92,31.07,48.9Z"/><path class="cls-3" d="M36.45,47.87c.2-.22,0-.23-.15-.24s-.25,0-.34.12-.27.15-.42.2-.14.21.07.17.47-.12.7-.18h0S36.4,47.9,36.45,47.87Z"/><path class="cls-3" d="M33.37,48.14c0,.1-.39,0-.13.22h.07a1,1,0,0,1,.39-.21c.11,0,.18-.08.18-.2a.08.08,0,0,0-.14,0,.38.38,0,0,1-.29.13Z"/><path class="cls-3" d="M35.16,47.19h0s-.07,0-.08.06a.1.1,0,0,0,.16,0S35.18,47.23,35.16,47.19Z"/><path class="cls-3" d="M40,47.12a.84.84,0,0,1-.43.14,2.24,2.24,0,0,1-.57.13s0,0,0,.06a.1.1,0,0,0,0,0c0,.07,0,0-.07.07-.21.14-.48.17-.67.37h-.06s-.07,0-.08.07l.09.08c.09,0,.21-.05.26.08s.1.06.15,0a.44.44,0,0,0,.15-.18l0,0,0,0c.2-.12.41,0,.62-.06s.1-.41.39-.41l.06,0a.35.35,0,0,0,.2-.14h.06l.07-.07h0C40.23,47.11,40.19,47.06,40,47.12Z"/><path class="cls-3" d="M40.12,48.08c0,.05,0,.09,0,.14s.13.07.21.06,0-.27,0-.41a.17.17,0,0,0-.14.07C40.12,48,40.14,48,40.12,48.08Z"/><path class="cls-3" d="M45.18,42.42a.66.66,0,0,0,0-.14l-.07-.07c-.18,0-.14.11-.08.21h0c.06,0,0,.18.13.15h0l0,.06c.06,0,.12.27.2,0C45.32,42.57,45.3,42.45,45.18,42.42Z"/><path class="cls-3" d="M99.61,71.51s0,.07.07.1a.06.06,0,0,0,.06,0c.06,0,.11,0,.15,0s.06-.13,0-.15h-.1S99.62,71.43,99.61,71.51Z"/><path class="cls-3" d="M95.82,68.64a4.33,4.33,0,0,0,.79.27.19.19,0,0,0,.2,0,.15.15,0,0,1-.13-.08l-.08-.06c-.13-.07-.32,0-.42-.15l-.08-.06H96a.17.17,0,0,0-.22,0h0A.1.1,0,0,0,95.82,68.64Z"/><path class="cls-3" d="M99.16,71.55c-.16,0-.28,0-.38.12C98.92,71.66,99,71.72,99.16,71.55Z"/><path class="cls-3" d="M98.9,71.33A.14.14,0,0,0,99,71.2c-.15,0-.15,0-.15.06s.06,0,.08.07Z"/><path class="cls-3" d="M101,71.19c-.11,0-.24-.14-.29.07s0,.15.07.21c-.11,0-.22,0-.26.12l.05,0,.14.06.08-.06v-.14c.12.14.23.09.35,0s.11,0,.18-.1l-.18-.1A.13.13,0,0,1,101,71.19Z"/><path class="cls-3" d="M99.5,70.38s0,0,0,0,.08-.06.09-.11S99.49,70.3,99.5,70.38Z"/><path class="cls-3" d="M93.75,66.36h0s0,0,0,0a.05.05,0,0,0,0,0h0a.23.23,0,0,0,.07-.07v-.06C93.78,66.22,93.67,66.2,93.75,66.36Z"/><path class="cls-3" d="M94.3,67.3v0h0s0,0,.07.07.06,0,.09,0h0s0,0,0,0,0,0,0,0,.12,0,.11-.06-.17-.2-.32-.19S94.3,67.27,94.3,67.3Z"/><path class="cls-3" d="M93,103.86c-.27-.08-.22.1-.22.24s.24-.08.38-.07.21-.12.18-.27S93.17,103.9,93,103.86Z"/><path class="cls-3" d="M20.23,71.54a.15.15,0,0,0,0,.07c.07,0,.1.15.21.13S20.39,71.52,20.23,71.54Z"/><path class="cls-3" d="M12.64,69.74c0,.1,0,.2.15.21s0,0,.07,0,0-.06.07-.09H13c.09-.1,0-.15-.07-.2h-.13s-.11,0-.15.06Z"/><path class="cls-3" d="M13.21,70.64h0a.38.38,0,0,0-.36,0A1.4,1.4,0,0,0,13.21,70.64Z"/><path class="cls-3" d="M13.35,70.5c0,.07.08.07.14.07S13.41,70.5,13.35,70.5Z"/><path class="cls-3" d="M59.34,56.15c-.05,0-.08,0-.11,0s-.1.16-.13.24a.14.14,0,0,0,0,.09c.06.11.14.12.24,0l.07-.13C59.41,56.33,59.45,56.22,59.34,56.15Z"/><path class="cls-3" d="M53.84,52.43c-.05,0,0-.1-.08-.14h0a.09.09,0,0,0-.13,0h0a.46.46,0,0,0-.08.28c.15.12.25,0,.35-.07Z"/><path class="cls-3" d="M51.43,53.29c.08-.08,0-.17,0-.24C51.26,53.1,51.32,53.18,51.43,53.29Z"/><path class="cls-3" d="M58.28,41.73c.1.05.14.19.3.18s0-.26-.1-.38S58.27,41.5,58.28,41.73Z"/><path class="cls-3" d="M47.91,58.19a.11.11,0,0,0,.11.14c.14,0,.08-.11.09-.17h0C48.05,58.18,48,58.05,47.91,58.19Z"/><path class="cls-3" d="M48.91,59.44a.16.16,0,0,0,0,.09c0,.07.12.09.17.14h0l.07.07a.32.32,0,0,1,.15.13c.09,0,.13,0,.13-.13l-.29-.34c0-.1-.14-.09-.2-.15h0c-.06,0-.07.08-.08.14Z"/><path class="cls-3" d="M96.89,94.94c-.09,0-.17,0-.12.11.16.22,0,.26-.16.29l-.07.07c0,.07-.11.09-.09.18a1.63,1.63,0,0,0,.53-.23C97.08,95.27,97,95,96.89,94.94Z"/><path class="cls-3" d="M97.68,94.93h0a.11.11,0,0,1,0,.15h0a.08.08,0,0,0,0,.13h0c.1,0,.19.08.16-.1a.1.1,0,0,1,0-.11c0-.1,0-.21-.07-.32C97.63,94.64,97.62,94.66,97.68,94.93Z"/><path class="cls-3" d="M96.32,94.17c0,.06,0,.12.1.12s.1-.06.12-.12S96.39,94.15,96.32,94.17Z"/><path class="cls-3" d="M97.46,92.92l.08.14h.07a.56.56,0,0,0,0-.13s0-.11-.06-.1S97.49,92.89,97.46,92.92Z"/><path class="cls-3" d="M98.08,91.94l0,0S98.09,91.92,98.08,91.94Z"/><path class="cls-3" d="M93.67,94.85v0c-.1,0-.2,0-.2.12s.12.16.16,0C93.63,94.88,93.65,94.87,93.67,94.85Z"/><path class="cls-3" d="M93.43,94.19s0,0,0-.06,0-.06,0,0,0,0,0,0Z"/><path class="cls-3" d="M93.82,84.85h0c0-.06-.06-.13-.13-.16a.11.11,0,0,0-.08,0,.19.19,0,0,0-.08.28h.54C94,84.9,93.86,84.94,93.82,84.85Z"/><path class="cls-3" d="M97.81,93.41a.48.48,0,0,0,.09.19.15.15,0,0,0,0-.23S97.84,93.37,97.81,93.41Z"/><path class="cls-3" d="M72.5,40.84l.22.07c.08-.08.17-.17-.06-.16,0,0-.06,0-.09,0S72.47,40.77,72.5,40.84Z"/><path class="cls-3" d="M102.38,70.61c-.06.13.11.08.14.14l0,0h0c.07-.06.11-.13,0-.19S102.41,70.56,102.38,70.61Z"/><path class="cls-3" d="M101.76,71.47s.1,0,.14.07h0c.08-.07.11-.15,0-.19s-.15,0-.15.12Z"/><path class="cls-3" d="M103.47,73.33c-.1-.06-.14,0-.15.08a.13.13,0,0,1,0,.06s.06.06,0,.08-.06.21.08.25.22,0,.22-.19A.36.36,0,0,1,103.47,73.33Z"/><path class="cls-3" d="M69.26,50.66a.66.66,0,0,0,0,.58l0,0a.13.13,0,0,0,.13,0,.13.13,0,0,0,0-.12s-.07-.06,0-.08a.19.19,0,0,0,.08,0c.21-.39.2-.53,0-.66h0a.1.1,0,0,0-.14,0C69.28,50.46,69.31,50.59,69.26,50.66Z"/><path class="cls-3" d="M68.6,49.94s-.07.05-.1.07a.46.46,0,0,1-.07.07c0,.06,0,.16.11.1a.35.35,0,0,0,.09-.17S68.65,49.93,68.6,49.94Z"/><path class="cls-3" d="M68.29,49.53v.06l.07.08.13-.08s0,0,0-.06h0l-.06-.07h0C68.35,49.42,68.32,49.48,68.29,49.53Z"/><path class="cls-3" d="M103.69,74.17h0c0-.08,0-.18-.12-.23C103.53,74.05,103.53,74.14,103.69,74.17Z"/><path class="cls-3" d="M81.64,55.17a.14.14,0,0,0,0,.06.15.15,0,0,0,0,.07l0,0h.14l.07-.08v-.13h-.18Z"/><path class="cls-3" d="M84.19,57.21h0s0-.05,0,0,0,0,0,0A0,0,0,0,0,84.19,57.21Z"/><path class="cls-3" d="M84.67,61.09a.14.14,0,0,0,0,.09.13.13,0,0,0,.06.07l.11.08c.23.12.47.22.69.35l.3.17c.08.06.17.1.25,0a.15.15,0,0,0,0-.26h0a.43.43,0,0,0-.2-.11.58.58,0,0,0-.23,0l-.28-.21s-.11,0-.14-.06h0a.34.34,0,0,0-.42-.15Z"/><path class="cls-3" d="M74.65,51.73c0-.08,0-.15-.07-.2S74.56,51.68,74.65,51.73Z"/><path class="cls-3" d="M79.24,50.64a.06.06,0,0,0,0,.06c.05,0,.1.08.15,0s0-.12,0-.18l-.06,0A.09.09,0,0,0,79.24,50.64Z"/><path class="cls-3" d="M23.49,66.86c.05-.16,0-.21-.25-.21h0a.22.22,0,0,0,.15.27S23.47,66.91,23.49,66.86Z"/><path class="cls-3" d="M20.64,69.11a2.77,2.77,0,0,1,.26-.1c.12,0,.22-.07.16-.21s-.17-.06-.25,0-.26.12-.37.2C20.37,69.23,20.56,69.09,20.64,69.11Z"/><path class="cls-3" d="M15.54,70.1h-.26C15.35,70.17,15.42,70.18,15.54,70.1Z"/><path class="cls-3" d="M14.93,70.3v-.14h-.07C14.81,70.24,14.77,70.31,14.93,70.3Z"/><path class="cls-3" d="M20.09,69.27c.05.08.13,0,.21.07l.05,0C20.28,69.23,20.18,69.27,20.09,69.27Z"/><path class="cls-3" d="M19.78,56.77a0,0,0,0,0,0,0h0s0,0,0,0S19.78,56.8,19.78,56.77Z"/><path class="cls-3" d="M34.76,48.91l-.09,0-.06.06v0a.56.56,0,0,0,.62,0c.14-.08,0-.11,0-.16H35A.82.82,0,0,1,34.76,48.91Z"/><path class="cls-3" d="M32.87,48.33a.58.58,0,0,1-.14,0h-.06l-.08,0c-.1,0-.21,0-.28.07h-.07a1.08,1.08,0,0,0-.66.27l-.12.07-.07,0-.06.06,0,0,.14.13h.07a.46.46,0,0,1,.43-.21l.44-.2h0l.06,0a.2.2,0,0,0,.22,0h0c.14,0,.3,0,.43-.06S33.06,48.25,32.87,48.33Z"/><path class="cls-3" d="M34.26,48.19c0-.06-.1,0-.16,0a1.36,1.36,0,0,1-.45.12c-.11,0-.07.08,0,.14h.14c.08-.07.2,0,.28-.07h0a.23.23,0,0,1,.15-.07S34.28,48.23,34.26,48.19Z"/><path class="cls-3" d="M31.46,48.51c-.06.06-.15,0-.22.06l-.07.13h0a.17.17,0,0,0,.21,0C31.39,48.63,31.58,48.63,31.46,48.51Z"/><path class="cls-3" d="M34.46,53a.29.29,0,0,1,.14.13.14.14,0,0,0,.06.12l.1.09c.08.08.2.11.28.19l-.19,0a.19.19,0,0,0-.1,0l0,0c0-.06,0-.13-.07-.18h0c-.07.05-.09.13-.13.19s0,.15.14.14h.08a9.62,9.62,0,0,0,1.42,0c.07,0,.22,0,.14.12s0,.22-.13.29l-.08.07h0a.29.29,0,0,1-.14.2c.05.09.12.07.19.06s.06-.28.22-.34l0,0,0-.07v0a.28.28,0,0,1,.1-.21l.06,0a.22.22,0,0,0,.16-.15c0-.12-.06-.17-.19-.12a2.39,2.39,0,0,1-.84-.06V53.4a.14.14,0,0,0-.1-.07h-.12c-.13,0-.3,0-.37-.13s-.17-.06-.26-.09l-.08-.06h0s-.11,0-.14-.07h0a.46.46,0,0,1-.07-.07h0a.12.12,0,0,0-.15,0Z"/><path class="cls-3" d="M33.46,53.87h.16s0,0,.05,0l.08,0a1,1,0,0,0,.49-.08c-.13-.13-.29-.05-.44-.07a2.43,2.43,0,0,0-.27,0C33.37,53.68,33.39,53.77,33.46,53.87Z"/><path class="cls-3" d="M32.16,53.8a.22.22,0,0,0,0,.08h0a.35.35,0,0,1,.14.13h0c.24.08.17-.12.21-.22s-.17-.13-.28-.06-.05,0-.08.06Z"/><path class="cls-3" d="M37.89,47.66a.12.12,0,0,0-.14-.13c0,.08,0,.15.06.2l.08-.06Z"/><path class="cls-3" d="M39.82,47.67h0l.16-.12C39.79,47.55,39.79,47.55,39.82,47.67Z"/><path class="cls-3" d="M101.5,70.68a.06.06,0,0,0-.06.07.13.13,0,0,0,.13.09h0s0,0,0-.06S101.57,70.68,101.5,70.68Z"/><path class="cls-3" d="M93.51,68.22a.13.13,0,0,0,.07,0,1.8,1.8,0,0,1,.21.08l.16.08a.55.55,0,0,1,.3.24.2.2,0,0,0,.08,0c.27,0,.15.21.24.3a.46.46,0,0,0,.24.17c.2,0,.26-.06.24-.2h0l.13.06c.1,0,.15.16.27.17h0c0,.22.17.23.34.25l0,0,0,0v0a.1.1,0,0,0,.06,0,.15.15,0,0,0,.07,0h0v0h.18a.24.24,0,0,0,0,.08.12.12,0,0,0,.15,0h0s0,0,0,0c.06.26.29.34.49.45s.28.33.54.27h.21c.09-.05.24,0,.29-.11a.29.29,0,0,0-.28-.09.45.45,0,0,1-.45-.2A.4.4,0,0,0,97,69.9a.24.24,0,0,1-.09-.08l0-.06a1.09,1.09,0,0,1,0-.18.08.08,0,0,0,0-.07.25.25,0,0,0-.22,0l-.17.06a.26.26,0,0,0-.09-.14c.13-.1.18-.21.07-.35H96.4c-.1-.11-.19-.24-.37-.11s-.11,0-.17,0a2,2,0,0,1-.54-.15l-.14-.07c-.06,0-.07-.07-.09-.12a1.38,1.38,0,0,1-.41-.49.49.49,0,0,0-.22-.27l-.06,0c-.18,0-.14.13-.14.24s.12.12.18.19A2.57,2.57,0,0,1,94,68c-.14-.07-.21-.22-.33-.31l-.09,0a.46.46,0,0,0-.2,0,.21.21,0,0,0-.08.06.2.2,0,0,0,0,.13c0,.08.08.12.15.17A.39.39,0,0,1,93.51,68.22Z"/><path class="cls-3" d="M88.72,63.66a.34.34,0,0,0,.16.36,5.39,5.39,0,0,0,1,.46.13.13,0,0,0,.12-.07.1.1,0,0,0,0-.09L90,64.25c-.12-.07-.08-.21-.16-.3s-.21-.1-.3-.05-.26,0-.33-.16-.11-.18-.22-.19a.28.28,0,0,0-.2,0A.2.2,0,0,0,88.72,63.66Z"/><path class="cls-3" d="M90.39,64a.12.12,0,0,0,.14-.13l-.07-.07a.18.18,0,0,0-.15.07s0,.1.08.13Z"/><path class="cls-3" d="M92.32,65.88a1.48,1.48,0,0,1,.29.27c.09.06.2.07.28.14H93v-.06a.46.46,0,0,0-.07-.07h0a2.36,2.36,0,0,0-.57-.35C92.32,65.79,92.3,65.82,92.32,65.88Z"/><path class="cls-3" d="M87.78,98.65l0,0-.08,0-.06.06c-.12,0-.12.07-.08.15h0a.31.31,0,0,1,.09.14.58.58,0,0,0,.07.14.28.28,0,0,0-.15.08v.12c.07.21.07.21.24.1l.1,0,.09-.06c0-.08,0-.1-.08-.14h0l-.1,0a.44.44,0,0,0,.1-.15h0A.11.11,0,0,1,88,99a.48.48,0,0,1,.35-.08v-.14a.15.15,0,0,0-.13-.05C88,98.76,87.93,98.59,87.78,98.65Z"/><path class="cls-3" d="M88,99.41s.1,0,.09-.09-.05,0-.08,0S88,99.36,88,99.41Z"/><path class="cls-3" d="M23.23,72.23a.14.14,0,0,0-.14.06h0l.06.07.07.07c.1,0,.23,0,.15-.15l0,0s-.05,0-.08,0Z"/><path class="cls-3" d="M20.65,76.51c.08-.07.17,0,.25,0s.06,0,.07,0h0s0,0,0-.06,0,0,0,0a.11.11,0,0,1,0-.09l.06-.06c.09-.09.23-.16.23-.32a.16.16,0,0,0-.15-.08h0c-.05,0-.11,0-.15.07h0a.46.46,0,0,0-.07.07.58.58,0,0,0-.23.18.28.28,0,0,1-.33.1s0,0,0,.06a.19.19,0,0,1-.13.21.34.34,0,0,0,0,.41C20.42,76.79,20.48,76.59,20.65,76.51Z"/><path class="cls-3" d="M19.93,77.47l.08-.14c-.08-.09-.18-.06-.28-.06l0,0C19.76,77.39,19.74,77.57,19.93,77.47Z"/><polygon class="cls-3" points="20.22 76.85 20.22 76.85 20.22 76.85 20.22 76.85 20.22 76.85"/><path class="cls-3" d="M20.21,76.87v0S20.19,76.87,20.21,76.87Z"/><path class="cls-3" d="M23.26,74.33c0-.09.09-.23-.11-.25h-.07a.23.23,0,0,1-.07.07h0c0,.09,0,.2.07.28h0C23.13,74.38,23.24,74.42,23.26,74.33Z"/><path class="cls-3" d="M8.58,83.5a.26.26,0,0,0-.3,0,.41.41,0,0,0,.28.15h0C8.58,83.62,8.66,83.55,8.58,83.5Z"/><path class="cls-3" d="M64.46,63.92v0c.11-.18,0-.37.06-.56l0-.08h0a.08.08,0,0,1,0-.08c0-.06,0-.12,0-.17h0c-.1-.09-.21-.16-.35-.06s0,.26.07.39a.18.18,0,0,1,0,.22s0,0,0,.06-.08.25.05.34l.09.05h.1S64.5,64,64.46,63.92Z"/><path class="cls-3" d="M52.69,60.91h0c.05.08.13.07.21.06v-.12h-.06S52.73,60.88,52.69,60.91Z"/><path class="cls-3" d="M65.75,65c-.06-.08-.14-.06-.22-.05a.18.18,0,0,0-.15.11s0,.08.05.08a.33.33,0,0,0,.29-.05S65.76,65.06,65.75,65Z"/><path class="cls-3" d="M65.64,57.11c.1.07,0,.2.1.3.06-.08,0-.18.11-.22s0,0,0-.06-.07-.18-.18-.17S65.64,57.06,65.64,57.11Z"/><path class="cls-3" d="M53.48,60.77h-.07c.07.09.17.06.27.06S53.55,60.79,53.48,60.77Z"/><path class="cls-3" d="M49.84,60.56s.08.1.12.1.08-.09.08-.15L50,60.36c-.1-.06-.13,0-.14.08Z"/><path class="cls-3" d="M38.44,56.54a.49.49,0,0,1,.24,0h.06c.08-.21-.12-.16-.21-.2s-.13,0-.2,0a.51.51,0,0,0-.13.09l0,0A.18.18,0,0,0,38.44,56.54Z"/><path class="cls-3" d="M41.72,53.14c-.09-.12-.18,0-.32,0,.13.08.22.12.32,0A.08.08,0,0,0,41.72,53.14Z"/><path class="cls-3" d="M42.06,52.43c-.11,0-.29,0-.29-.07s-.12-.12-.2-.13a.24.24,0,0,1-.12-.07c-.07,0-.14-.1-.22,0a.17.17,0,0,0,0,.22,1.36,1.36,0,0,0,.12.12c.13,0,.2.12.3.18a.4.4,0,0,0,.49,0,.13.13,0,0,0,0-.15A.1.1,0,0,0,42.06,52.43Z"/><path class="cls-3" d="M13.77,86.72a.2.2,0,0,1-.06-.14c0-.1-.05-.13-.14-.13s-.25,0-.12.17l.12.16C13.65,86.78,13.73,86.8,13.77,86.72Z"/><path class="cls-3" d="M9.15,102.26c-.11-.05-.15,0-.15.11h.13S9.23,102.29,9.15,102.26Z"/><path class="cls-3" d="M97.82,76.87a2.32,2.32,0,0,1-.52-.07.46.46,0,0,0-.2,0c-.06.11-.47.06-.17.35l.09,0a.51.51,0,0,1,.21.1.32.32,0,0,0,.38,0c.27,0,.51-.17.79-.14.06-.1.2-.14.2-.27h0a.28.28,0,0,0-.28,0c-.13,0-.28,0-.41,0Z"/><path class="cls-3" d="M84.6,97.2l.09,0c.16.1.18.09.2-.09,0,0,0-.06,0-.1h-.07C84.63,97,84.61,97,84.6,97.2Z"/><path class="cls-3" d="M86,97.71c0-.06,0-.11-.1-.12a.05.05,0,0,0-.05.07c0,.06,0,.11.09.12S86,97.74,86,97.71Z"/><path class="cls-3" d="M92.76,96.27c-.06-.13-.22,0-.3-.1s-.12-.26-.29-.28-.17,0-.2.09.07.11.13.13a.24.24,0,0,1,.18.23c0,.21.14.17.26.18a1.85,1.85,0,0,1,.14-.14S92.77,96.33,92.76,96.27Z"/><path class="cls-3" d="M94.09,95.75v-.13a.09.09,0,0,0-.06-.07c-.06-.06-.12-.11-.21-.07h0c-.11.07-.09.14,0,.21a.2.2,0,0,0,0,.07h.07v.06h.21A.2.2,0,0,1,94.09,95.75Z"/><path class="cls-3" d="M92,90h.13l.17-.12c0-.05,0-.11,0-.13S92,89.85,92,90Z"/><path class="cls-3" d="M92.94,89.08a0,0,0,0,1,0,0l0,0,0,0S92.91,89.09,92.94,89.08Z"/><path class="cls-3" d="M91.45,82.79c.15,0,.16.16.17.3a2.26,2.26,0,0,1,.16-.21l0-.17C91.65,82.73,91.53,82.68,91.45,82.79Z"/><path class="cls-3" d="M91.1,85.5s0,.08.08.08l0,0a.09.09,0,0,0,0-.11l-.09,0h0A.31.31,0,0,1,91.1,85.5Z"/><path class="cls-3" d="M20.22,93.34a.31.31,0,0,0,.22-.21h0a.12.12,0,0,0,0-.09c-.13-.16-.22-.1-.31,0l-.08,0L20,93.2l-.06.07c-.06.16,0,.19.15.15Z"/><path class="cls-3" d="M14.79,91.75l.15.13.33-.07C15.12,91.7,15,91.77,14.79,91.75Z"/><path class="cls-3" d="M12.57,89.2c-.1,0-.15,0-.14.14A.12.12,0,0,0,12.57,89.2Z"/><path class="cls-3" d="M70.79,45.32l.07.06.14.14h0a.46.46,0,0,1,.07-.07h0c.1-.16,0-.21-.14-.28l-.31,0C70.65,45.25,70.76,45.25,70.79,45.32Z"/><path class="cls-3" d="M69.5,50.15c.09,0,.16,0,.15-.09s0-.19-.15-.12Z"/><path class="cls-3" d="M68.22,53.32c.07,0,.15,0,.19-.06l-.06-.07C68.27,53.19,68.12,53.15,68.22,53.32Z"/><path class="cls-3" d="M81.76,55.69a.14.14,0,0,0,0-.22C81.73,55.54,81.7,55.61,81.76,55.69Z"/><polygon class="cls-3" points="81.73 55.47 81.73 55.46 81.73 55.47 81.73 55.47"/><path class="cls-3" d="M86.38,61.88v0l0,.06.07,0,.11,0,0,0,.07,0a.1.1,0,0,0,.07,0,.09.09,0,0,0,0,0,.6.6,0,0,0,.4.24,4,4,0,0,0,.39.16.37.37,0,0,0,.23,0c.08,0,.16,0,.22-.06s0,0-.07-.07l-.15-.07a.44.44,0,0,0-.21-.07c-.09-.06-.21-.1-.25-.18s-.29-.2-.48-.18l-.13,0c-.06-.06-.16,0-.22-.07h0C86.46,61.82,86.4,61.82,86.38,61.88Z"/><path class="cls-3" d="M87.47,62s0,.08.1.07a.11.11,0,0,0,.09-.12c0-.05,0-.08-.08-.06S87.47,61.9,87.47,62Z"/><path class="cls-3" d="M84.05,60.59a.4.4,0,0,0,.4.26c.06,0,.11,0,.14-.08l-.07-.07-.07-.06h-.06a.16.16,0,0,1-.08-.06h-.06a.18.18,0,0,1-.09-.06h0l0,0s0,0-.06,0A.29.29,0,0,0,84.05,60.59Z"/><path class="cls-3" d="M83.53,59.8l.2.09a.21.21,0,0,1,.08.06h0a.23.23,0,0,0,.07.07h0A.11.11,0,0,0,84,60v0l0,0,.06.07c.07,0,.12.12.19.18h0a1.51,1.51,0,0,1,.36.06l.06,0c.08,0,.13,0,.08-.13a1.7,1.7,0,0,0-.15-.22L84.45,60v-.13h0s0,0,0,0-.1-.08-.17-.07h0c-.1-.06-.18-.14-.32-.11S83.59,59.63,83.53,59.8Z"/><path class="cls-3" d="M75,46.86a.12.12,0,0,0,.09.09.08.08,0,0,0,.1-.06c0-.07,0-.11-.1-.11A.08.08,0,0,0,75,46.86Z"/><path class="cls-3" d="M79,52.32l0,0h0Z"/><path class="cls-3" d="M24.87,66.3c.08-.07.19,0,.26-.08a.22.22,0,0,0,.1-.09l0,0h0a.1.1,0,0,0,.09,0l.12-.07c.1-.09.28-.12.3-.29h0l0,0c.13-.19.13-.19-.07-.21l-.07.07h0a1,1,0,0,0-.43.22l-.07.06h0s0,0,0,.06a.07.07,0,0,0-.06,0h-.08a.17.17,0,0,1,0,.07h0c-.13,0-.19.08-.27.14l-.07.07c0,.06.08.07.14.07Z"/><path class="cls-3" d="M19.36,59.61h0l0,0s0,0-.05,0l0,0a.19.19,0,0,0,0-.18h0c-.07,0-.1-.15-.22-.13a.13.13,0,0,1,0,.06c.1.08.07.24.21.28h0a.38.38,0,0,0,.08.27C19.51,59.78,19.39,59.69,19.36,59.61Z"/><path class="cls-3" d="M20.73,59.67a.51.51,0,0,1-.16-.13h-.06a.05.05,0,0,0-.08,0,.18.18,0,0,0,0,.14c0,.12.15.16.24.22h0a.23.23,0,0,1,.07.07h0c.05,0,0,.1.08.13h0c.09.08,0,.25.22.27s.13.12.14.21,0,.26.25.26c0-.13,0-.26-.05-.38A7.82,7.82,0,0,0,20.73,59.67Z"/><path class="cls-3" d="M37.32,52.64l.06-.08a.12.12,0,0,0-.07-.14l-.28.22c-.08.18.07.12.15.14A.38.38,0,0,0,37.32,52.64Z"/><path class="cls-3" d="M38.55,47.48l-.09,0h0l.07,0Z"/><path class="cls-3" d="M95,71.82a.71.71,0,0,0-.22-.13,2.51,2.51,0,0,0-.67,0,.23.23,0,0,0-.07.07.38.38,0,0,0,0,.1c.1.11.24.09.37.13s.18,0,.23.08S94.83,71.89,95,71.82Z"/><polygon class="cls-3" points="93.96 70.85 93.96 70.85 93.96 70.85 93.96 70.85"/><path class="cls-3" d="M94.06,70.87l-.1,0S94,70.94,94.06,70.87Z"/><path class="cls-3" d="M94.83,69.74s0-.08-.07-.09a.08.08,0,0,0-.08,0l-.08.13C94.72,69.93,94.79,69.89,94.83,69.74Z"/><polygon class="cls-3" points="93.53 70.78 93.53 70.78 93.53 70.78 93.53 70.78"/><path class="cls-3" d="M93.39,70.57v.06s0,.06,0,.09a.22.22,0,0,0,.14.06h0c0,.1-.21,0-.26.16a.84.84,0,0,0,.47,0c0-.06.13-.06.16-.13-.16,0-.12-.21-.23-.26S93.48,70.57,93.39,70.57Z"/><path class="cls-3" d="M94.89,70.23l.07.07s.05,0,.07,0h.07v-.14H95a.14.14,0,0,0-.15,0h0A.06.06,0,0,0,94.89,70.23Z"/><path class="cls-3" d="M95.55,69.48a.75.75,0,0,0-.4-.24s0,.06,0,.09h0c.09.06,0,.21.13.24a.11.11,0,0,0,.08,0h.14S95.58,69.51,95.55,69.48Z"/><path class="cls-3" d="M90.89,66a1.83,1.83,0,0,0,.55.25s.07.06.1.09.25.08.2-.13,0-.22-.21-.21h0l-.09-.08c-.18-.08-.33-.22-.55-.16S90.78,66,90.89,66Z"/><path class="cls-3" d="M86.1,105.42h.06c0-.06,0-.13-.08-.1S86.05,105.39,86.1,105.42Z"/><path class="cls-3" d="M87,97.89l-.09-.2h0a1.85,1.85,0,0,1-.14-.14s0,0-.07,0-.06.13-.06.2h.05c.08,0,0,.13.06.19a.13.13,0,0,0,.06.07l.08,0a.14.14,0,0,0,.09,0A.1.1,0,0,0,87,97.89Z"/><path class="cls-3" d="M21.55,76.16c-.08-.09-.15,0-.21.08l-.05.05h-.06c-.11.1-.22.19-.22.34a.57.57,0,0,0-.22.07.1.1,0,0,0-.05,0s-.08.06-.06.11.08,0,.13,0h.06l.06,0,.07,0a.13.13,0,0,0,.05-.06.22.22,0,0,0,0-.08l0,0a.05.05,0,0,0,.08,0l.05,0a1.08,1.08,0,0,1,.3-.26C21.51,76.31,21.66,76.27,21.55,76.16Z"/><path class="cls-3" d="M24.38,73.76l0,0a.2.2,0,0,0,0-.08.47.47,0,0,0,0-.17.3.3,0,0,0,0-.08h0a.06.06,0,0,0-.05,0H24.3v.07a.46.46,0,0,0-.07.07l-.08.12h0c-.29.18-.24.53-.48.78l.26-.08h0l.07-.07c.1-.09.16-.21.29-.27a.51.51,0,0,0,0-.21.14.14,0,0,0,0-.06A.06.06,0,0,0,24.38,73.76Z"/><path class="cls-3" d="M23.58,73.68l-.06.07-.08.06c0,.18.12.12.21.07S23.67,73.73,23.58,73.68Z"/><path class="cls-3" d="M82.58,97.41h0a.1.1,0,0,1-.08-.06h0c-.06,0-.07.08-.08.14s.12.2.26.18S82.58,97.49,82.58,97.41Z"/><path class="cls-3" d="M65.83,66.93c.16.06.29,0,.37.13a.26.26,0,0,0,.16-.15.44.44,0,0,1,.07-.27c.1-.18.07-.26-.14-.4,0,.13-.06.26-.08.4S66.17,66.91,65.83,66.93Z"/><path class="cls-3" d="M72.23,65.82v-.67l-.16.11v.48c0,.16-.07.34.08.49A.25.25,0,0,0,72.23,65.82Z"/><path class="cls-3" d="M68.35,68.49a2.44,2.44,0,0,0,0-.27h0c-.08,0-.11,0-.14.08a.52.52,0,0,1-.07.27C68.25,68.63,68.33,68.61,68.35,68.49Z"/><path class="cls-3" d="M61.57,68.84c.06,0,.13,0,.11.09s.07.13.1.19H62c.07-.11,0-.2-.07-.28a.79.79,0,0,1-.15-.25C61.47,68.57,61.44,68.6,61.57,68.84Z"/><polygon class="cls-3" points="40.68 56.78 40.68 56.77 40.68 56.78 40.68 56.78"/><path class="cls-3" d="M40.3,56.37h0c-.06,0,0,.08,0,.12h0l.07.08h0l.21.15s.11,0,.15.07a.3.3,0,0,1,.08-.08.13.13,0,0,1,0-.06C40.66,56.45,40.45,56.45,40.3,56.37Z"/><path class="cls-3" d="M14.07,87.28l-.14.13a.13.13,0,0,0,0,.06C14.14,87.46,14.15,87.45,14.07,87.28Z"/><path class="cls-3" d="M15.63,88.79h0c-.09-.13-.21,0-.31,0h-.06v.13a.34.34,0,0,0,.31.11C15.64,89,15.71,88.91,15.63,88.79Z"/><path class="cls-3" d="M10.28,102l-.06,0c-.06,0,0,.09-.08.12v.07a.15.15,0,0,0,.14.07h0s0-.1.07-.14A.14.14,0,0,0,10.28,102Z"/><path class="cls-3" d="M10,102.51a.13.13,0,0,0,.15.14,1.41,1.41,0,0,1,0-.2C10,102.34,10,102.42,10,102.51Z"/><path class="cls-3" d="M92.88,78.2a.08.08,0,0,0,0-.08c-.07,0-.07,0-.06.09a.36.36,0,0,1,0,.09h0A.12.12,0,0,0,92.88,78.2Z"/><path class="cls-3" d="M94.46,80.92h0c.1-.15,0-.23-.11-.31C94.27,80.77,94.44,80.82,94.46,80.92Z"/><path class="cls-3" d="M95.6,95.48h0l-.08-.06c-.06,0-.12-.12-.21,0s0,.15,0,.21.11.18.24.18S95.59,95.58,95.6,95.48Z"/><path class="cls-3" d="M82.91,95.68c.09,0,.1-.07.11-.14a.19.19,0,0,0-.21-.12s0,.08,0,.13A.1.1,0,0,0,82.91,95.68Z"/><path class="cls-3" d="M21.32,93.32a.08.08,0,0,0,.06.11c.07,0,.1,0,.13-.09a.64.64,0,0,1,0-.2c.11-.25,0-.47,0-.71a.1.1,0,0,0-.12-.09c-.06,0-.07.06-.07.11s0,.22,0,.34A.75.75,0,0,1,21.32,93.32Z"/><path class="cls-3" d="M22.67,91.22a.24.24,0,0,0-.09-.11c-.12,0-.22-.14-.35,0h0s0,0,0,.06a.09.09,0,0,0,0,.07l.08.14h.07a.24.24,0,0,0,.2,0A.19.19,0,0,0,22.67,91.22Z"/><path class="cls-3" d="M69.79,52.15c0,.07-.13.14,0,.21s.12-.06.19-.08.1-.06.08-.13-.09-.07-.14-.06A.52.52,0,0,0,69.79,52.15Z"/><path class="cls-3" d="M84,60.49c0-.13-.06-.19-.13-.27s0,.14-.07.2a.16.16,0,0,0,.07.07h0A.08.08,0,0,0,84,60.49Z"/><path class="cls-3" d="M24.54,72.19a.07.07,0,0,0-.07-.08.07.07,0,0,0-.09.07s0,.09.07.09A.09.09,0,0,0,24.54,72.19Z"/><path class="cls-3" d="M27.79,70.09c.07.08.12,0,.17,0L28,70c0-.16-.11-.11-.19-.08A.1.1,0,0,0,27.79,70.09Z"/><polygon class="cls-3" points="28.02 70.02 28.02 70.02 28.02 70.02 28.02 70.02"/><path class="cls-3" d="M28.1,69.76c0,.24.18.07.28,0h.06c.12.08.16-.06.24-.08a.3.3,0,0,0,.15-.12.11.11,0,0,0,0-.13.15.15,0,0,1-.15-.07.57.57,0,0,0-.43.27h0A.2.2,0,0,1,28.1,69.76Z"/><path class="cls-3" d="M27.58,70.34s0,.08,0,.11l.07-.08S27.62,70.31,27.58,70.34Z"/><path class="cls-3" d="M26.79,63.84s0-.07-.06-.07-.1,0-.12.09a.06.06,0,0,0,.07.07C26.75,64,26.79,63.91,26.79,63.84Z"/><path class="cls-3" d="M26.52,62c-.11,0-.05-.2-.18-.22s0,.26-.1.36,0,.22,0,.31,0-.12.11-.14,0,.22.21.17A1.15,1.15,0,0,1,26.52,62Z"/><path class="cls-3" d="M37.17,53.6v-.13H37C36.94,53.64,37.08,53.59,37.17,53.6Z"/><path class="cls-3" d="M90.88,70.44h0c-.09.17-.33.1-.46.27h.39c.1,0,.18-.07.3,0s.06,0,.06-.09l-.07-.06C91,70.44,90.94,70.5,90.88,70.44Z"/><path class="cls-3" d="M92.6,67.4c0,.19,0,.21.22.27.05,0,.14,0,.07-.09s-.07-.17.09-.16,0,0,0-.08L93,67.27C92.83,67.28,92.64,67.14,92.6,67.4Z"/><path class="cls-3" d="M92.32,67h0s0,0,0,0v0c.1.15.2.19.31,0a.48.48,0,0,1,.11-.09c0-.08,0-.15-.13-.09A.74.74,0,0,1,92.32,67Z"/><path class="cls-3" d="M88.1,63.32h0c.1,0,.18.14.33.1C88.32,63.31,88.25,63.18,88.1,63.32Z"/><path class="cls-3" d="M18.27,81.26l.1.14a.26.26,0,0,0,.28.17c.05,0,.1,0,.14,0h0A.42.42,0,0,0,18.27,81.26Z"/><path class="cls-3" d="M19.36,81.26c.22-.05,0-.13,0-.2s-.21,0-.19.12S19.29,81.28,19.36,81.26Z"/><path class="cls-3" d="M20.43,81.13a.14.14,0,0,1,0,.06l.13.07s.1,0,.14.1a.11.11,0,0,0,.08,0,.15.15,0,0,0,.11-.2.12.12,0,0,0-.05-.07.59.59,0,0,0-.14-.06h0a.15.15,0,0,0-.07,0h0C20.48,81,20.36,81,20.43,81.13Z"/><path class="cls-3" d="M77.73,78.87a.3.3,0,0,0,0,.08.29.29,0,0,0,.06.11s0,0,0,.06h0a.59.59,0,0,1,.07.36c0,.14,0,.22.17.25h0a.17.17,0,0,0,.06.1h0V80l0,0h0c0,.11,0,.23.12.28a.39.39,0,0,0,0-.51h0l0,0c0-.11,0-.22-.06-.31a.81.81,0,0,1-.12-.14h0l-.06-.08-.16-.33C77.86,78.79,77.79,78.82,77.73,78.87Z"/><path class="cls-3" d="M85.88,99.9l-.15.13s-.19.09,0,.15a.36.36,0,0,0,.29,0h0c.07-.12.14,0,.22,0l0,0v-.06a.06.06,0,0,1,0,0,.91.91,0,0,0,0-.33h0l-.3.13Z"/><path class="cls-3" d="M63.81,75.37c0-.09-.09-.1-.16-.1s-.21,0-.23.15,0,.12.11.11A.36.36,0,0,0,63.81,75.37Z"/><path class="cls-3" d="M70,88.76c-.12.06-.07.19-.17.23l-.07.08-.08.05a.1.1,0,0,0,0,.09.24.24,0,0,0,.1.1h.1c.18,0,.1-.18.18-.25h0C70.06,89,70.12,88.85,70,88.76Z"/><path class="cls-3" d="M61.7,76.57c-.08-.18-.09-.18-.35-.06,0,.13.14.17.18.31C61.57,76.7,61.6,76.61,61.7,76.57Z"/><path class="cls-3" d="M66.52,82.22c0,.08,0,.17-.09.22a2.44,2.44,0,0,0,0,.27h0c0,.08-.06.17.06.21s.16.1.27.07c0-.19,0-.41.14-.57-.14-.07-.22.09-.32,0S66.61,82.28,66.52,82.22Z"/><path class="cls-3" d="M67,82c-.06.22.1.42.05.63.14,0,.12-.1.13-.19s0-.3.06-.43,0-.25-.17-.23S67,81.94,67,82Z"/><path class="cls-3" d="M72.88,80.67a.08.08,0,0,0,.1.07c.1,0,.12-.1.12-.18s0,0-.08,0S72.87,80.57,72.88,80.67Z"/><path class="cls-3" d="M83.31,95.13l.07.07c.1-.16.09-.2-.07-.27h0l-.06.07v.06A.46.46,0,0,1,83.31,95.13Z"/><path class="cls-3" d="M72.58,75.81a.84.84,0,0,1,.07.35c0,.11.1.23.25.15s.11-.18,0-.29,0,0,0-.07,0-.1-.07-.13,0,0,0,0h0a1.1,1.1,0,0,0,0-.18c0-.05,0-.11,0-.15h0c-.08-.06-.18,0-.26,0s-.16.07-.15.17S72.48,75.78,72.58,75.81Z"/><path class="cls-3" d="M72,88.24c-.11,0-.13.07-.14.16s0,.18-.07.24a2.18,2.18,0,0,0-.21.7l0,.12h0l0,0a.44.44,0,0,0-.07.35c0,.1,0,.19.2.12a.46.46,0,0,0,.07-.07,1.11,1.11,0,0,1,.09-.4l0,0s.05,0,.07,0a.11.11,0,0,0,0-.13h0a1.68,1.68,0,0,1,0-.5A1.74,1.74,0,0,0,72,88.24Z"/><path class="cls-3" d="M66.36,84.24a.21.21,0,0,1-.07.14c0,.13,0,.14.18,0v0a.14.14,0,0,0,0,.12c.11,0,.16.18.28.22a.07.07,0,0,0,.07,0c0-.11.11-.22,0-.33s-.14-.31-.36-.21C66.39,84.1,66.42,84.23,66.36,84.24Z"/><path class="cls-3" d="M71.32,90.84c-.22.07-.18.28-.24.43s0,.2.07.27a.33.33,0,0,0,.21-.07,2.35,2.35,0,0,1,0-.26C71.39,91.08,71.46,91,71.32,90.84Z"/><path class="cls-3" d="M66.94,88.51l0-.13-.13.06s0,.09,0,.13,0,.29.16.36h0A.58.58,0,0,0,66.94,88.51Z"/><path class="cls-3" d="M69.28,86h0s.12.18.15,0,0-.15-.06-.16S69.29,85.89,69.28,86Z"/><path class="cls-3" d="M65.47,71.65c.07,0,.12,0,.17-.05h0c-.06,0-.07-.13-.16-.07A.08.08,0,0,0,65.47,71.65Z"/><path class="cls-3" d="M66.21,67.19s0,.1.05.07S66.24,67.2,66.21,67.19Z"/><path class="cls-3" d="M70.14,58.07s.1,0,.15-.06.11-.13,0-.21-.09,0-.13,0a.61.61,0,0,0,0,.12S70.08,58,70.14,58.07Z"/><path class="cls-3" d="M66.29,55.81l0-.09,0,0,0,.06Z"/><path class="cls-3" d="M38.75,65.19a.08.08,0,0,0,.06,0h.08l0,0,.07,0a.17.17,0,0,0,.1-.06l.08-.06c0-.08,0-.14-.08-.14l-.06,0a.7.7,0,0,1-.29.13Z"/><path class="cls-3" d="M43,63.4l-.16.06h-.13c-.09.11-.27,0-.36.12a.27.27,0,0,1-.07.08h0c0,.06.1.07.16.08a2.63,2.63,0,0,1,.63-.15C43.14,63.51,43.23,63.41,43,63.4Z"/><path class="cls-3" d="M10.92,101.13a.12.12,0,0,0-.14-.06l-.07.07C10.79,101.35,10.85,101.12,10.92,101.13Z"/><polygon class="cls-3" points="92.53 76.3 92.53 76.3 92.53 76.3 92.53 76.3"/><path class="cls-3" d="M92.36,76.07a1.71,1.71,0,0,0-.45-.09.17.17,0,0,0-.16,0c0,.11,0,.19.14.2s.16,0,.22.06h.42C92.62,76.13,92.47,76.11,92.36,76.07Z"/><path class="cls-3" d="M92.73,77.16a0,0,0,0,0,0,0c0,.08.06.08.11.09h0S92.82,77.15,92.73,77.16Z"/><path class="cls-3" d="M91.46,75.94l-.37,0c.11.18.37.06.44.26.1,0,.16,0,.09-.14a1.1,1.1,0,0,0-.09-.14A.08.08,0,0,1,91.46,75.94Z"/><path class="cls-3" d="M90.65,75.93c0,.08.06.14.16.17s0,0,.07.06c.24-.06,0-.14,0-.21S90.71,75.82,90.65,75.93Z"/><path class="cls-3" d="M92.84,75.85c.13.21,0,.33-.16.45h0s.1,0,.14.08a.18.18,0,0,1,.15.06h0a.11.11,0,0,1,.15,0h0a.16.16,0,0,0,.09,0,.11.11,0,0,0,.1,0,.14.14,0,0,0,.1.11h0a10,10,0,0,0,1.24.11c-.07-.12-.2-.08-.26-.17l-.2-.07a2.14,2.14,0,0,0-.43-.07h-.28a.13.13,0,0,1,0-.06.75.75,0,0,0-.43-.13c-.11-.15,0-.37-.21-.49A.11.11,0,0,0,92.84,75.85Z"/><path class="cls-3" d="M92.54,83s0,.09.09.07,0-.06,0-.09a.06.06,0,0,0,0-.06C92.55,83,92.54,83,92.54,83Z"/><path class="cls-3" d="M16.44,90a.18.18,0,0,1-.15-.07L16,90h0c-.05.05-.06.09,0,.13s.21,0,.28.07a.4.4,0,0,0,.28-.07A.12.12,0,0,0,16.44,90Z"/><path class="cls-3" d="M78.66,59h0a.87.87,0,0,0,0,.22s0,.08.08.1.08,0,.09,0,.26-.33.09-.57C78.78,58.8,78.78,58.94,78.66,59Z"/><path class="cls-3" d="M85.24,62.49l.07.07a.23.23,0,0,0,.29-.13h0l-.07-.07h0C85.26,62.3,85.26,62.3,85.24,62.49Z"/><path class="cls-3" d="M85.53,64.5h0l-.08-.06h-.13s0,0,0,0,0,0,0,0l-.08-.05c0-.07-.12,0-.19,0s-.16,0-.23,0h0a.06.06,0,0,0-.08,0H84.6a.24.24,0,0,1-.23,0H84c-.09,0-.14-.16-.24,0s0,0,0,.06.17,0,.26.07v.07l.12.07.18.07a2.6,2.6,0,0,0,1,.19C85.41,64.7,85.54,64.68,85.53,64.5Z"/><path class="cls-3" d="M81.1,62.72l.07-.08a1,1,0,0,1,0-.17c0-.21-.08-.07-.14,0a.13.13,0,0,0,0,.06C81,62.58,80.92,62.7,81.1,62.72Z"/><path class="cls-3" d="M81.88,62.57H82v-.14C81.92,62.42,81.87,62.47,81.88,62.57Z"/><path class="cls-3" d="M83.31,64.08a.18.18,0,0,0-.07,0L83.09,64a1.13,1.13,0,0,0-.27-.13l-.12,0-.07-.05a.21.21,0,0,0-.12,0h-.08a.34.34,0,0,1-.2,0,.24.24,0,0,0-.12,0s-.07.06-.1,0l-.08,0c-.19,0-.16.12-.08.23A.37.37,0,0,0,82,64c.09,0,.19,0,.27,0a2.32,2.32,0,0,1,.38.07,1.37,1.37,0,0,0,.49.13s.1,0,.13.08h0C83.46,64.23,83.39,64.16,83.31,64.08Z"/><path class="cls-3" d="M83.23,63.88h0c.11.06.26,0,.36.14h0a.12.12,0,0,0,.14-.13.49.49,0,0,0-.49-.14S83.19,63.83,83.23,63.88Z"/><path class="cls-3" d="M79.31,61.18c.06,0,.13.1.17,0s.1-.23-.1-.25l-.06.08Z"/><path class="cls-3" d="M87.37,63.06c.18-.13-.08-.19,0-.31s-.1-.1-.17-.12c-.24,0-.24,0-.2.14l.07.06C87.14,62.91,87.17,63.11,87.37,63.06Z"/><path class="cls-3" d="M86.52,62.16c-.11,0-.15,0-.14.13l.08.06C86.66,62.35,86.56,62.24,86.52,62.16Z"/><path class="cls-3" d="M72.43,55.6a.15.15,0,0,1,.14-.07.56.56,0,0,1,.13-.24s.1-.08,0-.14a.12.12,0,0,0-.18,0c-.1.18-.31.24-.42.41,0,0,0,0,0,0s-.17,0-.09.15.11,0,.18,0S72.34,55.66,72.43,55.6Z"/><path class="cls-3" d="M72.65,54.78h0a0,0,0,0,0,0,.06h0l.07.06h.07l.09-.14a.14.14,0,0,1,0-.06C72.75,54.62,72.7,54.7,72.65,54.78Z"/><path class="cls-3" d="M71.59,53.68c0,.06,0,.15.06.17s.12-.06.13-.13,0-.2-.13-.12Z"/><path class="cls-3" d="M28.81,66c.08,0,.06-.12,0-.18a2.12,2.12,0,0,0-.11-.21s-.05,0-.08-.07-.18.09-.06.34a.1.1,0,0,1,.05,0C28.69,66,28.73,66,28.81,66Z"/><path class="cls-3" d="M27.38,71.65c.05.16.25,0,.38,0h.1a.45.45,0,0,0,.3-.09c.11-.2.32-.3.43-.49h0a.09.09,0,0,0,.07,0c0-.09,0-.2-.07-.27,0-.23,0-.23-.22-.15s-.25.27-.42.35l-.22.35C27.57,71.39,27.33,71.46,27.38,71.65Z"/><path class="cls-3" d="M27.3,65.74a.46.46,0,0,1-.07-.07h0a.11.11,0,0,0-.14,0,.34.34,0,0,0,.07.28C27.32,66,27.31,65.84,27.3,65.74Z"/><path class="cls-3" d="M27.45,63.4s.07-.1,0-.15-.11,0-.16,0-.05,0-.08.06a.16.16,0,0,0,.16.15S27.43,63.43,27.45,63.4Z"/><path class="cls-3" d="M26.86,64.94s0,0,0,0,0,.12.1.13a.09.09,0,0,0,0-.06S27,64.94,26.86,64.94Z"/><path class="cls-3" d="M93.15,75.84l.38.19c.08,0,.17,0,.24,0a.26.26,0,0,0-.17-.17C93.47,76,93.31,75.76,93.15,75.84Z"/><path class="cls-3" d="M93,71.75h-.14v.14h.06c.12,0,.26,0,.37-.08h0C93.16,71.74,93,71.82,93,71.75Z"/><path class="cls-3" d="M90.32,70.84c-.23-.08-.42.08-.64.07a.17.17,0,0,0-.14,0,.11.11,0,0,0-.06.07.13.13,0,0,0,0,.16c.07.06.14.19.21,0s.44,0,.65-.06h0Z"/><path class="cls-3" d="M87.59,66.3s-.1,0-.14-.07h0a.46.46,0,0,0-.07-.07h0a.06.06,0,0,0-.09,0,.2.2,0,0,0,0,.08,1.82,1.82,0,0,0,.08.52.35.35,0,0,0,0,.08c.05,0,.09,0,.14,0s0-.38.07-.55Z"/><path class="cls-3" d="M91.38,67c-.07,0-.15,0-.2.06s.06.15.17.16S91.38,67.06,91.38,67Z"/><path class="cls-3" d="M92,67.22l-.09,0h0S91.93,67.28,92,67.22Z"/><path class="cls-3" d="M21.41,79s-.06,0-.1,0l-.07.12h.05C21.34,79.05,21.41,79.06,21.41,79Z"/><path class="cls-3" d="M76.19,76c.09.16.2.21.36.1l-.12-.17c-.06,0-.05-.12-.08-.17s-.2-.17-.33,0C76.08,75.77,76.14,75.86,76.19,76Z"/><path class="cls-3" d="M79.27,102.29a.29.29,0,0,0-.16,0,.28.28,0,0,0-.17.18c0,.07.1.08.16.09s.32,0,.47-.09C79.7,102.14,79.39,102.33,79.27,102.29Z"/><path class="cls-3" d="M79.87,100.85a1.28,1.28,0,0,1-.14.23s0,0,.07.06l0,0s0,0,.05,0h0c.06,0,.16,0,.21-.07h0c.19,0,.28-.12.08-.27H80S79.91,100.82,79.87,100.85Z"/><path class="cls-3" d="M82.94,101.27c-.17.11-.45,0-.57.21h0s-.06,0-.08.08h-.06v0l-.16.07-.19,0h-.16l-.08,0-.1,0a.44.44,0,0,1-.16,0,.09.09,0,0,0-.07,0c0,.11,0,.2.14.21a6.12,6.12,0,0,1,.87-.2c.15,0,.25-.17.42-.09a.16.16,0,0,0,.21-.06c.12,0,.19-.13.28-.21l0-.06c0-.07-.08-.15-.19-.15s-.11,0-.15.07Z"/><path class="cls-3" d="M85.34,99.6c0,.08.06.08.11.09h0s0-.12-.09-.11Z"/><path class="cls-3" d="M70.79,93.41v.34h.07a.34.34,0,0,0,.06-.2C70.85,93.53,70.89,93.42,70.79,93.41Z"/><path class="cls-3" d="M65.28,85.13a.52.52,0,0,1-.21.07s-.11.09-.15.14-.1.12,0,.18.1,0,.16,0,.27-.11.29-.28Z"/><path class="cls-3" d="M65.35,83.89s0,0,0,.07h0l.2,0c0-.14,0-.2-.19-.12C65.36,83.85,65.35,83.87,65.35,83.89Z"/><path class="cls-3" d="M66.78,78.71v-.13c0-.07-.05-.15-.12,0S66.65,78.71,66.78,78.71Z"/><path class="cls-3" d="M71,90.23a.32.32,0,0,1-.14.14c0,.15.11.14.21.13a.09.09,0,0,0,.07-.06l.08-.14C71.17,90.2,71.1,90.19,71,90.23Z"/><path class="cls-3" d="M67.35,79.09s0-.1,0-.16-.18-.12-.2.06v.21C67.26,79.26,67.33,79.22,67.35,79.09Z"/><path class="cls-3" d="M67.35,78.71h.06l0-.13c-.05,0,0-.1-.07-.14h0c-.16-.07-.22,0-.29.14l-.06.15c0,.12,0,.13.13.07S67.31,78.8,67.35,78.71Z"/><path class="cls-3" d="M71.29,90.3a.2.2,0,0,0,.21.14c0-.12,0-.24-.06-.33A.21.21,0,0,1,71.29,90.3Z"/><path class="cls-3" d="M72.71,65.4h0c.07,0,.16.11.19,0s-.05-.12-.13-.12S72.7,65.34,72.71,65.4Z"/><path class="cls-3" d="M73.08,57.4h0c-.06.06,0,.16-.07.21h0c0,.09,0,.18,0,.27V58a.44.44,0,0,0,0,.34s0,0,0,0a.11.11,0,0,0-.09,0c-.07.15-.14.29,0,.45s-.08.26-.1.41,0,.43-.09.63a1.78,1.78,0,0,0-.08.76h.11l.07-.07a.16.16,0,0,0,0-.09,1.51,1.51,0,0,1,.07-.37A6.35,6.35,0,0,0,73,58.66c0-.11,0-.22,0-.32a.1.1,0,0,0,0-.05h.06a2.43,2.43,0,0,0,.08-.47c.06-.06,0-.15.07-.21a1.34,1.34,0,0,1,0-.2c0-.06,0-.12-.08-.15h0S73.12,57.35,73.08,57.4Z"/><path class="cls-3" d="M71.21,56.8s0,0,0,0l0,0s0,0,0,.05S71.19,56.82,71.21,56.8Z"/><path class="cls-3" d="M32.05,67.77l.11,0,.08,0c.09,0,.09-.14.13-.22a4.94,4.94,0,0,1,.51-.62.13.13,0,0,0,.06-.07h0a.14.14,0,0,0-.13-.06h0l-.08,0a.71.71,0,0,0-.15.08c-.08,0-.17.06-.2.15s-.22.23-.3.37a1.13,1.13,0,0,1-.1.13l0,0-.06.06-.06,0-.1.07a.22.22,0,0,0,0,.08.11.11,0,0,0,.07.09h.09l.11,0Z"/><path class="cls-3" d="M34,67.54a.15.15,0,0,0-.13-.07.2.2,0,0,1-.16.06c-.19,0-.25.13-.33.24s0,.1.11.11a.62.62,0,0,1,.43-.14A.15.15,0,0,0,34,67.54Z"/><path class="cls-3" d="M20.94,96.38v-.07A2.53,2.53,0,0,1,21,96l0,0,0,0H21A0,0,0,0,0,21,96a.5.5,0,0,1-.08-.27H20.8c0,.18,0,.36,0,.55h-.06c0,.25,0,.28.21.27Z"/><path class="cls-3" d="M20.9,99.29a1.79,1.79,0,0,1,.63-.17l.07-.06c-.05-.15.11,0,.13-.11a.12.12,0,0,0,.06-.06c0-.18-.09-.18-.21-.1a.42.42,0,0,0-.24.12.33.33,0,0,1-.4,0v0a.22.22,0,0,0-.06-.13h0c.27-.06.12-.28.15-.42,0-.3,0-.6,0-.9a1,1,0,0,0,0-.24v0c0-.12-.14-.21-.06-.34s0,0,0-.06a.17.17,0,0,1-.06-.15c-.07,0-.11,0-.1.11s.07.26,0,.38a1.84,1.84,0,0,1-.11.9.2.2,0,0,0,0,.2,1,1,0,0,1,0,.34v.21c-.07.11.05.23,0,.34a.31.31,0,0,0-.06.13.34.34,0,0,0,0,.14.13.13,0,0,0,.1.1.13.13,0,0,0,.07-.06A.47.47,0,0,0,20.9,99.29Zm-.09-.67Z"/><path class="cls-3" d="M22.44,90h0a.17.17,0,0,0,.06-.08v-.12a.15.15,0,0,0-.22,0c-.06.08.05.11.09.16Z"/><path class="cls-3" d="M23,91.33a.14.14,0,0,1,.14-.06V91.2l0,0A.15.15,0,0,0,23,91.1l0,0C22.94,91.2,22.92,91.28,23,91.33Z"/><path class="cls-3" d="M74.16,55.61v.13C74.23,55.7,74.23,55.66,74.16,55.61Z"/><polygon class="cls-3" points="72 56.15 72 56.15 72 56.15 72 56.15"/><path class="cls-3" d="M71.57,56a.2.2,0,0,0,0,.25c.06.06.15,0,.22,0a.25.25,0,0,0,.17-.11,1.19,1.19,0,0,1-.3-.46A2.84,2.84,0,0,1,71.57,56Z"/><path class="cls-3" d="M24.91,73.1c-.11,0-.12.08-.19.09h0s-.07.13,0,.12A.18.18,0,0,0,24.91,73.1Z"/><path class="cls-3" d="M29,69h0c.08.12.15,0,.22,0v-.06a0,0,0,0,0-.07,0H29.1S29.05,69,29,69Z"/><path class="cls-3" d="M26.23,72.57h0c-.06-.07-.13-.11-.18,0s.06.07.11.08h0A.46.46,0,0,0,26.23,72.57Z"/><path class="cls-3" d="M31.89,73.33s0,.1.05.13c.31-.13.5-.41.8-.55,0-.09.22-.18,0-.27h-.07A3.89,3.89,0,0,0,31.89,73.33Z"/><path class="cls-3" d="M33.16,72.28l-.06,0a.23.23,0,0,0-.07.07h0l-.08.07h0s0,0-.07.06a.6.6,0,0,1,.08.08c.11,0,.22,0,.21-.14A.81.81,0,0,0,33.16,72.28Z"/><polygon class="cls-3" points="32.88 72.5 32.88 72.5 32.88 72.5 32.88 72.5"/><path class="cls-3" d="M30.13,69.51l0,.07v0c.07.07.12,0,.17,0s.05-.1.11-.12h0s.11,0,.13-.08h0a.16.16,0,0,0,.07-.07c.12-.09.13-.27.29-.33a.18.18,0,0,1,.13-.08l.08-.06h0c.05-.08.06-.17.11-.24s0-.17-.17-.1-.19.28-.35.34a.59.59,0,0,0-.31.17l0,.09a.4.4,0,0,1-.09.2l-.05.07a.31.31,0,0,1-.05.1Z"/><path class="cls-3" d="M29.66,70c0-.11.23-.19.08-.34h0l-.11.06-.11.08h0c-.06.1-.09.19.08.21Z"/><path class="cls-3" d="M29.81,62.56l-.15,0-.07.06c-.05.07-.12.07-.2.08a.28.28,0,0,0,.41.05A1.48,1.48,0,0,0,29.81,62.56Z"/><path class="cls-3" d="M92,75.69c-.1,0-.21,0-.13.12C92,75.81,92,75.78,92,75.69Z"/><path class="cls-3" d="M87.52,65.61s0,0,0,.06l.55.08c.17,0,.13-.11.08-.21H88C87.81,65.56,87.64,65.47,87.52,65.61Z"/><path class="cls-3" d="M84.32,105.19c.05,0,.05-.07,0-.11s0,0,0,0l-.07.06S84.28,105.2,84.32,105.19Z"/><path class="cls-3" d="M22.65,79.82l-.16,0c-.06,0-.12,0-.16,0s0,.1.05.15.21,0,.28-.07S22.65,79.84,22.65,79.82Z"/><path class="cls-3" d="M25.31,77.91c-.13,0-.24.08-.15.24.07,0,.17,0,.2,0s.29.09.44,0C25.73,78,25.49,78,25.31,77.91Z"/><path class="cls-3" d="M27,78c.07.1.15,0,.22,0a1.27,1.27,0,0,0,.35-.27c.23-.22.31-.55.55-.77,0-.1.09-.2,0-.35l-.36.44a.3.3,0,0,1-.1.17,2.43,2.43,0,0,0-.41.44h0l-.07.06a.24.24,0,0,1-.11.13C27,77.84,26.92,77.9,27,78Z"/><path class="cls-3" d="M77.36,98.66c-.08,0-.06.13-.06.2C77.49,98.85,77.42,98.75,77.36,98.66Z"/><path class="cls-3" d="M77.65,102.31a1,1,0,0,0-.5.13c0,.09.13.07.21.07S77.71,102.58,77.65,102.31Z"/><path class="cls-3" d="M78.31,102.11a.59.59,0,0,1,0,.13c0,.24,0,.25.25.13,0,0,0,0,.07-.06v0l0,0h.06a.63.63,0,0,1,.22-.21H79c0-.07.07-.13,0-.14S78.53,102.1,78.31,102.11Z"/><path class="cls-3" d="M78.08,102.16l-.14,0-.07,0v.06h.24s.09,0,.08-.08S78.12,102.18,78.08,102.16Z"/><path class="cls-3" d="M77,101.66a.09.09,0,0,0,.11-.07c0-.07,0-.09-.11-.11a.08.08,0,0,0-.1.07A.11.11,0,0,0,77,101.66Z"/><path class="cls-3" d="M81,105.36c-.16,0-.26,0-.26.18a.31.31,0,0,0,.19,0l.07-.06Z"/><path class="cls-3" d="M65.5,85.89c0-.11,0-.23,0-.34s-.13-.08-.18,0a.42.42,0,0,0,.11.46h0a.09.09,0,0,0,0-.11l0,0s0,0,0,0A.06.06,0,0,0,65.5,85.89Zm-.08,0h0Z"/><path class="cls-3" d="M76.65,69.43s0,.07,0,.07.1,0,.1-.11,0-.08,0-.08S76.66,69.36,76.65,69.43Z"/><path class="cls-3" d="M66.06,92a.31.31,0,0,0,0-.1.17.17,0,0,0,0-.14.94.94,0,0,0-.23-.16s-.07,0-.09,0a.29.29,0,0,0-.07.18,1.29,1.29,0,0,0,0,.34,1,1,0,0,1-.06.55l0,.13a.14.14,0,0,0,0,.09.12.12,0,0,0,0,.07l0,0c.06,0,.11,0,.09.1a.92.92,0,0,0,0,.37c0,.13.11.13.21.08l.06-.08h0c0-.07,0-.09-.06-.14s0,0,0-.06A2.6,2.6,0,0,1,66.06,92Z"/><path class="cls-3" d="M69,96.17h.1V96.1l-.06,0s-.09,0-.11,0S68.92,96.16,69,96.17Z"/><path class="cls-3" d="M68.81,96.46a0,0,0,0,0,0,0h0c0-.07,0-.15-.06-.19v.19h0S68.8,96.45,68.81,96.46Z"/><path class="cls-3" d="M68.79,95.4c.11,0,.21,0,.22-.13s-.15,0-.22,0Z"/><path class="cls-3" d="M65.94,87.68c.08,0,0,.25.19.14a.66.66,0,0,1,0-.14C66.07,87.67,66,87.56,65.94,87.68Z"/><path class="cls-3" d="M60.93,79.34c0,.08,0,.11.12.12s.09-.16.07-.26A.16.16,0,0,0,60.93,79.34Z"/><path class="cls-3" d="M46.4,72.29a.31.31,0,0,0,.29.06.19.19,0,0,0,.09,0,.11.11,0,0,0,0-.14h0c-.18-.06-.31-.2-.49-.28h0a.13.13,0,0,1-.07-.06l-.08-.07L46,71.68h0c-.13,0-.12.14,0,.23s.16.09.19.18h0l.08.06.08.07s0,0,.06.07Z"/><path class="cls-3" d="M54.27,71.27v0h.09C54.36,71.25,54.31,71.27,54.27,71.27Z"/><path class="cls-3" d="M31.37,68.43s0,0,0-.07,0-.1.07-.13h0a.24.24,0,0,0-.22-.15l-.21.07a.27.27,0,0,1-.07.08h0a.14.14,0,0,0,.14.06s0,0,0,0,0,0,0,0,.07,0,.07,0S31.29,68.42,31.37,68.43Z"/><path class="cls-3" d="M89.88,75.26a.1.1,0,0,0-.15,0s0,.08,0,.12h0c.05,0,.1.07.14,0v-.14Z"/><path class="cls-3" d="M81.8,75.82h0c.06-.07.16,0,.22-.07v-.08h-.35A.23.23,0,0,0,81.8,75.82Z"/><path class="cls-3" d="M22.54,87.9c0-.06-.09-.14-.19-.12s-.05.11-.05.18a.92.92,0,0,0,0,.17l.12-.08S22.6,88,22.54,87.9Z"/><path class="cls-3" d="M79.16,63.26a.36.36,0,0,0,0,.1c0,.06-.06.14,0,.17s.13,0,.17-.08,0-.08,0-.12A.24.24,0,0,0,79.16,63.26Z"/><polygon class="cls-3" points="27.87 77.47 27.87 77.47 27.87 77.47 27.87 77.47"/><path class="cls-3" d="M27.86,77.5v0S27.83,77.5,27.86,77.5Z"/><path class="cls-3" d="M31.88,62.08c0-.09-.05-.13-.14-.13l-.07.07C31.72,62.1,31.8,62.09,31.88,62.08Z"/><path class="cls-3" d="M88.72,71h0s0,0,0,0h0Z"/><path class="cls-3" d="M89.32,71l0,0,0,0Z"/><path class="cls-3" d="M89.78,74.56s-.06,0-.11,0v.13C89.73,74.63,89.8,74.64,89.78,74.56Z"/><path class="cls-3" d="M23.58,78.57s-.06-.11-.12-.08,0,.1,0,.14l.11.08h.05S23.6,78.62,23.58,78.57Z"/><path class="cls-3" d="M72.65,102.66s-.11.06-.09.11.11,0,.16,0,0-.09,0-.13Z"/><path class="cls-3" d="M76.65,103.06a.3.3,0,0,0,.29,0c0-.06.07-.14-.06-.15A.21.21,0,0,0,76.65,103.06Z"/><path class="cls-3" d="M77.78,102.53c-.14,0-.27.08-.41,0-.14.13,0,.14.07.21.18,0,.23-.15.35-.21A.09.09,0,0,0,77.78,102.53Z"/><path class="cls-3" d="M73.79,103.06s-.1,0-.14.07h-.14l-.36.21c-.14,0-.25.05-.21.2s.17.12.29.06a3,3,0,0,1,.31-.16c.14-.07.37,0,.4-.24a.15.15,0,0,0-.15-.15Z"/><path class="cls-3" d="M75.92,104s0,0,0-.08l-.28.08c0,.16.12.08.19.1S75.91,104.05,75.92,104Z"/><path class="cls-3" d="M62.35,87.48s0,.11.09.1a0,0,0,0,0,0,0C62.47,87.48,62.4,87.48,62.35,87.48Z"/><path class="cls-3" d="M78.22,75.06s0,0,0,.06c.19,0,.2,0,.14-.14S78.25,75,78.22,75.06Z"/><path class="cls-3" d="M65.66,90.59a.09.09,0,0,0,.06.08s.06,0,.06-.06a.07.07,0,0,0-.06-.07A0,0,0,0,0,65.66,90.59Z"/><path class="cls-3" d="M59.76,82.8h-.11c-.09.08-.11.22-.23.26-.19.26-.16.32.13.34,0-.05,0-.14,0-.15C59.84,83.16,59.78,83,59.76,82.8Z"/><path class="cls-3" d="M60.83,81.9l-.06-.08c-.08,0-.18,0-.18.09s0,.18.17.17S60.84,82,60.83,81.9Z"/><path class="cls-3" d="M56,78l-.06-.14c-.1,0-.15,0-.14.14Z"/><path class="cls-3" d="M48.4,73.19c0,.1,0,.16.1.14s.49-.19.73,0l0-.09c-.13-.06,0-.2-.07-.27a.57.57,0,0,1-.36-.14c0,.11-.09.23-.25.2S48.41,73.09,48.4,73.19Z"/><path class="cls-3" d="M87.31,74h.06c.1-.11,0-.15-.07-.2h0C87.14,73.9,87.19,74,87.31,74Z"/><path class="cls-3" d="M82.3,75.2h-.07c-.07.08,0,.19-.06.27l.07.07h.13l.07-.07C82.61,75.27,82.37,75.28,82.3,75.2Z"/><path class="cls-3" d="M83.1,73.52c.05,0,.11,0,.08-.09s-.1,0-.15,0,0,0,0,0Z"/><path class="cls-3" d="M24.51,91s0,0,0,0,0,0,0,0,.05,0,.05,0S24.55,91,24.51,91Z"/><path class="cls-3" d="M37.47,88a.48.48,0,0,0-.16-.35,3.76,3.76,0,0,1-.36-.89c-.09.13,0,.26-.13.34s.18.32.23.51a1.72,1.72,0,0,0,.26.59C37.46,88.17,37.45,88.06,37.47,88Z"/><path class="cls-3" d="M38.16,90.25A.29.29,0,0,1,38.1,90a.9.9,0,0,0,0-.28c0-.25-.17-.44-.21-.67l-.07,0h0l0-.11h-.06s-.1-.07-.15,0a.21.21,0,0,0,0,.31.64.64,0,0,1,.15.49.65.65,0,0,0,.08.26s0,0,0,.08l.09.2a.15.15,0,0,1,.08.13A.2.2,0,0,0,38.16,90.25Z"/><path class="cls-3" d="M36.67,89.27h-.11c-.06,0-.13,0-.14.07s0,.09.09.13.26,0,.37-.07S36.71,89.36,36.67,89.27Z"/><path class="cls-3" d="M35.44,76.73h-.12c0,.11-.06.25.14.27S35.47,76.81,35.44,76.73Z"/><path class="cls-3" d="M26.88,83.47c.09,0,.14,0,.14-.13a.37.37,0,0,0-.29-.14c0,.13.06.2.15.27Z"/><path class="cls-3" d="M70,101.75s0,.07,0,.11.08,0,.14,0v-.07S70,101.74,70,101.75Z"/><path class="cls-3" d="M71.91,102.88c.22.06.22.06.24-.09C72.06,102.81,72,102.77,71.91,102.88Z"/><path class="cls-3" d="M73.73,104.94l-.07.07c-.07.1,0,.16.09.12a3,3,0,0,0,.4-.2s.1,0,.14-.07h0c-.06-.08-.14-.06-.22-.07a.22.22,0,0,1-.09.07Z"/><path class="cls-3" d="M61,95.45a.14.14,0,0,0,0,.23l.08-.13s0,0,.06-.07h0C61.08,95.41,61,95.39,61,95.45Z"/><path class="cls-3" d="M65.64,92.17c0-.09-.1-.14-.2-.07s0,.1-.07.14S65.6,92.34,65.64,92.17Z"/><path class="cls-3" d="M79.23,67.74c0,.1,0,.14.14.14A.13.13,0,0,0,79.23,67.74Z"/><path class="cls-3" d="M47.29,74.71a.25.25,0,0,0,0,.08.36.36,0,0,0,.07.1l0,0,.14,0c.1,0,.26,0,.28-.15h0c-.14-.09-.38-.09-.34-.35-.07,0-.12,0-.17,0S47.29,74.6,47.29,74.71Z"/><path class="cls-3" d="M48.26,75s0,0,0,0,.06.07.11.09h0S48.34,75,48.26,75Z"/><path class="cls-3" d="M46.29,73.74h.1a.56.56,0,0,0,0-.08s-.09-.06-.12,0S46.24,73.74,46.29,73.74Z"/><path class="cls-3" d="M47.34,73.33c0,.19.17.16.28.2.17-.14,0-.18-.08-.27l-.15-.13a.14.14,0,0,0-.06.13A.15.15,0,0,0,47.34,73.33Z"/><path class="cls-3" d="M21.94,100.85c-.07,0-.16,0-.23.05.11,0,.2.07.29,0Z"/><path class="cls-3" d="M23.58,101.89c.06-.07,0-.16.08-.23v-.32h0c0-.09,0-.19-.12-.19a.91.91,0,0,1,0,.17h0a.06.06,0,0,0,0,.09h0a0,0,0,0,1,0,.07v.13s0,.11-.07.15h0c0,.08,0,.23.14.14Z"/><path class="cls-3" d="M86.74,73.9h-.06l0,0a.06.06,0,0,0,.09,0S86.77,73.91,86.74,73.9Z"/><path class="cls-3" d="M26.51,96.86a1.06,1.06,0,0,0,0-.35c0-.06-.05-.06-.09-.06-.12.16-.07.39-.22.55h0a.14.14,0,0,0,0,.21c.09.06.16,0,.21-.07a.4.4,0,0,0,.07-.24Z"/><path class="cls-3" d="M84.66,70.3a1.14,1.14,0,0,1-.57-.28h0L84,70c-.05-.13-.26,0-.3-.16a.4.4,0,0,1-.06-.22c0-.06,0-.15-.13-.22,0,.22-.07.33-.29.37.19.23.5.19.65.4a4.44,4.44,0,0,0,1,.56c.07,0,.15,0,.2-.06L85,70.58c0-.07-.14-.08-.2-.15A.27.27,0,0,1,84.66,70.3Z"/><path class="cls-3" d="M28.58,89.19l.07-.06c0-.13.15-.2.15-.34s0-.16-.14-.08-.41.21-.28.49h0A.14.14,0,0,0,28.58,89.19Z"/><path class="cls-3" d="M28,91.27l-.15.06a.1.1,0,0,0-.14,0c0,.06,0,.1.08.12H28A.17.17,0,0,0,28,91.27Z"/><path class="cls-3" d="M37.67,88.57s0,0,0,0c-.18-.11-.2-.1-.21.12a.21.21,0,0,1,.07.13C37.63,88.73,37.58,88.61,37.67,88.57Z"/><path class="cls-3" d="M37.31,82.94c-.08,0-.12-.17-.22-.09s0,.16,0,.24v0h.13A.21.21,0,0,0,37.31,82.94Z"/><path class="cls-3" d="M36.42,78.62l0,.06,0,0,0,0S36.43,78.64,36.42,78.62Z"/><path class="cls-3" d="M71,103.68l-.14.08c-.3.1-.3.1-.43-.18,0,0,0,0-.14,0h0a.26.26,0,0,1,0,.28h0s0,0,0,.07h0s0,0,0,0,0,.2.15.14h0l0,0c.24.07.37-.12.54-.23l.12-.08a.13.13,0,0,0,.07-.06s.06-.1,0-.14S71,103.66,71,103.68Z"/><path class="cls-3" d="M70.93,104.93a.18.18,0,0,0,.29,0h.21c0-.05.22-.1,0-.15h-.28C71,104.73,71,104.8,70.93,104.93Z"/><path class="cls-3" d="M71.32,103.89h.25l.08-.06a.28.28,0,0,0,.08-.11s0,0-.08,0A.47.47,0,0,0,71.32,103.89Z"/><path class="cls-3" d="M71.5,103.49h-.21c0,.06-.07.14,0,.18s.13,0,.18-.08S71.49,103.52,71.5,103.49Z"/><path class="cls-3" d="M70.56,105.13c-.09-.11-.22,0-.34-.06s.07.15.18.12Z"/><path class="cls-3" d="M47.4,88.68c0,.07,0,.14-.07.18l0,0a.47.47,0,0,0,0,.26c0,.13,0,.29.15.36a.16.16,0,0,0,.09,0c0-.12-.12-.23,0-.35s0-.28.07-.41,0-.09-.07-.11S47.41,88.64,47.4,88.68Z"/><path class="cls-3" d="M56.41,93.75c0-.07.11-.14,0-.21h-.13l-.18,0-.08,0a.74.74,0,0,0-.21,0h-.59l.19.13c.14,0,.24,0,.22.2a.12.12,0,0,0,.07.14h.14v-.1l0,0,0,0a.18.18,0,0,1,.09,0c.07,0,0,.07,0,.1s-.09.17,0,.25h.19c.14,0,.34,0,.41-.1S56.4,93.9,56.41,93.75Z"/><path class="cls-3" d="M56.59,91.3l0,.08c0,.05.08.14.15.08s.06-.17,0-.26v-.07h0l-.06-.07a1.08,1.08,0,0,0-.08-.19c-.11.06-.06.17-.06.26S56.57,91.24,56.59,91.3Z"/><path class="cls-3" d="M51.58,93.15c-.14,0,0,.17,0,.25h0a.46.46,0,0,1,.07.07h0c.08,0,.11,0,.14-.07v-.05C51.66,93.31,51.72,93.1,51.58,93.15Z"/><path class="cls-3" d="M58.62,91.26a.14.14,0,0,0,.11,0,.31.31,0,0,0,.09-.07l0,0c0-.08,0-.16-.07-.21a1.07,1.07,0,0,0-.29.27A.12.12,0,0,0,58.62,91.26Z"/><path class="cls-3" d="M60.87,96.09c0,.09.06.11.12.15h0a.46.46,0,0,1,.07-.07h0c0-.07,0-.13-.12-.13S60.87,96.06,60.87,96.09Z"/><path class="cls-3" d="M60.26,96.71c0,.19.11.05.16,0h0a.16.16,0,0,0-.07-.14h0a.27.27,0,0,1-.08.07S60.26,96.69,60.26,96.71Z"/><path class="cls-3" d="M61.22,95.76c0,.15.07.08.13.06A.11.11,0,0,0,61.22,95.76Z"/><path class="cls-3" d="M60.14,96.87s0,.09-.08.12h0a.27.27,0,0,1-.08.07h-.06c-.05,0-.09.05-.08.1s0,0,.08,0h.28c0-.08,0-.16.08-.21v-.06c0-.12-.06-.12-.14-.07Z"/><path class="cls-3" d="M48.83,80l0,0s0,0-.05,0a.15.15,0,0,0-.15.14.11.11,0,0,0,0,.07s0,0,.05.06l.13,0A.27.27,0,0,0,48.83,80Z"/><path class="cls-3" d="M27.38,86.23a.09.09,0,0,0-.15,0s0,.05,0,.06.1,0,.16,0Z"/><path class="cls-3" d="M23.71,100.78c0-.09,0-.12-.12-.12v.19C23.65,100.85,23.71,100.85,23.71,100.78Z"/><path class="cls-3" d="M26.07,101.13a.59.59,0,0,1,0-.13.11.11,0,0,0-.15,0C25.94,101.08,26,101.13,26.07,101.13Z"/><polygon class="cls-3" points="25.94 101 25.95 101 25.95 101 25.94 101"/><path class="cls-3" d="M46.61,95.76h0a3.66,3.66,0,0,0,.21.55v.06c.22.31.22.31.23.48a.33.33,0,0,0,.36.33.21.21,0,0,0,.18-.17.21.21,0,0,0-.09-.23.1.1,0,0,0-.09,0h0a.18.18,0,0,0,.06-.17l0-.09a.27.27,0,0,0-.29-.21h0v-.09s0,0,0,0S47.07,96,47,96s-.12-.37-.37-.37C46.58,95.63,46.56,95.68,46.61,95.76Z"/><path class="cls-3" d="M40,95.09c0,.31,0,.35,0,.36s.06,0,.06,0A.25.25,0,0,0,40,95.09Z"/><path class="cls-3" d="M25.76,98.68c-.05.1-.1.2,0,.31l0,0c.07,0,.13,0,.18,0h0s0,0,.07-.06.29-.06.07-.2c-.07,0-.16.08-.21,0S25.78,98.62,25.76,98.68Z"/><path class="cls-3" d="M40.47,105.68a.1.1,0,0,0,.13-.05C40.54,105.62,40.49,105.63,40.47,105.68Z"/><path class="cls-3" d="M44.39,91.9c.07,0,.24,0,.14-.14s-.29,0-.42-.09a.06.06,0,0,1-.06,0,.1.1,0,0,0-.09,0l-.13,0v0c-.07,0-.15,0-.23,0a.47.47,0,0,0,.23,0,.17.17,0,0,1,.15.07l.07.07h.06a.34.34,0,0,0,.2,0Z"/><path class="cls-3" d="M45.82,93.69l0,0a.35.35,0,0,1-.12-.19l0-.08a.3.3,0,0,0-.26-.24h0a.15.15,0,0,0-.14.06l.22.41c.06.06,0,.15.07.21h0l.08.06C45.78,93.91,45.84,93.83,45.82,93.69Z"/><path class="cls-3" d="M42.12,91.88h.05l.07-.07v0l-.06-.08v-.13c.08,0,.16,0,.21-.07a.16.16,0,0,1-.15-.12l-.08,0,0,0c-.08,0-.15-.12-.24,0h0l.06.25.06,0A.41.41,0,0,0,42.12,91.88Z"/><path class="cls-3" d="M40.92,83.25h0c0-.07,0-.14-.07-.19a.2.2,0,0,1-.15-.06c-.11.09-.09.18,0,.27v.06h.07v.06a.49.49,0,0,1,.15.27s0,0,.06.08h0c0,.1,0,.21.14.28a.34.34,0,0,0,.15.14.59.59,0,0,1,.08.32c.05.07,0,.16.06.22h0c0,.05,0,.11.06.16s0,.1.06.16a.07.07,0,0,0,.07,0,.21.21,0,0,1,.29-.1h0a.22.22,0,0,0,0,.09,1.23,1.23,0,0,0,.17.32l.07.11a.25.25,0,0,0,0,.07.38.38,0,0,0,.17.24c.15,0,.22.11.29.21s.16.09.19,0-.13-.29-.2-.43l-.06-.08c-.13-.14-.17-.33-.29-.48h0l-.06-.07c-.07,0-.13-.1-.22-.09s.07-.12,0-.15c-.21-.21-.34-.49-.61-.64h0a.54.54,0,0,0-.08-.35A.92.92,0,0,0,40.92,83.25Z"/><path class="cls-3" d="M47.29,90.55c.08.09.13,0,.18,0v-.14a.11.11,0,0,1,0-.14V90.1c-.11-.07,0-.22-.14-.28C47.11,90.05,47.26,90.3,47.29,90.55Z"/><path class="cls-3" d="M53.34,95.82l.06-.07c0-.23-.17-.11-.28-.06v.06C53.17,95.84,53.25,95.83,53.34,95.82Z"/><path class="cls-3" d="M57.47,91.93c.07,0,.07-.06.09-.11s-.09-.14-.15-.2-.18,0-.18.11S57.37,91.9,57.47,91.93Z"/><path class="cls-3" d="M57,93.48c.05.07.08.17.17,0l0-.1s0-.11-.06-.15h0C57,93.32,57,93.41,57,93.48Z"/><path class="cls-3" d="M57.84,92.1h0s-.05,0-.08-.06-.12,0-.12.09,0,.05,0,.06.08,0,.12-.06Z"/><path class="cls-3" d="M56.54,92.46a.05.05,0,0,0,.07,0,.09.09,0,0,0,.08-.1s0-.06-.07,0A.11.11,0,0,0,56.54,92.46Z"/><path class="cls-3" d="M56.77,93.06h0c0,.06.11.1.17,0a.07.07,0,0,0,0-.11C56.84,92.93,56.83,93.05,56.77,93.06Z"/><path class="cls-3" d="M55.85,94.52a.13.13,0,0,1,0,.06h0s0,.1.07.13.07.06.12.06.05-.07,0-.12,0-.13-.07-.2,0,0,0,0,0,0-.05,0S55.86,94.49,55.85,94.52Z"/><path class="cls-3" d="M49.63,105.4a.15.15,0,0,0,0-.13.29.29,0,0,0,0-.09,1.41,1.41,0,0,0-.2-.55c-.06,0-.11-.09-.18,0a.09.09,0,0,0,0,.07.12.12,0,0,0,0,.15c.09.35.18.69.3,1C49.67,105.7,49.59,105.54,49.63,105.4Z"/><path class="cls-3" d="M35.3,102.7c0-.1-.07-.13-.15-.15s-.1,0-.1.09.09.11.18.12A.06.06,0,0,0,35.3,102.7Z"/><path class="cls-3" d="M45.12,91.47H45v.06l.07.07.21.14s0-.09,0-.14A.27.27,0,0,0,45.12,91.47Z"/><polygon class="cls-3" points="45.25 91.75 45.25 91.75 45.25 91.75 45.25 91.75"/><path class="cls-3" d="M44.18,89.62h0c.15,0,.21,0,.15-.15h0C44.23,89.48,44.18,89.52,44.18,89.62Z"/><path class="cls-3" d="M43.6,88.45c0,.14.15.18.22.27s.14.22.28.29c0-.11-.07-.2-.06-.3a.09.09,0,0,0,0-.13h0c-.17,0-.17-.25-.29-.34h0l-.07-.06h0a.24.24,0,0,0-.06-.08.11.11,0,0,0-.09-.06c-.16.14,0,.28,0,.41Z"/><path class="cls-3" d="M42.82,88.72h.1l0,0c0-.13-.15-.16-.13-.28l-.08-.07C42.58,88.53,42.79,88.61,42.82,88.72Z"/><path class="cls-3" d="M45.18,91.9,45,91.79a.13.13,0,0,0-.15,0c0,.06.07.07.09.12S45.15,92.13,45.18,91.9Z"/><path class="cls-3" d="M46.91,94.51a.6.6,0,0,0-.08-.08.09.09,0,1,0,.08.08Z"/><path class="cls-3" d="M47.4,92.58a2,2,0,0,0,0,.55l.14-.06a1.48,1.48,0,0,1,0-.21C47.42,92.8,47.51,92.64,47.4,92.58Z"/><path class="cls-3" d="M47.54,92.24h-.07c-.11.11,0,.13.07.14S47.6,92.28,47.54,92.24Z"/><path class="cls-3" d="M42.94,86.68a.08.08,0,0,0,.05-.07s0-.08-.09-.1-.21-.25-.36-.34c0,.16.07.28.14.41a.23.23,0,0,1,.07.07h0A.19.19,0,0,0,42.94,86.68Z"/><path class="cls-3" d="M40.24,82.52c.07.11.14.23.22.34s.08-.09.09-.15-.07-.28-.22-.35S40.2,82.43,40.24,82.52Z"/><path class="cls-3" d="M69.57,104.36l-.07,0a.15.15,0,0,0-.14,0l-.43.21-.07.06c-.11.08-.25,0-.36.07h-.21a.12.12,0,0,0-.15.07h0c-.11,0-.17.14-.29.13l-.08.07h-.07a.46.46,0,0,1-.07.07.14.14,0,0,1-.15.06l-.35.07c-.09,0-.21,0-.28.08h0c-.13.18-.42.08-.55.27a.54.54,0,0,0,.56-.07.41.41,0,0,1,.27-.07h0c.07-.06.15,0,.22,0l.08,0c.11,0,.2-.11.33-.07s.18-.06.23-.16.31-.08.44-.19a.2.2,0,0,0,.15-.06.52.52,0,0,0,.34-.09.1.1,0,0,1,.14,0h.07a.55.55,0,0,1,.38,0,1.1,1.1,0,0,0,.54-.19H70c-.1,0-.1-.13-.13-.21h0a.43.43,0,0,1,0-.05c-.05-.09-.12-.09-.19,0A.24.24,0,0,1,69.57,104.36Z"/><path class="cls-3" d="M56.52,105.75s0,.07.07.08h.1v-.06l-.06,0S56.54,105.69,56.52,105.75Z"/><path class="cls-3" d="M41.6,84.1c.08.09.12.21.27.25,0-.17-.07-.27-.12-.39h-.06C41.62,84,41.61,84,41.6,84.1Z"/><path class="cls-3" d="M50.05,95.26h0l0,0s0,0,0,0h.07c.12,0,.25.06.34-.06a.86.86,0,0,0-.14-.13C50.08,95,50.08,95,50.05,95.26Z"/><path class="cls-3" d="M52,95.22s.07,0,.12,0v-.1c0-.06,0-.14-.09-.12S52,95.16,52,95.22Z"/><path class="cls-3" d="M57.13,93.89l.14.07s0,0,0-.06a.36.36,0,0,0-.09-.21C57,93.71,57.15,93.82,57.13,93.89Z"/><path class="cls-3" d="M59.34,97.13a.73.73,0,0,0,.46-.07.35.35,0,0,1-.31-.14h-.07C59.4,97,59.31,97,59.34,97.13Z"/><polygon class="cls-3" points="58.81 94.77 58.82 94.75 58.8 94.75 58.81 94.77"/><path class="cls-3" d="M67.29,101.4c-.06,0-.09.07-.07.13s.09,0,.13,0S67.4,101.4,67.29,101.4Z"/><path class="cls-3" d="M47.6,99.56h-.1c-.06,0-.13,0-.14.07s.06,0,.1.07l.09,0C47.63,99.7,47.62,99.63,47.6,99.56Z"/><path class="cls-3" d="M48.48,105.72c-.13,0-.14.08-.15.18h-.06a.06.06,0,0,0,0,.06c.13.12,0,.25,0,.37s.11-.08.18-.09a.43.43,0,0,0,.08-.27l0-.08C48.54,105.82,48.57,105.73,48.48,105.72Z"/><path class="cls-3" d="M47.89,96.66c-.08-.07,0-.17-.07-.25s-.1-.1-.16,0,0,.08,0,.12a1.65,1.65,0,0,1,.14.48l.15-.13C47.9,96.79,47.9,96.72,47.89,96.66Z"/><path class="cls-3" d="M48.35,100.71h0a.46.46,0,0,1,.07.26,2,2,0,0,0,.13.58h0c.12.45.15.91.23,1.37.12.09,0,.26.14.35h0c0,.27.18.48.15.74l.06,0s0,0,0,.06a.11.11,0,0,0,.06-.13l0-.06s0,0,0-.08a1,1,0,0,1,0-.17.19.19,0,0,0,0-.08,1.9,1.9,0,0,1-.11-.39.2.2,0,0,0,0-.08l0,0v0a.45.45,0,0,0,0-.2,2.45,2.45,0,0,0-.08-.29,3.1,3.1,0,0,0-.13-.62.82.82,0,0,1-.09-.34.28.28,0,0,0,0-.09.21.21,0,0,0,0-.12.09.09,0,0,0-.07,0h0a.17.17,0,0,0,0-.14,1.63,1.63,0,0,1,0-.44c0-.11,0-.23-.15-.25l0,0c-.07,0,0-.14-.12-.15A.5.5,0,0,0,48.35,100.71Z"/><path class="cls-3" d="M47.52,95.62s.07,0,.09.07a.16.16,0,0,0,.15-.07.26.26,0,0,0,.1-.19.11.11,0,0,0,0-.08,1.86,1.86,0,0,0-.11-.19l0,0c-.15.11,0,.31-.14.42h0A.09.09,0,0,0,47.52,95.62Z"/><path class="cls-3" d="M47.25,95.82v.07s0,.1.06.1.09,0,.09-.11v-.13h-.07A.1.1,0,0,0,47.25,95.82Z"/><path class="cls-3" d="M47.55,93.54a.13.13,0,0,0,0-.06c-.13.15,0,.32,0,.48A1.21,1.21,0,0,0,47.55,93.54Z"/><path class="cls-3" d="M48,92.3c-.07,0,0,.09,0,.14s.16,0,.16-.06S48,92.31,48,92.3Z"/><path class="cls-3" d="M50.91,98.31h0s-.18,0-.13.11.17.06.27,0h0A.12.12,0,0,0,50.91,98.31Z"/><path class="cls-3" d="M52.14,97.83s0-.11,0-.15v-.06c-.13,0-.19.09-.29.13h0c0,.08,0,.13.05.17a.1.1,0,0,0,.1,0h0S52.12,97.86,52.14,97.83Z"/><path class="cls-3" d="M57.21,94.16l.1.17.09-.17C57.34,94.07,57.27,94.07,57.21,94.16Z"/><path class="cls-3" d="M57.76,95.62c-.1-.1,0-.23-.06-.35a.13.13,0,0,1,0-.06h0a.49.49,0,0,1,0-.12.86.86,0,0,1-.1-.16h0l-.09.08a.18.18,0,0,0,0,.2.13.13,0,0,1,0,.06s0,.11.07.15v.13a4.19,4.19,0,0,1,.21.9v0a.28.28,0,0,0,0,.2l0,0c.08,0,.16,0,.12-.12a.26.26,0,0,1,.09-.36.21.21,0,0,0,.06-.19C57.81,96,57.81,96,57.76,95.62Z"/><path class="cls-3" d="M48.33,94.86V94.8a.15.15,0,0,0,0-.16c-.05-.06-.1-.16-.15,0s0,.11-.07.15a.2.2,0,0,1,0,.07s0,0,0,.07V95C48.29,95.09,48.27,94.92,48.33,94.86Z"/><path class="cls-3" d="M58.07,99.42a.2.2,0,0,0-.25,0c0,.1.06.17.09.25S58.05,99.51,58.07,99.42Z"/><path class="cls-3" d="M56.55,100.74s0,.09.07.09.07,0,.07-.09a.09.09,0,0,0-.08-.1C56.55,100.64,56.55,100.69,56.55,100.74Z"/><path class="cls-3" d="M52.15,98.22s-.09,0-.13,0l-.06.08s0,0,.07,0,.16,0,.16.14-.08.13,0,.21a.86.86,0,0,0,.31-.38.94.94,0,0,1,0-.16c0-.09,0-.11-.1-.11S52.32,98.28,52.15,98.22Z"/><path class="cls-3" d="M52,99.68s0,0,0-.06a.19.19,0,0,1,.07-.06h0a1.59,1.59,0,0,1,.13-.13.2.2,0,0,0-.21,0c-.2.12-.22.37-.39.51l.12.06.2-.15C52,99.79,51.93,99.72,52,99.68Z"/><path class="cls-3" d="M51.12,104.52c-.1-.11-.19,0-.29,0C51,104.7,51,104.7,51.12,104.52Z"/><path class="cls-3" d="M53.62,104.07v0a.1.1,0,0,0-.14,0h0c0,.11-.16.23,0,.34l0-.05.06-.08a.14.14,0,0,1,.06-.14Z"/><path class="cls-3" d="M48.14,95.36h0s0,0,0,0,0,0,0,0Z"/></g></g><g id="chippedOutside"><path class="cls-4" d="M54,83.43a1.32,1.32,0,0,0-.63-.37,1.29,1.29,0,0,0-.43-.07,1.25,1.25,0,0,0-.78.32,1.52,1.52,0,0,0-.42.65,1.4,1.4,0,0,0-.11.53,1.61,1.61,0,0,0,.07.51,1.56,1.56,0,0,0,.4.72,1.25,1.25,0,0,0,.61.32,1.38,1.38,0,0,0,.41,0,1.38,1.38,0,0,0,.87-.43,1.24,1.24,0,0,0,.36-.78c0-.21-.07-.32-.14-.32s-.11.13-.18.29a2.2,2.2,0,0,1-.28.55.89.89,0,0,1-1,.42,1,1,0,0,1-.58-.34,1.51,1.51,0,0,1-.18-.31,2.35,2.35,0,0,1-.11-.4,1.42,1.42,0,0,1,0-.65,1.24,1.24,0,0,1,.48-.64.47.47,0,0,1,.12-.07l.13-.06.2,0a1,1,0,0,1,.51.08l.11.07.18.14a1.47,1.47,0,0,1,.1.13,2.5,2.5,0,0,1,.28.59c.06.15.12.25.2.25s.11-.14.1-.37A1.24,1.24,0,0,0,54,83.43Z"/><path class="cls-4" d="M52,20.88l-.48.1c-.14,0-.17,0-.3,0H49.78a2.91,2.91,0,0,0-.31,0c-.19,0-.33,0-.52,0s-.32,0-.47,0h-.29l-.66-.11a1,1,0,0,0-.51,0,.29.29,0,0,0-.19.27c0,.1.09.19.22.24a1,1,0,0,0,.48,0l.47-.08c.18,0,.3,0,.48,0a5,5,0,0,1,.54,0,2.64,2.64,0,0,0,.58,0h.48c.19,0,.38,0,.62,0h1.14l.13,0a1.08,1.08,0,0,0,.52,0,.27.27,0,0,0,.18-.27c0-.1-.09-.18-.22-.22A1.25,1.25,0,0,0,52,20.88Z"/><circle class="cls-4" cx="56.51" cy="21.14" r="1.03"/><path class="cls-4" d="M65.1,87.14H40.72a6.38,6.38,0,0,1-6.38-6.38V25.24a6.38,6.38,0,0,1,6.38-6.38H65.1a6.38,6.38,0,0,1,6.38,6.38V80.76A6.38,6.38,0,0,1,65.1,87.14ZM40.72,19.36a5.89,5.89,0,0,0-5.88,5.88V80.76a5.89,5.89,0,0,0,5.88,5.88H65.1A5.89,5.89,0,0,0,71,80.76V25.24a5.89,5.89,0,0,0-5.88-5.88Z"/><path class="cls-4" d="M64.93,82.48H41.29a4.25,4.25,0,0,1-4.24-4.25V27a4.25,4.25,0,0,1,3.12-4.1,4.15,4.15,0,0,1,1.12-.15H64.93A4.25,4.25,0,0,1,69.17,27V78.23A4.25,4.25,0,0,1,64.93,82.48ZM41.29,23c-.33,0-1-.2-1,.12,0,.14.45.9-.17,1-.31.08-.54-.8-.63-.75A4,4,0,0,0,37.3,27V78.23a4,4,0,0,0,4,4H64.93a4,4,0,0,0,4-4V27a4,4,0,0,0-4-4Z"/><path class="cls-4" d="M71,34.69a1.1,1.1,0,0,1,1.1,1.1v5.36A1.1,1.1,0,0,1,71,42.24h0Z"/><path class="cls-4" d="M34.5,32a.59.59,0,0,1-.59-.58V29.06a.59.59,0,0,1,.59-.59h0Z"/><path class="cls-4" d="M34.5,39.1a.59.59,0,0,1-.59-.58V34.27a.59.59,0,0,1,.59-.59h0Z"/><path class="cls-4" d="M34.5,45.4h0a.59.59,0,0,1-.59-.59V40.56A.59.59,0,0,1,34.5,40h0Z"/><path class="cls-3" d="M38.26,22.14s-.11-.09-.09-.09a1.15,1.15,0,0,0,.92-.66,1.44,1.44,0,0,1,.18-.28,1,1,0,0,0,.19,0,.56.56,0,0,0,.16,0h0l.25,0h0l-.08,0s0,0,0-.07,0-.19,0-.16,0,0,0,0a.52.52,0,0,1-.07-.12.15.15,0,0,1,0-.19.29.29,0,0,1,.3,0c.2.05.2.29.18.38a7.2,7.2,0,0,1-.12.72,1.08,1.08,0,0,1-.37.65c-.22.16-.76.12-.67.42a10.21,10.21,0,0,0,.64,1c.08.18.29.59.59.13a.78.78,0,0,0,.06-.53,1.32,1.32,0,0,0-.45-.72,1.18,1.18,0,0,0-.71-.24,1.37,1.37,0,0,0-1.12.57c-.29.56.09.07.09.08.08.24.09.31.11.3a.57.57,0,0,1,.35-.23c.11-.05.45-.24.48-.14s-.17.15-.24.16c.42,0,.42.27.43.4a.31.31,0,0,1-.06.19.14.14,0,0,1-.14,0c-.19-.08-.24-.34-.34-.52C38.63,22.9,38.2,22.38,38.26,22.14Z"/><path class="cls-3" d="M69.07,80.67s.12-.1.18,0a1.77,1.77,0,0,1,.45.66,1.48,1.48,0,0,1,.11.65c0,.15-.09.13-.11.2a.44.44,0,0,0,0,.3.82.82,0,0,1,0,.69c-.06.13.16.22-.12.52s-.6.15-.63.12,0-.23,0-.31c0-.47-.49-.62-.35-1.09,0-.12.19-.18.27-.34a.38.38,0,0,0-.08-.36.26.26,0,0,0-.3-.1c-.19.07-.21.28-.36.47,0,0,0,.12-.2-.09a.35.35,0,0,1,0-.17.18.18,0,0,1,0-.1c0-.13,0-.14,0-.22s0-.21,0-.3c0-.45-.26-1.19.14-.94.07,0,.07.1.07.1.24.36.1.13.17.32s-.08,0,0,0,.1.11.09.08a9.67,9.67,0,0,1,.2,1.3.68.68,0,0,0,.11.3s0-.07-.08-.11l-.15-.17c-.14-.12-.11-.16-.19-.18s0,0,0,0,0,0,0-.08a.59.59,0,0,0,0-.13v0s0,0,0-.09l0-.4c0-.39,0-.21,0-.26C68.22,80.69,68.52,80.45,69.07,80.67Z"/><path class="cls-3" d="M67.15,84.57s0,.13,0,.13c-1.67-.13-2.85,1-4.43,1.26-.3.05-.7.48-1.12.36s-.36-.23-.26-.44a1.66,1.66,0,0,1,.37-.42,1.72,1.72,0,0,1,.73-.31c1.17-.34,1.75-1.08,2.9-1.35.52-.11,1.2.13,1.52-.29A3,3,0,0,0,67.27,82a.24.24,0,0,0-.08-.15s-.07,0-.1,0l-.06,0A.34.34,0,0,0,67,82a.82.82,0,0,0-.11.28,1.34,1.34,0,0,0,0,.36.63.63,0,0,0,.09.25c0,.06,0,.09,0,.13.06.26-.13.24-.26,0s0-.12,0-.12c.07-.42,0-.17.12-.34s.08.11.11,0,0-.15,0-.13a1.7,1.7,0,0,1,.76-.4.32.32,0,0,1,.38.15.92.92,0,0,1,0,.57A3.63,3.63,0,0,1,67.15,84.57Z"/><path class="cls-3" d="M37.27,46.62s.11.07.1.08a.88.88,0,0,0-.51.4,1.35,1.35,0,0,0-.21.59,9.73,9.73,0,0,1-.16,1.87L35,48.44a1.39,1.39,0,0,1,.49-.1,1.23,1.23,0,0,1,.76.25,1.2,1.2,0,0,1,.45.82,1.58,1.58,0,0,1-.11.72c-.11.32-.1,1.07-.53,1.22h-.28a.69.69,0,0,0-.19,0s0,0,0,0h.07a.1.1,0,0,1,0-.05.35.35,0,0,1-.06-.14,2.32,2.32,0,0,1,0-.52,2.5,2.5,0,0,1,.19-.72.81.81,0,0,0,0-.41.28.28,0,0,0-.15-.19.35.35,0,0,0-.23,0l.1.08c.12-.78-.22-1.45.08-2.27.2-.49.81-.74.78-1.15a3.18,3.18,0,0,1,0-.72.92.92,0,0,1,.66-.74l.59.48a.66.66,0,0,0-.25-.36.82.82,0,0,0-.19-.09.62.62,0,0,0-.32,0,.77.77,0,0,0-.41.21c0,.07,0,.06,0,.06h0l0,0c0,.06,0,0-.06,0s0,0-.07,0L36,44.7l-.29-.32a1.93,1.93,0,0,1-.16-.21s0,0,0,0,0,0,.07.09.06.07.19.25c.37.33.09-.07.1-.06.5-.08.21,0,.25-.31,0,0,0,0,0-.06s0,0,0,0,.14,0,.13,0c.25-.1.49.2.65.41a2.19,2.19,0,0,1,.38.83.39.39,0,0,1,0,.16s0,.07-.14.14a.45.45,0,0,1-.33,0,.49.49,0,0,1-.33-.3l.39.32a.32.32,0,0,0,0,.27,1.54,1.54,0,0,0,.19.28C37.19,46.38,37.29,46.51,37.27,46.62Z"/></g></svg>