<svg xmlns="http://www.w3.org/2000/svg" viewBox="0 0 106 106"><defs><style>.cls-1{fill:#62bfb4;}.cls-2{fill:#231f20;}.cls-3{fill:#fff;}</style></defs><title>webIcons</title><g id="box"><polygon class="cls-1" points="24.9 16.57 25.1 90.95 43.7 99.16 43.2 18.37 24.9 16.57"/><path class="cls-2" d="M24.22,16.22c-.22,0-.18,1.16-.17,3.06.06,15.66.06,30.89,0,46.73,0,7.52.12,14.68.17,21.79,0,.88,0,1.74,0,2.58,0,.13-.07.35.13.37l.34.14.57.26,1.15.5,4.51,2,9.38,4.17,1.51.67.81.36L43,99l.15.07s.06,0,.07,0v-.72c0-1.11,0-2.23,0-3.35q0-3.37,0-6.78c0-4.53-.07-9.1-.11-13.58C42.9,65,43,57.07,43,47.22c0-8.14-.15-16.61-.26-24.81l0-2.5,0-1.23v-.8s0,0,0-.05h-.15l-.21,0-.39,0-4.88-.45c-3.25-.3-6.49-.61-9.81-.95a11,11,0,0,0-3.06-.15c0,.22,1.14.29,3,.47l7.58.76,7.36.77h.08s0,0,0,0V21.6c0,1.25,0,2.51,0,3.77,0,2.53.06,5.07.1,7.65.14,8.86.09,16.38.22,24.77.07,5,0,8.84,0,13.57,0,5.55.11,10.21.1,16,0,1.93,0,3.79,0,5.63s0,3.64.06,5.44v.18s0,0,0,0l0,0-.08,0-.54-.23-1.25-.54-2.52-1.1-5.19-2.29-4.89-2.18L25.93,91.1l-1.2-.54-.1,0s-.06,0-.05,0v-.9c0-3.5.05-6.95.07-10.4.05-6.9.1-13.79,0-20.92-.06-6.41,0-13.35-.08-20-.12-5.59-.22-11-.27-16.93l0-2.09A11.31,11.31,0,0,0,24.22,16.22Z"/><polygon class="cls-3" points="80.82 16.98 42.5 18.02 43.01 98.81 81.03 92.68 80.82 16.98"/><path class="cls-2" d="M80.82,17c0-.22-1.4-.14-3.69-.08l-28,.76-3.5.08-1.75.05-.87,0-.6,0s-.06,0-.07,0v.54l0,7.05q0,7,0,14.18c0,9,.19,17.66.28,26.23s.1,15.61.14,24.42q0,4,0,8V99h.05l.1,0,.2,0,.32,0,1-.16,2-.32,4-.65,16.13-2.63L75,93.81l4-.62,2-.31.21,0h0a.07.07,0,0,0,0,0v-2c0-5.31.06-10.67.09-16.59,0-9.8-.1-20-.19-29.86C81.07,36.33,81,28.68,81,20.66A15.6,15.6,0,0,0,80.83,17c-.22,0-.18,1.39-.16,3.68,0,6.17,0,12.19,0,18.22s0,12.07.09,18.27c.12,10.66,0,19.72.15,29.82,0,1.52,0,2.94,0,4.31v1.31l-.07,0-.46.07-2,.3-7.93,1.23c-6.59,1.05-12.12,2-18.95,3.07l-6.69,1.06-1.59.26c-.06,0-.14.05-.12,0V97.43l0-3.27c-.05-4.37-.11-8.74-.12-13.41,0-8.67,0-17,0-25.31s0-16.58,0-25.16c0-1.93,0-3.9-.05-5.89s0-3.94,0-5.93c0,0,0-.05,0-.06H43l.73,0,1.51,0,3-.08c2-.06,4-.13,6-.21,6.73-.29,13.25-.55,20.37-.78l2.51,0A15.36,15.36,0,0,0,80.82,17Z"/><path class="cls-3" d="M69.08,30.06l-15,.41a5.6,5.6,0,0,0-5.44,5.62l.27,43.28a5.6,5.6,0,0,0,6.48,5.48l14.86-2.4a5.58,5.58,0,0,0,4.7-5.53l-.12-41.29A5.59,5.59,0,0,0,69.08,30.06Z"/><path class="cls-2" d="M69.08,30.08c0-.22-.9-.16-2.37-.12l-9,.25-2.24.06a17.33,17.33,0,0,0-2.26.13,5.77,5.77,0,0,0-3.77,2.45A5.87,5.87,0,0,0,48.54,35c0,.19-.06.38-.08.58l0,.57v1.13c0,1.5,0,3,0,4.5,0,3,0,6,0,9.1,0,5.81.15,11.33.21,16.83,0,2.71,0,5.21.07,7.75,0,1.26,0,2.54,0,3.85a6.38,6.38,0,0,0,.34,2,5.63,5.63,0,0,0,1.08,1.82,5.77,5.77,0,0,0,2.12,1.53,5.62,5.62,0,0,0,2.6.42c.45,0,.88-.11,1.31-.18l1.29-.2,2.59-.42c3.46-.56,6.93-1.12,10.35-1.71a5.77,5.77,0,0,0,4.16-3.3A5.52,5.52,0,0,0,75,78a7.24,7.24,0,0,0,.11-1.31l0-2.56c0-3.41.07-6.85.11-10.65,0-6.29-.06-12.82-.15-19.16,0-2.58-.06-5.1-.08-7.62v-.94c0-.16,0-.33,0-.49a2.61,2.61,0,0,0,0-.48,5.49,5.49,0,0,0-.62-1.84,5.85,5.85,0,0,0-2.86-2.6,5.18,5.18,0,0,0-1.61-.4c-.46,0-.76,0-.75.11,0,.25.9.06,2.24.6A5.35,5.35,0,0,1,74.58,35c0,.23,0,.47,0,.7v5.09c0,3.87,0,7.74.09,11.72.11,6.84,0,12.66.13,19.14,0,1.94,0,3.65,0,5.32a5.47,5.47,0,0,1-2.22,4.31,5.12,5.12,0,0,1-1.33.74,8,8,0,0,1-1.46.35l-3,.49c-2,.32-3.95.65-6.14,1-1.47.22-2.89.45-4.29.68l-1.05.17a7,7,0,0,1-1,.07,5.42,5.42,0,0,1-4.88-3.23c-.63-1.28-.44-2.77-.48-4.26,0-5.56,0-10.91.06-16.24s.07-10.64,0-16.15c0-2.48,0-5,0-7.65v-1c0-.17,0-.31,0-.47v-.22l0-.23a5.35,5.35,0,0,1,.55-1.71,5.41,5.41,0,0,1,2.6-2.4,4.91,4.91,0,0,1,1.45-.41l.38,0,.41,0,.8,0,3.22-.15c2.15-.1,4.34-.19,6.63-.26h1.61A7,7,0,0,0,69.08,30.08Z"/><polygon class="cls-3" points="24.2 16.22 64.83 14.82 80.82 16.98 42.5 18.02 24.2 16.22"/><path class="cls-2" d="M24.2,16.21c0,.22.68.16,1.8.12,9.16-.35,18.07-.61,27.34-.86,2.2-.06,4.35-.16,6.46-.26L63,15.06,64.52,15h.37l.38,0,.78.1,5.82.77,5.55.78.25,0,.12,0H78l.6.11h-.77l.38.05H76.93l-.68,0L73.49,17,68,17.18c-5.64.2-10.28.15-16.05.24-2.38,0-4.81.12-7.25.21l-1.82.07h-.42l-.45,0-.91-.07-3.61-.31c-3.91-.34-7.62-.65-11.5-1.05-.89-.1-1.78-.2-1.8,0s.66.24,1.77.35c3,.28,5.9.61,8.81.92l4.4.44,2.21.2,1.14.09,1.13-.05c5.18-.23,9.59-.25,14.5-.46,3-.12,5.17-.09,7.94-.16,3.24-.08,6-.21,9.33-.26l.91,0h1l2.41-.12c.68.09.18,0,.34.05h0l0,0,.09,0,.19-.05.4-.09q-.45-.14-1-.27c-3-.41-4.45-.57-6.53-.86L67.12,15l-1.52-.23-.37-.06-.19,0-.09,0h-.9l-3,.06c-4,.07-8.07.14-12.24.32-3.75.17-7.81.19-11.67.43-3.27.21-6.44.41-9.9.56H26C25.09,16,24.2,16,24.2,16.21Z"/><ellipse class="cls-3" cx="62.65" cy="79.89" rx="1.9" ry="2.14"/><path class="cls-2" d="M64.55,79.89c-.11,0-.09.07-.09.19a2.06,2.06,0,0,1-.59,1.31,1.59,1.59,0,0,1-1.3.5,1.82,1.82,0,0,1-1.2-.53,2,2,0,0,1-.51-1.15,2.52,2.52,0,0,1,.38-1.63,1.56,1.56,0,0,1,1.46-.66,1.94,1.94,0,0,1,1.29.65,2,2,0,0,1,.47,1.12c0,.1,0,.2.08.2s.09-.08.08-.21a2.66,2.66,0,0,0-.27-1,1.66,1.66,0,0,0-.72-.74A1.79,1.79,0,0,0,62,77.82a2.28,2.28,0,0,0-.76.5,2.6,2.6,0,0,0-.49,1,2.32,2.32,0,0,0,.09,1.47,2.38,2.38,0,0,0,.83,1.15,1.67,1.67,0,0,0,1.43.26,1.87,1.87,0,0,0,1.15-.81,2.85,2.85,0,0,0,.32-1.11.57.57,0,0,0,0-.14C64.63,80,64.64,79.89,64.55,79.89Z"/></g></svg>