<svg xmlns="http://www.w3.org/2000/svg" xmlns:xlink="http://www.w3.org/1999/xlink" viewBox="0 0 106 106"><defs><style>.cls-1{fill:none;}.cls-2{clip-path:url(#clip-path);}.cls-3{fill:#62bfb3;}.cls-3,.cls-6{fill-rule:evenodd;}.cls-4{fill:#1d1d1b;}.cls-5{opacity:0.9;}</style><clipPath id="clip-path"><rect class="cls-1" x="0.3" y="113.81" width="106.08" height="27.76" rx="4.5"/></clipPath></defs><title>webIcons</title><g id="Buttons-2" data-name="Buttons"><g class="cls-2"><path class="cls-3" d="M.2,73.35c0-.06.06-.11,0-.16a.16.16,0,0,0-.19,0,1,1,0,0,1-.52.1,1.53,1.53,0,0,1,.84-.18l0,.08s0,0,0-.09a.36.36,0,0,1,.23-.14,5.12,5.12,0,0,1,1.7-.2.59.59,0,0,0,.32,0,.07.07,0,0,0,.06-.07.18.18,0,0,0-.09-.13.63.63,0,0,0-.36,0c-.08,0-.06,0,0-.08l0,0,.15,0,.07,0h0l-.07,0h.06a.13.13,0,0,0,0-.06h.21c.28,0,.59,0,.79-.28h.06c.1,0,.24,0,.22-.15s-.13-.08-.21,0-.5.09-.72.21-.25,0-.35.07h0v.13H2.28A.29.29,0,0,0,2,72.3H2c-.13,0-.28,0-.37.15a.11.11,0,0,1,0,.06.69.69,0,0,0-.2,0,.08.08,0,0,0-.07,0c-.09-.07-.22,0-.32-.16s-.28-.08-.43,0-.12.12,0,.2-.06.15-.12.21l-.2.08a.1.1,0,0,0,0,0H.13l-.07.08h0a3.86,3.86,0,0,0-1,.2v.21c.16.23.41.22.65.21h.14A.27.27,0,0,0,.2,73.35Z"/><path class="cls-3" d="M105.85,85.06c0,.06,0,.12,0,.15s.15,0,.2-.08.19-.28.29-.41v-.14C106.11,84.67,106.06,84.94,105.85,85.06Z"/><path class="cls-3" d="M43.56,34.83c.08.06.16.1.22,0l.13-.31h-.36C43.66,34.6,43.56,34.71,43.56,34.83Z"/><path class="cls-3" d="M86.65,41c.09-.09.19-.16.09-.28a.1.1,0,0,0-.15,0C86.51,40.83,86.53,40.93,86.65,41Z"/><path class="cls-3" d="M97.35,62.54a.87.87,0,0,1-.08.1c.06.12.12.22.28.13s0,0,0,0,0-.07,0-.1,0-.11,0-.14S97.39,62.47,97.35,62.54Z"/><path class="cls-3" d="M50,43.6h0c-.08-.13,0-.33-.21-.42l-.07-.07c-.08,0-.23,0-.17.12a1,1,0,0,0,.38.45C50,43.72,50,43.64,50,43.6Z"/><path class="cls-3" d="M104.34,86.71h0a.23.23,0,0,1-.07.07c-.12.1-.26.18-.3.34l-.06,0a.09.09,0,0,0-.06.06h0a.18.18,0,0,0,0,.07,1.49,1.49,0,0,1-.51.42,1.64,1.64,0,0,0-.44.54l-.36.34-.07.08h0a.09.09,0,0,0,0,.15h0l.09,0,0,0,.07,0,.08,0,.41-.38a3.7,3.7,0,0,1,.55-.49,1.54,1.54,0,0,1,.25-.26l.07-.12a.78.78,0,0,0,0-.21c.1,0,.15,0,.22-.09l.11-.09c.14-.13.2-.32.36-.44h0a.27.27,0,0,1,.13-.23.76.76,0,0,0,.25-.31c0-.07,0-.09-.09-.08l-.2.15C104.7,86.32,104.43,86.45,104.34,86.71Z"/><path class="cls-3" d="M49.34,36.15s-.12-.08-.11,0a2,2,0,0,0,.11.32c.09,0,.12.2.26.19a0,0,0,0,1,0,0C49.52,36.49,49.56,36.26,49.34,36.15Z"/><path class="cls-3" d="M105.85,96.72h.06c0-.08-.13-.07-.2-.06A.15.15,0,0,0,105.85,96.72Z"/><path class="cls-3" d="M2.43,77.74h.06c.08,0,.24-.06.1-.21s0-.05,0-.07,0,0,0-.07h0a.16.16,0,0,0-.09,0,.34.34,0,0,0-.2,0h0c-.06.06,0,.13,0,.19v0A.62.62,0,0,1,2,77.52c-.11-.07-.29.08-.43,0l0,0H1.36l-.17.09c0,.06.13,0,.16.11s.23.09.36.07h.14c.15-.11.32,0,.48-.06A.53.53,0,0,0,2.43,77.74Z"/><path class="cls-3" d="M104.73,70.36c0,.11.16.12.26.14a.6.6,0,0,1,.22.2.31.31,0,0,0,.31.18l0,0a1.48,1.48,0,0,0,0-.21v-.13c-.13,0-.26,0-.35-.11s-.23-.13-.35-.18S104.66,70.23,104.73,70.36Z"/><polygon class="cls-3" points="105.56 70.85 105.56 70.85 105.56 70.85 105.56 70.85"/><path class="cls-3" d="M105.71,71.05l.07.07s.09.07.18,0c-.14-.11-.16-.32-.4-.3C105.52,71,105.65,71,105.71,71.05Z"/><path class="cls-3" d="M105.47,75.93a.19.19,0,0,0,0,.08,1.06,1.06,0,0,1,0,.31.19.19,0,0,0,0,.08c-.06.09.25.3-.09.3a.13.13,0,0,1,0-.06.08.08,0,0,0-.07-.07h0V76.5a.44.44,0,0,1-.08-.2c-.09-.07-.07-.19-.14-.28s-.14.06-.15.15a.39.39,0,0,0,0,.21.41.41,0,0,1,0,.22l0,.08c-.16.13-.19.24,0,.31.08-.07.14-.16.27-.14h0c0,.13.06.25.23.27l0,.05a.46.46,0,0,0,.08.32,1.35,1.35,0,0,1,.21.59h0l0-.06a.2.2,0,0,0-.09-.09.08.08,0,0,0-.08,0,.1.1,0,0,0,0,.1.22.22,0,0,0,0,.08l0,.07a.56.56,0,0,0,0,.12s0,.07.06.11a1.09,1.09,0,0,0,.08.15c.06.07.09.2.21.14a.69.69,0,0,0,.13.11c-.1,0-.17,0-.23.09a.15.15,0,0,1,0,.07c.09,0,.16.1.28.08s0-.14,0-.22h0a.41.41,0,0,1,.22.07v-.41h-.07a.2.2,0,0,0-.08-.2h0l-.14-.42c-.07-.08,0-.22-.13-.27a.14.14,0,0,1,0-.06.08.08,0,0,1,0-.09v0a.26.26,0,0,1-.07-.22v-.13c0-.1-.12-.22,0-.29s0-.23,0-.35-.08-.21-.07-.33a1.72,1.72,0,0,0-.07-.21C105.6,75.74,105.53,75.81,105.47,75.93Z"/><path class="cls-3" d="M106,77a.41.41,0,0,1,0,.09c.06,0,.07-.08.08-.14s-.06-.11-.13-.08S106,77,106,77Z"/><path class="cls-3" d="M82.34,43.15a.51.51,0,0,1-.48,0l-.09,0-.18,0h0l0,0s-.09.09,0,.16h0c.17.08.35.13.51.21l.07.07c.15,0,.33-.06.43.13.1,0,.21,0,.3.06s.2,0,.27-.09,0-.17-.07-.24H82.9c-.13-.09-.31-.1-.42-.22A.17.17,0,0,0,82.34,43.15Z"/><path class="cls-3" d="M82.6,43.05c0,.14.1.15.2.17a.1.1,0,0,0,.09,0s.15,0,.07-.14,0,0-.07-.06h0C82.78,43,82.67,42.94,82.6,43.05Z"/><path class="cls-3" d="M7,56.93a.54.54,0,0,0-.07-.43c-.07,0-.14-.06-.15.06a1.36,1.36,0,0,0,.08.49A.13.13,0,0,0,7,56.93Z"/><path class="cls-3" d="M6.94,54.22c-.15-.07,0-.24-.15-.38v.52c0,.11.07.09.14.07S6.94,54.29,6.94,54.22Z"/><path class="cls-3" d="M12.1,48.12a.76.76,0,0,0,0-.21.81.81,0,0,0-.15-.37.18.18,0,0,0-.09,0c-.06,0-.07.06-.11.1h0l.21.83C12.13,48.4,12.08,48.24,12.1,48.12Z"/><path class="cls-3" d="M12.31,49.58a.42.42,0,0,0-.08-.47l-.15-.06a1.62,1.62,0,0,0,.08.69c.05,0,.06.07.07.12S12.28,49.68,12.31,49.58Z"/><path class="cls-3" d="M12.86,55.67h0c-.24,0-.25,0-.15.21l.08.06h0C13,55.89,12.9,55.78,12.86,55.67Z"/><path class="cls-3" d="M10.79,35.23c0,.19,0,.38,0,.56.1-.07.06-.18.06-.27s0-.2.08-.27a.18.18,0,0,0,0-.21C10.81,35.05,10.79,35.13,10.79,35.23Z"/><path class="cls-3" d="M20.45,37.39c0,.09,0,.18,0,.26l.07.07a.2.2,0,0,0,.14-.13h0l-.08-.06h0a.1.1,0,0,1,0-.14c.08,0,.08-.1,0-.14S20.44,37.3,20.45,37.39Z"/><path class="cls-3" d="M19,36.41v-.06h0a.1.1,0,0,0-.05,0s0,.09,0,.11S18.94,36.45,19,36.41Z"/><path class="cls-3" d="M15.09,38.27c0,.07,0,.13.09.12a.12.12,0,0,0,.12-.14c0-.06,0-.14-.12-.13S15.09,38.21,15.09,38.27Z"/><path class="cls-3" d="M102.92,67.47v.06a.64.64,0,0,1,.21.35.13.13,0,0,0,.14-.13h0a.11.11,0,0,1,0-.15.35.35,0,0,0-.07-.2s-.11,0-.14-.07,0,0-.08,0S103,67.43,102.92,67.47Z"/><path class="cls-3" d="M103.42,68.36a.13.13,0,0,0,.14-.07.43.43,0,0,0,0-.05s-.11-.09-.13-.15h0C103.29,68.18,103.38,68.27,103.42,68.36Z"/><path class="cls-3" d="M98.48,65v-.06c-.19-.18-.2-.18-.29,0v0a.1.1,0,0,0,0,0l.06,0h.11Z"/><path class="cls-3" d="M97.12,63.81c0,.06,0,.08.07.08l.23.24s.08.09.14.06.06-.11.07-.18a4,4,0,0,0-.51-.41C97,63.67,97.14,63.74,97.12,63.81Z"/><path class="cls-3" d="M101.91,64.43a.17.17,0,0,1,0,.11h0l-.08,0c-.15,0-.12-.19-.26-.18-.1.17.08.3,0,.45v0a.26.26,0,0,0,0,.11l0,.07a.35.35,0,0,0,.11.13c.31,0,.06-.27.2-.33s.09.08.12.12l0,0a.2.2,0,0,0,.07.06.17.17,0,0,0,.18,0,.11.11,0,0,0,0-.08,0,0,0,0,1,0-.06.16.16,0,0,0,0-.07.17.17,0,0,0-.05-.15.09.09,0,0,1,0,0l-.06-.07a.2.2,0,0,0-.09-.09c.06,0,.11-.1.07-.19h0s0,0-.06-.07h0C102,64.21,101.92,64.25,101.91,64.43Z"/><path class="cls-3" d="M4.29,73.27v.13a.17.17,0,0,0,.21,0h0C4.49,73.26,4.4,73.26,4.29,73.27Z"/><path class="cls-3" d="M12.15,77l0,0a.15.15,0,0,0,.18,0c0-.07,0-.1-.08-.13h0c-.07,0-.17,0-.22,0S12.14,76.94,12.15,77Z"/><path class="cls-3" d="M11,76.39s0,0,0,0,0,.06,0,.06.05,0,.05,0S11.05,76.4,11,76.39Z"/><path class="cls-3" d="M9.71,71.67s.13,0,.08-.14c-.26-.09-.35-.06-.36.15l.28,0Z"/><path class="cls-3" d="M3.57,77.53a1.72,1.72,0,0,0,.64-.06.72.72,0,0,1,.52,0,.49.49,0,0,0,.21,0,2.47,2.47,0,0,1,.81.07A.24.24,0,0,0,6,77.48h.21v-.06h.51c.11,0,.08-.07.06-.14a1.22,1.22,0,0,1-.38,0,.86.86,0,0,0-.57,0H5.72l-.15,0H5.43c0-.08,0-.17-.14-.06l-.2.06c-.17,0-.28,0-.31-.2-.07,0-.14-.25-.21,0s.1.23-.11.24a.86.86,0,0,0-.17,0c-.24-.08-.48,0-.72,0A.15.15,0,0,0,3.57,77.53Z"/><path class="cls-3" d="M54.56,43.53l-.05-.08-.07-.06c-.14,0-.15,0-.08.13h0c.06.09,0,.19,0,.29s-.09.36.06.51.15.1.24,0a.09.09,0,0,1,0-.05c-.06-.12,0-.25-.06-.36s0,0,0-.07,0-.24-.07-.34Z"/><path class="cls-3" d="M50.41,38.77c-.11,0-.2-.11-.34-.08a.4.4,0,0,0,.06.35,1.5,1.5,0,0,1,0,.47c0,.07,0,.15.08.17s.15-.06.16-.14A1.54,1.54,0,0,0,50.41,38.77Z"/><path class="cls-3" d="M79.45,38.28c0,.06-.09.12,0,.18a.09.09,0,0,0,.15,0c0-.05.1-.11.06-.18s-.12,0-.18,0Z"/><path class="cls-3" d="M80.25,41.66h.06c.16,0,.33.06.43-.13h0l-.07,0a.09.09,0,0,1-.07,0h0A.32.32,0,0,0,80.25,41.66Z"/><path class="cls-3" d="M82.18,43c.07,0,.16.05.21,0s0-.07-.08-.1S82.08,42.79,82.18,43Z"/><path class="cls-3" d="M6,105.82l0-.07a1.19,1.19,0,0,0-.15-.09l-.07,0h0c-.06,0-.06.08-.06.14l.06.07.08.06a.15.15,0,0,0,.21,0A.12.12,0,0,0,6,105.82Z"/><path class="cls-3" d="M3.35,104.45h0a.17.17,0,0,0-.21,0h0v.13h0l.08.06C3.36,104.65,3.44,104.6,3.35,104.45Z"/><path class="cls-3" d="M.28,90.44c.09,0,.14,0,.13-.13S.21,90.29.28,90.44Z"/><path class="cls-3" d="M100.27,98c.1,0,.21,0,.21-.13h-.21Z"/><path class="cls-3" d="M100.26,97.26l-.06,0c-.18.11-.18.25-.12.43.17,0,.17-.23.32-.24a.13.13,0,0,0,0-.06c.1-.08.13-.17,0-.25S100.28,97.17,100.26,97.26Z"/><path class="cls-3" d="M102.75,71.91a.11.11,0,0,0,0,.08l.1.08c.05,0,.08.12.17.1h.15a.58.58,0,0,1-.08-.33l-.05,0c-.11-.11-.2-.08-.29,0A.16.16,0,0,0,102.75,71.91Z"/><path class="cls-3" d="M104.49,72.08c.07,0,.14.09.21,0s.23-.06.25.13.11,0,.17,0l.08-.07a.16.16,0,0,1,.13-.06v-.26l-.13,0c-.21-.13-.38,0-.57.07S104.36,71.94,104.49,72.08Z"/><path class="cls-3" d="M103.71,71.67h0a.1.1,0,0,0,.13,0s0-.12.08-.16h0s0-.09,0-.14h-.21A.2.2,0,0,0,103.71,71.67Z"/><path class="cls-3" d="M54.63,36.28c0-.07,0-.14,0-.21V36c0-.11,0-.23,0-.34A.63.63,0,0,0,54.63,36.28Z"/><path class="cls-3" d="M.14,72.57a.1.1,0,0,0-.06.12C.23,72.72.15,72.63.14,72.57Z"/><path class="cls-3" d="M105.64,78.71c.13,0,.09-.07.06-.13S105.59,78.63,105.64,78.71Z"/><path class="cls-3" d="M95.31,52.49c.13.1.17-.06.25-.11a.1.1,0,0,0,0,0c.1-.16,0-.17-.13-.18a.19.19,0,0,1-.14.07C95.29,52.31,95.19,52.41,95.31,52.49Z"/><path class="cls-3" d="M102.91,68.23h-.07c-.08,0-.07.14-.07.22s0,.22,0,.33.09.18.11.28a.15.15,0,0,0,.09,0c.14,0,.23-.09.14-.24h0a.17.17,0,0,1,0-.21l.07-.07c0-.08,0-.16-.07-.21S103,68.29,102.91,68.23Z"/><path class="cls-3" d="M101.84,67.7c-.07-.06-.19-.14-.22,0l.21.28c.13,0,.29.07.3-.15h0A1,1,0,0,1,101.84,67.7Z"/><path class="cls-3" d="M101.84,68.37s0,0,0,.06-.06.22.13.21h0a1.77,1.77,0,0,0,0-.23C102,68.3,101.9,68.35,101.84,68.37Z"/><path class="cls-3" d="M100.56,66.77c.17.09.13,0,.13-.12S100.55,66.68,100.56,66.77Z"/><path class="cls-3" d="M98.62,65.33c0,.18.18,0,.22.13s.06-.08.06-.13a.21.21,0,0,0-.28,0Z"/><path class="cls-3" d="M95.55,62.21l.12.1,0,0h0a.1.1,0,0,0,0,0c-.05.16.06.25.19.32l.14.07.06.06.08.14a1.2,1.2,0,0,0,.22.23l.16.16.08,0a.2.2,0,0,0,.08,0c.15,0,.16,0,.11-.15a1.39,1.39,0,0,0-.15-.19.55.55,0,0,1-.15-.28.28.28,0,0,1-.21-.14.71.71,0,0,0-.29-.28l-.15-.13a.47.47,0,0,0-.2-.22C95.53,62.06,95.55,62.14,95.55,62.21Z"/><path class="cls-3" d="M104.28,69.94h0a.46.46,0,0,0,.07.07l.06.07s.06.11.14.07l.08-.07c0-.09-.14-.16-.15-.27l-.07-.07A.17.17,0,0,0,104.28,69.94Z"/><path class="cls-3" d="M104.09,69.74a.3.3,0,0,0-.17-.38C103.92,69.5,103.91,69.64,104.09,69.74Z"/><path class="cls-3" d="M.94,77.58s0,0-.08,0,0,0-.08.06h.1S.94,77.59.94,77.58Z"/><path class="cls-3" d="M5.71,72.58a.91.91,0,0,0-.79.19,1.93,1.93,0,0,0,.79-.13S5.75,72.6,5.71,72.58Z"/><path class="cls-3" d="M7.7,77.2l-.06-.07a.13.13,0,0,0-.14.06v.14a.35.35,0,0,0,.2-.07A.13.13,0,0,0,7.7,77.2Z"/><path class="cls-3" d="M10.11,77.06c.17.07.2-.09.31-.17a.6.6,0,0,0-.34,0h0C10.1,76.92,10,77,10.11,77.06Z"/><path class="cls-3" d="M11.31,76.92a.12.12,0,0,0-.12.09.08.08,0,0,0,.09.08.13.13,0,0,0,.12-.1S11.36,76.92,11.31,76.92Z"/><path class="cls-3" d="M10.48,71.24s-.07-.06-.12,0a.89.89,0,0,0-.35.14l.08.08.31,0C10.46,71.35,10.51,71.3,10.48,71.24Z"/><path class="cls-3" d="M12,71.32l.32,0,.13-.15c0-.18-.17,0-.21-.13h-.06C12.17,71.18,12.1,71.25,12,71.32Z"/><path class="cls-3" d="M4.43,87.13s0-.08,0-.09-.27-.06-.38.09h0a.41.41,0,0,0,.36,0Z"/><path class="cls-3" d="M7.72,81.82c0,.19-.27.27-.29.48l-.06.07a.13.13,0,0,0,0,.06c.11.1.13-.06.21-.06s.18-.13.24-.21A.37.37,0,0,0,7.88,82a.06.06,0,0,0,0-.08c0-.08.13-.17,0-.24S7.78,81.8,7.72,81.82Z"/><path class="cls-3" d="M8.65,80.44h0a.11.11,0,0,1-.15,0H8.43c0,.14.06.29-.06.42a.23.23,0,0,0-.07.07c-.06.08-.05.13.07.14h0l.06,0,0,0a.12.12,0,0,0,0,0l0,0,0,0,.05-.06s.1-.09.07-.17v-.2l0,0S8.66,80.42,8.65,80.44Z"/><polygon class="cls-3" points="8.72 80.44 8.72 80.44 8.72 80.44 8.72 80.44"/><path class="cls-3" d="M78.46,42.22l-.12.06c-.07.09-.07.16,0,.21s.39,0,.62,0c-.17,0-.3-.06-.26-.23h0a.14.14,0,0,0-.13,0l-.09,0Z"/><path class="cls-3" d="M77.54,40.58c0,.07,0,.1.1.11s.16,0,.16-.1-.06-.1-.15-.1A.11.11,0,0,0,77.54,40.58Z"/><path class="cls-3" d="M79.52,41.63v0l-.14-.08h-.06c0,.11,0,.22.14.21,0,0,0-.05.06-.08Z"/><path class="cls-3" d="M99.56,84.28l.06,0s.13,0,.12-.09a.13.13,0,0,0-.14-.08C99.53,84.16,99.56,84.23,99.56,84.28Z"/><path class="cls-3" d="M96.18,88.85l-.13.07a.56.56,0,0,0-.36.07c0,.19,0,.19.21.14l.15-.08.42-.13s.11,0,.15-.07h0C96.47,88.72,96.32,88.81,96.18,88.85Z"/><path class="cls-3" d="M101.49,89.55c.06.17.17.1.28.06v-.2l-.09-.08-.06,0C101.63,89.44,101.52,89.47,101.49,89.55Z"/><path class="cls-3" d="M99.83,91a.4.4,0,0,1-.27.18c-.09.18-.34.12-.43.28a1.2,1.2,0,0,0-.44.48l-.78.62c-.06.08,0,.13,0,.17s.26-.1.35-.2a1.62,1.62,0,0,1,.6-.4c.11-.07.16-.19.25-.28s.2-.13.28-.23a.28.28,0,0,1,.09-.1.9.9,0,0,0,.38-.34,1.21,1.21,0,0,0,.37-.41c0-.07,0-.1-.08-.08A1.34,1.34,0,0,0,99.83,91Z"/><path class="cls-3" d="M99.29,95.42c0,.06,0,.14-.1.16a.14.14,0,0,0-.11.12.19.19,0,0,0,0,.08,1.42,1.42,0,0,1,0,.16.2.2,0,0,0,0,.08.3.3,0,0,0,0,.08c.08.12.09.29.26.34a.17.17,0,0,0,.08-.14c0-.18-.16-.36,0-.55a.38.38,0,0,1-.06-.28s0,0,0-.06h0C99.41,95.31,99.34,95.29,99.29,95.42Z"/><path class="cls-3" d="M99.62,94.16V94C99.55,94.08,99.54,94.12,99.62,94.16Z"/><path class="cls-3" d="M99.84,98h0a.15.15,0,0,0-.23,0C99.68,98.05,99.77,98,99.84,98Z"/><path class="cls-3" d="M103.12,69.47h.08s0-.14,0-.15.11.05.15.09l0,.06c.13,0,.13-.11.21-.14v-.07l0-.06c-.14-.09-.29-.18-.44,0A.34.34,0,0,0,103.12,69.47Z"/><path class="cls-3" d="M104.13,70.78h.07l.08-.06s.07-.09,0-.14-.15,0-.2.05S104,70.76,104.13,70.78Z"/><path class="cls-3" d="M103.74,70.11s.05,0,.06,0,0-.16,0-.24A.15.15,0,0,0,103.74,70.11Z"/><path class="cls-3" d="M104,73.13a.79.79,0,0,0,.36.48c.07,0,.15.21.22,0a3.85,3.85,0,0,0-.43-.83c-.12-.08-.24,0-.35,0C103.72,73,103.9,73,104,73.13Z"/><path class="cls-3" d="M68.36,38.47l-.12.12v0c-.08.09-.16,0-.25,0a.17.17,0,0,0-.24.11l.07.07a.23.23,0,0,0,.2,0,.17.17,0,0,1,.22,0,.19.19,0,0,0,.26,0h0c.05.16.19.11.31.12s.21,0,.29.07-.1.09-.11.16a.1.1,0,0,0,0,.07c.07,0,.15,0,.2,0h0c.22.1.17-.16.29-.19v0l.07-.07h0c.15-.08.28.13.44,0l0,0a.22.22,0,0,0,.21.05h.59c-.14-.18-.35-.07-.47-.19h0c-.09-.1-.2,0-.3-.07s-.19-.1-.23-.2-.07,0-.1,0l0,.07c0,.07-.09,0-.15,0l-.09,0a.88.88,0,0,1-.28-.06,1.27,1.27,0,0,0-.54-.11.11.11,0,0,0,0,0c-.09-.06-.11-.18-.22-.22A.11.11,0,0,0,68.36,38.47Z"/><path class="cls-3" d="M10,70.23h0c-.06-.08-.28-.13-.06-.27h0s0,0-.07-.08a.13.13,0,0,0,0-.06.49.49,0,0,0-.26-.1.16.16,0,0,0-.09,0c-.09,0-.14.05-.14.14s.3.07.29.27.06.12.13.15S10,70.3,10,70.23Z"/><path class="cls-3" d="M104.55,75.34c.09,0,.08-.13.08-.21s-.14.05-.15.14Z"/><path class="cls-3" d="M104.63,74.79a.15.15,0,0,0,.07-.15s-.09,0-.12,0S104.57,74.74,104.63,74.79Z"/><path class="cls-3" d="M104.74,75.18c.05.1.12.19.18.29h0a.05.05,0,0,0,0-.08v-.13c-.06-.06,0-.16-.07-.21h-.07C104.78,75.07,104.69,75.08,104.74,75.18Z"/><path class="cls-3" d="M105.43,77.73c.1,0,.13,0,.13-.12a.34.34,0,0,1-.07-.11s0-.07-.07-.07-.06.06-.07.1S105.41,77.66,105.43,77.73Z"/><path class="cls-3" d="M95.55,53.94h.07c.2.05.14-.13.21-.21v0C95.55,53.68,95.55,53.68,95.55,53.94Z"/><path class="cls-3" d="M17.59,53.8h0c-.13,0-.12.06-.07.14h0c0,.05,0,.11.06.15l.23.47c.06,0,.06.09.07.14l.14.07a.57.57,0,0,0,0,.13c.07,0,.06-.09,0-.13v-.2a4.65,4.65,0,0,1-.28-.7S17.62,53.85,17.59,53.8Z"/><path class="cls-3" d="M32.34,51.93c0,.06,0,.08.1.07a.06.06,0,0,0,.07-.07s0-.07-.09-.09S32.33,51.88,32.34,51.93Z"/><path class="cls-3" d="M46.11,40.85,46,40.71c-.16-.1-.15.07-.21.12s-.12.17,0,.18S46.11,41,46.11,40.85Z"/><path class="cls-3" d="M100.4,68.92c.06,0,.07-.08.08-.14h0a.16.16,0,0,1-.06-.08l-.08-.13c-.12-.18-.34-.11-.5-.2s-.06.08-.07.13.3.1.43.21h0a.11.11,0,0,0,0,.09h0a.05.05,0,0,0,0,0s.11,0,.14.08Z"/><path class="cls-3" d="M100.16,69.09a.06.06,0,0,0,.07-.06.09.09,0,0,0-.07-.1c-.06,0-.1,0-.09.07S100.11,69.08,100.16,69.09Z"/><path class="cls-3" d="M99.48,68.23s.07,0,.09,0a.06.06,0,0,0,0-.09s0-.06-.08,0a.14.14,0,0,0,0,.09S99.48,68.21,99.48,68.23Z"/><path class="cls-3" d="M92.87,104.9A.09.09,0,0,0,93,105a.05.05,0,0,0,.07,0c0-.07,0-.11-.1-.09S92.88,104.88,92.87,104.9Z"/><path class="cls-3" d="M91.77,105.61h0a.26.26,0,0,0,.07-.19C91.75,105.42,91.74,105.5,91.77,105.61Z"/><path class="cls-3" d="M7.08,68.5,7,68.44a.28.28,0,0,0-.14-.1.06.06,0,0,0-.07,0v.14s0,0,0,.06l.13.08C7,68.64,7.16,68.67,7.08,68.5Z"/><path class="cls-3" d="M20.42,72.9c.09-.05.11-.12,0-.2s-.16,0-.22-.06h0a.39.39,0,0,0,0,.48.23.23,0,0,0,.07-.07A.22.22,0,0,1,20.42,72.9Z"/><path class="cls-3" d="M15.15,70.85h0s.11,0,.15-.07h.22a.73.73,0,0,0,.64-.33c.12-.19,0-.15-.13-.15-.33.11-.72-.07-1,.21a1.51,1.51,0,0,1-.35.14,2,2,0,0,0-.22.09l0,0c.11.13.26.09.39,0A.38.38,0,0,1,15.15,70.85Z"/><path class="cls-3" d="M49.13,49.54c0,.17.15.22.33.25a.93.93,0,0,0-.17-.33.1.1,0,0,0-.12,0A.11.11,0,0,0,49.13,49.54Z"/><path class="cls-3" d="M57.09,41.69s-.12-.09-.17,0,0,.14.08.21h0C57.07,41.82,57.16,41.79,57.09,41.69Z"/><path class="cls-3" d="M56.77,41.18c-.11-.08,0-.24-.14-.4v.41c0,.05,0,.12.1.1S56.78,41.23,56.77,41.18Z"/><path class="cls-3" d="M56.71,40.15v-.08s-.11,0-.12,0a.15.15,0,0,0,0,.22h0S56.66,40.18,56.71,40.15Z"/><path class="cls-3" d="M49.43,56.48a.12.12,0,0,0,.21,0c0-.09.08-.18.15-.17s.18-.13.26-.19-.18,0-.27-.06h0l-.08.06a1.88,1.88,0,0,0-.24.14A.14.14,0,0,0,49.43,56.48Z"/><path class="cls-3" d="M49.12,50.91c0-.1-.14,0-.2,0L49,51C49.07,51,49.16,51,49.12,50.91Z"/><path class="cls-3" d="M45.21,46.53c-.15,0-.14.08-.16.17a2.73,2.73,0,0,0-.56.15.16.16,0,0,1-.14.06c-.15.1-.3,0-.44,0s-.06.13-.08.2l.09.09.42-.16h.07c.16.08.32,0,.49,0a.14.14,0,0,1,0-.06,3,3,0,0,1,.68-.13c.17-.05.34-.2.29-.28s-.22,0-.34,0S45.32,46.55,45.21,46.53Z"/><path class="cls-3" d="M45.34,46.21l-.14,0C45.26,46.3,45.3,46.28,45.34,46.21Z"/><path class="cls-3" d="M42,47.32l-.07.08c-.13,0-.31.13-.4-.09l-.1.08a.18.18,0,0,0,0,.14.1.1,0,0,0,0,.13h.27a.26.26,0,0,1,.22-.13h.22a.36.36,0,0,0,0-.09c0-.07,0-.13,0-.17A.11.11,0,0,0,42,47.32Z"/><path class="cls-3" d="M42.76,46.77h0a0,0,0,0,0,0,.07c.09.07.18,0,.28,0C43,46.61,42.87,46.73,42.76,46.77Z"/><path class="cls-3" d="M44.09,46.7s0,0,0,0l0,0a0,0,0,0,0,0,.05S44.09,46.74,44.09,46.7Z"/><path class="cls-3" d="M47.7,42.62c.09,0,.07-.11.06-.18C47.55,42.45,47.67,42.55,47.7,42.62Z"/><path class="cls-3" d="M44.33,44.14V44h-.19c-.05,0-.11,0-.11.12a.07.07,0,0,0,0,.07h0A.19.19,0,0,0,44.33,44.14Z"/><path class="cls-3" d="M42.34,46a.38.38,0,0,0,.07.27l0,0a.37.37,0,0,0,.17-.05l.07,0h0c.07-.08.19-.15.07-.27a1.13,1.13,0,0,0-.22.11C42.44,46.08,42.4,46,42.34,46Z"/><path class="cls-3" d="M46.22,41.33c-.06-.11-.15,0-.24,0s0,.23.14.27S46.3,41.45,46.22,41.33Z"/><path class="cls-3" d="M60.8,41.17c.07.06,0,.17.13.21l0-.06c-.06-.08,0-.17-.06-.26A.14.14,0,0,0,60.8,41.17Z"/><path class="cls-3" d="M75.88,41.32s-.11.06-.1.13a.21.21,0,0,0,.1.14c.13.06.2-.13.23-.1.18.12.14-.06.2-.1h0c-.09-.07-.21,0-.29-.06h-.14Z"/><path class="cls-3" d="M76,40.15s.1,0,.11-.07S76,40,76,40a1.51,1.51,0,0,0-.28,0A.31.31,0,0,0,76,40.15Z"/><path class="cls-3" d="M5.87,103.38a.81.81,0,0,1-.09-.1c-.1.07-.06.18-.07.27h0a.1.1,0,0,1,0,.07.25.25,0,0,0,0,.07h0C6.06,103.57,6.06,103.55,5.87,103.38Z"/><path class="cls-3" d="M96.84,87.9v0c0,.08.1.15.21.07h0C97.05,87.88,97,87.87,96.84,87.9Z"/><path class="cls-3" d="M98.28,91.83c.15-.2.36-.36.41-.62a1.58,1.58,0,0,0-.5.34C98.18,91.65,98.1,91.78,98.28,91.83Z"/><path class="cls-3" d="M95,89.4l.08-.06V89.2H94.9C94.87,89.28,94.77,89.39,95,89.4Z"/><path class="cls-3" d="M97.47,87.55a.32.32,0,0,0-.27.07c0,.19.12.1.21.07Z"/><path class="cls-3" d="M94.61,84.92a.13.13,0,0,0-.07-.14c-.09,0-.16.15-.28.14s0,.09.07.14S94.54,85,94.61,84.92Z"/><path class="cls-3" d="M98.13,101.68h0a.08.08,0,0,0,.13,0l.07-.06c0-.14,0-.22-.2-.13Z"/><path class="cls-3" d="M73.77,40.2c0,.08.08.09.11.14a.13.13,0,0,0,.2,0c.1-.11,0-.14-.07-.2H74C73.88,40.16,73.8,40.12,73.77,40.2Z"/><path class="cls-3" d="M69.07,38.7l.08.07c.1,0,.22,0,.21-.14a.44.44,0,0,0-.28-.07A.11.11,0,0,0,69.07,38.7Z"/><path class="cls-3" d="M74.24,40.43c.08.26.13,0,.2,0v-.06c0-.08,0-.14-.11-.06A.64.64,0,0,0,74.24,40.43Z"/><path class="cls-3" d="M102.84,71.19c0,.15.12.14.22.14h0a.12.12,0,0,0,0-.14l-.09-.06C102.9,71.09,102.87,71.13,102.84,71.19Z"/><path class="cls-3" d="M102.58,71.22c-.18,0-.37,0-.31.25h0c.08.07.2,0,.29.06h0a.23.23,0,0,0,.07.07h0l.13,0s.15.06.14-.06-.06-.09-.12-.09-.15-.05-.15-.14Z"/><path class="cls-3" d="M102.71,72.15a.18.18,0,0,0-.15-.06s0,.06-.08,0,0,0,0-.08a.34.34,0,0,0,0-.1s0,0-.07-.06-.12-.14-.18-.2-.09-.09-.14,0,0,.1,0,.15a.64.64,0,0,1,.2.49h0a.12.12,0,0,0,.11,0c.07,0,.07.07.1.11s0-.2.21-.17S102.75,72.19,102.71,72.15Z"/><path class="cls-3" d="M71.44,40.93s0-.07-.07-.07-.11.06-.15.12a.09.09,0,0,1,0,.05l0,0s0,0,0,0S71.44,41,71.44,40.93Z"/><path class="cls-3" d="M10,68.67a.07.07,0,0,0-.07.06c0,.09.06.1.13.11l0,0C10.08,68.74,10.08,68.68,10,68.67Z"/><path class="cls-3" d="M104.85,76.5l-.15-.13-.07-.07c-.08,0-.07.13-.07.21l.07.13h.3s0,0,0-.06Z"/><path class="cls-3" d="M81.65,56.85c.06.09.11.17.23.13a.14.14,0,0,0,.14-.06l-.14-.14h-.15C81.67,56.76,81.65,56.8,81.65,56.85Z"/><path class="cls-3" d="M86.25,57.94c0,.11.11.14.21.07s-.1-.13-.2-.13S86.22,57.92,86.25,57.94Z"/><path class="cls-3" d="M76.16,47.59l.08-.06c0-.08.12-.19-.07-.2S76,47.5,76.16,47.59Z"/><path class="cls-3" d="M16.44,64.78l-.14-.21c-.18,0-.18.14-.28.28C16.19,64.81,16.34,65,16.44,64.78Z"/><path class="cls-3" d="M16.49,65.25c0-.06,0-.1-.12-.11s-.1.09-.1.15,0,.16.1.14A.15.15,0,0,0,16.49,65.25Z"/><path class="cls-3" d="M18.09,66.51a.21.21,0,0,0-.18-.22c-.05,0-.09,0-.1.08s.12.25.21.24S18.08,66.55,18.09,66.51Z"/><path class="cls-3" d="M13.86,60.78c.05.07.09,0,.14,0S13.9,60.71,13.86,60.78Z"/><path class="cls-3" d="M15.21,58.16h0c0-.07,0-.14,0-.21s-.13-.16-.14-.27a.34.34,0,0,1-.14-.15l-.07-.07h0s0,0,0-.07a.16.16,0,0,0-.12,0s0,0-.06,0h0c0-.12-.07-.11-.15-.07l-.06,0a1,1,0,0,0,.41.61h0l0,.06h0l.08.09s0,0,0,0l.08.13C15.13,58.29,15.22,58.3,15.21,58.16Zm-.55-.69h0Z"/><path class="cls-3" d="M10.87,62.37h0s0,.08.09,0Z"/><path class="cls-3" d="M18.22,58.56v-.4c-.22.16-.24.28-.07.47h0a.27.27,0,0,0,.08-.07Z"/><path class="cls-3" d="M31.15,48.9a.74.74,0,0,0-.69.21l-.28.07c-.09,0-.11,0-.15.07a1.75,1.75,0,0,1-.64.14.18.18,0,0,1-.09.06h-.05l-.08.07h0c-.13,0-.29,0-.38.11.1.07.21,0,.32,0l.07-.06.14,0a.19.19,0,0,0,.16-.05h0l.12,0a.14.14,0,0,0,.15-.06c.14,0,.28-.07.42,0s.18-.16.32-.17a3.58,3.58,0,0,0,.45-.09,1,1,0,0,0,.38-.08C31.4,48.94,31.26,48.92,31.15,48.9Z"/><path class="cls-3" d="M36.53,47.87c.21-.22,0-.23-.15-.24s-.24,0-.33.12-.28.15-.43.2-.14.21.07.17.47-.12.7-.18h0Z"/><path class="cls-3" d="M33.46,48.14c0,.1-.4,0-.14.22h.07a1,1,0,0,1,.39-.21c.11,0,.19-.08.18-.2a.08.08,0,0,0-.13,0,.39.39,0,0,1-.29.13Z"/><path class="cls-3" d="M35.25,47.19h-.06s-.07,0-.08.06.1.1.16,0S35.26,47.23,35.25,47.19Z"/><path class="cls-3" d="M40.12,47.12a.79.79,0,0,1-.43.14,2.15,2.15,0,0,1-.57.13.07.07,0,0,0,0,.06.12.12,0,0,0,0,0c0,.07-.06,0-.07.07-.21.14-.49.17-.67.37h-.07s-.07,0-.07.07l.08.08c.1,0,.21-.05.26.08s.1.06.15,0A.38.38,0,0,0,38.9,48l0,0s0,0,0,0c.19-.12.41,0,.61-.06s.11-.41.39-.41l.07,0a.3.3,0,0,0,.19-.14h.06a.46.46,0,0,0,.07-.07h0C40.31,47.11,40.28,47.06,40.12,47.12Z"/><path class="cls-3" d="M40.2,48.08c0,.05,0,.09,0,.14a.47.47,0,0,0,.21.06c0-.14,0-.27,0-.41a.17.17,0,0,0-.14.07C40.2,48,40.23,48,40.2,48.08Z"/><path class="cls-3" d="M45.27,42.42v-.14l-.07-.07c-.18,0-.13.11-.08.21h0c.06,0,0,.18.14.15h0s0,0,0,.06.13.27.2,0C45.4,42.57,45.39,42.45,45.27,42.42Z"/><path class="cls-3" d="M99.69,71.51s0,.07.08.1a.06.06,0,0,0,.06,0,.12.12,0,0,0,.15,0c.12-.1,0-.13-.06-.15h-.1S99.7,71.43,99.69,71.51Z"/><path class="cls-3" d="M95.9,68.64a4.43,4.43,0,0,0,.8.27.18.18,0,0,0,.19,0,.18.18,0,0,1-.13-.08l-.07-.06c-.14-.07-.32,0-.43-.15l-.07-.06h-.07a.15.15,0,0,0-.21,0h0A.09.09,0,0,0,95.9,68.64Z"/><path class="cls-3" d="M99.24,71.55c-.16,0-.28,0-.38.12C99,71.66,99.12,71.72,99.24,71.55Z"/><path class="cls-3" d="M99,71.33a.12.12,0,0,0,.07-.13c-.15,0-.15,0-.14.06l.07.07Z"/><path class="cls-3" d="M101.05,71.19c-.11,0-.23-.14-.29.07s0,.15.08.21c-.11,0-.22,0-.27.12l.05,0,.15.06.07-.06v-.14c.12.14.24.09.35,0s.12,0,.18-.1l-.17-.1A.15.15,0,0,1,101.05,71.19Z"/><path class="cls-3" d="M99.58,70.38s0,0,0,0,.08-.06.09-.11S99.57,70.3,99.58,70.38Z"/><path class="cls-3" d="M93.83,66.36h0s0,0,0,0l.05,0h0s0,0,.06-.07v-.06C93.86,66.22,93.75,66.2,93.83,66.36Z"/><path class="cls-3" d="M94.39,67.3v0h0s0,0,.06.07.06,0,.09,0h0s0,0,0,0,0,0,.05,0,.11,0,.11-.06-.18-.2-.33-.19S94.38,67.27,94.39,67.3Z"/><path class="cls-3" d="M93.12,103.86c-.26-.08-.22.1-.22.24s.25-.08.38-.07.22-.12.18-.27S93.26,103.9,93.12,103.86Z"/><path class="cls-3" d="M20.31,71.54v.07c.07,0,.09.15.21.13S20.47,71.52,20.31,71.54Z"/><path class="cls-3" d="M12.72,69.74c0,.1,0,.2.15.21s0,0,.07,0a.31.31,0,0,0,.07-.09h.06c.09-.1,0-.15-.06-.2h-.14s-.1,0-.15.06Z"/><path class="cls-3" d="M13.3,70.64h0a.38.38,0,0,0-.36,0A1.45,1.45,0,0,0,13.3,70.64Z"/><path class="cls-3" d="M13.44,70.5c0,.07.08.07.14.07A.13.13,0,0,0,13.44,70.5Z"/><path class="cls-3" d="M59.43,56.15a.1.1,0,0,0-.12,0l-.13.24a.14.14,0,0,0,0,.09c.07.11.15.12.24,0l.08-.13C59.49,56.33,59.54,56.22,59.43,56.15Z"/><path class="cls-3" d="M53.92,52.43c-.05,0,0-.1-.07-.14h0a.1.1,0,0,0-.14,0h0a.46.46,0,0,0-.08.28c.15.12.25,0,.36-.07Z"/><path class="cls-3" d="M51.51,53.29c.08-.08,0-.17.05-.24C51.35,53.1,51.4,53.18,51.51,53.29Z"/><path class="cls-3" d="M58.37,41.73c.1.05.14.19.29.18s0-.26-.09-.38C58.36,41.49,58.35,41.5,58.37,41.73Z"/><path class="cls-3" d="M48,58.19a.11.11,0,0,0,.11.14c.13,0,.07-.11.08-.17h0C48.13,58.18,48,58.05,48,58.19Z"/><path class="cls-3" d="M49,59.44a.16.16,0,0,0,0,.09c0,.07.12.09.18.14h0l.07.07a.32.32,0,0,1,.15.13c.1,0,.14,0,.14-.13l-.29-.34c0-.1-.15-.09-.21-.15h0a.15.15,0,0,0-.07.14Z"/><path class="cls-3" d="M97,94.94c-.09,0-.16,0-.12.11.16.22,0,.26-.16.29l-.07.07c0,.07-.11.09-.09.18a1.6,1.6,0,0,0,.54-.23C97.17,95.27,97.1,95,97,94.94Z"/><path class="cls-3" d="M97.77,94.93h0a.11.11,0,0,1,0,.15h0a.08.08,0,0,0,0,.13h0c.11,0,.2.08.16-.1A.1.1,0,0,1,98,95c0-.1,0-.21-.07-.32C97.71,94.64,97.7,94.66,97.77,94.93Z"/><path class="cls-3" d="M96.41,94.17c0,.06,0,.12.09.12s.11-.06.12-.12S96.48,94.15,96.41,94.17Z"/><path class="cls-3" d="M97.54,92.92l.09.14h.06s0-.09,0-.13,0-.11-.06-.1S97.57,92.89,97.54,92.92Z"/><path class="cls-3" d="M98.16,91.94l0,0S98.17,91.92,98.16,91.94Z"/><path class="cls-3" d="M93.75,94.85v0c-.1,0-.2,0-.2.12s.13.16.16,0C93.71,94.88,93.74,94.87,93.75,94.85Z"/><path class="cls-3" d="M93.51,94.19s0,0,0-.06,0-.06-.05,0,0,0,0,0Z"/><path class="cls-3" d="M93.9,84.85h0c0-.06-.07-.13-.14-.16a.11.11,0,0,0-.08,0,.18.18,0,0,0-.07.28h.54C94.05,84.9,93.94,84.94,93.9,84.85Z"/><path class="cls-3" d="M97.9,93.41a.31.31,0,0,0,.09.19.15.15,0,0,0,0-.23S97.93,93.37,97.9,93.41Z"/><path class="cls-3" d="M72.58,40.84l.22.07c.08-.08.17-.17-.06-.16,0,0,0,0-.08,0S72.56,40.77,72.58,40.84Z"/><path class="cls-3" d="M102.47,70.61c-.06.13.11.08.13.14s0,0,0,0h0c.07-.06.11-.13,0-.19S102.49,70.56,102.47,70.61Z"/><path class="cls-3" d="M101.84,71.47s.11,0,.14.07h0c.08-.07.11-.15,0-.19s-.14,0-.15.12Z"/><path class="cls-3" d="M103.55,73.33c-.09-.06-.14,0-.15.08a.13.13,0,0,1,0,.06s.06.06,0,.08-.06.21.08.25.22,0,.23-.19S103.56,73.47,103.55,73.33Z"/><path class="cls-3" d="M69.34,50.66a.63.63,0,0,0,0,.58l0,0a.11.11,0,0,0,.12,0,.13.13,0,0,0,0-.12s-.08-.06,0-.08l.09,0c.21-.39.19-.53-.06-.66h0a.09.09,0,0,0-.13,0C69.37,50.46,69.39,50.59,69.34,50.66Z"/><path class="cls-3" d="M68.69,49.94s-.07.05-.11.07a.23.23,0,0,1-.07.07c0,.06,0,.16.11.1a.48.48,0,0,0,.1-.17S68.73,49.93,68.69,49.94Z"/><path class="cls-3" d="M68.37,49.53s0,0,0,.06l.07.08.14-.08s0,0,0-.06h0l-.06-.07h0C68.43,49.42,68.4,49.48,68.37,49.53Z"/><path class="cls-3" d="M103.78,74.17h0c0-.08,0-.18-.12-.23C103.62,74.05,103.61,74.14,103.78,74.17Z"/><path class="cls-3" d="M81.73,55.17a.09.09,0,0,0,0,.06.08.08,0,0,0,0,.07l0,0h.14l.07-.08v-.13h-.18S81.74,55.15,81.73,55.17Z"/><path class="cls-3" d="M84.28,57.21h0s0-.05,0,0v0S84.27,57.21,84.28,57.21Z"/><path class="cls-3" d="M84.75,61.09a.14.14,0,0,0,0,.09l.06.07.12.08c.22.12.47.22.68.35l.31.17c.08.06.17.1.25,0a.16.16,0,0,0,0-.26h0a.56.56,0,0,0-.2-.11.61.61,0,0,0-.23,0l-.29-.21s-.11,0-.14-.06h0a.34.34,0,0,0-.42-.15Z"/><path class="cls-3" d="M74.73,51.73c0-.08,0-.15-.07-.2S74.64,51.68,74.73,51.73Z"/><path class="cls-3" d="M79.32,50.64v.06c.05,0,.1.08.16,0s0-.12,0-.18l-.06,0A.11.11,0,0,0,79.32,50.64Z"/><path class="cls-3" d="M23.57,66.86c.06-.16,0-.21-.25-.21h0a.23.23,0,0,0,.14.27S23.56,66.91,23.57,66.86Z"/><path class="cls-3" d="M20.73,69.11A2,2,0,0,1,21,69c.11,0,.21-.07.15-.21s-.16-.06-.25,0-.25.12-.37.2C20.46,69.23,20.65,69.09,20.73,69.11Z"/><path class="cls-3" d="M15.63,70.1h-.26C15.43,70.17,15.51,70.18,15.63,70.1Z"/><path class="cls-3" d="M15,70.3v-.14h-.07C14.89,70.24,14.85,70.31,15,70.3Z"/><path class="cls-3" d="M20.17,69.27c0,.08.14,0,.21.07l.06,0C20.36,69.23,20.26,69.27,20.17,69.27Z"/><path class="cls-3" d="M19.86,56.77a0,0,0,0,0,0,0h0v0S19.86,56.8,19.86,56.77Z"/><path class="cls-3" d="M34.84,48.91l-.08,0-.07.06v0a.56.56,0,0,0,.62,0c.15-.08,0-.11,0-.16h-.13A.88.88,0,0,1,34.84,48.91Z"/><path class="cls-3" d="M33,48.33a.61.61,0,0,1-.13,0h-.07l-.08,0c-.09,0-.2,0-.28.07h-.07a1,1,0,0,0-.65.27.35.35,0,0,0-.12.07.18.18,0,0,0-.07,0,.2.2,0,0,0-.07.06l0,0,.14.13h.08a.45.45,0,0,1,.43-.21l.43-.2h0l.06,0a.2.2,0,0,0,.22,0h0c.15,0,.31,0,.44-.06S33.14,48.25,33,48.33Z"/><path class="cls-3" d="M34.34,48.19c0-.06-.1,0-.15,0a1.43,1.43,0,0,1-.45.12c-.12,0-.08.08-.06.14h.14c.09-.07.2,0,.29-.07h0a.2.2,0,0,1,.15-.07S34.36,48.23,34.34,48.19Z"/><path class="cls-3" d="M31.54,48.51c-.06.06-.15,0-.22.06l-.07.13h0a.17.17,0,0,0,.21,0C31.47,48.63,31.66,48.63,31.54,48.51Z"/><path class="cls-3" d="M34.54,53a.26.26,0,0,1,.14.13.23.23,0,0,0,.06.12l.1.09c.08.08.2.11.28.19l-.19,0a.19.19,0,0,0-.1,0l0,0a.26.26,0,0,0-.07-.18h0a.44.44,0,0,0-.12.19c-.09.17,0,.15.13.14h.08a9.75,9.75,0,0,0,1.43,0c.06,0,.21,0,.14.12s0,.22-.14.29l-.07.07h0a.26.26,0,0,1-.14.2c.05.09.12.07.2.06s0-.28.21-.34l0,0a.25.25,0,0,0,0-.07v0a.27.27,0,0,1,.09-.21l.07,0a.23.23,0,0,0,.15-.15c0-.12-.06-.17-.18-.12a2.43,2.43,0,0,1-.85-.06V53.4a.13.13,0,0,0-.09-.07h-.12c-.14,0-.31,0-.37-.13s-.18-.06-.27-.09l-.07-.06h0s-.11,0-.15-.07h0a.23.23,0,0,1-.07-.07h0a.12.12,0,0,0-.15,0Z"/><path class="cls-3" d="M33.54,53.87h.16a0,0,0,0,0,0,0l.08,0a1,1,0,0,0,.49-.08c-.13-.13-.29-.05-.43-.07a2.43,2.43,0,0,0-.27,0C33.45,53.68,33.47,53.77,33.54,53.87Z"/><path class="cls-3" d="M32.25,53.8v.08h0a.29.29,0,0,1,.14.13h0c.24.08.17-.12.21-.22s-.17-.13-.28-.06,0,0-.07.06Z"/><path class="cls-3" d="M38,47.66c0-.08,0-.13-.14-.13s0,.15.06.2l.08-.06Z"/><path class="cls-3" d="M39.9,47.67h0l.16-.12C39.88,47.55,39.88,47.55,39.9,47.67Z"/><path class="cls-3" d="M101.58,70.68s-.07,0-.06.07a.14.14,0,0,0,.14.09h0s0,0,0-.06S101.65,70.68,101.58,70.68Z"/><path class="cls-3" d="M93.59,68.22a.18.18,0,0,0,.07,0,1.31,1.31,0,0,1,.21.08l.16.08a.52.52,0,0,1,.3.24l.09,0c.27,0,.14.21.23.3a.51.51,0,0,0,.24.17c.2,0,.26-.06.24-.2h0l.13.06c.1,0,.15.16.28.17h0c0,.22.17.23.33.25l0,0,0,0v0l.06,0,.07,0h0v0h.17a.13.13,0,0,0,0,.08.11.11,0,0,0,.14,0h0l0,0c.06.26.29.34.49.45s.28.33.55.27h.2c.09-.05.24,0,.3-.11a.3.3,0,0,0-.28-.09.44.44,0,0,1-.45-.2.57.57,0,0,0-.14-.13.24.24,0,0,1-.09-.08l0-.06a1.1,1.1,0,0,1,0-.18s0,0-.05-.07a.25.25,0,0,0-.22,0,.85.85,0,0,1-.17.06c0-.06,0-.1-.09-.14.13-.1.18-.21.07-.35h-.06c-.11-.11-.19-.24-.38-.11,0,0-.11,0-.17,0s-.35-.11-.53-.15l-.15-.07c-.06,0-.07-.07-.08-.12a1.31,1.31,0,0,1-.42-.49c0-.13-.13-.2-.22-.27l-.06,0c-.18,0-.14.13-.13.24s.11.12.17.19A2.22,2.22,0,0,1,94,68c-.15-.07-.21-.22-.33-.31l-.1,0a.41.41,0,0,0-.19,0,.16.16,0,0,0-.08.06.21.21,0,0,0,0,.13c0,.08.09.12.15.17A.33.33,0,0,1,93.59,68.22Z"/><path class="cls-3" d="M88.8,63.66A.35.35,0,0,0,89,64a5.39,5.39,0,0,0,1,.46.15.15,0,0,0,.13-.07.15.15,0,0,0,0-.09.13.13,0,0,0-.06-.07c-.11-.07-.08-.21-.16-.3s-.2-.1-.3-.05-.25,0-.33-.16-.1-.18-.22-.19a.25.25,0,0,0-.19,0A.14.14,0,0,0,88.8,63.66Z"/><path class="cls-3" d="M90.48,64a.12.12,0,0,0,.13-.13l-.07-.07a.15.15,0,0,0-.14.07s0,.1.07.13Z"/><path class="cls-3" d="M92.4,65.88a1.24,1.24,0,0,1,.29.27c.09.06.2.07.28.14h.15v-.06a.23.23,0,0,0-.07-.07h0a2.57,2.57,0,0,0-.57-.35C92.41,65.79,92.39,65.82,92.4,65.88Z"/><path class="cls-3" d="M87.86,98.65l0,0-.08,0-.06.06c-.11,0-.11.07-.07.15h0a.45.45,0,0,1,.1.14.38.38,0,0,0,.06.14.28.28,0,0,0-.15.08v.12c.07.21.07.21.25.1a.25.25,0,0,1,.09,0l.09-.06c0-.08,0-.1-.08-.14h0a.31.31,0,0,0-.1,0,.65.65,0,0,0,.11-.15h0A.13.13,0,0,1,88,99a.48.48,0,0,1,.35-.08v-.14a.15.15,0,0,0-.12-.05C88.12,98.76,88,98.59,87.86,98.65Z"/><path class="cls-3" d="M88.12,99.41s.09,0,.09-.09,0,0-.09,0S88.07,99.36,88.12,99.41Z"/><path class="cls-3" d="M23.31,72.23a.14.14,0,0,0-.14.06h0s0,0,.07.07l.07.07c.09,0,.22,0,.15-.15l0,0a.19.19,0,0,0-.08,0Z"/><path class="cls-3" d="M20.74,76.51c.07-.07.16,0,.25,0s.05,0,.06,0h0s0,0,0-.06v0a.1.1,0,0,1,0-.09l.06-.06c.1-.09.24-.16.23-.32a.16.16,0,0,0-.15-.08h0s-.11,0-.15.07h0s-.05,0-.06.07a.55.55,0,0,0-.24.18.28.28,0,0,1-.33.1.14.14,0,0,1,0,.06.2.2,0,0,1-.14.21.35.35,0,0,0,0,.41C20.5,76.79,20.57,76.59,20.74,76.51Z"/><path class="cls-3" d="M20,77.47s.05-.09.07-.14-.18-.06-.28-.06l0,0C19.85,77.39,19.83,77.57,20,77.47Z"/><polygon class="cls-3" points="20.3 76.85 20.31 76.85 20.3 76.85 20.3 76.85 20.3 76.85"/><path class="cls-3" d="M20.29,76.87v0S20.27,76.87,20.29,76.87Z"/><path class="cls-3" d="M23.34,74.33c0-.09.09-.23-.11-.25h-.06l-.07.07h0c0,.09,0,.2.07.28h0C23.21,74.38,23.32,74.42,23.34,74.33Z"/><path class="cls-3" d="M8.66,83.5a.24.24,0,0,0-.29,0,.38.38,0,0,0,.28.15h0C8.66,83.62,8.74,83.55,8.66,83.5Z"/><path class="cls-3" d="M64.55,63.92v0c.12-.18,0-.37.06-.56a.41.41,0,0,1,0-.08h0a.08.08,0,0,1,0-.08c0-.06,0-.12,0-.17h0c-.1-.09-.21-.16-.34-.06a1,1,0,0,0,.06.39.18.18,0,0,1,0,.22.13.13,0,0,1,0,.06c-.06.13-.08.25.06.34a.19.19,0,0,0,.09.05h.1S64.58,64,64.55,63.92Z"/><path class="cls-3" d="M52.77,60.91h0c0,.08.13.07.21.06v-.12h-.07S52.82,60.88,52.77,60.91Z"/><path class="cls-3" d="M65.83,65c0-.08-.14-.06-.22-.05a.18.18,0,0,0-.15.11s0,.08.05.08a.35.35,0,0,0,.3-.05A.1.1,0,0,0,65.83,65Z"/><path class="cls-3" d="M65.72,57.11c.11.07,0,.2.1.3.06-.08,0-.18.11-.22s0,0,0-.06-.08-.18-.19-.17S65.73,57.06,65.72,57.11Z"/><path class="cls-3" d="M53.56,60.77h-.07c.07.09.18.06.27.06S53.63,60.79,53.56,60.77Z"/><path class="cls-3" d="M49.92,60.56s.08.1.12.1.08-.09.08-.15l-.07-.15c-.1-.06-.14,0-.14.08Z"/><path class="cls-3" d="M38.52,56.54a.51.51,0,0,1,.24,0h.06c.08-.21-.11-.16-.21-.2s-.13,0-.19,0a.42.42,0,0,0-.14.09l0,0A.18.18,0,0,0,38.52,56.54Z"/><path class="cls-3" d="M41.8,53.14c-.09-.12-.18,0-.31,0,.13.08.21.12.31,0A.08.08,0,0,0,41.8,53.14Z"/><path class="cls-3" d="M42.14,52.43c-.11,0-.29,0-.29-.07s-.11-.12-.2-.13a.26.26,0,0,1-.11-.07c-.08,0-.15-.1-.22,0a.18.18,0,0,0,0,.22,1.54,1.54,0,0,0,.13.12c.13,0,.2.12.29.18a.4.4,0,0,0,.49,0,.13.13,0,0,0,.06-.15A.11.11,0,0,0,42.14,52.43Z"/><path class="cls-3" d="M13.86,86.72a.14.14,0,0,1-.06-.14c0-.1-.06-.13-.14-.13s-.25,0-.12.17l.12.16C13.73,86.78,13.81,86.8,13.86,86.72Z"/><path class="cls-3" d="M9.23,102.26c-.1-.05-.14,0-.15.11h.14S9.31,102.29,9.23,102.26Z"/><path class="cls-3" d="M97.91,76.87a2.25,2.25,0,0,1-.52-.07.44.44,0,0,0-.2,0c-.06.11-.48.06-.18.35l.09,0a.46.46,0,0,1,.21.1.32.32,0,0,0,.38,0c.28,0,.52-.17.8-.14.05-.1.19-.14.2-.27h0a.28.28,0,0,0-.28,0c-.13,0-.27,0-.41,0Z"/><path class="cls-3" d="M84.68,97.2l.09,0c.17.1.18.09.2-.09a.38.38,0,0,0,0-.1H84.9C84.71,97,84.69,97,84.68,97.2Z"/><path class="cls-3" d="M86.11,97.71c0-.06,0-.11-.1-.12a.05.05,0,0,0-.05.07c0,.06,0,.11.09.12A.07.07,0,0,0,86.11,97.71Z"/><path class="cls-3" d="M92.85,96.27c-.07-.13-.23,0-.31-.1s-.12-.26-.28-.28-.18,0-.2.09.06.11.13.13a.27.27,0,0,1,.18.23c0,.21.13.17.25.18a1.85,1.85,0,0,0,.14-.14S92.85,96.33,92.85,96.27Z"/><path class="cls-3" d="M94.17,95.75v-.13a.07.07,0,0,0-.06-.07c-.06-.06-.12-.11-.21-.07h0c-.11.07-.08.14,0,.21a.15.15,0,0,1,0,.07H94a.13.13,0,0,0,0,.06h.2A.15.15,0,0,0,94.17,95.75Z"/><path class="cls-3" d="M92,90h.13l.17-.12c0-.05,0-.11,0-.13S92,89.85,92,90Z"/><path class="cls-3" d="M93,89.08s0,0,0,0l0,0,0,0S93,89.09,93,89.08Z"/><path class="cls-3" d="M91.54,82.79c.14,0,.16.16.16.3l.16-.21,0-.17C91.73,82.73,91.61,82.68,91.54,82.79Z"/><path class="cls-3" d="M91.19,85.5a.07.07,0,0,0,.07.08l0,0a.09.09,0,0,0,0-.11l-.08,0h0A.38.38,0,0,0,91.19,85.5Z"/><path class="cls-3" d="M20.31,93.34a.28.28,0,0,0,.21-.21h0a.08.08,0,0,0,0-.09c-.12-.16-.22-.1-.3,0l-.09,0-.08.07-.06.07c-.06.16,0,.19.15.15Z"/><path class="cls-3" d="M14.87,91.75l.15.13.33-.07C15.2,91.7,15,91.77,14.87,91.75Z"/><path class="cls-3" d="M12.65,89.2c-.1,0-.14,0-.14.14S12.66,89.29,12.65,89.2Z"/><path class="cls-3" d="M70.87,45.32l.08.06.13.14h0l.08-.07h0c.09-.16,0-.21-.14-.28l-.32,0C70.73,45.25,70.84,45.25,70.87,45.32Z"/><path class="cls-3" d="M69.58,50.15c.1,0,.16,0,.15-.09s0-.19-.15-.12Z"/><path class="cls-3" d="M68.3,53.32c.07,0,.15,0,.2-.06l-.06-.07C68.35,53.19,68.21,53.15,68.3,53.32Z"/><path class="cls-3" d="M81.85,55.69a.14.14,0,0,0,0-.22C81.82,55.54,81.79,55.61,81.85,55.69Z"/><polygon class="cls-3" points="81.82 55.47 81.82 55.46 81.82 55.47 81.82 55.47"/><path class="cls-3" d="M86.46,61.88v0l0,.06.08,0,.1,0,0,0,.07,0a.08.08,0,0,0,.07,0v0a.56.56,0,0,0,.4.24,2.66,2.66,0,0,0,.39.16.36.36,0,0,0,.23,0c.07,0,.16,0,.21-.06s0,0-.07-.07l-.15-.07a.38.38,0,0,0-.21-.07c-.08-.06-.2-.1-.24-.18s-.29-.2-.49-.18l-.13,0c-.06-.06-.16,0-.22-.07h0C86.54,61.82,86.49,61.82,86.46,61.88Z"/><path class="cls-3" d="M87.56,62a.08.08,0,0,0,.09.07.13.13,0,0,0,.1-.12c0-.05,0-.08-.09-.06A.11.11,0,0,0,87.56,62Z"/><path class="cls-3" d="M84.14,60.59a.38.38,0,0,0,.39.26c.06,0,.12,0,.15-.08l-.07-.07-.08-.06h-.06a.16.16,0,0,1-.08-.06h-.06a.16.16,0,0,1-.08-.06h0l0,0s0,0-.06,0A.1.1,0,0,0,84.14,60.59Z"/><path class="cls-3" d="M83.62,59.8l.2.09a.19.19,0,0,1,.07.06h0A.46.46,0,0,0,84,60h0a.11.11,0,0,0,.09,0s0,0,0,0l0,0a.19.19,0,0,0,.06.07c.06,0,.11.12.18.18h0a1.43,1.43,0,0,1,.36.06l.06,0c.08,0,.14,0,.09-.13s-.11-.15-.16-.22L84.54,60v-.13h0v0a.16.16,0,0,0-.18-.07h0a.39.39,0,0,0-.31-.11C83.83,59.68,83.68,59.63,83.62,59.8Z"/><path class="cls-3" d="M75.12,46.86a.09.09,0,0,0,.08.09.08.08,0,0,0,.1-.06.09.09,0,0,0-.1-.11S75.11,46.81,75.12,46.86Z"/><path class="cls-3" d="M79.13,52.32l0,0h0Z"/><path class="cls-3" d="M25,66.3c.07-.07.18,0,.26-.08a.28.28,0,0,0,.1-.09s0,0,0,0h.05a.08.08,0,0,0,.08,0l.12-.07c.11-.09.28-.12.31-.29h0l0,0c.14-.19.14-.19-.07-.21l-.07.07h0a1,1,0,0,0-.42.22l-.08.06h0s0,0,0,.06a.07.07,0,0,0-.06,0h-.08a.17.17,0,0,1,0,.07h0c-.12,0-.19.08-.27.14a.46.46,0,0,1-.07.07.14.14,0,0,0,.14.07Z"/><path class="cls-3" d="M19.44,59.61h0s0,0,0,0,0,0,0,0l0,0a.19.19,0,0,0,0-.18h0c-.08,0-.11-.15-.22-.13v.06c.1.08.07.24.22.28h0a.33.33,0,0,0,.07.27C19.59,59.78,19.48,59.69,19.44,59.61Z"/><path class="cls-3" d="M20.81,59.67a.38.38,0,0,1-.15-.13h-.07a.05.05,0,0,0-.08,0,.18.18,0,0,0,0,.14c0,.12.15.16.25.22h0l.08.07h0s0,.1.07.13h0c.09.08,0,.25.22.27s.13.12.14.21,0,.26.25.26c0-.13,0-.26,0-.38A6.61,6.61,0,0,0,20.81,59.67Z"/><path class="cls-3" d="M37.41,52.64l.06-.08a.14.14,0,0,0-.08-.14l-.28.22c-.08.18.07.12.15.14A.5.5,0,0,0,37.41,52.64Z"/><path class="cls-3" d="M38.63,47.48l-.09,0h0l.07,0Z"/><path class="cls-3" d="M95,71.82a.61.61,0,0,0-.22-.13,2.43,2.43,0,0,0-.66,0,.12.12,0,0,0-.07.07.17.17,0,0,0,0,.1c.1.11.25.09.37.13s.18,0,.23.08S94.91,71.89,95,71.82Z"/><polygon class="cls-3" points="94.05 70.85 94.05 70.85 94.05 70.85 94.05 70.85"/><path class="cls-3" d="M94.14,70.87l-.09,0S94.09,70.94,94.14,70.87Z"/><path class="cls-3" d="M94.91,69.74s0-.08-.06-.09a.08.08,0,0,0-.08,0l-.09.13C94.8,69.93,94.87,69.89,94.91,69.74Z"/><polygon class="cls-3" points="93.61 70.78 93.62 70.78 93.62 70.78 93.61 70.78"/><path class="cls-3" d="M93.47,70.57v.06s0,.06,0,.09a.25.25,0,0,0,.15.06h0c-.05.1-.22,0-.27.16a.84.84,0,0,0,.47,0c0-.06.13-.06.16-.13-.16,0-.12-.21-.23-.26S93.57,70.57,93.47,70.57Z"/><path class="cls-3" d="M95,70.23l.08.07s0,0,.07,0h.07v-.14h-.06a.15.15,0,0,0-.16,0h0A.06.06,0,0,0,95,70.23Z"/><path class="cls-3" d="M95.64,69.48a.82.82,0,0,0-.41-.24s0,.06,0,.09h0c.09.06,0,.21.14.24a.13.13,0,0,0,.08,0h.13S95.67,69.51,95.64,69.48Z"/><path class="cls-3" d="M91,66a1.88,1.88,0,0,0,.56.25s.06.06.09.09.25.08.2-.13,0-.22-.2-.21h0l-.1-.08c-.18-.08-.33-.22-.55-.16S90.87,66,91,66Z"/><path class="cls-3" d="M86.18,105.42h.06c0-.06,0-.13-.08-.1S86.13,105.39,86.18,105.42Z"/><path class="cls-3" d="M87,97.89l-.08-.2h0l-.15-.14s0,0-.06,0-.07.13-.06.2h0c.08,0,0,.13.05.19l.06.07.08,0A.13.13,0,0,0,87,98,.09.09,0,0,0,87,97.89Z"/><path class="cls-3" d="M21.64,76.16c-.08-.09-.16,0-.22.08l-.05.05h-.06c-.1.1-.22.19-.22.34a.52.52,0,0,0-.21.07l-.06,0s-.08.06-.06.11.09,0,.13,0H21l.05,0,.08,0s0,0,0-.06a.11.11,0,0,0,0-.08l0,0s0,0,.07,0l.06,0a1.2,1.2,0,0,1,.29-.26C21.59,76.31,21.74,76.27,21.64,76.16Z"/><path class="cls-3" d="M24.47,73.76l0,0,0-.08a.47.47,0,0,0,0-.17s0,0,0-.08h0s0,0-.05,0h-.08v.07l-.06.07-.09.12h0c-.29.18-.23.53-.48.78l.27-.08h0a.27.27,0,0,0,.08-.07,1.07,1.07,0,0,1,.29-.27,1.52,1.52,0,0,0,0-.21s0,0,0-.06A.06.06,0,0,0,24.47,73.76Z"/><path class="cls-3" d="M23.67,73.68a.46.46,0,0,0-.07.07l-.08.06c0,.18.12.12.21.07S23.75,73.73,23.67,73.68Z"/><path class="cls-3" d="M82.67,97.41h-.06a.16.16,0,0,1-.08-.06h0c-.06,0-.07.08-.08.14s.12.2.26.18S82.67,97.49,82.67,97.41Z"/><path class="cls-3" d="M65.91,66.93c.16.06.29,0,.38.13a.28.28,0,0,0,.15-.15.52.52,0,0,1,.07-.27c.1-.18.07-.26-.14-.4,0,.13-.05.26-.08.4S66.25,66.91,65.91,66.93Z"/><path class="cls-3" d="M72.31,65.82v-.67l-.15.11c0,.16,0,.32,0,.48s-.06.34.09.49A.26.26,0,0,0,72.31,65.82Z"/><path class="cls-3" d="M68.43,68.49a2.45,2.45,0,0,0,0-.27h0c-.08,0-.1,0-.14.08a.52.52,0,0,1-.07.27C68.34,68.63,68.41,68.61,68.43,68.49Z"/><path class="cls-3" d="M61.65,68.84c.06,0,.13,0,.11.09s.07.13.1.19h.21c.08-.11,0-.2-.06-.28a.67.67,0,0,1-.16-.25C61.55,68.57,61.53,68.6,61.65,68.84Z"/><polygon class="cls-3" points="40.76 56.78 40.76 56.77 40.76 56.78 40.76 56.78"/><path class="cls-3" d="M40.39,56.37h0c-.07,0-.06.08,0,.12h0s0,0,.07.08h0l.2.15s.11,0,.15.07l.08-.08s0,0,0-.06C40.75,56.45,40.54,56.45,40.39,56.37Z"/><path class="cls-3" d="M14.15,87.28l-.14.13s0,0,0,.06C14.23,87.46,14.23,87.45,14.15,87.28Z"/><path class="cls-3" d="M15.72,88.79h-.05c-.08-.13-.2,0-.3,0H15.3v.13a.36.36,0,0,0,.32.11C15.72,89,15.8,88.91,15.72,88.79Z"/><path class="cls-3" d="M10.36,102l0,0c-.07,0-.05.09-.08.12s0,.05,0,.07a.15.15,0,0,0,.14.07h0c.05,0,0-.1.08-.14A.17.17,0,0,0,10.36,102Z"/><path class="cls-3" d="M10.07,102.51a.13.13,0,0,0,.15.14c0-.06,0-.13,0-.2S10.1,102.42,10.07,102.51Z"/><path class="cls-3" d="M93,78.2s0-.07,0-.08-.07,0,0,.09a.36.36,0,0,0,0,.09h0A.11.11,0,0,0,93,78.2Z"/><path class="cls-3" d="M94.55,80.92h0c.1-.15,0-.23-.11-.31C94.36,80.77,94.52,80.82,94.55,80.92Z"/><path class="cls-3" d="M95.68,95.48h0l-.08-.06c-.06,0-.12-.12-.2,0s-.05.15,0,.21.11.18.24.18S95.68,95.58,95.68,95.48Z"/><path class="cls-3" d="M83,95.68c.09,0,.1-.07.12-.14a.21.21,0,0,0-.21-.12.51.51,0,0,0,0,.13C82.88,95.62,82.9,95.68,83,95.68Z"/><path class="cls-3" d="M21.4,93.32a.09.09,0,0,0,.06.11c.08,0,.11,0,.13-.09s0-.15,0-.2c.1-.25,0-.47,0-.71a.1.1,0,0,0-.12-.09c-.06,0-.07.06-.07.11v.34A.8.8,0,0,1,21.4,93.32Z"/><path class="cls-3" d="M22.75,91.22a.19.19,0,0,0-.09-.11c-.12,0-.22-.14-.35,0h0s0,0,0,.06a.08.08,0,0,0,0,.07.91.91,0,0,0,.07.14h.08a.21.21,0,0,0,.19,0C22.72,91.34,22.76,91.29,22.75,91.22Z"/><path class="cls-3" d="M69.87,52.15c0,.07-.13.14,0,.21s.12-.06.19-.08.1-.06.08-.13-.08-.07-.14-.06A.52.52,0,0,0,69.87,52.15Z"/><path class="cls-3" d="M84.1,60.49c0-.13-.07-.19-.14-.27s0,.14-.07.2a.14.14,0,0,0,.08.07h0A.08.08,0,0,0,84.1,60.49Z"/><path class="cls-3" d="M24.63,72.19s0-.08-.08-.08-.08,0-.09.07,0,.09.07.09S24.61,72.25,24.63,72.19Z"/><path class="cls-3" d="M27.87,70.09c.07.08.12,0,.17,0l.06,0c0-.16-.12-.11-.2-.08A.1.1,0,0,0,27.87,70.09Z"/><polygon class="cls-3" points="28.1 70.02 28.1 70.02 28.1 70.02 28.1 70.02"/><path class="cls-3" d="M28.18,69.76c.05.24.18.07.28,0h.07c.11.08.16-.06.24-.08a.42.42,0,0,0,.15-.12.13.13,0,0,0,0-.13.13.13,0,0,1-.14-.07.56.56,0,0,0-.43.27h0A.22.22,0,0,1,28.18,69.76Z"/><path class="cls-3" d="M27.67,70.34c-.05,0,0,.08,0,.11l.07-.08S27.71,70.31,27.67,70.34Z"/><path class="cls-3" d="M26.87,63.84a.06.06,0,0,0-.06-.07c-.07,0-.1,0-.11.09s0,.07.06.07S26.87,63.91,26.87,63.84Z"/><path class="cls-3" d="M26.6,62c-.1,0,0-.2-.18-.22s0,.26-.1.36,0,.22,0,.31,0-.12.12-.14,0,.22.2.17A1.15,1.15,0,0,1,26.6,62Z"/><path class="cls-3" d="M37.25,53.6v-.13h-.13C37,53.64,37.17,53.59,37.25,53.6Z"/><path class="cls-3" d="M91,70.44h0c-.08.17-.32.1-.46.27h.39c.1,0,.19-.07.3,0s.06,0,.07-.09l-.08-.06C91.13,70.44,91,70.5,91,70.44Z"/><path class="cls-3" d="M92.68,67.4c0,.19,0,.21.22.27,0,0,.14,0,.08-.09s-.08-.17.09-.16,0,0,0-.08L93,67.27C92.91,67.28,92.72,67.14,92.68,67.4Z"/><path class="cls-3" d="M92.4,67h0l0,0v0c.1.15.2.19.32,0s.07-.06.1-.09,0-.15-.13-.09A.74.74,0,0,1,92.4,67Z"/><path class="cls-3" d="M88.19,63.32h0c.1,0,.18.14.34.1C88.41,63.31,88.34,63.18,88.19,63.32Z"/><path class="cls-3" d="M18.36,81.26l.09.14a.26.26,0,0,0,.28.17c.05,0,.1,0,.14,0h0A.42.42,0,0,0,18.36,81.26Z"/><path class="cls-3" d="M19.45,81.26c.21-.05,0-.13,0-.2s-.21,0-.2.12S19.38,81.28,19.45,81.26Z"/><path class="cls-3" d="M20.52,81.13s0,0,0,.06l.12.07c.05,0,.11,0,.14.1a.14.14,0,0,0,.09,0c.1,0,.12-.11.11-.2A.18.18,0,0,0,21,81.1.94.94,0,0,0,20.8,81h0l-.07,0h0C20.57,81,20.44,81,20.52,81.13Z"/><path class="cls-3" d="M77.81,78.87a.13.13,0,0,0,0,.08.15.15,0,0,0,.06.11.15.15,0,0,0,0,.06h0a.58.58,0,0,1,.06.36c0,.14,0,.22.17.25h0a.14.14,0,0,0,.07.1h0V80l.06,0h0c0,.11,0,.23.12.28a.39.39,0,0,0,0-.51h0l0,0c0-.11,0-.22-.07-.31a.49.49,0,0,1-.11-.14h0l-.07-.08c0-.11-.1-.22-.16-.33S77.88,78.82,77.81,78.87Z"/><path class="cls-3" d="M86,99.9l-.16.13s-.18.09,0,.15a.37.37,0,0,0,.29,0h0c.06-.12.14,0,.21,0l.05,0v-.06a.06.06,0,0,1,0,0,.74.74,0,0,0,0-.33h0l-.3.13Z"/><path class="cls-3" d="M63.89,75.37c0-.09-.09-.1-.16-.1s-.21,0-.22.15a.09.09,0,0,0,.1.11A.34.34,0,0,0,63.89,75.37Z"/><path class="cls-3" d="M70.11,88.76c-.11.06-.07.19-.17.23l-.07.08-.08.05a.1.1,0,0,0,0,.09.22.22,0,0,0,.11.1H70c.17,0,.09-.18.17-.25h0C70.14,89,70.2,88.85,70.11,88.76Z"/><path class="cls-3" d="M61.78,76.57c-.08-.18-.08-.18-.35-.06,0,.13.14.17.18.31C61.66,76.7,61.68,76.61,61.78,76.57Z"/><path class="cls-3" d="M66.6,82.22c0,.08,0,.17-.09.22s0,.18,0,.27h0c0,.08,0,.17.06.21s.17.1.27.07c.05-.19,0-.41.14-.57-.13-.07-.22.09-.32,0S66.69,82.28,66.6,82.22Z"/><path class="cls-3" d="M67.05,82c-.07.22.09.42,0,.63.14,0,.12-.1.13-.19s0-.3.07-.43,0-.25-.17-.23S67.07,81.94,67.05,82Z"/><path class="cls-3" d="M73,80.67a.08.08,0,0,0,.1.07.15.15,0,0,0,.12-.18s0,0-.08,0A.15.15,0,0,0,73,80.67Z"/><path class="cls-3" d="M83.39,95.13l.07.07c.11-.16.09-.2-.07-.27h0l-.07.07v.06A.23.23,0,0,1,83.39,95.13Z"/><path class="cls-3" d="M72.66,75.81a.84.84,0,0,1,.07.35c0,.11.1.23.25.15s.12-.18,0-.29A.2.2,0,0,0,73,76s0-.1-.06-.13l0,0h0c0-.06,0-.12,0-.18s0-.11,0-.15h0c-.08-.06-.18,0-.27,0s-.15.07-.15.17S72.56,75.78,72.66,75.81Z"/><path class="cls-3" d="M72.09,88.24c-.11,0-.14.07-.15.16s0,.18-.07.24a2.16,2.16,0,0,0-.2.7l0,.12h0l0,0a.49.49,0,0,0-.07.35c0,.1.06.19.2.12l.07-.07a1.12,1.12,0,0,1,.1-.4l0,0s0,0,.07,0a.12.12,0,0,0,0-.13h0a1.41,1.41,0,0,1,0-.5A2.43,2.43,0,0,0,72.09,88.24Z"/><path class="cls-3" d="M66.45,84.24a.23.23,0,0,1-.08.14c0,.13,0,.14.18,0s0,0,0,0a.14.14,0,0,0,0,.12c.11,0,.16.18.29.22s0,0,.07,0,.1-.22,0-.33-.13-.31-.36-.21C66.48,84.1,66.51,84.23,66.45,84.24Z"/><path class="cls-3" d="M71.4,90.84c-.22.07-.18.28-.24.43s0,.2.07.27a.33.33,0,0,0,.21-.07c0-.08,0-.17,0-.26S71.54,91,71.4,90.84Z"/><path class="cls-3" d="M67,88.51v-.13l-.14.06s0,.09,0,.13,0,.29.15.36h0A.58.58,0,0,0,67,88.51Z"/><path class="cls-3" d="M69.36,86h0s.11.18.14,0,0-.15-.06-.16S69.38,85.89,69.36,86Z"/><path class="cls-3" d="M65.55,71.65c.07,0,.13,0,.18-.05h0c-.06,0-.07-.13-.16-.07A.08.08,0,0,0,65.55,71.65Z"/><path class="cls-3" d="M66.29,67.19s0,.1,0,.07S66.32,67.2,66.29,67.19Z"/><path class="cls-3" d="M70.22,58.07c.06,0,.1,0,.15-.06s.11-.13,0-.21-.08,0-.13,0a.61.61,0,0,0-.05.12S70.17,58,70.22,58.07Z"/><path class="cls-3" d="M66.37,55.81a.29.29,0,0,1,0-.09l0,0,.06.06Z"/><path class="cls-3" d="M38.83,65.19a.1.1,0,0,0,.07,0H39l0,0,.07,0a.18.18,0,0,0,.09-.06l.08-.06c0-.08,0-.14-.08-.14l-.06,0a.7.7,0,0,1-.29.13Z"/><path class="cls-3" d="M43.13,63.4l-.17.06h-.12c-.1.11-.27,0-.37.12s0,.06-.07.08h0a.21.21,0,0,0,.16.08,2.75,2.75,0,0,1,.63-.15C43.22,63.51,43.32,63.41,43.13,63.4Z"/><path class="cls-3" d="M11,101.13a.11.11,0,0,0-.13-.06l-.07.07C10.87,101.35,10.93,101.12,11,101.13Z"/><polygon class="cls-3" points="92.61 76.3 92.61 76.3 92.61 76.3 92.61 76.3"/><path class="cls-3" d="M92.45,76.07A1.8,1.8,0,0,0,92,76a.18.18,0,0,0-.17,0c0,.11,0,.19.14.2s.16,0,.22.06h.42C92.7,76.13,92.55,76.11,92.45,76.07Z"/><path class="cls-3" d="M92.81,77.16a0,0,0,0,0,0,0c0,.08.06.08.11.09h0S92.9,77.15,92.81,77.16Z"/><path class="cls-3" d="M91.54,75.94l-.37,0c.11.18.37.06.44.26.11,0,.16,0,.1-.14l-.1-.14S91.57,76,91.54,75.94Z"/><path class="cls-3" d="M90.74,75.93c0,.08.06.14.15.17s0,0,.08.06c.23-.06,0-.14,0-.21S90.79,75.82,90.74,75.93Z"/><path class="cls-3" d="M92.92,75.85c.13.21,0,.33-.16.45h0s.1,0,.14.08a.17.17,0,0,1,.15.06h.06a.11.11,0,0,1,.15,0h0a.2.2,0,0,0,.18,0,.15.15,0,0,0,.11.11h0a10,10,0,0,0,1.25.11c-.08-.12-.21-.08-.26-.17l-.21-.07a2,2,0,0,0-.43-.07h-.28s0,0,0-.06a.73.73,0,0,0-.43-.13c-.11-.15,0-.37-.21-.49A.12.12,0,0,0,92.92,75.85Z"/><path class="cls-3" d="M92.62,83a.07.07,0,0,0,.09.07s0-.06,0-.09,0-.06,0-.06S92.62,83,92.62,83Z"/><path class="cls-3" d="M16.53,90a.19.19,0,0,1-.16-.07l-.28.07h0c0,.05-.05.09,0,.13s.21,0,.29.07a.37.37,0,0,0,.27-.07C16.65,90,16.62,90,16.53,90Z"/><path class="cls-3" d="M78.75,59h0a1.8,1.8,0,0,0-.06.22s0,.08.08.1.08,0,.09,0,.26-.33.09-.57C78.86,58.8,78.87,58.94,78.75,59Z"/><path class="cls-3" d="M85.32,62.49l.07.07c.13,0,.24,0,.29-.13h0a.23.23,0,0,1-.07-.07h0C85.34,62.3,85.34,62.3,85.32,62.49Z"/><path class="cls-3" d="M85.61,64.5h0l-.08-.06h-.14l0,0s0,0-.05,0l-.08-.05c0-.07-.12,0-.18,0s-.17,0-.24,0h0a.06.06,0,0,0-.08,0h0c-.09,0-.17,0-.23,0H84.1c-.08,0-.13-.16-.24,0s0,0,0,.06.17,0,.25.07v.07l.13.07.17.07a2.6,2.6,0,0,0,.95.19C85.49,64.7,85.62,64.68,85.61,64.5Z"/><path class="cls-3" d="M81.18,62.72l.07-.08a1,1,0,0,1,0-.17c0-.21-.09-.07-.15,0s0,0,0,.06S81,62.7,81.18,62.72Z"/><path class="cls-3" d="M82,62.57h.14v-.14C82,62.42,82,62.47,82,62.57Z"/><path class="cls-3" d="M83.39,64.08l-.06,0a.8.8,0,0,1-.16-.08,1.13,1.13,0,0,0-.27-.13l-.11,0-.07-.05-.12,0h-.09a.31.31,0,0,1-.19,0,.28.28,0,0,0-.13,0s-.06.06-.1,0l-.08,0c-.18,0-.16.12-.07.23a.3.3,0,0,0,.17.08c.09,0,.19,0,.28,0a2.41,2.41,0,0,1,.37.07,1.37,1.37,0,0,0,.49.13s.1,0,.13.08h0C83.54,64.23,83.47,64.16,83.39,64.08Z"/><path class="cls-3" d="M83.32,63.88h0c.11.06.25,0,.35.14h0a.12.12,0,0,0,.14-.13.49.49,0,0,0-.49-.14S83.28,63.83,83.32,63.88Z"/><path class="cls-3" d="M79.4,61.18s.13.1.16,0,.1-.23-.1-.25l0,.08Z"/><path class="cls-3" d="M87.46,63.06c.17-.13-.08-.19,0-.31s-.1-.1-.17-.12c-.24,0-.24,0-.19.14l.06.06C87.23,62.91,87.25,63.11,87.46,63.06Z"/><path class="cls-3" d="M86.6,62.16c-.1,0-.14,0-.14.13l.08.06C86.75,62.35,86.64,62.24,86.6,62.16Z"/><path class="cls-3" d="M72.52,55.6a.13.13,0,0,1,.13-.07.49.49,0,0,1,.14-.24s.09-.08,0-.14a.12.12,0,0,0-.18,0c-.1.18-.31.24-.41.41,0,0,0,0,0,0s-.17,0-.09.15.11,0,.18,0S72.42,55.66,72.52,55.6Z"/><path class="cls-3" d="M72.73,54.78h0s0,0,0,.06h0s0,0,.07.06h.06l.09-.14a.14.14,0,0,1,0-.06C72.83,54.62,72.79,54.7,72.73,54.78Z"/><path class="cls-3" d="M71.67,53.68c0,.06,0,.15.06.17s.12-.06.14-.13,0-.2-.14-.12Z"/><path class="cls-3" d="M28.9,66c.08,0,.06-.12,0-.18l-.12-.21s0,0-.08-.07-.18.09-.05.34c0,0,0,0,.05,0S28.81,66,28.9,66Z"/><path class="cls-3" d="M27.47,71.65c.05.16.24,0,.37,0h.1a.45.45,0,0,0,.3-.09c.11-.2.32-.3.43-.49h0a.08.08,0,0,0,.07,0c0-.09,0-.2-.06-.27,0-.23-.05-.23-.23-.15s-.25.27-.42.35l-.22.35C27.65,71.39,27.41,71.46,27.47,71.65Z"/><path class="cls-3" d="M27.39,65.74a.23.23,0,0,1-.07-.07h0a.12.12,0,0,0-.15,0,.32.32,0,0,0,.08.28C27.41,66,27.39,65.84,27.39,65.74Z"/><path class="cls-3" d="M27.53,63.4s.07-.1,0-.15-.11,0-.16,0l-.09.06a.16.16,0,0,0,.16.15S27.52,63.43,27.53,63.4Z"/><path class="cls-3" d="M26.94,64.94s0,0,0,0,0,.12.11.13l0-.06S27,64.94,26.94,64.94Z"/><path class="cls-3" d="M93.24,75.84l.37.19a.55.55,0,0,0,.25,0,.28.28,0,0,0-.17-.17C93.55,76,93.39,75.76,93.24,75.84Z"/><path class="cls-3" d="M93,71.75H92.9v.14H93c.12,0,.27,0,.37-.08h0C93.25,71.74,93.13,71.82,93,71.75Z"/><path class="cls-3" d="M90.4,70.84c-.22-.08-.42.08-.64.07a.17.17,0,0,0-.14,0,.22.22,0,0,0-.06.07.16.16,0,0,0,0,.16c.07.06.14.19.22,0s.43,0,.64-.06h0C90.45,71,90.43,70.91,90.4,70.84Z"/><path class="cls-3" d="M87.68,66.3s-.11,0-.14-.07h0l-.08-.07h0a.05.05,0,0,0-.08,0,.14.14,0,0,0,0,.08,3,3,0,0,0,.08.52.42.42,0,0,0,.06.08.12.12,0,0,0,.14,0c0-.18,0-.38.07-.55Z"/><path class="cls-3" d="M91.46,67c-.07,0-.15,0-.19.06s.06.15.16.16S91.46,67.06,91.46,67Z"/><path class="cls-3" d="M92.06,67.22l-.09,0h0S92,67.28,92.06,67.22Z"/><path class="cls-3" d="M21.49,79s-.06,0-.1,0l-.07.12h.05C21.42,79.05,21.5,79.06,21.49,79Z"/><path class="cls-3" d="M76.27,76c.09.16.2.21.37.1l-.12-.17c-.07,0,0-.12-.09-.17s-.2-.17-.33,0C76.16,75.77,76.22,75.86,76.27,76Z"/><path class="cls-3" d="M79.35,102.29a.29.29,0,0,0-.16,0,.28.28,0,0,0-.17.18c0,.07.1.08.16.09s.32,0,.48-.09C79.78,102.14,79.48,102.33,79.35,102.29Z"/><path class="cls-3" d="M80,100.85a.68.68,0,0,1-.14.23s0,0,.07.06l0,0s0,0,0,0h0c.06,0,.16,0,.22-.07h0c.18,0,.28-.12.07-.27H80.1S80,100.82,80,100.85Z"/><path class="cls-3" d="M83,101.27c-.18.11-.46,0-.57.21h0a.2.2,0,0,0-.08.08h-.07v0l-.15.07-.2,0H81.8l-.07,0-.11,0a.41.41,0,0,1-.16,0,.11.11,0,0,0-.07,0c0,.11,0,.2.14.21a6.45,6.45,0,0,1,.87-.2c.16,0,.25-.17.42-.09a.16.16,0,0,0,.21-.06c.13,0,.19-.13.28-.21l0-.06c0-.07-.08-.15-.19-.15s-.1,0-.15.07Z"/><path class="cls-3" d="M85.42,99.6c0,.08.06.08.12.09h0s0-.12-.09-.11Z"/><path class="cls-3" d="M70.88,93.41v.34h.06a.29.29,0,0,0,.07-.2C70.94,93.53,71,93.42,70.88,93.41Z"/><path class="cls-3" d="M65.36,85.13a.48.48,0,0,1-.21.07,1.85,1.85,0,0,0-.14.14s-.1.12,0,.18.11,0,.16,0,.28-.11.29-.28Z"/><path class="cls-3" d="M65.43,83.89s0,0,0,.07h0l.2,0c0-.14,0-.2-.2-.12A.15.15,0,0,1,65.43,83.89Z"/><path class="cls-3" d="M66.87,78.71v-.13c0-.07-.05-.15-.12,0S66.74,78.71,66.87,78.71Z"/><path class="cls-3" d="M71.08,90.23a.29.29,0,0,1-.13.14c0,.15.1.14.21.13a.13.13,0,0,0,.07-.06l.08-.14C71.26,90.2,71.18,90.19,71.08,90.23Z"/><path class="cls-3" d="M67.43,79.09a.45.45,0,0,0,0-.16c-.07,0-.18-.12-.2.06v.21C67.34,79.26,67.42,79.22,67.43,79.09Z"/><path class="cls-3" d="M67.44,78.71h.06l0-.13c-.06,0,0-.1-.08-.14h0c-.16-.07-.22,0-.29.14l-.06.15c0,.12,0,.13.13.07S67.39,78.8,67.44,78.71Z"/><path class="cls-3" d="M71.37,90.3a.2.2,0,0,0,.21.14c0-.12,0-.24,0-.33A.24.24,0,0,1,71.37,90.3Z"/><path class="cls-3" d="M72.79,65.4h0c.06,0,.15.11.19,0s-.06-.12-.13-.12S72.79,65.34,72.79,65.4Z"/><path class="cls-3" d="M73.17,57.4h0c-.06.06,0,.16-.07.21h0a2.44,2.44,0,0,1,0,.27.08.08,0,0,1,0,.07.41.41,0,0,0,0,.34l0,0a.11.11,0,0,0-.09,0c-.07.15-.15.29,0,.45a2.75,2.75,0,0,0-.11.41c0,.21,0,.43-.09.63a2.17,2.17,0,0,0-.08.76h.12a.13.13,0,0,0,.06-.07.16.16,0,0,0,0-.09A2.21,2.21,0,0,1,73,60a6.34,6.34,0,0,0,.17-1.37c0-.11,0-.22,0-.32a.1.1,0,0,0,0-.05h.06c0-.16.11-.3.09-.47s0-.15.06-.21,0-.13,0-.2,0-.12-.08-.15h0S73.2,57.35,73.17,57.4Z"/><path class="cls-3" d="M71.3,56.8l0,0-.06,0,0,.05S71.27,56.82,71.3,56.8Z"/><path class="cls-3" d="M32.13,67.77l.11,0,.08,0c.1,0,.1-.14.14-.22a4.85,4.85,0,0,1,.5-.62l.07-.07h0a.14.14,0,0,0-.13-.06h0l-.08,0-.15.08c-.07,0-.16.06-.2.15s-.21.23-.29.37l-.1.13,0,0-.06.06-.06,0a.22.22,0,0,0-.09.07.12.12,0,0,0,0,.08.12.12,0,0,0,.08.09h.08l.12,0Z"/><path class="cls-3" d="M34,67.54a.13.13,0,0,0-.13-.07.19.19,0,0,1-.16.06c-.19,0-.25.13-.32.24s0,.1.11.11a.58.58,0,0,1,.42-.14C34,67.69,34.08,67.63,34,67.54Z"/><path class="cls-3" d="M21,96.38v-.07c0-.1,0-.19,0-.28l0,0,0,0h.06a0,0,0,0,0,0-.07.61.61,0,0,1-.08-.27h-.13v.55h-.07c0,.25,0,.28.21.27Z"/><path class="cls-3" d="M21,99.29a1.68,1.68,0,0,1,.63-.17l.06-.06c0-.15.11,0,.14-.11l.06-.06c0-.18-.09-.18-.22-.1a.42.42,0,0,0-.24.12A.32.32,0,0,1,21,99v0A.18.18,0,0,0,21,98.8h0c.28-.06.12-.28.16-.42a6.77,6.77,0,0,1,0-.9.65.65,0,0,0,0-.24v0c0-.12-.15-.21-.07-.34s0,0,0-.06a.18.18,0,0,1-.07-.15c-.07,0-.11,0-.09.11s.06.26-.05.38a1.73,1.73,0,0,1-.11.9.23.23,0,0,0,0,.2.66.66,0,0,1,0,.34v.21c-.06.11.06.23,0,.34a.29.29,0,0,0-.05.13.33.33,0,0,0,0,.14.17.17,0,0,0,.1.1.16.16,0,0,0,.08-.06Zm-.1-.67Z"/><path class="cls-3" d="M22.52,90h0a.19.19,0,0,0,.07-.08v-.12a.15.15,0,0,0-.22,0c-.05.08.05.11.09.16Z"/><path class="cls-3" d="M23.09,91.33a.16.16,0,0,1,.14-.06V91.2l0,0a.14.14,0,0,0-.17-.06l0,0C23,91.2,23,91.28,23.09,91.33Z"/><path class="cls-3" d="M74.24,55.61v.13C74.31,55.7,74.32,55.66,74.24,55.61Z"/><polygon class="cls-3" points="72.09 56.15 72.09 56.15 72.08 56.15 72.09 56.15"/><path class="cls-3" d="M71.65,56a.2.2,0,0,0,0,.25c.06.06.15,0,.22,0a.27.27,0,0,0,.18-.11,1.11,1.11,0,0,1-.31-.46A2.84,2.84,0,0,1,71.65,56Z"/><path class="cls-3" d="M25,73.1c-.1,0-.12.08-.18.09h0s-.07.13,0,.12A.18.18,0,0,0,25,73.1Z"/><path class="cls-3" d="M29.1,69h0c.07.12.14,0,.22,0v-.06a0,0,0,0,0-.07,0h-.06S29.13,69,29.1,69Z"/><path class="cls-3" d="M26.31,72.57h0c-.06-.07-.13-.11-.18,0s.06.07.11.08h0A.23.23,0,0,0,26.31,72.57Z"/><path class="cls-3" d="M32,73.33s0,.1.06.13c.3-.13.49-.41.79-.55,0-.09.23-.18,0-.27h-.06A3.69,3.69,0,0,0,32,73.33Z"/><path class="cls-3" d="M33.25,72.28l-.07,0a.13.13,0,0,0-.06.07h0a.23.23,0,0,0-.07.07h0s0,0-.08.06l.09.08c.1,0,.21,0,.2-.14Z"/><polygon class="cls-3" points="32.96 72.5 32.96 72.5 32.96 72.5 32.96 72.5"/><path class="cls-3" d="M30.22,69.51l0,.07v0c.07.07.13,0,.17,0s0-.1.11-.12h0s.11,0,.14-.08h0a.18.18,0,0,0,.08-.07c.11-.09.13-.27.28-.33a.18.18,0,0,1,.14-.08l.08-.06h0c0-.08.06-.17.11-.24s0-.17-.16-.1-.19.28-.36.34a.59.59,0,0,0-.31.17.29.29,0,0,0,0,.09.72.72,0,0,1-.09.2l-.05.07-.05.1Z"/><path class="cls-3" d="M29.74,70c.05-.11.24-.19.08-.34h0a.6.6,0,0,1-.11.06l-.1.08h0c-.06.1-.1.19.07.21Z"/><path class="cls-3" d="M29.9,62.56l-.15,0-.07.06c-.05.07-.13.07-.2.08a.28.28,0,0,0,.41.05A1.48,1.48,0,0,1,29.9,62.56Z"/><path class="cls-3" d="M92.1,75.69c-.1,0-.21,0-.13.12C92.06,75.81,92.11,75.78,92.1,75.69Z"/><path class="cls-3" d="M87.6,65.61s0,0,0,.06l.55.08c.18,0,.14-.11.08-.21H88C87.89,65.56,87.73,65.47,87.6,65.61Z"/><path class="cls-3" d="M84.4,105.19c.06,0,0-.07,0-.11s0,0,0,0l-.08.06S84.36,105.2,84.4,105.19Z"/><path class="cls-3" d="M22.73,79.82l-.16,0c-.06,0-.12,0-.15,0s0,.1,0,.15.21,0,.28-.07A.13.13,0,0,0,22.73,79.82Z"/><path class="cls-3" d="M25.39,77.91c-.13,0-.23.08-.14.24.07,0,.17,0,.2,0s.28.09.43,0C25.81,78,25.57,78,25.39,77.91Z"/><path class="cls-3" d="M27.05,78c.06.1.14,0,.21,0a1,1,0,0,0,.35-.27c.24-.22.31-.55.56-.77,0-.1.08-.2,0-.35l-.35.44a.39.39,0,0,1-.11.17,2.85,2.85,0,0,0-.41.44h0l-.08.06a.24.24,0,0,1-.11.13C27.06,77.84,27,77.9,27.05,78Z"/><path class="cls-3" d="M77.45,98.66c-.09,0-.07.13-.07.2C77.57,98.85,77.5,98.75,77.45,98.66Z"/><path class="cls-3" d="M77.73,102.31a1,1,0,0,0-.5.13c0,.09.14.07.22.07S77.79,102.58,77.73,102.31Z"/><path class="cls-3" d="M78.39,102.11a.59.59,0,0,1,0,.13c0,.24,0,.25.25.13,0,0,0,0,.08-.06l0,0,0,0h.07a.56.56,0,0,1,.22-.21h.06c0-.07.07-.13-.06-.14S78.61,102.1,78.39,102.11Z"/><path class="cls-3" d="M78.16,102.16l-.13,0-.07,0a.06.06,0,0,0,0,.06h.23s.09,0,.08-.08S78.21,102.18,78.16,102.16Z"/><path class="cls-3" d="M77.09,101.66a.08.08,0,0,0,.1-.07c0-.07,0-.09-.1-.11s-.09,0-.11.07S77,101.65,77.09,101.66Z"/><path class="cls-3" d="M81.08,105.36c-.16,0-.25,0-.25.18a.28.28,0,0,0,.18,0l.08-.06Z"/><path class="cls-3" d="M65.58,85.89c0-.11,0-.23,0-.34s-.12-.08-.18,0a.42.42,0,0,0,.11.46h0a.09.09,0,0,0,0-.11l0,0,0,0A.06.06,0,0,0,65.58,85.89Zm-.08,0h0Z"/><path class="cls-3" d="M76.74,69.43s0,.07,0,.07.1,0,.1-.11,0-.08,0-.08S76.75,69.36,76.74,69.43Z"/><path class="cls-3" d="M66.15,92a1,1,0,0,0,0-.1.22.22,0,0,0,0-.14,1.25,1.25,0,0,0-.24-.16.15.15,0,0,0-.09,0,.29.29,0,0,0-.07.18,1.93,1.93,0,0,0,0,.34,1,1,0,0,1-.06.55l0,.13a.14.14,0,0,0,0,.09.18.18,0,0,0,0,.07l0,0c.06,0,.12,0,.09.1a1.15,1.15,0,0,0,0,.37c0,.13.11.13.21.08l.07-.08h0c0-.07,0-.09-.06-.14s0,0,0-.06A2.61,2.61,0,0,1,66.15,92Z"/><path class="cls-3" d="M69.05,96.17h.1V96.1l-.06,0s-.1,0-.12,0S69,96.16,69.05,96.17Z"/><path class="cls-3" d="M68.89,96.46a.06.06,0,0,0,0,0h0c0-.07,0-.15-.06-.19s0,.13,0,.19h0S68.88,96.45,68.89,96.46Z"/><path class="cls-3" d="M68.87,95.4c.12,0,.21,0,.22-.13s-.15,0-.22,0Z"/><path class="cls-3" d="M66,87.68c.09,0,0,.25.19.14a.66.66,0,0,0,0-.14C66.15,87.67,66.09,87.56,66,87.68Z"/><path class="cls-3" d="M61,79.34c0,.08,0,.11.12.12s.09-.16.08-.26A.17.17,0,0,0,61,79.34Z"/><path class="cls-3" d="M46.48,72.29a.33.33,0,0,0,.3.06l.08,0a.12.12,0,0,0,0-.14h0a3.9,3.9,0,0,1-.49-.28h0a.13.13,0,0,1-.07-.06.46.46,0,0,1-.07-.07l-.07-.06h0c-.14,0-.13.14-.05.23s.15.09.18.18h0l.09.06.07.07.06.07Z"/><path class="cls-3" d="M54.36,71.27a0,0,0,0,0,0,0h.08C54.44,71.25,54.39,71.27,54.36,71.27Z"/><path class="cls-3" d="M31.45,68.43s0,0,0-.07,0-.1.08-.13h0a.24.24,0,0,0-.23-.15l-.21.07a.27.27,0,0,1-.07.08h0a.16.16,0,0,0,.15.06s0,0,0,0,0,0,.05,0,.06,0,.07,0S31.37,68.42,31.45,68.43Z"/><path class="cls-3" d="M90,75.26c-.06,0-.11,0-.15,0s0,.08,0,.12h0c.05,0,.1.07.15,0v-.14Z"/><path class="cls-3" d="M81.89,75.82h0c0-.07.15,0,.21-.07v-.08h-.35A.22.22,0,0,0,81.89,75.82Z"/><path class="cls-3" d="M22.62,87.9c0-.06-.09-.14-.18-.12s-.05.11-.06.18v.17l.12-.08C22.56,88,22.68,88,22.62,87.9Z"/><path class="cls-3" d="M79.24,63.26s0,.07,0,.1-.06.14,0,.17a.14.14,0,0,0,.17-.08.23.23,0,0,0,0-.12A.23.23,0,0,0,79.24,63.26Z"/><polygon class="cls-3" points="27.96 77.47 27.96 77.47 27.96 77.47 27.96 77.47"/><path class="cls-3" d="M27.94,77.5l0,0S27.92,77.5,27.94,77.5Z"/><path class="cls-3" d="M32,62.08c0-.09-.05-.13-.14-.13l-.07.07C31.8,62.1,31.88,62.09,32,62.08Z"/><path class="cls-3" d="M88.8,71h0s0,0,0,0h0Z"/><path class="cls-3" d="M89.4,71l0,0s0,0,0,0Z"/><path class="cls-3" d="M89.87,74.56s-.07,0-.11,0v.13S89.88,74.64,89.87,74.56Z"/><path class="cls-3" d="M23.67,78.57c-.06,0-.07-.11-.12-.08s0,.1,0,.14.07.05.1.08h.05S23.68,78.62,23.67,78.57Z"/><path class="cls-3" d="M72.73,102.66s-.11.06-.08.11.1,0,.15,0v-.13Z"/><path class="cls-3" d="M76.74,103.06a.31.31,0,0,0,.29,0c0-.06.07-.14-.06-.15A.2.2,0,0,0,76.74,103.06Z"/><path class="cls-3" d="M77.87,102.53c-.15,0-.27.08-.42,0-.14.13,0,.14.08.21s.22-.15.34-.21Z"/><path class="cls-3" d="M73.87,103.06s-.1,0-.14.07h-.14l-.36.21c-.13,0-.25.05-.21.2s.17.12.29.06.2-.12.31-.16.37,0,.4-.24-.06-.14-.15-.15Z"/><path class="cls-3" d="M76,104s0,0,0-.08l-.28.08c0,.16.13.08.19.1S76,104.05,76,104Z"/><path class="cls-3" d="M62.43,87.48s0,.11.09.1l0,0C62.55,87.48,62.49,87.48,62.43,87.48Z"/><path class="cls-3" d="M78.3,75.06s0,0,0,.06c.2,0,.2,0,.14-.14S78.33,75,78.3,75.06Z"/><path class="cls-3" d="M65.75,90.59a.08.08,0,0,0,0,.08s.06,0,.06-.06,0-.07,0-.07S65.74,90.56,65.75,90.59Z"/><path class="cls-3" d="M59.84,82.8h-.11c-.09.08-.1.22-.23.26-.18.26-.16.32.13.34,0-.05,0-.14,0-.15C59.92,83.16,59.86,83,59.84,82.8Z"/><path class="cls-3" d="M60.92,81.9l-.07-.08c-.07,0-.18,0-.17.09s0,.18.16.17S60.92,82,60.92,81.9Z"/><path class="cls-3" d="M56.05,78a.78.78,0,0,0,0-.14c-.1,0-.16,0-.14.14Z"/><path class="cls-3" d="M48.49,73.19c-.05.1,0,.16.09.14s.49-.19.73,0l0-.09c-.14-.06,0-.2-.08-.27a.57.57,0,0,1-.35-.14c-.05.11-.09.23-.26.2S48.49,73.09,48.49,73.19Z"/><path class="cls-3" d="M87.39,74h.07c.09-.11,0-.15-.07-.2h0C87.22,73.9,87.27,74,87.39,74Z"/><path class="cls-3" d="M82.38,75.2h-.06c-.07.08,0,.19-.06.27l.06.07h.13l.07-.07C82.69,75.27,82.46,75.28,82.38,75.2Z"/><path class="cls-3" d="M83.19,73.52s.1,0,.07-.09-.09,0-.15,0v0Z"/><path class="cls-3" d="M24.59,91s0,0,0,0l0,0a.07.07,0,0,0,.06,0A0,0,0,0,0,24.59,91Z"/><path class="cls-3" d="M37.55,88a.48.48,0,0,0-.16-.35,3.75,3.75,0,0,1-.35-.89c-.1.13,0,.26-.14.34s.18.32.23.51a1.75,1.75,0,0,0,.27.59C37.55,88.17,37.53,88.06,37.55,88Z"/><path class="cls-3" d="M38.24,90.25c-.06-.06-.05-.14-.05-.22a1.34,1.34,0,0,0,0-.28c0-.25-.17-.44-.2-.67l-.08,0h0v-.11h-.07a.09.09,0,0,0-.15,0,.22.22,0,0,0,0,.31.69.69,0,0,1,.16.49.51.51,0,0,0,.07.26A.12.12,0,0,1,38,90l.08.2a.12.12,0,0,1,.08.13A.18.18,0,0,0,38.24,90.25Z"/><path class="cls-3" d="M36.75,89.27h-.11s-.12,0-.14.07,0,.09.09.13.26,0,.38-.07C36.93,89.31,36.8,89.36,36.75,89.27Z"/><path class="cls-3" d="M35.53,76.73H35.4c0,.11,0,.25.14.27A.27.27,0,0,0,35.53,76.73Z"/><path class="cls-3" d="M27,83.47c.09,0,.14,0,.14-.13a.36.36,0,0,0-.29-.14c0,.13.07.2.15.27Z"/><path class="cls-3" d="M70.05,101.75s0,.07,0,.11.08,0,.13,0v-.07S70.07,101.74,70.05,101.75Z"/><path class="cls-3" d="M72,102.88c.23.06.23.06.24-.09C72.15,102.81,72,102.77,72,102.88Z"/><path class="cls-3" d="M73.81,104.94l-.07.07c-.06.1,0,.16.09.12a3,3,0,0,0,.4-.2s.11,0,.15-.07h0c0-.08-.14-.06-.22-.07a.27.27,0,0,1-.08.07Z"/><path class="cls-3" d="M61,95.45a.15.15,0,0,0,0,.23l.08-.13.06-.07h0C61.16,95.41,61.1,95.39,61,95.45Z"/><path class="cls-3" d="M65.72,92.17c0-.09-.1-.14-.2-.07a.61.61,0,0,1-.07.14C65.58,92.34,65.68,92.34,65.72,92.17Z"/><path class="cls-3" d="M79.31,67.74a.12.12,0,0,0,.14.14A.12.12,0,0,0,79.31,67.74Z"/><path class="cls-3" d="M47.37,74.71a.31.31,0,0,0,0,.08.21.21,0,0,0,.06.1l0,0,.14,0c.11,0,.26,0,.28-.15h0c-.13-.09-.38-.09-.34-.35-.07,0-.12,0-.17,0S47.38,74.6,47.37,74.71Z"/><path class="cls-3" d="M48.35,75s-.05,0-.05,0,.07.07.12.09h0S48.43,75,48.35,75Z"/><path class="cls-3" d="M46.37,73.74h.11l-.06-.08s-.09-.06-.11,0S46.32,73.74,46.37,73.74Z"/><path class="cls-3" d="M47.42,73.33c0,.19.17.16.28.2.17-.14,0-.18-.08-.27l-.14-.13a.13.13,0,0,0-.07.13S47.42,73.31,47.42,73.33Z"/><path class="cls-3" d="M22,100.85c-.08,0-.16,0-.24.05.11,0,.21.07.29,0Z"/><path class="cls-3" d="M23.66,101.89c.06-.07,0-.16.08-.23v0a2.53,2.53,0,0,0,0-.28h0c0-.09,0-.19-.12-.19v.17h0a.07.07,0,0,0,0,.09h0a0,0,0,0,1,0,.07v.13s0,.11-.07.15h0c0,.08,0,.23.14.14Z"/><path class="cls-3" d="M86.82,73.9h-.06l0,0a.06.06,0,0,0,.09,0S86.85,73.91,86.82,73.9Z"/><path class="cls-3" d="M26.59,96.86a.71.71,0,0,0,0-.35c0-.06,0-.06-.09-.06-.12.16-.06.39-.22.55h0c0,.07-.06.15,0,.21s.15,0,.2-.07a.4.4,0,0,0,.07-.24Z"/><path class="cls-3" d="M84.74,70.3a1.07,1.07,0,0,1-.56-.28h0l-.09,0c0-.13-.26,0-.3-.16a.33.33,0,0,1-.05-.22c0-.06,0-.15-.14-.22.05.22-.06.33-.29.37.19.23.51.19.65.4a4.92,4.92,0,0,0,1,.56c.07,0,.15,0,.2-.06l-.06-.07c0-.07-.15-.08-.2-.15A.29.29,0,0,1,84.74,70.3Z"/><path class="cls-3" d="M28.67,89.19l.07-.06c0-.13.15-.2.14-.34s0-.16-.14-.08-.41.21-.28.49h0A.15.15,0,0,0,28.67,89.19Z"/><path class="cls-3" d="M28.1,91.27l-.14.06c-.06,0-.12,0-.14,0s0,.1.07.12h.21A.17.17,0,0,0,28.1,91.27Z"/><path class="cls-3" d="M37.75,88.57s0,0,0,0c-.19-.11-.2-.1-.22.12a.18.18,0,0,1,.08.13C37.72,88.73,37.67,88.61,37.75,88.57Z"/><path class="cls-3" d="M37.39,82.94c-.08,0-.11-.17-.22-.09s0,.16,0,.24v0h.14A.23.23,0,0,0,37.39,82.94Z"/><path class="cls-3" d="M36.5,78.62l0,.06,0,0,0,0S36.52,78.64,36.5,78.62Z"/><path class="cls-3" d="M71.08,103.68l-.14.08c-.3.1-.3.1-.43-.18,0,0,0,0-.13,0h0a.26.26,0,0,1,0,.28h0s0,0,0,.07h0l0,0c0,.14,0,.2.15.14h0s0,0,0,0c.25.07.38-.12.54-.23l.12-.08a.21.21,0,0,0,.08-.06s.05-.1,0-.14A.1.1,0,0,0,71.08,103.68Z"/><path class="cls-3" d="M71,104.93a.17.17,0,0,0,.28,0h.21c0-.05.22-.1,0-.15h-.28C71.08,104.73,71,104.8,71,104.93Z"/><path class="cls-3" d="M71.4,103.89h.26l.08-.06a.41.41,0,0,0,.07-.11s0,0-.08,0A.49.49,0,0,0,71.4,103.89Z"/><path class="cls-3" d="M71.58,103.49h-.21c0,.06-.07.14,0,.18s.13,0,.18-.08S71.57,103.52,71.58,103.49Z"/><path class="cls-3" d="M70.65,105.13c-.1-.11-.23,0-.35-.06s.07.15.19.12Z"/><path class="cls-3" d="M47.48,88.68c0,.07,0,.14-.06.18l0,0a.48.48,0,0,0-.06.26c0,.13,0,.29.15.36a.17.17,0,0,0,.1,0c0-.12-.13-.23,0-.35a1,1,0,0,1,.07-.41s0-.09-.06-.11S47.49,88.64,47.48,88.68Z"/><path class="cls-3" d="M56.49,93.75c0-.07.12-.14,0-.21h-.13l-.18,0-.08,0a.74.74,0,0,0-.21,0H55.3l.2.13c.13,0,.23,0,.21.2a.13.13,0,0,0,.08.14h.13v-.1l0,0,0,0a.13.13,0,0,1,.09,0c.07,0,0,.07,0,.1s-.09.17,0,.25h.2c.14,0,.33,0,.4-.1S56.48,93.9,56.49,93.75Z"/><path class="cls-3" d="M56.67,91.3a.59.59,0,0,0,0,.08c0,.05.07.14.14.08s.06-.17,0-.26v-.07h0l-.06-.07c0-.07-.06-.13-.08-.19s-.07.17-.07.26S56.65,91.24,56.67,91.3Z"/><path class="cls-3" d="M51.66,93.15c-.13,0,0,.17,0,.25h0l.08.07h0c.08,0,.1,0,.13-.07v-.05C51.74,93.31,51.81,93.1,51.66,93.15Z"/><path class="cls-3" d="M58.71,91.26s.07,0,.11,0l.09-.07,0,0c0-.08,0-.16-.08-.21a1.48,1.48,0,0,0-.29.27A.13.13,0,0,0,58.71,91.26Z"/><path class="cls-3" d="M61,96.09c0,.09.06.11.12.15h0l.07-.07h0c0-.07,0-.13-.11-.13A.08.08,0,0,0,61,96.09Z"/><path class="cls-3" d="M60.34,96.71c0,.19.11.05.16,0h0a.17.17,0,0,0-.08-.14h0l-.07.07S60.35,96.69,60.34,96.71Z"/><path class="cls-3" d="M61.3,95.76c0,.15.07.08.13.06S61.36,95.75,61.3,95.76Z"/><path class="cls-3" d="M60.22,96.87s0,.09-.08.12h0a.19.19,0,0,1-.08.07H60a.12.12,0,0,0-.08.1s0,0,.08,0h.28c0-.08,0-.16.08-.21v-.06c0-.12,0-.12-.14-.07Z"/><path class="cls-3" d="M48.91,80s0,0,0,0,0,0,0,0a.14.14,0,0,0-.14.14.09.09,0,0,0,0,.07.1.1,0,0,0,.05.06l.14,0A.29.29,0,0,0,48.91,80Z"/><path class="cls-3" d="M27.46,86.23a.09.09,0,0,0-.15,0,.14.14,0,0,0,0,.06c.05.06.11,0,.16,0Z"/><path class="cls-3" d="M23.8,100.78c0-.09-.05-.12-.13-.12v.19C23.73,100.85,23.79,100.85,23.8,100.78Z"/><path class="cls-3" d="M26.15,101.13s0-.09,0-.13a.1.1,0,0,0-.14,0C26,101.08,26.05,101.13,26.15,101.13Z"/><polygon class="cls-3" points="26.03 101 26.03 101 26.03 101 26.03 101"/><path class="cls-3" d="M46.69,95.76h0a5.2,5.2,0,0,0,.21.55v.06c.22.31.22.31.23.48s.13.33.36.33a.24.24,0,0,0,.19-.17.23.23,0,0,0-.1-.23.1.1,0,0,0-.09,0h0a.18.18,0,0,0,.06-.17.32.32,0,0,0,0-.09.27.27,0,0,0-.29-.21h0v-.09s0,0,0,0-.05-.14-.1-.21-.11-.37-.37-.37C46.66,95.63,46.64,95.68,46.69,95.76Z"/><path class="cls-3" d="M40.05,95.09c0,.31,0,.35,0,.36a.08.08,0,0,0,.07,0A.26.26,0,0,0,40.05,95.09Z"/><path class="cls-3" d="M25.84,98.68c0,.1-.1.2,0,.31l0,0c.06,0,.12,0,.17,0h0s.05,0,.08-.06.28-.06.06-.2c-.06,0-.16.08-.2,0S25.87,98.62,25.84,98.68Z"/><path class="cls-3" d="M40.55,105.68c.06,0,.11,0,.13-.05A.11.11,0,0,0,40.55,105.68Z"/><path class="cls-3" d="M44.47,91.9c.07,0,.24,0,.15-.14s-.3,0-.42-.09a.08.08,0,0,1-.07,0,.1.1,0,0,0-.09,0l-.13,0v0c-.08,0-.16,0-.23,0a.45.45,0,0,0,.23,0,.15.15,0,0,1,.14.07l.08.07h.06a.31.31,0,0,0,.19,0Z"/><path class="cls-3" d="M45.91,93.69l0,0a.35.35,0,0,1-.12-.19.24.24,0,0,0,0-.08.31.31,0,0,0-.26-.24h0a.17.17,0,0,0-.15.06l.23.41c.06.06,0,.15.07.21h0l.07.06C45.87,93.91,45.92,93.83,45.91,93.69Z"/><path class="cls-3" d="M42.2,91.88h0l.07-.07v0l0-.08a.57.57,0,0,1,0-.13c.08,0,.16,0,.21-.07s-.13,0-.14-.12l-.08,0,0,0c-.07,0-.15-.12-.24,0h0l.06.25.06,0A.41.41,0,0,0,42.2,91.88Z"/><path class="cls-3" d="M41,83.25h0c0-.07,0-.14-.07-.19a.22.22,0,0,1-.15-.06c-.11.09-.08.18,0,.27v.06h.07v.06a.43.43,0,0,1,.15.27l.07.08h0a.49.49,0,0,0,.13.28.41.41,0,0,0,.15.14.59.59,0,0,1,.08.32c.06.07,0,.16.07.22h0c0,.05,0,.11.06.16s0,.1.05.16a.08.08,0,0,0,.07,0A.21.21,0,0,1,42,85h0a.22.22,0,0,0,0,.09,1.23,1.23,0,0,0,.17.32.41.41,0,0,1,.07.11l0,.07a.36.36,0,0,0,.18.24c.15,0,.21.11.28.21s.16.09.2,0a1,1,0,0,0-.21-.43.35.35,0,0,0,0-.08c-.14-.14-.18-.33-.3-.48h0l-.06-.07c-.07,0-.13-.1-.22-.09s.08-.12,0-.15c-.22-.21-.35-.49-.62-.64h0a.6.6,0,0,0-.07-.35A1,1,0,0,0,41,83.25Z"/><path class="cls-3" d="M47.37,90.55c.08.09.13,0,.18,0v-.14a.1.1,0,0,1,0-.14V90.1c-.11-.07,0-.22-.14-.28C47.19,90.05,47.34,90.3,47.37,90.55Z"/><path class="cls-3" d="M53.42,95.82l.06-.07c0-.23-.16-.11-.27-.06a.13.13,0,0,1,0,.06C53.25,95.84,53.34,95.83,53.42,95.82Z"/><path class="cls-3" d="M57.55,91.93c.07,0,.08-.06.09-.11s-.09-.14-.14-.2-.19,0-.19.11S57.45,91.9,57.55,91.93Z"/><path class="cls-3" d="M57.07,93.48c0,.07.08.17.17,0l0-.1s0-.11-.06-.15h0C57.05,93.32,57.07,93.41,57.07,93.48Z"/><path class="cls-3" d="M57.92,92.1h0a.24.24,0,0,0-.08-.06c-.07,0-.12,0-.12.09a.11.11,0,0,0,0,.06c.06,0,.09,0,.12-.06Z"/><path class="cls-3" d="M56.62,92.46s0,.05.08,0,.07,0,.07-.1,0-.06-.07,0A.14.14,0,0,0,56.62,92.46Z"/><path class="cls-3" d="M56.85,93.06h0c0,.06.11.1.18,0A.07.07,0,0,0,57,93C56.93,92.93,56.91,93.05,56.85,93.06Z"/><path class="cls-3" d="M55.93,94.52v.06h0s0,.1.07.13.07.06.13.06,0-.07,0-.12,0-.13-.08-.2,0,0,0,0,0,0,0,0Z"/><path class="cls-3" d="M49.71,105.4a.2.2,0,0,0,0-.13l0-.09c-.06-.18,0-.39-.2-.55s-.11-.09-.18,0v.07a.12.12,0,0,0,0,.15,8.54,8.54,0,0,0,.29,1C49.76,105.7,49.67,105.54,49.71,105.4Z"/><path class="cls-3" d="M35.38,102.7c0-.1-.07-.13-.15-.15s-.1,0-.09.09.09.11.17.12A.06.06,0,0,0,35.38,102.7Z"/><path class="cls-3" d="M45.2,91.47h-.14a.13.13,0,0,0,0,.06l.07.07.22.14a.12.12,0,0,0,0-.14A.29.29,0,0,0,45.2,91.47Z"/><polygon class="cls-3" points="45.34 91.75 45.34 91.75 45.34 91.75 45.34 91.75"/><path class="cls-3" d="M44.26,89.62h0c.15,0,.21,0,.15-.15h0C44.32,89.48,44.26,89.52,44.26,89.62Z"/><path class="cls-3" d="M43.68,88.45c0,.14.15.18.23.27s.13.22.27.29c0-.11-.07-.2-.06-.3a.08.08,0,0,0,0-.13h0c-.17,0-.16-.25-.29-.34h0l-.08-.06h0a.24.24,0,0,0-.06-.08s0-.06-.08-.06,0,.28,0,.41Z"/><path class="cls-3" d="M42.91,88.72H43l0,0c0-.13-.16-.16-.14-.28l-.08-.07C42.66,88.53,42.88,88.61,42.91,88.72Z"/><path class="cls-3" d="M45.26,91.9l-.21-.11a.13.13,0,0,0-.15,0c0,.06.07.07.1.12S45.23,92.13,45.26,91.9Z"/><path class="cls-3" d="M47,94.51l-.08-.08a.14.14,0,0,0-.08.15A.17.17,0,0,0,47,94.51Z"/><path class="cls-3" d="M47.48,92.58a2.54,2.54,0,0,0,0,.55l.14-.06a1.48,1.48,0,0,0,0-.21C47.51,92.8,47.6,92.64,47.48,92.58Z"/><path class="cls-3" d="M47.63,92.24h-.07c-.11.11,0,.13.06.14S47.69,92.28,47.63,92.24Z"/><path class="cls-3" d="M43,86.68a.11.11,0,0,0,.06-.07.14.14,0,0,0-.1-.1c-.15-.08-.21-.25-.35-.34a.61.61,0,0,0,.13.41l.08.07h0A.17.17,0,0,0,43,86.68Z"/><path class="cls-3" d="M40.32,82.52l.22.34c.07,0,.08-.09.09-.15s-.06-.28-.22-.35S40.29,82.43,40.32,82.52Z"/><path class="cls-3" d="M69.66,104.36l-.08,0a.12.12,0,0,0-.13,0l-.44.21-.07.06c-.11.08-.25,0-.36.07h-.21a.11.11,0,0,0-.14.07h0c-.1,0-.17.14-.29.13l-.07.07H67.8a.46.46,0,0,0-.07.07.15.15,0,0,1-.15.06l-.36.07c-.09,0-.21,0-.28.08h0c-.13.18-.41.08-.55.27a.54.54,0,0,0,.56-.07.44.44,0,0,1,.27-.07h0c.07-.06.15,0,.22,0l.09,0c.1,0,.2-.11.32-.07s.18-.06.23-.16.32-.08.44-.19a.2.2,0,0,0,.15-.06.52.52,0,0,0,.34-.09.11.11,0,0,1,.15,0h.06a.55.55,0,0,1,.38,0,1.17,1.17,0,0,0,.55-.19h-.07c-.1,0-.1-.13-.13-.21h0s0,0,0-.05-.13-.09-.19,0A.3.3,0,0,1,69.66,104.36Z"/><path class="cls-3" d="M56.6,105.75s0,.07.08.08h.1v-.06l-.06,0S56.62,105.69,56.6,105.75Z"/><path class="cls-3" d="M41.68,84.1c.08.09.12.21.27.25,0-.17-.07-.27-.12-.39h-.06C41.7,84,41.69,84,41.68,84.1Z"/><path class="cls-3" d="M50.14,95.26h0s0,0,0,0,0,0,0,0h.07c.12,0,.25.06.35-.06l-.14-.13C50.16,95,50.16,95,50.14,95.26Z"/><path class="cls-3" d="M52.08,95.22s.08,0,.12,0a.34.34,0,0,0,0-.1c0-.06,0-.14-.09-.12S52.05,95.16,52.08,95.22Z"/><path class="cls-3" d="M57.21,93.89l.14.07s0,0,0-.06a.56.56,0,0,0-.09-.21C57.09,93.71,57.23,93.82,57.21,93.89Z"/><path class="cls-3" d="M59.42,97.13c.14,0,.28.05.46-.07a.35.35,0,0,1-.31-.14H59.5C59.49,97,59.39,97,59.42,97.13Z"/><polygon class="cls-3" points="58.89 94.77 58.9 94.75 58.88 94.75 58.89 94.77"/><path class="cls-3" d="M67.37,101.4c-.06,0-.09.07-.07.13s.09,0,.14,0S67.48,101.4,67.37,101.4Z"/><path class="cls-3" d="M47.69,99.56h-.11s-.13,0-.14.07.06,0,.1.07.06,0,.09,0S47.7,99.63,47.69,99.56Z"/><path class="cls-3" d="M48.56,105.72c-.12,0-.14.08-.14.18h-.07V106c.13.12,0,.25,0,.37s.12-.08.19-.09a.5.5,0,0,0,.07-.27l0-.08C48.62,105.82,48.65,105.73,48.56,105.72Z"/><path class="cls-3" d="M48,96.66c-.09-.07,0-.17-.08-.25s-.1-.1-.16,0,0,.08,0,.12a1.65,1.65,0,0,1,.14.48l.15-.13C48,96.79,48,96.72,48,96.66Z"/><path class="cls-3" d="M48.44,100.71h0a.46.46,0,0,1,.07.26,2,2,0,0,0,.13.58h0c.13.45.15.91.24,1.37.12.09,0,.26.13.35h0c0,.27.18.48.16.74l.06,0v.06a.14.14,0,0,0,.07-.13l0-.06s0,0,0-.08v-.17a.19.19,0,0,0,0-.08,1.15,1.15,0,0,1-.11-.39.22.22,0,0,0,0-.08l0,0v0a.34.34,0,0,0,0-.2,1.38,1.38,0,0,0-.08-.29,4,4,0,0,0-.12-.62.69.69,0,0,1-.09-.34v-.09a.16.16,0,0,0,0-.12.09.09,0,0,0-.07,0h0a.18.18,0,0,0,0-.14,1.63,1.63,0,0,1,0-.44c0-.11,0-.23-.16-.25l0,0c-.07,0,0-.14-.12-.15A.5.5,0,0,0,48.44,100.71Z"/><path class="cls-3" d="M47.61,95.62s.06,0,.09.07a.18.18,0,0,0,.15-.07c0-.06.1-.11.09-.19a.19.19,0,0,0,0-.08,2,2,0,0,0-.12-.19l0,0c-.15.11,0,.31-.14.42h0A.06.06,0,0,0,47.61,95.62Z"/><path class="cls-3" d="M47.34,95.82a.17.17,0,0,1,0,.07s0,.1.07.1.08,0,.08-.11v-.13h-.07A.08.08,0,0,0,47.34,95.82Z"/><path class="cls-3" d="M47.63,93.54a.13.13,0,0,0,0-.06c-.12.15,0,.32,0,.48A1.21,1.21,0,0,0,47.63,93.54Z"/><path class="cls-3" d="M48.05,92.3c-.07,0,0,.09,0,.14s.15,0,.15-.06S48.12,92.31,48.05,92.3Z"/><path class="cls-3" d="M51,98.31h0s-.18,0-.13.11.18.06.27,0h0A.12.12,0,0,0,51,98.31Z"/><path class="cls-3" d="M52.23,97.83s0-.11,0-.15v-.06c-.13,0-.19.09-.28.13h0c0,.08,0,.13.05.17a.1.1,0,0,0,.1,0h0A.53.53,0,0,0,52.23,97.83Z"/><path class="cls-3" d="M57.29,94.16l.1.17.1-.17C57.42,94.07,57.36,94.07,57.29,94.16Z"/><path class="cls-3" d="M57.85,95.62c-.11-.1-.05-.23-.07-.35s0,0,0-.06h0a.49.49,0,0,0,0-.12s-.07-.1-.1-.16h0a.6.6,0,0,1-.08.08.18.18,0,0,0,0,.2s0,0,0,.06,0,.11.07.15v.13a4.85,4.85,0,0,1,.2.9v0a.35.35,0,0,0,0,.2l0,0c.08,0,.16,0,.12-.12a.27.27,0,0,1,.09-.36.22.22,0,0,0,.07-.19C57.89,96,57.89,96,57.85,95.62Z"/><path class="cls-3" d="M48.41,94.86V94.8a.13.13,0,0,0,0-.16c-.05-.06-.1-.16-.15,0s0,.11-.07.15v.07s0,0,0,.07V95C48.37,95.09,48.35,94.92,48.41,94.86Z"/><path class="cls-3" d="M58.15,99.42a.19.19,0,0,0-.24,0c0,.1.06.17.09.25S58.14,99.51,58.15,99.42Z"/><path class="cls-3" d="M56.63,100.74a.08.08,0,0,0,.08.09c.06,0,.07,0,.07-.09s0-.09-.08-.1S56.63,100.69,56.63,100.74Z"/><path class="cls-3" d="M52.23,98.22a.15.15,0,0,0-.13,0s-.05.06-.05.08,0,0,.07,0,.16,0,.15.14-.08.13,0,.21a.86.86,0,0,0,.31-.38.94.94,0,0,0,0-.16c0-.09,0-.11-.09-.11S52.41,98.28,52.23,98.22Z"/><path class="cls-3" d="M52.06,99.68a.13.13,0,0,1,0-.06.13.13,0,0,1,.07-.06h0a1.59,1.59,0,0,0,.13-.13c-.06-.06-.13,0-.21,0s-.21.37-.38.51l.11.06.2-.15C52,99.79,52,99.72,52.06,99.68Z"/><path class="cls-3" d="M51.2,104.52c-.09-.11-.19,0-.28,0C51.07,104.7,51.11,104.7,51.2,104.52Z"/><path class="cls-3" d="M53.7,104.07v0c0-.05-.09,0-.14,0h0c0,.11-.15.23,0,.34v-.05l.06-.08a.13.13,0,0,1,.07-.14Z"/><path class="cls-3" d="M48.22,95.36h0s0,0,0,0,0,0,0,0Z"/></g></g><g id="screen_Cracked" data-name="screen Cracked"><path class="cls-4" d="M54,83.43a1.32,1.32,0,0,0-.63-.37,1.29,1.29,0,0,0-.43-.07,1.25,1.25,0,0,0-.78.32,1.52,1.52,0,0,0-.42.65,1.4,1.4,0,0,0-.11.53,1.61,1.61,0,0,0,.07.51,1.56,1.56,0,0,0,.4.72,1.25,1.25,0,0,0,.61.32,1.38,1.38,0,0,0,.41,0,1.38,1.38,0,0,0,.87-.43,1.24,1.24,0,0,0,.36-.78c0-.21-.07-.32-.14-.32s-.11.13-.18.29a2.2,2.2,0,0,1-.28.55.89.89,0,0,1-1,.42,1,1,0,0,1-.58-.34,1.51,1.51,0,0,1-.18-.31,2.35,2.35,0,0,1-.11-.4,1.42,1.42,0,0,1,0-.65,1.24,1.24,0,0,1,.48-.64.47.47,0,0,1,.12-.07l.13-.06.2,0a1,1,0,0,1,.51.08l.11.07.18.14a1.47,1.47,0,0,1,.1.13,2.5,2.5,0,0,1,.28.59c.06.15.12.25.2.25s.11-.14.1-.37A1.24,1.24,0,0,0,54,83.43Z"/><path class="cls-4" d="M52,20.88l-.48.1c-.14,0-.17,0-.3,0H49.78a2.91,2.91,0,0,0-.31,0c-.19,0-.33,0-.52,0s-.32,0-.47,0h-.29l-.66-.11a1,1,0,0,0-.51,0,.29.29,0,0,0-.19.27c0,.1.09.19.22.24a1,1,0,0,0,.48,0l.47-.08c.18,0,.3,0,.48,0a5,5,0,0,1,.54,0,2.64,2.64,0,0,0,.58,0h.48c.19,0,.38,0,.62,0h1.14l.13,0a1.08,1.08,0,0,0,.52,0,.27.27,0,0,0,.18-.27c0-.1-.09-.18-.22-.22A1.25,1.25,0,0,0,52,20.88Z"/><circle class="cls-4" cx="56.51" cy="21.14" r="1.03"/><path class="cls-4" d="M65.1,87.14H40.72a6.38,6.38,0,0,1-6.38-6.38V25.24a6.38,6.38,0,0,1,6.38-6.38H65.1a6.38,6.38,0,0,1,6.38,6.38V80.76A6.38,6.38,0,0,1,65.1,87.14ZM40.72,19.36a5.89,5.89,0,0,0-5.88,5.88V80.76a5.89,5.89,0,0,0,5.88,5.88H65.1A5.89,5.89,0,0,0,71,80.76V25.24a5.89,5.89,0,0,0-5.88-5.88Z"/><path class="cls-4" d="M64.93,82.48H41.29a4.25,4.25,0,0,1-4.24-4.25V27a4.25,4.25,0,0,1,4.24-4.25H64.93A4.25,4.25,0,0,1,69.17,27V78.23A4.25,4.25,0,0,1,64.93,82.48ZM41.29,23a4,4,0,0,0-4,4V78.23a4,4,0,0,0,4,4H64.93a4,4,0,0,0,4-4V27a4,4,0,0,0-4-4Z"/><path class="cls-4" d="M71,34.69a1.1,1.1,0,0,1,1.1,1.1v5.36A1.1,1.1,0,0,1,71,42.24h0"/><path class="cls-4" d="M34.5,32a.59.59,0,0,1-.59-.58V29.06a.59.59,0,0,1,.59-.59h0"/><path class="cls-4" d="M34.5,39.1a.59.59,0,0,1-.59-.58V34.27a.59.59,0,0,1,.59-.59h0"/><path class="cls-4" d="M34.5,45.4h0a.59.59,0,0,1-.59-.59V40.56A.59.59,0,0,1,34.5,40h0"/><g class="cls-5"><path class="cls-4" d="M60,41.89a.48.48,0,0,0-.23.16.6.6,0,0,0-.13.25c0,.1,0,.11,0,.12v0a.33.33,0,0,0,0,.17,2.45,2.45,0,0,0,.12.31c0,.06-.16.13-.16.18s0,.15,0,.18-.24,0-.34.06a1.07,1.07,0,0,1-.44,0,.75.75,0,0,0-.3,0l-.12,0a1.74,1.74,0,0,0-.38.46,1.93,1.93,0,0,0-.3,1,2,2,0,0,0,.23.75.19.19,0,0,1,0,.26,1.33,1.33,0,0,1-.78.19,2.32,2.32,0,0,1-.5-.07l-.2-.06h0l.08,0,0,0a.83.83,0,0,1,.18.17,1.2,1.2,0,0,1,.31.53A1.18,1.18,0,0,1,57,47a.76.76,0,0,1-.08.11,1.34,1.34,0,0,0-.11.21,1.46,1.46,0,0,1-.3.43.39.39,0,0,1-.18,0,.5.5,0,0,0-.2.09.49.49,0,0,1-.52,0,.42.42,0,0,1-.2-.45v0l0,1.22h0c.05,0,0,0,.11.09l.09.09.11.13s0,0,0-.05a.44.44,0,0,1,.22-.14,2.34,2.34,0,0,1,.44-.06l.35.08a2.16,2.16,0,0,0,.46,0,2,2,0,0,0,1.44-.79,2.84,2.84,0,0,0,.55-1.13.59.59,0,0,0,0-.18l0,0a.51.51,0,0,1-.13-.09s0,0,0,0h.09s0,0,0,0l0,0-.06-.08s0,0,0-.08l.12-.26a2.78,2.78,0,0,0,.18-.8c0-.14,0-.36,0-.38s-.07,0-.1-.06L59,44.62a.87.87,0,0,1-.26-.29,1.6,1.6,0,0,1-.12-.37.28.28,0,0,1,.19-.19,1.42,1.42,0,0,0,.34-.18,3.08,3.08,0,0,0,.63-.56.63.63,0,0,0,.11-.34l-2-.38a2.09,2.09,0,0,1,.47.54,1.72,1.72,0,0,0,.41.56c.08.36.75.14.95.4s.27.12.47-.13.19-.39.1-.47c-.28-.23-.23-.49-.37-.77-.06-.13-.33-.17-.44-.44a.32.32,0,0,1,0-.23l.18-.45-1.09.29a.63.63,0,0,0-.34.14c-.16.21-.16.27-.31.28s-.5-.08-.61,0a.91.91,0,0,0-.31.39,2.4,2.4,0,0,1-.71,1,.66.66,0,0,0-.3.49,1.63,1.63,0,0,1-.07.3l-.05.15v.08s0,0,0,0h0l.74.09h0c.25,0,.06,0,0,0l-.32-.17L56,44.19l0,0c0,.18-.16.31-.13.52v.07a1.15,1.15,0,0,1,0,.19h0a.72.72,0,0,0-.38.29,1.37,1.37,0,0,0-.18.24.87.87,0,0,0-.07.3.22.22,0,0,0,0,.13s0,0,.08.07a1.66,1.66,0,0,1,.33.16.25.25,0,0,1-.09-.07l0,0a1.22,1.22,0,0,1-.14-.16.69.69,0,0,1-.11-.13l0-.07s0,0-.07.06a.32.32,0,0,0,0,.07,7.54,7.54,0,0,1-.9.32,3.31,3.31,0,0,0-1,.52,2.92,2.92,0,0,0-.63.75l-.45.76.87,1.32.21.31a5.39,5.39,0,0,0,.74,1.07,2.87,2.87,0,0,0,1.29.74,1.71,1.71,0,0,0,1.31-.28,2.69,2.69,0,0,0,.46-.28c.19,0,.41,0,.59-.18s.26-.67.41-.82.37-.16.47-.36a1,1,0,0,1,.34-.42c.09,0,.2,0,.28-.08s.09-.16.14-.22a3.18,3.18,0,0,0,.17-.3,2.7,2.7,0,0,0,.79-.23.82.82,0,0,0,.24-.25.61.61,0,0,0,.08-.3,1.76,1.76,0,0,0-.09-.55,1.69,1.69,0,0,0-.1-.35.9.9,0,0,1-.07-.27c0-.11,0-.21,0-.32a3.32,3.32,0,0,0,.05-.79,1,1,0,0,0-.14-.4.74.74,0,0,0-.18-.23c-.12-.15-.11-.22-.18-.27a.94.94,0,0,1-.25-.11h0l.17.13h0l0,0s0,0,.07,0a.6.6,0,0,1,.15-.09c.13-.05,0-.23.15-.24a.66.66,0,0,0,.24-.11,1.3,1.3,0,0,0,.5-.46c0-.11.12-.22,0-.35s-.21-.25-.26-.35l-.2-.45a1,1,0,0,0-.18-.23l0-.06v0h0l-.18,0h0l0,0h0l0,0a.21.21,0,0,1,0-.06h.06c.16,0,.29-.09.22-.27A.38.38,0,0,0,60,41.89Z"/></g><g class="cls-5"><path class="cls-6" d="M52.51,54.5a.22.22,0,0,1,0,.15c-2.47,2.2-4.58,5.44-7,8.39a6.51,6.51,0,0,0-.72,1.26c-.22.51-.37,1-.5,1.37s-.28.15-.27-.36a4.21,4.21,0,0,1,.3-1.25,6.51,6.51,0,0,1,1-1.62c1.79-2.26,2.8-4,4.64-6.08a23.89,23.89,0,0,0,2.42-2.62c.55-.87.91-1.83,1.38-2.65a10.46,10.46,0,0,1,2.19-3.25c.19-.15.06,0,.06,0,.27.08.17-.06.08.24,0,0-.23.19-.21.24s.16-.06.18-.1a35.11,35.11,0,0,1-1.68,3.09A26.63,26.63,0,0,1,52.51,54.5Z"/></g><g class="cls-5"><path class="cls-6" d="M53.24,43.46s-.09,0-.12,0c-1.51-2.17-4-3.94-6.3-5.93-.41-.35-1.56-1-2-1.37-.6-.64,1.14.13,1.29.26a6.93,6.93,0,0,1,1.23.87,45.78,45.78,0,0,1,4.7,3.86A17.64,17.64,0,0,0,54,43.26c.66.47,1.44.79,2.08,1.22a6,6,0,0,1,2.4,2.08c.09.18-.06,0-.06,0-.14.23,0,.15-.23,0,0,0-.11-.21-.17-.2s0,.15.05.17c-.81-.49-1.54-1-2.36-1.59A23.62,23.62,0,0,1,53.24,43.46Z"/></g><g class="cls-5"><path class="cls-6" d="M61.84,50.51s.08,0,.08.05c-.23,1.68.39,3.36.83,5.08.07.32.54.92.56,1.32,0,.6-.68-.31-.73-.43a2.61,2.61,0,0,1-.36-.84,15.24,15.24,0,0,1-1-3.56c0-.61.16-1.23-.07-1.73a8.5,8.5,0,0,0-.9-1.25c-.37-.54-1-.95-.93-1.58,0-.11.07,0,.07,0,.22-.14.06-.1.22,0s0,.14.05.14,0-.1,0-.11a5.15,5.15,0,0,1,1.16,1.36A5.71,5.71,0,0,1,61.84,50.51Z"/></g><g class="cls-5"><path class="cls-6" d="M65.69,47.56s0,.09,0,.08c-1.22-.27-2.41.58-3.91.64-.26,0-.87.24-1.19,0s.45-.42.52-.46a3.28,3.28,0,0,1,.68-.1c1.05-.14,1.65-.65,2.66-.78.47,0,1,.13,1.31-.07s.62-.59,1-.8,1-.73,1.53-.44c.09.05,0,.07,0,.07,0,.26.05.1-.07.21s-.11,0-.12,0,0,.08.07.07c-.45.29-.86.47-1.27.73S66.08,47.44,65.69,47.56Z"/></g><g class="cls-5"><path class="cls-6" d="M50.53,48.71s-.06.08-.11.08c-1.41-.2-3-.15-4.63-.52-.4-.08-.86-.25-1.12-.31a1.23,1.23,0,0,0-.78.13c-.71.32-1.49.66-2.26.93-.37.14-1.06.5-1.67.73l-.77.3.14-.73a1,1,0,0,1,.85-.81c.79.08-.33.21-.36.85l-.07,0,.49-.26a12.3,12.3,0,0,1,1.47-.62c.56-.24,1.07-.47,1.55-.71a2.54,2.54,0,0,1,1.46-.41,20,20,0,0,0,3.14.56,10.51,10.51,0,0,0,3,.17c.85-.17,1.65-.55,2.43-.75a7.33,7.33,0,0,1,3.27-.58c.2,0,0,.07,0,.07.11.25.13.09-.1.22,0,0-.25,0-.27,0s.13.08.17.07a26.05,26.05,0,0,1-2.87.85A19.87,19.87,0,0,1,50.53,48.71Z"/></g><g class="cls-5"><path class="cls-6" d="M55.42,41.35s-.16-.06-.14-.11a7.42,7.42,0,0,0,.5-4.17,16.15,16.15,0,0,1,.13-4.94c.12-.59,0-2.05.53-2.65.73-.81.66,1.21.68,1.4A6.74,6.74,0,0,1,57,32.46c-.33,2.45.47,4.09.31,6.44-.08,1.09-.73,2-.54,3a13.48,13.48,0,0,0,1.12,2.53,7.4,7.4,0,0,0,.88,1.34c.29.39.47.66.35,1,0,.13-.13.08-.13.07-.45.29-.14.17-.43.14-.06,0,0-.18-.07-.17s-.13.15-.1.17A4.14,4.14,0,0,1,56.5,44.5,10.17,10.17,0,0,1,55.42,41.35Z"/></g><g class="cls-5"><path class="cls-6" d="M59.56,53.41s.09,0,.09.07a27.38,27.38,0,0,0,.57,3.79,9.27,9.27,0,0,1,.26,2.13,15.53,15.53,0,0,1-.36,2.06,2.52,2.52,0,0,0,.08.94c.08.36.22.71.25,1s-.15.25-.37,0a2.86,2.86,0,0,1-.41-.83,2.57,2.57,0,0,1,0-1.34c.08-.51.19-1,.23-1.42a4.71,4.71,0,0,0-.09-1.31c-.16-.85-.41-1.66-.54-2.64a7.76,7.76,0,0,0-.39-2.53,7.19,7.19,0,0,0-1.37-1.64c-.65-.65-1.43-.89-1.92-1.46-.09-.11,0-.06,0-.06.07-.26,0-.13.17-.14,0,0,.13.13.17.1s0-.12-.06-.12A3.69,3.69,0,0,1,58,51.19,6.52,6.52,0,0,1,59.56,53.41Z"/></g><g class="cls-5"><path class="cls-6" d="M53.8,58.43s.11.09.08.12a6.89,6.89,0,0,0-1.59,2.55c-.37.94-.61,1.85-.94,2.81-.15.35.08,1.16-.23,1.62-.44.67-.73-.66-.72-.81a2.68,2.68,0,0,1,.12-1.08c.41-1.56.42-2.76,1.25-4.14.38-.62,1.11-1,1.13-1.73a8.89,8.89,0,0,0-.42-1.92c-.13-.8-.69-1.63-.11-2.2.1-.11.12,0,.12,0,.43,0,.17,0,.33.15s-.12.13,0,.17.15-.05.14-.08a6.4,6.4,0,0,1,.62,2.19A5.66,5.66,0,0,1,53.8,58.43Z"/></g><g class="cls-5"><path class="cls-6" d="M43.7,50.5s.07,0,0,.06a.76.76,0,0,0-.34.94l-.71.43s0,0,0,.08a.54.54,0,0,0,.13.29c0,.09,0,0,0,.06l-.06.06a4.15,4.15,0,0,0-.29.35,6.63,6.63,0,0,1-.77.86c-.1.09-.23.27-.4.45a.8.8,0,0,1-.8.27c-.2-.11-.15-.17-.1-.21a.65.65,0,0,0,.22-.11,2.12,2.12,0,0,0,.29-.32,3.07,3.07,0,0,1,.46-.48,6.52,6.52,0,0,0,.64-.89,3.13,3.13,0,0,1,.29-.42c.11-.11.25-.29.48-.22l-.05,0a1.39,1.39,0,0,1-.08-.58c0-.48.46-.73.51-1.09a5.37,5.37,0,0,1,.15-1.23c.17-.5.35-1.21,1-1.27.11,0,0,.07,0,.07.16.2.09.05.06.21s-.13,0-.11.06.09,0,.1,0a14.23,14.23,0,0,0-.57,1.32C43.69,49.72,43.79,50.22,43.7,50.5Z"/></g><g class="cls-5"><path class="cls-6" d="M48.89,45.57s-.09,0-.08,0a1.53,1.53,0,0,0-.39-1.48c-.37-.5-.87-1-1.29-1.56-.15-.21-.68-.55-.73-.91s.62.07.69.12a2.21,2.21,0,0,1,.48.51c.68.82,1.44,1.16,1.84,2.15.17.47,0,.94.14,1.28A4.17,4.17,0,0,1,50,46.83c.09.57.19,1.3-.34,1.65-.09.06-.06,0-.06,0-.24-.11-.11,0-.15-.17s.1-.07.07-.11-.1,0-.1,0a13.85,13.85,0,0,0-.06-1.48C49.33,46.21,49,45.85,48.89,45.57Z"/></g></g></svg>