<svg xmlns="http://www.w3.org/2000/svg" xmlns:xlink="http://www.w3.org/1999/xlink" viewBox="0 0 106 106"><defs><style>.cls-1,.cls-8{fill:none;}.cls-2{clip-path:url(#clip-path);}.cls-3,.cls-5{fill:#62bfb3;}.cls-3{fill-rule:evenodd;}.cls-4{fill:#1d1d1b;}.cls-6{fill:#fff;}.cls-7{clip-path:url(#clip-path-2);}.cls-8{stroke:#000;stroke-miterlimit:10;stroke-width:0.5px;}</style><clipPath id="clip-path"><rect class="cls-1" x="-0.08" y="109.85" width="106.08" height="27.76" rx="4.5"/></clipPath><clipPath id="clip-path-2"><circle class="cls-1" cx="63.73" cy="71.47" r="15.66"/></clipPath></defs><title>webIcons</title><g id="BUTTONS-3" data-name="BUTTONS"><g class="cls-2"><path class="cls-3" d="M-.17,69.38s.05-.1,0-.16-.11-.06-.19,0a1,1,0,0,1-.51.1A1.49,1.49,0,0,1,0,69.1l.05.08s0-.05,0-.09A.43.43,0,0,1,.27,69,5.21,5.21,0,0,1,2,68.75c.1.06.21,0,.32,0a.07.07,0,0,0,.06-.08.22.22,0,0,0-.09-.12.78.78,0,0,0-.37,0c-.08,0,0,0,0-.07l.06,0,.14,0,.08,0h0l-.08,0h.07a.13.13,0,0,0,0-.06h.21c.28,0,.58,0,.79-.27h.06c.09,0,.23,0,.22-.15s-.13-.08-.21-.05a5.94,5.94,0,0,0-.72.21c-.11.09-.25,0-.36.07h0v.13H1.91a.25.25,0,0,0-.24.07h0c-.14,0-.28,0-.37.15s0,0,0,.05a.44.44,0,0,0-.2,0l-.07,0c-.09-.06-.22,0-.32-.15s-.28-.08-.43,0-.12.12,0,.2-.06.15-.12.21l-.2.08,0,0h0L-.31,69h0a4.24,4.24,0,0,0-1,.21v.21c.16.23.4.22.64.2h.15A.27.27,0,0,0-.17,69.38Z"/><path class="cls-3" d="M105.48,81.1a.09.09,0,0,0,0,.15c.09,0,.15,0,.19-.08l.29-.42v-.13C105.74,80.71,105.69,81,105.48,81.1Z"/><path class="cls-3" d="M43.19,30.87c.08.05.16.1.22,0l.12-.31h-.35C43.28,30.64,43.19,30.75,43.19,30.87Z"/><path class="cls-3" d="M86.28,37.07c.08-.09.18-.16.09-.29s-.12-.06-.15,0S86.16,37,86.28,37.07Z"/><path class="cls-3" d="M97,58.58l-.09.1c.06.11.13.22.28.13l0-.05s0-.06,0-.09,0-.11,0-.14S97,58.5,97,58.58Z"/><path class="cls-3" d="M49.61,39.64h0c-.09-.13,0-.34-.21-.42l-.07-.07c-.09,0-.23,0-.17.12a1,1,0,0,0,.37.45C49.59,39.75,49.6,39.68,49.61,39.64Z"/><path class="cls-3" d="M104,82.75h0a.12.12,0,0,1-.06.06.81.81,0,0,0-.31.35l0,0s-.06,0-.06.06h0l-.06.06a1.2,1.2,0,0,1-.5.42,1.78,1.78,0,0,0-.45.54l-.36.34a.18.18,0,0,1-.06.09h0c-.06,0,0,.1,0,.15h0a.2.2,0,0,0,.08,0l0,0,.08-.05.08,0,.41-.38a4.19,4.19,0,0,1,.54-.49c.08-.1.17-.18.25-.27a.52.52,0,0,0,.11-.32c.1,0,.16,0,.23-.09l.1-.1c.14-.12.21-.31.36-.43h0a.24.24,0,0,1,.12-.23.63.63,0,0,0,.25-.31c0-.07,0-.1-.08-.08l-.2.15C104.33,82.36,104.06,82.49,104,82.75Z"/><path class="cls-3" d="M49,32.18s-.13-.08-.11,0a1.63,1.63,0,0,0,.11.31c.09.06.12.2.26.2a0,0,0,0,1,0,0C49.15,32.52,49.18,32.29,49,32.18Z"/><path class="cls-3" d="M105.48,92.76h.06c-.05-.08-.13-.06-.2,0S105.42,92.75,105.48,92.76Z"/><path class="cls-3" d="M2.05,73.78h.07c.08-.05.24-.06.09-.21a.45.45,0,0,1,0-.08v-.06h0a.17.17,0,0,0-.1,0c-.06,0-.13,0-.19,0H2c-.06,0,0,.12,0,.19v0a.61.61,0,0,1-.36-.09c-.12-.07-.29.08-.44,0l0,0H1l-.18.09s.14,0,.17.11.23.08.36.07h.14c.15-.11.32-.06.48-.06A.47.47,0,0,0,2.05,73.78Z"/><path class="cls-3" d="M104.35,66.4c.06.1.17.11.27.14a.51.51,0,0,1,.21.2.35.35,0,0,0,.32.18l0,0v-.34c-.13,0-.27,0-.35-.11s-.23-.13-.35-.18S104.29,66.27,104.35,66.4Z"/><polygon class="cls-3" points="105.19 66.89 105.19 66.89 105.19 66.89 105.19 66.89"/><path class="cls-3" d="M105.33,67.09a.46.46,0,0,1,.07.07c.06,0,.09.07.19,0-.14-.11-.16-.33-.4-.3C105.14,67,105.27,67,105.33,67.09Z"/><path class="cls-3" d="M105.1,72a.14.14,0,0,0,0,.09,1.54,1.54,0,0,1,0,.3.28.28,0,0,0,0,.09c-.06.09.26.3-.09.3a.13.13,0,0,0,0-.06.07.07,0,0,0-.06-.07h0v-.07a.52.52,0,0,1-.09-.2c-.08-.07-.07-.19-.13-.28a.13.13,0,0,0-.15.14.33.33,0,0,0,0,.22.41.41,0,0,1,0,.22.13.13,0,0,1,0,.08c-.15.13-.19.24.06.31.08-.07.14-.16.26-.14h0c0,.13.06.25.23.26,0,0,0,0,0,0a.48.48,0,0,0,.08.33,1.66,1.66,0,0,1,.21.59h0l0-.07a.24.24,0,0,0-.09-.08.11.11,0,0,0-.08,0,.16.16,0,0,0,0,.11.24.24,0,0,0,0,.08l0,.07,0,.11.06.11.09.16c.06.07.08.2.21.14l.13.1a.16.16,0,0,0-.23.1s0,.05,0,.07.16.1.28.08a1.62,1.62,0,0,1,0-.22h0A.31.31,0,0,1,106,75v-.42h-.06c0-.07,0-.15-.08-.2h0l-.14-.42c-.07-.08,0-.22-.14-.28s0,0,0-.06a.06.06,0,0,1,0-.08v0a.3.3,0,0,1-.08-.22s0-.09,0-.13-.12-.22,0-.29,0-.23,0-.35-.09-.21-.07-.33-.05-.14-.07-.21S105.16,71.85,105.1,72Z"/><path class="cls-3" d="M105.64,73.07a.41.41,0,0,0,0,.09c.06,0,.07-.08.08-.14s-.06-.11-.13-.08S105.62,73,105.64,73.07Z"/><polygon class="cls-3" points="105.76 74.89 105.76 74.89 105.76 74.89 105.76 74.89"/><path class="cls-3" d="M105.83,70.8s0,0,0,0a0,0,0,0,1,0,0h0S105.8,70.8,105.83,70.8Z"/><path class="cls-3" d="M82,39.18c-.15.12-.31.06-.47,0l-.09,0-.18,0h0l0,0s-.09.08,0,.15h0c.16.08.34.12.5.21l.07.07c.15,0,.34-.06.44.13.1,0,.2,0,.29,0s.2,0,.28-.09,0-.16-.07-.23h-.07c-.12-.09-.3-.11-.41-.22A.26.26,0,0,0,82,39.18Z"/><path class="cls-3" d="M82.22,39.09c0,.13.11.15.21.17a.18.18,0,0,0,.09,0s.15,0,.06-.14,0,0-.07-.07h0C82.41,39,82.3,39,82.22,39.09Z"/><path class="cls-3" d="M6.63,53a.55.55,0,0,0-.08-.43c-.06,0-.13-.06-.14.06a1.36,1.36,0,0,0,.08.49C6.57,53.08,6.62,53.05,6.63,53Z"/><path class="cls-3" d="M6.56,50.26c-.14-.07,0-.24-.15-.38v.52c0,.11.08.09.15.07Z"/><path class="cls-3" d="M11.73,44.16a.78.78,0,0,0,0-.22,1.07,1.07,0,0,0-.15-.37.17.17,0,0,0-.1,0s-.07.06-.1.1h0l.21.83C11.76,44.44,11.71,44.28,11.73,44.16Z"/><path class="cls-3" d="M11.93,45.62a.4.4,0,0,0-.08-.47l-.14-.07a1.48,1.48,0,0,0,.08.69.17.17,0,0,1,.07.13C12,45.83,11.91,45.71,11.93,45.62Z"/><path class="cls-3" d="M12.49,51.71h0c-.24,0-.25,0-.15.21l.08.06h0C12.61,51.93,12.53,51.81,12.49,51.71Z"/><path class="cls-3" d="M10.42,31.27c0,.19,0,.37,0,.56.09-.07.05-.18.06-.27s0-.2.07-.27a.17.17,0,0,0,0-.21C10.44,31.09,10.42,31.17,10.42,31.27Z"/><path class="cls-3" d="M20.08,33.43a2.26,2.26,0,0,0,0,.26l.06.07a.2.2,0,0,0,.14-.13h0l-.07-.06h0a.09.09,0,0,1,0-.13c.07,0,.07-.1,0-.14S20.07,33.33,20.08,33.43Z"/><path class="cls-3" d="M18.57,32.45a.13.13,0,0,0,0-.06h0a.1.1,0,0,0,0,0s-.05.09,0,.11S18.57,32.48,18.57,32.45Z"/><path class="cls-3" d="M14.72,34.31c0,.07,0,.13.09.12a.11.11,0,0,0,.11-.14c0-.07,0-.14-.11-.13S14.72,34.25,14.72,34.31Z"/><path class="cls-3" d="M102.54,63.51a.13.13,0,0,1,0,.06.73.73,0,0,1,.21.35.12.12,0,0,0,.13-.13h0s0-.09,0-.14a.34.34,0,0,0-.06-.2s-.11,0-.15-.07a.07.07,0,0,0-.07,0S102.59,63.47,102.54,63.51Z"/><path class="cls-3" d="M103,64.4a.16.16,0,0,0,.15-.07.13.13,0,0,1,0-.06.41.41,0,0,1-.14-.15h0C102.92,64.21,103,64.31,103,64.4Z"/><path class="cls-3" d="M98.11,61s0,0,0-.07c-.18-.17-.19-.17-.28,0v0s0,0,.05,0,0,0,.06,0l.07,0h0Z"/><path class="cls-3" d="M96.75,59.85c0,.06,0,.08.06.08l.23.24s.09.09.15.06,0-.12.07-.18a4,4,0,0,0-.51-.41C96.66,59.71,96.77,59.78,96.75,59.85Z"/><path class="cls-3" d="M101.54,60.47a.18.18,0,0,1,0,.1h0a.11.11,0,0,0-.09,0c-.15,0-.11-.2-.25-.18s.07.29,0,.45v0l0,.12a.25.25,0,0,0,0,.07.35.35,0,0,0,.11.13c.31,0,0-.27.2-.33s.08.08.12.12l0,0,.08.06a.15.15,0,0,0,.17,0,.11.11,0,0,0,0-.08,0,0,0,0,1,0-.06.11.11,0,0,0,0-.07.17.17,0,0,0,0-.15.43.43,0,0,0,0-.05.18.18,0,0,0,0-.07.15.15,0,0,0-.1-.09c.07-.05.12-.1.08-.19h0a.27.27,0,0,0-.07-.08h0C101.67,60.25,101.55,60.29,101.54,60.47Z"/><path class="cls-3" d="M100.4,104.9l-.12.07c-.14.09-.13.11,0,.21a.5.5,0,0,1,.27-.08c.22-.11.08-.22,0-.33h0Z"/><path class="cls-3" d="M3.92,69.31s0,.08,0,.13a.15.15,0,0,0,.21,0h0C4.11,69.3,4,69.29,3.92,69.31Z"/><path class="cls-3" d="M11.78,73l0,0c.07,0,.14,0,.17,0s0-.09-.07-.12h0c-.08,0-.17,0-.22,0S11.77,73,11.78,73Z"/><path class="cls-3" d="M10.64,72.43l-.06,0a.05.05,0,0,0,.05.07s0,0,0,0S10.67,72.44,10.64,72.43Z"/><path class="cls-3" d="M9.34,67.71c.05,0,.13,0,.08-.14-.26-.1-.35-.06-.36.14h.28Z"/><path class="cls-3" d="M3.2,73.57a2,2,0,0,0,.64-.06.69.69,0,0,1,.51,0c.06,0,.14,0,.22,0a2.7,2.7,0,0,1,.8.06.22.22,0,0,0,.26-.06h.21s0,0,0-.06h.51c.11,0,.08-.08.06-.14a1.63,1.63,0,0,1-.38,0,.8.8,0,0,0-.57,0H5.35l-.15,0H5.06c0-.09,0-.18-.15-.07a1.17,1.17,0,0,1-.2.06c-.16,0-.28,0-.3-.19-.07,0-.14-.26-.21,0s.1.24-.12.25l-.17,0c-.24-.08-.47,0-.71,0A.15.15,0,0,0,3.2,73.57Z"/><path class="cls-3" d="M54.19,39.57a.35.35,0,0,1,0-.08l-.08-.06c-.13,0-.14,0-.08.13h0c.06.09,0,.19,0,.29s-.08.35.06.51.15.1.24,0a.08.08,0,0,1,0,0c-.06-.12,0-.25-.06-.36a.17.17,0,0,1,0-.07c-.08-.1,0-.24-.07-.34Z"/><path class="cls-3" d="M50,34.81c-.12,0-.21-.12-.34-.09a.42.42,0,0,0,.06.36,1.23,1.23,0,0,1,0,.47c0,.07,0,.15.08.17s.16-.07.17-.14A1.54,1.54,0,0,0,50,34.81Z"/><path class="cls-3" d="M79.08,34.32c0,.06-.09.11,0,.18a.09.09,0,0,0,.15,0c0-.05.1-.12.06-.18s-.12,0-.18,0Z"/><path class="cls-3" d="M79.88,37.7h.06c.15,0,.33.06.42-.13h0l-.07,0a.11.11,0,0,1-.08,0h0A.31.31,0,0,0,79.88,37.7Z"/><path class="cls-3" d="M81.8,39c.08,0,.16,0,.22,0s0-.07-.08-.1S81.71,38.83,81.8,39Z"/><path class="cls-3" d="M5.69,104.93c0-.12-.13,0-.2,0v.26C5.65,105.17,5.73,105.07,5.69,104.93Z"/><path class="cls-3" d="M5.57,101.85l-.05-.07-.14-.08-.07,0h0a.13.13,0,0,0-.07.13l.07.08.07.06a.18.18,0,0,0,.22,0A.14.14,0,0,0,5.57,101.85Z"/><path class="cls-3" d="M3,100.49H3a.15.15,0,0,0-.21,0h0l0,.12h0l.07.06C3,100.69,3.07,100.64,3,100.49Z"/><path class="cls-3" d="M-.09,86.48c.08,0,.14,0,.13-.13S-.17,86.33-.09,86.48Z"/><path class="cls-3" d="M99.9,94c.1,0,.2,0,.2-.13h-.2Z"/><path class="cls-3" d="M99.89,93.3h-.06a.31.31,0,0,0-.12.43c.17,0,.17-.22.32-.23a.13.13,0,0,0,0-.06c.09-.08.13-.18,0-.25S99.91,93.21,99.89,93.3Z"/><path class="cls-3" d="M102.37,68a.1.1,0,0,0,0,.08l.1.08s.08.12.17.1h.14a.67.67,0,0,1-.07-.34l-.06,0c-.1-.11-.19-.08-.28,0A.36.36,0,0,0,102.37,68Z"/><path class="cls-3" d="M104.12,68.12c.07,0,.13.08.21,0s.23,0,.25.14.11,0,.17,0l.07-.07a.19.19,0,0,1,.14-.07v-.25l-.13,0c-.21-.13-.39,0-.57.07S104,68,104.12,68.12Z"/><path class="cls-3" d="M103.34,67.71h0s.07,0,.12,0,0-.12.09-.16h0s0-.09,0-.14h-.21A.2.2,0,0,0,103.34,67.71Z"/><path class="cls-3" d="M54.26,32.31c0-.07,0-.13,0-.2v-.06c0-.12,0-.23,0-.35A.63.63,0,0,0,54.26,32.31Z"/><path class="cls-3" d="M105.27,74.74c.13,0,.08-.06.06-.13S105.22,74.67,105.27,74.74Z"/><path class="cls-3" d="M94.94,48.53c.12.1.17-.07.25-.11l0,0c.1-.16,0-.17-.13-.18a.2.2,0,0,1-.15.06C94.92,48.35,94.82,48.45,94.94,48.53Z"/><path class="cls-3" d="M102.53,64.27h-.06c-.09,0-.07.14-.07.21s-.05.23,0,.34.1.18.12.28a.13.13,0,0,0,.09,0c.13,0,.22-.09.14-.24h0a.17.17,0,0,1,0-.21l.06-.07c0-.08,0-.16-.06-.21S102.6,64.33,102.53,64.27Z"/><path class="cls-3" d="M101.47,63.74c-.08-.06-.19-.14-.22,0l.21.28c.13,0,.29.08.29-.14h0A.9.9,0,0,1,101.47,63.74Z"/><path class="cls-3" d="M101.47,64.4a.15.15,0,0,0,0,.07c.08,0-.06.22.13.21h0a1.77,1.77,0,0,0,0-.23C101.6,64.34,101.53,64.38,101.47,64.4Z"/><path class="cls-3" d="M100.18,62.81c.18.09.14,0,.14-.12S100.18,62.71,100.18,62.81Z"/><path class="cls-3" d="M98.25,61.37c0,.18.17,0,.22.13s.06-.08.06-.13a.21.21,0,0,0-.28,0Z"/><path class="cls-3" d="M95.18,58.25l.12.1,0,0h0s0,0,0,0,.06.24.18.32l.15.07,0,.06.09.14a1.19,1.19,0,0,0,.22.23l.16.16.07,0,.09,0c.15,0,.16,0,.1-.16a1.19,1.19,0,0,0-.15-.18.62.62,0,0,1-.14-.28.27.27,0,0,1-.21-.15.84.84,0,0,0-.29-.27l-.15-.13c0-.11-.12-.16-.2-.22S95.18,58.17,95.18,58.25Z"/><path class="cls-3" d="M103.91,66h0s0,0,.06.08a.46.46,0,0,1,.07.07s.06.11.14.07l.07-.07c0-.09-.13-.16-.14-.27l-.07-.07A.17.17,0,0,0,103.91,66Z"/><path class="cls-3" d="M103.71,65.77a.28.28,0,0,0-.16-.37C103.55,65.54,103.54,65.68,103.71,65.77Z"/><path class="cls-3" d="M.56,73.62s0,0-.07,0l-.08,0a.17.17,0,0,0,.1,0Z"/><path class="cls-3" d="M5.34,68.61a1,1,0,0,0-.8.2,2,2,0,0,0,.8-.13S5.37,68.64,5.34,68.61Z"/><path class="cls-3" d="M7.33,73.23l-.06-.06a.15.15,0,0,0-.15.06l0,.13a.34.34,0,0,0,.2-.06A.2.2,0,0,0,7.33,73.23Z"/><path class="cls-3" d="M9.73,73.1c.18.07.2-.09.32-.17a.61.61,0,0,0-.34,0h0C9.73,73,9.61,73.05,9.73,73.1Z"/><path class="cls-3" d="M10.94,73c-.06,0-.1,0-.12.09a.07.07,0,0,0,.09.07A.12.12,0,0,0,11,73S11,73,10.94,73Z"/><path class="cls-3" d="M10.11,67.27a.1.1,0,0,0-.12,0,.93.93,0,0,0-.36.14l.09.08.31,0A.11.11,0,0,0,10.11,67.27Z"/><path class="cls-3" d="M11.6,67.36l.33,0,.13-.15c0-.19-.17,0-.21-.13h-.06C11.8,67.22,11.72,67.28,11.6,67.36Z"/><path class="cls-3" d="M4.06,83.17s0-.08,0-.09-.26-.06-.37.08h0a.5.5,0,0,0,.36,0Z"/><path class="cls-3" d="M7.34,77.85c0,.2-.26.28-.28.49a.13.13,0,0,0-.06.07.14.14,0,0,0,0,.06c.11.09.14-.06.22-.06s.17-.13.24-.22a.41.41,0,0,0,.07-.11.08.08,0,0,0,0-.08c0-.08.13-.18,0-.24S7.41,77.83,7.34,77.85Z"/><path class="cls-3" d="M8.28,76.48h0a.11.11,0,0,1-.15,0H8.06c0,.14.06.29-.06.42L7.92,77c0,.08,0,.13.07.13H8a.1.1,0,0,0,.05,0l0,0,.05,0,0,0,.05,0,0-.06s.1-.09.06-.17v-.2s0,0,0,0A0,0,0,0,0,8.28,76.48Z"/><polygon class="cls-3" points="8.34 76.47 8.34 76.48 8.35 76.48 8.34 76.47"/><path class="cls-3" d="M78.09,38.26l-.12.06c-.08.09-.07.16,0,.2s.38.06.61,0c-.16,0-.29-.07-.26-.23h0a.17.17,0,0,0-.14,0,.12.12,0,0,0-.08,0Z"/><path class="cls-3" d="M77.17,36.61c0,.08,0,.11.1.12s.15,0,.15-.1,0-.1-.14-.1A.1.1,0,0,0,77.17,36.61Z"/><path class="cls-3" d="M79.15,37.67v0L79,37.56h0c0,.11,0,.22.13.2l.07-.07Z"/><path class="cls-3" d="M3.87,105.89c-.05-.1-.15-.13-.25,0h0l.06.07a.46.46,0,0,0,.07.07C3.82,106,3.92,106,3.87,105.89Z"/><path class="cls-3" d="M99.19,80.32l.06,0s.13,0,.11-.09a.1.1,0,0,0-.13-.08C99.15,80.19,99.18,80.27,99.19,80.32Z"/><path class="cls-3" d="M95.81,84.88l-.14.08a.59.59,0,0,0-.36.07c0,.19,0,.19.22.14l.14-.08L96.1,85s.11,0,.14-.07h0C96.1,84.76,96,84.84,95.81,84.88Z"/><path class="cls-3" d="M101.12,85.59c0,.17.17.1.27.06l0-.2-.09-.08-.06,0C101.25,85.48,101.15,85.51,101.12,85.59Z"/><path class="cls-3" d="M99.46,87.06a.42.42,0,0,1-.27.18c-.09.18-.34.12-.44.28a1.21,1.21,0,0,0-.43.47l-.78.63c-.07.07,0,.13,0,.16a.41.41,0,0,0,.35-.19,1.78,1.78,0,0,1,.6-.41c.11-.07.16-.18.25-.27s.2-.14.27-.23a.47.47,0,0,1,.1-.1.86.86,0,0,0,.38-.35,1,1,0,0,0,.36-.41c0-.06,0-.09-.08-.07A1.28,1.28,0,0,0,99.46,87.06Z"/><path class="cls-3" d="M98.91,91.46c0,.06,0,.13-.09.16a.12.12,0,0,0-.11.12.22.22,0,0,0,0,.08c0,.06,0,.11,0,.16l0,.08,0,.08c.08.12.1.28.27.34a.17.17,0,0,0,.08-.14c0-.18-.16-.36,0-.55a.47.47,0,0,1-.07-.28s0,0,0-.06h0C99,91.35,99,91.33,98.91,91.46Z"/><path class="cls-3" d="M99.25,90.2v-.13C99.17,90.11,99.17,90.16,99.25,90.2Z"/><path class="cls-3" d="M99.47,94.07h0a.16.16,0,0,0-.24,0C99.31,94.09,99.39,94.05,99.47,94.07Z"/><path class="cls-3" d="M102.75,65.51h.08c0-.06,0-.14,0-.15s.1,0,.15.09l0,0c.13,0,.12-.11.21-.14v-.07l0-.05c-.15-.09-.29-.18-.44,0A.37.37,0,0,0,102.75,65.51Z"/><path class="cls-3" d="M103.76,66.82h.06l.08-.06c.06,0,.07-.1,0-.14s-.14,0-.19,0S103.63,66.8,103.76,66.82Z"/><path class="cls-3" d="M103.37,66.15s0,0,0,0,0-.16,0-.24A.15.15,0,0,0,103.37,66.15Z"/><path class="cls-3" d="M103.61,69.17a.79.79,0,0,0,.36.48c.07,0,.15.21.21,0-.16-.27-.2-.6-.43-.83-.11-.08-.23,0-.34,0C103.35,69,103.53,69.06,103.61,69.17Z"/><path class="cls-3" d="M68,34.51a.63.63,0,0,0-.11.12l0,0c-.07.09-.15,0-.24,0s-.2,0-.24.1l.06.07a.18.18,0,0,0,.2,0,.2.2,0,0,1,.23.06.18.18,0,0,0,.26,0h0c0,.16.19.11.3.12s.22,0,.3.06-.11.1-.11.17a.08.08,0,0,0,0,.07c.06,0,.15,0,.2,0h0c.21.1.17-.16.29-.2v.06l.07-.07h0c.15-.08.28.13.43,0l0,0a.25.25,0,0,0,.22.05h.58c-.13-.19-.35-.07-.46-.2h0c-.08-.1-.19-.06-.29-.07s-.19-.1-.23-.2-.08,0-.1,0a.13.13,0,0,0,0,.08c0,.07-.1,0-.15,0l-.1,0a1.4,1.4,0,0,1-.28-.06c-.18,0-.34-.15-.53-.11a.11.11,0,0,0,0-.05c-.09-.06-.11-.18-.22-.23Z"/><path class="cls-3" d="M9.63,66.26h0c-.06-.08-.28-.13-.06-.28h0a.1.1,0,0,1-.07-.07s0,0,0-.06a.49.49,0,0,0-.26-.1.12.12,0,0,0-.09,0c-.09,0-.15,0-.15.13.15,0,.31.07.3.28s.06.12.13.15S9.58,66.34,9.63,66.26Z"/><path class="cls-3" d="M104.18,71.38c.09,0,.07-.14.08-.22s-.15,0-.15.14A.27.27,0,0,0,104.18,71.38Z"/><path class="cls-3" d="M104.25,70.82a.14.14,0,0,0,.08-.14s-.09-.05-.12,0S104.2,70.78,104.25,70.82Z"/><path class="cls-3" d="M104.37,71.22c0,.1.11.19.17.29h0s0,0,0-.08V71.3c-.07,0,0-.15-.07-.2h-.07C104.4,71.11,104.32,71.12,104.37,71.22Z"/><path class="cls-3" d="M105.06,73.77c.09,0,.12,0,.12-.12l-.07-.11s0-.07-.07-.07-.06.06-.06.1S105,73.7,105.06,73.77Z"/><path class="cls-3" d="M95.18,50h.06c.2.05.15-.14.21-.21v-.05C95.18,49.71,95.18,49.71,95.18,50Z"/><path class="cls-3" d="M17.22,49.84h0c-.13,0-.12.06-.08.14h0c.05,0,0,.11.07.15s.15.31.23.47a.17.17,0,0,1,.07.14l.13.07a.53.53,0,0,1,0,.13c.08,0,.06-.09,0-.13V50.6a5.24,5.24,0,0,1-.28-.69S17.25,49.89,17.22,49.84Z"/><path class="cls-3" d="M32,48c0,.06.06.07.11.07s.07,0,.07-.07,0-.08-.09-.09S32,47.92,32,48Z"/><path class="cls-3" d="M45.74,36.88l-.07-.14c-.16-.09-.15.07-.21.13s-.13.17,0,.18S45.73,37.05,45.74,36.88Z"/><path class="cls-3" d="M100,65a.13.13,0,0,0,.07-.14h0l-.06-.08-.07-.13c-.12-.18-.34-.12-.5-.2s-.07.07-.07.13.3.1.42.21h0a.1.1,0,0,0,.06.09h0a.08.08,0,0,0,0,0c0,.05.11,0,.13.08Z"/><path class="cls-3" d="M99.79,65.13s.06,0,.07-.06,0-.09-.08-.1-.09,0-.09.07A.12.12,0,0,0,99.79,65.13Z"/><path class="cls-3" d="M99.1,64.27a.29.29,0,0,0,.1,0s0-.06,0-.09,0-.06-.08,0,0,.06,0,.09Z"/><path class="cls-3" d="M92.49,100.93c0,.06.05.09.1.09a.05.05,0,0,0,.07,0c0-.07,0-.11-.1-.1S92.51,100.92,92.49,100.93Z"/><path class="cls-3" d="M91.4,101.64h0a.25.25,0,0,0,.08-.19C91.37,101.46,91.37,101.54,91.4,101.64Z"/><path class="cls-3" d="M6.7,64.54l-.07-.07a.71.71,0,0,0-.14-.1.11.11,0,0,0-.08,0v.14a.13.13,0,0,1,0,.06l.14.08C6.65,64.67,6.78,64.71,6.7,64.54Z"/><path class="cls-3" d="M20.05,68.94c.09,0,.11-.12,0-.2s-.16,0-.22-.06h0a.38.38,0,0,0,0,.48.46.46,0,0,0,.07-.07C19.93,69,20,69,20.05,68.94Z"/><path class="cls-3" d="M14.78,66.88h0s.11,0,.15-.06h.21a.74.74,0,0,0,.65-.33c.12-.19,0-.15-.14-.15-.32.11-.71-.07-1,.21a2,2,0,0,1-.34.14,1.45,1.45,0,0,0-.22.09l0,0c.11.13.26.09.39,0A.42.42,0,0,1,14.78,66.88Z"/><path class="cls-3" d="M48.76,45.58c0,.16.14.21.33.25a.85.85,0,0,0-.17-.33.1.1,0,0,0-.12,0S48.75,45.53,48.76,45.58Z"/><path class="cls-3" d="M56.72,37.73a.12.12,0,0,0-.18,0c-.11.11.06.13.09.2h0C56.7,37.86,56.79,37.83,56.72,37.73Z"/><path class="cls-3" d="M56.4,37.22c-.12-.08,0-.24-.14-.4v.41c0,.05,0,.12.1.1S56.41,37.26,56.4,37.22Z"/><path class="cls-3" d="M56.34,36.19v-.08s-.11,0-.12,0a.16.16,0,0,0,.05.23h0S56.29,36.22,56.34,36.19Z"/><path class="cls-3" d="M49.06,52.51c0,.08.12.11.2,0s.08-.17.15-.16.18-.13.27-.19c-.07-.12-.18,0-.27-.06h0l-.07.06a1.16,1.16,0,0,0-.24.14A.13.13,0,0,0,49.06,52.51Z"/><path class="cls-3" d="M48.74,47c0-.1-.13,0-.2,0l.07.13C48.7,47.08,48.79,47.05,48.74,47Z"/><path class="cls-3" d="M44.83,42.57c-.14,0-.14.08-.15.17a2.82,2.82,0,0,0-.57.15A.14.14,0,0,1,44,43c-.15.1-.29,0-.44,0s-.05.13-.07.2l.09.08.42-.15H44c.17.08.33,0,.49,0a.14.14,0,0,0,0-.06,3.29,3.29,0,0,1,.68-.14c.18,0,.35-.19.3-.27s-.22,0-.34,0Z"/><path class="cls-3" d="M45,42.25h-.14C44.88,42.33,44.93,42.32,45,42.25Z"/><path class="cls-3" d="M41.6,43.36l-.06.08c-.13,0-.31.13-.4-.09l-.11.08s0,.09,0,.14a.12.12,0,0,0,0,.13h.28a.23.23,0,0,1,.22-.13h.22l0-.09c0-.07,0-.13,0-.17A.12.12,0,0,0,41.6,43.36Z"/><path class="cls-3" d="M42.39,42.81h0a0,0,0,0,0,0,.06c.1.08.19,0,.28,0C42.63,42.65,42.5,42.77,42.39,42.81Z"/><path class="cls-3" d="M43.72,42.74s0,0,0,0l0,0s0,.05,0,.05A0,0,0,0,0,43.72,42.74Z"/><path class="cls-3" d="M47.33,38.66c.08,0,.07-.11.05-.19C47.18,38.49,47.29,38.58,47.33,38.66Z"/><path class="cls-3" d="M44,40.18V40h-.2s-.1,0-.11.12a.16.16,0,0,0,0,.07h0A.2.2,0,0,0,44,40.18Z"/><path class="cls-3" d="M42,42a.39.39,0,0,0,.06.26l0,0a.31.31,0,0,0,.17-.05l.08,0h0c.07-.08.19-.15.07-.27a.51.51,0,0,0-.22.11C42.07,42.12,42,42,42,42Z"/><path class="cls-3" d="M45.85,37.37c-.06-.11-.16,0-.24,0s0,.23.14.27S45.92,37.49,45.85,37.37Z"/><path class="cls-3" d="M60.43,37.21c.07.06,0,.17.12.21l.05-.06c-.06-.08,0-.17-.06-.26A.12.12,0,0,0,60.43,37.21Z"/><path class="cls-3" d="M75.51,37.36c-.05,0-.11.06-.1.13a.18.18,0,0,0,.1.14c.12.06.19-.13.23-.1s.14-.06.2-.11h0c-.09-.06-.21,0-.3-.06h-.13Z"/><path class="cls-3" d="M75.58,36.19s.1,0,.11-.08a.1.1,0,0,0-.1-.11c-.09,0-.18,0-.28,0A.3.3,0,0,0,75.58,36.19Z"/><path class="cls-3" d="M5.49,99.42l-.09-.1c-.09.07-.05.18-.06.27h0a.16.16,0,0,1,0,.07.21.21,0,0,0,0,.07h0C5.68,99.61,5.69,99.59,5.49,99.42Z"/><path class="cls-3" d="M96.47,83.93V84c0,.08.1.15.2.07h0C96.67,83.92,96.59,83.9,96.47,83.93Z"/><path class="cls-3" d="M97.9,87.87c.15-.2.37-.36.42-.63a1.61,1.61,0,0,0-.5.35C97.81,87.69,97.73,87.81,97.9,87.87Z"/><path class="cls-3" d="M94.6,85.44l.07-.06v-.15h-.15C94.49,85.32,94.4,85.43,94.6,85.44Z"/><path class="cls-3" d="M97.09,83.59a.32.32,0,0,0-.27.06c0,.2.12.1.21.07Z"/><path class="cls-3" d="M94.23,81a.11.11,0,0,0-.06-.13c-.09.05-.16.14-.28.14l.06.14C94.09,81.13,94.16,81,94.23,81Z"/><path class="cls-3" d="M97.75,97.72h0a.08.08,0,0,0,.14,0l.07-.07c0-.13,0-.21-.2-.12A1.21,1.21,0,0,1,97.75,97.72Z"/><path class="cls-3" d="M73.39,36.24c0,.08.09.09.11.14a.14.14,0,0,0,.21,0c.09-.11,0-.14-.07-.2h-.07C73.51,36.2,73.42,36.16,73.39,36.24Z"/><path class="cls-3" d="M68.7,34.74l.08.07c.1,0,.22,0,.21-.14a.45.45,0,0,0-.28-.07A.11.11,0,0,0,68.7,34.74Z"/><path class="cls-3" d="M73.87,36.47c.08.26.13,0,.2,0v-.06c0-.07,0-.14-.12,0A.43.43,0,0,0,73.87,36.47Z"/><path class="cls-3" d="M102.47,67.23c0,.15.11.13.21.14h0a.12.12,0,0,0,0-.15l-.08,0C102.53,67.13,102.5,67.17,102.47,67.23Z"/><path class="cls-3" d="M102.21,67.26c-.18,0-.37,0-.31.25h0c.08.07.2,0,.29.06h0a.23.23,0,0,0,.07.07h0l.12,0c.06,0,.15.06.15-.06s-.06-.09-.12-.09-.15,0-.15-.14Z"/><path class="cls-3" d="M102.34,68.19a.24.24,0,0,0-.16-.07s0,.07-.07,0,0,0,0-.08a.36.36,0,0,0,0-.1s0,0-.08-.06-.11-.14-.17-.21-.09-.08-.15,0a.11.11,0,0,0,0,.16.63.63,0,0,1,.19.49h0a.15.15,0,0,0,.11,0c.06,0,.07.07.1.1s0-.2.21-.17S102.37,68.23,102.34,68.19Z"/><path class="cls-3" d="M71.06,37s0-.07-.06-.07-.12.05-.15.12a.07.07,0,0,1,0,0l0,0s0,0,.05,0S71.07,37.06,71.06,37Z"/><path class="cls-3" d="M9.63,64.71a.06.06,0,0,0-.06.06c0,.09,0,.1.12.11l0,0S9.71,64.71,9.63,64.71Z"/><path class="cls-3" d="M104.47,72.54a1.85,1.85,0,0,0-.14-.14l-.07-.06c-.09,0-.07.13-.08.2l.08.14h.29s0,0,0-.07S104.5,72.56,104.47,72.54Z"/><path class="cls-3" d="M81.28,52.89c0,.09.11.17.23.13a.15.15,0,0,0,.14-.06l-.15-.15h-.14C81.3,52.8,81.28,52.84,81.28,52.89Z"/><path class="cls-3" d="M85.87,54c0,.11.12.13.22.07s-.1-.14-.21-.13S85.85,54,85.87,54Z"/><path class="cls-3" d="M75.79,43.63l.07-.06c0-.09.13-.19-.06-.2S75.66,43.54,75.79,43.63Z"/><path class="cls-3" d="M16.07,60.82l-.14-.21c-.18,0-.18.14-.28.28C15.81,60.85,16,61.06,16.07,60.82Z"/><path class="cls-3" d="M16.12,61.28c0-.05-.05-.09-.12-.1s-.1.09-.1.15,0,.16.1.14S16.12,61.37,16.12,61.28Z"/><path class="cls-3" d="M17.71,62.55a.19.19,0,0,0-.17-.22c-.05,0-.1,0-.1.08s.11.25.2.24S17.71,62.59,17.71,62.55Z"/><path class="cls-3" d="M13.48,56.81c.06.08.1,0,.15,0S13.53,56.75,13.48,56.81Z"/><path class="cls-3" d="M14.84,54.2h0c0-.07,0-.14,0-.21s-.13-.16-.15-.27a.32.32,0,0,1-.13-.15.23.23,0,0,1-.07-.07h0v-.06a.2.2,0,0,0-.13,0l0,0h0c0-.12-.06-.11-.14-.07l-.07,0a1,1,0,0,0,.42.61h0a.09.09,0,0,0,0,.06h0l.08.1s0,0,0,0l.09.13C14.76,54.33,14.84,54.34,14.84,54.2Zm-.55-.69h0Z"/><path class="cls-3" d="M10.5,58.4h0s0,.08.09,0Z"/><path class="cls-3" d="M17.85,54.6c0-.13,0-.27,0-.4-.22.16-.23.28-.06.47h0l.08-.07Z"/><path class="cls-3" d="M30.78,44.94a.75.75,0,0,0-.7.21l-.28.07c-.08,0-.1,0-.14.07a1.8,1.8,0,0,1-.64.14l-.09.06h-.06s0,0-.07.06h0c-.14,0-.29,0-.39.11.11.07.22,0,.32,0l.07-.06.15,0a.24.24,0,0,0,.16-.05h0l.12,0a.15.15,0,0,0,.15-.06c.14,0,.28-.07.42,0s.17-.16.32-.17a3.58,3.58,0,0,0,.45-.09,1.17,1.17,0,0,0,.37-.08C31,45,30.89,45,30.78,44.94Z"/><path class="cls-3" d="M36.16,43.91c.2-.22,0-.24-.15-.24s-.25,0-.34.12-.27.15-.42.2-.14.21.07.17.47-.12.7-.18h0Z"/><path class="cls-3" d="M33.08,44.18c0,.1-.39,0-.13.22H33a1.11,1.11,0,0,1,.39-.2.21.21,0,0,0,.18-.21.1.1,0,0,0-.14,0,.36.36,0,0,1-.29.14Z"/><path class="cls-3" d="M34.87,43.23h0s-.07,0-.08.06a.1.1,0,0,0,.16.05S34.89,43.26,34.87,43.23Z"/><path class="cls-3" d="M39.75,43.15a1,1,0,0,1-.43.15,2.24,2.24,0,0,1-.57.13,0,0,0,0,0,0,.06l0,0c0,.08,0,0-.07.07-.21.15-.48.18-.66.37H38s-.07,0-.08.07l.09.08c.09,0,.21-.06.26.08s.1.06.15,0a.44.44,0,0,0,.15-.18l0,0s0,0,0,0c.2-.11.41,0,.62-.05s.1-.41.39-.42h.06a.41.41,0,0,0,.2-.14h.06l.07-.07h0C39.94,43.15,39.9,43.09,39.75,43.15Z"/><path class="cls-3" d="M39.83,44.12c0,.05,0,.09,0,.14s.13.07.21.06,0-.27,0-.41a.15.15,0,0,0-.14.07C39.83,44,39.86,44.08,39.83,44.12Z"/><path class="cls-3" d="M44.89,38.46a.71.71,0,0,0,0-.14l-.07-.08c-.18,0-.14.12-.08.22h0c.06,0,0,.17.13.14h0l0,.06c.06,0,.12.27.2,0C45,38.61,45,38.49,44.89,38.46Z"/><path class="cls-3" d="M99.32,67.55s.05.07.07.1h.06c.06,0,.11,0,.16,0s0-.13-.06-.14h-.1S99.33,67.47,99.32,67.55Z"/><path class="cls-3" d="M95.53,64.68a4.33,4.33,0,0,0,.79.27.19.19,0,0,0,.2,0,.15.15,0,0,1-.13-.08l-.08-.07c-.13-.06-.32,0-.42-.14l-.08-.06h-.06a.17.17,0,0,0-.22,0h0A.1.1,0,0,0,95.53,64.68Z"/><path class="cls-3" d="M98.87,67.59c-.16,0-.28,0-.38.12C98.63,67.7,98.75,67.75,98.87,67.59Z"/><path class="cls-3" d="M98.61,67.37a.15.15,0,0,0,.07-.13c-.15,0-.15,0-.15.06a.27.27,0,0,1,.08.07Z"/><path class="cls-3" d="M100.68,67.23c-.11,0-.24-.14-.29.06s0,.15.07.22c-.11,0-.22,0-.26.12h0l.14.07.08-.06v-.14c.12.14.23.09.35,0s.11,0,.18-.11l-.18-.09A.13.13,0,0,1,100.68,67.23Z"/><path class="cls-3" d="M99.21,66.42a0,0,0,0,0,0,0c.09,0,.08,0,.09-.1S99.2,66.34,99.21,66.42Z"/><path class="cls-3" d="M93.46,62.4h0s0,0,0,0h0a.46.46,0,0,0,.07-.07v-.06C93.49,62.26,93.38,62.24,93.46,62.4Z"/><path class="cls-3" d="M94,63.34v0h0s0,.06.07.08l.09,0h0s0,0,0,0,0,0,0,0,.12,0,.11-.06-.17-.21-.32-.19S94,63.31,94,63.34Z"/><path class="cls-3" d="M92.75,99.9c-.26-.08-.22.1-.22.24s.24-.08.38-.08.21-.11.18-.26S92.89,99.94,92.75,99.9Z"/><path class="cls-3" d="M19.94,67.58s0,0,0,.06.1.16.21.14S20.1,67.56,19.94,67.58Z"/><path class="cls-3" d="M12.35,65.78c0,.1,0,.2.15.21a.06.06,0,0,0,.07,0s0-.06.07-.09h.06c.09-.1,0-.15-.07-.2H12.5c-.05,0-.11,0-.15.06Z"/><path class="cls-3" d="M12.93,66.68h0a.38.38,0,0,0-.36,0A1.45,1.45,0,0,0,12.93,66.68Z"/><path class="cls-3" d="M13.06,66.54c0,.07.08.07.14.07S13.12,66.54,13.06,66.54Z"/><path class="cls-3" d="M59.05,52.19s-.08,0-.11,0-.1.16-.13.24a.14.14,0,0,0,0,.09q.09.16.24,0l.08-.12C59.12,52.37,59.16,52.26,59.05,52.19Z"/><path class="cls-3" d="M53.55,48.46s0-.1-.08-.13h0a.08.08,0,0,0-.13,0h0a.45.45,0,0,0-.08.27c.15.13.25,0,.36-.06Z"/><path class="cls-3" d="M51.14,49.33c.08-.09,0-.17,0-.24C51,49.13,51,49.22,51.14,49.33Z"/><path class="cls-3" d="M58,37.77c.1,0,.14.18.3.18.05-.15,0-.26-.1-.38S58,37.54,58,37.77Z"/><path class="cls-3" d="M47.62,54.23a.11.11,0,0,0,.11.14c.14,0,.08-.11.09-.17h0C47.76,54.22,47.66,54.09,47.62,54.23Z"/><path class="cls-3" d="M48.62,55.48a.11.11,0,0,0,0,.08c0,.08.12.1.17.15h0a.46.46,0,0,1,.07.07.32.32,0,0,1,.15.13c.09,0,.13,0,.13-.13s-.19-.23-.29-.34-.14-.09-.2-.15h0c-.06,0-.07.08-.08.14Z"/><path class="cls-3" d="M96.6,91c-.09,0-.17.06-.12.12.16.22,0,.26-.16.29l-.07.07c0,.06-.11.09-.09.17a1.44,1.44,0,0,0,.53-.22A.32.32,0,0,0,96.6,91Z"/><path class="cls-3" d="M97.4,91h0a.11.11,0,0,1,0,.15h0a.09.09,0,0,0,0,.14h0c.1.05.19.08.16-.1a.1.1,0,0,1,0-.11c0-.11,0-.22-.07-.33C97.34,90.68,97.33,90.7,97.4,91Z"/><path class="cls-3" d="M96,90.21c0,.06,0,.11.1.12s.1-.06.12-.13S96.1,90.19,96,90.21Z"/><path class="cls-3" d="M97.17,89l.08.13.07,0a.66.66,0,0,0,0-.14s0-.1-.06-.09S97.2,88.93,97.17,89Z"/><path class="cls-3" d="M97.79,88l0,0S97.8,88,97.79,88Z"/><path class="cls-3" d="M93.38,90.89v-.06c-.1,0-.2,0-.2.13s.12.16.16,0C93.34,90.92,93.36,90.91,93.38,90.89Z"/><path class="cls-3" d="M93.14,90.22a.09.09,0,0,0,0,0s0-.06,0,0,0,0,0,.05Z"/><path class="cls-3" d="M93.53,80.89h0c0-.06-.06-.13-.13-.16a.08.08,0,0,0-.08,0,.19.19,0,0,0-.08.28h.54C93.68,80.94,93.57,81,93.53,80.89Z"/><path class="cls-3" d="M97.52,89.45a.48.48,0,0,0,.09.19.15.15,0,0,0,0-.23S97.55,89.41,97.52,89.45Z"/><path class="cls-3" d="M72.21,36.88l.22.07c.08-.09.17-.17-.06-.16,0,0-.06,0-.09,0S72.18,36.81,72.21,36.88Z"/><path class="cls-3" d="M102.09,66.65c-.06.12.11.08.14.14l0,0h0c.07-.06.11-.13,0-.19S102.12,66.59,102.09,66.65Z"/><path class="cls-3" d="M101.47,67.51s.1,0,.14.06h0c.08-.06.11-.14,0-.19s-.15,0-.15.13Z"/><path class="cls-3" d="M103.18,69.37c-.1-.06-.14,0-.15.08a.13.13,0,0,1,0,.06s.06.06,0,.08-.06.21.08.24.22,0,.23-.18S103.19,69.51,103.18,69.37Z"/><path class="cls-3" d="M69,46.7a.66.66,0,0,0,0,.58l0,0a.13.13,0,0,0,.13,0,.15.15,0,0,0,0-.13s-.07,0,0-.07a.2.2,0,0,0,.08,0c.21-.38.2-.52,0-.65h0s-.09,0-.13,0A.73.73,0,0,1,69,46.7Z"/><path class="cls-3" d="M68.31,46a.35.35,0,0,0-.1.08l-.07.07c0,.06,0,.16.11.09s.07-.11.09-.17S68.36,46,68.31,46Z"/><path class="cls-3" d="M68,45.57v.06l.07.08.13-.08s0,0,0-.06h0a.24.24,0,0,1-.06-.08h0C68.06,45.46,68,45.51,68,45.57Z"/><path class="cls-3" d="M103.4,70.2h0c0-.08,0-.18-.12-.24C103.24,70.09,103.24,70.18,103.4,70.2Z"/><path class="cls-3" d="M81.35,51.21a.14.14,0,0,0,0,.06.15.15,0,0,0,0,.07l0,0h.14l.07-.07v-.13H81.4S81.37,51.19,81.35,51.21Z"/><path class="cls-3" d="M83.9,53.25h0s0-.05,0,0,0,0,0,0Z"/><path class="cls-3" d="M84.38,57.13a.11.11,0,0,0,0,.08.16.16,0,0,0,.06.08.36.36,0,0,0,.12.08c.22.12.46.22.68.35l.3.17c.08,0,.17.09.25,0s.09-.19,0-.26h0a.36.36,0,0,0-.2-.11.45.45,0,0,0-.23,0L85,57.29s-.11,0-.14-.07h0a.35.35,0,0,0-.42-.14Z"/><path class="cls-3" d="M74.36,47.77c0-.08,0-.16-.07-.2S74.27,47.72,74.36,47.77Z"/><path class="cls-3" d="M79,46.68a.06.06,0,0,0,0,.06s.1.08.15,0,0-.12,0-.19l-.06,0A.1.1,0,0,0,79,46.68Z"/><path class="cls-3" d="M23.2,62.89c.05-.15,0-.2-.25-.2h0a.21.21,0,0,0,.15.26S23.18,63,23.2,62.89Z"/><path class="cls-3" d="M20.35,65.15l.26-.11c.12,0,.22-.07.16-.2s-.17-.06-.25,0-.26.12-.37.19C20.08,65.26,20.27,65.13,20.35,65.15Z"/><path class="cls-3" d="M15.25,66.14l-.26,0h0C15.06,66.21,15.13,66.22,15.25,66.14Z"/><path class="cls-3" d="M14.64,66.33v-.14h-.07C14.52,66.27,14.48,66.35,14.64,66.33Z"/><path class="cls-3" d="M19.8,65.31c.05.08.13,0,.21.06h0C20,65.27,19.89,65.3,19.8,65.31Z"/><path class="cls-3" d="M19.49,52.81s0,0,0,0l0,0s0,0,0,0S19.49,52.84,19.49,52.81Z"/><path class="cls-3" d="M34.47,45l-.09,0-.06.06v0a.56.56,0,0,0,.62,0c.14-.09,0-.11,0-.17h-.14A.83.83,0,0,1,34.47,45Z"/><path class="cls-3" d="M32.58,44.36l-.14,0h-.06l-.08,0c-.1,0-.21,0-.28.07H32a1.08,1.08,0,0,0-.66.27l-.12.07-.07,0-.06,0,0,0,.14.13h.07a.47.47,0,0,1,.43-.2l.44-.21h.06a.22.22,0,0,0,.22,0h0c.14,0,.3,0,.44-.06S32.77,44.28,32.58,44.36Z"/><path class="cls-3" d="M34,44.23c0-.06-.1,0-.16,0a1.66,1.66,0,0,1-.45.12c-.11,0-.07.08,0,.14h.14c.08-.07.2,0,.28-.07h0a.23.23,0,0,1,.15-.07S34,44.27,34,44.23Z"/><path class="cls-3" d="M31.17,44.55c-.06.06-.15,0-.22.06l-.07.13h0a.15.15,0,0,0,.21,0C31.1,44.67,31.29,44.67,31.17,44.55Z"/><path class="cls-3" d="M34.17,49a.25.25,0,0,1,.14.13.14.14,0,0,0,.06.12l.1.09c.08.08.2.11.28.19h-.19l-.1,0h0c0-.06,0-.12-.07-.17h0a.5.5,0,0,0-.13.19c-.09.17,0,.15.14.14h.08a11.21,11.21,0,0,0,1.42,0c.07,0,.22,0,.14.11s0,.23-.13.3l-.08.07h0a.29.29,0,0,1-.14.21c0,.09.12.06.19.05s.06-.27.22-.34h0a.43.43,0,0,1,0-.07v0a.28.28,0,0,1,.1-.21l.06,0a.22.22,0,0,0,.16-.15c0-.12-.06-.17-.19-.12a2.39,2.39,0,0,1-.84-.06v-.07a.17.17,0,0,0-.1-.06h-.11c-.14,0-.31,0-.38-.13s-.17-.06-.26-.09l-.08-.06h0c0-.05-.1,0-.14-.08h0a.16.16,0,0,1-.07-.07h0a.12.12,0,0,0-.15,0Z"/><path class="cls-3" d="M33.17,49.9l.13,0h0s0,0,.05,0l.08-.06a.93.93,0,0,0,.49-.08c-.13-.13-.29,0-.43-.06h-.28C33.08,49.72,33.1,49.81,33.17,49.9Z"/><path class="cls-3" d="M31.87,49.84a.15.15,0,0,0,0,.07h0a.38.38,0,0,1,.14.14h0c.24.08.17-.12.21-.22s-.17-.13-.28-.06,0,0-.07.06Z"/><path class="cls-3" d="M37.6,43.7a.12.12,0,0,0-.14-.13c0,.08,0,.15.06.2l.08-.06Z"/><path class="cls-3" d="M39.53,43.71h0l.16-.12C39.5,43.59,39.5,43.59,39.53,43.71Z"/><path class="cls-3" d="M101.21,66.72a.06.06,0,0,0-.06.07.14.14,0,0,0,.13.09h0s0,0,0-.06S101.28,66.72,101.21,66.72Z"/><path class="cls-3" d="M93.22,64.26a.13.13,0,0,0,.07,0l.21.07a.83.83,0,0,0,.16.09.48.48,0,0,1,.3.24.19.19,0,0,0,.08,0c.27,0,.15.21.24.31a.46.46,0,0,0,.24.17c.2,0,.26-.06.24-.21h0l.13.07c.1,0,.15.16.27.17h0c0,.21.17.23.34.25l0,0,0,0a0,0,0,0,0,0,0,.1.1,0,0,0,.06,0l.07,0h0v0h.18a.29.29,0,0,0,0,.09.14.14,0,0,0,.15,0h0l0,0c.06.26.29.34.49.45s.28.33.54.27h.21c.09,0,.24.05.29-.1a.29.29,0,0,0-.28-.09.47.47,0,0,1-.45-.2.33.33,0,0,0-.13-.13.24.24,0,0,1-.09-.08.21.21,0,0,1,0-.06.55.55,0,0,1,0-.18.12.12,0,0,0,0-.07.25.25,0,0,0-.22,0l-.17.06a.26.26,0,0,0-.09-.14c.13-.1.18-.21.07-.35h-.07c-.1-.11-.19-.24-.37-.11s-.11,0-.17,0a2,2,0,0,1-.54-.15l-.14-.08c-.06,0-.07-.06-.09-.11a1.38,1.38,0,0,1-.41-.49.56.56,0,0,0-.22-.28h-.06c-.18,0-.14.13-.14.23s.12.13.18.2a2.22,2.22,0,0,1-.48-.27c-.15-.07-.22-.22-.34-.32l-.09,0a.35.35,0,0,0-.2,0l-.08,0a.23.23,0,0,0,0,.14c0,.08.08.12.15.17A.33.33,0,0,1,93.22,64.26Z"/><path class="cls-3" d="M88.43,59.7a.32.32,0,0,0,.16.35,4.87,4.87,0,0,0,1,.47.13.13,0,0,0,.12-.07.1.1,0,0,0,0-.09l-.06-.07c-.12-.07-.08-.21-.16-.3s-.21-.1-.3-.05-.26,0-.33-.17-.11-.17-.22-.18a.24.24,0,0,0-.2,0A.15.15,0,0,0,88.43,59.7Z"/><path class="cls-3" d="M90.1,60.05a.12.12,0,0,0,.14-.13l-.07-.07a.18.18,0,0,0-.15.07s0,.1.08.13Z"/><path class="cls-3" d="M92,61.92a1.48,1.48,0,0,1,.29.27c.09.06.2.07.28.14h.14v-.06l-.07-.08h0a2.36,2.36,0,0,0-.57-.35C92,61.82,92,61.85,92,61.92Z"/><path class="cls-3" d="M87.49,94.69l0,0-.08.05-.06.06c-.12,0-.12.07-.08.15h0a.26.26,0,0,1,.09.14.88.88,0,0,0,.07.14.34.34,0,0,0-.15.07v.13c.07.21.07.21.24.09l.1,0,.09-.06c0-.08,0-.1-.08-.14h0l-.1,0a.44.44,0,0,0,.1-.15h0a.16.16,0,0,1,.07-.07A.6.6,0,0,1,88,95v-.13a.15.15,0,0,0-.13,0C87.74,94.8,87.64,94.63,87.49,94.69Z"/><path class="cls-3" d="M87.74,95.44c.05,0,.1,0,.09-.08s0,0-.08,0S87.69,95.4,87.74,95.44Z"/><path class="cls-3" d="M22.94,68.27a.14.14,0,0,0-.14.06h0l.06.07.07.07c.1,0,.23,0,.15-.14l0,0a.13.13,0,0,0-.08,0Z"/><path class="cls-3" d="M20.36,72.54c.08-.06.17,0,.25,0s.06,0,.07-.05v0h0s0,0,0-.06,0,0,0,0a.13.13,0,0,1,0-.1l.06,0c.09-.1.23-.16.23-.33a.15.15,0,0,0-.15-.07h0c-.05,0-.11,0-.15.07h0l-.07.07a.58.58,0,0,0-.23.18.28.28,0,0,1-.33.1s0,0,0,.06a.18.18,0,0,1-.13.2.38.38,0,0,0,0,.42C20.13,72.83,20.19,72.63,20.36,72.54Z"/><path class="cls-3" d="M19.64,73.5l.08-.13c-.08-.1-.18-.06-.28-.06l0,0C19.47,73.43,19.45,73.61,19.64,73.5Z"/><polygon class="cls-3" points="19.93 72.89 19.93 72.89 19.93 72.89 19.93 72.89 19.93 72.89"/><path class="cls-3" d="M19.92,72.91v0S19.9,72.91,19.92,72.91Z"/><path class="cls-3" d="M23,70.36c0-.08.09-.23-.11-.24h-.07a.46.46,0,0,1-.07.07h0c0,.09,0,.2.07.27h0C22.84,70.42,23,70.46,23,70.36Z"/><path class="cls-3" d="M8.29,79.54a.26.26,0,0,0-.3,0,.41.41,0,0,0,.28.15h0C8.29,79.66,8.37,79.59,8.29,79.54Z"/><path class="cls-3" d="M64.17,60v0c.11-.18,0-.38.06-.56l0-.09h0a.07.07,0,0,1,0-.08c0-.06,0-.12,0-.17h0c-.1-.08-.21-.16-.35-.05s0,.26.07.39a.18.18,0,0,1,0,.22s0,0,0,.06-.08.25,0,.34l.09,0h.1S64.21,60,64.17,60Z"/><path class="cls-3" d="M52.4,57h0c.05.08.13.07.21.06v-.12h-.07S52.44,56.91,52.4,57Z"/><path class="cls-3" d="M65.46,61.08c-.06-.08-.14-.06-.22,0a.15.15,0,0,0-.15.11.08.08,0,0,0,0,.08.33.33,0,0,0,.29-.06S65.47,61.09,65.46,61.08Z"/><path class="cls-3" d="M65.35,53.15c.1.07,0,.2.1.3.06-.08,0-.18.11-.23s0,0,0-.06a.16.16,0,0,0-.18-.16C65.33,53,65.35,53.1,65.35,53.15Z"/><path class="cls-3" d="M53.19,56.81h-.07c.07.1.17.07.27.06S53.26,56.82,53.19,56.81Z"/><path class="cls-3" d="M49.55,56.6s.08.1.12.1.08-.09.08-.16,0-.09-.08-.14-.13,0-.14.08Z"/><path class="cls-3" d="M38.15,52.58a.49.49,0,0,1,.24,0h.06c.08-.21-.12-.16-.21-.21s-.13,0-.2,0a.51.51,0,0,0-.13.09l0,0A.18.18,0,0,0,38.15,52.58Z"/><path class="cls-3" d="M41.43,49.18c-.09-.12-.18,0-.32,0,.13.08.22.12.32,0A.06.06,0,0,0,41.43,49.18Z"/><path class="cls-3" d="M41.77,48.47c-.11,0-.29,0-.29-.08s-.12-.11-.2-.13a.15.15,0,0,1-.12-.07c-.07,0-.14-.1-.22,0a.17.17,0,0,0,0,.22.68.68,0,0,0,.12.12c.13,0,.2.12.3.19a.4.4,0,0,0,.49,0,.14.14,0,0,0,0-.16A.1.1,0,0,0,41.77,48.47Z"/><path class="cls-3" d="M13.48,82.76a.2.2,0,0,1-.06-.14c0-.1-.05-.13-.14-.14s-.25,0-.12.18l.12.16C13.36,82.82,13.44,82.84,13.48,82.76Z"/><path class="cls-3" d="M8.86,98.29c-.11,0-.15,0-.15.12h.13C8.89,98.38,8.94,98.33,8.86,98.29Z"/><path class="cls-3" d="M97.53,72.91a3.09,3.09,0,0,1-.52-.07.28.28,0,0,0-.2,0c-.06.11-.47.06-.17.34l.09,0a.35.35,0,0,1,.21.1c.11.12.24.09.38,0s.52-.17.79-.14c.06-.1.2-.14.2-.28h0A.28.28,0,0,0,98,73c-.13,0-.28,0-.41,0Z"/><path class="cls-3" d="M84.31,93.23l.09.06c.16.1.18.09.2-.09s0-.07,0-.1h-.07C84.34,93,84.32,93,84.31,93.23Z"/><path class="cls-3" d="M85.74,93.75c0-.06,0-.12-.1-.12s-.06,0,0,.07a.11.11,0,0,0,.09.12S85.73,93.78,85.74,93.75Z"/><path class="cls-3" d="M92.47,92.31c-.06-.13-.22,0-.3-.1s-.12-.26-.29-.28-.17,0-.2.09.07.11.13.13a.23.23,0,0,1,.18.23c0,.2.14.16.26.18a.93.93,0,0,1,.14-.14S92.48,92.37,92.47,92.31Z"/><path class="cls-3" d="M93.8,91.78v-.12a.07.07,0,0,0-.06-.07c-.06-.06-.12-.11-.21-.07h0c-.11.06-.09.14,0,.21a.13.13,0,0,0,0,.06h.07v.07h.21S93.8,91.81,93.8,91.78Z"/><path class="cls-3" d="M91.67,86.07h.13a1.09,1.09,0,0,0,.17-.13c0-.05,0-.1,0-.12S91.66,85.89,91.67,86.07Z"/><path class="cls-3" d="M92.65,85.12a0,0,0,0,1,0,0l0,0s0,0,0,0S92.62,85.13,92.65,85.12Z"/><path class="cls-3" d="M91.16,78.82c.15,0,.16.17.17.31a2.26,2.26,0,0,1,.16-.21l0-.17C91.36,78.76,91.24,78.72,91.16,78.82Z"/><path class="cls-3" d="M90.81,81.53s0,.09.08.09l0,0a.09.09,0,0,0,0-.11l-.08,0h0A.28.28,0,0,1,90.81,81.53Z"/><path class="cls-3" d="M19.93,89.38a.31.31,0,0,0,.22-.21h0a.12.12,0,0,0,0-.09c-.13-.16-.22-.1-.3,0l-.09,0-.08.07-.06.07c-.06.15,0,.18.15.15Z"/><path class="cls-3" d="M14.5,87.79l.15.13.33-.07C14.83,87.74,14.66,87.81,14.5,87.79Z"/><path class="cls-3" d="M12.28,85.24c-.1,0-.15,0-.14.13S12.28,85.33,12.28,85.24Z"/><path class="cls-3" d="M70.5,41.36l.07.06.14.14h0l.07-.06h0c.1-.16,0-.2-.14-.28l-.31,0C70.36,41.29,70.47,41.28,70.5,41.36Z"/><path class="cls-3" d="M69.21,46.19c.09,0,.16,0,.15-.09s0-.19-.15-.12Z"/><path class="cls-3" d="M67.93,49.36c.07,0,.15,0,.19-.06l-.06-.07C68,49.23,67.83,49.18,67.93,49.36Z"/><path class="cls-3" d="M81.47,51.73a.15.15,0,0,0,0-.23C81.45,51.58,81.41,51.65,81.47,51.73Z"/><polygon class="cls-3" points="81.44 51.5 81.44 51.5 81.44 51.5 81.44 51.5"/><path class="cls-3" d="M86.09,57.92v0a.12.12,0,0,0,.05,0l.07,0,.11,0,0,0,.07,0a.1.1,0,0,0,.07,0,.08.08,0,0,0,0,0,.58.58,0,0,0,.4.25c.14,0,.26.12.39.16a.37.37,0,0,0,.23,0c.08,0,.16,0,.22-.06s0,0-.07-.07l-.15-.08a.37.37,0,0,0-.21-.06c-.09-.06-.21-.1-.25-.18s-.29-.2-.48-.18l-.13,0c-.06-.06-.16,0-.22-.07h0C86.17,57.86,86.11,57.86,86.09,57.92Z"/><path class="cls-3" d="M87.18,58s0,.08.1.07a.11.11,0,0,0,.09-.12c0-.05,0-.08-.08-.06A.12.12,0,0,0,87.18,58Z"/><path class="cls-3" d="M83.76,56.63a.38.38,0,0,0,.4.25.13.13,0,0,0,.14-.07l-.07-.07-.07-.06H84.1L84,56.61H84s-.06,0-.09-.07h0s0,0-.07,0A.36.36,0,0,0,83.76,56.63Z"/><path class="cls-3" d="M83.24,55.84l.2.08.08.06h0a.23.23,0,0,0,.07.07h0a.11.11,0,0,0,.09,0v0l0,0,.06.08c.07.05.12.12.19.18h0a.91.91,0,0,1,.36.06h.06c.08,0,.13,0,.08-.12s-.1-.15-.15-.23l-.14-.07v-.14s0,0,0,0a0,0,0,0,0,0,0c0-.07-.1-.08-.17-.07h0a.37.37,0,0,0-.32-.11C83.46,55.72,83.3,55.67,83.24,55.84Z"/><path class="cls-3" d="M74.74,42.9a.12.12,0,0,0,.09.09.08.08,0,0,0,.1-.06c0-.07,0-.11-.1-.11A.07.07,0,0,0,74.74,42.9Z"/><path class="cls-3" d="M78.75,48.36l0,0h0Z"/><path class="cls-3" d="M24.58,62.34c.08-.08.19,0,.26-.08a.22.22,0,0,0,.1-.09l0,0h0a.1.1,0,0,0,.09,0l.12-.07c.1-.09.28-.12.3-.29h0l0,0c.13-.19.13-.19-.07-.21l-.07.07h0a.93.93,0,0,0-.43.22l-.07.06h0s0,0,0,0h-.06l0,0s0,0-.06,0h0a.13.13,0,0,1,0,.06h0c-.13,0-.19.09-.27.15l-.07.07c0,.06.08.07.14.07Z"/><path class="cls-3" d="M19.07,55.64h0l0,0s0,0-.05,0l0,0a.17.17,0,0,0,0-.17h0c-.08,0-.11-.16-.23-.14a.2.2,0,0,1,0,.07c.1.08.07.24.21.28h0a.38.38,0,0,0,.08.27C19.22,55.82,19.1,55.73,19.07,55.64Z"/><path class="cls-3" d="M20.44,55.7a.38.38,0,0,1-.16-.12h-.06a.05.05,0,0,0-.08,0,.18.18,0,0,0,0,.14c0,.12.15.15.24.21h0l.07.06h0c.05,0,0,.11.08.14h0c.09.08,0,.25.22.27s.13.12.14.21,0,.26.25.26c0-.13,0-.26-.05-.39A9.2,9.2,0,0,0,20.44,55.7Z"/><path class="cls-3" d="M37,48.68l.06-.08a.12.12,0,0,0-.07-.14l-.28.22c-.08.17.07.12.15.14A.38.38,0,0,0,37,48.68Z"/><path class="cls-3" d="M38.26,43.52l-.09,0h0l.07,0Z"/><path class="cls-3" d="M94.67,67.85l-.22-.13a2.16,2.16,0,0,0-.67,0,.16.16,0,0,0-.07.07.28.28,0,0,0,0,.09c.1.12.24.1.37.13s.18,0,.23.09S94.54,67.93,94.67,67.85Z"/><polygon class="cls-3" points="93.67 66.89 93.67 66.89 93.67 66.89 93.67 66.89"/><path class="cls-3" d="M93.77,66.91l-.1,0S93.72,67,93.77,66.91Z"/><path class="cls-3" d="M94.54,65.78c0-.06,0-.08-.07-.1a.09.09,0,0,0-.08,0l-.08.13C94.43,66,94.5,65.93,94.54,65.78Z"/><polygon class="cls-3" points="93.24 66.82 93.24 66.82 93.24 66.82 93.24 66.82"/><path class="cls-3" d="M93.1,66.61v.06s0,.06,0,.08a.19.19,0,0,0,.14.07h0c0,.1-.21,0-.26.16a.84.84,0,0,0,.47,0c0-.06.13-.06.16-.14-.16,0-.12-.2-.23-.26S93.19,66.61,93.1,66.61Z"/><path class="cls-3" d="M94.6,66.27l.07.07s0,0,.07,0h.07v-.14h-.07a.14.14,0,0,0-.15,0h0A.06.06,0,0,0,94.6,66.27Z"/><path class="cls-3" d="M95.26,65.52a.69.69,0,0,0-.4-.24s0,0,0,.08h0c.09.07,0,.21.13.25a.11.11,0,0,0,.08,0h.14S95.29,65.55,95.26,65.52Z"/><path class="cls-3" d="M90.6,62.06a2.11,2.11,0,0,0,.55.25s.07.06.1.09.25.08.2-.13,0-.22-.21-.21h0L91.11,62c-.18-.08-.33-.22-.55-.16S90.49,62,90.6,62.06Z"/><path class="cls-3" d="M84.28,105.77l0,.06-.06.09a.33.33,0,0,0-.06.1.6.6,0,0,0-.06.19.11.11,0,0,0,0,.07c.11.09.14,0,.21-.07s0-.25.14-.35.12-.19-.07-.2l0,0A.7.7,0,0,0,84.28,105.77Z"/><path class="cls-3" d="M85.81,101.46l.06,0s0-.12-.08-.1S85.76,101.42,85.81,101.46Z"/><path class="cls-3" d="M86.67,93.93l-.09-.2h0a1.85,1.85,0,0,0-.14-.14h-.07c-.07,0-.06.12-.06.2h0c.08,0,0,.13.06.19a.09.09,0,0,0,.06.06l.08,0h.09A.1.1,0,0,0,86.67,93.93Z"/><path class="cls-3" d="M21.26,72.19c-.08-.08-.15,0-.21.09l-.05,0h-.06c-.11.1-.22.18-.22.34a.44.44,0,0,0-.22.07l-.05,0s-.08.07-.06.11.08,0,.13,0h.06l.06,0,.07,0a.13.13,0,0,0,.05-.06.19.19,0,0,0,0-.08l0,0a.06.06,0,0,0,.08,0l.05,0a1.25,1.25,0,0,1,.3-.26C21.22,72.35,21.37,72.31,21.26,72.19Z"/><path class="cls-3" d="M24.09,69.8l0,0a.2.2,0,0,0,0-.08.47.47,0,0,0,0-.17.2.2,0,0,0,0-.08s0,0,0,0,0,0-.05,0H24v.07s-.05,0-.06.07l-.09.12h0c-.29.18-.24.52-.48.77l.26-.07h0a.46.46,0,0,0,.07-.07c.1-.09.16-.21.29-.27a.51.51,0,0,0,0-.21s0,0,0-.06A.07.07,0,0,0,24.09,69.8Z"/><path class="cls-3" d="M23.29,69.71l-.06.08-.08.06c0,.18.12.11.21.07S23.38,69.76,23.29,69.71Z"/><path class="cls-3" d="M82.29,93.45h-.05a.17.17,0,0,1-.08-.06h0a.19.19,0,0,0-.08.15c.07.09.12.19.26.18S82.29,93.53,82.29,93.45Z"/><path class="cls-3" d="M65.54,63c.16.06.29,0,.37.13a.3.3,0,0,0,.16-.15.44.44,0,0,1,.07-.27c.1-.18.07-.27-.14-.4,0,.13-.06.26-.08.4S65.88,63,65.54,63Z"/><path class="cls-3" d="M71.94,61.86v-.67l-.16.11v.47c0,.17-.06.35.08.5A.25.25,0,0,0,71.94,61.86Z"/><path class="cls-3" d="M68.06,64.53a2.44,2.44,0,0,0,0-.27h0c-.08,0-.11,0-.14.08a.54.54,0,0,1-.07.27C68,64.67,68,64.65,68.06,64.53Z"/><path class="cls-3" d="M61.28,64.88c.06,0,.13,0,.11.09s.07.13.1.19a.74.74,0,0,0,.21,0c.07-.11,0-.2-.07-.28a.74.74,0,0,1-.15-.26C61.18,64.61,61.15,64.64,61.28,64.88Z"/><polygon class="cls-3" points="40.39 52.81 40.39 52.81 40.39 52.81 40.39 52.81"/><path class="cls-3" d="M40,52.41h0c-.06,0,0,.09,0,.13h0a.46.46,0,0,0,.07.07h0l.21.15s.11,0,.15.06l.08-.08a.13.13,0,0,1,0-.06C40.37,52.48,40.16,52.49,40,52.41Z"/><path class="cls-3" d="M13.78,83.32l-.14.13a.07.07,0,0,0,0,0C13.85,83.5,13.86,83.49,13.78,83.32Z"/><path class="cls-3" d="M15.34,84.83l0,0c-.09-.12-.21,0-.31,0l-.06,0v.14a.34.34,0,0,0,.31.11C15.35,85,15.42,85,15.34,84.83Z"/><path class="cls-3" d="M10,98H9.93c-.06,0,0,.1-.08.13v.07a.14.14,0,0,0,.14.06h0s0-.11.07-.14A.14.14,0,0,0,10,98Z"/><path class="cls-3" d="M9.7,98.55a.13.13,0,0,0,.15.14,1.34,1.34,0,0,1,0-.2C9.75,98.37,9.72,98.46,9.7,98.55Z"/><path class="cls-3" d="M11.5,106.07c-.08-.18-.15-.37-.22-.55l-.14.07a.13.13,0,0,0,0,.06s0,0-.07.08H11c0,.05,0,.11.05.11s.16.05.12.17,0,.08,0,.12h.07a.42.42,0,0,0,.29.07A.16.16,0,0,0,11.5,106.07Z"/><path class="cls-3" d="M92.59,74.23s0-.07,0-.07-.07,0-.06.09a.36.36,0,0,1,0,.09h0A.12.12,0,0,0,92.59,74.23Z"/><path class="cls-3" d="M94.17,77h0c.1-.15,0-.23-.11-.31C94,76.81,94.15,76.86,94.17,77Z"/><path class="cls-3" d="M95.31,91.52h0l-.08-.06c-.06,0-.12-.12-.21,0s0,.15,0,.21.11.18.24.18S95.31,91.62,95.31,91.52Z"/><path class="cls-3" d="M82.62,91.71c.09,0,.1-.06.11-.13a.21.21,0,0,0-.21-.13s0,.09,0,.13S82.53,91.71,82.62,91.71Z"/><path class="cls-3" d="M21,89.36a.08.08,0,0,0,.06.11c.07,0,.1,0,.13-.09a.72.72,0,0,1,0-.21c.11-.24,0-.46,0-.7a.1.1,0,0,0-.12-.09c-.06,0-.07.06-.07.1s0,.23,0,.35A.75.75,0,0,1,21,89.36Z"/><path class="cls-3" d="M22.38,87.26a.2.2,0,0,0-.09-.11c-.12,0-.22-.14-.35,0h0a.16.16,0,0,0,0,.07.09.09,0,0,0,0,.07s.05.09.08.14h.07a.24.24,0,0,0,.2,0A.19.19,0,0,0,22.38,87.26Z"/><path class="cls-3" d="M69.5,48.19c0,.07-.13.14,0,.21s.12-.07.19-.08a.1.1,0,0,0,.08-.13c0-.07-.09-.07-.14-.06A.52.52,0,0,0,69.5,48.19Z"/><path class="cls-3" d="M83.72,56.53c0-.13-.06-.19-.13-.27s0,.13-.07.2a.16.16,0,0,0,.07.07h0A.08.08,0,0,0,83.72,56.53Z"/><path class="cls-3" d="M24.25,68.23a.09.09,0,0,0-.07-.09c-.05,0-.09,0-.09.07s0,.09.07.1A.09.09,0,0,0,24.25,68.23Z"/><path class="cls-3" d="M27.5,66.13c.07.08.12,0,.17,0a.1.1,0,0,0,0,0c0-.15-.11-.11-.19-.07A.1.1,0,0,0,27.5,66.13Z"/><polygon class="cls-3" points="27.73 66.05 27.73 66.05 27.73 66.06 27.73 66.05"/><path class="cls-3" d="M27.81,65.8c.05.23.18.07.28,0h.06c.12.07.16-.06.25-.08a.41.41,0,0,0,.14-.12.1.1,0,0,0,0-.13.2.2,0,0,1-.15-.07.55.55,0,0,0-.43.27h0A.2.2,0,0,1,27.81,65.8Z"/><path class="cls-3" d="M27.3,66.38c-.06,0,0,.08,0,.11l.07-.08S27.33,66.35,27.3,66.38Z"/><path class="cls-3" d="M26.5,59.88s0-.07-.06-.07-.1,0-.12.09a.06.06,0,0,0,.07.07C26.46,60,26.5,60,26.5,59.88Z"/><path class="cls-3" d="M26.23,58c-.11,0-.05-.19-.18-.22s0,.27-.1.36a.58.58,0,0,0,0,.32c.13,0,0-.12.11-.15s0,.23.21.18A1.17,1.17,0,0,1,26.23,58Z"/><path class="cls-3" d="M36.88,49.63V49.5h-.14C36.65,49.68,36.8,49.63,36.88,49.63Z"/><path class="cls-3" d="M90.59,66.48h0c-.09.17-.33.09-.46.27h.39c.1,0,.18-.08.3,0s.06,0,.06-.09l-.07-.06C90.75,66.47,90.65,66.54,90.59,66.48Z"/><path class="cls-3" d="M92.31,63.43c0,.19,0,.22.22.28,0,0,.14,0,.07-.09s-.07-.17.09-.16,0-.05,0-.08l-.06-.08C92.54,63.32,92.35,63.18,92.31,63.43Z"/><path class="cls-3" d="M92,63h0l0,0v0c.1.15.2.19.31,0a.48.48,0,0,1,.11-.09c0-.08,0-.15-.13-.1A.44.44,0,0,1,92,63Z"/><path class="cls-3" d="M87.81,59.36h0c.1,0,.18.13.33.1C88,59.35,88,59.21,87.81,59.36Z"/><path class="cls-3" d="M84.54,105.46c0,.05,0,.1.07.09s0-.07,0-.11l0-.06h0S84.54,105.43,84.54,105.46Z"/><path class="cls-3" d="M18,77.3l.1.14a.28.28,0,0,0,.28.17c.05,0,.1,0,.14,0h0A.42.42,0,0,0,18,77.3Z"/><path class="cls-3" d="M19.07,77.3c.22-.06,0-.13,0-.2s-.21,0-.19.11S19,77.32,19.07,77.3Z"/><path class="cls-3" d="M20.14,77.17l0,.06.12.07s.1,0,.14.1a.11.11,0,0,0,.08,0,.15.15,0,0,0,.11-.2.16.16,0,0,0,0-.07.94.94,0,0,0-.15-.06h0l-.07,0h0C20.2,77,20.07,77,20.14,77.17Z"/><path class="cls-3" d="M77.44,74.91a.11.11,0,0,0,0,.08s0,.07,0,.11l.05.06h0a.57.57,0,0,1,.07.36c0,.14,0,.22.17.24h0a.15.15,0,0,0,.06.09h0V76l0,0h0c0,.1,0,.23.12.28a.39.39,0,0,0,0-.51h0l0,0c0-.11,0-.22-.06-.31a.61.61,0,0,1-.12-.15h0l-.06-.07-.16-.33C77.57,74.82,77.5,74.86,77.44,74.91Z"/><path class="cls-3" d="M85.59,95.94l-.15.13s-.18.09,0,.15a.36.36,0,0,0,.29,0h0c.07-.12.14,0,.22,0l0,0v-.06a.09.09,0,0,1,0-.05.91.91,0,0,0,0-.33H86l-.3.13Z"/><path class="cls-3" d="M63.52,71.41c0-.09-.09-.1-.16-.11s-.21,0-.23.16,0,.12.11.11A.36.36,0,0,0,63.52,71.41Z"/><path class="cls-3" d="M69.74,84.8c-.12.06-.07.19-.17.23l-.07.07-.08.06a.09.09,0,0,0,0,.09.24.24,0,0,0,.1.1h.1c.18,0,.1-.19.18-.26h0C69.77,85,69.83,84.89,69.74,84.8Z"/><path class="cls-3" d="M61.41,72.61c-.08-.18-.09-.18-.35-.06,0,.13.14.17.18.31C61.28,72.73,61.31,72.65,61.41,72.61Z"/><path class="cls-3" d="M66.23,78.26c0,.08,0,.17-.09.22a2.44,2.44,0,0,0,0,.27h0c0,.08-.06.17.06.21s.16.1.27.07c0-.2,0-.41.14-.57-.14-.07-.22.09-.32,0S66.32,78.32,66.23,78.26Z"/><path class="cls-3" d="M66.67,78.05c-.06.22.1.41,0,.63.14,0,.12-.11.13-.2s0-.29.07-.42,0-.25-.18-.23S66.7,78,66.67,78.05Z"/><path class="cls-3" d="M72.59,76.71a.08.08,0,0,0,.1.07c.1,0,.12-.1.12-.18s0,0-.08-.06S72.58,76.61,72.59,76.71Z"/><path class="cls-3" d="M83,91.17l.07.07c.1-.17.09-.21-.07-.28h0L83,91v.06A.46.46,0,0,1,83,91.17Z"/><path class="cls-3" d="M72.29,71.85a.84.84,0,0,1,.07.35c0,.11.1.23.25.15s.11-.18,0-.29,0,0,0-.07,0-.1-.07-.14l0,0s0,0,0,0a1.1,1.1,0,0,0,0-.18s0-.11-.05-.15h0c-.09-.06-.19,0-.27,0s-.16.07-.15.17S72.19,71.81,72.29,71.85Z"/><path class="cls-3" d="M71.71,84.27c-.11,0-.13.07-.14.16s0,.19-.07.25a2.18,2.18,0,0,0-.21.7l0,.12h0l0,0a.43.43,0,0,0-.07.35c0,.1,0,.19.2.12l.07-.07a1.11,1.11,0,0,1,.09-.4l0,0h.07a.13.13,0,0,0,0-.14h0a1.36,1.36,0,0,1,0-.49A2,2,0,0,0,71.71,84.27Z"/><path class="cls-3" d="M66.07,80.28a.17.17,0,0,1-.07.13c0,.14,0,.14.18,0s0,0,0,0a.14.14,0,0,0,0,.12c.11.05.16.18.28.21s.06,0,.07,0,.11-.22,0-.33-.14-.31-.36-.21C66.1,80.13,66.13,80.27,66.07,80.28Z"/><path class="cls-3" d="M71,86.88c-.22.07-.18.28-.24.43s0,.2.07.27.14,0,.21-.07a2.26,2.26,0,0,1,0-.26C71.1,87.12,71.17,87,71,86.88Z"/><path class="cls-3" d="M66.65,84.54l0-.12-.13.06s0,.09,0,.13,0,.28.16.35h0A.61.61,0,0,0,66.65,84.54Z"/><path class="cls-3" d="M69,82h0c.05,0,.12.17.15,0s0-.16-.06-.16S69,81.93,69,82Z"/><path class="cls-3" d="M65.18,67.68c.07.06.12,0,.17,0h0c-.06,0-.07-.13-.16-.07A.07.07,0,0,0,65.18,67.68Z"/><path class="cls-3" d="M65.92,63.23s0,.1,0,.06S66,63.24,65.92,63.23Z"/><path class="cls-3" d="M69.85,54.1c.05,0,.1,0,.15-.05s.11-.13,0-.22-.09,0-.13,0a.61.61,0,0,0,0,.12S69.79,54.06,69.85,54.1Z"/><path class="cls-3" d="M66,51.85l0-.09,0,0,0,.07Z"/><path class="cls-3" d="M38.46,61.23a.08.08,0,0,0,.06,0h.12l.07,0a.17.17,0,0,0,.1-.06l.08-.06c0-.08,0-.14-.08-.14l-.06,0a.58.58,0,0,1-.29.12Z"/><path class="cls-3" d="M42.75,59.44l-.16.05h-.13c-.09.11-.27,0-.36.13a.27.27,0,0,1-.07.08h0c0,.06.1.07.16.08a3.23,3.23,0,0,1,.63-.16C42.85,59.55,43,59.45,42.75,59.44Z"/><path class="cls-3" d="M10.63,97.17a.12.12,0,0,0-.14-.06l-.07.07C10.5,97.39,10.56,97.16,10.63,97.17Z"/><polygon class="cls-3" points="92.24 72.33 92.24 72.33 92.24 72.34 92.24 72.33"/><path class="cls-3" d="M92.08,72.1a3.73,3.73,0,0,0-.46-.09.2.2,0,0,0-.16.06c0,.11,0,.19.14.2s.16,0,.22,0l.06,0h.36C92.33,72.16,92.18,72.14,92.08,72.1Z"/><path class="cls-3" d="M92.44,73.19s0,0,0,0,.06.08.11.09h0C92.52,73.25,92.53,73.19,92.44,73.19Z"/><path class="cls-3" d="M91.17,72l-.37,0c.11.19.37.07.44.26.1,0,.16,0,.09-.14s-.06-.08-.09-.13Z"/><path class="cls-3" d="M90.36,72c0,.08.06.14.16.17s0,0,.07.06c.24-.07,0-.14,0-.21S90.42,71.86,90.36,72Z"/><path class="cls-3" d="M92.55,71.89c.13.21,0,.33-.16.44h0s.1,0,.14.07a.23.23,0,0,1,.15.07h0a.11.11,0,0,1,.15,0h0a.32.32,0,0,0,.09,0,.16.16,0,0,0,.1,0,.15.15,0,0,0,.1.11h0a10,10,0,0,0,1.24.11c-.07-.12-.2-.08-.26-.17l-.2-.08a2.12,2.12,0,0,0-.43-.06h-.28a.13.13,0,0,1,0-.06.68.68,0,0,0-.43-.13c-.11-.15,0-.37-.21-.5A.13.13,0,0,0,92.55,71.89Z"/><path class="cls-3" d="M92.25,79.07c0,.05,0,.08.09.07s0-.06,0-.09a.06.06,0,0,0-.05-.06C92.26,79,92.25,79,92.25,79.07Z"/><path class="cls-3" d="M16.15,86a.18.18,0,0,1-.15-.07l-.29.07h0c-.05,0-.06.09,0,.13s.21,0,.29.07a.38.38,0,0,0,.27-.07A.12.12,0,0,0,16.15,86Z"/><path class="cls-3" d="M78.37,55h0a1,1,0,0,0-.05.23s0,.08.08.1.08,0,.09,0,.26-.33.09-.57C78.49,54.84,78.49,55,78.37,55Z"/><path class="cls-3" d="M85,58.53l.07.07a.24.24,0,0,0,.29-.13h0a.46.46,0,0,1-.07-.07h0C85,58.34,85,58.34,85,58.53Z"/><path class="cls-3" d="M85.24,60.54h0l-.07-.06H85l0,0a0,0,0,0,1,0,0l-.08-.06c-.05-.06-.12,0-.19,0s-.16,0-.23,0h0a.06.06,0,0,0-.08,0h-.06a.24.24,0,0,1-.23,0h-.35c-.09,0-.14-.15-.24,0s0,0,0,.06.17,0,.26.06v.07l.12.08a.56.56,0,0,1,.18.07,3.09,3.09,0,0,0,1,.19C85.12,60.73,85.25,60.72,85.24,60.54Z"/><path class="cls-3" d="M80.81,58.75l.07-.07c0-.06,0-.11,0-.17s-.08-.07-.14,0a.13.13,0,0,0,0,.06C80.7,58.62,80.63,58.73,80.81,58.75Z"/><path class="cls-3" d="M81.59,58.6h.14v-.14C81.63,58.46,81.58,58.51,81.59,58.6Z"/><path class="cls-3" d="M83,60.12a.18.18,0,0,0-.07,0L82.8,60a1.13,1.13,0,0,0-.27-.13l-.12,0-.07,0a.34.34,0,0,0-.12,0h-.08a.34.34,0,0,1-.2,0,.24.24,0,0,0-.12,0s-.07,0-.1,0l-.08,0c-.19,0-.16.11-.08.22a.31.31,0,0,0,.18.09c.09,0,.19-.06.27,0a2.32,2.32,0,0,1,.38.07,1.37,1.37,0,0,0,.49.13c0,.05.1,0,.13.08h0C83.17,60.27,83.1,60.2,83,60.12Z"/><path class="cls-3" d="M82.94,59.92h0c.11.06.26,0,.36.14h0c.08,0,.14,0,.14-.13a.49.49,0,0,0-.49-.14S82.9,59.87,82.94,59.92Z"/><path class="cls-3" d="M79,57.22c.06,0,.13.09.17,0s.1-.23-.1-.25L79,57Z"/><path class="cls-3" d="M87.08,59.1c.18-.13-.08-.2,0-.31s-.1-.1-.17-.12c-.24,0-.24,0-.2.14l.07.06C86.85,59,86.88,59.15,87.08,59.1Z"/><path class="cls-3" d="M86.23,58.2c-.11,0-.15,0-.14.13l.08.06C86.37,58.39,86.27,58.28,86.23,58.2Z"/><path class="cls-3" d="M72.14,51.64a.13.13,0,0,1,.14-.07.51.51,0,0,1,.13-.24s.1-.09,0-.14a.12.12,0,0,0-.18,0c-.1.17-.31.24-.42.41,0,0,0,0,0,0s-.17,0-.09.15.11,0,.18,0S72.05,51.7,72.14,51.64Z"/><path class="cls-3" d="M72.36,50.81h0a0,0,0,0,0,0,.06h0l.08.06a.06.06,0,0,0,.06,0l.09-.13a.14.14,0,0,1,0-.06C72.46,50.66,72.41,50.74,72.36,50.81Z"/><path class="cls-3" d="M71.3,49.72c0,.06,0,.15.06.17s.12-.06.13-.13,0-.21-.13-.12Z"/><path class="cls-3" d="M28.52,62c.08,0,.06-.12,0-.18a1.51,1.51,0,0,0-.11-.22s-.05,0-.08-.06-.18.09-.06.33l.06.05C28.4,62,28.44,62.08,28.52,62Z"/><path class="cls-3" d="M27.09,67.68c.05.17.25,0,.38,0h.1a.41.41,0,0,0,.3-.1c.11-.19.32-.29.43-.48h.07c0-.1,0-.2-.07-.27,0-.23,0-.24-.22-.15s-.25.27-.42.35l-.22.34C27.28,67.43,27,67.49,27.09,67.68Z"/><path class="cls-3" d="M27,61.78l-.07-.07h0a.1.1,0,0,0-.14,0,.33.33,0,0,0,.07.27C27,62,27,61.88,27,61.78Z"/><path class="cls-3" d="M27.16,59.44s.07-.1,0-.15-.11,0-.16,0l-.08.07a.16.16,0,0,0,.16.15Z"/><path class="cls-3" d="M26.57,61s0,0,0,0,0,.13.1.14a.09.09,0,0,0,0-.06C26.65,61.05,26.66,61,26.57,61Z"/><path class="cls-3" d="M92.86,71.88l.38.19c.08,0,.17,0,.24,0a.3.3,0,0,0-.17-.18C93.18,72,93,71.8,92.86,71.88Z"/><path class="cls-3" d="M92.67,67.79h-.14v.13h.06c.12,0,.26,0,.37-.08h0C92.87,67.78,92.75,67.86,92.67,67.79Z"/><path class="cls-3" d="M90,66.88c-.23-.08-.42.08-.64.07a.17.17,0,0,0-.14,0,.09.09,0,0,0-.06.06.14.14,0,0,0,0,.17c.07.06.14.18.21,0s.44,0,.65-.06h0Z"/><path class="cls-3" d="M87.3,62.34c0-.05-.1,0-.14-.08h0l-.07-.06h0a.06.06,0,0,0-.09,0,.2.2,0,0,0,0,.08,1.75,1.75,0,0,0,.08.51.16.16,0,0,0,.06.08.11.11,0,0,0,.13,0c.06-.18,0-.37.07-.54Z"/><path class="cls-3" d="M91.09,63c-.07,0-.15,0-.2.06s.06.15.17.16S91.09,63.1,91.09,63Z"/><path class="cls-3" d="M91.69,63.26l-.09,0h0S91.64,63.32,91.69,63.26Z"/><path class="cls-3" d="M21.12,75s-.06,0-.1,0l-.07.12H21C21.05,75.09,21.12,75.1,21.12,75Z"/><path class="cls-3" d="M75.9,72c.09.16.2.2.36.1l-.11-.17c-.07,0-.06-.12-.09-.17s-.2-.17-.33-.05C75.79,71.81,75.85,71.9,75.9,72Z"/><path class="cls-3" d="M79,98.32l-.16,0a.29.29,0,0,0-.17.19c0,.07.1.07.16.08s.32,0,.47-.09C79.41,98.17,79.11,98.36,79,98.32Z"/><path class="cls-3" d="M79.58,96.89a1.64,1.64,0,0,1-.14.22c0,.06,0,0,.07.06s0,0,0,0,0,0,0,0h0c.06-.06.16,0,.21-.07h0c.19,0,.28-.13.08-.27h-.14S79.62,96.85,79.58,96.89Z"/><path class="cls-3" d="M82.65,97.31c-.17.11-.45,0-.57.21h0s-.06,0-.08.08h-.06v0l-.16.07-.19,0h-.16l-.08,0-.1,0a.44.44,0,0,1-.16,0,.09.09,0,0,0-.07,0c0,.11,0,.19.14.2a6.11,6.11,0,0,1,.87-.19c.15,0,.25-.17.42-.09s.15,0,.21-.07.19-.13.28-.2l0-.07c0-.06-.08-.15-.19-.14s-.11,0-.15.07Z"/><path class="cls-3" d="M85.05,95.64c0,.08.06.07.11.09h0c0-.06,0-.12-.09-.12S85.05,95.63,85.05,95.64Z"/><path class="cls-3" d="M70.5,89.45v.34h.07a.36.36,0,0,0,.06-.2C70.57,89.57,70.6,89.45,70.5,89.45Z"/><path class="cls-3" d="M65,81.16a.42.42,0,0,1-.21.08c0,.05-.11.09-.15.14s-.1.12,0,.17.1,0,.16,0,.27-.11.29-.28Z"/><path class="cls-3" d="M65.06,79.92s0,0,0,.07h.2c0-.15,0-.2-.19-.12C65.07,79.88,65.06,79.9,65.06,79.92Z"/><path class="cls-3" d="M66.49,74.75v-.13c0-.07,0-.16-.12-.05S66.36,74.75,66.49,74.75Z"/><path class="cls-3" d="M70.71,86.27a.32.32,0,0,1-.14.14c0,.15.11.14.21.13a.09.09,0,0,0,.07-.06l.08-.14A.14.14,0,0,0,70.71,86.27Z"/><path class="cls-3" d="M67.06,75.13s0-.11,0-.16-.18-.12-.2.06v.2C67,75.3,67,75.26,67.06,75.13Z"/><path class="cls-3" d="M67.06,74.75h.07v-.13s0-.1-.07-.14h0c-.16-.08-.22,0-.29.14l-.06.15c0,.12,0,.13.13.07S67,74.84,67.06,74.75Z"/><path class="cls-3" d="M71,86.34a.19.19,0,0,0,.21.13c0-.11.05-.23-.06-.32A.21.21,0,0,1,71,86.34Z"/><path class="cls-3" d="M72.42,61.44h0c.07,0,.16.12.19,0s0-.11-.12-.11S72.41,61.38,72.42,61.44Z"/><path class="cls-3" d="M72.79,53.43h0c-.06.06,0,.15-.07.21h0c0,.09,0,.19,0,.28V54a.44.44,0,0,0,0,.34h0a.11.11,0,0,0-.09,0c-.07.15-.14.29,0,.45a4.11,4.11,0,0,0-.1.41c0,.21,0,.43-.09.63a1.78,1.78,0,0,0-.08.76h.07l0,0s0,0,.07-.06a.16.16,0,0,0,0-.09,1.69,1.69,0,0,1,.07-.38,6.27,6.27,0,0,0,.18-1.37c0-.1,0-.21,0-.31a.1.1,0,0,0,0-.05h.06a2.43,2.43,0,0,0,.08-.47c.06-.06,0-.15.07-.21a1.34,1.34,0,0,1,0-.2c0-.06,0-.12-.08-.15h0S72.83,53.39,72.79,53.43Z"/><path class="cls-3" d="M70.92,52.84s0,0,0-.05,0,0,0,0,0,0,0,0S70.9,52.86,70.92,52.84Z"/><path class="cls-3" d="M31.76,63.81l.11-.05.08,0c.09,0,.1-.14.13-.22a4.31,4.31,0,0,1,.51-.62.13.13,0,0,0,.06-.07h0a.14.14,0,0,0-.13-.06h0l-.08,0a.71.71,0,0,0-.15.08c-.08,0-.17.06-.2.15s-.22.23-.3.36l-.09.14,0,0-.06.06-.06,0-.1.08a.22.22,0,0,0,0,.08.13.13,0,0,0,.07.09h.09l.11,0Z"/><path class="cls-3" d="M33.67,63.58a.15.15,0,0,0-.13-.07.2.2,0,0,1-.16.06c-.19,0-.25.13-.33.24s.05.1.11.11a.62.62,0,0,1,.43-.14A.15.15,0,0,0,33.67,63.58Z"/><path class="cls-3" d="M20.65,92.41v-.07a2.44,2.44,0,0,1,0-.27l0,0s0,0,0,0h.06s0,0,0-.07a.56.56,0,0,1-.08-.27h-.13c0,.19,0,.37,0,.55h-.06c0,.25,0,.28.21.27Z"/><path class="cls-3" d="M20.61,95.32a2.36,2.36,0,0,1,.63-.17.18.18,0,0,0,.07-.05c0-.15.11,0,.13-.11a.13.13,0,0,0,.06-.07c0-.17-.09-.17-.21-.1a.51.51,0,0,0-.24.13.35.35,0,0,1-.4,0v0a.2.2,0,0,0-.06-.13h0c.27-.06.12-.28.15-.43a8.83,8.83,0,0,1,0-.89,1,1,0,0,0,0-.24v0c0-.12-.14-.21-.06-.35s0,0,0-.06a.14.14,0,0,1-.06-.14c-.07,0-.11,0-.1.1a.39.39,0,0,1,0,.39,1.84,1.84,0,0,1-.11.9.2.2,0,0,0,0,.2.78.78,0,0,1,0,.34v.21c-.06.11.05.22,0,.34a.31.31,0,0,0-.06.13.36.36,0,0,0,0,.14.11.11,0,0,0,.1.09s.05,0,.07,0A.44.44,0,0,0,20.61,95.32Zm-.09-.67h0Z"/><path class="cls-3" d="M22.15,86h0s.05,0,.06-.08v-.13a.14.14,0,0,0-.22,0c-.06.08.05.11.09.15S22.13,86,22.15,86Z"/><path class="cls-3" d="M22.72,87.36a.2.2,0,0,1,.14-.06v-.06l0,0a.16.16,0,0,0-.17,0l0,0C22.65,87.24,22.63,87.32,22.72,87.36Z"/><path class="cls-3" d="M73.87,51.65v.13C73.94,51.74,73.94,51.69,73.87,51.65Z"/><polygon class="cls-3" points="71.71 52.19 71.71 52.19 71.71 52.19 71.71 52.19"/><path class="cls-3" d="M71.28,52.08a.2.2,0,0,0,0,.25c.06.06.15,0,.22,0a.25.25,0,0,0,.17-.11,1.19,1.19,0,0,1-.3-.46A2.84,2.84,0,0,1,71.28,52.08Z"/><path class="cls-3" d="M24.62,69.13c-.11,0-.12.08-.19.09h0s-.07.13,0,.11A.17.17,0,0,0,24.62,69.13Z"/><path class="cls-3" d="M28.73,65h0c.08.12.15,0,.22,0V65s0,0-.07,0h-.06Z"/><path class="cls-3" d="M25.94,68.61h0c-.06-.07-.13-.11-.18,0s.06.07.11.08h0Z"/><path class="cls-3" d="M31.6,69.37s0,.1,0,.13c.31-.13.5-.41.8-.55,0-.09.22-.18,0-.27h-.07A4.28,4.28,0,0,0,31.6,69.37Z"/><path class="cls-3" d="M32.87,68.32l-.06,0a.23.23,0,0,0-.07.07h0l-.08.06h0l-.07.07.08.08c.11,0,.22,0,.21-.15A.76.76,0,0,0,32.87,68.32Z"/><polygon class="cls-3" points="32.59 68.54 32.59 68.54 32.59 68.54 32.59 68.54"/><path class="cls-3" d="M29.84,65.55l0,.07v0c.07.08.12,0,.17,0s.05-.1.11-.13h0s.11,0,.13-.07h0a.23.23,0,0,0,.07-.07c.12-.09.13-.27.29-.33a.14.14,0,0,1,.13-.08.27.27,0,0,0,.08-.07h0c.05-.07.06-.16.11-.23s0-.17-.17-.1-.19.28-.35.34a.59.59,0,0,0-.31.17l0,.08a.4.4,0,0,1-.09.21l-.05.07a.47.47,0,0,1-.05.1Z"/><path class="cls-3" d="M29.37,66c0-.1.23-.18.08-.33h0l-.11.06-.11.08h0c-.06.1-.09.18.08.21Z"/><path class="cls-3" d="M29.52,58.6l-.15,0-.07.06c-.05.07-.12.06-.2.08a.29.29,0,0,0,.41.05A1.48,1.48,0,0,0,29.52,58.6Z"/><path class="cls-3" d="M91.73,71.73c-.1,0-.21,0-.13.12C91.69,71.85,91.74,71.82,91.73,71.73Z"/><path class="cls-3" d="M87.23,61.65s0,0,0,.05l.55.09c.17,0,.13-.12.08-.22h-.21C87.52,61.6,87.35,61.51,87.23,61.65Z"/><path class="cls-3" d="M79.9,102.94c-.05.1,0,.19.11.23s.14-.19.2-.29v0s0-.1-.08-.1S80,102.85,79.9,102.94Z"/><path class="cls-3" d="M84,101.23s0-.07,0-.11h0a.46.46,0,0,1-.07.07S84,101.24,84,101.23Z"/><path class="cls-3" d="M22.36,75.86l-.16,0c-.06,0-.12,0-.16,0s0,.1.05.15.21,0,.28-.07S22.36,75.88,22.36,75.86Z"/><path class="cls-3" d="M25,74c-.13,0-.24.08-.15.24s.17,0,.2,0,.29.08.44,0C25.44,74,25.2,74,25,74Z"/><path class="cls-3" d="M26.67,74c.07.1.15,0,.22,0a1.14,1.14,0,0,0,.35-.27c.23-.22.31-.56.55-.77,0-.11.09-.2,0-.35l-.36.43a.32.32,0,0,1-.1.18,2.14,2.14,0,0,0-.41.44h0l-.07.06a.24.24,0,0,1-.11.13C26.69,73.87,26.63,73.93,26.67,74Z"/><path class="cls-3" d="M77.07,94.7c-.08,0-.06.13-.06.2C77.2,94.88,77.13,94.79,77.07,94.7Z"/><path class="cls-3" d="M77.36,98.35a1,1,0,0,0-.5.13c0,.08.13.07.21.07S77.42,98.62,77.36,98.35Z"/><path class="cls-3" d="M78,98.15a.59.59,0,0,1,0,.13c0,.24,0,.24.25.13,0,0,0,0,.07-.06v0h.08a.7.7,0,0,1,.22-.2h.06c0-.06.07-.12,0-.13S78.24,98.14,78,98.15Z"/><path class="cls-3" d="M77.79,98.2l-.14,0-.07,0v.06h.24c.05,0,.09,0,.08-.07S77.83,98.22,77.79,98.2Z"/><path class="cls-3" d="M76.71,97.7a.09.09,0,0,0,.11-.07c0-.07,0-.09-.11-.11a.08.08,0,0,0-.1.06A.11.11,0,0,0,76.71,97.7Z"/><path class="cls-3" d="M80.71,101.4c-.16,0-.26,0-.26.18a.31.31,0,0,0,.19,0l.07-.06Z"/><path class="cls-3" d="M65.21,81.93c0-.12,0-.23,0-.34s-.13-.08-.18,0a.44.44,0,0,0,.11.47h0a.09.09,0,0,0,0-.11l0,0,0,0Zm-.08,0h0Z"/><path class="cls-3" d="M76.36,65.47s0,.07,0,.07.1-.05.1-.11,0-.09,0-.08S76.37,65.4,76.36,65.47Z"/><path class="cls-3" d="M65.77,88a.31.31,0,0,0,0-.1.2.2,0,0,0,0-.15.91.91,0,0,0-.23-.15.09.09,0,0,0-.09,0,.29.29,0,0,0-.07.18,1.3,1.3,0,0,0,0,.34,1,1,0,0,1-.06.55l0,.13a.14.14,0,0,0,0,.09.12.12,0,0,0,0,.07h0c.06,0,.11,0,.09.11a.92.92,0,0,0,0,.37c0,.12.11.12.21.08s.05,0,.06-.08h0c0-.07,0-.1-.06-.14s0,0,0-.06A2.6,2.6,0,0,1,65.77,88Z"/><path class="cls-3" d="M68.68,92.2h.1v-.06l-.06,0s-.09,0-.11,0S68.63,92.2,68.68,92.2Z"/><path class="cls-3" d="M68.52,92.49s0,0,0,0h0c0-.07,0-.15,0-.19a1.15,1.15,0,0,0,0,.19h0Z"/><path class="cls-3" d="M68.5,91.44c.11,0,.21,0,.22-.13s-.15,0-.22,0Z"/><path class="cls-3" d="M65.65,83.71c.09,0,0,.25.19.15a.66.66,0,0,1,0-.14C65.78,83.71,65.72,83.6,65.65,83.71Z"/><path class="cls-3" d="M60.64,75.38c0,.08,0,.11.12.11s.09-.15.07-.25A.16.16,0,0,0,60.64,75.38Z"/><path class="cls-3" d="M46.11,68.33a.31.31,0,0,0,.29.06.15.15,0,0,0,.09-.06.1.1,0,0,0,0-.13h0a5,5,0,0,1-.5-.29h0a.13.13,0,0,1-.07-.06l-.08-.07-.07-.07h0c-.13.06-.12.15,0,.24s.16.09.19.18h0l.08.06.08.07s0,0,.06.07Z"/><path class="cls-3" d="M54,67.31v0l.09,0C54.07,67.28,54,67.31,54,67.31Z"/><path class="cls-3" d="M31.08,64.47s0,0,0-.07,0-.1.07-.13h0a.24.24,0,0,0-.22-.15l-.21.07a.23.23,0,0,1-.07.07h0a.13.13,0,0,0,.14.07s0,0,0,0a.06.06,0,0,0,.05,0s.06,0,.06,0S31,64.46,31.08,64.47Z"/><path class="cls-3" d="M89.59,71.3a.1.1,0,0,0-.15,0,.07.07,0,0,0,0,.11h0s.1.07.14,0V71.3Z"/><path class="cls-3" d="M81.51,71.85h0c.06-.07.16,0,.22-.06v-.08h-.35A.19.19,0,0,0,81.51,71.85Z"/><path class="cls-3" d="M22.25,83.94c0-.07-.09-.14-.19-.12s0,.11,0,.17a1.05,1.05,0,0,0,0,.18l.12-.08C22.18,84.05,22.31,84.06,22.25,83.94Z"/><path class="cls-3" d="M78.87,59.3a.3.3,0,0,0,0,.1c0,.06-.06.14,0,.17s.13,0,.17-.08,0-.08,0-.13A.26.26,0,0,0,78.87,59.3Z"/><polygon class="cls-3" points="27.58 73.51 27.58 73.51 27.58 73.51 27.58 73.51"/><path class="cls-3" d="M27.57,73.54v0S27.54,73.53,27.57,73.54Z"/><path class="cls-3" d="M31.59,58.12c0-.09-.05-.13-.14-.13a.46.46,0,0,0-.07.07C31.43,58.14,31.51,58.13,31.59,58.12Z"/><path class="cls-3" d="M88.43,67.07h0s0,0,0,0h0Z"/><path class="cls-3" d="M89,67l0,0,0,0Z"/><path class="cls-3" d="M89.49,70.6s-.06,0-.11,0v.12C89.44,70.67,89.51,70.67,89.49,70.6Z"/><path class="cls-3" d="M80.68,104.3c.07.07.12,0,.18,0v0s-.1-.1-.18,0A.08.08,0,0,0,80.68,104.3Z"/><path class="cls-3" d="M77.58,104.21c0,.07,0,.2.11.14s.24,0,.24-.2h0a.23.23,0,0,0-.07-.07s0,0-.06,0l-.08.06Z"/><path class="cls-3" d="M23.3,74.61c-.06,0-.07-.11-.13-.09s0,.11,0,.15l.11.08h.05A.65.65,0,0,1,23.3,74.61Z"/><path class="cls-3" d="M72.36,98.69s-.11.07-.09.12.11,0,.16,0,0-.09,0-.13Z"/><path class="cls-3" d="M76.37,99.1a.28.28,0,0,0,.28,0c0-.06.07-.14-.06-.15A.19.19,0,0,0,76.37,99.1Z"/><path class="cls-3" d="M77.49,98.57c-.14,0-.27.08-.41.05s0,.14.07.2c.18,0,.23-.14.35-.2A.07.07,0,0,0,77.49,98.57Z"/><path class="cls-3" d="M73.5,99.1c0,.05-.1,0-.14.07h-.14l-.36.21c-.13,0-.25,0-.21.19s.17.13.29.07a1.82,1.82,0,0,1,.31-.16c.14-.07.37,0,.4-.25a.15.15,0,0,0-.15-.14Z"/><path class="cls-3" d="M79.23,103.37h.06s.08-.08.06-.14-.06,0-.09,0S79.19,103.32,79.23,103.37Z"/><path class="cls-3" d="M74.12,105a.26.26,0,0,0-.27,0,4.5,4.5,0,0,0-1.16.07.31.31,0,0,1-.33-.07c-.14,0-.08.11-.15.13a.62.62,0,0,1-.35.08c-.27,0-.52.09-.78.07,0,.25.19.19.34.2s.38.08.49-.12l.06,0a9.49,9.49,0,0,0,1.51-.06,1.18,1.18,0,0,0,.61-.16S74.19,105,74.12,105Z"/><path class="cls-3" d="M75.63,100s0-.05,0-.08l-.28.07c0,.17.12.09.19.11A.11.11,0,0,0,75.63,100Z"/><path class="cls-3" d="M62.06,83.51s0,.12.09.11a0,0,0,0,0,0,0C62.18,83.52,62.11,83.52,62.06,83.51Z"/><path class="cls-3" d="M77.93,71.1l0,.05c.19,0,.2,0,.14-.13A.15.15,0,0,0,77.93,71.1Z"/><path class="cls-3" d="M65.37,86.63a.07.07,0,0,0,.06.07,0,0,0,0,0,.06,0s0-.07-.06-.07S65.37,86.59,65.37,86.63Z"/><path class="cls-3" d="M59.47,78.84h-.11c-.09.08-.11.21-.23.26-.19.26-.16.32.13.34,0-.06,0-.15,0-.16C59.55,79.19,59.49,79,59.47,78.84Z"/><path class="cls-3" d="M60.55,77.93l-.07-.07c-.08,0-.18,0-.18.08s.05.19.17.18S60.55,78,60.55,77.93Z"/><path class="cls-3" d="M55.68,74l-.06-.13c-.1,0-.15,0-.14.14Z"/><path class="cls-3" d="M48.11,69.23c0,.1,0,.16.1.14s.49-.19.73,0l0-.09c-.13-.06,0-.21-.07-.27a.57.57,0,0,1-.36-.14c0,.11-.08.23-.25.2S48.12,69.13,48.11,69.23Z"/><path class="cls-3" d="M87,70.06h.06c.1-.1,0-.14-.06-.19h0C86.85,69.93,86.9,70,87,70.06Z"/><path class="cls-3" d="M82,71.24h-.07c-.07.08,0,.19-.06.27l.07.07h.13l.07-.07C82.32,71.31,82.08,71.32,82,71.24Z"/><path class="cls-3" d="M82.81,69.56s.11,0,.08-.09-.1,0-.15,0v0Z"/><path class="cls-3" d="M24.22,87.06l0,0s0,0,0,0,.05,0,.05,0S24.26,87.06,24.22,87.06Z"/><path class="cls-3" d="M37.18,84a.48.48,0,0,0-.16-.35,3.94,3.94,0,0,1-.36-.89c-.09.12,0,.26-.13.33-.05.22.18.33.23.52a1.46,1.46,0,0,0,.27.58C37.17,84.21,37.16,84.1,37.18,84Z"/><path class="cls-3" d="M37.87,86.29a.31.31,0,0,1-.06-.22,1,1,0,0,0,0-.29c0-.24-.17-.43-.21-.66a.1.1,0,0,0-.07,0h0l0-.11h-.06c-.05-.06-.1-.07-.15,0a.21.21,0,0,0,0,.31.63.63,0,0,1,.15.48.65.65,0,0,0,.08.27s0,0,0,.07l.09.21a.15.15,0,0,1,.08.12C37.81,86.39,37.84,86.35,37.87,86.29Z"/><path class="cls-3" d="M36.38,85.31h-.11c-.05,0-.13,0-.14.06s0,.1.09.13.26,0,.37-.06C36.55,85.35,36.42,85.39,36.38,85.31Z"/><path class="cls-3" d="M35.15,72.76H35c0,.12-.06.26.14.28S35.18,72.85,35.15,72.76Z"/><path class="cls-3" d="M26.59,79.51a.13.13,0,0,0,.14-.14.39.39,0,0,0-.29-.13c0,.13.06.2.15.27Z"/><path class="cls-3" d="M69.67,97.79s0,.07,0,.11.08,0,.14,0v-.07S69.7,97.78,69.67,97.79Z"/><path class="cls-3" d="M71.62,98.92c.22.06.22.06.24-.09C71.77,98.84,71.67,98.81,71.62,98.92Z"/><path class="cls-3" d="M69.24,102.33c0,.13-.14.18-.24.22l-.08.14c0,.09,0,.1.1.11h.1l.08,0c.13-.06.29-.06.36-.2l-.14-.13a.13.13,0,0,0-.07-.14S69.25,102.29,69.24,102.33Z"/><path class="cls-3" d="M73.44,101l-.07.06c-.07.11,0,.17.09.13s.27-.14.4-.2.1,0,.15-.07h0c-.06-.08-.14-.07-.22-.07a.15.15,0,0,1-.09.06Z"/><path class="cls-3" d="M75,105.21s0,.07.09.09l.07-.06C75.1,105.18,75,105.14,75,105.21Z"/><path class="cls-3" d="M60.67,91.49a.14.14,0,0,0,0,.23l.08-.13a.42.42,0,0,1,.06-.08h0C60.79,91.45,60.72,91.42,60.67,91.49Z"/><path class="cls-3" d="M65.35,88.21c0-.1-.1-.15-.2-.07s-.05.09-.07.14S65.31,88.38,65.35,88.21Z"/><path class="cls-3" d="M78.94,63.78c0,.1,0,.14.14.14A.13.13,0,0,0,78.94,63.78Z"/><path class="cls-3" d="M47,70.74a.28.28,0,0,0,0,.09.36.36,0,0,0,.07.1l0,0,.14-.06c.1,0,.26,0,.28-.14h0c-.14-.1-.38-.09-.34-.35-.07,0-.12,0-.17,0S47,70.64,47,70.74Z"/><path class="cls-3" d="M48,71.05s0,0,0,0,.06.07.11.09h0S48.05,71.05,48,71.05Z"/><path class="cls-3" d="M46,69.78h.1a.56.56,0,0,0-.05-.08s-.09-.06-.12,0S46,69.77,46,69.78Z"/><path class="cls-3" d="M47.05,69.37c0,.19.17.16.28.2.17-.14,0-.18-.08-.27l-.15-.13a.14.14,0,0,0-.06.13A.17.17,0,0,0,47.05,69.37Z"/><path class="cls-3" d="M21.65,96.89c-.07,0-.16,0-.23,0,.11,0,.2.06.29,0Z"/><path class="cls-3" d="M23.29,97.93c.06-.07,0-.16.08-.23v-.32h0c0-.09,0-.19-.12-.19a1,1,0,0,1,0,.17h0a.06.06,0,0,0,0,.09h0a0,0,0,0,1,0,.07v.13s0,.11-.07.14h0c0,.08,0,.22.14.14Z"/><path class="cls-3" d="M86.45,69.94h-.06s0,0,0,0a.1.1,0,0,0,.09,0S86.48,70,86.45,69.94Z"/><path class="cls-3" d="M26.22,92.89a1,1,0,0,0,0-.34c0-.06-.05-.06-.09-.07-.12.17-.07.4-.22.55h0c-.05.08-.06.16,0,.22s.15,0,.2-.07a.4.4,0,0,0,.07-.24Z"/><path class="cls-3" d="M84.37,66.34a1.14,1.14,0,0,1-.57-.28h0l-.08,0c0-.13-.26,0-.3-.16a.4.4,0,0,1-.06-.22c0-.06,0-.15-.13-.23,0,.23-.07.34-.29.38.19.23.5.19.65.4a4.44,4.44,0,0,0,1,.56c.07,0,.15,0,.2-.06l-.07-.07c0-.07-.14-.08-.2-.15A.47.47,0,0,1,84.37,66.34Z"/><path class="cls-3" d="M28.29,85.23l.07-.06c0-.13.15-.21.15-.34s0-.16-.14-.08-.41.21-.28.49h0A.15.15,0,0,0,28.29,85.23Z"/><path class="cls-3" d="M27.73,87.31l-.15.06a.09.09,0,0,0-.14,0c0,.06,0,.09.08.12h.21A.15.15,0,0,0,27.73,87.31Z"/><path class="cls-3" d="M37.38,84.61s0,0,0,0c-.18-.11-.2-.1-.21.11a.23.23,0,0,1,.07.14C37.34,84.77,37.29,84.65,37.38,84.61Z"/><path class="cls-3" d="M37,79c-.08,0-.12-.16-.22-.09s0,.16,0,.24v0H37A.19.19,0,0,0,37,79Z"/><path class="cls-3" d="M36.13,74.66l0,.06,0,0s0,0,0-.06Z"/><path class="cls-3" d="M70.71,99.72l-.14.07c-.3.11-.3.11-.43-.18,0,0,0,0-.14,0h0a.28.28,0,0,1,0,.29h0s0,0,0,.07h0a.17.17,0,0,1,0,0c0,.14,0,.19.15.14h0l0,0c.25.07.37-.12.54-.23l.12-.08.07-.06s.06-.1,0-.14S70.75,99.7,70.71,99.72Z"/><path class="cls-3" d="M70.64,101a.18.18,0,0,0,.29,0h.21s.22-.09,0-.14h-.28C70.7,100.76,70.66,100.84,70.64,101Z"/><path class="cls-3" d="M71,99.93h.25l.08-.06s.07-.07.08-.11,0,0-.08,0S71.14,99.81,71,99.93Z"/><path class="cls-3" d="M71.21,99.53H71c0,.06-.07.14,0,.18s.13,0,.18-.08S71.2,99.56,71.21,99.53Z"/><path class="cls-3" d="M67.35,102.28c-.16-.07-.31,0-.46,0a.35.35,0,0,0-.13.08.12.12,0,0,0,0,.14.09.09,0,0,0,.07,0s.11,0,.15-.06h.21c.08-.07.2,0,.29-.06l.42-.08c-.11-.19-.28-.07-.43-.06Z"/><path class="cls-3" d="M70.27,101.17c-.09-.11-.22,0-.34-.06s.07.15.18.11Z"/><path class="cls-3" d="M70.06,105.79c-.2,0-.34.12-.34.34s0,.15.14.12l.14,0a.53.53,0,0,1,.42-.21s0,0,0-.07.21,0,.25-.09-.08-.12-.13-.18h0a.3.3,0,0,1-.23.06h0l-.08.06h0s0,0-.06,0Z"/><path class="cls-3" d="M47.11,84.72c0,.06,0,.13-.07.18l0,0a.47.47,0,0,0,0,.26c0,.13,0,.29.15.36a.16.16,0,0,0,.09,0c0-.12-.12-.23,0-.35s0-.29.07-.41,0-.09-.07-.11S47.12,84.67,47.11,84.72Z"/><path class="cls-3" d="M56.12,89.79c0-.07.11-.14,0-.21h0a.14.14,0,0,0-.09,0,.57.57,0,0,1-.18,0l-.08,0-.21,0h-.59l.19.13c.14,0,.24,0,.22.2a.12.12,0,0,0,.07.14h.14v-.1l0,0,0,0a.2.2,0,0,1,.09,0c.07,0,0,.07,0,.11s-.09.17,0,.25h.19c.14,0,.34,0,.41-.11S56.11,89.94,56.12,89.79Z"/><path class="cls-3" d="M56.3,87.33l0,.09s.08.13.15.08.06-.17,0-.26v-.07h0l-.06-.08c0-.06,0-.12-.08-.19s-.06.18-.06.27S56.28,87.28,56.3,87.33Z"/><path class="cls-3" d="M51.29,89.19c-.14,0,0,.17,0,.25h0l.07.07h0c.08,0,.11,0,.14-.07v-.06C51.37,89.34,51.43,89.14,51.29,89.19Z"/><path class="cls-3" d="M58.33,87.3a.13.13,0,0,0,.11,0,.31.31,0,0,0,.09-.07l0,0c0-.08,0-.16-.07-.21a1.07,1.07,0,0,0-.29.27A.12.12,0,0,0,58.33,87.3Z"/><path class="cls-3" d="M60.58,92.13c0,.08.06.11.12.14h0l.07-.06h0c0-.06,0-.13-.12-.12S60.58,92.1,60.58,92.13Z"/><path class="cls-3" d="M60,92.75c0,.18.11,0,.16,0h0a.14.14,0,0,0-.07-.14h0a.27.27,0,0,1-.08.07S60,92.73,60,92.75Z"/><path class="cls-3" d="M60.93,91.8c0,.15.07.08.13.06A.1.1,0,0,0,60.93,91.8Z"/><path class="cls-3" d="M59.85,92.9c-.05,0,0,.1-.08.13h0a.16.16,0,0,1-.08.06h-.06c-.05,0-.09.06-.08.11s0,.05.08,0h.28c0-.08,0-.16.08-.21V93c0-.12-.05-.12-.14-.07Z"/><path class="cls-3" d="M48.54,76l0,0a.06.06,0,0,0-.05,0,.13.13,0,0,0-.15.14.09.09,0,0,0,0,.07s0,0,.05.06l.13,0A.28.28,0,0,0,48.54,76Z"/><path class="cls-3" d="M27.09,82.27a.09.09,0,0,0-.15,0s0,0,0,.06.1,0,.16,0Z"/><path class="cls-3" d="M23.43,96.81c0-.08-.05-.11-.13-.11v.19C23.36,96.89,23.42,96.89,23.43,96.81Z"/><path class="cls-3" d="M25.78,97.17a.51.51,0,0,1,0-.13.11.11,0,0,0-.15,0C25.65,97.12,25.68,97.17,25.78,97.17Z"/><polygon class="cls-3" points="25.65 97.04 25.66 97.04 25.66 97.04 25.65 97.04"/><path class="cls-3" d="M46.32,91.79h0a3.78,3.78,0,0,0,.21.56v.06c.22.31.22.31.23.48a.34.34,0,0,0,.36.33.21.21,0,0,0,.18-.17.21.21,0,0,0-.09-.23.07.07,0,0,0-.09,0h0a.18.18,0,0,0,.06-.17l0-.09a.26.26,0,0,0-.29-.21h0v-.1s0,0,0,0-.06-.15-.1-.21-.12-.37-.37-.37C46.29,91.67,46.27,91.72,46.32,91.79Z"/><path class="cls-3" d="M41.68,102.21a.17.17,0,0,1-.15-.06h-.07l-.07.07h0l.07.07h.17S41.72,102.27,41.68,102.21Z"/><path class="cls-3" d="M39.67,91.13c0,.31,0,.35,0,.36s.06,0,.06,0A.25.25,0,0,0,39.67,91.13Z"/><path class="cls-3" d="M25.47,94.72c0,.1-.1.2,0,.31l0,0c.07,0,.13,0,.18,0h0a.23.23,0,0,0,.07-.07c0-.06.29,0,.07-.19-.07,0-.16.08-.21,0S25.49,94.66,25.47,94.72Z"/><path class="cls-3" d="M40.18,101.72a.11.11,0,0,0,.13-.06C40.25,101.66,40.2,101.66,40.18,101.72Z"/><path class="cls-3" d="M44.1,87.94c.07,0,.24,0,.14-.14s-.29,0-.42-.09h-.28v0c-.07,0-.15,0-.23,0a.5.5,0,0,0,.24,0,.14.14,0,0,1,.14.07l.07.06h.06a.24.24,0,0,0,.2,0Z"/><path class="cls-3" d="M45.53,89.72l0,0a.35.35,0,0,1-.12-.19.32.32,0,0,0,0-.09.32.32,0,0,0-.26-.24h0a.16.16,0,0,0-.14.07l.22.41c.06.06,0,.15.07.21h0l.08.06C45.49,90,45.55,89.87,45.53,89.72Z"/><path class="cls-3" d="M41.83,87.92h.05l.07-.07v0l-.06-.08v-.14a.2.2,0,0,0,.21-.06c-.07,0-.13,0-.15-.12l-.08,0,0,0c-.08,0-.15-.11-.24,0h0l.06.26.06,0A.43.43,0,0,0,41.83,87.92Z"/><path class="cls-3" d="M40.63,79.29h0c0-.07,0-.15-.07-.19a.25.25,0,0,1-.15-.06c-.11.09-.09.18,0,.26v.07h.07v.06a.5.5,0,0,1,.15.26s0,.06.06.09h0c0,.09,0,.21.14.28s.07.11.15.13a.64.64,0,0,1,.08.33c.05.07,0,.16.06.22h0s0,.11.06.16.05.1.06.16a.07.07,0,0,0,.07.05.21.21,0,0,1,.29-.1h0a.28.28,0,0,0,0,.09,1.41,1.41,0,0,0,.17.32l.07.11a.25.25,0,0,0,0,.07.38.38,0,0,0,.17.24c.15,0,.22.11.29.21s.16.09.19,0-.13-.29-.2-.43l-.06-.08c-.13-.14-.17-.33-.29-.48h0L41.9,81c-.07,0-.13-.1-.22-.09s.07-.12,0-.15c-.21-.21-.34-.49-.61-.64h0a.54.54,0,0,0-.08-.35A.88.88,0,0,0,40.63,79.29Z"/><path class="cls-3" d="M66.28,104.62c0-.16-.1-.14-.21-.13S66.18,104.62,66.28,104.62Z"/><path class="cls-3" d="M47,86.59c.08.09.13,0,.18,0v-.14a.11.11,0,0,1,0-.14v-.14c-.11-.06,0-.22-.14-.27C46.82,86.09,47,86.34,47,86.59Z"/><path class="cls-3" d="M53.05,91.86l.06-.07c0-.23-.17-.11-.28-.07a.16.16,0,0,1,0,.07C52.88,91.88,53,91.86,53.05,91.86Z"/><path class="cls-3" d="M57.18,88c.07,0,.07-.06.09-.11s-.09-.14-.15-.21-.18,0-.18.12S57.08,87.93,57.18,88Z"/><path class="cls-3" d="M56.69,89.52c.05.07.08.16.17,0l0-.09s0-.11-.06-.15h0C56.68,89.36,56.7,89.44,56.69,89.52Z"/><path class="cls-3" d="M57.55,88.13h0s0,0-.08,0-.12,0-.12.09,0,0,0,0,.08,0,.12,0Z"/><path class="cls-3" d="M56.25,88.49c0,.05,0,.05.07.05a.09.09,0,0,0,.08-.1s0-.06-.07,0A.11.11,0,0,0,56.25,88.49Z"/><path class="cls-3" d="M56.48,89.1h0c.05.06.11.1.17,0a.07.07,0,0,0,0-.11C56.55,89,56.54,89.09,56.48,89.1Z"/><path class="cls-3" d="M55.56,90.56a.13.13,0,0,1,0,.06h0s0,.1.07.13.07.06.12.06,0-.07,0-.12,0-.14-.07-.21h0s0,0-.05,0S55.57,90.53,55.56,90.56Z"/><path class="cls-3" d="M49.34,101.44a.15.15,0,0,0,0-.13.29.29,0,0,0,0-.09,1.4,1.4,0,0,0-.2-.56c-.06,0-.11-.08-.18,0a.08.08,0,0,0,0,.07.12.12,0,0,0,0,.15c.09.34.18.69.3,1C49.38,101.74,49.3,101.58,49.34,101.44Z"/><path class="cls-3" d="M43.71,103s0,0-.06-.06-.13,0-.13.09,0,.05.07,0S43.72,103,43.71,103Z"/><path class="cls-3" d="M35,98.74c0-.1-.07-.13-.15-.15s-.1,0-.1.08.09.12.18.13A.06.06,0,0,0,35,98.74Z"/><path class="cls-3" d="M44.83,87.51h-.15v.07a.46.46,0,0,1,.07.07l.21.14a.1.1,0,0,0,0-.14A.27.27,0,0,0,44.83,87.51Z"/><polygon class="cls-3" points="44.97 87.79 44.96 87.79 44.96 87.79 44.97 87.79"/><path class="cls-3" d="M43.89,85.65h0c.15,0,.21,0,.15-.14h0C43.94,85.52,43.89,85.56,43.89,85.65Z"/><path class="cls-3" d="M43.31,84.49c0,.14.15.18.22.26s.14.23.28.3c0-.12-.07-.2-.06-.3a.09.09,0,0,0,0-.13h0c-.17-.06-.17-.25-.29-.34h0a.46.46,0,0,1-.07-.07h0a.47.47,0,0,0-.06-.09.13.13,0,0,0-.09-.05c-.16.14,0,.27,0,.41Z"/><path class="cls-3" d="M42.53,84.76h.1s0,0,0,0-.16-.15-.14-.27l-.08-.07C42.29,84.56,42.5,84.64,42.53,84.76Z"/><path class="cls-3" d="M44.89,87.93l-.21-.1a.13.13,0,0,0-.15,0c0,.06.07.07.09.12S44.86,88.17,44.89,87.93Z"/><path class="cls-3" d="M46.62,90.54l-.07-.07a.09.09,0,1,0,.07.07Z"/><path class="cls-3" d="M47.11,88.61a2.52,2.52,0,0,0,0,.55l.14-.06a1.48,1.48,0,0,1,0-.21C47.13,88.83,47.22,88.68,47.11,88.61Z"/><path class="cls-3" d="M47.25,88.27a.06.06,0,0,1-.06,0c-.12.11,0,.13.06.14S47.31,88.32,47.25,88.27Z"/><path class="cls-3" d="M42.65,82.72a.08.08,0,0,0,.05-.07c0-.05,0-.08-.09-.1s-.21-.25-.36-.34c0,.16.07.28.14.41l.07.06h0A.19.19,0,0,0,42.65,82.72Z"/><path class="cls-3" d="M40,78.56c.07.11.15.22.22.34.07,0,.08-.09.09-.16s-.07-.27-.22-.34S39.91,78.47,40,78.56Z"/><path class="cls-3" d="M51.83,105.11a.12.12,0,0,0-.08-.06l-.23-.07c-.13,0-.26-.12-.39,0s-.14,0-.16,0,.06.07.07.12a1.73,1.73,0,0,0,.5.07C51.64,105.16,51.75,105.21,51.83,105.11Z"/><path class="cls-3" d="M55.05,105.86c0,.06.09.07.15.08h0s0-.07.07-.07h.13l.08.06h0c.08-.05.07-.13.07-.2l-.28-.08c-.16-.07-.31-.19-.5-.08v0s0,0,0,0h0s-.09,0-.12,0,0,.14,0,.21h.14A.26.26,0,0,1,55.05,105.86Z"/><path class="cls-3" d="M56.05,105.8v.13h.2a.15.15,0,0,0,.16,0h0a1,1,0,0,0,.15-.14h0l.08-.07h0c0-.07,0-.1-.09-.08S56.19,105.66,56.05,105.8Z"/><path class="cls-3" d="M56.63,106a1.71,1.71,0,0,0,.64.07c0-.08,0-.1-.07-.14H57s-.11,0-.15-.06h-.07C56.74,105.93,56.59,105.86,56.63,106Z"/><path class="cls-3" d="M69.28,100.4l-.07,0a.15.15,0,0,0-.14,0l-.43.2-.07.07c-.11.08-.25,0-.36.06H68c-.06,0-.12,0-.14.06h0c-.11,0-.17.14-.29.13l-.08.07h-.07l-.07.07a.14.14,0,0,1-.15.06l-.35.07c-.09.05-.21,0-.28.07h0c-.13.19-.42.09-.55.28a.54.54,0,0,0,.56-.07.41.41,0,0,1,.27-.07h0c.07-.06.15,0,.22,0l.09,0c.1-.05.19-.12.32-.07s.18-.07.23-.16.31-.09.44-.2a.17.17,0,0,0,.15-.06.51.51,0,0,0,.34-.08s.09,0,.15,0h.06a.55.55,0,0,1,.38,0,1.17,1.17,0,0,0,.55-.19h-.07c-.1,0-.1-.13-.13-.21h0s0,0,0-.06-.12-.08-.19,0A.24.24,0,0,1,69.28,100.4Z"/><path class="cls-3" d="M55.69,105.8h0a.18.18,0,0,0,.29,0,.23.23,0,0,0-.07-.07,0,0,0,0,0,0,0,0,0,0,0,0,0,0h-.07Z"/><path class="cls-3" d="M56.23,101.79s0,.07.07.08h.1v-.06l-.06,0S56.25,101.73,56.23,101.79Z"/><path class="cls-3" d="M57.71,106c-.06,0-.11-.06-.16,0v.07h.06c.08,0,.17,0,.22-.06Z"/><path class="cls-3" d="M41.31,80.14c.08.08.12.21.27.24,0-.17-.07-.27-.12-.38H41.4C41.33,80,41.32,80.08,41.31,80.14Z"/><path class="cls-3" d="M49.76,91.3h0a0,0,0,0,0,0,0s0,0,0,0,.05,0,.07,0,.25,0,.34-.06a.86.86,0,0,0-.14-.13C49.79,91.08,49.79,91.08,49.76,91.3Z"/><path class="cls-3" d="M51.71,91.26s.07,0,.12,0v-.1c0-.06,0-.14-.09-.12S51.68,91.2,51.71,91.26Z"/><path class="cls-3" d="M56.84,89.93,57,90s0,0,0-.06a.33.33,0,0,0-.09-.21C56.72,89.74,56.86,89.86,56.84,89.93Z"/><path class="cls-3" d="M59.05,93.16a.62.62,0,0,0,.46-.07A.35.35,0,0,1,59.2,93h-.07C59.11,93,59,93.06,59.05,93.16Z"/><polygon class="cls-3" points="58.52 90.81 58.53 90.79 58.51 90.79 58.52 90.81"/><path class="cls-3" d="M67,97.44c-.06,0-.09.07-.07.13s.09,0,.14,0S67.11,97.43,67,97.44Z"/><path class="cls-3" d="M43.9,105s0,0,0,.06.14.34.21.5a.35.35,0,0,0,.14.2c.1-.08.06-.19.08-.29a1.83,1.83,0,0,1-.07-.53c0-.11-.1-.19-.16-.28H44C44,104.83,44.05,105,43.9,105Z"/><path class="cls-3" d="M47.32,95.6h-.11c-.06,0-.13,0-.14.06s.06.06.1.08l.09,0C47.34,95.74,47.33,95.67,47.32,95.6Z"/><path class="cls-3" d="M45.17,103.46l-.28-.08C45,103.54,45,103.55,45.17,103.46Z"/><path class="cls-3" d="M48.19,101.76c-.12,0-.14.08-.15.17H48a.06.06,0,0,0,0,.06c.13.11,0,.25,0,.37s.11-.08.18-.09a.45.45,0,0,0,.08-.27l0-.09C48.25,101.86,48.28,101.77,48.19,101.76Z"/><path class="cls-3" d="M47.6,92.69c-.08-.06-.05-.16-.07-.24s-.1-.1-.16,0a.33.33,0,0,0,0,.13,1.56,1.56,0,0,1,.14.48l.15-.13C47.61,92.83,47.61,92.76,47.6,92.69Z"/><path class="cls-3" d="M48.06,96.75h0a.46.46,0,0,1,.07.26,2,2,0,0,0,.13.58h0c.12.44.15.91.23,1.36.13.1,0,.27.14.36h0c0,.26.18.48.15.74l.06,0s0,0,0,.06a.11.11,0,0,0,.06-.13l0-.06a.31.31,0,0,0,0-.08,1,1,0,0,1,0-.17.29.29,0,0,0,0-.09,1.66,1.66,0,0,1-.11-.38.2.2,0,0,0,0-.08l0,0v0a.46.46,0,0,0,0-.2c0-.1,0-.2-.08-.3a3.15,3.15,0,0,0-.13-.61.82.82,0,0,1-.09-.34.28.28,0,0,0,0-.09.18.18,0,0,0-.05-.12h-.07a.19.19,0,0,0,0-.15,1.54,1.54,0,0,1,0-.43c0-.11,0-.23-.15-.25l0,0c-.07,0,0-.14-.12-.15A.5.5,0,0,0,48.06,96.75Z"/><path class="cls-3" d="M47.23,91.65s.07,0,.09.07a.16.16,0,0,0,.16-.06.28.28,0,0,0,.09-.19.16.16,0,0,0,0-.09,1.74,1.74,0,0,0-.11-.18l0,0c-.15.11,0,.31-.14.42h0A.07.07,0,0,0,47.23,91.65Z"/><path class="cls-3" d="M47,91.86v.06S47,92,47,92s.09-.06.09-.11v-.13H47A.1.1,0,0,0,47,91.86Z"/><path class="cls-3" d="M47.26,89.58a.13.13,0,0,0,0-.06c-.13.15,0,.31,0,.48A1.21,1.21,0,0,0,47.26,89.58Z"/><path class="cls-3" d="M47.68,88.34c-.07,0,0,.09,0,.14s.16,0,.16-.06S47.74,88.35,47.68,88.34Z"/><path class="cls-3" d="M50.25,104.91h0c.06,0,0,.1.09.12h0c.14-.06.21-.14.06-.26h0l-.08-.05a.16.16,0,0,0-.13.06Z"/><path class="cls-3" d="M50.62,94.35h0c0,.05-.18,0-.13.11s.17.06.27,0h0A.12.12,0,0,0,50.62,94.35Z"/><path class="cls-3" d="M51.85,93.86s0-.1,0-.14v-.06c-.13,0-.19.09-.29.13h0c0,.07,0,.13,0,.17a.1.1,0,0,0,.1,0h0A.26.26,0,0,0,51.85,93.86Z"/><path class="cls-3" d="M56.92,90.2a.86.86,0,0,0,.1.16l.09-.16C57.05,90.11,57,90.11,56.92,90.2Z"/><path class="cls-3" d="M57.47,91.66c-.1-.1,0-.23-.06-.35a.13.13,0,0,1,0-.06h0s0-.08,0-.12a.86.86,0,0,1-.1-.16h0l-.09.08a.18.18,0,0,0,0,.2.13.13,0,0,1,0,.06s0,.11.07.15v.13a4.05,4.05,0,0,1,.21.9v0a.31.31,0,0,0,0,.21l0,0c.08,0,.16,0,.12-.12a.26.26,0,0,1,.09-.36.22.22,0,0,0,.06-.19C57.52,92,57.52,92,57.47,91.66Z"/><path class="cls-3" d="M48,90.89v-.06a.14.14,0,0,0,0-.15c0-.06-.1-.16-.15,0s0,.11-.07.15a.13.13,0,0,1,0,.06s0,0,0,.07V91C48,91.13,48,91,48,90.89Z"/><path class="cls-3" d="M57.78,95.45a.19.19,0,0,0-.25,0c0,.1.06.16.09.24S57.76,95.55,57.78,95.45Z"/><path class="cls-3" d="M56.26,96.77s0,.1.07.1.07-.05.07-.1a.09.09,0,0,0-.08-.09C56.26,96.68,56.26,96.73,56.26,96.77Z"/><path class="cls-3" d="M51.86,94.26s-.09,0-.13,0a.24.24,0,0,0-.06.08c0,.05,0,0,.07,0s.16,0,.16.13-.08.13,0,.22a.88.88,0,0,0,.31-.39.83.83,0,0,1,0-.15c0-.09,0-.11-.1-.12S52,94.31,51.86,94.26Z"/><path class="cls-3" d="M51.68,95.72s0,0,0-.06a.46.46,0,0,1,.07-.07h0l.13-.13c-.06-.07-.14,0-.21,0s-.21.37-.39.51l.12.06.2-.15S51.65,95.76,51.68,95.72Z"/><path class="cls-3" d="M50.83,100.55c-.1-.1-.19,0-.29,0C50.7,100.74,50.74,100.74,50.83,100.55Z"/><path class="cls-3" d="M53.33,100.11v0a.1.1,0,0,0-.14,0h0c0,.11-.16.23,0,.34v-.06l.06-.08a.14.14,0,0,1,.06-.13Z"/><path class="cls-3" d="M47.85,91.4h0s0,0,0,0,0,0,0,0Z"/></g></g><g id="Icon_Chargeing" data-name="Icon Chargeing"><path class="cls-4" d="M50.72,83.86a1.29,1.29,0,0,0-.62-.37,1.12,1.12,0,0,0-.44-.06,1.17,1.17,0,0,0-.77.31,1.68,1.68,0,0,0-.43.66,1.56,1.56,0,0,0-.1.53,1.9,1.9,0,0,0,.06.5,1.62,1.62,0,0,0,.41.72,1.21,1.21,0,0,0,.61.32,1.1,1.1,0,0,0,.41,0,1.19,1.19,0,0,0,.44-.11,1.25,1.25,0,0,0,.43-.31,1.21,1.21,0,0,0,.35-.78c0-.22-.06-.33-.14-.32s-.11.12-.17.29a3.18,3.18,0,0,1-.28.55,1.26,1.26,0,0,1-.43.38,1,1,0,0,1-.57,0,1,1,0,0,1-.58-.34,1,1,0,0,1-.18-.31,1.68,1.68,0,0,1-.11-.4,1.29,1.29,0,0,1,0-.65,1.26,1.26,0,0,1,.47-.64l.13-.07.13,0,.19-.06a1,1,0,0,1,.52.09.6.6,0,0,1,.11.06,1.19,1.19,0,0,1,.18.15l.1.13a2.33,2.33,0,0,1,.28.59c.06.15.11.24.19.25s.12-.15.1-.38A1.13,1.13,0,0,0,50.72,83.86Z"/><path class="cls-4" d="M48.71,21.32a4.16,4.16,0,0,0-.48.09c-.14,0-.17,0-.31,0H46.84l-.33,0H46.2c-.18,0-.33,0-.52,0l-.47,0h-.28l-.66-.11a.94.94,0,0,0-.51,0,.29.29,0,0,0-.19.27c0,.1.09.19.22.24a1,1,0,0,0,.48,0l.47-.08c.18,0,.3,0,.47,0a5.21,5.21,0,0,1,.55,0,3.37,3.37,0,0,0,.58,0l.48,0,.62,0h1.14l.13,0a1,1,0,0,0,.51,0,.27.27,0,0,0,.19-.27c0-.09-.09-.18-.22-.22A1.09,1.09,0,0,0,48.71,21.32Z"/><circle class="cls-4" cx="53.25" cy="21.57" r="1.03"/><path class="cls-4" d="M61.84,87.58H37.46a6.39,6.39,0,0,1-6.38-6.39V25.67a6.38,6.38,0,0,1,6.38-6.38H61.84a6.38,6.38,0,0,1,6.38,6.38V81.19A6.39,6.39,0,0,1,61.84,87.58ZM37.46,19.79a5.89,5.89,0,0,0-5.88,5.88V81.19a5.89,5.89,0,0,0,5.88,5.89H61.84a5.89,5.89,0,0,0,5.88-5.89V25.67a5.89,5.89,0,0,0-5.88-5.88Z"/><path class="cls-4" d="M61.66,82.91H38a4.26,4.26,0,0,1-4.25-4.25V27.41A4.26,4.26,0,0,1,38,23.16H61.66a4.25,4.25,0,0,1,4.25,4.25V78.66A4.25,4.25,0,0,1,61.66,82.91ZM38,23.41a4,4,0,0,0-4,4V78.66a4,4,0,0,0,4,4H61.66a4,4,0,0,0,4-4V27.41a4,4,0,0,0-4-4Z"/><path class="cls-4" d="M67.72,35.12a1.1,1.1,0,0,1,1.1,1.1v5.36a1.1,1.1,0,0,1-1.1,1.1h0"/><path class="cls-4" d="M31.23,32.43a.58.58,0,0,1-.58-.59V29.49a.58.58,0,0,1,.58-.58h0"/><path class="cls-4" d="M31.23,39.54a.59.59,0,0,1-.58-.59V34.7a.59.59,0,0,1,.58-.59h0"/><path class="cls-4" d="M31.23,45.83h0a.58.58,0,0,1-.58-.58V41a.58.58,0,0,1,.58-.58h0"/><path class="cls-5" d="M49.51,35.46,40,51.36a.86.86,0,0,0,.73,1.3H60a.85.85,0,0,0,.73-1.3L51,35.46A.85.85,0,0,0,49.51,35.46Z"/><path class="cls-4" d="M49.67,48l-.92-5.27c-.29-1.58.35-2,1.59-2s1.88.43,1.6,2L51,48Z"/><circle class="cls-4" cx="50.31" cy="49.98" r="1.37"/><circle class="cls-6" cx="63.73" cy="71.47" r="15.66"/><path class="cls-4" d="M63.73,87.47a16,16,0,1,1,16-16A16,16,0,0,1,63.73,87.47Zm0-31.32A15.32,15.32,0,1,0,79.05,71.47,15.33,15.33,0,0,0,63.73,56.15Z"/><g class="cls-7"><path d="M59.42,74.57V68.1c0-.71.17-.93.88-1,.24,0,.24-.18.24-.35V63.26c0-.71.29-1,1-1H66c.67,0,1,.3,1,1,0,1.16,0,2.32,0,3.48,0,.26,0,.39.36.4.47,0,.7.33.7.87V81.09c0,.7-.26,1-1,1-.4,0-.8,0-1.2,0s-.38.11-.38.39q0,2.85,0,5.7c0,.55,0,.55-.56.55-.83,0-1.66,0-2.49,0-.33,0-.43-.12-.43-.43,0-1.91,0-3.82,0-5.73,0-.48,0-.48-.49-.48s-.8,0-1.2,0c-.65,0-.92-.33-.92-1Zm7.73,0q0-3.09,0-6.18c0-.31-.07-.43-.41-.43q-3,0-6,0c-.31,0-.41.07-.41.39q0,6.2,0,12.4c0,.32.11.39.41.39h6c.47,0,.47,0,.47-.45Zm-3.44-7.54h2c.24,0,.36-.07.35-.34,0-1.06,0-2.13,0-3.19,0-.25-.1-.33-.33-.33q-2,0-3.93,0c-.27,0-.35.1-.34.36,0,1,0,2.1,0,3.16,0,.26.09.34.35.34ZM64.55,85c0-.84,0-1.68,0-2.53,0-.25-.08-.37-.34-.36H63.3c-.23,0-.34.08-.34.33q0,2.56,0,5.13c0,.23.11.3.33.29s.61,0,.91,0,.36-.1.36-.36C64.55,86.64,64.55,85.81,64.55,85Z"/><path d="M63.63,73.94V72.71c0-.14,0-.29-.2-.29s-.23-.12-.14-.29.22-.38.32-.58.23-.19.34,0,.17.28.24.43.38.39-.09.47c-.1,0-.09.15-.09.25v1.86c0,.06,0,.15.06.19s.15,0,.21-.08a.51.51,0,0,0,.07-.83,1,1,0,0,1,0-.78c0-.21.28-.14.42-.13s.47-.12.51.15.22.64-.19.83c-.09,0-.09.12-.1.21a1.2,1.2,0,0,1-.66,1,.55.55,0,0,0-.33.59c0,.2,0,.4,0,.6a.54.54,0,0,0,.2.49.53.53,0,0,1,0,.78.58.58,0,0,1-.8,0,.54.54,0,0,1,0-.78c.27-.23.2-.5.21-.77s-.13-.25-.26-.3a.94.94,0,0,1-.66-.93.69.69,0,0,0-.2-.44.55.55,0,0,1,0-.81.52.52,0,0,1,.73,0,.57.57,0,0,1,0,.85.59.59,0,0,0,.18.93c.17.08.26.07.26-.15C63.63,74.79,63.63,74.36,63.63,73.94Z"/></g><line class="cls-8" x1="72.38" y1="58.46" x2="55.25" y2="84.75"/></g></svg>