<svg xmlns="http://www.w3.org/2000/svg" xmlns:xlink="http://www.w3.org/1999/xlink" viewBox="0 0 106 106"><defs><style>.cls-1{fill:none;}.cls-2{clip-path:url(#clip-path);}.cls-3{fill:#62bfb3;fill-rule:evenodd;}</style><clipPath id="clip-path"><rect class="cls-1" x="0.19" y="113.32" width="106.08" height="27.76" rx="4.5"/></clipPath></defs><title>webIcons</title><g id="BUTTONS-3" data-name="BUTTONS"><g class="cls-2"><path class="cls-3" d="M.1,72.85s.06-.1,0-.16a.17.17,0,0,0-.19,0,1.05,1.05,0,0,1-.52.1,1.49,1.49,0,0,1,.83-.18l0,.08s0-.05,0-.09a.43.43,0,0,1,.23-.14,5.21,5.21,0,0,1,1.71-.2c.1.06.21,0,.32,0a.08.08,0,0,0,.06-.08.18.18,0,0,0-.09-.12.75.75,0,0,0-.36,0c-.08,0-.06,0-.06-.07l.06-.05.14,0,.08,0h0l-.08,0h.07a.13.13,0,0,0,0-.06h.21c.28,0,.58,0,.79-.27h.06c.09,0,.24,0,.22-.15s-.13-.08-.21-.05a5.94,5.94,0,0,0-.72.21c-.1.09-.25,0-.36.07h0v.12l-.21,0a.25.25,0,0,0-.24.07h0c-.14,0-.28,0-.37.15s0,0,0,.05a.44.44,0,0,0-.2,0l-.07,0C1.15,72,1,72,.92,71.86s-.28-.08-.43,0-.12.12,0,.2-.06.15-.12.21l-.2.08a.13.13,0,0,0-.06,0H0L0,72.42H0a4.24,4.24,0,0,0-1,.21v.21c.16.23.4.22.65.2h.14A.27.27,0,0,0,.1,72.85Z"/><path class="cls-3" d="M105.75,84.57c0,.05,0,.11,0,.14s.15,0,.19-.07l.29-.42v-.14C106,84.18,106,84.45,105.75,84.57Z"/><path class="cls-3" d="M43.46,34.34c.08,0,.16.1.22,0s.08-.21.13-.31h-.36C43.55,34.11,43.46,34.22,43.46,34.34Z"/><path class="cls-3" d="M86.55,40.53c.08-.08.18-.15.09-.28a.1.1,0,0,0-.15,0C86.4,40.34,86.43,40.44,86.55,40.53Z"/><path class="cls-3" d="M97.25,62l-.09.11c.06.11.13.22.28.12l0,0s0-.06,0-.09.05-.11,0-.14S97.29,62,97.25,62Z"/><path class="cls-3" d="M49.88,43.11h0c-.09-.13,0-.34-.21-.42l-.07-.07c-.08,0-.23,0-.17.12a.94.94,0,0,0,.37.44C49.87,43.22,49.87,43.15,49.88,43.11Z"/><path class="cls-3" d="M104.24,86.22h0a.13.13,0,0,1-.07.06c-.12.1-.26.19-.3.35l-.06,0a.09.09,0,0,0-.06.06h0l0,.06a1.3,1.3,0,0,1-.51.42,1.75,1.75,0,0,0-.44.54l-.37.34a.18.18,0,0,1-.06.09h0s0,.1,0,.15h0a.11.11,0,0,0,.08,0l0,0,.08-.05.08,0,.41-.38a4.19,4.19,0,0,1,.54-.49c.08-.1.17-.18.25-.27a.24.24,0,0,0,.07-.12.46.46,0,0,0,0-.2c.1,0,.15,0,.22-.09l.1-.1c.15-.13.21-.31.37-.43h0a.26.26,0,0,1,.12-.23.71.71,0,0,0,.26-.31c0-.07,0-.1-.09-.08l-.2.14C104.6,85.83,104.33,86,104.24,86.22Z"/><path class="cls-3" d="M49.24,35.65s-.13-.08-.11,0a1.63,1.63,0,0,0,.11.31c.09.06.12.2.26.2a0,0,0,0,1,0,0C49.42,36,49.46,35.76,49.24,35.65Z"/><path class="cls-3" d="M105.75,96.23h.06c0-.08-.13-.06-.2,0S105.7,96.22,105.75,96.23Z"/><path class="cls-3" d="M2.32,77.25h.07c.08-.05.24-.06.1-.21s0,0,0-.08a.13.13,0,0,1,0-.06h0a.16.16,0,0,0-.09,0c-.07,0-.14,0-.2,0h0c-.06,0,0,.12,0,.19v0A.61.61,0,0,1,1.85,77c-.12-.08-.29.08-.44,0l0,0H1.26l-.17.09s.13,0,.16.11.23.08.36.07h.14c.15-.11.32-.06.48-.06Z"/><path class="cls-3" d="M104.63,69.87c.05.1.16.11.26.14a.45.45,0,0,1,.21.2.35.35,0,0,0,.32.18l0,0a1.48,1.48,0,0,1,0-.21V70c-.13,0-.26,0-.35-.12s-.23-.12-.35-.17S104.56,69.74,104.63,69.87Z"/><polygon class="cls-3" points="105.46 70.36 105.46 70.35 105.46 70.36 105.46 70.36"/><path class="cls-3" d="M105.6,70.56a.46.46,0,0,1,.07.07c.06,0,.09.07.19,0-.14-.11-.16-.33-.4-.3C105.41,70.49,105.54,70.5,105.6,70.56Z"/><path class="cls-3" d="M105.37,75.43a.14.14,0,0,0,0,.09,1.54,1.54,0,0,1,0,.3.29.29,0,0,0,0,.09c-.07.09.25.3-.1.29a.11.11,0,0,0,0,0,.07.07,0,0,0-.06-.07h0V76a.52.52,0,0,1-.09-.2c-.08-.08-.07-.2-.13-.28a.13.13,0,0,0-.15.14.33.33,0,0,0,0,.22.41.41,0,0,1,0,.22.3.3,0,0,1,0,.08c-.15.13-.19.24.06.3.08-.06.14-.15.26-.13h0c0,.13.06.25.23.26l0,.05a.49.49,0,0,0,.08.33,1.66,1.66,0,0,1,.21.59h0l0-.07a.39.39,0,0,0-.1-.08.11.11,0,0,0-.08,0,.16.16,0,0,0,0,.11s0,0,0,.08l0,.07a.36.36,0,0,0,0,.11.37.37,0,0,0,0,.11l.09.16c.06.07.09.2.21.14l.13.1a.16.16,0,0,0-.23.1.2.2,0,0,1,0,.07.61.61,0,0,0,.28.08c0-.07,0-.15,0-.22h0a.31.31,0,0,1,.21.07V78h-.06c0-.07,0-.15-.08-.2h0c0-.14-.09-.28-.14-.43s0-.21-.14-.27a.11.11,0,0,1,0-.06.06.06,0,0,1,0-.08v0a.3.3,0,0,1-.08-.22.62.62,0,0,0,0-.13c0-.11-.12-.22,0-.3s0-.22,0-.34-.09-.21-.07-.33,0-.14-.07-.21S105.43,75.32,105.37,75.43Z"/><path class="cls-3" d="M105.91,76.54a.41.41,0,0,0,0,.09.17.17,0,0,0,.08-.14s-.06-.11-.13-.08S105.89,76.5,105.91,76.54Z"/><path class="cls-3" d="M82.24,42.65a.48.48,0,0,1-.48,0l-.09,0-.18,0h0l0,0c-.05,0-.09.08-.05.15h0c.17.08.34.12.5.21l.08.07c.15,0,.33-.06.43.13.1,0,.21,0,.29,0s.2,0,.28-.09,0-.16-.07-.24H82.8c-.13-.09-.31-.11-.42-.22A.24.24,0,0,0,82.24,42.65Z"/><path class="cls-3" d="M82.49,42.56c0,.13.11.15.21.17a.18.18,0,0,0,.09,0s.15,0,.07-.14,0,0-.08-.07h0C82.68,42.49,82.57,42.45,82.49,42.56Z"/><path class="cls-3" d="M6.9,56.44A.54.54,0,0,0,6.83,56c-.07,0-.14-.06-.15.06a1.36,1.36,0,0,0,.08.49C6.84,56.55,6.89,56.52,6.9,56.44Z"/><path class="cls-3" d="M6.84,53.72c-.15-.07,0-.23-.15-.37,0,.2,0,.36,0,.52s.07.08.14.07A1.7,1.7,0,0,1,6.84,53.72Z"/><path class="cls-3" d="M12,47.63a.78.78,0,0,0,0-.22,1.07,1.07,0,0,0-.15-.37l-.09,0c-.06,0-.08.06-.11.1h0l.21.83C12,47.91,12,47.75,12,47.63Z"/><path class="cls-3" d="M12.2,49.09a.38.38,0,0,0-.08-.47L12,48.55a1.48,1.48,0,0,0,.08.69.17.17,0,0,1,.07.13C12.24,49.3,12.18,49.18,12.2,49.09Z"/><path class="cls-3" d="M12.76,55.18h0c-.24,0-.25,0-.15.21l.08.06h0C12.88,55.4,12.8,55.28,12.76,55.18Z"/><path class="cls-3" d="M10.69,34.74c0,.19,0,.37,0,.56.09-.07.05-.18.06-.27s0-.2.07-.27a.17.17,0,0,0,0-.21C10.71,34.56,10.69,34.64,10.69,34.74Z"/><path class="cls-3" d="M20.35,36.9a2.26,2.26,0,0,0,0,.26l.06.07a.2.2,0,0,0,.14-.13h0L20.49,37h0a.09.09,0,0,1,0-.13c.07,0,.07-.1,0-.14S20.34,36.8,20.35,36.9Z"/><path class="cls-3" d="M18.85,35.92v-.06h0a.1.1,0,0,0-.05,0s-.05.09,0,.1S18.84,36,18.85,35.92Z"/><path class="cls-3" d="M15,37.78c0,.07,0,.13.09.12a.11.11,0,0,0,.11-.14c0-.07,0-.14-.11-.13S15,37.72,15,37.78Z"/><path class="cls-3" d="M102.82,67V67a.66.66,0,0,1,.21.35c.09,0,.13,0,.13-.14h0s0-.09,0-.14a.39.39,0,0,0-.06-.21s-.11,0-.15-.06a.06.06,0,0,0-.07,0C102.84,66.87,102.86,66.93,102.82,67Z"/><path class="cls-3" d="M103.31,67.87a.16.16,0,0,0,.15-.07s0,0,0-.06-.11-.08-.13-.15h0C103.19,67.68,103.27,67.78,103.31,67.87Z"/><path class="cls-3" d="M98.38,64.49s0,0,0-.07c-.18-.17-.19-.17-.28,0v0a.1.1,0,0,0,0,.05s0,0,.06,0l.07,0h0Z"/><path class="cls-3" d="M97,63.32c0,.06,0,.08.06.08l.23.24a.15.15,0,0,0,.15.06c.08,0,.05-.12.07-.18a4,4,0,0,0-.51-.41C96.93,63.17,97,63.25,97,63.32Z"/><path class="cls-3" d="M101.81,63.94a.18.18,0,0,1,0,.1h0a.16.16,0,0,0-.09,0c-.15,0-.11-.19-.25-.17s.07.29,0,.45v0a.5.5,0,0,0,0,.12.43.43,0,0,1,0,.07.26.26,0,0,0,.11.12c.31,0,.05-.26.2-.32s.09.08.12.12l0,0,.08.06a.15.15,0,0,0,.17,0,.11.11,0,0,0,0-.08,0,0,0,0,1,0-.06.11.11,0,0,0,0-.07.17.17,0,0,0-.05-.15.07.07,0,0,0,0,0,.18.18,0,0,0,0-.07.15.15,0,0,0-.1-.09c.07,0,.12-.11.08-.19h0a.27.27,0,0,0-.07-.08h0C101.94,63.72,101.82,63.76,101.81,63.94Z"/><path class="cls-3" d="M4.19,72.78a.49.49,0,0,1,0,.12.15.15,0,0,0,.21,0h0C4.39,72.77,4.29,72.76,4.19,72.78Z"/><path class="cls-3" d="M12.05,76.5l0,0c.07,0,.14,0,.17,0s0-.09-.07-.12h0c-.08,0-.17,0-.22,0S12,76.44,12.05,76.5Z"/><path class="cls-3" d="M10.91,75.9l-.06,0a.05.05,0,0,0,.05.07s0,0,0,0S10.94,75.91,10.91,75.9Z"/><path class="cls-3" d="M9.61,71.18c.05,0,.13-.05.08-.14-.26-.1-.35-.06-.36.14h.28Z"/><path class="cls-3" d="M3.47,77A1.73,1.73,0,0,0,4.11,77a.77.77,0,0,1,.52,0,1.34,1.34,0,0,0,.21,0,2.68,2.68,0,0,1,.8.06A.22.22,0,0,0,5.9,77h.21a.13.13,0,0,0,0-.06h.51c.11,0,.08-.08.06-.14a1.63,1.63,0,0,1-.38,0,.8.8,0,0,0-.57,0H5.33c0-.09,0-.18-.15-.07a1.17,1.17,0,0,1-.2.06.22.22,0,0,1-.3-.19c-.07,0-.14-.26-.21,0,.08.14.1.24-.11.24l-.17,0c-.24-.08-.48,0-.72,0A.15.15,0,0,0,3.47,77Z"/><path class="cls-3" d="M54.46,43,54.41,43a.21.21,0,0,0-.08-.06c-.13,0-.14,0-.08.13h0c.06.09,0,.19,0,.29s-.08.35.06.51.15.1.24,0,0,0,0-.06,0-.24-.06-.35a.17.17,0,0,1,0-.07c-.08-.1,0-.24-.07-.34Z"/><path class="cls-3" d="M50.31,38.28c-.12,0-.21-.12-.34-.09a.42.42,0,0,0,.06.36,1.23,1.23,0,0,1,0,.47c0,.07,0,.15.09.17s.15-.07.16-.14A1.54,1.54,0,0,0,50.31,38.28Z"/><path class="cls-3" d="M79.35,37.79c0,.06-.09.11,0,.18a.09.09,0,0,0,.15,0c0-.05.1-.12.06-.18s-.12,0-.18,0Z"/><path class="cls-3" d="M80.15,41.17h.06c.15,0,.33.06.42-.13h0l-.07,0a.11.11,0,0,1-.08,0h0A.31.31,0,0,0,80.15,41.17Z"/><path class="cls-3" d="M82.07,42.48c.08,0,.16,0,.22,0s-.05-.06-.08-.09S82,42.3,82.07,42.48Z"/><path class="cls-3" d="M5.84,105.32a.15.15,0,0,0,0-.07l-.14-.08-.07,0h0c-.06,0-.06.08-.07.13l.07.07.07.07c.07.06.14,0,.22,0A.14.14,0,0,0,5.84,105.32Z"/><path class="cls-3" d="M3.25,104h0A.15.15,0,0,0,3,104h0v.13H3l.08.07C3.26,104.16,3.34,104.11,3.25,104Z"/><path class="cls-3" d="M.18,90c.08,0,.14,0,.13-.13S.1,89.8.18,90Z"/><path class="cls-3" d="M100.17,97.47c.1,0,.21,0,.2-.13h-.2Z"/><path class="cls-3" d="M100.16,96.77h-.06a.31.31,0,0,0-.12.43c.17,0,.17-.22.32-.23a.13.13,0,0,0,0-.06c.09-.08.13-.18,0-.25S100.18,96.68,100.16,96.77Z"/><path class="cls-3" d="M102.64,71.41a.15.15,0,0,0,0,.09l.1.08s.08.12.17.1l.14,0a.62.62,0,0,1-.07-.33l-.06,0c-.1-.11-.19-.08-.28,0A.3.3,0,0,0,102.64,71.41Z"/><path class="cls-3" d="M104.39,71.59c.07,0,.14.08.21,0s.23,0,.25.14.11,0,.17,0l.07-.07a.19.19,0,0,1,.14-.07v-.25l-.13,0c-.21-.13-.39,0-.57.07S104.26,71.45,104.39,71.59Z"/><path class="cls-3" d="M103.61,71.17h0a.11.11,0,0,0,.12,0c.06,0,0-.12.09-.16h0s0-.09,0-.14h-.21A.19.19,0,0,0,103.61,71.17Z"/><path class="cls-3" d="M54.53,35.78c0-.07,0-.13,0-.2v-.06c0-.12,0-.23,0-.35A.63.63,0,0,0,54.53,35.78Z"/><path class="cls-3" d="M0,72.08S0,72.15,0,72.2C.13,72.22.05,72.14,0,72.08Z"/><path class="cls-3" d="M105.54,78.21c.13,0,.09-.06.06-.13S105.49,78.14,105.54,78.21Z"/><path class="cls-3" d="M95.21,52c.13.09.17-.07.25-.11a.12.12,0,0,0,.05,0c.1-.15,0-.16-.13-.17a.2.2,0,0,1-.15.06C95.19,51.82,95.09,51.91,95.21,52Z"/><path class="cls-3" d="M102.81,67.74h-.07c-.08,0-.07.14-.07.21s0,.23,0,.34.1.18.12.28a.13.13,0,0,0,.09,0c.13,0,.22-.09.14-.24h0a.17.17,0,0,1,0-.21.46.46,0,0,1,.07-.07c0-.08,0-.16-.07-.21S102.87,67.8,102.81,67.74Z"/><path class="cls-3" d="M101.74,67.21c-.08-.06-.19-.15-.22,0l.21.28c.13,0,.29.08.29-.14h0A1,1,0,0,1,101.74,67.21Z"/><path class="cls-3" d="M101.74,67.87a.17.17,0,0,0,0,.07c.08,0-.06.22.13.21h0a1.77,1.77,0,0,0,0-.23C101.87,67.81,101.8,67.85,101.74,67.87Z"/><path class="cls-3" d="M100.46,66.28c.17.09.13,0,.13-.12S100.45,66.18,100.46,66.28Z"/><path class="cls-3" d="M98.52,64.84c0,.18.17,0,.22.13s.06-.08.06-.13a.21.21,0,0,0-.28,0Z"/><path class="cls-3" d="M95.45,61.72l.12.1,0,0h0a.05.05,0,0,0,0,0c0,.17.06.25.18.33l.15.07.05.06.09.14a1.19,1.19,0,0,0,.22.23c.06.05.1.11.16.15l.07.06.09,0c.15,0,.16,0,.1-.16a1.19,1.19,0,0,0-.15-.18.62.62,0,0,1-.14-.28.27.27,0,0,1-.21-.15.75.75,0,0,0-.29-.27l-.15-.13c0-.11-.12-.16-.2-.22S95.45,61.64,95.45,61.72Z"/><path class="cls-3" d="M104.18,69.45h0s0,0,.06.08a.23.23,0,0,1,.07.07s.06.11.14.07l.08-.07c0-.09-.14-.16-.15-.27l-.07-.07A.17.17,0,0,0,104.18,69.45Z"/><path class="cls-3" d="M104,69.24a.3.3,0,0,0-.17-.37C103.82,69,103.81,69.15,104,69.24Z"/><path class="cls-3" d="M.83,77.09s0,0-.07,0l-.08,0a.34.34,0,0,0,.1,0Z"/><path class="cls-3" d="M5.61,72.08a1,1,0,0,0-.8.2,2,2,0,0,0,.8-.13S5.65,72.1,5.61,72.08Z"/><path class="cls-3" d="M7.6,76.7l-.06-.07a.18.18,0,0,0-.15.07l0,.13a.34.34,0,0,0,.2-.06A.17.17,0,0,0,7.6,76.7Z"/><path class="cls-3" d="M10,76.57c.17.07.19-.09.31-.17a.6.6,0,0,0-.34,0h0C10,76.43,9.88,76.52,10,76.57Z"/><path class="cls-3" d="M11.21,76.43c-.06,0-.1,0-.12.09a.07.07,0,0,0,.09.07.11.11,0,0,0,.12-.09C11.31,76.44,11.26,76.43,11.21,76.43Z"/><path class="cls-3" d="M10.38,70.74a.1.1,0,0,0-.12,0,.93.93,0,0,0-.36.14l.09.08a2.87,2.87,0,0,0,.31,0A.1.1,0,0,0,10.38,70.74Z"/><path class="cls-3" d="M11.87,70.83l.33,0,.13-.15c0-.19-.17,0-.21-.13h-.06C12.07,70.69,12,70.75,11.87,70.83Z"/><path class="cls-3" d="M4.33,86.64s0-.08,0-.09-.26-.06-.37.08H4a.45.45,0,0,0,.36,0Z"/><path class="cls-3" d="M7.61,81.32c0,.2-.26.28-.28.49a.13.13,0,0,0-.06.07s0,0,0,.06.14-.06.22-.06.18-.13.24-.22a.41.41,0,0,0,.07-.11.08.08,0,0,0,0-.08c0-.09.13-.18,0-.25S7.68,81.3,7.61,81.32Z"/><path class="cls-3" d="M8.55,80h0a.12.12,0,0,1-.15,0H8.33c0,.14.06.3-.06.43l-.08.06c0,.09,0,.14.08.14h0a.1.1,0,0,0,0,0l0,0,0,0,0,0,0-.06s0,0,.05-.05.1-.09.06-.17V80s0,0,0,0S8.56,79.93,8.55,80Z"/><polygon class="cls-3" points="8.62 79.94 8.62 79.95 8.62 79.95 8.62 79.94"/><path class="cls-3" d="M78.36,41.73l-.12.06c-.07.08-.07.15,0,.2s.39.06.62,0c-.17,0-.3-.07-.26-.24h0a.21.21,0,0,0-.13,0,.26.26,0,0,0-.09,0Z"/><path class="cls-3" d="M77.44,40.08a.09.09,0,0,0,.1.11c.07,0,.15,0,.16-.09s-.06-.1-.15-.1A.1.1,0,0,0,77.44,40.08Z"/><path class="cls-3" d="M79.42,41.14v0L79.27,41h0c0,.11,0,.22.13.2l.07-.07Z"/><path class="cls-3" d="M99.46,83.79l.06,0s.13,0,.12-.09a.12.12,0,0,0-.14-.08C99.42,83.66,99.45,83.74,99.46,83.79Z"/><path class="cls-3" d="M96.08,88.35l-.13.08a.56.56,0,0,0-.36.07c0,.19,0,.19.21.14l.14-.08.43-.14s.11,0,.14-.06h0C96.37,88.23,96.22,88.31,96.08,88.35Z"/><path class="cls-3" d="M101.39,89.06c0,.17.17.09.27.06l0-.2-.09-.08-.06,0C101.52,89,101.42,89,101.39,89.06Z"/><path class="cls-3" d="M99.73,90.53a.4.4,0,0,1-.27.18c-.09.18-.34.12-.44.28a1.21,1.21,0,0,0-.43.47l-.78.63c-.06.07,0,.12,0,.16s.26-.09.35-.19a1.78,1.78,0,0,1,.6-.41c.11-.07.16-.18.25-.27s.2-.14.27-.23a.47.47,0,0,1,.1-.1.86.86,0,0,0,.38-.35,1.09,1.09,0,0,0,.36-.41c0-.06,0-.09-.08-.07A1.28,1.28,0,0,0,99.73,90.53Z"/><path class="cls-3" d="M99.18,94.93c0,.06,0,.13-.09.16a.12.12,0,0,0-.11.12.22.22,0,0,0,0,.08s0,.11.05.16a.2.2,0,0,0,0,.08l0,.08c.08.12.1.28.27.34a.17.17,0,0,0,.08-.14c0-.18-.16-.36,0-.55a.47.47,0,0,1-.07-.28,0,0,0,0,0,0-.06h0C99.31,94.82,99.24,94.8,99.18,94.93Z"/><path class="cls-3" d="M99.52,93.67v-.13C99.44,93.58,99.44,93.63,99.52,93.67Z"/><path class="cls-3" d="M99.74,97.54h0a.16.16,0,0,0-.24,0C99.58,97.56,99.66,97.52,99.74,97.54Z"/><path class="cls-3" d="M103,69h.08c0-.06,0-.14,0-.15s.1,0,.15.09l0,0c.13,0,.13-.11.21-.14v-.07l-.05-.05c-.15-.09-.29-.18-.44,0A.37.37,0,0,0,103,69Z"/><path class="cls-3" d="M104,70.29h.06l.09-.06s.06-.1,0-.14-.14,0-.19,0S103.9,70.27,104,70.29Z"/><path class="cls-3" d="M103.64,69.62s0,0,0,0,0-.16,0-.24A.15.15,0,0,0,103.64,69.62Z"/><path class="cls-3" d="M103.88,72.64a.79.79,0,0,0,.36.48c.07,0,.15.21.22,0-.17-.27-.21-.6-.44-.83s-.23,0-.34,0C103.62,72.47,103.8,72.53,103.88,72.64Z"/><path class="cls-3" d="M68.26,38a.46.46,0,0,0-.12.12l0,0c-.07.09-.15,0-.24,0a.17.17,0,0,0-.24.1l.06.07a.18.18,0,0,0,.2,0,.2.2,0,0,1,.23.06.18.18,0,0,0,.26,0h0c0,.16.19.1.3.12s.22,0,.3.06-.11.09-.11.17a.1.1,0,0,0,0,.07c.06,0,.15,0,.2,0h0c.21.1.17-.17.29-.2v.06l.07-.07h0c.15-.08.28.13.44,0l0,0a.22.22,0,0,0,.21,0h.58c-.13-.19-.35-.07-.46-.2h0c-.08-.09-.19,0-.29-.06s-.19-.1-.23-.2-.08,0-.1,0,0,0,0,.08-.1,0-.15,0l-.1,0a1.4,1.4,0,0,1-.28-.06,1.2,1.2,0,0,0-.53-.11.09.09,0,0,0,0-.05c-.09-.06-.11-.19-.22-.23Z"/><path class="cls-3" d="M9.9,69.73h0c-.06-.08-.28-.13-.06-.28h0a.1.1,0,0,1-.07-.07s0,0,0-.06a.49.49,0,0,0-.26-.1.12.12,0,0,0-.09,0,.13.13,0,0,0-.15.13c.15.05.31.07.3.28s.06.11.13.15S9.85,69.81,9.9,69.73Z"/><path class="cls-3" d="M104.45,74.85c.09,0,.07-.14.08-.22s-.15.05-.15.14A.27.27,0,0,0,104.45,74.85Z"/><path class="cls-3" d="M104.53,74.29a.15.15,0,0,0,.07-.14s-.09-.05-.12,0S104.47,74.25,104.53,74.29Z"/><path class="cls-3" d="M104.64,74.69c0,.1.12.19.18.29h.05a.05.05,0,0,0,0-.08v-.14c-.06,0,0-.15-.07-.2h-.07C104.67,74.58,104.59,74.59,104.64,74.69Z"/><path class="cls-3" d="M105.33,77.24c.1,0,.12,0,.13-.12l-.08-.12s0-.06-.06-.06-.07.06-.07.1S105.31,77.17,105.33,77.24Z"/><path class="cls-3" d="M95.45,53.45h.07c.19,0,.14-.14.2-.21v-.05C95.45,53.18,95.45,53.18,95.45,53.45Z"/><path class="cls-3" d="M17.49,53.31h0c-.13,0-.12.06-.07.14h0s0,.11.06.15l.23.47a.17.17,0,0,1,.07.14l.13.07a.49.49,0,0,1,0,.12c.08,0,.06-.08,0-.12s0-.14,0-.21a5.86,5.86,0,0,1-.28-.69S17.52,53.36,17.49,53.31Z"/><path class="cls-3" d="M32.24,51.44c0,.06,0,.07.1.07s.07,0,.07-.07,0-.08-.09-.09S32.23,51.39,32.24,51.44Z"/><path class="cls-3" d="M46,40.35l-.07-.14c-.16-.09-.15.07-.21.13s-.13.17,0,.18S46,40.52,46,40.35Z"/><path class="cls-3" d="M100.3,68.43a.13.13,0,0,0,.07-.14h0l-.06-.08-.07-.13c-.12-.18-.34-.12-.5-.2s-.06.07-.07.13.3.1.42.21h0a.1.1,0,0,0,.06.09h0a.08.08,0,0,0,0,0c0,.05.11,0,.13.08Z"/><path class="cls-3" d="M100.06,68.6a.07.07,0,0,0,.07-.06.09.09,0,0,0-.08-.1s-.09,0-.09.07A.12.12,0,0,0,100.06,68.6Z"/><path class="cls-3" d="M99.37,67.74a.29.29,0,0,0,.1,0,.06.06,0,0,0,0-.09s0-.06-.08,0,0,.06,0,.09A.17.17,0,0,0,99.37,67.74Z"/><path class="cls-3" d="M92.77,104.4q0,.09.09.09s.07,0,.07-.06a.08.08,0,0,0-.1-.09S92.78,104.39,92.77,104.4Z"/><path class="cls-3" d="M91.67,105.11a0,0,0,0,0,0,0,.22.22,0,0,0,.08-.18C91.65,104.93,91.64,105,91.67,105.11Z"/><path class="cls-3" d="M7,68l-.07-.07a.5.5,0,0,0-.14-.1.09.09,0,0,0-.07,0V68a.13.13,0,0,1,0,.06l.14.08C6.92,68.14,7.05,68.18,7,68Z"/><path class="cls-3" d="M20.32,72.41c.09,0,.11-.12,0-.2s-.16,0-.22-.06h0a.38.38,0,0,0,0,.48l.07-.07C20.2,72.48,20.26,72.45,20.32,72.41Z"/><path class="cls-3" d="M15.05,70.35h0s.11,0,.15-.06h.21a.73.73,0,0,0,.65-.33c.12-.19,0-.15-.14-.15-.32.11-.71-.07-1,.21l-.35.14a2,2,0,0,0-.22.09l0,0c.11.13.26.09.39,0A.42.42,0,0,1,15.05,70.35Z"/><path class="cls-3" d="M49,49.05c0,.16.14.21.33.25a.85.85,0,0,0-.17-.33.1.1,0,0,0-.12,0A.11.11,0,0,0,49,49.05Z"/><path class="cls-3" d="M57,41.2a.12.12,0,0,0-.18,0c-.11.11.06.13.09.2h0C57,41.33,57.06,41.3,57,41.2Z"/><path class="cls-3" d="M56.67,40.69c-.11-.09,0-.24-.14-.41v.42s0,.12.1.1S56.68,40.73,56.67,40.69Z"/><path class="cls-3" d="M56.61,39.65v-.07s-.11,0-.12,0a.16.16,0,0,0,0,.23h0S56.56,39.69,56.61,39.65Z"/><path class="cls-3" d="M49.33,56c.05.08.12.11.2,0s.09-.17.16-.17.17-.12.26-.18c-.07-.12-.18,0-.27-.06h0l-.08.07a1.16,1.16,0,0,0-.24.14A.13.13,0,0,0,49.33,56Z"/><path class="cls-3" d="M49,50.42c0-.1-.13,0-.2,0l.08.13C49,50.55,49.06,50.52,49,50.42Z"/><path class="cls-3" d="M45.11,46c-.15,0-.15.08-.16.17a2.82,2.82,0,0,0-.57.15.2.2,0,0,1-.14.06c-.14.1-.29,0-.44,0s0,.14-.07.21l.09.08.42-.15h.07c.16.07.32,0,.49,0,0,0,0,0,0-.06a3.29,3.29,0,0,1,.68-.14c.18,0,.35-.19.3-.27s-.22,0-.34,0S45.22,46.06,45.11,46Z"/><path class="cls-3" d="M45.24,45.72H45.1C45.15,45.8,45.2,45.79,45.24,45.72Z"/><path class="cls-3" d="M41.87,46.83l-.06.08c-.13,0-.31.13-.4-.09l-.11.08s0,.09,0,.14a.11.11,0,0,0,.05.13h.27A.23.23,0,0,1,41.8,47H42l0-.09c0-.07,0-.14,0-.17A.12.12,0,0,0,41.87,46.83Z"/><path class="cls-3" d="M42.66,46.27h0a0,0,0,0,0,0,.06c.1.08.19,0,.28,0C42.9,46.12,42.77,46.24,42.66,46.27Z"/><path class="cls-3" d="M44,46.21s0,0,0,0,0,0,0,0a0,0,0,0,0,0,0A0,0,0,0,0,44,46.21Z"/><path class="cls-3" d="M47.6,42.13c.08,0,.07-.11,0-.19C47.45,42,47.56,42.05,47.6,42.13Z"/><path class="cls-3" d="M44.23,43.65v-.19H44c-.05,0-.1.06-.11.13a.16.16,0,0,0,0,.07h0A.21.21,0,0,0,44.23,43.65Z"/><path class="cls-3" d="M42.24,45.46a.39.39,0,0,0,.06.26l0,0a.24.24,0,0,0,.17,0l.08,0h0c.07-.08.19-.15.07-.27a.51.51,0,0,0-.22.11C42.34,45.59,42.3,45.49,42.24,45.46Z"/><path class="cls-3" d="M46.12,40.84c-.06-.11-.16-.05-.24,0s0,.23.14.27S46.19,41,46.12,40.84Z"/><path class="cls-3" d="M60.7,40.68c.07,0,0,.17.12.21l0-.06c-.06-.08,0-.17-.06-.26A.13.13,0,0,0,60.7,40.68Z"/><path class="cls-3" d="M75.78,40.83s-.11.06-.1.13a.18.18,0,0,0,.1.14c.13.06.19-.13.23-.1s.14-.06.2-.11h0c-.09-.06-.21,0-.3-.06h-.13Z"/><path class="cls-3" d="M75.85,39.65c.05,0,.1,0,.11-.07a.1.1,0,0,0-.1-.11c-.09,0-.18,0-.28,0A.27.27,0,0,0,75.85,39.65Z"/><path class="cls-3" d="M5.77,102.89a.81.81,0,0,1-.09-.1c-.1.07-.06.18-.07.27h0a.1.1,0,0,1,0,.07s0,.05,0,.06h0C6,103.08,6,103.06,5.77,102.89Z"/><path class="cls-3" d="M96.74,87.4v.06c.05.08.1.15.2.07h0C96.94,87.39,96.86,87.37,96.74,87.4Z"/><path class="cls-3" d="M98.17,91.34c.15-.2.37-.36.42-.63a1.61,1.61,0,0,0-.5.35C98.08,91.16,98,91.28,98.17,91.34Z"/><path class="cls-3" d="M94.87,88.91l.08-.06V88.7H94.8C94.76,88.79,94.67,88.9,94.87,88.91Z"/><path class="cls-3" d="M97.37,87.06a.35.35,0,0,0-.28.06c0,.2.13.1.21.07Z"/><path class="cls-3" d="M94.5,84.42a.11.11,0,0,0-.06-.13c-.09,0-.16.14-.28.14l.07.14C94.36,84.6,94.43,84.51,94.5,84.42Z"/><path class="cls-3" d="M98,101.19h0s.09,0,.14,0l.07-.07c0-.13,0-.21-.2-.12A1.28,1.28,0,0,1,98,101.19Z"/><path class="cls-3" d="M73.66,39.71c0,.08.09.09.12.14a.12.12,0,0,0,.2,0c.1-.1,0-.13-.07-.19h-.07C73.78,39.67,73.69,39.63,73.66,39.71Z"/><path class="cls-3" d="M69,38.21l.08.07c.1,0,.22,0,.21-.14a.45.45,0,0,0-.28-.07A.11.11,0,0,0,69,38.21Z"/><path class="cls-3" d="M74.14,39.94c.08.26.13,0,.2,0v-.06c0-.07,0-.14-.12,0A.73.73,0,0,0,74.14,39.94Z"/><path class="cls-3" d="M102.74,70.7c0,.15.12.13.22.14h0a.14.14,0,0,0,0-.15l-.08-.06C102.8,70.59,102.77,70.64,102.74,70.7Z"/><path class="cls-3" d="M102.48,70.73c-.18,0-.37,0-.31.25h0c.08.07.2,0,.29.06h0a.23.23,0,0,0,.07.07h0l.12,0c.06,0,.15.06.15-.06s-.06-.09-.12-.09-.15,0-.15-.14Z"/><path class="cls-3" d="M102.61,71.66a.24.24,0,0,0-.16-.07s0,.07-.07,0,0,0,0-.08,0-.07,0-.1,0,0-.07-.06-.12-.14-.18-.21-.09-.08-.15,0a.11.11,0,0,0,0,.16.6.6,0,0,1,.19.49h0a.15.15,0,0,0,.11,0c.06,0,.07.07.1.1s.05-.2.21-.17S102.64,71.7,102.61,71.66Z"/><path class="cls-3" d="M71.33,40.43a.06.06,0,0,0-.06-.06c-.08,0-.12.05-.15.11a.13.13,0,0,1,0,.06l0,0s0,0,0,0S71.34,40.53,71.33,40.43Z"/><path class="cls-3" d="M9.91,68.18s-.06,0-.07.06.05.1.13.11a.08.08,0,0,1,0,0S10,68.18,9.91,68.18Z"/><path class="cls-3" d="M104.75,76l-.15-.14-.07-.06c-.09,0-.07.13-.07.2l.07.14h.29s0,0,0-.07Z"/><path class="cls-3" d="M81.55,56.36c0,.09.11.17.23.13s.11,0,.14-.07a.93.93,0,0,1-.14-.14h-.15C81.57,56.27,81.55,56.31,81.55,56.36Z"/><path class="cls-3" d="M86.14,57.45c0,.11.12.13.22.07s-.1-.14-.21-.13S86.12,57.43,86.14,57.45Z"/><path class="cls-3" d="M76.06,47.1l.07-.06c0-.09.13-.19-.06-.2S75.93,47,76.06,47.1Z"/><path class="cls-3" d="M16.34,64.28a1.43,1.43,0,0,1-.14-.2c-.18,0-.18.14-.28.28C16.08,64.32,16.23,64.53,16.34,64.28Z"/><path class="cls-3" d="M16.39,64.75s-.05-.09-.12-.1-.1.09-.1.15,0,.15.1.14A.18.18,0,0,0,16.39,64.75Z"/><path class="cls-3" d="M18,66a.19.19,0,0,0-.17-.22s-.09,0-.1.08.11.25.2.24S18,66.06,18,66Z"/><path class="cls-3" d="M13.76,60.28c.05.08.09,0,.14,0S13.8,60.22,13.76,60.28Z"/><path class="cls-3" d="M15.11,57.67h0c0-.07,0-.14,0-.21S15,57.3,15,57.19a.34.34,0,0,1-.14-.15.27.27,0,0,1-.07-.08h0s0,0,0-.06a.2.2,0,0,0-.13,0l-.05,0h0c0-.12-.06-.11-.14-.07l-.06,0a1,1,0,0,0,.41.61h0a.09.09,0,0,0,0,.06h0l.08.1a.05.05,0,0,1,0,0l.08.13C15,57.8,15.11,57.81,15.11,57.67ZM14.56,57h0Z"/><path class="cls-3" d="M10.77,61.87h0s0,.08.09,0Z"/><path class="cls-3" d="M18.12,58.07c0-.14,0-.27,0-.4-.21.16-.23.28-.06.47h0l.08-.07Z"/><path class="cls-3" d="M31.05,48.4a.79.79,0,0,0-.7.22l-.28.07c-.08,0-.1,0-.14.07a1.75,1.75,0,0,1-.64.14.24.24,0,0,1-.09.06h-.06s0,.05-.07.06h0c-.13,0-.29,0-.39.11.11.07.22,0,.32,0l.08-.06.14,0a.24.24,0,0,0,.16-.05h0l.12,0a.15.15,0,0,0,.15-.06c.14,0,.28-.07.42,0s.18-.17.32-.17a3.58,3.58,0,0,0,.45-.09,1.17,1.17,0,0,0,.37-.08C31.29,48.45,31.16,48.43,31.05,48.4Z"/><path class="cls-3" d="M36.43,47.38c.21-.22,0-.24-.15-.24s-.25,0-.33.12-.28.15-.43.2-.14.21.07.17.47-.12.7-.18h0A.61.61,0,0,1,36.43,47.38Z"/><path class="cls-3" d="M33.36,47.64c0,.11-.4,0-.14.23h.07a1.11,1.11,0,0,1,.39-.2.21.21,0,0,0,.18-.21.1.1,0,0,0-.14,0,.36.36,0,0,1-.29.14Z"/><path class="cls-3" d="M35.14,46.7h0s-.07,0-.08.06.09.1.16.05S35.16,46.73,35.14,46.7Z"/><path class="cls-3" d="M40,46.62a.84.84,0,0,1-.43.14,1.83,1.83,0,0,1-.57.14A0,0,0,0,0,39,47a.07.07,0,0,0,0,0c0,.07-.06,0-.08.07-.21.14-.48.18-.66.37h-.07s-.07,0-.08.07l.09.08c.09,0,.21-.06.26.08s.1.06.15,0a.38.38,0,0,0,.15-.18l0,0,0,0c.2-.11.42,0,.62-.05s.1-.41.39-.42l.06,0a.29.29,0,0,0,.2-.13h.06a.23.23,0,0,1,.07-.07h0C40.21,46.62,40.17,46.56,40,46.62Z"/><path class="cls-3" d="M40.1,47.59s0,.09,0,.14.13.07.21.06.05-.27,0-.41a.15.15,0,0,0-.14.07C40.1,47.48,40.13,47.55,40.1,47.59Z"/><path class="cls-3" d="M45.16,41.93a.71.71,0,0,0,0-.14l-.07-.08c-.18,0-.13.12-.08.22h0c.06,0,0,.17.13.14h0a.14.14,0,0,1,0,.06c.06,0,.13.26.2,0C45.3,42.07,45.28,42,45.16,41.93Z"/><path class="cls-3" d="M99.59,71s0,.06.07.1h.06c.06,0,.11,0,.16,0s.05-.13-.06-.14h-.1S99.6,70.94,99.59,71Z"/><path class="cls-3" d="M95.8,68.15a4.43,4.43,0,0,0,.8.27.18.18,0,0,0,.19,0,.15.15,0,0,1-.13-.08l-.08-.07c-.13-.07-.32,0-.42-.14L96.08,68H96a.17.17,0,0,0-.22,0h0A.1.1,0,0,0,95.8,68.15Z"/><path class="cls-3" d="M99.14,71.06c-.16,0-.28,0-.38.12C98.9,71.17,99,71.22,99.14,71.06Z"/><path class="cls-3" d="M98.88,70.84a.15.15,0,0,0,.07-.13c-.15,0-.15,0-.14.06a.46.46,0,0,1,.07.07Z"/><path class="cls-3" d="M101,70.7c-.11,0-.24-.14-.29.06s0,.15.07.21c-.1,0-.22,0-.26.13h0l.14.07.08-.07V71c.12.14.23.09.35,0s.12,0,.18-.11l-.18-.09A.13.13,0,0,1,101,70.7Z"/><path class="cls-3" d="M99.48,69.89a0,0,0,0,0,0,0c.09,0,.08,0,.09-.1S99.47,69.81,99.48,69.89Z"/><path class="cls-3" d="M93.73,65.87h0s0,0,0,0h0l.06-.07v-.06C93.76,65.73,93.65,65.71,93.73,65.87Z"/><path class="cls-3" d="M94.29,66.81v0h0s0,.06.07.08l.09,0h0s0,0,0,0,0,0,0,0,.12,0,.12-.07-.18-.2-.33-.19S94.28,66.78,94.29,66.81Z"/><path class="cls-3" d="M93,103.37c-.26-.08-.22.1-.22.24.13,0,.24-.08.38-.08s.22-.11.18-.26S93.16,103.41,93,103.37Z"/><path class="cls-3" d="M20.21,71.05s0,0,0,.06.09.16.2.14S20.37,71,20.21,71.05Z"/><path class="cls-3" d="M12.62,69.25c0,.1,0,.2.15.21a.06.06,0,0,0,.07,0s0-.06.07-.09a.06.06,0,0,1,.06,0c.09-.1,0-.15-.07-.2h-.13s-.11,0-.15.06Z"/><path class="cls-3" d="M13.2,70.15h0a.38.38,0,0,0-.36,0A1.45,1.45,0,0,0,13.2,70.15Z"/><path class="cls-3" d="M13.34,70c0,.07.08.07.14.07S13.39,70,13.34,70Z"/><path class="cls-3" d="M59.32,55.66s-.08,0-.11,0l-.13.24a.14.14,0,0,0,0,.09c.06.11.15.12.24,0l.08-.13C59.39,55.84,59.44,55.73,59.32,55.66Z"/><path class="cls-3" d="M53.82,51.93s0-.1-.08-.13h0a.08.08,0,0,0-.13,0h0a.45.45,0,0,0-.08.27c.15.13.25,0,.36-.06Z"/><path class="cls-3" d="M51.41,52.8c.08-.09,0-.17.05-.24C51.24,52.6,51.3,52.69,51.41,52.8Z"/><path class="cls-3" d="M58.26,41.24c.11,0,.15.18.3.18s-.05-.26-.09-.38C58.26,41,58.25,41,58.26,41.24Z"/><path class="cls-3" d="M47.89,57.7a.12.12,0,0,0,.12.14c.13,0,.07-.11.08-.17h0C48,57.69,47.93,57.56,47.89,57.7Z"/><path class="cls-3" d="M48.89,59a.11.11,0,0,0,0,.08c0,.08.12.1.18.15h0l.07.07a.32.32,0,0,1,.15.13.12.12,0,0,0,.14-.13c-.1-.12-.2-.23-.29-.35s-.15-.08-.21-.14h0a.13.13,0,0,0-.07.14Z"/><path class="cls-3" d="M96.87,94.44c-.09,0-.17.06-.12.11.16.23,0,.27-.16.3l-.07.07c0,.06-.11.09-.09.17a1.57,1.57,0,0,0,.54-.22A.33.33,0,0,0,96.87,94.44Z"/><path class="cls-3" d="M97.67,94.43h0a.1.1,0,0,1,0,.14h0a.08.08,0,0,0,0,.14h0c.1.05.2.08.16-.1a.1.1,0,0,1,0-.11c0-.11-.05-.22-.07-.33C97.61,94.15,97.6,94.17,97.67,94.43Z"/><path class="cls-3" d="M96.31,93.68c0,.06,0,.11.09.12s.11-.06.12-.13S96.38,93.66,96.31,93.68Z"/><path class="cls-3" d="M97.44,92.43l.08.13.07,0a.66.66,0,0,0,0-.14s0-.1,0-.09S97.47,92.4,97.44,92.43Z"/><path class="cls-3" d="M98.06,91.45l0,0S98.07,91.43,98.06,91.45Z"/><path class="cls-3" d="M93.65,94.36V94.3c-.1,0-.2,0-.2.13s.12.16.16,0C93.61,94.39,93.64,94.38,93.65,94.36Z"/><path class="cls-3" d="M93.41,93.69a.09.09,0,0,0,0,0s0-.06,0,0,0,0,0,.05Z"/><path class="cls-3" d="M93.8,84.36h0c0-.06-.06-.13-.13-.16a.08.08,0,0,0-.08,0,.19.19,0,0,0-.08.28h.55C94,84.4,93.84,84.45,93.8,84.36Z"/><path class="cls-3" d="M97.8,92.92a.31.31,0,0,0,.09.19.15.15,0,0,0,0-.23S97.82,92.88,97.8,92.92Z"/><path class="cls-3" d="M72.48,40.35l.22.07c.08-.09.17-.17-.06-.16,0,0-.06,0-.08,0S72.45,40.28,72.48,40.35Z"/><path class="cls-3" d="M102.37,70.11c-.07.13.1.08.13.15s0,0,0,0h0c.07-.06.11-.13,0-.19S102.39,70.06,102.37,70.11Z"/><path class="cls-3" d="M101.74,71s.1,0,.14.06h0c.08-.06.11-.14,0-.19s-.15,0-.15.13Z"/><path class="cls-3" d="M103.45,72.84c-.1-.06-.14,0-.15.08a.13.13,0,0,1,0,.06s.06.06,0,.08-.06.21.08.24.22,0,.23-.18A.39.39,0,0,1,103.45,72.84Z"/><path class="cls-3" d="M69.24,50.17a.66.66,0,0,0,0,.58l0,0a.15.15,0,0,0,.13,0,.19.19,0,0,0,0-.13s-.08-.05,0-.07l.08,0c.21-.38.2-.52,0-.65h0s-.09,0-.13,0A.73.73,0,0,1,69.24,50.17Z"/><path class="cls-3" d="M68.58,49.44s-.06.05-.1.08l-.07.07c0,.06,0,.16.11.09s.07-.11.09-.17S68.63,49.44,68.58,49.44Z"/><path class="cls-3" d="M68.27,49v.06l.07.07.14-.07a0,0,0,0,0,0-.07h0s0,0-.06-.07h0C68.33,48.93,68.3,49,68.27,49Z"/><path class="cls-3" d="M103.67,73.67h0c0-.08,0-.18-.12-.24C103.51,73.56,103.51,73.65,103.67,73.67Z"/><path class="cls-3" d="M81.62,54.68a.14.14,0,0,0,0,.06.1.1,0,0,0,0,.07l0,0h.15l.06-.07v-.13h-.18Z"/><path class="cls-3" d="M84.18,56.72l0,0a0,0,0,0,0,0,0s0,0,0,0S84.17,56.71,84.18,56.72Z"/><path class="cls-3" d="M84.65,60.6a.11.11,0,0,0,0,.08.16.16,0,0,0,.06.08.5.5,0,0,0,.12.08c.22.12.46.22.68.35a2.14,2.14,0,0,1,.3.17c.09,0,.18.09.25,0s.09-.19,0-.26h0a.36.36,0,0,0-.2-.11.42.42,0,0,0-.22,0l-.29-.21s-.11,0-.14-.07h0a.35.35,0,0,0-.42-.14Z"/><path class="cls-3" d="M74.63,51.24c0-.08,0-.16-.07-.2S74.54,51.19,74.63,51.24Z"/><path class="cls-3" d="M79.22,50.15a0,0,0,0,0,0,.05s.1.09.15,0,0-.12,0-.19l-.06,0A.12.12,0,0,0,79.22,50.15Z"/><path class="cls-3" d="M23.47,66.36c.05-.15,0-.2-.25-.21h0a.2.2,0,0,0,.14.26S23.45,66.42,23.47,66.36Z"/><path class="cls-3" d="M20.62,68.62l.26-.11c.12,0,.22-.07.16-.2s-.17-.06-.25,0-.25.12-.37.19C20.36,68.73,20.54,68.59,20.62,68.62Z"/><path class="cls-3" d="M15.52,69.61l-.26,0h0C15.33,69.68,15.4,69.69,15.52,69.61Z"/><path class="cls-3" d="M14.91,69.8v-.14h-.07C14.79,69.74,14.75,69.82,14.91,69.8Z"/><path class="cls-3" d="M20.07,68.77c.05.09.14.06.21.07h0C20.26,68.73,20.16,68.77,20.07,68.77Z"/><path class="cls-3" d="M19.76,56.28l0,0s0,0,0,0v0S19.76,56.31,19.76,56.28Z"/><path class="cls-3" d="M34.74,48.42a.32.32,0,0,0-.09,0l-.06.06v0a.56.56,0,0,0,.62,0c.15-.09,0-.11-.05-.17H35A1.19,1.19,0,0,1,34.74,48.42Z"/><path class="cls-3" d="M32.85,47.83l-.14,0h-.06l-.08,0c-.1,0-.2,0-.28.07h-.07a1.08,1.08,0,0,0-.66.27l-.11.06-.07.06a.18.18,0,0,0-.07.05l0,0,.14.13h.07a.48.48,0,0,1,.43-.2l.44-.21h.06a.25.25,0,0,0,.22-.05h0c.14,0,.3,0,.44-.06C33.08,47.86,33,47.75,32.85,47.83Z"/><path class="cls-3" d="M34.24,47.7c0-.06-.1,0-.16,0a1.57,1.57,0,0,1-.45.12c-.11,0-.07.08-.05.14h.14c.08-.07.2,0,.29-.07h0s.09-.06.14-.08S34.26,47.74,34.24,47.7Z"/><path class="cls-3" d="M31.44,48c-.06.06-.15,0-.22.06l-.07.13h0a.15.15,0,0,0,.21,0C31.37,48.13,31.56,48.14,31.44,48Z"/><path class="cls-3" d="M34.44,52.49a.25.25,0,0,1,.14.13.17.17,0,0,0,.06.12l.1.09c.08.07.2.11.28.19h-.19l-.1,0h0c0-.06,0-.12-.07-.17h0a.5.5,0,0,0-.13.19c-.08.16,0,.15.14.14h.08a11.21,11.21,0,0,0,1.42,0c.07,0,.22,0,.14.11s0,.23-.13.3l-.08.07h0a.28.28,0,0,1-.14.21c0,.08.12.06.2.05s.05-.27.21-.34l0,0a.16.16,0,0,0,0-.07v0c0-.09,0-.15.09-.21l.06,0a.22.22,0,0,0,.16-.15c0-.12-.06-.17-.19-.12a2.18,2.18,0,0,1-.84-.07V52.9a.17.17,0,0,0-.1-.06h-.11c-.14,0-.31,0-.38-.12s-.17-.06-.26-.09l-.08-.06h0c0-.05-.1,0-.14-.08h0l-.07-.07h0a.12.12,0,0,0-.15,0Z"/><path class="cls-3" d="M33.44,53.37l.14,0h0s0,0,0,0l.08-.06a.93.93,0,0,0,.49-.08c-.13-.13-.29,0-.43-.06h-.28C33.35,53.19,33.37,53.27,33.44,53.37Z"/><path class="cls-3" d="M32.14,53.31a.2.2,0,0,1,0,.07h0a.38.38,0,0,1,.14.14h0c.24.09.17-.11.21-.21s-.17-.13-.28-.07a.16.16,0,0,1-.07.07Z"/><path class="cls-3" d="M37.87,47.17c0-.09,0-.13-.14-.13s0,.15.06.2l.08-.06Z"/><path class="cls-3" d="M39.8,47.18h0l.16-.11C39.78,47.06,39.78,47.06,39.8,47.18Z"/><path class="cls-3" d="M101.48,70.19a.06.06,0,0,0-.06.07c0,.06.07.08.14.09h0s0,0,0-.06S101.55,70.19,101.48,70.19Z"/><path class="cls-3" d="M93.49,67.73a.18.18,0,0,0,.07,0l.21.07a.83.83,0,0,0,.16.09c.15,0,.22.13.3.24a.19.19,0,0,0,.08,0c.27,0,.15.21.24.31a.46.46,0,0,0,.24.17c.2,0,.26-.06.24-.21h0l.13.07c.1,0,.15.16.28.17h0c0,.21.17.23.34.25l0,0s0,0,0,0,0,0,0,0,0,0,.06,0l.07,0h0s0,0,0,0h.17a.29.29,0,0,0,0,.09.14.14,0,0,0,.15,0h0l0,0c.06.25.29.34.49.44s.28.34.54.28h.21c.09-.05.24,0,.3-.1a.3.3,0,0,0-.28-.09.46.46,0,0,1-.46-.21.37.37,0,0,0-.13-.12.24.24,0,0,1-.09-.08.16.16,0,0,1,0-.07.52.52,0,0,1,0-.17s0-.06,0-.07a.25.25,0,0,0-.22,0l-.17.06a.26.26,0,0,0-.09-.14c.13-.1.18-.21.07-.35h-.07c-.1-.11-.19-.24-.37-.11s-.11,0-.17,0-.35-.11-.54-.15l-.14-.08c-.06,0-.07-.06-.09-.11a1.38,1.38,0,0,1-.41-.49.56.56,0,0,0-.22-.28h-.06c-.18,0-.14.13-.14.23s.12.12.18.2a2.22,2.22,0,0,1-.48-.27c-.15-.07-.21-.22-.34-.32l-.09,0a.31.31,0,0,0-.19,0l-.08.05a.19.19,0,0,0,0,.14c0,.08.09.12.15.17A.33.33,0,0,1,93.49,67.73Z"/><path class="cls-3" d="M88.7,63.17c0,.14,0,.28.16.35a4.87,4.87,0,0,0,1,.47.15.15,0,0,0,.12-.07.1.1,0,0,0,0-.09L90,63.76c-.11-.07-.08-.21-.16-.3s-.21-.1-.3-.05-.25,0-.33-.17-.1-.17-.22-.19a.31.31,0,0,0-.19,0A.16.16,0,0,0,88.7,63.17Z"/><path class="cls-3" d="M90.37,63.52a.13.13,0,0,0,.14-.14l-.07-.06a.16.16,0,0,0-.15.07s0,.1.08.13Z"/><path class="cls-3" d="M92.3,65.39a1.48,1.48,0,0,1,.29.27c.09.06.2.07.28.14H93v-.06l-.07-.08h0a2.5,2.5,0,0,0-.56-.35C92.3,65.29,92.28,65.32,92.3,65.39Z"/><path class="cls-3" d="M87.76,98.15l0,0-.08,0-.06.06c-.12,0-.12.06-.07.14h0a.26.26,0,0,1,.09.14.88.88,0,0,0,.07.14.34.34,0,0,0-.15.07v.13c.07.21.07.21.24.09l.1,0,.09-.06c0-.08,0-.1-.08-.14h0l-.1,0a.65.65,0,0,0,.11-.15h0l.07-.06a.6.6,0,0,1,.35-.08V98.3a.15.15,0,0,0-.13,0C88,98.27,87.92,98.1,87.76,98.15Z"/><path class="cls-3" d="M88,98.91s.1,0,.09-.08,0,0-.08,0S88,98.87,88,98.91Z"/><path class="cls-3" d="M23.21,71.74a.14.14,0,0,0-.14.06h0l.07.07.07.07c.09,0,.22,0,.15-.14l0,0a.13.13,0,0,0-.08,0Z"/><path class="cls-3" d="M20.63,76c.08-.06.17,0,.26,0a.15.15,0,0,0,.06,0v0h0s0,0,0-.06a.08.08,0,0,0,0,0,.13.13,0,0,1,0-.1l.06,0c.1-.1.24-.16.23-.33a.15.15,0,0,0-.15-.07h0s-.11,0-.15.07h0a.46.46,0,0,0-.07.07.58.58,0,0,0-.23.18.3.3,0,0,1-.33.1s0,0,0,.06a.18.18,0,0,1-.13.2.36.36,0,0,0,0,.41C20.4,76.3,20.46,76.1,20.63,76Z"/><path class="cls-3" d="M19.91,77a.57.57,0,0,0,.08-.13c-.07-.1-.18-.06-.28-.06l0,0C19.75,76.89,19.73,77.08,19.91,77Z"/><polygon class="cls-3" points="20.2 76.36 20.2 76.36 20.2 76.36 20.2 76.36 20.2 76.36"/><path class="cls-3" d="M20.19,76.38v0S20.17,76.38,20.19,76.38Z"/><path class="cls-3" d="M23.24,73.83c0-.08.09-.23-.11-.24h-.07a.46.46,0,0,1-.07.07h0c0,.09,0,.2.07.27h0C23.11,73.89,23.22,73.93,23.24,73.83Z"/><path class="cls-3" d="M8.56,83a.26.26,0,0,0-.3,0,.41.41,0,0,0,.28.15h0C8.56,83.13,8.64,83.05,8.56,83Z"/><path class="cls-3" d="M64.44,63.43v0c.12-.18,0-.38.06-.56l0-.09h0a.07.07,0,0,1,0-.08c0-.06,0-.12,0-.17h0c-.1-.08-.21-.16-.35-.06a1.34,1.34,0,0,0,.07.4.2.2,0,0,1,0,.22.13.13,0,0,1,0,.06c-.06.13-.08.25,0,.34l.09,0h.1S64.48,63.45,64.44,63.43Z"/><path class="cls-3" d="M52.67,60.42h0c0,.08.13.07.21.06v-.13h-.07S52.72,60.38,52.67,60.42Z"/><path class="cls-3" d="M65.73,64.55c-.06-.08-.14-.06-.22,0a.15.15,0,0,0-.15.11.08.08,0,0,0,0,.08.33.33,0,0,0,.29-.06S65.74,64.56,65.73,64.55Z"/><path class="cls-3" d="M65.62,56.62c.1.07,0,.2.1.3.06-.08,0-.18.11-.23a.13.13,0,0,0,0-.06.16.16,0,0,0-.18-.16C65.6,56.48,65.62,56.57,65.62,56.62Z"/><path class="cls-3" d="M53.46,60.28h-.07c.07.1.18.07.27.06S53.53,60.29,53.46,60.28Z"/><path class="cls-3" d="M49.82,60.07s.08.1.12.1S50,60.08,50,60a.91.91,0,0,1-.07-.14c-.1-.06-.14,0-.15.08Z"/><path class="cls-3" d="M38.42,56.05a.49.49,0,0,1,.24,0h.06c.08-.21-.11-.16-.21-.21s-.13,0-.19,0a.42.42,0,0,0-.14.09l0,0A.18.18,0,0,0,38.42,56.05Z"/><path class="cls-3" d="M41.7,52.65c-.09-.12-.18,0-.32,0,.13.08.22.12.32,0A.06.06,0,0,0,41.7,52.65Z"/><path class="cls-3" d="M42,51.94c-.11,0-.29,0-.29-.08s-.12-.11-.2-.13a.14.14,0,0,1-.11-.07c-.08,0-.15-.1-.23,0a.18.18,0,0,0,0,.22.5.5,0,0,0,.13.12c.13,0,.19.12.29.18a.38.38,0,0,0,.49,0,.13.13,0,0,0,.06-.15A.11.11,0,0,0,42,51.94Z"/><path class="cls-3" d="M13.75,86.23a.2.2,0,0,1-.06-.14c0-.1,0-.13-.14-.14s-.24,0-.12.17l.12.17C13.63,86.29,13.71,86.31,13.75,86.23Z"/><path class="cls-3" d="M9.13,101.76c-.11,0-.15,0-.15.12h.13C9.16,101.85,9.21,101.8,9.13,101.76Z"/><path class="cls-3" d="M97.8,76.38a2.43,2.43,0,0,1-.52-.08.31.31,0,0,0-.19,0c-.07.11-.48.06-.18.34l.09,0a.35.35,0,0,1,.21.1.33.33,0,0,0,.38,0c.27,0,.52-.17.8-.14,0-.1.19-.14.19-.28h0a.28.28,0,0,0-.28,0c-.13,0-.28,0-.41,0Z"/><path class="cls-3" d="M84.58,96.7l.09.06c.16.1.18.09.2-.09s0-.07,0-.1h-.07C84.61,96.47,84.59,96.48,84.58,96.7Z"/><path class="cls-3" d="M86,97.21s0-.11-.1-.11-.06,0,0,.07a.11.11,0,0,0,.09.12S86,97.25,86,97.21Z"/><path class="cls-3" d="M92.74,95.78c-.06-.13-.22,0-.3-.1s-.12-.26-.29-.28-.17,0-.2.09.07.11.13.13a.23.23,0,0,1,.18.23c0,.2.14.16.26.18l.14-.14S92.75,95.84,92.74,95.78Z"/><path class="cls-3" d="M94.07,95.25v-.12a.07.07,0,0,0-.06-.07C94,95,93.89,95,93.8,95h0c-.11.06-.09.14,0,.21s0,0,0,.06h.07v.07h.21S94.07,95.28,94.07,95.25Z"/><path class="cls-3" d="M91.94,89.54h.13a1.09,1.09,0,0,0,.17-.13c.05-.05,0-.1,0-.12S91.94,89.36,91.94,89.54Z"/><path class="cls-3" d="M92.92,88.59a0,0,0,0,1,0,0l0,0,0,0S92.89,88.6,92.92,88.59Z"/><path class="cls-3" d="M91.44,82.29c.14,0,.15.16.16.3l.16-.2,0-.17C91.63,82.23,91.51,82.19,91.44,82.29Z"/><path class="cls-3" d="M91.08,85s0,.09.08.09l0,0a.09.09,0,0,0,0-.11l-.08,0h0Z"/><path class="cls-3" d="M20.2,92.85a.31.31,0,0,0,.22-.21h0a.16.16,0,0,0,0-.09c-.12-.16-.22-.1-.3,0l-.09,0-.08.07-.06.07c-.06.15,0,.18.15.14Z"/><path class="cls-3" d="M14.77,91.26l.15.13.33-.07C15.1,91.21,14.93,91.28,14.77,91.26Z"/><path class="cls-3" d="M12.55,88.71c-.1,0-.14,0-.14.13S12.55,88.8,12.55,88.71Z"/><path class="cls-3" d="M70.77,44.83l.08.06L71,45h0l.08-.06h0c.1-.16,0-.21-.14-.28l-.31,0C70.63,44.76,70.74,44.75,70.77,44.83Z"/><path class="cls-3" d="M69.48,49.66c.09,0,.16,0,.15-.09s0-.19-.15-.12Z"/><path class="cls-3" d="M68.2,52.83c.07,0,.15,0,.2-.06l-.07-.07C68.25,52.7,68.1,52.65,68.2,52.83Z"/><path class="cls-3" d="M81.74,55.19c.07-.08.05-.15,0-.22S81.68,55.12,81.74,55.19Z"/><polygon class="cls-3" points="81.72 54.97 81.72 54.97 81.71 54.97 81.72 54.97"/><path class="cls-3" d="M86.36,61.39v0a.12.12,0,0,0,0,0l.07,0,.11.05,0,0,.07,0a.06.06,0,0,0,.07,0s0,0,0,0a.54.54,0,0,0,.4.25c.13,0,.25.12.38.16a.37.37,0,0,0,.23,0c.08,0,.16,0,.22-.06s-.05,0-.07-.07l-.15-.08a.37.37,0,0,0-.21-.06c-.08-.06-.2-.1-.25-.18s-.29-.2-.48-.18l-.13,0c-.06-.07-.16,0-.22-.07h0C86.44,61.33,86.39,61.33,86.36,61.39Z"/><path class="cls-3" d="M87.46,61.48a.08.08,0,0,0,.09.07.11.11,0,0,0,.09-.12s0-.08-.08-.06A.11.11,0,0,0,87.46,61.48Z"/><path class="cls-3" d="M84,60.1a.38.38,0,0,0,.4.25.13.13,0,0,0,.14-.07l-.07-.07a.46.46,0,0,1-.07-.07h-.06l-.08-.06h-.06a.19.19,0,0,1-.08-.07h0a.07.07,0,0,0-.06,0A.19.19,0,0,0,84,60.1Z"/><path class="cls-3" d="M83.51,59.31l.2.08.08.06h0l.07.07h0a.08.08,0,0,0,.09,0v0l0,0,.06.07.19.19h0a.91.91,0,0,1,.36.06h.06c.08,0,.14,0,.08-.13s-.1-.14-.15-.22l-.13-.07v-.14h0v0a.16.16,0,0,0-.18-.07h0a.36.36,0,0,0-.31-.11C83.73,59.19,83.58,59.14,83.51,59.31Z"/><path class="cls-3" d="M75,46.37a.12.12,0,0,0,.09.09.08.08,0,0,0,.1-.07.1.1,0,0,0-.1-.11A.08.08,0,0,0,75,46.37Z"/><path class="cls-3" d="M79,51.83l0,0h0Z"/><path class="cls-3" d="M24.86,65.81c.07-.08.18,0,.26-.08a.41.41,0,0,0,.1-.09s0,0,0,0h0a.1.1,0,0,0,.09,0l.12-.07c.1-.09.28-.12.3-.29h0l0,0c.14-.19.14-.19-.07-.21l-.07.06h0a.93.93,0,0,0-.42.21l-.08.06h0s0,0,0,.06h-.06l0,0s0,0-.06,0h0a.13.13,0,0,1,0,.06h0c-.13,0-.19.09-.27.15l-.07.07c0,.06.08.06.14.07Z"/><path class="cls-3" d="M19.34,59.11h0l0,0s0,0,0,0l0,0a.17.17,0,0,0,0-.17h0c-.08,0-.11-.16-.23-.14a.2.2,0,0,1,0,.07c.1.08.07.24.21.28h0a.38.38,0,0,0,.08.27C19.49,59.28,19.37,59.2,19.34,59.11Z"/><path class="cls-3" d="M20.71,59.17a.38.38,0,0,1-.16-.12h-.06a.05.05,0,0,0-.08,0,.17.17,0,0,0,0,.14c0,.12.15.15.24.21h0l.08.06h0s0,.11.07.14h0c.09.08,0,.25.22.27s.13.11.14.21,0,.26.25.25c0-.12,0-.25-.05-.38A6.61,6.61,0,0,0,20.71,59.17Z"/><path class="cls-3" d="M37.3,52.15l.06-.08a.12.12,0,0,0-.07-.14l-.28.22c-.08.17.07.12.15.13A.29.29,0,0,0,37.3,52.15Z"/><path class="cls-3" d="M38.53,47l-.09,0h0l.07.06Z"/><path class="cls-3" d="M94.94,71.32l-.22-.13a2.16,2.16,0,0,0-.67,0,.12.12,0,0,0-.07.07.28.28,0,0,0,0,.09c.1.12.24.1.37.13s.18,0,.23.09S94.81,71.4,94.94,71.32Z"/><polygon class="cls-3" points="93.94 70.36 93.94 70.36 93.94 70.36 93.94 70.36"/><path class="cls-3" d="M94,70.38l-.09,0S94,70.44,94,70.38Z"/><path class="cls-3" d="M94.81,69.25c0-.06,0-.08-.06-.1a.11.11,0,0,0-.09,0l-.08.13C94.7,69.44,94.77,69.4,94.81,69.25Z"/><polygon class="cls-3" points="93.51 70.29 93.52 70.28 93.51 70.28 93.51 70.29"/><path class="cls-3" d="M93.37,70.08v.06s0,.06,0,.08.09,0,.14.07h0c-.05.1-.21,0-.26.16a.84.84,0,0,0,.47,0c0-.06.13-.06.16-.14-.16,0-.12-.2-.23-.26S93.46,70.07,93.37,70.08Z"/><path class="cls-3" d="M94.87,69.74l.07.07a.06.06,0,0,0,.08,0h.07v-.14H95a.14.14,0,0,0-.15,0h0A.06.06,0,0,0,94.87,69.74Z"/><path class="cls-3" d="M95.54,69a.75.75,0,0,0-.41-.24s0,0,0,.08h0c.09.07,0,.21.13.25a.11.11,0,0,0,.08,0h.14S95.56,69,95.54,69Z"/><path class="cls-3" d="M90.87,65.53a1.8,1.8,0,0,0,.55.24s.07.07.1.1.25.08.2-.13c-.08-.06,0-.22-.21-.21h0l-.09-.08c-.18-.08-.33-.22-.55-.16S90.76,65.46,90.87,65.53Z"/><path class="cls-3" d="M86.08,104.93l.06,0s0-.12-.08-.1S86,104.89,86.08,104.93Z"/><path class="cls-3" d="M86.94,97.39a1.54,1.54,0,0,1-.08-.19h0l-.15-.14h-.06c-.08,0-.07.12-.07.2h.06c.08,0,0,.13,0,.19a.09.09,0,0,0,.06.06l.08,0h.09A.11.11,0,0,0,86.94,97.39Z"/><path class="cls-3" d="M21.53,75.66c-.07-.08-.15,0-.21.09l-.05,0h-.06c-.1.09-.22.18-.22.34a.44.44,0,0,0-.22.07l-.05,0s-.08.07-.06.11.08,0,.13,0h.06l.06,0,.08,0a.16.16,0,0,0,0-.07.17.17,0,0,0,0-.07l0,0s.05,0,.08,0l.05,0a1.93,1.93,0,0,1,.3-.27C21.49,75.82,21.64,75.78,21.53,75.66Z"/><path class="cls-3" d="M24.36,73.26l0,0a.2.2,0,0,0,0-.08.47.47,0,0,0,0-.17.2.2,0,0,0,0-.08s0,0,0,0,0,0-.06,0h-.07V73l-.06.07-.09.12h0c-.29.17-.24.52-.48.77l.26-.07h0A.46.46,0,0,0,24,73.8c.1-.09.16-.21.29-.27a.51.51,0,0,0,0-.21s0,0,0-.06S24.34,73.28,24.36,73.26Z"/><path class="cls-3" d="M23.56,73.18s0,0-.06.07l-.08.07c0,.18.12.11.21.07S23.65,73.23,23.56,73.18Z"/><path class="cls-3" d="M82.56,96.92h0a.24.24,0,0,1-.08-.06h0a.19.19,0,0,0-.08.15c.07.08.12.19.26.18S82.57,97,82.56,96.92Z"/><path class="cls-3" d="M65.81,66.44c.16.06.29,0,.37.13a.28.28,0,0,0,.16-.16.43.43,0,0,1,.07-.26c.1-.18.07-.27-.14-.4,0,.13-.06.26-.08.39C66.15,66.42,66.15,66.42,65.81,66.44Z"/><path class="cls-3" d="M72.21,65.33v-.67l-.16.11v.47c0,.17-.06.35.08.5A.25.25,0,0,0,72.21,65.33Z"/><path class="cls-3" d="M68.33,68a2.44,2.44,0,0,0,0-.27h0c-.08,0-.1,0-.14.07a.55.55,0,0,1-.07.28C68.23,68.14,68.31,68.11,68.33,68Z"/><path class="cls-3" d="M61.55,68.35c.06,0,.13,0,.11.09s.07.13.1.19a.74.74,0,0,0,.21,0c.07-.11,0-.2-.07-.28a.74.74,0,0,1-.15-.26C61.45,68.08,61.43,68.11,61.55,68.35Z"/><polygon class="cls-3" points="40.66 56.28 40.66 56.28 40.66 56.28 40.66 56.28"/><path class="cls-3" d="M40.28,55.88h0c-.07,0-.06.08,0,.13h0l.07.07h0l.21.15s.11,0,.15.06l.08-.08s0,0,0-.06C40.65,56,40.43,56,40.28,55.88Z"/><path class="cls-3" d="M14.05,86.78l-.14.13a.13.13,0,0,0,0,.06C14.12,87,14.13,87,14.05,86.78Z"/><path class="cls-3" d="M15.62,88.3l0,0c-.08-.12-.21,0-.31,0l-.06,0v.14a.37.37,0,0,0,.32.11C15.62,88.47,15.7,88.42,15.62,88.3Z"/><path class="cls-3" d="M10.26,101.47H10.2c-.06,0,0,.1-.08.13v.07a.14.14,0,0,0,.14.06h0s0-.1.08-.13S10.32,101.5,10.26,101.47Z"/><path class="cls-3" d="M10,102a.13.13,0,0,0,.15.14c0-.07,0-.13,0-.2S10,101.93,10,102Z"/><path class="cls-3" d="M92.86,77.7s0-.07,0-.07-.07,0,0,.09l0,.09h0A.11.11,0,0,0,92.86,77.7Z"/><path class="cls-3" d="M94.45,80.43h0c.1-.14,0-.22-.1-.3C94.26,80.28,94.42,80.33,94.45,80.43Z"/><path class="cls-3" d="M95.58,95h0l-.08-.06c-.06-.05-.12-.12-.21,0s0,.15,0,.21.11.17.24.18S95.58,95.09,95.58,95Z"/><path class="cls-3" d="M82.89,95.18c.09,0,.1-.06.11-.13a.2.2,0,0,0-.21-.13s0,.09,0,.13S82.8,95.18,82.89,95.18Z"/><path class="cls-3" d="M21.3,92.83a.08.08,0,0,0,.06.11c.07,0,.1,0,.13-.09a.72.72,0,0,1,0-.21c.11-.24,0-.47,0-.7a.09.09,0,0,0-.12-.09c-.06,0-.07.06-.07.1s0,.23,0,.34A.83.83,0,0,1,21.3,92.83Z"/><path class="cls-3" d="M22.65,90.73a.2.2,0,0,0-.09-.11c-.12,0-.22-.14-.35-.05h0a.16.16,0,0,0,0,.07.09.09,0,0,0,0,.07s.05.09.08.14h.07a.2.2,0,0,0,.2,0A.16.16,0,0,0,22.65,90.73Z"/><path class="cls-3" d="M69.77,51.66c0,.07-.13.14,0,.2a.26.26,0,0,1,.19-.07.1.1,0,0,0,.08-.13c0-.07-.08-.07-.14-.06A.52.52,0,0,0,69.77,51.66Z"/><path class="cls-3" d="M84,60c.05-.13-.06-.19-.13-.27s0,.13-.07.2a.16.16,0,0,0,.07.07h0S84,60.05,84,60Z"/><path class="cls-3" d="M24.52,71.7a.09.09,0,0,0-.07-.09c-.05,0-.09,0-.09.07s0,.09.07.1A.09.09,0,0,0,24.52,71.7Z"/><path class="cls-3" d="M27.77,69.6c.07.08.12,0,.17,0l.06,0c0-.15-.12-.11-.2-.07A.1.1,0,0,0,27.77,69.6Z"/><polygon class="cls-3" points="28 69.52 28 69.52 28 69.52 28 69.52"/><path class="cls-3" d="M28.08,69.27c.05.23.18.07.28,0h.06c.12.07.16-.06.25-.08a.41.41,0,0,0,.14-.12.1.1,0,0,0,0-.13.21.21,0,0,1-.15-.07.56.56,0,0,0-.43.27h0A.18.18,0,0,1,28.08,69.27Z"/><path class="cls-3" d="M27.57,69.85c-.06,0,0,.08,0,.1l.07-.07S27.6,69.82,27.57,69.85Z"/><path class="cls-3" d="M26.77,63.35s0-.07-.06-.07-.1,0-.12.09a.06.06,0,0,0,.07.07C26.73,63.45,26.77,63.42,26.77,63.35Z"/><path class="cls-3" d="M26.5,61.45c-.1,0-.05-.19-.18-.22s0,.27-.1.36a.58.58,0,0,0,0,.32c.13,0,0-.12.11-.15s0,.23.21.18A1.17,1.17,0,0,1,26.5,61.45Z"/><path class="cls-3" d="M37.15,53.1V53H37C36.92,53.15,37.07,53.1,37.15,53.1Z"/><path class="cls-3" d="M90.86,70h0c-.09.17-.33.09-.46.27h.39c.1,0,.18-.08.3,0s.06,0,.06-.09L91.08,70C91,69.94,90.92,70,90.86,70Z"/><path class="cls-3" d="M92.58,66.9c0,.19,0,.21.22.28,0,0,.14,0,.08-.09s-.08-.17.09-.16,0-.05,0-.08l-.06-.08C92.81,66.79,92.62,66.65,92.58,66.9Z"/><path class="cls-3" d="M92.3,66.49h0s0,0,0,0v0c.1.16.2.19.31,0l.11-.08c0-.08,0-.15-.13-.1A.44.44,0,0,1,92.3,66.49Z"/><path class="cls-3" d="M88.08,62.83h0c.1,0,.18.13.34.1C88.3,62.82,88.24,62.68,88.08,62.83Z"/><path class="cls-3" d="M18.25,80.77a.71.71,0,0,1,.1.14.28.28,0,0,0,.28.17c.05,0,.1,0,.14,0h0A.43.43,0,0,0,18.25,80.77Z"/><path class="cls-3" d="M19.34,80.77c.22-.06,0-.13,0-.2s-.21,0-.19.11S19.27,80.79,19.34,80.77Z"/><path class="cls-3" d="M20.42,80.64s0,0,0,.06l.12.07s.11,0,.14.09a.13.13,0,0,0,.08,0,.15.15,0,0,0,.11-.2.16.16,0,0,0,0-.07.94.94,0,0,0-.15-.06l0,0-.07,0h0C20.47,80.5,20.34,80.47,20.42,80.64Z"/><path class="cls-3" d="M77.71,78.38a.11.11,0,0,0,0,.08s0,.07.06.11a.13.13,0,0,0,.05.06h0a.51.51,0,0,1,.07.36c0,.14,0,.22.17.24h0a.13.13,0,0,0,.07.09h0v.14l0,0h0c0,.1,0,.23.12.28a.38.38,0,0,0,0-.51h0l0,0c0-.11,0-.22-.06-.31a.88.88,0,0,1-.12-.15h0l-.06-.07c0-.11-.1-.22-.16-.33S77.78,78.33,77.71,78.38Z"/><path class="cls-3" d="M85.86,99.41l-.15.13s-.18.09,0,.15a.36.36,0,0,0,.29,0h0c.07-.12.15,0,.22,0l0,0v-.06a.09.09,0,0,1,0-.05.92.92,0,0,0,0-.33h0l-.3.13Z"/><path class="cls-3" d="M63.79,74.88c0-.09-.09-.1-.16-.11s-.21,0-.23.16a.1.1,0,0,0,.11.11A.34.34,0,0,0,63.79,74.88Z"/><path class="cls-3" d="M70,88.27c-.12.06-.07.19-.17.23l-.07.07-.08.05a.11.11,0,0,0,0,.1.24.24,0,0,0,.1.1h.11c.17,0,.09-.19.17-.26h0C70,88.48,70.1,88.36,70,88.27Z"/><path class="cls-3" d="M61.68,76.08c-.08-.18-.09-.18-.35-.07,0,.14.14.18.18.32C61.56,76.2,61.58,76.12,61.68,76.08Z"/><path class="cls-3" d="M66.5,81.73c0,.08,0,.17-.09.22a2.44,2.44,0,0,0,0,.27h0c0,.08,0,.17.06.21s.16.1.27.06,0-.4.14-.56c-.14-.07-.22.09-.32,0S66.59,81.79,66.5,81.73Z"/><path class="cls-3" d="M66.94,81.52c-.06.22.1.41,0,.62.14,0,.12-.1.13-.19s-.05-.29.07-.42,0-.25-.18-.23S67,81.44,66.94,81.52Z"/><path class="cls-3" d="M72.86,80.17c0,.06,0,.09.1.08s.12-.1.12-.18S73,80,73,80,72.85,80.08,72.86,80.17Z"/><path class="cls-3" d="M83.29,94.63l.07.08c.1-.17.09-.21-.07-.28h0l-.07.08v0Z"/><path class="cls-3" d="M72.56,75.32a.84.84,0,0,1,.07.35c.05.1.1.23.25.15s.11-.18,0-.29,0,0,0-.07,0-.1-.07-.14l0,0s0,0,0,0a1.1,1.1,0,0,0,0-.18s0-.11,0-.15h0c-.08-.07-.18,0-.27,0s-.16.07-.15.17S72.46,75.28,72.56,75.32Z"/><path class="cls-3" d="M72,87.74c-.1,0-.13.07-.14.16s0,.19-.07.25a2.18,2.18,0,0,0-.21.7l0,.12h0l-.05,0a.41.41,0,0,0-.07.34c0,.11.06.2.2.13l.07-.07a1.11,1.11,0,0,1,.09-.4l0,0h.07a.13.13,0,0,0-.05-.14h0a1.36,1.36,0,0,1,0-.49A2,2,0,0,0,72,87.74Z"/><path class="cls-3" d="M66.34,83.75a.17.17,0,0,1-.07.13c0,.14,0,.14.18,0s0,0,0,0a.14.14,0,0,0,0,.12c.11,0,.16.18.28.21s.06,0,.07,0,.11-.22,0-.33-.14-.31-.36-.21C66.38,83.6,66.4,83.74,66.34,83.75Z"/><path class="cls-3" d="M71.3,90.35c-.22.07-.18.28-.24.43s0,.2.07.27.14,0,.21-.07a2.26,2.26,0,0,1,0-.26C71.37,90.59,71.44,90.45,71.3,90.35Z"/><path class="cls-3" d="M66.92,88l0-.12-.13.06s0,.08,0,.13,0,.28.16.35h0A.61.61,0,0,0,66.92,88Z"/><path class="cls-3" d="M69.26,85.47h0s.12.17.15,0,0-.16-.06-.16S69.27,85.4,69.26,85.47Z"/><path class="cls-3" d="M65.45,71.15c.07.06.13,0,.17,0h0c-.06,0-.07-.13-.16-.07A.07.07,0,0,0,65.45,71.15Z"/><path class="cls-3" d="M66.19,66.7s0,.1,0,.06S66.22,66.71,66.19,66.7Z"/><path class="cls-3" d="M70.12,57.57s.1,0,.15,0,.11-.13,0-.22-.09,0-.13,0a.61.61,0,0,0,0,.12S70.06,57.53,70.12,57.57Z"/><path class="cls-3" d="M66.27,55.32l0-.09,0,0,.06.07Z"/><path class="cls-3" d="M38.73,64.7s0,0,.06,0h.12l.07,0a.17.17,0,0,0,.1-.06l.08-.06c0-.08,0-.14-.08-.14l-.06,0a.58.58,0,0,1-.29.12Z"/><path class="cls-3" d="M43,62.91l-.16.05h-.13c-.09.11-.27,0-.36.13a.27.27,0,0,1-.07.08h0c0,.06.1.07.16.08a2.78,2.78,0,0,1,.63-.16C43.12,63,43.22,62.92,43,62.91Z"/><path class="cls-3" d="M10.9,100.64a.12.12,0,0,0-.14-.06l-.07.06C10.77,100.86,10.83,100.63,10.9,100.64Z"/><polygon class="cls-3" points="92.51 75.81 92.51 75.81 92.51 75.81 92.51 75.81"/><path class="cls-3" d="M92.35,75.57a3.4,3.4,0,0,0-.46-.09.24.24,0,0,0-.16,0c0,.11,0,.2.14.21s.16,0,.22.05l.06,0h.36C92.6,75.63,92.45,75.61,92.35,75.57Z"/><path class="cls-3" d="M92.71,76.66s0,0,0,0,.06.08.11.09h0C92.79,76.72,92.8,76.66,92.71,76.66Z"/><path class="cls-3" d="M91.44,75.45l-.37,0c.11.19.37.07.44.26.1,0,.16,0,.1-.14a1.47,1.47,0,0,1-.1-.13Z"/><path class="cls-3" d="M90.63,75.44c0,.08.06.14.16.17s0,0,.07.06c.24-.07,0-.14,0-.21S90.69,75.33,90.63,75.44Z"/><path class="cls-3" d="M92.82,75.36c.13.21,0,.33-.16.44h0s.1,0,.14.07a.21.21,0,0,1,.15.07h0c.06,0,.11,0,.15,0h0a.32.32,0,0,0,.09,0,.12.12,0,0,0,.1,0c0,.06,0,.09.11.12h0a10,10,0,0,0,1.25.11c-.08-.12-.21-.09-.27-.17l-.2-.08a3.21,3.21,0,0,0-.43-.07h-.28a.13.13,0,0,1,0-.06.66.66,0,0,0-.43-.13c-.11-.15,0-.37-.21-.5A.14.14,0,0,0,92.82,75.36Z"/><path class="cls-3" d="M92.52,82.54s0,.08.09.06,0,0,0-.08a.06.06,0,0,0,0-.06A.08.08,0,0,0,92.52,82.54Z"/><path class="cls-3" d="M16.42,89.47a.21.21,0,0,1-.15-.07l-.28.07h0a.08.08,0,0,0,0,.13c.1,0,.21,0,.29.07a.37.37,0,0,0,.27-.07A.12.12,0,0,0,16.42,89.47Z"/><path class="cls-3" d="M78.64,58.49h0a1,1,0,0,0,0,.23s0,.08.08.09.08,0,.09,0,.26-.33.09-.56C78.76,58.31,78.76,58.45,78.64,58.49Z"/><path class="cls-3" d="M85.22,62l.07.07a.24.24,0,0,0,.29-.13h0a.23.23,0,0,1-.07-.07h0C85.24,61.81,85.24,61.81,85.22,62Z"/><path class="cls-3" d="M85.51,64h0l-.07-.06h-.14s0,0,0,0,0,0,0,0l-.08-.06c0-.06-.12,0-.18,0s-.17,0-.24,0h0a.08.08,0,0,0-.08,0h-.06a.22.22,0,0,1-.22,0H84c-.08,0-.14-.15-.24,0a.06.06,0,0,0,0,.06c0,.11.16,0,.25.06v.07l.12.08a.56.56,0,0,1,.18.07,3.09,3.09,0,0,0,1,.19C85.39,64.2,85.52,64.19,85.51,64Z"/><path class="cls-3" d="M81.08,62.22l.07-.07c0-.06,0-.11,0-.17s-.08-.07-.14,0A.13.13,0,0,0,81,62C81,62.09,80.9,62.2,81.08,62.22Z"/><path class="cls-3" d="M81.86,62.07H82v-.14C81.9,61.93,81.85,62,81.86,62.07Z"/><path class="cls-3" d="M83.29,63.59a.18.18,0,0,0-.07-.05l-.15-.08a1.13,1.13,0,0,0-.27-.13l-.11,0-.08,0-.11,0h-.09a.34.34,0,0,1-.2,0h-.12s-.06,0-.1,0l-.08,0c-.18,0-.16.11-.08.22a.31.31,0,0,0,.18.09c.09,0,.19-.06.27,0a2.32,2.32,0,0,1,.38.07,1.37,1.37,0,0,0,.49.13s.1,0,.13.08h0C83.44,63.74,83.37,63.67,83.29,63.59Z"/><path class="cls-3" d="M83.21,63.39h0c.12.06.26,0,.36.14h0c.08,0,.14,0,.14-.13a.49.49,0,0,0-.49-.14S83.17,63.34,83.21,63.39Z"/><path class="cls-3" d="M79.29,60.69c.06,0,.13.09.17,0s.1-.23-.1-.25l-.06.08Z"/><path class="cls-3" d="M87.35,62.57c.18-.13-.07-.2,0-.31s-.1-.1-.17-.12c-.24,0-.24,0-.19.14l.06.06C87.12,62.42,87.15,62.62,87.35,62.57Z"/><path class="cls-3" d="M86.5,61.67c-.11,0-.15,0-.14.13l.08.06C86.64,61.85,86.54,61.75,86.5,61.67Z"/><path class="cls-3" d="M72.41,55.11a.13.13,0,0,1,.14-.07.45.45,0,0,1,.14-.24s.09-.09,0-.14a.11.11,0,0,0-.18,0c-.1.17-.31.24-.41.41,0,0,0,0,0,0s-.17.05-.09.16.11,0,.18,0S72.32,55.17,72.41,55.11Z"/><path class="cls-3" d="M72.63,54.28h0a0,0,0,0,0,0,.06h0l.08.06a.06.06,0,0,0,.06,0l.09-.13a.14.14,0,0,1,0-.06C72.73,54.13,72.68,54.21,72.63,54.28Z"/><path class="cls-3" d="M71.57,53.18c0,.07,0,.16.06.17s.12-.05.13-.12,0-.21-.13-.12Z"/><path class="cls-3" d="M28.79,65.51c.08,0,.06-.12,0-.18a1.51,1.51,0,0,0-.11-.22s-.05,0-.08-.06-.18.09-.06.33l.06.05C28.67,65.49,28.71,65.55,28.79,65.51Z"/><path class="cls-3" d="M27.37,71.15c0,.17.24,0,.37,0h.1a.41.41,0,0,0,.3-.1c.11-.19.32-.29.43-.48h.07c0-.1,0-.2-.06-.27,0-.23,0-.24-.23-.15s-.25.27-.42.35-.15.23-.22.34S27.31,71,27.37,71.15Z"/><path class="cls-3" d="M27.28,65.25a.46.46,0,0,0-.07-.07h0a.1.1,0,0,0-.14,0,.3.3,0,0,0,.08.27C27.3,65.46,27.29,65.35,27.28,65.25Z"/><path class="cls-3" d="M27.43,62.91s.07-.1,0-.16-.1,0-.15,0l-.09.06a.14.14,0,0,0,.16.15S27.42,62.93,27.43,62.91Z"/><path class="cls-3" d="M26.84,64.45a.08.08,0,0,0,0,0c0,.09,0,.13.1.13a.05.05,0,0,0,0-.05S26.93,64.44,26.84,64.45Z"/><path class="cls-3" d="M93.13,75.35l.38.19c.08,0,.17,0,.24,0a.32.32,0,0,0-.16-.18C93.45,75.45,93.29,75.27,93.13,75.35Z"/><path class="cls-3" d="M92.94,71.26H92.8v.13h.06c.12,0,.26,0,.37-.08h0C93.14,71.25,93,71.33,92.94,71.26Z"/><path class="cls-3" d="M90.3,70.35c-.23-.09-.42.08-.64.07a.22.22,0,0,0-.14,0,.13.13,0,0,0-.06.07.16.16,0,0,0,.05.17c.07.06.14.18.21,0s.44,0,.65-.06h0C90.35,70.49,90.32,70.42,90.3,70.35Z"/><path class="cls-3" d="M87.58,65.8s-.11,0-.15-.07h0l-.07-.06h0s0,0-.09,0a.2.2,0,0,0,0,.08,2.17,2.17,0,0,0,.08.51.16.16,0,0,0,.06.08.12.12,0,0,0,.14,0c0-.18-.05-.37.06-.55Z"/><path class="cls-3" d="M91.36,66.5c-.07,0-.15,0-.2.06s.06.15.17.16S91.36,66.57,91.36,66.5Z"/><path class="cls-3" d="M92,66.72l-.09,0h0S91.91,66.79,92,66.72Z"/><path class="cls-3" d="M21.39,78.49s-.06,0-.1-.06l-.07.13h.05C21.32,78.56,21.39,78.57,21.39,78.49Z"/><path class="cls-3" d="M76.17,75.47c.09.16.2.2.36.1,0-.06-.07-.12-.11-.17s-.06-.12-.09-.17-.2-.17-.33,0C76.06,75.28,76.12,75.37,76.17,75.47Z"/><path class="cls-3" d="M79.25,101.79l-.16,0a.29.29,0,0,0-.17.19c0,.07.1.07.16.08s.32,0,.47-.09C79.68,101.64,79.38,101.83,79.25,101.79Z"/><path class="cls-3" d="M79.85,100.36a1,1,0,0,1-.14.22c0,.06,0,0,.07.06s0,0,0,0l0,0h0c.06-.06.16,0,.22-.07h0c.19,0,.28-.13.08-.28H80S79.89,100.32,79.85,100.36Z"/><path class="cls-3" d="M82.92,100.77c-.17.12-.45,0-.57.22h0a.5.5,0,0,0-.08.07h-.06v0l-.15.07-.2,0h0a.25.25,0,0,0-.12,0l-.08,0-.1,0a.41.41,0,0,1-.16,0,.09.09,0,0,0-.07,0c0,.1,0,.19.14.2a6.42,6.42,0,0,1,.87-.19c.15,0,.25-.17.42-.09s.15,0,.21-.07.19-.13.28-.2l.05-.07c-.05-.06-.08-.15-.19-.14s-.11,0-.15.06Z"/><path class="cls-3" d="M85.32,99.1c0,.09.06.08.11.1h0c0-.06,0-.12-.09-.12Z"/><path class="cls-3" d="M70.78,92.92v.33a.06.06,0,0,0,.06,0c0-.06.08-.12.07-.19S70.87,92.92,70.78,92.92Z"/><path class="cls-3" d="M65.26,84.63a.39.39,0,0,1-.21.08.92.92,0,0,0-.14.14c0,.05-.1.12,0,.17s.11,0,.16,0,.27-.11.29-.28Z"/><path class="cls-3" d="M65.33,83.39s0,0,0,.07h.21c0-.15-.05-.21-.2-.12S65.33,83.37,65.33,83.39Z"/><path class="cls-3" d="M66.76,78.22v-.13c0-.07,0-.16-.12,0S66.64,78.22,66.76,78.22Z"/><path class="cls-3" d="M71,89.74a.32.32,0,0,1-.14.14c0,.15.11.14.21.13a.11.11,0,0,0,.08-.07l.07-.13A.14.14,0,0,0,71,89.74Z"/><path class="cls-3" d="M67.33,78.6a.86.86,0,0,0,0-.16c-.07,0-.18-.12-.2.06v.2C67.24,78.77,67.31,78.73,67.33,78.6Z"/><path class="cls-3" d="M67.34,78.22h.06v-.13s0-.1-.07-.14h0c-.16-.08-.22,0-.29.14l-.06.15c0,.12,0,.12.13.06S67.29,78.31,67.34,78.22Z"/><path class="cls-3" d="M71.27,89.81a.19.19,0,0,0,.21.13c0-.11,0-.23-.06-.33A.23.23,0,0,1,71.27,89.81Z"/><path class="cls-3" d="M72.69,64.91h0c.06,0,.15.11.18,0s0-.11-.12-.11S72.69,64.85,72.69,64.91Z"/><path class="cls-3" d="M73.06,56.9h0c-.06.06,0,.15-.07.21h0c0,.09,0,.19,0,.28v.06a.4.4,0,0,0,0,.34h0a.12.12,0,0,0-.09,0c-.07.15-.14.29,0,.45a4.11,4.11,0,0,0-.1.41c0,.2,0,.43-.09.63a2,2,0,0,0-.08.76h.07l.05,0a.17.17,0,0,0,.06-.06.16.16,0,0,0,0-.09,1.59,1.59,0,0,1,.07-.38A5.72,5.72,0,0,0,73,58.16c0-.1,0-.21,0-.31a.07.07,0,0,0,0-.05h.06a3.55,3.55,0,0,0,.09-.47c0-.06,0-.15.06-.21a1.34,1.34,0,0,1,0-.2c0-.06,0-.12-.08-.15h0S73.1,56.86,73.06,56.9Z"/><path class="cls-3" d="M71.19,56.31s0,0,0-.06,0,0-.06,0l0,0S71.17,56.33,71.19,56.31Z"/><path class="cls-3" d="M32,67.28l.11,0,.08,0c.1,0,.1-.14.14-.22a4.24,4.24,0,0,1,.5-.62.13.13,0,0,0,.06-.07h0a.14.14,0,0,0-.13-.06h0l-.08,0-.15.08c-.08,0-.17.06-.2.15s-.22.23-.3.36l-.09.14,0,0-.06.06-.06,0a.39.39,0,0,0-.1.08.22.22,0,0,0,0,.08.12.12,0,0,0,.08.09h.08l.11,0Z"/><path class="cls-3" d="M33.94,67.05a.13.13,0,0,0-.13-.07.25.25,0,0,1-.16.06c-.19,0-.25.13-.33.24s0,.1.12.11a.58.58,0,0,1,.42-.14A.15.15,0,0,0,33.94,67.05Z"/><path class="cls-3" d="M20.92,95.88v-.07a2.44,2.44,0,0,1,0-.27s0,0,0,0,0,0,0,0H21s0-.05,0-.07a.56.56,0,0,1-.08-.27h-.13v.55h-.07c0,.25,0,.28.21.27Z"/><path class="cls-3" d="M20.88,98.79a2.36,2.36,0,0,1,.63-.17.13.13,0,0,0,.07-.05c0-.15.11,0,.13-.11a.13.13,0,0,0,.06-.07c0-.17-.09-.17-.21-.1a.51.51,0,0,0-.24.13.33.33,0,0,1-.4,0v0a.2.2,0,0,0-.06-.13h0c.27-.06.12-.28.15-.43a8.83,8.83,0,0,1,0-.89,1,1,0,0,0,0-.24v0c0-.11-.15-.2-.07-.34s0,0,0-.06a.14.14,0,0,1-.06-.14c-.07,0-.11,0-.09.1s.06.27,0,.39a1.73,1.73,0,0,1-.11.9.23.23,0,0,0,0,.2.78.78,0,0,1,0,.34v.21c-.06.11.06.22,0,.33a.24.24,0,0,0-.05.14.23.23,0,0,0,0,.14.13.13,0,0,0,.1.09.08.08,0,0,0,.07,0A.44.44,0,0,0,20.88,98.79Zm-.09-.67h0v0Z"/><path class="cls-3" d="M22.42,89.47h0l.07-.08v-.13a.14.14,0,0,0-.22,0c-.06.08.05.11.09.15Z"/><path class="cls-3" d="M23,90.83a.2.2,0,0,1,.14-.06v-.06l0,0a.16.16,0,0,0-.17,0l0,0C22.92,90.71,22.9,90.79,23,90.83Z"/><path class="cls-3" d="M74.14,55.12v.12C74.21,55.21,74.21,55.16,74.14,55.12Z"/><polygon class="cls-3" points="71.98 55.66 71.98 55.66 71.98 55.66 71.98 55.66"/><path class="cls-3" d="M71.55,55.55a.2.2,0,0,0,0,.25c.06.06.15,0,.22,0a.28.28,0,0,0,.17-.11,1.19,1.19,0,0,1-.3-.46A2.84,2.84,0,0,1,71.55,55.55Z"/><path class="cls-3" d="M24.89,72.6c-.11,0-.12.08-.19.09h0s-.07.13,0,.11A.17.17,0,0,0,24.89,72.6Z"/><path class="cls-3" d="M29,68.49h0c.08.12.15,0,.22,0v-.06s0,0-.07,0h-.06S29,68.47,29,68.49Z"/><path class="cls-3" d="M26.21,72.08h0c-.06-.07-.13-.11-.18,0s.06.07.11.08h0Z"/><path class="cls-3" d="M31.87,72.84s0,.1.05.13c.31-.13.5-.41.8-.55,0-.09.23-.18,0-.27h-.06A4,4,0,0,0,31.87,72.84Z"/><path class="cls-3" d="M33.15,71.79l-.07,0a.23.23,0,0,0-.07.07h0l-.07.06h0l-.08.07.09.08c.1,0,.21,0,.2-.15Z"/><polygon class="cls-3" points="32.86 72.01 32.86 72.01 32.86 72.01 32.86 72.01"/><path class="cls-3" d="M30.11,69l0,.07v0c.07.07.12,0,.17,0s.05-.1.11-.13h0s.11,0,.14-.07h0a.23.23,0,0,0,.07-.07c.12-.09.14-.27.29-.33a.14.14,0,0,1,.13-.08.27.27,0,0,0,.08-.07h0c.05-.07.06-.16.11-.23s0-.18-.17-.1-.18.27-.35.34a.59.59,0,0,0-.31.17l0,.08a.4.4,0,0,1-.09.21l0,.07-.06.1Z"/><path class="cls-3" d="M29.64,69.45c0-.1.23-.18.08-.33h0a.6.6,0,0,0-.11.06s-.08,0-.11.07h0c-.07.1-.1.18.07.21Z"/><path class="cls-3" d="M29.8,62.07l-.15,0-.07.06c0,.07-.13.06-.21.07a.28.28,0,0,0,.41.06C29.79,62.21,29.79,62.14,29.8,62.07Z"/><path class="cls-3" d="M92,75.2c-.1,0-.21,0-.13.12C92,75.32,92,75.29,92,75.2Z"/><path class="cls-3" d="M87.5,65.12s0,0,0,0l.55.09c.18,0,.13-.12.08-.22h-.21C87.79,65.07,87.62,65,87.5,65.12Z"/><path class="cls-3" d="M84.3,104.7c.06,0,0-.07,0-.11h-.06l-.07.07S84.26,104.71,84.3,104.7Z"/><path class="cls-3" d="M22.63,79.33l-.16,0c-.06,0-.12,0-.16,0s0,.1.05.15.21,0,.28-.07S22.63,79.35,22.63,79.33Z"/><path class="cls-3" d="M25.29,77.42c-.13,0-.24.08-.14.24s.16,0,.2,0,.28.08.43,0C25.71,77.5,25.47,77.48,25.29,77.42Z"/><path class="cls-3" d="M27,77.47c.06.1.14,0,.21,0a1.17,1.17,0,0,0,.35-.27c.23-.23.31-.56.55-.77,0-.11.09-.2,0-.35-.13.16-.24.3-.36.43a.32.32,0,0,1-.1.18,2.46,2.46,0,0,0-.41.44h0l-.07.06a.24.24,0,0,1-.11.13C27,77.34,26.9,77.4,27,77.47Z"/><path class="cls-3" d="M77.34,98.17c-.08,0-.06.12-.06.2C77.47,98.35,77.4,98.26,77.34,98.17Z"/><path class="cls-3" d="M77.63,101.82a1,1,0,0,0-.5.13c.05.08.13.07.22.07S77.69,102.09,77.63,101.82Z"/><path class="cls-3" d="M78.29,101.62a.59.59,0,0,1,0,.13c0,.24,0,.24.25.13,0,0,0,0,.07-.06v0h.08a.64.64,0,0,1,.23-.2H79c0-.06.06-.12-.06-.13S78.51,101.6,78.29,101.62Z"/><path class="cls-3" d="M78.06,101.67l-.13,0-.07,0a.13.13,0,0,0,0,.06h.24s.09,0,.08-.08S78.1,101.68,78.06,101.67Z"/><path class="cls-3" d="M77,101.17a.09.09,0,0,0,.11-.07c0-.07,0-.1-.1-.11s-.1,0-.11.06A.11.11,0,0,0,77,101.17Z"/><path class="cls-3" d="M81,104.86c-.16,0-.26,0-.26.19a.31.31,0,0,0,.19,0L81,105Z"/><path class="cls-3" d="M65.48,85.4c0-.12,0-.23,0-.34s-.13-.08-.18,0a.44.44,0,0,0,.11.47h0a.09.09,0,0,0,0-.11l0,0,0,0Zm-.08,0h0Z"/><path class="cls-3" d="M76.64,68.94s0,.07,0,.07.1-.05.1-.11a.15.15,0,0,0,0-.09C76.68,68.82,76.65,68.87,76.64,68.94Z"/><path class="cls-3" d="M66,91.51l0-.1a.26.26,0,0,0,0-.15,1.2,1.2,0,0,0-.24-.15.1.1,0,0,0-.09,0,.29.29,0,0,0-.07.18,1.3,1.3,0,0,0,0,.34,1,1,0,0,1-.06.55l0,.13a.14.14,0,0,0,0,.09l.05.07h0c.06,0,.11,0,.09.11a1.14,1.14,0,0,0,0,.37c0,.12.11.12.21.08S66,93,66,93h0c0-.07,0-.1-.06-.14s0,0,0-.06A2.6,2.6,0,0,1,66,91.51Z"/><path class="cls-3" d="M69,95.67h.1v-.06l-.06,0s-.09,0-.11,0S68.9,95.67,69,95.67Z"/><path class="cls-3" d="M68.79,96s0,0,0,0h0c0-.07,0-.15,0-.19a1.15,1.15,0,0,0,0,.19h0Z"/><path class="cls-3" d="M68.77,94.91c.11,0,.21,0,.22-.13s-.15,0-.22,0Z"/><path class="cls-3" d="M65.92,87.18c.09,0,0,.25.19.14,0,0,0-.09,0-.13S66,87.07,65.92,87.18Z"/><path class="cls-3" d="M60.91,78.85c0,.08,0,.11.12.11s.09-.15.07-.25A.16.16,0,0,0,60.91,78.85Z"/><path class="cls-3" d="M46.38,71.8a.33.33,0,0,0,.3.06.16.16,0,0,0,.08-.06.11.11,0,0,0,0-.13h0a4,4,0,0,1-.49-.29h0a.13.13,0,0,1-.07-.06.46.46,0,0,1-.07-.07.27.27,0,0,1-.08-.07h0c-.13.06-.12.15,0,.24s.15.09.18.18h0l.08.06.08.07s0,0,.06.07Z"/><path class="cls-3" d="M54.25,70.78a.11.11,0,0,0,0,0l.08,0C54.34,70.75,54.29,70.78,54.25,70.78Z"/><path class="cls-3" d="M31.35,67.94s0,0,0-.07,0-.1.08-.13h0a.23.23,0,0,0-.22-.15l-.21.07a.23.23,0,0,1-.07.07h0a.14.14,0,0,0,.14.07s0,0,0,0a.06.06,0,0,0,0,0s.06,0,.06,0S31.27,67.93,31.35,67.94Z"/><path class="cls-3" d="M89.87,74.77c-.06,0-.11,0-.15,0a.07.07,0,0,0,0,.12h0s.1.07.14,0v-.14Z"/><path class="cls-3" d="M81.78,75.32h0c.06-.07.16,0,.22-.07v-.07h-.35A.19.19,0,0,0,81.78,75.32Z"/><path class="cls-3" d="M22.52,87.41c0-.07-.09-.15-.18-.12s-.06.11-.06.17a1.05,1.05,0,0,0,0,.18l.12-.08C22.45,87.52,22.58,87.53,22.52,87.41Z"/><path class="cls-3" d="M79.14,62.77s0,.06,0,.1-.05.14,0,.17.13,0,.17-.08a.25.25,0,0,0,0-.13A.26.26,0,0,0,79.14,62.77Z"/><polygon class="cls-3" points="27.85 76.98 27.85 76.98 27.86 76.98 27.85 76.98"/><path class="cls-3" d="M27.84,77v0S27.82,77,27.84,77Z"/><path class="cls-3" d="M31.86,61.59c0-.09-.05-.13-.14-.13l-.07.07C31.7,61.61,31.78,61.6,31.86,61.59Z"/><path class="cls-3" d="M88.7,70.54h0s0,0,0,0h0Z"/><path class="cls-3" d="M89.3,70.5l0,0,.05,0Z"/><path class="cls-3" d="M89.77,74.06s-.07,0-.12,0a.49.49,0,0,1,0,.12S89.78,74.14,89.77,74.06Z"/><path class="cls-3" d="M23.57,78.08c-.06,0-.07-.11-.13-.09s0,.1,0,.15.07,0,.1.08h.05A.93.93,0,0,1,23.57,78.08Z"/><path class="cls-3" d="M72.63,102.16s-.11.07-.08.12.1,0,.15,0a.53.53,0,0,0,0-.13Z"/><path class="cls-3" d="M76.64,102.57a.28.28,0,0,0,.28,0c0-.06.07-.14,0-.15S76.65,102.43,76.64,102.57Z"/><path class="cls-3" d="M77.76,102c-.14-.05-.27.08-.41,0s.05.13.08.2.22-.14.34-.21A.06.06,0,0,0,77.76,102Z"/><path class="cls-3" d="M73.77,102.57c0,.05-.1,0-.14.07h-.14l-.36.21c-.13,0-.25,0-.21.19s.17.13.29.07a2.29,2.29,0,0,1,.31-.16c.14-.07.37,0,.4-.25,0-.09-.06-.13-.15-.14Z"/><path class="cls-3" d="M75.9,103.48s0,0-.05-.08l-.28.07c0,.17.12.09.19.11A.11.11,0,0,0,75.9,103.48Z"/><path class="cls-3" d="M62.33,87s0,.12.09.11a0,0,0,0,0,0,0C62.45,87,62.39,87,62.33,87Z"/><path class="cls-3" d="M78.2,74.57l0,.05c.19,0,.2,0,.14-.14S78.23,74.5,78.2,74.57Z"/><path class="cls-3" d="M65.64,90.1a.07.07,0,0,0,.06.07,0,0,0,0,0,.06,0s0-.07-.06-.07S65.64,90.06,65.64,90.1Z"/><path class="cls-3" d="M59.74,82.31h-.11c-.09.08-.1.21-.23.26-.19.26-.16.32.13.34,0-.06,0-.15,0-.16C59.82,82.66,59.76,82.48,59.74,82.31Z"/><path class="cls-3" d="M60.82,81.4l-.07-.07c-.07,0-.18,0-.18.08s0,.19.17.18S60.82,81.48,60.82,81.4Z"/><path class="cls-3" d="M56,77.45l-.06-.13c-.1,0-.15,0-.14.14Z"/><path class="cls-3" d="M48.38,72.7c0,.1,0,.16.1.13s.49-.18.73,0l0-.09c-.14-.06,0-.21-.08-.27a.6.6,0,0,1-.36-.14c0,.11-.08.23-.25.19S48.39,72.6,48.38,72.7Z"/><path class="cls-3" d="M87.29,73.53h.06c.1-.1,0-.14-.06-.19h0C87.12,73.4,87.17,73.47,87.29,73.53Z"/><path class="cls-3" d="M82.28,74.71h-.07c-.07.08,0,.19,0,.27l.06.07h.13l.07-.07C82.59,74.78,82.35,74.78,82.28,74.71Z"/><path class="cls-3" d="M83.08,73s.11,0,.08-.09-.1,0-.15,0v0Z"/><path class="cls-3" d="M24.49,90.53l0,0s0,0,0,0,.05,0,.05,0S24.53,90.53,24.49,90.53Z"/><path class="cls-3" d="M37.45,87.48a.48.48,0,0,0-.16-.35,4.47,4.47,0,0,1-.36-.89c-.09.12,0,.26-.13.33,0,.22.18.33.23.52a1.46,1.46,0,0,0,.27.58C37.45,87.68,37.43,87.57,37.45,87.48Z"/><path class="cls-3" d="M38.14,89.76a.32.32,0,0,1-.06-.23.86.86,0,0,0,0-.28c0-.24-.17-.43-.21-.66a.1.1,0,0,0-.07,0h0l0-.11h-.06a.09.09,0,0,0-.15,0,.21.21,0,0,0,0,.31.61.61,0,0,1,.15.48.65.65,0,0,0,.08.27s.05,0,.06.07l.08.2a.16.16,0,0,1,.08.13A.15.15,0,0,0,38.14,89.76Z"/><path class="cls-3" d="M36.65,88.78a.41.41,0,0,0-.11,0s-.12,0-.14.06.05.1.09.13.26,0,.37-.06S36.7,88.86,36.65,88.78Z"/><path class="cls-3" d="M35.42,76.23H35.3c0,.12-.06.26.14.28S35.45,76.32,35.42,76.23Z"/><path class="cls-3" d="M26.86,83a.13.13,0,0,0,.14-.14.39.39,0,0,0-.29-.13c0,.13.06.19.15.27Z"/><path class="cls-3" d="M69.94,101.26s0,.07,0,.11.09,0,.14,0v-.07S70,101.25,69.94,101.26Z"/><path class="cls-3" d="M71.89,102.39c.23.06.23.06.24-.09C72,102.31,71.94,102.28,71.89,102.39Z"/><path class="cls-3" d="M69.51,105.8c0,.13-.13.18-.24.22l-.08.14c0,.09,0,.1.1.11h.1l.08,0c.13-.06.29-.06.36-.2a.86.86,0,0,0-.14-.13.14.14,0,0,0-.06-.14S69.52,105.76,69.51,105.8Z"/><path class="cls-3" d="M73.71,104.44l-.07.07c-.07.11,0,.16.09.13a3,3,0,0,0,.4-.21s.1,0,.15-.06h0c-.06-.08-.14-.07-.22-.07a.15.15,0,0,1-.09.06Z"/><path class="cls-3" d="M60.94,95a.14.14,0,0,0,0,.23l.08-.13.06-.08h0C61.06,94.92,61,94.89,60.94,95Z"/><path class="cls-3" d="M65.62,91.67c0-.09-.1-.14-.2-.06s0,.09-.07.14C65.48,91.85,65.58,91.85,65.62,91.67Z"/><path class="cls-3" d="M79.21,67.25a.12.12,0,0,0,.14.14A.13.13,0,0,0,79.21,67.25Z"/><path class="cls-3" d="M47.27,74.21s0,.06,0,.09a.36.36,0,0,0,.07.1l0,0,.14-.06c.1,0,.26,0,.28-.14h0c-.14-.1-.38-.09-.34-.35-.07,0-.12,0-.17,0S47.28,74.11,47.27,74.21Z"/><path class="cls-3" d="M48.24,74.52l0,0c0,.08.06.07.11.09h0S48.32,74.52,48.24,74.52Z"/><path class="cls-3" d="M46.27,73.25h.1a.22.22,0,0,0,0-.08s-.09-.06-.12,0S46.22,73.24,46.27,73.25Z"/><path class="cls-3" d="M47.32,72.84c0,.19.17.16.28.2.17-.14,0-.18-.08-.27l-.15-.13a.14.14,0,0,0-.06.13S47.32,72.81,47.32,72.84Z"/><path class="cls-3" d="M21.92,100.36c-.07,0-.16,0-.23,0,.11,0,.2.06.29,0Z"/><path class="cls-3" d="M23.56,101.4c.06-.07,0-.16.08-.23v-.32h0c0-.09,0-.19-.12-.19a1,1,0,0,1,0,.17h0s0,.06,0,.09h0s0,0,0,.07v.13s0,.11-.07.14h0c0,.08,0,.22.14.14Z"/><path class="cls-3" d="M86.72,73.41h-.06l0,0a.08.08,0,0,0,.09,0S86.75,73.42,86.72,73.41Z"/><path class="cls-3" d="M26.49,96.36c.06-.11,0-.23,0-.34s0-.07-.09-.07c-.12.17-.07.4-.22.55h0c-.05.08-.06.16,0,.21s.15,0,.2-.06a.4.4,0,0,0,.07-.24Z"/><path class="cls-3" d="M84.64,69.81a1.14,1.14,0,0,1-.57-.28h0l-.08,0c0-.13-.26,0-.3-.16a.43.43,0,0,1-.06-.22c0-.06,0-.15-.13-.23,0,.23-.07.34-.29.38.19.23.5.19.65.4a4.66,4.66,0,0,0,1,.56c.07,0,.15,0,.2-.06L85,70.09c0-.08-.14-.08-.2-.15A.47.47,0,0,1,84.64,69.81Z"/><path class="cls-3" d="M28.56,88.7l.08-.06c0-.13.15-.21.14-.34s0-.16-.14-.08-.41.21-.28.49h0A.15.15,0,0,0,28.56,88.7Z"/><path class="cls-3" d="M28,90.78l-.15.06a.08.08,0,0,0-.13,0c0,.06,0,.09.07.12H28A.15.15,0,0,0,28,90.78Z"/><path class="cls-3" d="M37.65,88.08s0,0,0-.06c-.18-.1-.2-.09-.21.12a.23.23,0,0,1,.07.14C37.61,88.24,37.56,88.12,37.65,88.08Z"/><path class="cls-3" d="M37.29,82.44c-.08,0-.12-.16-.22-.09s0,.16,0,.24v0h.13A.19.19,0,0,0,37.29,82.44Z"/><path class="cls-3" d="M36.4,78.13l0,.06,0,0s0,0,0-.06Z"/><path class="cls-3" d="M71,103.19l-.14.07c-.3.11-.3.11-.43-.18,0,0,0,0-.14,0h0a.28.28,0,0,1,0,.29h0a.05.05,0,0,0,0,.07h0l0,0q-.07.23.15.15h0s0,0,0,0c.25.06.37-.13.54-.23l.12-.08.07-.06s.06-.1,0-.15S71,103.17,71,103.19Z"/><path class="cls-3" d="M70.92,104.44a.17.17,0,0,0,.28,0h.21c0-.05.22-.09,0-.14h-.28C71,104.23,70.93,104.31,70.92,104.44Z"/><path class="cls-3" d="M71.3,103.4h.26l.07-.06s.07-.07.08-.11,0,0-.08,0S71.41,103.28,71.3,103.4Z"/><path class="cls-3" d="M71.48,103h-.21c0,.06-.07.14,0,.18s.13,0,.18-.08S71.47,103,71.48,103Z"/><path class="cls-3" d="M67.62,105.75c-.16-.07-.31,0-.46,0a.35.35,0,0,0-.13.08.12.12,0,0,0,0,.14s0,0,.07,0,.11,0,.15-.06h.21c.08-.07.2,0,.29-.06l.42-.08c-.11-.19-.28-.07-.43-.06Z"/><path class="cls-3" d="M70.54,104.64c-.09-.11-.22,0-.34-.06s.07.15.18.11Z"/><path class="cls-3" d="M47.38,88.19c0,.06,0,.13-.07.18l0,0a.58.58,0,0,0-.05.26c0,.13,0,.28.15.36a.14.14,0,0,0,.09,0c0-.12-.12-.23,0-.35a.93.93,0,0,1,.07-.41s0-.09-.07-.11S47.39,88.14,47.38,88.19Z"/><path class="cls-3" d="M56.39,93.26c0-.07.11-.14,0-.21h-.13a.57.57,0,0,1-.18,0L56,93l-.21,0H55.2l.19.13c.14,0,.24,0,.22.2a.12.12,0,0,0,.07.14h.14v-.1l0,0,0,0a.2.2,0,0,1,.09,0c.08,0,0,.07,0,.11s-.09.17,0,.25h.19c.14,0,.34,0,.41-.11S56.38,93.41,56.39,93.26Z"/><path class="cls-3" d="M56.57,90.8a.36.36,0,0,0,0,.09s.07.13.14.08.06-.18,0-.27v-.06h0a.16.16,0,0,1-.06-.08l-.09-.19c-.11.07-.06.18-.06.27S56.55,90.75,56.57,90.8Z"/><path class="cls-3" d="M51.56,92.66c-.13,0,0,.17,0,.25h0l.07.07h0c.08,0,.11,0,.14-.07v-.06C51.64,92.81,51.7,92.61,51.56,92.66Z"/><path class="cls-3" d="M58.61,90.77a.17.17,0,0,0,.1,0,.22.22,0,0,0,.09-.07l0,0c0-.08,0-.16-.07-.21a1.07,1.07,0,0,0-.29.27A.13.13,0,0,0,58.61,90.77Z"/><path class="cls-3" d="M60.85,95.6c0,.08.06.11.12.14h0a.46.46,0,0,0,.07-.07h0c0-.06,0-.13-.12-.12S60.85,95.56,60.85,95.6Z"/><path class="cls-3" d="M60.24,96.22c0,.18.11,0,.16,0h0a.17.17,0,0,0-.08-.14h0a.27.27,0,0,1-.08.07S60.24,96.2,60.24,96.22Z"/><path class="cls-3" d="M61.2,95.27c0,.15.07.08.13.06S61.26,95.26,61.2,95.27Z"/><path class="cls-3" d="M60.12,96.37s0,.1-.08.13h0a.16.16,0,0,1-.08.06H59.9s-.09.05-.08.11a.06.06,0,0,0,.08,0h.28c0-.08,0-.16.08-.21v-.06c0-.12,0-.12-.14-.07Z"/><path class="cls-3" d="M48.81,79.46l0,0a.06.06,0,0,0,0,0,.13.13,0,0,0-.15.14.09.09,0,0,0,0,.07s0,0,0,.06l.13,0A.28.28,0,0,0,48.81,79.46Z"/><path class="cls-3" d="M27.36,85.74a.09.09,0,0,0-.15,0s0,0,0,.06.1,0,.16,0Z"/><path class="cls-3" d="M23.7,100.28c0-.08-.05-.11-.13-.11v.19C23.63,100.36,23.69,100.36,23.7,100.28Z"/><path class="cls-3" d="M26.05,100.64a.51.51,0,0,1,0-.13.1.1,0,0,0-.14,0C25.93,100.59,26,100.64,26.05,100.64Z"/><polygon class="cls-3" points="25.93 100.5 25.93 100.5 25.93 100.5 25.93 100.5"/><path class="cls-3" d="M46.59,95.26h0a3.78,3.78,0,0,0,.21.56v.05c.22.32.22.32.23.49s.13.33.36.33a.23.23,0,0,0,.19-.18.22.22,0,0,0-.1-.22.08.08,0,0,0-.09,0h0a.18.18,0,0,0,.06-.17l0-.09a.27.27,0,0,0-.29-.22h0v-.1s0,0,0,0-.06-.15-.1-.21-.11-.37-.37-.37A.09.09,0,0,0,46.59,95.26Z"/><path class="cls-3" d="M42,105.68a.17.17,0,0,1-.15-.06h-.07l-.07.07h0a.46.46,0,0,1,.07.07h.17S42,105.74,42,105.68Z"/><path class="cls-3" d="M39.94,94.6c0,.31,0,.35,0,.36a.08.08,0,0,0,.07,0A.26.26,0,0,0,39.94,94.6Z"/><path class="cls-3" d="M25.74,98.19c0,.1-.1.2,0,.31l0,0a.17.17,0,0,0,.17,0h0l.08-.07c0-.06.28-.06.06-.19-.07,0-.16.08-.21,0S25.76,98.13,25.74,98.19Z"/><path class="cls-3" d="M40.45,105.19a.11.11,0,0,0,.13-.06C40.52,105.13,40.47,105.13,40.45,105.19Z"/><path class="cls-3" d="M44.37,91.41c.07,0,.24,0,.14-.14s-.29,0-.41-.09H44a.14.14,0,0,0-.09,0h-.13v0c-.08,0-.16,0-.24,0a.5.5,0,0,0,.24,0,.14.14,0,0,1,.14.07l.07.06h.06a.24.24,0,0,0,.2,0Z"/><path class="cls-3" d="M45.81,93.19l0,0a.29.29,0,0,1-.12-.18.16.16,0,0,0,0-.09.32.32,0,0,0-.25-.24h0a.16.16,0,0,0-.14.07l.22.41c.07.06,0,.15.08.21h0l.07.06C45.76,93.42,45.82,93.34,45.81,93.19Z"/><path class="cls-3" d="M42.1,91.39h0l.07-.07v0l-.06-.08v-.14a.2.2,0,0,0,.21-.06c-.07,0-.13,0-.15-.12l-.08,0,0,0c-.08,0-.15-.11-.24,0h0l.06.26.06,0A.43.43,0,0,0,42.1,91.39Z"/><path class="cls-3" d="M40.9,82.76h0c0-.07,0-.15-.07-.19a.25.25,0,0,1-.15-.06c-.11.09-.08.18,0,.26v.07h.07v.06a.5.5,0,0,1,.15.26s0,.06.07.09h0c0,.09,0,.2.13.27a.29.29,0,0,0,.15.14.64.64,0,0,1,.08.33c0,.07,0,.16.06.22h0c.05,0,0,.11.07.16s0,.1.05.16,0,0,.07,0a.21.21,0,0,1,.29-.1h0a.28.28,0,0,0,0,.09,1.41,1.41,0,0,0,.17.32l.07.11a.25.25,0,0,0,0,.07.41.41,0,0,0,.17.24c.15,0,.22.11.29.2s.16.1.2,0a1,1,0,0,0-.21-.43.56.56,0,0,0,0-.08c-.14-.14-.18-.33-.3-.48h0l-.06-.06c-.07,0-.13-.1-.22-.09s.07-.12,0-.16c-.21-.2-.34-.48-.61-.63h0a.54.54,0,0,0-.08-.35A.88.88,0,0,0,40.9,82.76Z"/><path class="cls-3" d="M47.27,90.06c.08.09.13,0,.18,0v-.14a.11.11,0,0,1,0-.14V89.6c-.11-.06,0-.22-.14-.27C47.09,89.56,47.24,89.81,47.27,90.06Z"/><path class="cls-3" d="M53.32,95.33l.06-.07c0-.23-.17-.11-.27-.07s0,0,0,.07S53.23,95.33,53.32,95.33Z"/><path class="cls-3" d="M57.45,91.44c.07,0,.07-.06.09-.11s-.09-.14-.15-.21-.18,0-.18.12S57.35,91.4,57.45,91.44Z"/><path class="cls-3" d="M57,93c0,.07.08.16.17,0l0-.1s0-.1-.06-.14h0C57,92.83,57,92.91,57,93Z"/><path class="cls-3" d="M57.82,91.6h0s0,0-.08,0-.12,0-.12.09,0,0,0,0,.08,0,.12,0Z"/><path class="cls-3" d="M56.52,92c0,.05,0,.05.08.05s.07-.05.07-.1,0-.06-.07,0A.11.11,0,0,0,56.52,92Z"/><path class="cls-3" d="M56.75,92.57h0c0,.06.11.09.17,0a.06.06,0,0,0,0-.11C56.82,92.44,56.81,92.56,56.75,92.57Z"/><path class="cls-3" d="M55.83,94a.13.13,0,0,1,0,.06h0s0,.1.07.13.07.06.12.06,0-.08,0-.12S56,94,56,94h0s0,0,0,0S55.84,94,55.83,94Z"/><path class="cls-3" d="M49.61,104.9a.13.13,0,0,0,0-.12.29.29,0,0,0,0-.09,1.4,1.4,0,0,0-.2-.56c-.06,0-.11-.08-.18,0a.06.06,0,0,0,0,.06.14.14,0,0,0,0,.16c.09.34.18.69.3,1C49.65,105.21,49.57,105.05,49.61,104.9Z"/><path class="cls-3" d="M35.28,102.21c0-.1-.07-.13-.15-.15s-.1,0-.1.08.1.12.18.13A.06.06,0,0,0,35.28,102.21Z"/><path class="cls-3" d="M45.1,91H45v.07a.46.46,0,0,1,.07.07l.22.14a.11.11,0,0,0,0-.14A.27.27,0,0,0,45.1,91Z"/><polygon class="cls-3" points="45.24 91.26 45.23 91.26 45.23 91.26 45.24 91.26"/><path class="cls-3" d="M44.16,89.12h0c.15,0,.21,0,.15-.14h0C44.21,89,44.16,89,44.16,89.12Z"/><path class="cls-3" d="M43.58,88c0,.14.15.18.23.26s.13.23.27.3c0-.12-.07-.2-.06-.3a.09.09,0,0,0,0-.13h0c-.17-.06-.16-.25-.29-.34v0a.16.16,0,0,1-.08-.06h0a.47.47,0,0,0-.06-.09s0,0-.08,0,0,.27,0,.41Z"/><path class="cls-3" d="M42.8,88.23h.1a.06.06,0,0,0,.05,0c0-.12-.16-.15-.14-.27l-.08-.07C42.56,88,42.78,88.11,42.8,88.23Z"/><path class="cls-3" d="M45.16,91.4,45,91.3a.13.13,0,0,0-.15,0c0,.06.07.07.09.12S45.13,91.64,45.16,91.4Z"/><path class="cls-3" d="M46.89,94l-.07-.07a.09.09,0,1,0,.07.07Z"/><path class="cls-3" d="M47.38,92.08a2.52,2.52,0,0,0,0,.55l.14-.06c0-.07,0-.14,0-.21S47.49,92.14,47.38,92.08Z"/><path class="cls-3" d="M47.52,91.74a.06.06,0,0,1-.06,0c-.12.11,0,.12.06.14S47.58,91.79,47.52,91.74Z"/><path class="cls-3" d="M42.92,86.19a.08.08,0,0,0,0-.07c0-.06,0-.08-.09-.1s-.21-.25-.36-.34c0,.16.07.28.14.41l.07.06h0A.19.19,0,0,0,42.92,86.19Z"/><path class="cls-3" d="M40.22,82l.22.33c.07,0,.08-.09.09-.15s-.07-.27-.22-.34S40.18,81.94,40.22,82Z"/><path class="cls-3" d="M69.55,103.87l-.07,0a.15.15,0,0,0-.14,0l-.43.2-.07.07c-.11.08-.25,0-.36.06h-.21a.12.12,0,0,0-.14.06h0c-.11,0-.17.15-.29.14l-.08.06h-.07l-.07.07s-.08.06-.15.06l-.35.07c-.09.05-.21,0-.28.07h0c-.13.19-.42.09-.55.27a.52.52,0,0,0,.56-.06.41.41,0,0,1,.27-.07h0c.07-.06.15,0,.22,0l.09,0c.1-.05.19-.12.32-.07s.18-.07.23-.16.31-.09.44-.2a.17.17,0,0,0,.15-.06.51.51,0,0,0,.34-.08.11.11,0,0,1,.15,0h.06a.55.55,0,0,1,.38,0,1.17,1.17,0,0,0,.55-.19H70c-.1,0-.1-.13-.13-.21h0a.17.17,0,0,1,0-.05.12.12,0,0,0-.2,0A.24.24,0,0,1,69.55,103.87Z"/><path class="cls-3" d="M56.5,105.25c0,.06,0,.08.07.08a.33.33,0,0,0,.1,0v-.06l-.06,0S56.52,105.2,56.5,105.25Z"/><path class="cls-3" d="M41.58,83.61c.08.08.12.21.27.24,0-.17-.07-.27-.12-.39h-.06C41.6,83.49,41.59,83.55,41.58,83.61Z"/><path class="cls-3" d="M50,94.77h0s0,0,0,0,0,0,.05,0a.09.09,0,0,1,.07,0c.12,0,.25,0,.34-.06a1.85,1.85,0,0,0-.14-.14C50.06,94.55,50.06,94.55,50,94.77Z"/><path class="cls-3" d="M52,94.73s.07,0,.12,0v-.1c0-.06,0-.14-.09-.12S52,94.67,52,94.73Z"/><path class="cls-3" d="M57.11,93.4l.14.07s0,0,0-.06a.39.39,0,0,0-.08-.21C57,93.21,57.13,93.33,57.11,93.4Z"/><path class="cls-3" d="M59.32,96.63a.61.61,0,0,0,.46-.07.35.35,0,0,1-.31-.13H59.4C59.38,96.5,59.29,96.53,59.32,96.63Z"/><polygon class="cls-3" points="58.79 94.28 58.8 94.26 58.78 94.26 58.79 94.28"/><path class="cls-3" d="M67.27,100.91c-.06,0-.09.07-.07.13s.09,0,.14,0S67.38,100.9,67.27,100.91Z"/><path class="cls-3" d="M47.59,99.07a.21.21,0,0,0-.11,0s-.13,0-.14.06.06.06.1.08l.09,0C47.61,99.21,47.6,99.14,47.59,99.07Z"/><path class="cls-3" d="M48.46,105.23c-.12,0-.14.08-.15.17h-.06a.06.06,0,0,0,0,.06c.13.11,0,.25,0,.37s.12-.08.18-.09a.45.45,0,0,0,.08-.27l0-.09C48.52,105.33,48.55,105.24,48.46,105.23Z"/><path class="cls-3" d="M47.87,96.16c-.08-.06,0-.16-.07-.24s-.1-.1-.16,0a.33.33,0,0,0,0,.13,1.56,1.56,0,0,1,.14.48l.15-.13C47.88,96.3,47.88,96.23,47.87,96.16Z"/><path class="cls-3" d="M48.34,100.22h0a.45.45,0,0,1,.07.25,1.88,1.88,0,0,0,.13.58h0c.13.45.15.92.24,1.37.12.1,0,.27.13.36h0c0,.26.18.48.15.74l.07,0s0,0,0,0a.11.11,0,0,0,.06-.13l0,0a.31.31,0,0,0,0-.08v-.17a.29.29,0,0,0,0-.09,1.26,1.26,0,0,1-.1-.38.41.41,0,0,0-.05-.09h0v0a.5.5,0,0,0,0-.21c0-.09-.05-.19-.08-.29a4.52,4.52,0,0,0-.12-.62.57.57,0,0,1-.09-.33V101a.18.18,0,0,0,0-.12h-.07a.19.19,0,0,0,0-.15,1.54,1.54,0,0,1,0-.43c0-.11,0-.23-.15-.25l0,0c-.07,0,0-.14-.12-.15A.42.42,0,0,0,48.34,100.22Z"/><path class="cls-3" d="M47.51,95.12s.06,0,.09.07a.14.14,0,0,0,.15-.07.21.21,0,0,0,.09-.18.16.16,0,0,0,0-.09.87.87,0,0,0-.11-.18l0,0c-.15.11,0,.31-.14.42h0A0,0,0,0,0,47.51,95.12Z"/><path class="cls-3" d="M47.23,95.33v.06s0,.11.06.11.09-.06.09-.11v-.13h-.07A.1.1,0,0,0,47.23,95.33Z"/><path class="cls-3" d="M47.53,93.05a.13.13,0,0,0,0-.06c-.13.15-.05.31,0,.48A1.24,1.24,0,0,0,47.53,93.05Z"/><path class="cls-3" d="M48,91.81c-.07,0,0,.09,0,.14s.16,0,.16-.06S48,91.81,48,91.81Z"/><path class="cls-3" d="M50.89,97.81h0s-.18,0-.13.12.17.06.27,0h0A.13.13,0,0,0,50.89,97.81Z"/><path class="cls-3" d="M52.12,97.33s0-.1.05-.14v-.06c-.13,0-.19.09-.29.13h0c-.05.07,0,.13,0,.17a.1.1,0,0,0,.1,0h0A.17.17,0,0,0,52.12,97.33Z"/><path class="cls-3" d="M57.19,93.67a1.4,1.4,0,0,0,.1.16l.09-.16C57.32,93.58,57.25,93.58,57.19,93.67Z"/><path class="cls-3" d="M57.74,95.13c-.1-.1,0-.23-.06-.35a.13.13,0,0,1,0-.06h0s0-.08,0-.12a.86.86,0,0,1-.1-.16h0a.6.6,0,0,0-.08.08.16.16,0,0,0,0,.2s0,0,0,.06,0,.11.07.15v.13a3.93,3.93,0,0,1,.21.9v0a.41.41,0,0,0,0,.21l0,0c.08,0,.16,0,.12-.12a.27.27,0,0,1,.09-.36.22.22,0,0,0,.06-.19C57.79,95.49,57.79,95.49,57.74,95.13Z"/><path class="cls-3" d="M48.31,94.36V94.3a.14.14,0,0,0,0-.15c0-.06-.1-.16-.15,0s0,.11-.07.15v.06s0,0,0,.07v.07C48.27,94.6,48.25,94.43,48.31,94.36Z"/><path class="cls-3" d="M58.05,98.92a.17.17,0,0,0-.24,0c0,.1,0,.16.09.24S58,99,58.05,98.92Z"/><path class="cls-3" d="M56.53,100.24c0,.05,0,.1.07.1s.07,0,.07-.1,0-.08-.08-.1S56.53,100.2,56.53,100.24Z"/><path class="cls-3" d="M52.13,97.73a.15.15,0,0,0-.13,0,.24.24,0,0,0-.06.08c0,.05,0,0,.08,0s.15,0,.15.13-.08.13,0,.22a.88.88,0,0,0,.31-.39.83.83,0,0,1,0-.15c0-.09,0-.11-.1-.12S52.31,97.78,52.13,97.73Z"/><path class="cls-3" d="M52,99.19s0,0,0-.06a.16.16,0,0,1,.07-.07h0a1.59,1.59,0,0,1,.13-.13c-.06-.07-.14,0-.21,0s-.21.38-.39.52l.12.06.2-.16S51.92,99.23,52,99.19Z"/><path class="cls-3" d="M51.1,104c-.09-.1-.19,0-.29,0C51,104.2,51,104.2,51.1,104Z"/><path class="cls-3" d="M53.6,103.58v0a.1.1,0,0,0-.14,0h0c0,.11-.16.22,0,.34v-.06l.06-.08a.14.14,0,0,1,.06-.13Z"/><path class="cls-3" d="M48.12,94.87h0s0,0,0,0,0,0,0,0Z"/></g></g><g id="Charger"><path d="M75.88,60.41c0,5.12,0,10.25,0,15.37a4.53,4.53,0,0,1-2.84,4.52c-5.61,2.52-11.22,5-16.85,7.51a8,8,0,0,1-6.69-.12c-5.38-2.39-10.74-4.82-16.13-7.19a5,5,0,0,1-3.27-5c.05-10.14,0-20.28,0-30.42a3.5,3.5,0,0,1,2.75-3.75c2.64-.84,5.27-1.72,7.91-2.55a.94.94,0,0,0,.76-1.08c0-3.7-.06-7.4,0-11.09A28.64,28.64,0,0,1,42.82,20a2.41,2.41,0,0,1,1.89-1.64c1-.26,2-.52,3-.74a2.59,2.59,0,0,1,3.15,1.72,13,13,0,0,1,1,5.09c-.09,3.24,0,6.49,0,9.74,0,.69.13,1,.92,1,1.64-.09,1.6.3,1.5-1.52a32.29,32.29,0,0,1,1.11-9.23,2.71,2.71,0,0,1,2.14-2.19c1-.25,2-.51,3.08-.73a2.41,2.41,0,0,1,2.82,1.37,11.14,11.14,0,0,1,1.15,4.56c-.08,3.41,0,6.82,0,10.22a1,1,0,0,0,.86,1.16c2.67.84,5.32,1.74,8,2.61a3.36,3.36,0,0,1,2.58,3.53C75.89,50.06,75.88,55.23,75.88,60.41ZM32.78,62q0,6.78,0,13.55a2.36,2.36,0,0,0,1.55,2.4Q42.26,81.42,50.15,85a6.56,6.56,0,0,0,5.78,0q7.77-3.57,15.61-7a2.56,2.56,0,0,0,1.71-2.63c0-9,0-18,0-26.93,0-.93,0-.94-.93-.63-5.49,1.79-11,3.56-16.48,5.37a8.19,8.19,0,0,1-5.42,0c-5.55-1.87-11.13-3.66-16.7-5.48-.92-.3-.92-.29-.92.67ZM54.22,43.1h0V39.3c0-1.5-.06-1.53-1.56-1.47-.62,0-.92.23-.87.9s0,1.27,0,1.9a.66.66,0,0,1-.48.72l-9.17,3c-.48.17-.62,0-.61-.48,0-.63,0-1.27,0-1.9s-.21-.67-.72-.5L33.69,43.9c-.29.09-.68.19-.68.56s.41.42.69.51c5.92,1.94,11.85,3.87,17.76,5.83a4.77,4.77,0,0,0,3.1,0l17.38-5.71a6.46,6.46,0,0,0,.73-.28c.19-.08.43-.16.43-.41s-.23-.27-.39-.35a2.69,2.69,0,0,0-.43-.19l-7.15-2.35c-.53-.18-.66,0-.65.5,0,.76,0,1.53,0,2.29a.82.82,0,0,1-.66.92q-4.44,1.45-8.86,3c-.58.2-.76,0-.75-.56C54.24,46.12,54.22,44.61,54.22,43.1Zm-10-9.7c0,2.24,0,4.49,0,6.73,0,.55.16.71.7.52,1.15-.41,2.3-.8,3.46-1.15a1,1,0,0,0,.82-1.12c0-3.19,0-6.39,0-9.58,0-1.86,0-1.86-1.8-1.29l-.08,0A1.36,1.36,0,1,1,46.45,25c.67-.24,1.34-.48,2-.67a.82.82,0,0,0,.68-1,10.87,10.87,0,0,0-.76-2.73c-.08-.27-.3-.23-.52-.18-.61.16-1.22.34-1.84.45a1,1,0,0,0-.91.92,31.68,31.68,0,0,0-1,9.09C44.23,31.71,44.19,32.55,44.19,33.4Zm12.68,3.87c0,2.17,0,4.33,0,6.5,0,.68.14.9.85.64,1.08-.41,2.19-.77,3.3-1.1.59-.18.89-.46.83-1.12a15.31,15.31,0,0,1,0-1.66q0-4.39,0-8.79c0-1.06,0-1.06-1-.71l-.9.3a1.37,1.37,0,0,1-1.87-.8,1.4,1.4,0,0,1,1-1.77c.7-.24,1.4-.48,2.11-.69a.77.77,0,0,0,.61-.87,9.45,9.45,0,0,0-.76-2.81c-.1-.32-.36-.23-.59-.17-.61.15-1.22.34-1.84.45s-.72.42-.84.9a31.84,31.84,0,0,0-1,9.17C56.91,35.58,56.87,36.43,56.87,37.27Z"/><polygon points="59.83 23.42 57.3 23.94 55.21 31.52 55.73 41.97 55.65 45.89 57.56 45.98 61.92 44.5 63.31 43.8 62.88 31.34 62.88 27.69 62.53 24.2 61.05 22.98 59.83 23.42"/><path d="M43.19,23.68c0-.26,1-3.4,1-3.4l2-1.13,2.87-.35,1.22,3.14.79,6.88-.27,5L50.59,38l-.43,2.43-5.23,1.66L43.1,42s-.17-5.31-.17-5.57S43.19,23.68,43.19,23.68Z"/></g></svg>