<svg xmlns="http://www.w3.org/2000/svg" viewBox="0 0 106 106"><defs><style>.cls-1,.cls-2,.cls-3,.cls-4{fill:#010101;stroke:#1d1d1b;stroke-miterlimit:10;}.cls-2{stroke-width:0.75px;}.cls-3{stroke-width:0.5px;}.cls-4{stroke-width:0.25px;}</style></defs><title>webIcons_cable</title><g id="visLines"><path class="cls-1" d="M27.18,29.32h-8V23.76a2.16,2.16,0,0,1,2.16-2.16H25a2.16,2.16,0,0,1,2.16,2.16ZM20,28.42h6.23V23.76A1.25,1.25,0,0,0,25,22.5H21.29A1.25,1.25,0,0,0,20,23.76Z"/><path class="cls-1" d="M26.25,46.16H20A2.16,2.16,0,0,1,17.8,44V30.58A2.16,2.16,0,0,1,20,28.42h6.29a2.16,2.16,0,0,1,2.16,2.16V44A2.16,2.16,0,0,1,26.25,46.16ZM20,29.32a1.26,1.26,0,0,0-1.25,1.26V44A1.25,1.25,0,0,0,20,45.26h6.29A1.25,1.25,0,0,0,27.5,44V30.58a1.26,1.26,0,0,0-1.25-1.26Z"/><path class="cls-1" d="M26,59.7H20V45.26H26Zm-5-.91h4.1V46.16H21Z"/><path class="cls-2" d="M83.9,92.63H78.15A2.16,2.16,0,0,1,76,90.47V82.35H86.06v8.12A2.16,2.16,0,0,1,83.9,92.63Zm-7-9.38v7.22a1.25,1.25,0,0,0,1.25,1.25H83.9a1.25,1.25,0,0,0,1.26-1.25V83.25Z"/><path class="cls-1" d="M85.29,83.25H76.87a2.16,2.16,0,0,1-2.16-2.16V67.66a2.16,2.16,0,0,1,2.16-2.15h8.42a2.16,2.16,0,0,1,2.16,2.15V81.09A2.16,2.16,0,0,1,85.29,83.25ZM76.87,66.41a1.25,1.25,0,0,0-1.25,1.25V81.09a1.26,1.26,0,0,0,1.25,1.26h8.42a1.26,1.26,0,0,0,1.25-1.26V67.66a1.25,1.25,0,0,0-1.25-1.25Z"/><path class="cls-1" d="M84.18,66.41H78.27V52h5.91Zm-5-.9h4.1V52.88h-4.1Z"/><path class="cls-1" d="M37.51,87.46a14.67,14.67,0,0,1-9.89-3.79l-.26-.24a14.74,14.74,0,0,1-4.82-10.88V59.24h.91V72.55A13.83,13.83,0,0,0,28,82.76l.26.24a13.87,13.87,0,0,0,18.71-.14l.35-.32a13.89,13.89,0,0,0,4.37-10.08V41A14.7,14.7,0,0,1,75.77,29.68l.52.43a14.65,14.65,0,0,1,5.3,11.31V52.48h-.91V41.42a13.75,13.75,0,0,0-5-10.61l-.52-.43A13.8,13.8,0,0,0,52.56,41V72.46A14.76,14.76,0,0,1,47.91,83.2l-.35.32A14.65,14.65,0,0,1,37.51,87.46Z"/><path class="cls-3" d="M25,24.45H21.35a.31.31,0,1,1,0-.61H25a.31.31,0,0,1,0,.61Z"/><path class="cls-4" d="M79.75,88.08h-2a.45.45,0,1,1,0-.9h2a.45.45,0,1,1,0,.9Z"/><path class="cls-4" d="M84.3,88.08h-2a.45.45,0,1,1,0-.9h2a.45.45,0,1,1,0,.9Z"/></g></svg>