<svg xmlns="http://www.w3.org/2000/svg" xmlns:xlink="http://www.w3.org/1999/xlink" viewBox="0 0 106 106"><defs><style>.cls-1,.cls-11{fill:none;}.cls-2{isolation:isolate;}.cls-3,.cls-4{fill:#fff;}.cls-11,.cls-3,.cls-5{stroke:#1d1d1b;stroke-miterlimit:10;}.cls-3{stroke-width:0.5px;}.cls-11,.cls-5{stroke-width:0.25px;}.cls-5{fill:url(#linear-gradient);}.cls-6{opacity:0.5;}.cls-7{fill:url(#linear-gradient-2);}.cls-8{opacity:0.61;mix-blend-mode:soft-light;}.cls-9{fill:url(#linear-gradient-3);}.cls-10{opacity:0.33;}.cls-12{fill:#040304;}.cls-13{fill:#010101;}.cls-14{fill:#3c3c3c;}.cls-15{fill:#1d1d1b;}.cls-16{fill:url(#radial-gradient);}.cls-17{clip-path:url(#clip-path);}.cls-18,.cls-19{opacity:0.15;mix-blend-mode:screen;}.cls-18{fill:url(#Degradado_sin_nombre_1349);}.cls-19{fill:url(#Degradado_sin_nombre_1350);}.cls-20{fill:#62bfb3;}</style><linearGradient id="linear-gradient" x1="52.07" y1="100.24" x2="52.07" y2="5.35" gradientUnits="userSpaceOnUse"><stop offset="0" stop-color="#776cab"/><stop offset="0.03" stop-color="#6f8aae"/><stop offset="0.05" stop-color="#69a1b0"/><stop offset="0.08" stop-color="#65b2b2"/><stop offset="0.11" stop-color="#63bcb3"/><stop offset="0.16" stop-color="#62bfb3"/><stop offset="0.51" stop-color="#62bfb3"/><stop offset="0.86" stop-color="#62bfb3"/><stop offset="0.9" stop-color="#fdeeeb"/><stop offset="0.95" stop-color="#62bfb3"/><stop offset="1" stop-color="#62bfb3"/></linearGradient><linearGradient id="linear-gradient-2" x1="65.14" y1="7.96" x2="65.14" y2="6.27" xlink:href="#linear-gradient"/><linearGradient id="linear-gradient-3" x1="31.74" y1="68.14" x2="34.04" y2="68.14" xlink:href="#linear-gradient"/><radialGradient id="radial-gradient" cx="32.73" cy="73.98" r="0.33" gradientUnits="userSpaceOnUse"><stop offset="0" stop-color="#3b3b3b"/><stop offset="0.1" stop-color="#313131"/><stop offset="0.44" stop-color="#171717"/><stop offset="0.73" stop-color="#070707"/><stop offset="0.96" stop-color="#010101"/></radialGradient><clipPath id="clip-path"><path id="SVGID" class="cls-1" d="M70.32,8a3.42,3.42,0,0,1,3.88,3.64l-.13,78.81a4.83,4.83,0,0,1-3.89,4.74L39.12,99.56a3.43,3.43,0,0,1-3.88-3.65l.13-78.81a4.83,4.83,0,0,1,3.89-4.74Z"/></clipPath><linearGradient id="Degradado_sin_nombre_1349" x1="-1187.54" y1="-2100.88" x2="-1134.35" y2="-2109.13" gradientTransform="matrix(1.45, 0, 0, 1, 1741.15, 2143.07)" gradientUnits="userSpaceOnUse"><stop offset="0" stop-color="#fff"/><stop offset="0.01" stop-color="#fff" stop-opacity="0.97"/><stop offset="0.13" stop-color="#fff" stop-opacity="0.72"/><stop offset="0.24" stop-color="#fff" stop-opacity="0.5"/><stop offset="0.34" stop-color="#fff" stop-opacity="0.32"/><stop offset="0.45" stop-color="#fff" stop-opacity="0.18"/><stop offset="0.54" stop-color="#fff" stop-opacity="0.08"/><stop offset="0.63" stop-color="#fff" stop-opacity="0.02"/><stop offset="0.7" stop-color="#fff" stop-opacity="0"/></linearGradient><linearGradient id="Degradado_sin_nombre_1350" x1="-1184.55" y1="-5546.1" x2="-1131.36" y2="-5554.34" gradientTransform="matrix(1.45, 0, 0, 0.33, 1732.77, 1858.71)" gradientUnits="userSpaceOnUse"><stop offset="0" stop-color="#fff"/><stop offset="0.1" stop-color="#fff" stop-opacity="0.75"/><stop offset="0.2" stop-color="#fff" stop-opacity="0.53"/><stop offset="0.3" stop-color="#fff" stop-opacity="0.34"/><stop offset="0.39" stop-color="#fff" stop-opacity="0.19"/><stop offset="0.48" stop-color="#fff" stop-opacity="0.09"/><stop offset="0.56" stop-color="#fff" stop-opacity="0.02"/><stop offset="0.62" stop-color="#fff" stop-opacity="0"/></linearGradient></defs><title>webIcons</title><g class="cls-2"><g id="phoneDented"><path class="cls-3" d="M34.49,16.53a5,5,0,0,1,4-4.91L70.75,7.09a3.56,3.56,0,0,1,4,3.78l-.1,57.56V72.3l0,18.86A4.86,4.86,0,0,1,74.27,93c-.12.31-.88.4-1.06.68a8.25,8.25,0,0,1-.61,1.14,3,3,0,0,1-2,1.24l-32.23,4.53a3.56,3.56,0,0,1-4-3.78"/><path class="cls-4" d="M70.32,8a3.42,3.42,0,0,1,3.88,3.64l-.13,78.81a4.83,4.83,0,0,1-3.89,4.74L39.12,99.56a3.43,3.43,0,0,1-3.88-3.65l.13-78.81a4.83,4.83,0,0,1,3.89-4.74Z"/><path class="cls-5" d="M69.78,5.76l-.12-.07,0,0-.2-.08-.09,0L69,5.46h0l-.26,0-.1,0-.22,0H68l-.33,0-2.39.33-1.47.88L62.5,6.11,35.39,9.92A2.66,2.66,0,0,0,35,10l-.1,0-.27.08-.1,0-.33.14h0l-.09,0-.27.14-.12.08-.17.11-.05,0-.09.06-.23.18a.46.46,0,0,1-.07.07l0,0L33,11.1c-.1.09-.19.19-.29.29s0,0-.06.06a.21.21,0,0,1,0,.06c-.1.11-.19.23-.28.35l0,.05v0l0,.05-.18.28-.06.09a.41.41,0,0,1-.05.09l-.07.16a.54.54,0,0,0-.07.13l-.12.29,0,.09h0a1.87,1.87,0,0,0-.07.22l-.06.18-.06.25c0,.06,0,.12,0,.18a2.89,2.89,0,0,0,0,.29.77.77,0,0,0,0,.15c0,.14,0,.29,0,.44L31.27,65.7l1.13,2.06-1.13,2,0,13.83.34,1.2-.34,1.36,0,9a3.79,3.79,0,0,0,1.87,3.42l3.13,1.7a3.79,3.79,0,0,1-1.87-3.41l0-27.31.34-2.29-.33-1.65.08-49c0-.15,0-.29,0-.44a.77.77,0,0,1,0-.15,2.89,2.89,0,0,1,0-.29c0-.06,0-.11,0-.17l.06-.26.06-.18c0-.08.05-.15.07-.23l0-.08.12-.3A.83.83,0,0,1,35,14.3l.12-.24.06-.1.18-.28,0,0,0-.06a3.44,3.44,0,0,1,.28-.36l.1-.12c.1-.1.19-.2.29-.29l.11-.1.07-.06a1.81,1.81,0,0,1,.23-.18l.09-.07a1.64,1.64,0,0,1,.22-.14l.12-.08.27-.14.09,0,.34-.14.1,0,.27-.08.1,0,.37-.07L63.65,8.09l1.61.44,1.22-.84,4.27-.6.34,0h.44l.22,0h.1l.26.05h0l.3.1.08,0,.21.09.17.08Z"/><g class="cls-6"><path class="cls-7" d="M64.31,6.27S66,7.6,66,8"/><path class="cls-4" d="M66.46,7.88a.13.13,0,0,0-.07,0s.08,0,.09-.07,0,0,0,0a.19.19,0,0,1-.1,0h0s0,0,0,0a0,0,0,0,1,0,0l0,0s0,0,0,0,0,0,0,0,.06,0,0-.05l-.1,0a1.15,1.15,0,0,1,.19-.17c.24-.19.2-.22,0-.13a1.08,1.08,0,0,0-.21.11c.07-.09,0,0,0,0s0,0,.07-.08l.06-.06.12-.1c0-.06,0,0,0-.05s0-.07-.08,0l-.13.09c-.1.07,0,0,.14-.16L66.44,7c.07-.08,0,0-.08,0s-.1,0-.18.11,0-.06,0,0l-.22.17,0,0h0s.06-.06,0,0l-.09.07-.07,0,0,0s0,0,0,0,0-.07,0,0h0s0,0,0,0,0,0,0,0l-.06,0s-.07.05,0,0l0,0s0,0,0,0l.12-.13a.45.45,0,0,0,.07-.1,1.74,1.74,0,0,0,.11-.15c0-.11-.54.44-.26.06l.1-.12.1-.13c.16-.18,0-.09,0-.09L66,6.53s0,0,0,0,.15-.19,0,0a.23.23,0,0,1,0-.09A1.24,1.24,0,0,0,66,6.27s-.07.06-.13.1l0,0s0,0,0,0l-.17.16c-.16.12,0,0,0-.08s.12-.16.12-.18,0,0,0,0l-.15.15c.1-.14,0-.08-.12.07l-.08.08s-.06,0,0,0,.07-.09.06-.09c.16-.18.24-.3,0-.11,0,0,0,0-.12.1.18-.23.2-.27.19-.27.53-.69.09-.21-.08,0a5.88,5.88,0,0,0-.45.43c0-.07.07-.12,0,0,0-.08-.07,0-.22.21.15-.18.18-.23.14-.21s0-.06,0,0h0s0,0,0,0,0,0-.2.18c.1-.14,0-.09.08-.16a2.1,2.1,0,0,0,.27-.36s0,0-.13.09c0,0,0-.08,0-.08s0-.1-.27.22c0-.08-.08,0-.11,0s.1-.17.07-.15,0,0,0-.06l.06-.1s0,0,0,0,0-.08,0-.1,0,0,0-.08-.11.1-.11.07.1-.15,0-.07l0-.07a1.85,1.85,0,0,0-.35.39,2.89,2.89,0,0,0-.28.38s0,0,.06,0h0c0,.08,0,0,0,0s-.08.14,0,.1-.08.12-.08.14,0,.05,0,.05-.08.12-.08.16S64,7,64,7s0,0-.06.12a2.48,2.48,0,0,0-.21.31c-.06.13.11.06.17,0a1.36,1.36,0,0,0,.2-.21s0,0,.16-.13c0,.07-.09.12,0,.12s0,.11.17-.14c-.07.09-.11.14-.08.13s-.12.17.13-.1c0,0,.06,0,.12-.11s-.1.13-.07.11-.15.19-.11.16c-.12.15-.18.24-.13.19s0,0,0,0-.09.14,0,.12h0l0,0,.06-.06h0c.2-.18.2-.16.39-.34s0,0,0,0h0s0,0,0,0,0,.06,0,0l.06,0s0,0,0,.1a.88.88,0,0,0-.12.17h0s0,0,0,.07l0,0,.06,0s0,0,0,0L65,7.29l.2-.18c.13-.1-.09.16-.17.27s.06,0,.07,0v0l-.12.15c0,.05,0,0,.11-.09l0,0c.16-.14,0,.08-.09.17l-.24.28s.07,0,.07,0-.25.28,0,.1c0,.06,0,.08,0,.06L65,7.86s0,0,.1-.05C65,7.89,64.93,8,65,8s-.07.09.18-.13c-.08.08-.13.13-.1.12s-.14.15.14-.09c0,0,0,0,.07-.06h0s-.07.07,0,.06-.17.17-.13.15c-.14.13-.22.21-.16.17L65.14,8h0l-.09.1-.17.18c-.1.09-.14.13.1-.05a1,1,0,0,0,.24-.14c-.06.06,0,0,0,0s0,0,0,0,0,0,0,0-.11.08-.06.06c-.12.1-.24.18.06,0l.15-.09h0l-.08.05.15-.07h0l.06,0,.07,0,0,0s0,0,0,0l.07,0H66C66.23,8,66.46,7.93,66.46,7.88Z"/></g><g class="cls-8"><path class="cls-9" d="M34,66.4s-.71,2.53-2.3,3.47"/><path class="cls-4" d="M32.78,71.49a.8.8,0,0,0-.1-.26s.18.25.23.29,0,0-.08-.17a2.61,2.61,0,0,1-.15-.32v0s.08.08,0,0,0,0,0,0l.1.14s0,0-.07-.15-.06-.11,0-.08.14.16.14.13-.15-.27-.16-.32a6.57,6.57,0,0,1,.48.54c.59.69.55.49.19,0a4.44,4.44,0,0,0-.39-.58c.2.14,0-.05,0-.09a1.83,1.83,0,0,0,.17.15l.15.15.25.25c.12.06,0,0,0-.14s.12,0-.11-.26l-.24-.28c-.17-.22.08,0,.32.24a.87.87,0,0,1,.16.13c.15.11.05,0-.11-.22.09,0-.15-.23-.29-.39s.09,0,0-.12L33,69.65l0-.05h0s.12.07.09,0l-.15-.16s-.09-.1-.08-.11l0,0c.06,0,.07,0,0,0s.1,0,0-.08h0s0,0,0,0,.08,0,0-.06l-.08-.09c-.05,0-.09-.08,0,0l.07,0s0,0,0,0l.21.14.14.07a1.19,1.19,0,0,0,.21.1c.15,0-.66-.66-.09-.41l.19.11.18.09c.29.16.16,0,.16,0l.15.06s0,0,0,0,.31.16,0-.07a.65.65,0,0,1,.18,0l.27.13c.06,0-.09-.09-.16-.16l0,0s.07,0,0,0a2.91,2.91,0,0,0-.27-.21c-.22-.21.06,0,.14,0,.29.13.29.12.33.12s.1,0,0,0a1.57,1.57,0,0,0-.26-.19c.24.11.14,0-.14-.16l-.14-.1c-.05,0-.07-.07,0,0s.18.08.17.06c.35.17.57.25.21,0,.08,0,0,0-.19-.15.43.19.5.21.52.18,1.35.57.42.06.08-.14a5.3,5.3,0,0,0-.89-.54c.16.05.24.07.07,0,.18,0-.1-.09-.46-.28.4.18.51.21.44.16.11,0,.15,0,0-.07h0s0,0,0,0c.22.07,0,0-.45-.27.34.12.2,0,.36.08a5.31,5.31,0,0,0,.9.32c.11,0,.15,0-.23-.18a.57.57,0,0,0,.24,0s.31,0-.67-.39c.22,0-.16-.13-.17-.18.29.08.52.14.45.08s.06,0,.18,0,.35.1.39.1-.1-.06-.12-.09.3.06.39.06,0,0,.32,0-.46-.2-.35-.19.68.17.31,0a.8.8,0,0,0,.31,0A10.27,10.27,0,0,0,34,66.38L32.71,66a3.87,3.87,0,0,0-.55-.15l.27.1h0c-.3-.07,0,0,0,.05s-.51-.12-.22,0-.43-.12-.44-.1-.13,0-.09,0-.4-.11-.39-.08.46.18.4.19c-.34-.09.2.1-.26,0a5.69,5.69,0,0,0-.8-.26c-.1,0,.49.36.67.45l.62.28a1.88,1.88,0,0,0,.43.24c-.15,0-.29-.11-.2,0s-.18,0,.42.24c-.21-.08-.32-.12-.27-.08-.18-.05-.33-.11.29.2l.27.14c-.15-.06-.26-.1-.21-.06-.23-.1-.38-.16-.31-.1-.31-.14-.47-.2-.35-.12s0,0,0,0-.25-.09-.18,0h0L32,67l.12.07h0c.4.25.37.25.73.49s0,0-.06,0h0c-.08,0-.07,0,0,.05s-.08,0-.07,0l.08.07s-.07,0-.16,0a1.79,1.79,0,0,0-.31-.13h0s-.08,0-.12,0,0,0,.06.06l.08.09s0,0,0,.06l.35.24c.13.1.25.18.31.24s-.26-.07-.43-.14.07.08.06.1h0l-.23-.13c-.08,0,.06.07.16.15l0,0c.23.2-.11,0-.23,0L32,68s.07.09.05.09-.41-.24-.15,0c-.08,0-.12,0-.09,0s.05.07.2.2c0,0-.06,0,0,.1-.13-.09-.22-.16-.25-.12s-.19-.12.17.21c-.15-.11-.23-.18-.23-.15-.16-.12-.31-.23.12.17,0,0,0,0,.1.11h0s0,0,0,0-.15-.11-.13-.08c-.19-.16-.34-.29-.3-.24-.28-.24-.44-.39-.37-.3l.25.27v0l-.23-.21-.44-.4c-.25-.23-.38-.37,0,.08a2.87,2.87,0,0,0,.3.38c-.17-.17-.14-.13-.09,0-.12-.13,0,0,0,0s-.12-.13-.08-.06c-.15-.18-.26-.31-.2-.22-.33-.39-.66-.83,0,0,0,0,.15.21.27.39v0c-.23-.31-.29-.39-.24-.31-.21-.3.35.52.28.42l-.06-.07-.24-.35c-.05-.07.15.24.12.2s.09.15.19.32,0,0,0,0a2.48,2.48,0,0,0-.18-.25l1,1.73A12.86,12.86,0,0,0,32.78,71.49Z"/></g><g class="cls-10"><path class="cls-4" d="M31.49,84.82c-.09.3-.06.26,0,.27s.27.24.41.31a.22.22,0,0,0,.34-.17,1.63,1.63,0,0,1,0-.24s.13,0,.17,0,.13,0,.17,0,0-.25,0-.32.09,0,.08,0,0-.11.07-.09.13.07.15,0-.07-.23,0-.26.29,0,.25-.12,0-.18.28-.2.29-.14.2-.26-.3-.24-.28-.33,0,0-.21,0-.26,0-.26,0a3,3,0,0,1,.11.32c0,.06-.39,0-.26.08s.16.15.11.19-.23,0-.28,0,.05.1.05.13,0,.06,0,.07-.14,0-.17,0,0,.1-.06.07-.09,0-.1,0,0,.19.06.28-.15-.07-.14.05,0,.14-.11.09a.74.74,0,0,1-.16-.18c-.06-.1-.05,0-.07,0s-.17.07-.25.2a.1.1,0,0,0,0,0S31.55,84.6,31.49,84.82Z"/></g><path class="cls-11" d="M69.78,5.76l-.12-.07,0,0-.2-.08-.09,0L69,5.46h0l-.26,0-.1,0-.22,0H68l-.33,0-2.39.33-1.47.88L62.5,6.11,35.39,9.92A2.66,2.66,0,0,0,35,10l-.1,0-.27.08-.1,0-.33.14h0l-.09,0-.27.14-.12.08-.17.11-.05,0-.09.06-.23.18a.46.46,0,0,1-.07.07l0,0L33,11.1c-.1.09-.19.19-.29.29s0,0-.06.06a.21.21,0,0,1,0,.06c-.1.11-.19.23-.28.35l0,.05v0l0,.05-.18.28-.06.09a.41.41,0,0,1-.05.09l-.07.16a.54.54,0,0,0-.07.13l-.12.29,0,.09h0a1.87,1.87,0,0,0-.07.22l-.06.18-.06.25c0,.06,0,.12,0,.18a2.89,2.89,0,0,0,0,.29.77.77,0,0,0,0,.15c0,.14,0,.29,0,.44L31.27,65.7l.82,1.49a1.16,1.16,0,0,1,0,1.13l-.81,1.44,0,13.83.34,1.2-.34,1.36,0,9a3.79,3.79,0,0,0,1.87,3.42l3.13,1.7a3.79,3.79,0,0,1-1.87-3.41l0-27.31.19-1.25a6.06,6.06,0,0,0-.06-2.08l-.12-.61.08-49c0-.15,0-.29,0-.44a.77.77,0,0,1,0-.15,2.89,2.89,0,0,1,0-.29c0-.06,0-.11,0-.17l.06-.26.06-.18c0-.08.05-.15.07-.23l0-.08.12-.3A.83.83,0,0,1,35,14.3l.12-.24.06-.1.18-.28,0,0,0-.06a3.44,3.44,0,0,1,.28-.36l.1-.12c.1-.1.19-.2.29-.29l.11-.1.07-.06a1.81,1.81,0,0,1,.23-.18l.09-.07a1.64,1.64,0,0,1,.22-.14l.12-.08.27-.14.09,0,.34-.14.1,0,.27-.08.1,0,.37-.07L63.65,8.09l1.61.44,1.22-.84,4.27-.6.34,0h.44l.22,0h.1l.26.05h0l.3.1.08,0,.21.09.17.08Z"/><path class="cls-12" d="M70.89,8h0a3,3,0,0,1,2.16.88,3.6,3.6,0,0,1,1,2.57l-.13,79.09A4.61,4.61,0,0,1,70.2,95.1L39,99.48a3.88,3.88,0,0,1-.48,0,3,3,0,0,1-2.15-.89,3.6,3.6,0,0,1-1-2.57L35.54,17a4.6,4.6,0,0,1,3.7-4.52L70.42,8.07l.47,0m0-.24a3.08,3.08,0,0,0-.51,0L39.21,12.22A4.84,4.84,0,0,0,35.3,17l-.13,79.09a3.46,3.46,0,0,0,3.38,3.69,4.36,4.36,0,0,0,.51,0l31.18-4.39a4.83,4.83,0,0,0,3.9-4.75l.13-79.09A3.46,3.46,0,0,0,70.89,7.8Z"/><g class="cls-2"><path class="cls-13" d="M45.76,11.42,63.65,8.91l-.58,2.49a3.48,3.48,0,0,1-2.77,2.71L49,15.7a2.45,2.45,0,0,1-2.77-2Z"/></g><g class="cls-2"><path class="cls-14" d="M59.08,11.08a.52.52,0,0,1,.58.55.71.71,0,0,1-.58.71.51.51,0,0,1-.58-.54A.73.73,0,0,1,59.08,11.08Z"/></g><path class="cls-14" d="M57.21,11.42a.45.45,0,0,1,.51.48.64.64,0,0,1-.51.63l-6.08.86a.46.46,0,0,1-.52-.49.64.64,0,0,1,.52-.63Z"/><path class="cls-15" d="M32.93,38.25h0a.52.52,0,0,1-.53-.52V27.11a.53.53,0,0,1,.53-.53h0a.53.53,0,0,1,.53.53V37.73A.52.52,0,0,1,32.93,38.25Z"/><path class="cls-15" d="M32.94,25h0a.52.52,0,0,1-.52-.53V21.51a.52.52,0,0,1,.52-.53h0a.53.53,0,0,1,.53.53v2.91A.53.53,0,0,1,32.94,25Z"/><path class="cls-15" d="M32.93,51.14h0a.53.53,0,0,1-.53-.53V40a.53.53,0,0,1,.53-.53h0a.53.53,0,0,1,.53.53V50.61A.53.53,0,0,1,32.93,51.14Z"/><path class="cls-16" d="M32.4,74a.33.33,0,0,0,.66,0,.33.33,0,1,0-.66,0Z"/><g class="cls-17"><rect class="cls-18" x="18.84" y="32.62" width="76.6" height="10.71" transform="translate(42.53 -29.06) rotate(44.1)"/><rect class="cls-19" x="15.09" y="45.93" width="76.6" height="3.5" transform="translate(48.22 -23.71) rotate(44.1)"/></g><path class="cls-20" d="M30.27,66.4s0,0,0,0A.83.83,0,0,1,30,66c0-.08-.11-.08-.17-.11s-.09-.08-.12-.15-.06-.2-.15-.22,0-.28-.08-.3-.27.08-.38.1a.52.52,0,0,1-.22,0h0s0,0,0,0,.05.24.14.27.06.18.17.16,0,.14,0,.17.15,0,.16,0,.18,0,.23.05.08.32.26.3.13,0,.21,0a.31.31,0,0,1,.17,0v0Z"/><path class="cls-20" d="M30.74,67.32s0,0-.06,0a3.24,3.24,0,0,1-.88,0,.78.78,0,0,0-.4.08.81.81,0,0,1-.38,0,1,1,0,0,0-.51,0c-.17.07-.36-.18-.53-.11s-.27.28-.41.39a1.41,1.41,0,0,1-.35.17s0,0,0,0,0,0,.06,0c.19,0,.39.1.58,0s.32.06.46-.05.18.09.27.08.17-.14.28-.12.25-.16.39-.16.55.11.79-.06a2.72,2.72,0,0,0,.35-.16,1,1,0,0,1,.3-.12h0Z"/><path class="cls-20" d="M30.57,68.77s0,0,0,0a1.06,1.06,0,0,1-.48.22c-.09,0-.12.11-.17.17a.3.3,0,0,1-.2.11c-.1,0-.22,0-.27.13s-.3,0-.35,0,0,.29,0,.41a.61.61,0,0,1-.09.23s0,0,0,0,0,0,0,0,.27,0,.34-.12.2,0,.21-.16.15,0,.2,0,0-.16.08-.17.05-.19.13-.23.35,0,.39-.24.08-.13.1-.22a.28.28,0,0,1,.09-.17l0,0S30.57,68.78,30.57,68.77Z"/><path class="cls-20" d="M63.65,5.71l0,0a1.37,1.37,0,0,1-.33-.47c0-.09-.13-.11-.21-.15a.37.37,0,0,1-.15-.19c0-.1-.08-.22-.19-.26s0-.31-.12-.35-.3,0-.43,0a.62.62,0,0,1-.25,0s0,0,0,0,0,0,0,0,.07.28.19.33.08.2.21.2,0,.16,0,.2.16,0,.19.06.2,0,.26.1.12.36.33.36a1,1,0,0,0,.25.07.37.37,0,0,1,.19.08l0,0S63.64,5.72,63.65,5.71Z"/><path class="cls-20" d="M64.09,5.35s0,0,0,0a2.06,2.06,0,0,1,.25-.69c.07-.1,0-.22,0-.33a.57.57,0,0,1,.1-.3.88.88,0,0,0,.14-.4c0-.15.26-.23.24-.39s-.19-.28-.25-.42a.74.74,0,0,1-.07-.32.07.07,0,0,0,0,0s0,0,0,0-.2.28-.19.44-.14.23-.08.37-.13.12-.15.19.09.17,0,.25.09.24,0,.35-.26.39-.17.63,0,.21.06.32a.58.58,0,0,1,0,.26v0S64.08,5.35,64.09,5.35Z"/><path class="cls-20" d="M73.76,95c-.12,0-.1,0-.1,0,0,.19-.49.39-.28.57,0,0,.14.05.15.08s-.09.09-.08.14-.08.1-.07.15.21.11.26.17-.07,0,0,.08.1.07,0,.11-.17,0-.17.07.21.13.17.19-.31.13-.16.22.07.17-.06.25.25.34.25.51c0,0,0,0,.09,0s.1,0,.1,0a1.88,1.88,0,0,0,0-.33c0-.06.29-.12.19-.18s-.15-.1-.11-.16.26-.1.31-.21-.1-.07-.13-.1-.07,0-.07-.06.16-.07.17-.11-.12-.08,0-.13.06-.09,0-.14-.2-.1-.27-.15.12-.11,0-.16-.11-.11,0-.17l.17-.1c.07,0,0-.07,0-.11a2.75,2.75,0,0,0-.17-.41s0,0,0,0S73.86,95,73.76,95Z"/><path class="cls-20" d="M74.64,95c-.1.08-.08.07-.07.09s-.16.61.12.65c0,0,.15,0,.18,0s0,.13,0,.17,0,.13,0,.16.24,0,.31,0,0,.09,0,.09.12,0,.07.08-.11.13-.09.16.26,0,.26.07-.18.29,0,.28.16.11.11.26.4.15.51.3,0,0,.09,0,.08-.07.07-.08a1.54,1.54,0,0,0-.25-.26s.17-.27,0-.27-.18,0-.19-.08.16-.23.13-.35-.13,0-.17,0-.08,0-.09,0,.09-.15.06-.19-.14,0-.1-.09,0-.12-.06-.14-.22,0-.31,0,0-.17-.09-.16-.15,0-.14-.12a.91.91,0,0,1,.08-.18c0-.08,0-.06-.08-.09a3.77,3.77,0,0,0-.39-.26v0S74.72,95,74.64,95Z"/><path class="cls-20" d="M74.64,94.3c0,.12,0,.1,0,.1.2,0,.42.49.62.28,0,0,.06-.15.09-.15s.1.09.16.08.1.08.16.07.12-.21.18-.26.07.07.1,0,.07-.1.11,0,0,.17.08.17.14-.21.21-.17.15.31.24.16.19-.07.28.06.37-.25.56-.25c0,0,0,0,0-.09s0-.1,0-.1a2.2,2.2,0,0,0-.37.05c-.06,0-.13-.29-.19-.2s-.11.16-.18.12-.11-.26-.22-.31-.09.1-.12.13,0,.07-.07.07-.08-.17-.12-.17-.09.11-.14,0-.1-.06-.15,0-.11.19-.16.27-.12-.13-.19,0-.12.1-.18,0a.74.74,0,0,1-.11-.16c0-.07-.07,0-.11,0a3.25,3.25,0,0,0-.46.17h0S74.64,94.2,74.64,94.3Z"/></g></g></svg>