<svg xmlns="http://www.w3.org/2000/svg" xmlns:xlink="http://www.w3.org/1999/xlink" viewBox="0 0 106 106"><defs><style>.cls-1,.cls-15,.cls-3{fill:none;}.cls-17,.cls-2,.cls-9{isolation:isolate;}.cls-15,.cls-16,.cls-3,.cls-5{stroke:#1d1d1b;stroke-miterlimit:10;}.cls-3{stroke-width:0.5px;}.cls-4{fill:#fff;}.cls-5{stroke-width:0.25px;fill:url(#linear-gradient);}.cls-6{fill:#040304;}.cls-7{fill:#010101;}.cls-8{fill:#3c3c3c;}.cls-9{opacity:0.5;}.cls-10{fill:#1d1d1b;}.cls-11{clip-path:url(#clip-path);}.cls-12,.cls-13,.cls-19,.cls-20{opacity:0.15;mix-blend-mode:screen;}.cls-12{fill:url(#Degradado_sin_nombre_1349);}.cls-13{fill:url(#Degradado_sin_nombre_1350);}.cls-14{clip-path:url(#clip-path-2);}.cls-15{stroke-width:0.71px;}.cls-16{stroke-width:0.36px;fill:url(#linear-gradient-2);}.cls-17{opacity:0.7;}.cls-18{clip-path:url(#clip-path-3);}.cls-19{fill:url(#Degradado_sin_nombre_1349-2);}.cls-20{fill:url(#Degradado_sin_nombre_1350-2);}.cls-21{fill:url(#linear-gradient-3);}</style><linearGradient id="linear-gradient" x1="-339.83" y1="1223.06" x2="-339.83" y2="1134.41" gradientTransform="matrix(0.93, -0.37, 0.37, 0.93, -74.41, -1134.08)" gradientUnits="userSpaceOnUse"><stop offset="0" stop-color="#776cab"/><stop offset="0.03" stop-color="#6f8aae"/><stop offset="0.05" stop-color="#69a1b0"/><stop offset="0.08" stop-color="#65b2b2"/><stop offset="0.11" stop-color="#63bcb3"/><stop offset="0.16" stop-color="#62bfb3"/><stop offset="0.51" stop-color="#62bfb3"/><stop offset="0.86" stop-color="#62bfb3"/><stop offset="0.9" stop-color="#fdeeeb"/><stop offset="0.95" stop-color="#62bfb3"/><stop offset="1" stop-color="#62bfb3"/></linearGradient><clipPath id="clip-path"><path id="SVGID" class="cls-1" d="M52.39,40.91a3.25,3.25,0,0,1,4.71,1.83l27.61,68A4.58,4.58,0,0,1,83,116.29L57.19,131.18a3.26,3.26,0,0,1-4.71-1.84l-27.6-68a4.56,4.56,0,0,1,1.73-5.55Z"/></clipPath><linearGradient id="Degradado_sin_nombre_1349" x1="-1093.07" y1="-1368.2" x2="-1042.59" y2="-1376.02" gradientTransform="matrix(1.45, 0, 0, 1, 1600.22, 1444)" gradientUnits="userSpaceOnUse"><stop offset="0" stop-color="#fff"/><stop offset="0.01" stop-color="#fff" stop-opacity="0.97"/><stop offset="0.13" stop-color="#fff" stop-opacity="0.72"/><stop offset="0.24" stop-color="#fff" stop-opacity="0.5"/><stop offset="0.34" stop-color="#fff" stop-opacity="0.32"/><stop offset="0.45" stop-color="#fff" stop-opacity="0.18"/><stop offset="0.54" stop-color="#fff" stop-opacity="0.08"/><stop offset="0.63" stop-color="#fff" stop-opacity="0.02"/><stop offset="0.7" stop-color="#fff" stop-opacity="0"/></linearGradient><linearGradient id="Degradado_sin_nombre_1350" x1="-1090.35" y1="-3303.24" x2="-1039.86" y2="-3311.07" gradientTransform="matrix(1.45, 0, 0, 0.33, 1596.26, 1160.9)" gradientUnits="userSpaceOnUse"><stop offset="0" stop-color="#fff"/><stop offset="0.1" stop-color="#fff" stop-opacity="0.75"/><stop offset="0.2" stop-color="#fff" stop-opacity="0.53"/><stop offset="0.3" stop-color="#fff" stop-opacity="0.34"/><stop offset="0.39" stop-color="#fff" stop-opacity="0.19"/><stop offset="0.48" stop-color="#fff" stop-opacity="0.09"/><stop offset="0.56" stop-color="#fff" stop-opacity="0.02"/><stop offset="0.62" stop-color="#fff" stop-opacity="0"/></linearGradient><clipPath id="clip-path-2"><path id="SVGID-2" data-name="SVGID" class="cls-1" d="M60.37,27.6a12.86,12.86,0,1,1-9.1-15.74A12.87,12.87,0,0,1,60.37,27.6Z"/></clipPath><linearGradient id="linear-gradient-2" x1="-322.03" y1="1239.54" x2="-322.03" y2="1113.11" xlink:href="#linear-gradient"/><clipPath id="clip-path-3"><path id="SVGID-3" data-name="SVGID" class="cls-1" d="M68.14,12.73c2.54-1.47,5.54-.3,6.71,2.61l39.37,97a6.52,6.52,0,0,1-2.48,7.92L75,141.47c-2.53,1.46-5.54.29-6.71-2.62l-39.37-97A6.51,6.51,0,0,1,31.37,34Z"/></clipPath><linearGradient id="Degradado_sin_nombre_1349-2" x1="-1097.9" y1="-1386.14" x2="-1025.9" y2="-1397.31" gradientTransform="matrix(1.45, 0, 0, 1, 1606.96, 1448.68)" xlink:href="#Degradado_sin_nombre_1349"/><linearGradient id="Degradado_sin_nombre_1350-2" x1="-1094.05" y1="-3349.82" x2="-1022.05" y2="-3360.98" gradientTransform="matrix(1.45, 0, 0, 0.33, 1601.43, 1165.91)" xlink:href="#Degradado_sin_nombre_1350"/><linearGradient id="linear-gradient-3" x1="-127.94" y1="161.15" x2="-109.3" y2="161.15" gradientTransform="matrix(-0.26, 0.97, 0.97, 0.26, -143.51, 113.48)" gradientUnits="userSpaceOnUse"><stop offset="0" stop-color="#fff"/><stop offset="1"/></linearGradient></defs><title>webIcons</title><g class="cls-2"><g id="earpiece"><path class="cls-3" d="M52.45,40a3.36,3.36,0,0,1,4.88,1.9l28.13,69.3a4.75,4.75,0,0,1-1.8,5.76L56.91,132.37a3.38,3.38,0,0,1-4.89-1.9L23.9,61.17a4.74,4.74,0,0,1,1.8-5.76Z"/><path class="cls-4" d="M52.39,40.91a3.25,3.25,0,0,1,4.71,1.83l27.61,68A4.58,4.58,0,0,1,83,116.29L57.19,131.18a3.26,3.26,0,0,1-4.71-1.84l-27.6-68a4.56,4.56,0,0,1,1.73-5.55Z"/><path class="cls-5" d="M51.12,39.14l-.13,0h-.35l-.29,0h0l-.25.05-.1,0-.19.06-.11,0-.2.08-.09,0-.28.15L22.34,55l-.3.2-.08.06-.21.17-.08.06-.24.24h0l-.06.07-.18.22-.08.12a.83.83,0,0,0-.11.15l0,0a.41.41,0,0,1-.05.09c0,.08-.09.16-.13.24a.35.35,0,0,0-.05.08s0,0,0,0,0,.05,0,.08l-.15.35,0,.08a.14.14,0,0,1,0,.06l-.12.42s0,0,0,0v0a.13.13,0,0,1,0,.06,2.87,2.87,0,0,0,0,.31s0,.07,0,.1,0,.07,0,.1a.86.86,0,0,0,0,.16.66.66,0,0,0,0,.14c0,.1,0,.2,0,.3v.09h0a1.5,1.5,0,0,0,0,.22,1.09,1.09,0,0,0,0,.18,2.17,2.17,0,0,0,0,.25.9.9,0,0,0,0,.16,2.61,2.61,0,0,0,.06.27.57.57,0,0,0,0,.14,2.7,2.7,0,0,0,.14.4l28.12,69.3a3.57,3.57,0,0,0,2.86,2.34l3.36.39A3.59,3.59,0,0,1,52,130.47L23.9,61.17a3.84,3.84,0,0,1-.14-.4,1,1,0,0,1,0-.14c0-.09,0-.18-.07-.27s0-.11,0-.17a2,2,0,0,1,0-.24,1.09,1.09,0,0,1,0-.18,1.94,1.94,0,0,1,0-.24v-.38a.71.71,0,0,0,0-.14l0-.26a.43.43,0,0,1,0-.11c0-.1,0-.2.05-.31a.07.07,0,0,0,0,0,.24.24,0,0,0,0-.08l.12-.41a.78.78,0,0,0,.05-.14l.15-.36.06-.12,0-.09.14-.24,0-.08.15-.21a.44.44,0,0,1,.08-.11l.18-.22.06-.07L25,55.9l.08-.07a1.93,1.93,0,0,1,.21-.17l.08-.06.3-.19L52.45,40l.28-.14.09,0,.2-.08.11,0,.19,0,.1,0,.24,0h.05l.29,0h.48Z"/><path class="cls-6" d="M54,40.53h0a3.17,3.17,0,0,1,2.9,2.14l27.71,68.24A4.36,4.36,0,0,1,83,116.2L57.08,131.14a2.94,2.94,0,0,1-1.5.42,3.17,3.17,0,0,1-2.9-2.14L25,61.18a4.37,4.37,0,0,1,1.65-5.3L52.5,40.94a3,3,0,0,1,1.5-.41m0-.23a3.22,3.22,0,0,0-1.61.45L26.51,55.69a4.57,4.57,0,0,0-1.74,5.57l27.7,68.24a3.4,3.4,0,0,0,3.11,2.28,3.2,3.2,0,0,0,1.61-.44L83.07,116.4a4.6,4.6,0,0,0,1.75-5.58L57.11,42.58A3.41,3.41,0,0,0,54,40.3Z"/><g class="cls-2"><path class="cls-7" d="M32,52.66l14.84-8.57.39,2.4a3.34,3.34,0,0,1-1.48,3.37l-9.35,5.4a2.33,2.33,0,0,1-3.15-.77Z"/></g><g class="cls-2"><path class="cls-8" d="M43.6,47.63a.48.48,0,0,1,.71.27.69.69,0,0,1-.26.83.49.49,0,0,1-.71-.27A.68.68,0,0,1,43.6,47.63Z"/></g><g class="cls-9"><path class="cls-8" d="M39.06,48.84a.34.34,0,0,1,.48.19.47.47,0,0,1-.18.56.32.32,0,0,1-.47-.19A.45.45,0,0,1,39.06,48.84Z"/></g><path class="cls-8" d="M42.07,48.59a.44.44,0,0,1,.63.24.62.62,0,0,1-.24.74l-5,2.91a.43.43,0,0,1-.63-.24A.61.61,0,0,1,37,51.5Z"/><path class="cls-10" d="M30.25,80.83h0a.49.49,0,0,1-.65-.27l-3.78-9.35a.5.5,0,0,1,.28-.65h0a.5.5,0,0,1,.65.27l3.77,9.35A.49.49,0,0,1,30.25,80.83Z"/><path class="cls-10" d="M25.53,69.12h0a.5.5,0,0,1-.65-.28l-1-2.56a.5.5,0,0,1,.28-.65h0a.49.49,0,0,1,.65.28l1,2.56A.5.5,0,0,1,25.53,69.12Z"/><path class="cls-10" d="M34.83,92.17h0a.5.5,0,0,1-.65-.28L30.4,82.54a.5.5,0,0,1,.28-.65h0a.5.5,0,0,1,.65.28l3.77,9.35A.5.5,0,0,1,34.83,92.17Z"/><g class="cls-11"><rect class="cls-12" x="15.1" y="66.89" width="72.7" height="10.17" transform="translate(30.86 -14.07) rotate(22.1)"/><rect class="cls-13" x="15.25" y="80.19" width="72.7" height="3.32" transform="translate(34.58 -13.4) rotate(22.1)"/></g><g class="cls-14"><path class="cls-15" d="M68.22,11.37c2.64-1.52,5.75-.31,7,2.71l40.11,98.84a6.78,6.78,0,0,1-2.57,8.22l-38.16,22c-2.63,1.52-5.75.3-7-2.71L27.49,41.61a6.76,6.76,0,0,1,2.58-8.21Z"/><path class="cls-4" d="M68.14,12.73c2.54-1.47,5.54-.3,6.71,2.61l39.37,97a6.52,6.52,0,0,1-2.48,7.92L75,141.47c-2.53,1.46-5.54.29-6.71-2.62l-39.37-97A6.51,6.51,0,0,1,31.37,34Z"/><path class="cls-16" d="M66.32,10.2l-.19,0h-.49l-.42,0h-.06a2.14,2.14,0,0,0-.35.06l-.14,0-.28.08-.14,0-.29.11-.13,0-.4.21-38.15,22-.43.28-.12.09-.3.24-.1.09c-.12.11-.24.22-.35.34v0l-.09.1a3.88,3.88,0,0,0-.26.31l-.12.16-.15.22a.56.56,0,0,0-.05.08l-.08.12-.19.34-.06.13,0,.06a1.17,1.17,0,0,1-.05.11l-.21.51s0,.07,0,.11l0,.09a5.72,5.72,0,0,0-.17.59.24.24,0,0,0,0,.08v0s0,.06,0,.09-.05.29-.08.44a.77.77,0,0,1,0,.15.59.59,0,0,1,0,.13,1.93,1.93,0,0,0,0,.24,1.36,1.36,0,0,0,0,.2c0,.14,0,.28,0,.43a.48.48,0,0,1,0,.12v0l0,.31a2.28,2.28,0,0,0,0,.26c0,.12,0,.23.05.35a2,2,0,0,0,0,.24l.09.38c0,.06,0,.13.05.2s.13.38.2.56l40.12,98.85a5.08,5.08,0,0,0,4.08,3.33l4.79.55a5.08,5.08,0,0,1-4.08-3.33L27.49,41.61a5.27,5.27,0,0,1-.19-.56,1.94,1.94,0,0,1-.05-.2c0-.13-.07-.26-.1-.38s0-.16,0-.24,0-.23-.05-.35,0-.17,0-.26,0-.22,0-.33a.48.48,0,0,1,0-.12c0-.15,0-.29,0-.44s0-.13,0-.19l0-.37a.77.77,0,0,0,0-.15c0-.15.05-.3.08-.44a.29.29,0,0,0,0-.09l0-.1c.05-.2.11-.4.17-.59s.05-.13.07-.2.14-.34.22-.51a.89.89,0,0,1,.08-.17l.06-.13.2-.34.07-.12.2-.3.12-.16a3.88,3.88,0,0,1,.26-.31l.09-.1a3.06,3.06,0,0,1,.36-.36l.1-.09.3-.24.12-.09.43-.28,38.15-22,.4-.21.13-.05L69,11l.14-.05.28-.09.14,0a2.14,2.14,0,0,1,.35-.06l.06,0,.42,0h.43l.25,0Z"/><path class="cls-6" d="M70.43,12.18h0a4.52,4.52,0,0,1,4.14,3.06l39.51,97.32a6.22,6.22,0,0,1-2.35,7.55L74.82,141.42a4.26,4.26,0,0,1-2.14.59,4.54,4.54,0,0,1-4.14-3L29,41.63a6.23,6.23,0,0,1,2.36-7.55l36.9-21.31a4.26,4.26,0,0,1,2.14-.59m0-.32a4.63,4.63,0,0,0-2.3.64L31.23,33.8a6.54,6.54,0,0,0-2.49,8l39.51,97.33a4.85,4.85,0,0,0,4.43,3.25,4.56,4.56,0,0,0,2.3-.63l36.91-21.31a6.55,6.55,0,0,0,2.49-8L74.87,15.11a4.86,4.86,0,0,0-4.44-3.25Z"/><g class="cls-2"><path class="cls-7" d="M39.05,29.48,60.22,17.26l.55,3.42a4.75,4.75,0,0,1-2.11,4.81l-13.34,7.7a3.31,3.31,0,0,1-4.49-1.1Z"/></g><g class="cls-2"><path class="cls-8" d="M55.6,22.3a.69.69,0,0,1,1,.4,1,1,0,0,1-.37,1.18.68.68,0,0,1-1-.39A1,1,0,0,1,55.6,22.3Z"/></g><g class="cls-17"><path class="cls-8" d="M49.13,24a.46.46,0,0,1,.67.26.65.65,0,0,1-.25.8.46.46,0,0,1-.67-.26A.65.65,0,0,1,49.13,24Z"/></g><path class="cls-8" d="M53.41,23.67a.63.63,0,0,1,.9.35A.89.89,0,0,1,54,25.08l-7.2,4.15a.61.61,0,0,1-.89-.35.85.85,0,0,1,.33-1.05Z"/><path class="cls-10" d="M36.55,69.66h0a.71.71,0,0,1-.93-.39L30.24,55.94a.71.71,0,0,1,.39-.93h0a.71.71,0,0,1,.93.39L37,68.73A.71.71,0,0,1,36.55,69.66Z"/><path class="cls-10" d="M29.82,53h0a.72.72,0,0,1-.93-.4l-1.47-3.65a.72.72,0,0,1,.39-.93h0a.71.71,0,0,1,.93.4L30.22,52A.71.71,0,0,1,29.82,53Z"/><path class="cls-10" d="M43.09,85.83h0a.71.71,0,0,1-.93-.39L36.77,72.11a.71.71,0,0,1,.4-.93h0a.72.72,0,0,1,.93.39L43.48,84.9A.71.71,0,0,1,43.09,85.83Z"/><g class="cls-18"><rect class="cls-19" x="14.95" y="49.79" width="103.68" height="14.5" transform="translate(26.36 -20.94) rotate(22.1)"/><rect class="cls-20" x="15.16" y="68.75" width="103.68" height="4.73" transform="translate(31.67 -19.98) rotate(22.1)"/></g></g><path class="cls-21" d="M36,29.1l4.61,20.53L54,35.6S42.53,41.13,36,29.1Z"/><path class="cls-10" d="M44.62,36.71a12.87,12.87,0,1,1,15.75-9.1A12.88,12.88,0,0,1,44.62,36.71Zm.14-.53A12.31,12.31,0,1,0,36.05,21.1,12.33,12.33,0,0,0,44.76,36.18Z"/></g></g></svg>