<svg xmlns="http://www.w3.org/2000/svg" xmlns:xlink="http://www.w3.org/1999/xlink" viewBox="0 0 106 106"><defs><style>.cls-1,.cls-15{fill:none;}.cls-2{fill:#1d1d1b;}.cls-17,.cls-3{fill:#62bfb3;}.cls-4,.cls-6{fill:#010101;}.cls-5{fill:#676767;}.cls-6{stroke:#fff;stroke-width:2px;}.cls-15,.cls-6{stroke-miterlimit:10;}.cls-7{fill:url(#Degradado_sin_nombre_67);}.cls-8{fill:#4e4d4d;}.cls-9{fill:#f8e9c1;}.cls-10{fill:#fff;}.cls-11{fill:#c6c6c6;}.cls-12{fill:#dadada;}.cls-13{fill:#c7c6c6;}.cls-14{fill:#2e2e2e;}.cls-15{stroke:#000;stroke-width:0.5px;}.cls-16{clip-path:url(#clip-path);}.cls-17{fill-rule:evenodd;}</style><linearGradient id="Degradado_sin_nombre_67" x1="35.45" y1="23.84" x2="40.84" y2="33.18" gradientUnits="userSpaceOnUse"><stop offset="0" stop-color="#010101"/><stop offset="0.54" stop-color="#343434"/><stop offset="1" stop-color="#010101"/></linearGradient><clipPath id="clip-path"><rect class="cls-1" x="0.31" y="109.85" width="106.08" height="27.76" rx="4.5"/></clipPath></defs><title>webIcons</title><g id="Icon_Fingerprint" data-name="Icon Fingerprint"><path class="cls-2" d="M31.25,81.19V25.67a6.39,6.39,0,0,1,6.39-6.38H62a6.39,6.39,0,0,1,6.39,6.38V81.19A6.4,6.4,0,0,1,62,87.58H37.64A6.4,6.4,0,0,1,31.25,81.19Zm6.39-61.4a5.89,5.89,0,0,0-5.89,5.88V81.19a5.89,5.89,0,0,0,5.89,5.89H62a5.89,5.89,0,0,0,5.89-5.89V25.67A5.89,5.89,0,0,0,62,19.79Z"/><path class="cls-2" d="M31.75,35.12a1.1,1.1,0,0,0-1.1,1.1v5.36a1.1,1.1,0,0,0,1.1,1.1h0"/><path class="cls-2" d="M68.24,32.43a.58.58,0,0,0,.58-.59V29.49a.58.58,0,0,0-.58-.58h0"/><path class="cls-2" d="M68.24,39.54a.59.59,0,0,0,.58-.59V34.7a.59.59,0,0,0-.58-.59h0"/><path class="cls-2" d="M68.24,45.83h0a.58.58,0,0,0,.58-.58V41a.58.58,0,0,0-.58-.58h0"/><path class="cls-3" d="M49.51,35.46,40,51.36a.86.86,0,0,0,.73,1.3H60a.85.85,0,0,0,.73-1.3L51,35.46A.85.85,0,0,0,49.51,35.46Z"/><path class="cls-2" d="M49.67,48l-.92-5.27c-.29-1.58.35-2,1.59-2s1.88.43,1.6,2L51,48Z"/><circle class="cls-2" cx="50.31" cy="49.98" r="1.37"/><rect class="cls-4" x="35.52" y="22.86" width="5.25" height="11.29" rx="2.22"/><path class="cls-5" d="M38.14,34.6a3.08,3.08,0,0,1-3.07-3.07v-6a3.08,3.08,0,0,1,6.15,0v6A3.08,3.08,0,0,1,38.14,34.6Zm0-11.29A2.19,2.19,0,0,0,36,25.49v6a2.18,2.18,0,0,0,4.36,0v-6A2.19,2.19,0,0,0,38.14,23.31Z"/><rect class="cls-6" x="35.52" y="22.86" width="5.25" height="11.29" rx="2.22"/><rect class="cls-7" x="35.52" y="22.86" width="5.25" height="11.29" rx="2.22"/><circle class="cls-8" cx="38.14" cy="25.57" r="1.54"/><circle class="cls-9" cx="38.14" cy="28.45" r="0.73"/><path class="cls-10" d="M38.45,28.45a.31.31,0,1,1-.31-.31A.31.31,0,0,1,38.45,28.45Z"/><path class="cls-8" d="M39.68,31.45a1.54,1.54,0,1,1-1.54-1.54A1.54,1.54,0,0,1,39.68,31.45Z"/><path class="cls-11" d="M39.23,25.57a1.09,1.09,0,1,1-2.17,0,1.09,1.09,0,0,1,2.17,0Z"/><circle class="cls-12" cx="38.14" cy="25.57" r="0.73"/><path class="cls-10" d="M38.45,25.57a.31.31,0,0,1-.62,0,.31.31,0,0,1,.62,0Z"/><path class="cls-13" d="M39.23,31.45a1.09,1.09,0,1,1-1.09-1.09A1.09,1.09,0,0,1,39.23,31.45Z"/><circle class="cls-12" cx="38.14" cy="31.45" r="0.73"/><path class="cls-10" d="M38.45,31.45a.31.31,0,1,1-.31-.31A.31.31,0,0,1,38.45,31.45Z"/><circle class="cls-10" cx="63.73" cy="71.47" r="15.66"/><path class="cls-2" d="M63.73,87.47a16,16,0,1,1,16-16A16,16,0,0,1,63.73,87.47Zm0-31.32A15.32,15.32,0,1,0,79.05,71.47,15.33,15.33,0,0,0,63.73,56.15Z"/><path class="cls-14" d="M71,80.93a.28.28,0,0,0-.38,0,11.59,11.59,0,0,1-2.79,2.54.26.26,0,0,0-.09.37.27.27,0,0,0,.37.08A11.75,11.75,0,0,0,71,81.3.27.27,0,0,0,71,80.93Z"/><path class="cls-14" d="M72,80.06a10.14,10.14,0,0,1-1.42-.44.26.26,0,0,0-.32.09,10.44,10.44,0,0,1-4.64,3.76,10.31,10.31,0,0,1-3.76.77.26.26,0,0,0-.26.27.27.27,0,0,0,.27.27h0a10.91,10.91,0,0,0,8.7-4.59,10.33,10.33,0,0,0,1.31.39.27.27,0,0,0,.12-.52Z"/><path class="cls-14" d="M72.54,79.08a8.21,8.21,0,0,1-2.37-.81.27.27,0,0,0-.36.1,9.44,9.44,0,0,1-4.62,4.11,9.26,9.26,0,0,1-7.14,0l-.41-.19a.27.27,0,0,0-.36.13.26.26,0,0,0,.13.35,3.62,3.62,0,0,0,.44.2,9.76,9.76,0,0,0,7.54,0,9.94,9.94,0,0,0,4.76-4.11,8.79,8.79,0,0,0,2.29.75.27.27,0,0,0,.31-.22A.27.27,0,0,0,72.54,79.08Z"/><path class="cls-14" d="M60.42,58.93a11.51,11.51,0,0,1,1.7.71l.12,0a.16.16,0,0,0,.1,0,13.56,13.56,0,0,1,4-.9.26.26,0,0,0,.25-.28.27.27,0,0,0-.28-.25,13.8,13.8,0,0,0-4.06.89,12.76,12.76,0,0,0-1.67-.69.27.27,0,0,0-.34.17A.28.28,0,0,0,60.42,58.93Z"/><path class="cls-14" d="M73,78.07a7.31,7.31,0,0,1-3.2-1.3.25.25,0,0,0-.22,0,.27.27,0,0,0-.18.15v0a8.64,8.64,0,0,1-4.59,4.58,8.17,8.17,0,0,1-6.31,0,8.86,8.86,0,0,1-3.54-2.78.27.27,0,0,0-.38-.05.27.27,0,0,0,0,.37,9.38,9.38,0,0,0,3.76,3A8.75,8.75,0,0,0,65,82a9.1,9.1,0,0,0,4.75-4.6A7.86,7.86,0,0,0,72.9,78.6a.26.26,0,0,0,.3-.23A.27.27,0,0,0,73,78.07Z"/><path class="cls-14" d="M58.9,59.63a10.07,10.07,0,0,1,3.15,1.19.22.22,0,0,0,.24,0l.05,0a12.16,12.16,0,0,1,6.58-.9.27.27,0,0,0,.3-.23.26.26,0,0,0-.22-.3,13.16,13.16,0,0,0-1.77-.12,12.79,12.79,0,0,0-5,1A11,11,0,0,0,59,59.1a.28.28,0,0,0-.31.22A.27.27,0,0,0,58.9,59.63Z"/><path class="cls-14" d="M73.3,77A6.18,6.18,0,0,1,69.4,75a.29.29,0,0,0-.25-.09.26.26,0,0,0-.2.18,13.67,13.67,0,0,1-.55,1.38,7.58,7.58,0,0,1-4,4,7.07,7.07,0,0,1-5.49,0,7.7,7.7,0,0,1-4.06-4.11,8.17,8.17,0,0,1-.52-2.07.27.27,0,0,0-.3-.23.27.27,0,0,0-.23.29,8.07,8.07,0,0,0,.56,2.21A8.2,8.2,0,0,0,58.67,81a7.69,7.69,0,0,0,5.9,0,8.15,8.15,0,0,0,4.32-4.32c.15-.33.29-.67.42-1a6.73,6.73,0,0,0,3.93,1.9.27.27,0,0,0,.29-.24A.25.25,0,0,0,73.3,77Z"/><path class="cls-14" d="M57.59,60.53A9.19,9.19,0,0,1,62,62a.28.28,0,0,0,.15,0,.24.24,0,0,0,.12,0l.53-.25a11.08,11.08,0,0,1,4.46-.93,11.39,11.39,0,0,1,3.51.55.27.27,0,0,0,.34-.18.27.27,0,0,0-.18-.33,12.12,12.12,0,0,0-3.67-.57,11.53,11.53,0,0,0-4.67,1l-.43.2A9.63,9.63,0,0,0,57.62,60a.27.27,0,0,0,0,.53Z"/><path class="cls-14" d="M73.51,76a5.06,5.06,0,0,1-4.3-3.42,2,2,0,0,0-.2-.42.25.25,0,0,0-.28-.12.25.25,0,0,0-.21.22A13.42,13.42,0,0,1,67.43,76,6.58,6.58,0,0,1,64,79.52a6,6,0,0,1-4.67,0A6.59,6.59,0,0,1,55.81,76,7.08,7.08,0,0,1,55.32,73a.27.27,0,0,0-.35-.27,4.93,4.93,0,0,1-1.13.23.27.27,0,0,0,0,.53,4.48,4.48,0,0,0,.89-.15,7.36,7.36,0,0,0,.54,2.78A7.15,7.15,0,0,0,59.09,80a6.58,6.58,0,0,0,5.08,0,7,7,0,0,0,3.74-3.77,13.68,13.68,0,0,0,1-3,5.61,5.61,0,0,0,1.85,2.27,5.7,5.7,0,0,0,2.71,1,.27.27,0,0,0,.06-.54Z"/><path class="cls-14" d="M56.47,61.61c.14,0,.28,0,.43,0h.16a8.11,8.11,0,0,1,4.84,1.71.34.34,0,0,0,.17.05.23.23,0,0,0,.14,0,6.69,6.69,0,0,1,1-.53,10,10,0,0,1,4-.84,10.51,10.51,0,0,1,4.34.94,3.45,3.45,0,0,1,.43.2.28.28,0,0,0,.36-.12.27.27,0,0,0-.12-.36l-.45-.21a11.24,11.24,0,0,0-4.56-1,10.54,10.54,0,0,0-4.25.88,9.59,9.59,0,0,0-.9.47,8.62,8.62,0,0,0-5-1.7h-.17l-.46,0a.27.27,0,0,0,0,.54Z"/><path class="cls-14" d="M73.6,74.92a4,4,0,0,1-3.38-2.71A3.46,3.46,0,0,0,67.91,70a.27.27,0,0,0-.23,0,.26.26,0,0,0-.11.21,12.43,12.43,0,0,1-1.11,5.27,5.55,5.55,0,0,1-2.91,3,5,5,0,0,1-3.84,0,5.42,5.42,0,0,1-2.9-2.94,6.42,6.42,0,0,1,0-4.63.27.27,0,0,0-.11-.32.29.29,0,0,0-.34,0,4,4,0,0,1-2.53,1.27.26.26,0,0,0-.24.29.27.27,0,0,0,.29.24,4.57,4.57,0,0,0,2.17-.82,6.69,6.69,0,0,0,.25,4.12A6,6,0,0,0,59.5,79a5.48,5.48,0,0,0,4.26,0,6,6,0,0,0,3.18-3.23,12.77,12.77,0,0,0,1.16-5.11h0a2.93,2.93,0,0,1,1.6,1.7,4.55,4.55,0,0,0,3.84,3.07.27.27,0,1,0,0-.53Z"/><path class="cls-14" d="M55.55,62.84a5.81,5.81,0,0,1,1.38-.19h.13a7.15,7.15,0,0,1,4.78,2,.29.29,0,0,0,.36,0,5.64,5.64,0,0,1,1.43-.89,8.9,8.9,0,0,1,3.6-.75,9.62,9.62,0,0,1,3.91.84,11,11,0,0,1,1.67.94.3.3,0,0,0,.16,0,.28.28,0,0,0,.22-.12.27.27,0,0,0-.07-.37,11.25,11.25,0,0,0-1.76-1,10.05,10.05,0,0,0-4.13-.9,9.48,9.48,0,0,0-3.82.8,6.37,6.37,0,0,0-1.38.82,7.69,7.69,0,0,0-5-2h-.14a6.86,6.86,0,0,0-1.5.2.26.26,0,0,0-.19.32A.28.28,0,0,0,55.55,62.84Z"/><path class="cls-14" d="M73.62,73.84a2.92,2.92,0,0,1-2.39-2,4.53,4.53,0,0,0-2.47-2.65,3.69,3.69,0,0,0-1.53-.34,2.84,2.84,0,0,0-.58.05.26.26,0,0,0-.21.29,11.37,11.37,0,0,1-1,5.9,4.51,4.51,0,0,1-2.34,2.42,3.88,3.88,0,0,1-3,0,4.38,4.38,0,0,1-2.32-2.35A5.66,5.66,0,0,1,58,70.81a1.75,1.75,0,0,0,.18-1.4,1.29,1.29,0,0,0-1.12-.85c-.52,0-.87.49-1.13.9a3,3,0,0,1-2.11,1.39.27.27,0,0,0,.07.53,3.48,3.48,0,0,0,2.5-1.64c.1-.16.39-.64.68-.65a.8.8,0,0,1,.62.52,1.28,1.28,0,0,1-.18,1,6.22,6.22,0,0,0-.22,4.77A4.94,4.94,0,0,0,59.91,78a4.51,4.51,0,0,0,3.44,0A5,5,0,0,0,66,75.34a11.79,11.79,0,0,0,1-5.92,3.18,3.18,0,0,1,1.55.28A4.06,4.06,0,0,1,70.73,72a3.44,3.44,0,0,0,2.81,2.33.26.26,0,0,0,.3-.22A.27.27,0,0,0,73.62,73.84Z"/><path class="cls-14" d="M54.83,64.22a5.27,5.27,0,0,1,2.12-.5h.11a6.24,6.24,0,0,1,4.68,2.35l.07.09a.28.28,0,0,0,.21.1.27.27,0,0,0,.22-.11,4.34,4.34,0,0,1,1.81-1.42,7.91,7.91,0,0,1,3.18-.66,8.55,8.55,0,0,1,3.48.75,9.39,9.39,0,0,1,2.54,1.67.27.27,0,0,0,.18.07.24.24,0,0,0,.2-.08.28.28,0,0,0,0-.38,10.16,10.16,0,0,0-2.7-1.77,9.05,9.05,0,0,0-3.69-.8,8.45,8.45,0,0,0-3.39.71A5,5,0,0,0,62,65.57a6.75,6.75,0,0,0-5-2.38h-.12a5.72,5.72,0,0,0-2.33.54.27.27,0,0,0-.13.36A.27.27,0,0,0,54.83,64.22Z"/><path class="cls-14" d="M53.92,70.29a2.39,2.39,0,0,0,1.57-1.11c.18-.3.86-1.17,1.55-1.19h0a2.07,2.07,0,0,1,1.39.81A1.52,1.52,0,0,1,58.89,70a4.92,4.92,0,0,1-.27.74q-.13.33-.27.72A4.9,4.9,0,0,0,58.29,75a3.84,3.84,0,0,0,2,2.06,3.38,3.38,0,0,0,2.61,0A4,4,0,0,0,65,74.9,10.8,10.8,0,0,0,65.87,69c0-.08,0-.16,0-.24,0-.26,0,.06,0-.11a3.82,3.82,0,0,1,1.42-.28,4.27,4.27,0,0,1,1.75.39,5.1,5.1,0,0,1,2.76,3,2.41,2.41,0,0,0,1.79,1.59.26.26,0,0,0,.31-.21.27.27,0,0,0-.21-.32,1.85,1.85,0,0,1-1.38-1.23,5.69,5.69,0,0,0-3.06-3.29,4.72,4.72,0,0,0-2-.43,4.26,4.26,0,0,0-1.69.35c-.16.07-.3.17-.28.35s0,.2,0,.3,0,.16,0,.23a10.16,10.16,0,0,1-.82,5.63,3.52,3.52,0,0,1-1.78,1.88,2.85,2.85,0,0,1-2.2,0,3.3,3.3,0,0,1-1.75-1.77,4.43,4.43,0,0,1,.06-3.16q.13-.36.27-.69a4.64,4.64,0,0,0,.29-.83,2,2,0,0,0-.55-1.62,2.54,2.54,0,0,0-1.8-1h0c-1.12,0-2,1.43-2,1.45a1.9,1.9,0,0,1-1.22.86.27.27,0,1,0,.11.52Z"/><path class="cls-14" d="M71.87,66.08a.26.26,0,0,0-.37.07.27.27,0,0,0,.07.37,8.3,8.3,0,0,1,1.8,1.65.3.3,0,0,0,.21.1.27.27,0,0,0,.17-.06.28.28,0,0,0,0-.38A9.39,9.39,0,0,0,71.87,66.08Z"/><path class="cls-14" d="M64.27,65.22a3.75,3.75,0,0,0-1.77,1.5.26.26,0,0,0,.09.37.33.33,0,0,0,.14,0A.26.26,0,0,0,63,67a3.31,3.31,0,0,1,1.53-1.29,7.13,7.13,0,0,1,5.79.09.27.27,0,0,0,.36-.14.26.26,0,0,0-.14-.35A7.62,7.62,0,0,0,64.27,65.22Z"/><path class="cls-14" d="M54.17,65.82a.32.32,0,0,0,.17-.06,4.43,4.43,0,0,1,2.63-1,5.12,5.12,0,0,1,3.94,2A4.63,4.63,0,0,1,62,70.63a8.48,8.48,0,0,1-.43,1.29h0c-.08.2-.16.38-.22.56a.26.26,0,0,0,.16.34.15.15,0,0,0,.09,0,.26.26,0,0,0,.25-.18c.06-.17.13-.34.22-.54h0a7.2,7.2,0,0,0,.46-1.38,5.18,5.18,0,0,0-1.22-4.33A5.65,5.65,0,0,0,57,64.26a4.94,4.94,0,0,0-3,1.08.27.27,0,0,0-.1.26A.27.27,0,0,0,54.17,65.82Z"/><path class="cls-14" d="M54,69.16a1.36,1.36,0,0,0,.61-.53s1-1.67,2.44-1.7a3,3,0,0,1,2.25,1.19,2.53,2.53,0,0,1,.67,2.07,5.8,5.8,0,0,1-.33.93c-.09.21-.17.43-.26.66a3.94,3.94,0,0,0-.07,2.78A2.82,2.82,0,0,0,60.74,76a2.32,2.32,0,0,0,1.79,0A2.92,2.92,0,0,0,64,74.45a9.68,9.68,0,0,0,.78-5.33,1.85,1.85,0,0,0,0-.23,3.14,3.14,0,0,1,0-.63,1,1,0,0,1,.61-.59,5,5,0,0,1,4.08.08,6.21,6.21,0,0,1,3.34,3.61,1.34,1.34,0,0,0,.72.79.26.26,0,0,0,.35-.14.27.27,0,0,0-.13-.35.77.77,0,0,1-.43-.47,6.79,6.79,0,0,0-3.64-3.93,5.56,5.56,0,0,0-4.5-.08,1.52,1.52,0,0,0-.93,1,3,3,0,0,0,.06.81l0,.21a9.18,9.18,0,0,1-.73,5,2.55,2.55,0,0,1-1.22,1.34,1.79,1.79,0,0,1-1.38,0,2.18,2.18,0,0,1-1.17-1.18,3.34,3.34,0,0,1,.08-2.4c.07-.22.16-.43.25-.64a5.87,5.87,0,0,0,.35-1,3,3,0,0,0-.78-2.53A3.55,3.55,0,0,0,57,66.39c-1.73,0-2.85,1.89-2.89,2a.77.77,0,0,1-.36.31.27.27,0,0,0,.21.49Z"/><path class="cls-14" d="M54.1,67.47a3.61,3.61,0,0,1,6,0,3.56,3.56,0,0,1,.89,3,6.34,6.34,0,0,1-.38,1.11l-.24.62a2.86,2.86,0,0,0-.09,2,1.65,1.65,0,0,0,.89.89c.87.37,1.51-.19,1.9-1a8.55,8.55,0,0,0,.69-4.73l0-.22a3.16,3.16,0,0,1,0-1,2,2,0,0,1,1.24-1.4c3.35-1.46,7,.6,8.43,3.35a.27.27,0,0,0,.36.11.26.26,0,0,0,.12-.36A8,8,0,0,0,70,66.24a6.59,6.59,0,0,0-5.26,0A2.52,2.52,0,0,0,63.14,68a3.54,3.54,0,0,0,0,1.13l0,.21a8.14,8.14,0,0,1-.64,4.44c-.27.58-.63,1-1.22.78a1.12,1.12,0,0,1-.59-.6,2.32,2.32,0,0,1,.1-1.64c.07-.2.15-.4.23-.6a6.78,6.78,0,0,0,.41-1.2,4.11,4.11,0,0,0-1-3.43,4.14,4.14,0,0,0-6.82,0,.28.28,0,0,0,0,.38A.27.27,0,0,0,54.1,67.47Z"/><line class="cls-15" x1="71.6" y1="58.18" x2="54.47" y2="84.47"/></g><g id="Buttons-2" data-name="Buttons"><g class="cls-16"><path class="cls-17" d="M.22,69.38s.05-.1,0-.16a.17.17,0,0,0-.19,0,1,1,0,0,1-.51.1,1.48,1.48,0,0,1,.83-.18l0,.08s0-.05,0-.09A.39.39,0,0,1,.66,69a5.15,5.15,0,0,1,1.7-.2c.11.06.22,0,.33,0a.07.07,0,0,0,.06-.08.27.27,0,0,0-.09-.12.78.78,0,0,0-.37,0c-.08,0-.06,0,0-.07l.06,0,.14,0,.08,0h0l-.08,0h.07s0,0,0-.06h.21c.28,0,.58,0,.78-.27h.07c.09,0,.23,0,.21-.15s-.12-.08-.21-.05a5.79,5.79,0,0,0-.71.21c-.11.09-.25,0-.36.07h0v.13H2.3a.25.25,0,0,0-.24.07H2c-.13,0-.27,0-.36.15a.17.17,0,0,0,0,.05.44.44,0,0,0-.2,0l-.07,0c-.1-.06-.23,0-.32-.15s-.29-.08-.44,0-.11.12,0,.2-.06.15-.12.21l-.2.08,0,0H.15L.08,69h0a4.24,4.24,0,0,0-1,.21v.21c.16.23.4.22.64.2h.14A.28.28,0,0,0,.22,69.38Z"/><path class="cls-17" d="M105.86,81.1a.1.1,0,0,0,0,.15c.09,0,.15,0,.2-.08l.29-.42v-.13C106.12,80.71,106.07,81,105.86,81.1Z"/><path class="cls-17" d="M43.57,30.87c.08.05.17.1.22,0s.09-.21.13-.31h-.36C43.67,30.64,43.57,30.75,43.57,30.87Z"/><path class="cls-17" d="M86.66,37.07c.09-.09.19-.16.1-.29a.11.11,0,0,0-.16,0C86.52,36.87,86.55,37,86.66,37.07Z"/><path class="cls-17" d="M97.36,58.58l-.08.1c.06.11.12.22.28.13l0-.05a.29.29,0,0,1,0-.09c0-.05,0-.11,0-.14A.13.13,0,0,0,97.36,58.58Z"/><path class="cls-17" d="M50,39.64h0c-.09-.13,0-.34-.21-.42l-.07-.07c-.09,0-.24,0-.17.12a1,1,0,0,0,.37.45C50,39.75,50,39.68,50,39.64Z"/><path class="cls-17" d="M104.35,82.75h0a.13.13,0,0,1-.07.06.79.79,0,0,0-.3.35l0,0a.09.09,0,0,0-.07.06h0l-.06.06a1.23,1.23,0,0,1-.51.42,1.9,1.9,0,0,0-.44.54l-.36.34s0,.06-.06.09h0c-.06,0-.05.1,0,.15h0l.09,0,0,0,.08-.05.08,0c.14-.12.27-.26.4-.38a5.07,5.07,0,0,1,.55-.49c.08-.1.17-.18.25-.27a.35.35,0,0,0,.07-.12.65.65,0,0,0,0-.2c.1,0,.16,0,.23-.09l.1-.1c.14-.12.21-.31.36-.43h0a.24.24,0,0,1,.12-.23.63.63,0,0,0,.25-.31c0-.07,0-.1-.09-.08l-.2.15C104.71,82.36,104.45,82.49,104.35,82.75Z"/><path class="cls-17" d="M49.36,32.18s-.13-.08-.11,0a1.6,1.6,0,0,0,.1.31c.1.06.12.2.27.2a0,0,0,0,1,0,0C49.54,32.52,49.57,32.29,49.36,32.18Z"/><path class="cls-17" d="M105.87,92.76h.06c-.05-.08-.13-.06-.21,0S105.81,92.75,105.87,92.76Z"/><path class="cls-17" d="M2.44,73.78h.07c.08-.05.23-.06.09-.21a.45.45,0,0,1,0-.08v-.06h0a.12.12,0,0,0-.09,0c-.06,0-.13,0-.19,0h0c-.06,0,0,.12,0,.19v0A.59.59,0,0,1,2,73.56c-.12-.07-.29.08-.44,0l0,0H1.37l-.17.09c.05,0,.14,0,.17.11s.23.08.36.07h.13c.15-.11.33-.06.49-.06S2.41,73.76,2.44,73.78Z"/><path class="cls-17" d="M104.74,66.4c.05.1.16.11.26.14a.48.48,0,0,1,.22.2.34.34,0,0,0,.31.18l0,0v-.34c-.12,0-.26,0-.34-.11s-.23-.13-.35-.18S104.68,66.27,104.74,66.4Z"/><polygon class="cls-17" points="105.58 66.89 105.58 66.89 105.57 66.89 105.58 66.89"/><path class="cls-17" d="M105.72,67.09l.07.07s.09.07.19,0c-.14-.11-.17-.33-.4-.3C105.53,67,105.66,67,105.72,67.09Z"/><path class="cls-17" d="M105.48,72a.14.14,0,0,0,0,.09,1,1,0,0,1,0,.3s0,.06,0,.09.26.3-.09.3c0,0,0,0,0-.06a.07.07,0,0,0-.06-.07h0v-.07a.4.4,0,0,1-.09-.2c-.08-.07-.07-.19-.14-.28a.13.13,0,0,0-.14.14.33.33,0,0,0,0,.22.33.33,0,0,1,0,.22s0,0,0,.08-.19.24,0,.31c.08-.07.15-.16.27-.14h0c0,.13.06.25.22.26l0,0a.49.49,0,0,0,.09.33,1.48,1.48,0,0,1,.2.59h0l0-.07a.24.24,0,0,0-.09-.08.11.11,0,0,0-.08,0,.16.16,0,0,0,0,.11.24.24,0,0,0,0,.08l0,.07s0,.08,0,.11l.06.11.09.16c0,.07.08.2.21.14l.12.1c-.09,0-.17,0-.22.1a.17.17,0,0,0,0,.07c.08,0,.16.1.27.08s0-.15,0-.22h0a.33.33,0,0,1,.21.07v-.42h-.06c0-.07,0-.15-.09-.2h0c0-.14-.09-.28-.13-.42s0-.22-.14-.28,0,0,0-.06a.06.06,0,0,1,0-.08v0a.24.24,0,0,1-.08-.22.53.53,0,0,1,0-.13c0-.11-.12-.22,0-.29s0-.23,0-.35-.08-.21-.07-.33l-.06-.21C105.61,71.78,105.54,71.85,105.48,72Z"/><path class="cls-17" d="M82.35,39.18a.47.47,0,0,1-.47,0l-.09,0-.18,0h0l0,0s-.09.08,0,.15h0c.16.08.34.12.5.21l.07.07c.15,0,.34-.06.43.13.1,0,.21,0,.3,0s.2,0,.28-.09,0-.16-.07-.23h-.07c-.13-.09-.3-.11-.42-.22A.22.22,0,0,0,82.35,39.18Z"/><path class="cls-17" d="M82.61,39.09c0,.13.1.15.2.17a.18.18,0,0,0,.1,0s.15,0,.06-.14,0,0-.07-.07h0C82.8,39,82.68,39,82.61,39.09Z"/><path class="cls-17" d="M7,53a.59.59,0,0,0-.08-.43c-.06,0-.13-.06-.14.06a1.18,1.18,0,0,0,.08.49C7,53.08,7,53.05,7,53Z"/><path class="cls-17" d="M7,50.26c-.14-.07,0-.24-.15-.38v.52c0,.11.08.09.15.07Z"/><path class="cls-17" d="M12.12,44.16a.78.78,0,0,0,0-.22c-.05-.12-.05-.26-.16-.37a.12.12,0,0,0-.09,0c-.06,0-.07.06-.1.1h0l.21.83C12.15,44.44,12.09,44.28,12.12,44.16Z"/><path class="cls-17" d="M12.32,45.62a.4.4,0,0,0-.08-.47l-.15-.07a1.48,1.48,0,0,0,.09.69.21.21,0,0,1,.07.13C12.35,45.83,12.29,45.71,12.32,45.62Z"/><path class="cls-17" d="M12.88,51.71h0c-.24,0-.24,0-.15.21l.08.06h0C13,51.93,12.92,51.81,12.88,51.71Z"/><path class="cls-17" d="M10.81,31.27v.56c.1-.07.06-.18.07-.27s0-.2.07-.27a.18.18,0,0,0,0-.21C10.82,31.09,10.8,31.17,10.81,31.27Z"/><path class="cls-17" d="M20.46,33.43a2.26,2.26,0,0,1,0,.26l.07.07a.23.23,0,0,0,.14-.13h0s-.05-.05-.08-.06h0a.08.08,0,0,1,0-.13c.07,0,.07-.1,0-.14S20.46,33.33,20.46,33.43Z"/><path class="cls-17" d="M19,32.45s0,0,0-.06h0l-.05,0s0,.09,0,.11S19,32.48,19,32.45Z"/><path class="cls-17" d="M15.11,34.31c0,.07,0,.13.09.12a.12.12,0,0,0,.11-.14c0-.07,0-.14-.12-.13S15.11,34.25,15.11,34.31Z"/><path class="cls-17" d="M102.93,63.51v.06a.61.61,0,0,1,.21.35c.1,0,.14-.05.14-.13h0a.1.1,0,0,1,0-.14.35.35,0,0,0-.07-.2s-.1,0-.14-.07a.08.08,0,0,0-.08,0S103,63.47,102.93,63.51Z"/><path class="cls-17" d="M103.43,64.4a.17.17,0,0,0,.15-.07s0,0,0-.06a.49.49,0,0,1-.13-.15h0C103.3,64.21,103.39,64.31,103.43,64.4Z"/><path class="cls-17" d="M98.49,61V61c-.18-.17-.19-.17-.29,0v0a.12.12,0,0,0,.05,0l.06,0,.07,0h0Z"/><path class="cls-17" d="M97.14,59.85c0,.06,0,.08.06.08l.23.24s.09.09.15.06,0-.12.06-.18a3.31,3.31,0,0,0-.5-.41C97.05,59.71,97.16,59.78,97.14,59.85Z"/><path class="cls-17" d="M101.93,60.47a.18.18,0,0,1,0,.1h0a.09.09,0,0,0-.08,0c-.15,0-.11-.2-.25-.18s.07.29,0,.45v0a.53.53,0,0,0,0,.12.25.25,0,0,0,0,.07.23.23,0,0,0,.11.13c.31,0,0-.27.2-.33s.08.08.12.12l0,0,.08.06a.15.15,0,0,0,.17,0,.08.08,0,0,0,0-.08,0,0,0,0,1,0-.06l0-.07a.17.17,0,0,0,0-.15.43.43,0,0,0,0-.05l0-.07a.21.21,0,0,0-.1-.09c.06-.05.11-.1.07-.19h0a.27.27,0,0,0-.07-.08h0C102.05,60.25,101.94,60.29,101.93,60.47Z"/><path class="cls-17" d="M100.79,104.9l-.12.07c-.14.09-.13.11,0,.21a.57.57,0,0,1,.28-.08c.21-.11.08-.22,0-.33h-.06A.86.86,0,0,1,100.79,104.9Z"/><path class="cls-17" d="M4.3,69.31v.13a.15.15,0,0,0,.21,0h0C4.5,69.3,4.41,69.29,4.3,69.31Z"/><path class="cls-17" d="M12.17,73l0,0a.13.13,0,0,0,.17,0c0-.06,0-.09-.07-.12h0c-.07,0-.16,0-.21,0S12.15,73,12.17,73Z"/><path class="cls-17" d="M11,72.43l0,0s0,.07,0,.07a.07.07,0,0,0,.06,0S11.06,72.44,11,72.43Z"/><path class="cls-17" d="M9.73,67.71s.12,0,.07-.14c-.25-.1-.34-.06-.35.14h.28Z"/><path class="cls-17" d="M3.59,73.57a2,2,0,0,0,.64-.06.69.69,0,0,1,.51,0c.06,0,.14,0,.21,0a2.75,2.75,0,0,1,.81.06A.22.22,0,0,0,6,73.51h.21a.13.13,0,0,1,0-.06h.5c.12,0,.08-.08.06-.14a1.54,1.54,0,0,1-.37,0,.8.8,0,0,0-.57,0H5.73l-.15,0H5.45c0-.09,0-.18-.15-.07a1.52,1.52,0,0,1-.2.06c-.17,0-.28,0-.3-.19-.07,0-.14-.26-.21,0,.08.14.1.24-.12.25a1,1,0,0,0-.17,0c-.24-.08-.48,0-.72,0A.17.17,0,0,0,3.59,73.57Z"/><path class="cls-17" d="M54.57,39.57a.35.35,0,0,0,0-.08l-.07-.06c-.13,0-.15,0-.08.13h0c.06.09,0,.19,0,.29s-.09.35.06.51.15.1.24,0a.43.43,0,0,1,0,0c-.05-.12,0-.25-.05-.36a.17.17,0,0,1,0-.07c-.09-.1,0-.24-.08-.34Z"/><path class="cls-17" d="M50.42,34.81c-.11,0-.2-.12-.34-.09a.46.46,0,0,0,.07.36,1.23,1.23,0,0,1,0,.47c0,.07,0,.15.08.17s.15-.07.17-.14A1.55,1.55,0,0,0,50.42,34.81Z"/><path class="cls-17" d="M79.46,34.32c0,.06-.09.11,0,.18a.09.09,0,0,0,.15,0c0-.05.1-.12.06-.18s-.12,0-.19,0Z"/><path class="cls-17" d="M80.27,37.7h.06c.15,0,.33.06.42-.13h0l-.07,0a.11.11,0,0,1-.07,0h0A.31.31,0,0,0,80.27,37.7Z"/><path class="cls-17" d="M82.19,39c.07,0,.16,0,.22,0l-.08-.1C82.25,38.89,82.1,38.83,82.19,39Z"/><path class="cls-17" d="M6.08,104.93c0-.12-.13,0-.2,0v.26A.18.18,0,0,0,6.08,104.93Z"/><path class="cls-17" d="M6,101.85l0-.07-.14-.08s0,0-.08,0h0a.14.14,0,0,0-.06.13l.07.08.07.06a.17.17,0,0,0,.21,0A.1.1,0,0,0,6,101.85Z"/><path class="cls-17" d="M3.36,100.49h0a.15.15,0,0,0-.21,0h0v.12h0s.05,0,.08.06S3.46,100.64,3.36,100.49Z"/><path class="cls-17" d="M.29,86.48c.09,0,.15,0,.13-.13S.22,86.33.29,86.48Z"/><path class="cls-17" d="M100.29,94c.1,0,.2,0,.2-.13h-.2Z"/><path class="cls-17" d="M100.27,93.3h-.06a.31.31,0,0,0-.12.43c.17,0,.17-.22.32-.23a.07.07,0,0,0,0-.06c.1-.08.14-.18,0-.25S100.3,93.21,100.27,93.3Z"/><path class="cls-17" d="M102.76,68a.13.13,0,0,0,0,.08l.1.08c.06,0,.09.12.18.1h.14a.68.68,0,0,1-.08-.34l0,0c-.1-.11-.2-.08-.28,0A.36.36,0,0,0,102.76,68Z"/><path class="cls-17" d="M104.5,68.12c.08,0,.14.08.22,0s.23,0,.25.14.11,0,.16,0l.08-.07a.17.17,0,0,1,.14-.07,2.09,2.09,0,0,0,0-.25l-.12,0c-.22-.13-.39,0-.58.07S104.38,68,104.5,68.12Z"/><path class="cls-17" d="M103.72,67.71h0s.07,0,.12,0,0-.12.09-.16h0s0-.09,0-.14h-.2A.2.2,0,0,0,103.72,67.71Z"/><path class="cls-17" d="M54.65,32.31a1.34,1.34,0,0,1,0-.2v-.06c0-.12,0-.23,0-.35A.63.63,0,0,0,54.65,32.31Z"/><path class="cls-17" d="M.15,68.61s-.06.07-.06.12C.25,68.75.17,68.67.15,68.61Z"/><path class="cls-17" d="M105.65,74.74c.14,0,.09-.06.07-.13S105.61,74.67,105.65,74.74Z"/><path class="cls-17" d="M95.32,48.53c.13.1.17-.07.25-.11l.05,0c.11-.16,0-.17-.12-.18a.2.2,0,0,1-.15.06C95.3,48.35,95.21,48.45,95.32,48.53Z"/><path class="cls-17" d="M102.92,64.27h-.06c-.09,0-.07.14-.08.21s0,.23,0,.34.1.18.12.28a.12.12,0,0,0,.08,0c.14,0,.23-.09.15-.24h0a.15.15,0,0,1,0-.21l.07-.07c0-.08,0-.16-.07-.21S103,64.33,102.92,64.27Z"/><path class="cls-17" d="M101.85,63.74c-.07-.06-.18-.14-.22,0l.22.28c.13,0,.29.08.29-.14h0A1.08,1.08,0,0,1,101.85,63.74Z"/><path class="cls-17" d="M101.86,64.4a.15.15,0,0,0,0,.07c.07,0-.06.22.13.21h0v-.23C102,64.34,101.92,64.38,101.86,64.4Z"/><path class="cls-17" d="M100.57,62.81c.17.09.14,0,.14-.12S100.56,62.71,100.57,62.81Z"/><path class="cls-17" d="M98.64,61.37c0,.18.17,0,.22.13a.11.11,0,0,0,0-.13.2.2,0,0,0-.27,0Z"/><path class="cls-17" d="M95.57,58.25l.11.1a.05.05,0,0,1,0,0h0s0,0-.06,0,.06.24.19.32l.15.07,0,.06s0,.09.09.14a1.19,1.19,0,0,0,.22.23l.16.16.07,0,.08,0c.15,0,.17,0,.11-.16s-.1-.12-.15-.18a.53.53,0,0,1-.14-.28.31.31,0,0,1-.22-.15A.73.73,0,0,0,96,58.4l-.16-.13a.41.41,0,0,0-.19-.22C95.55,58.09,95.56,58.17,95.57,58.25Z"/><path class="cls-17" d="M104.3,66h0l.07.08.07.07s.06.11.14.07l.07-.07c0-.09-.14-.16-.15-.27l-.07-.07A.18.18,0,0,0,104.3,66Z"/><path class="cls-17" d="M104.1,65.77a.29.29,0,0,0-.17-.37C103.94,65.54,103.93,65.68,104.1,65.77Z"/><path class="cls-17" d="M1,73.62s0,0-.08,0-.05,0-.07,0a.17.17,0,0,0,.1,0Z"/><path class="cls-17" d="M5.73,68.61a1,1,0,0,0-.8.2,2,2,0,0,0,.8-.13S5.76,68.64,5.73,68.61Z"/><path class="cls-17" d="M7.72,73.23l-.06-.06a.15.15,0,0,0-.15.06v.13a.39.39,0,0,0,.21-.06S7.72,73.26,7.72,73.23Z"/><path class="cls-17" d="M10.12,73.1c.18.07.2-.09.32-.17a.61.61,0,0,0-.34,0h0C10.11,73,10,73.05,10.12,73.1Z"/><path class="cls-17" d="M11.33,73a.11.11,0,0,0-.13.09s0,.08.09.07a.12.12,0,0,0,.13-.09S11.37,73,11.33,73Z"/><path class="cls-17" d="M10.5,67.27a.12.12,0,0,0-.13,0,1,1,0,0,0-.35.14l.09.08.31,0A.11.11,0,0,0,10.5,67.27Z"/><path class="cls-17" d="M12,67.36l.32,0,.14-.15c0-.19-.17,0-.22-.13h-.05C12.19,67.22,12.11,67.28,12,67.36Z"/><path class="cls-17" d="M4.45,83.17s0-.08,0-.09a.25.25,0,0,0-.37.08h0a.47.47,0,0,0,.35,0Z"/><path class="cls-17" d="M7.73,77.85c0,.2-.27.28-.29.49l-.06.07s0,0,0,.06.14-.06.22-.06.17-.13.24-.22l.07-.11a.08.08,0,0,0,0-.08c0-.08.12-.18,0-.24S7.8,77.83,7.73,77.85Z"/><path class="cls-17" d="M8.66,76.48h0a.1.1,0,0,1-.14,0H8.45c0,.14.05.29-.07.42a.46.46,0,0,0-.07.07c-.06.08,0,.13.07.13h0l.05,0,0,0,.05,0,0,0,0,0,.05-.06s.11-.09.07-.17v-.2s0,0,0,0A.06.06,0,0,0,8.66,76.48Z"/><polygon class="cls-17" points="8.73 76.47 8.73 76.48 8.73 76.48 8.73 76.47"/><path class="cls-17" d="M78.47,38.26l-.11.06c-.08.09-.08.16,0,.2s.38.06.61,0c-.17,0-.29-.07-.26-.23h0a.15.15,0,0,0-.13,0,.12.12,0,0,0-.08,0Z"/><path class="cls-17" d="M77.56,36.61c0,.08,0,.11.1.12s.15,0,.15-.1,0-.1-.14-.1A.1.1,0,0,0,77.56,36.61Z"/><path class="cls-17" d="M79.54,37.67v0l-.14-.08h-.06c0,.11,0,.22.14.2l.07-.07Z"/><path class="cls-17" d="M4.26,105.89c-.06-.1-.15-.13-.25,0H4a.23.23,0,0,1,.07.07.23.23,0,0,0,.07.07C4.21,106,4.31,106,4.26,105.89Z"/><path class="cls-17" d="M99.58,80.32l0,0c.06,0,.14,0,.12-.09a.11.11,0,0,0-.14-.08C99.54,80.19,99.57,80.27,99.58,80.32Z"/><path class="cls-17" d="M96.19,84.88a.57.57,0,0,1-.13.08.56.56,0,0,0-.36.07c0,.19,0,.19.22.14l.14-.08.43-.13s.11,0,.14-.07h0C96.49,84.76,96.34,84.84,96.19,84.88Z"/><path class="cls-17" d="M101.5,85.59c.06.17.17.1.28.06l0-.2-.09-.08-.06,0C101.64,85.48,101.54,85.51,101.5,85.59Z"/><path class="cls-17" d="M99.85,87.06a.42.42,0,0,1-.28.18c-.08.18-.33.12-.43.28a1.21,1.21,0,0,0-.43.47l-.79.63a.09.09,0,0,0,0,.16c.17,0,.26-.09.36-.19a1.78,1.78,0,0,1,.6-.41,2.16,2.16,0,0,0,.25-.27c.07-.09.2-.14.27-.23a.32.32,0,0,1,.1-.1.91.91,0,0,0,.38-.35,1,1,0,0,0,.36-.41c0-.06,0-.09-.08-.07A1.28,1.28,0,0,0,99.85,87.06Z"/><path class="cls-17" d="M99.3,91.46c0,.06,0,.13-.09.16a.13.13,0,0,0-.12.12.24.24,0,0,0,0,.08.75.75,0,0,0,0,.16l0,.08,0,.08c.08.12.1.28.27.34a.17.17,0,0,0,.08-.14c0-.18-.16-.36,0-.55a.36.36,0,0,1-.07-.28s0,0,0-.06h0C99.42,91.35,99.36,91.33,99.3,91.46Z"/><path class="cls-17" d="M99.64,90.2v-.13C99.56,90.11,99.56,90.16,99.64,90.2Z"/><path class="cls-17" d="M99.85,94.07h0a.16.16,0,0,0-.24,0C99.7,94.09,99.78,94.05,99.85,94.07Z"/><path class="cls-17" d="M103.14,65.51h.07c0-.06,0-.14,0-.15s.1,0,.14.09l0,0c.12,0,.12-.11.2-.14v-.07l-.05-.05c-.14-.09-.28-.18-.43,0A.3.3,0,0,0,103.14,65.51Z"/><path class="cls-17" d="M104.15,66.82h.06l.08-.06c.06,0,.07-.1,0-.14s-.14,0-.2,0S104,66.8,104.15,66.82Z"/><path class="cls-17" d="M103.75,66.15s0,0,.06,0,0-.16,0-.24A.15.15,0,0,0,103.75,66.15Z"/><path class="cls-17" d="M104,69.17a.83.83,0,0,0,.36.48c.08,0,.15.21.22,0-.16-.27-.2-.6-.43-.83-.12-.08-.23,0-.35,0C103.74,69,103.91,69.06,104,69.17Z"/><path class="cls-17" d="M68.37,34.51a.63.63,0,0,0-.11.12l0,0c-.07.09-.16,0-.24,0s-.2,0-.24.1l.06.07a.18.18,0,0,0,.2,0,.19.19,0,0,1,.22.06.19.19,0,0,0,.27,0h0c0,.16.19.11.3.12s.21,0,.29.06-.1.1-.1.17a.08.08,0,0,0,0,.07c.06,0,.14,0,.2,0h0c.21.1.17-.16.29-.2v.06l.07-.07h0c.16-.08.29.13.44,0l0,0a.23.23,0,0,0,.21.05h.59c-.14-.19-.35-.07-.47-.2h0c-.08-.1-.2-.06-.3-.07s-.18-.1-.22-.2-.08,0-.11,0l0,.08c0,.07-.09,0-.15,0l-.09,0a1.27,1.27,0,0,1-.28-.06c-.18,0-.34-.15-.54-.11a0,0,0,0,0,0-.05c-.09-.06-.11-.18-.22-.23Z"/><path class="cls-17" d="M10,66.26h0c-.07-.08-.28-.13-.06-.28h0a.11.11,0,0,1-.06-.07s0,0,0-.06a.43.43,0,0,0-.26-.1.16.16,0,0,0-.09,0,.12.12,0,0,0-.14.13c.15,0,.3.07.29.28s.07.12.13.15S10,66.34,10,66.26Z"/><path class="cls-17" d="M104.56,71.38c.1,0,.08-.14.08-.22a.12.12,0,0,0-.14.14Z"/><path class="cls-17" d="M104.64,70.82a.13.13,0,0,0,.07-.14s-.08-.05-.11,0S104.59,70.78,104.64,70.82Z"/><path class="cls-17" d="M104.75,71.22l.18.29h0a.07.07,0,0,0,0-.08V71.3c-.07,0,0-.15-.08-.2h-.06C104.79,71.11,104.7,71.12,104.75,71.22Z"/><path class="cls-17" d="M105.44,73.77c.1,0,.13,0,.13-.12l-.07-.11s0-.07-.07-.07-.06.06-.06.1S105.43,73.7,105.44,73.77Z"/><path class="cls-17" d="M95.57,50h.06c.2.05.15-.14.21-.21v-.05C95.57,49.71,95.57,49.71,95.57,50Z"/><path class="cls-17" d="M17.6,49.84h0c-.13,0-.13.06-.08.14h0s0,.11.06.15l.24.47a.14.14,0,0,1,.06.14l.14.07s0,.08,0,.13.06-.09,0-.13V50.6a5.24,5.24,0,0,1-.28-.69S17.64,49.89,17.6,49.84Z"/><path class="cls-17" d="M32.35,48c0,.06,0,.07.11.07a.07.07,0,0,0,.06-.07.09.09,0,0,0-.08-.09S32.35,47.92,32.35,48Z"/><path class="cls-17" d="M46.12,36.88l-.06-.14c-.17-.09-.15.07-.21.13s-.13.17,0,.18S46.12,37.05,46.12,36.88Z"/><path class="cls-17" d="M100.42,65a.15.15,0,0,0,.07-.14h0l-.06-.08-.07-.13c-.12-.18-.34-.12-.5-.2s-.07.07-.07.13.3.1.42.21h0a.1.1,0,0,0,.06.09h0a.08.08,0,0,0,0,0c0,.05.1,0,.13.08Z"/><path class="cls-17" d="M100.18,65.13s.06,0,.07-.06,0-.09-.08-.1-.1,0-.09.07S100.13,65.12,100.18,65.13Z"/><path class="cls-17" d="M99.49,64.27a.38.38,0,0,0,.1,0,.08.08,0,0,0,0-.09s-.06-.06-.08,0,0,.06,0,.09Z"/><path class="cls-17" d="M92.88,100.93c0,.06.05.09.1.09a0,0,0,0,0,.06,0,.08.08,0,0,0-.1-.1S92.9,100.92,92.88,100.93Z"/><path class="cls-17" d="M91.78,101.64h0a.25.25,0,0,0,.08-.19C91.76,101.46,91.76,101.54,91.78,101.64Z"/><path class="cls-17" d="M7.09,64.54,7,64.47a.45.45,0,0,0-.13-.1.11.11,0,0,0-.08,0v.14s0,0,0,.06l.13.08C7,64.67,7.17,64.71,7.09,64.54Z"/><path class="cls-17" d="M20.44,68.94c.08,0,.11-.12,0-.2s-.16,0-.22-.06h0a.38.38,0,0,0,0,.48l.07-.07C20.32,69,20.38,69,20.44,68.94Z"/><path class="cls-17" d="M15.17,66.88h0s.11,0,.15-.06h.21a.75.75,0,0,0,.65-.33c.12-.19,0-.15-.14-.15-.32.11-.71-.07-1,.21a2.13,2.13,0,0,1-.35.14,1.89,1.89,0,0,0-.21.09l0,0c.11.13.26.09.39,0A.42.42,0,0,1,15.17,66.88Z"/><path class="cls-17" d="M49.15,45.58c0,.16.14.21.32.25a1,1,0,0,0-.16-.33.11.11,0,0,0-.13,0S49.14,45.53,49.15,45.58Z"/><path class="cls-17" d="M57.11,37.73a.12.12,0,0,0-.18,0c-.11.11.06.13.09.2h0C57.08,37.86,57.18,37.83,57.11,37.73Z"/><path class="cls-17" d="M56.79,37.22c-.12-.08,0-.24-.14-.4v.41c0,.05,0,.12.1.1S56.79,37.26,56.79,37.22Z"/><path class="cls-17" d="M56.73,36.19v-.08s-.12,0-.13,0a.17.17,0,0,0,.06.23h0S56.68,36.22,56.73,36.19Z"/><path class="cls-17" d="M49.45,52.51c0,.08.12.11.2,0s.08-.17.15-.16.18-.13.26-.19-.17,0-.27-.06h0s0,0-.07.06a1.23,1.23,0,0,0-.25.14A.13.13,0,0,0,49.45,52.51Z"/><path class="cls-17" d="M49.13,47c-.05-.1-.13,0-.2,0l.07.13C49.09,47.08,49.17,47.05,49.13,47Z"/><path class="cls-17" d="M45.22,42.57c-.14,0-.14.08-.15.17a2.82,2.82,0,0,0-.57.15.15.15,0,0,1-.14.06c-.15.1-.29,0-.44,0s-.06.13-.07.2l.08.08.42-.15h.07c.16.08.33,0,.49,0s0,0,0-.06a3.16,3.16,0,0,1,.68-.14c.18,0,.35-.19.3-.27s-.23,0-.34,0Z"/><path class="cls-17" d="M45.36,42.25h-.14C45.27,42.33,45.31,42.32,45.36,42.25Z"/><path class="cls-17" d="M42,43.36l-.07.08c-.13,0-.31.13-.4-.09l-.1.08s0,.09,0,.14a.12.12,0,0,0,0,.13h.28a.23.23,0,0,1,.22-.13h.22l0-.09c0-.07,0-.13,0-.17S42,43.31,42,43.36Z"/><path class="cls-17" d="M42.78,42.81h0s0,0,0,.06.19,0,.28,0C43,42.65,42.89,42.77,42.78,42.81Z"/><path class="cls-17" d="M44.11,42.74s0,0,0,0l0,0s0,.05,0,.05A0,0,0,0,0,44.11,42.74Z"/><path class="cls-17" d="M47.72,38.66c.08,0,.07-.11.05-.19C47.57,38.49,47.68,38.58,47.72,38.66Z"/><path class="cls-17" d="M44.34,40.18V40h-.2s-.11,0-.11.12a.1.1,0,0,0,0,.07h0A.19.19,0,0,0,44.34,40.18Z"/><path class="cls-17" d="M42.36,42a.39.39,0,0,0,.06.26l0,0a.34.34,0,0,0,.17-.05l.08,0h0c.07-.08.19-.15.06-.27a.53.53,0,0,0-.21.11C42.46,42.12,42.42,42,42.36,42Z"/><path class="cls-17" d="M46.24,37.37c-.07-.11-.16,0-.24,0s0,.23.13.27S46.31,37.49,46.24,37.37Z"/><path class="cls-17" d="M60.82,37.21c.07.06,0,.17.12.21l0-.06c0-.08,0-.17,0-.26A.12.12,0,0,0,60.82,37.21Z"/><path class="cls-17" d="M75.89,37.36s-.1.06-.1.13a.22.22,0,0,0,.11.14c.12.06.19-.13.23-.1s.14-.06.19-.11h0c-.08-.06-.2,0-.29-.06h-.14Z"/><path class="cls-17" d="M76,36.19s.1,0,.1-.08A.09.09,0,0,0,76,36c-.09,0-.17,0-.27,0A.3.3,0,0,0,76,36.19Z"/><path class="cls-17" d="M5.88,99.42l-.09-.1c-.09.07,0,.18-.07.27h0a.16.16,0,0,1,0,.07.11.11,0,0,0,0,.07h0C6.07,99.61,6.08,99.59,5.88,99.42Z"/><path class="cls-17" d="M96.86,83.93V84c0,.08.09.15.2.07h0C97.06,83.92,97,83.9,96.86,83.93Z"/><path class="cls-17" d="M98.29,87.87c.15-.2.37-.36.42-.63a1.61,1.61,0,0,0-.5.35C98.2,87.69,98.12,87.81,98.29,87.87Z"/><path class="cls-17" d="M95,85.44l.07-.06v-.15h-.15C94.88,85.32,94.79,85.43,95,85.44Z"/><path class="cls-17" d="M97.48,83.59a.32.32,0,0,0-.27.06c0,.2.12.1.21.07Z"/><path class="cls-17" d="M94.62,81a.12.12,0,0,0-.06-.13c-.1.05-.16.14-.29.14l.07.14C94.48,81.13,94.55,81,94.62,81Z"/><path class="cls-17" d="M98.14,97.72h0s.09,0,.13,0l.08-.07c0-.13,0-.21-.2-.12A1.21,1.21,0,0,0,98.14,97.72Z"/><path class="cls-17" d="M73.78,36.24c0,.08.08.09.11.14a.14.14,0,0,0,.21,0c.09-.11,0-.14-.07-.2H74C73.9,36.2,73.81,36.16,73.78,36.24Z"/><path class="cls-17" d="M69.08,34.74l.09.07c.1,0,.21,0,.21-.14a.47.47,0,0,0-.28-.07A.1.1,0,0,0,69.08,34.74Z"/><path class="cls-17" d="M74.25,36.47c.09.26.14,0,.2,0l0-.06c0-.07,0-.14-.12,0A.73.73,0,0,0,74.25,36.47Z"/><path class="cls-17" d="M102.86,67.23c0,.15.11.13.21.14h0a.12.12,0,0,0,0-.15l-.08,0C102.92,67.13,102.88,67.17,102.86,67.23Z"/><path class="cls-17" d="M102.6,67.26c-.19,0-.37,0-.32.25h0c.09.07.21,0,.29.06h0l.06.07h0l.13,0s.15.06.15-.06-.06-.09-.12-.09a.14.14,0,0,1-.16-.14Z"/><path class="cls-17" d="M102.72,68.19a.2.2,0,0,0-.15-.07s0,.07-.08,0,0,0,0-.08,0-.07,0-.1,0,0-.08-.06-.12-.14-.17-.21-.09-.08-.15,0a.11.11,0,0,0,0,.16.64.64,0,0,1,.2.49h0a.12.12,0,0,0,.1,0c.07,0,.07.07.11.1s0-.2.21-.17S102.76,68.23,102.72,68.19Z"/><path class="cls-17" d="M71.45,37s0-.07-.06-.07-.12.05-.15.12a.43.43,0,0,1,0,0s0,0,0,0a0,0,0,0,0,0,0C71.39,37.07,71.46,37.06,71.45,37Z"/><path class="cls-17" d="M10,64.71a.05.05,0,0,0-.06.06c0,.09,0,.1.12.11l0,0S10.1,64.71,10,64.71Z"/><path class="cls-17" d="M104.86,72.54l-.14-.14-.08-.06c-.08,0-.06.13-.07.2l.08.14h.29a.15.15,0,0,1,0-.07A.46.46,0,0,1,104.86,72.54Z"/><path class="cls-17" d="M81.67,52.89c0,.09.11.17.23.13S82,53,82,53l-.14-.15h-.14C81.68,52.8,81.66,52.84,81.67,52.89Z"/><path class="cls-17" d="M86.26,54c0,.11.11.13.21.07s-.1-.14-.2-.13S86.24,54,86.26,54Z"/><path class="cls-17" d="M76.18,43.63l.07-.06c0-.09.12-.19-.07-.2S76.05,43.54,76.18,43.63Z"/><path class="cls-17" d="M16.45,60.82c0-.07-.09-.14-.14-.21s-.18.14-.28.28C16.2,60.85,16.35,61.06,16.45,60.82Z"/><path class="cls-17" d="M16.51,61.28c0-.05-.06-.09-.12-.1s-.11.09-.11.15,0,.16.11.14S16.51,61.37,16.51,61.28Z"/><path class="cls-17" d="M18.1,62.55a.19.19,0,0,0-.18-.22s-.09,0-.09.08.11.25.2.24S18.1,62.59,18.1,62.55Z"/><path class="cls-17" d="M13.87,56.81c.06.08.1,0,.14,0S13.91,56.75,13.87,56.81Z"/><path class="cls-17" d="M15.22,54.2h0c0-.07,0-.14,0-.21s-.14-.16-.15-.27a.41.41,0,0,1-.14-.15s0,0-.06-.07h0a.13.13,0,0,0,0-.06.17.17,0,0,0-.12,0s0,0,0,0h0c0-.12-.06-.11-.15-.07l-.06,0a1,1,0,0,0,.42.61h0a.14.14,0,0,0,0,.06h0l.08.1,0,0,.09.13C15.14,54.33,15.23,54.34,15.22,54.2Zm-.55-.69h0Z"/><path class="cls-17" d="M10.89,58.4h0s0,.08.08,0Z"/><path class="cls-17" d="M18.24,54.6c0-.13,0-.27,0-.4-.22.16-.23.28-.06.47h0l.07-.07Z"/><path class="cls-17" d="M31.17,44.94a.75.75,0,0,0-.7.21l-.28.07c-.08,0-.1,0-.14.07a1.8,1.8,0,0,1-.65.14.16.16,0,0,1-.08.06h-.06a.24.24,0,0,1-.08.06h0c-.13,0-.28,0-.38.11.11.07.22,0,.32,0l.07-.06.14,0a.21.21,0,0,0,.16-.05h0l.12,0a.15.15,0,0,0,.15-.06c.14,0,.27-.07.41,0s.18-.16.33-.17a3.43,3.43,0,0,0,.44-.09,1.17,1.17,0,0,0,.38-.08C31.41,45,31.28,45,31.17,44.94Z"/><path class="cls-17" d="M36.54,43.91c.21-.22,0-.24-.14-.24s-.25,0-.34.12-.27.15-.43.2-.13.21.08.17.46-.12.7-.18h0Z"/><path class="cls-17" d="M33.47,44.18c0,.1-.4,0-.13.22h.07a1.11,1.11,0,0,1,.39-.2A.21.21,0,0,0,34,44a.1.1,0,0,0-.14,0,.37.37,0,0,1-.29.14Z"/><path class="cls-17" d="M35.26,43.23H35.2s-.07,0-.07.06.09.1.15.05S35.28,43.26,35.26,43.23Z"/><path class="cls-17" d="M40.13,43.15a.89.89,0,0,1-.42.15,2.32,2.32,0,0,1-.58.13.06.06,0,0,0,0,.06.1.1,0,0,0,0,0c0,.08,0,0-.07.07-.21.15-.48.18-.67.37h-.07s-.06,0-.07.07l.08.08c.1,0,.22-.06.27.08s.09.06.15,0a.44.44,0,0,0,.15-.18l0,0v0c.2-.11.41,0,.62-.05s.1-.41.38-.42H40a.41.41,0,0,0,.2-.14h.06s0,0,.06-.07h0C40.33,43.15,40.29,43.09,40.13,43.15Z"/><path class="cls-17" d="M40.22,44.12c0,.05,0,.09,0,.14s.13.07.21.06a2.81,2.81,0,0,0,0-.41.15.15,0,0,0-.14.07C40.22,44,40.24,44.08,40.22,44.12Z"/><path class="cls-17" d="M45.28,38.46a.61.61,0,0,1,0-.14l-.08-.08c-.17,0-.13.12-.07.22h0c.06,0,0,.17.13.14h0a.13.13,0,0,1,0,.06c.07,0,.13.27.21,0C45.42,38.61,45.4,38.49,45.28,38.46Z"/><path class="cls-17" d="M99.71,67.55s0,.07.07.1h.06a.11.11,0,0,0,.15,0c.12-.09.06-.13,0-.14h-.1S99.72,67.47,99.71,67.55Z"/><path class="cls-17" d="M95.91,64.68a4.71,4.71,0,0,0,.8.27.19.19,0,0,0,.2,0,.15.15,0,0,1-.13-.08l-.08-.07c-.14-.06-.32,0-.43-.14l-.07-.06h-.07a.15.15,0,0,0-.21,0h0A.11.11,0,0,0,95.91,64.68Z"/><path class="cls-17" d="M99.26,67.59c-.16,0-.28,0-.38.12C99,67.7,99.13,67.75,99.26,67.59Z"/><path class="cls-17" d="M99,67.37a.17.17,0,0,0,.07-.13c-.15,0-.15,0-.15.06a.46.46,0,0,1,.07.07Z"/><path class="cls-17" d="M101.07,67.23c-.12,0-.24-.14-.29.06s0,.15.07.22c-.11,0-.22,0-.26.12h0l.14.07.07-.06v-.14c.12.14.24.09.36,0s.11,0,.18-.11l-.18-.09A.13.13,0,0,1,101.07,67.23Z"/><path class="cls-17" d="M99.59,66.42s0,0,0,0,.08,0,.09-.1S99.59,66.34,99.59,66.42Z"/><path class="cls-17" d="M93.85,62.4h0s0,0,0,0h0a.46.46,0,0,0,.07-.07v-.06C93.88,62.26,93.77,62.24,93.85,62.4Z"/><path class="cls-17" d="M94.4,63.34v0h0s0,.06.07.08l.08,0h0l0,0s0,0,0,0,.11,0,.11-.06-.18-.21-.32-.19S94.39,63.31,94.4,63.34Z"/><path class="cls-17" d="M93.14,99.9c-.27-.08-.22.1-.22.24s.24-.08.38-.08.21-.11.18-.26S93.27,99.94,93.14,99.9Z"/><path class="cls-17" d="M20.33,67.58a.13.13,0,0,0,0,.06c.07,0,.1.16.21.14S20.49,67.56,20.33,67.58Z"/><path class="cls-17" d="M12.74,65.78c0,.1,0,.2.14.21A.07.07,0,0,0,13,66S13,66,13,65.92h.07c.09-.1,0-.15-.07-.2h-.14s-.1,0-.14.06Z"/><path class="cls-17" d="M13.31,66.68h0a.36.36,0,0,0-.35,0A1.4,1.4,0,0,0,13.31,66.68Z"/><path class="cls-17" d="M13.45,66.54c0,.07.08.07.14.07S13.51,66.54,13.45,66.54Z"/><path class="cls-17" d="M59.44,52.19s-.08,0-.11,0-.1.16-.14.24v.09c.07.11.15.12.25,0l.07-.12C59.5,52.37,59.55,52.26,59.44,52.19Z"/><path class="cls-17" d="M53.94,48.46s0-.1-.08-.13h0s-.09,0-.14,0h0c0,.09-.09.17-.07.27s.25,0,.35-.06Z"/><path class="cls-17" d="M51.53,49.33c.07-.09,0-.17,0-.24C51.36,49.13,51.42,49.22,51.53,49.33Z"/><path class="cls-17" d="M58.38,37.77c.1,0,.14.18.3.18,0-.15,0-.26-.1-.38C58.37,37.53,58.37,37.54,58.38,37.77Z"/><path class="cls-17" d="M48,54.23a.11.11,0,0,0,.11.14c.14,0,.07-.11.09-.17h0C48.14,54.22,48.05,54.09,48,54.23Z"/><path class="cls-17" d="M49,55.48l0,.08c0,.08.13.1.18.15h0l.08.07a.32.32,0,0,1,.15.13c.09,0,.13,0,.13-.13l-.29-.34c0-.1-.14-.09-.2-.15h0a.14.14,0,0,0-.08.14Z"/><path class="cls-17" d="M97,91c-.08,0-.16.06-.12.12.17.22,0,.26-.16.29l-.07.07c0,.06-.1.09-.08.17a1.44,1.44,0,0,0,.53-.22A.32.32,0,0,0,97,91Z"/><path class="cls-17" d="M97.78,91h0a.11.11,0,0,1,0,.15h0a.1.1,0,0,0,0,.14h0c.11.05.2.08.16-.1A.09.09,0,0,1,98,91c0-.11,0-.22-.07-.33C97.72,90.68,97.71,90.7,97.78,91Z"/><path class="cls-17" d="M96.42,90.21c0,.06,0,.11.09.12s.11-.06.12-.13S96.49,90.19,96.42,90.21Z"/><path class="cls-17" d="M97.56,89a.57.57,0,0,0,.08.13l.07,0V89s0-.1-.06-.09S97.59,88.93,97.56,89Z"/><path class="cls-17" d="M98.18,88l0,0S98.18,88,98.18,88Z"/><path class="cls-17" d="M93.77,90.89v-.06c-.1,0-.19,0-.19.13s.12.16.15,0Z"/><path class="cls-17" d="M93.53,90.22a.08.08,0,0,0,0,0s0-.06,0,0,0,0,0,.05Z"/><path class="cls-17" d="M93.92,80.89h0c0-.06-.06-.13-.14-.16a.08.08,0,0,0-.08,0,.2.2,0,0,0-.07.28h.54C94.07,80.94,94,81,93.92,80.89Z"/><path class="cls-17" d="M97.91,89.45a.48.48,0,0,0,.09.19.14.14,0,0,0,0-.23S97.94,89.41,97.91,89.45Z"/><path class="cls-17" d="M72.6,36.88l.21.07c.08-.09.17-.17,0-.16,0,0-.06,0-.09,0S72.57,36.81,72.6,36.88Z"/><path class="cls-17" d="M102.48,66.65c-.06.12.11.08.14.14l0,0h0c.07-.06.1-.13,0-.19S102.51,66.59,102.48,66.65Z"/><path class="cls-17" d="M101.85,67.51s.11,0,.15.06h0c.07-.06.11-.14,0-.19s-.14,0-.15.13Z"/><path class="cls-17" d="M103.57,69.37c-.1-.06-.15,0-.15.08s0,0,0,.06.06.06,0,.08-.06.21.08.24.22,0,.22-.18A.36.36,0,0,1,103.57,69.37Z"/><path class="cls-17" d="M69.36,46.7a.66.66,0,0,0,0,.58l0,0a.13.13,0,0,0,.13,0,.19.19,0,0,0,0-.13s-.07,0,0-.07a.2.2,0,0,0,.08,0c.21-.38.2-.52,0-.65h0s-.09,0-.14,0S69.41,46.62,69.36,46.7Z"/><path class="cls-17" d="M68.7,46s-.07.05-.1.08l-.07.07c0,.06,0,.16.1.09s.07-.11.1-.17S68.74,46,68.7,46Z"/><path class="cls-17" d="M68.39,45.57v.06l.06.08.14-.08s0,0,0-.06h0a.27.27,0,0,1-.07-.08h0C68.45,45.46,68.42,45.51,68.39,45.57Z"/><path class="cls-17" d="M103.79,70.2h0c0-.08,0-.18-.12-.24C103.63,70.09,103.63,70.18,103.79,70.2Z"/><path class="cls-17" d="M81.74,51.21a.14.14,0,0,0,0,.06.08.08,0,0,0,0,.07l0,0h.14l.07-.07v-.13h-.18A.12.12,0,0,0,81.74,51.21Z"/><path class="cls-17" d="M84.29,53.25h0s0-.05,0,0l0,0S84.28,53.25,84.29,53.25Z"/><path class="cls-17" d="M84.77,57.13a.08.08,0,0,0,0,.08.22.22,0,0,0,.05.08l.12.08c.23.12.47.22.69.35l.3.17c.08,0,.17.09.25,0s.09-.19,0-.26h0a.36.36,0,0,0-.2-.11.45.45,0,0,0-.23,0l-.28-.21s-.11,0-.15-.07h0a.35.35,0,0,0-.42-.14Z"/><path class="cls-17" d="M74.74,47.77c0-.08,0-.16-.06-.2S74.66,47.72,74.74,47.77Z"/><path class="cls-17" d="M79.34,46.68a.13.13,0,0,0,0,.06s.11.08.16,0,0-.12,0-.19l-.06,0A.1.1,0,0,0,79.34,46.68Z"/><path class="cls-17" d="M23.59,62.89c.05-.15,0-.2-.25-.2h0a.21.21,0,0,0,.14.26C23.52,62.94,23.57,63,23.59,62.89Z"/><path class="cls-17" d="M20.74,65.15,21,65c.11,0,.22-.07.16-.2s-.17-.06-.26,0-.25.12-.37.19C20.47,65.26,20.66,65.13,20.74,65.15Z"/><path class="cls-17" d="M15.64,66.14l-.26,0h0C15.44,66.21,15.52,66.22,15.64,66.14Z"/><path class="cls-17" d="M15,66.33v-.14H15C14.91,66.27,14.87,66.35,15,66.33Z"/><path class="cls-17" d="M20.18,65.31c.05.08.14,0,.22.06h.05C20.38,65.27,20.28,65.3,20.18,65.31Z"/><path class="cls-17" d="M19.87,52.81s0,0,0,0l0,0a0,0,0,0,0,0,0S19.87,52.84,19.87,52.81Z"/><path class="cls-17" d="M34.86,45l-.09,0-.06.06,0,0a.56.56,0,0,0,.62,0c.15-.09,0-.11-.05-.17h-.13A.9.9,0,0,1,34.86,45Z"/><path class="cls-17" d="M33,44.36l-.14,0h-.06l-.08,0c-.1,0-.21,0-.29.07h-.06a1.06,1.06,0,0,0-.66.27l-.12.07-.07,0-.06,0,0,0,.14.13h.07a.47.47,0,0,1,.43-.2l.43-.21h.07a.22.22,0,0,0,.22,0h0c.14,0,.3,0,.43-.06S33.16,44.28,33,44.36Z"/><path class="cls-17" d="M34.36,44.23c0-.06-.1,0-.16,0a1.76,1.76,0,0,1-.45.12c-.12,0-.08.08,0,.14h.13c.09-.07.21,0,.29-.07h0a.21.21,0,0,1,.15-.07S34.38,44.27,34.36,44.23Z"/><path class="cls-17" d="M31.56,44.55c-.07.06-.15,0-.23.06l-.06.13h0a.15.15,0,0,0,.21,0C31.48,44.67,31.68,44.67,31.56,44.55Z"/><path class="cls-17" d="M34.56,49a.25.25,0,0,1,.14.13.17.17,0,0,0,0,.12l.11.09c.08.08.2.11.27.19H35l-.1,0h0a.36.36,0,0,0-.07-.17h0c-.08.05-.09.12-.13.19s0,.15.14.14h.07a11.37,11.37,0,0,0,1.43,0c.06,0,.21,0,.14.11s0,.23-.13.3l-.08.07h0a.28.28,0,0,1-.13.21c0,.09.12.06.19.05s.06-.27.22-.34h0l.05-.07v0a.31.31,0,0,1,.09-.21l.07,0a.26.26,0,0,0,.16-.15c0-.12-.06-.17-.19-.12a2.37,2.37,0,0,1-.84-.06v-.07a.21.21,0,0,0-.1-.06h-.12c-.14,0-.3,0-.37-.13s-.18-.06-.26-.09l-.08-.06h0c0-.05-.11,0-.14-.08h0a.16.16,0,0,1-.07-.07h0a.12.12,0,0,0-.15,0Z"/><path class="cls-17" d="M33.56,49.9l.13,0h0s0,0,0,0l.08-.06a1,1,0,0,0,.5-.08c-.13-.13-.29,0-.44-.06h-.27C33.46,49.72,33.49,49.81,33.56,49.9Z"/><path class="cls-17" d="M32.26,49.84v.07h0a.5.5,0,0,1,.15.14h0c.25.08.18-.12.21-.22s-.16-.13-.28-.06,0,0-.07.06Z"/><path class="cls-17" d="M38,43.7a.12.12,0,0,0-.13-.13.17.17,0,0,0,0,.2l.09-.06Z"/><path class="cls-17" d="M39.92,43.71h0l.16-.12C39.89,43.59,39.89,43.59,39.92,43.71Z"/><path class="cls-17" d="M101.6,66.72a.06.06,0,0,0-.06.07c0,.06.07.08.13.09h0s0,0,0-.06S101.67,66.72,101.6,66.72Z"/><path class="cls-17" d="M93.6,64.26l.07,0,.22.07a1.19,1.19,0,0,0,.15.09.43.43,0,0,1,.3.24.32.32,0,0,0,.09,0c.27,0,.15.21.24.31a.46.46,0,0,0,.24.17c.19,0,.26-.06.23-.21h0l.13.07c.09,0,.15.16.27.17h0c0,.21.17.23.34.25l0,0,0,0v0l.06,0,.08,0h0v0h.18a.15.15,0,0,0,0,.09.12.12,0,0,0,.14,0h0s0,0,0,0c0,.26.28.34.49.45s.28.33.54.27h.2c.1,0,.24.05.3-.1a.29.29,0,0,0-.28-.09.47.47,0,0,1-.45-.2.29.29,0,0,0-.14-.13L97,65.86l0-.06a1.1,1.1,0,0,1,0-.18.1.1,0,0,0,0-.07.26.26,0,0,0-.23,0l-.17.06a.18.18,0,0,0-.09-.14c.13-.1.19-.21.07-.35H96.5c-.1-.11-.19-.24-.38-.11,0,0-.11,0-.16,0a2,2,0,0,1-.54-.15l-.14-.08c-.06,0-.07-.06-.09-.11a1.52,1.52,0,0,1-.42-.49c0-.13-.12-.2-.22-.28h-.06c-.17,0-.13.13-.13.23s.12.13.17.2a2.82,2.82,0,0,1-.48-.27c-.15-.07-.21-.22-.33-.32l-.09,0a.35.35,0,0,0-.2,0l-.08,0a.18.18,0,0,0,0,.14c0,.08.08.12.15.17A.28.28,0,0,1,93.6,64.26Z"/><path class="cls-17" d="M88.82,59.7a.32.32,0,0,0,.16.35,5,5,0,0,0,1,.47.14.14,0,0,0,.13-.07.14.14,0,0,0,0-.09l-.06-.07c-.12-.07-.08-.21-.16-.3s-.21-.1-.31-.05-.25,0-.33-.17-.1-.17-.22-.18a.22.22,0,0,0-.19,0A.1.1,0,0,0,88.82,59.7Z"/><path class="cls-17" d="M90.49,60.05a.13.13,0,0,0,.14-.13l-.07-.07a.17.17,0,0,0-.15.07s0,.1.08.13Z"/><path class="cls-17" d="M92.41,61.92a1.29,1.29,0,0,1,.3.27c.08.06.2.07.28.14h.14v-.06l-.06-.08h0a2.57,2.57,0,0,0-.57-.35C92.42,61.82,92.4,61.85,92.41,61.92Z"/><path class="cls-17" d="M87.88,94.69l0,0-.07.05-.06.06c-.12,0-.12.07-.08.15h0a.34.34,0,0,1,.09.14.45.45,0,0,0,.07.14.34.34,0,0,0-.15.07.53.53,0,0,1,0,.13c.08.21.08.21.25.09l.1,0,.09-.06c0-.08,0-.1-.08-.14h0l-.1,0a.65.65,0,0,0,.1-.15h0a.46.46,0,0,1,.07-.07.64.64,0,0,1,.36-.08v-.13a.17.17,0,0,0-.13,0C88.13,94.8,88,94.63,87.88,94.69Z"/><path class="cls-17" d="M88.13,95.44s.09,0,.09-.08,0,0-.08,0S88.08,95.4,88.13,95.44Z"/><path class="cls-17" d="M23.32,68.27a.15.15,0,0,0-.14.06h0a.46.46,0,0,1,.07.07l.07.07c.09,0,.23,0,.15-.14l0,0a.11.11,0,0,0-.07,0Z"/><path class="cls-17" d="M20.75,72.54c.08-.06.17,0,.25,0a.12.12,0,0,0,.07-.05v0h0a.13.13,0,0,0,0-.06v0a.13.13,0,0,1,0-.1l.06,0c.09-.1.23-.16.22-.33a.13.13,0,0,0-.14-.07h0s-.1,0-.14.07h0a.23.23,0,0,0-.07.07.55.55,0,0,0-.24.18.28.28,0,0,1-.33.1.14.14,0,0,1,0,.06.18.18,0,0,1-.13.2.36.36,0,0,0,0,.42C20.51,72.83,20.58,72.63,20.75,72.54Z"/><path class="cls-17" d="M20,73.5l.08-.13c-.08-.1-.19-.06-.29-.06l0,0C19.86,73.43,19.84,73.61,20,73.5Z"/><polygon class="cls-17" points="20.32 72.89 20.32 72.89 20.32 72.89 20.32 72.89 20.32 72.89"/><path class="cls-17" d="M20.3,72.91l0,0S20.28,72.91,20.3,72.91Z"/><path class="cls-17" d="M23.36,70.36c0-.08.09-.23-.11-.24h-.07l-.07.07h0c0,.09,0,.2.07.27h0C23.23,70.42,23.33,70.46,23.36,70.36Z"/><path class="cls-17" d="M8.67,79.54a.25.25,0,0,0-.29,0,.38.38,0,0,0,.28.15h0C8.67,79.66,8.75,79.59,8.67,79.54Z"/><path class="cls-17" d="M64.56,60v0c.12-.18,0-.38.07-.56l0-.09h0a.06.06,0,0,1,0-.08c0-.06,0-.12,0-.17h0c-.11-.08-.21-.16-.35-.05s.05.26.07.39a.2.2,0,0,1,0,.22v.06c-.06.13-.09.25,0,.34l.09,0h.1S64.59,60,64.56,60Z"/><path class="cls-17" d="M52.79,57h0c.06.08.14.07.22.06v-.12h-.06S52.83,56.91,52.79,57Z"/><path class="cls-17" d="M65.84,61.08c0-.08-.14-.06-.21,0a.14.14,0,0,0-.15.11.06.06,0,0,0,0,.08.33.33,0,0,0,.29-.06S65.86,61.09,65.84,61.08Z"/><path class="cls-17" d="M65.74,53.15c.1.07,0,.2.1.3.06-.08,0-.18.11-.23s0,0,0-.06a.16.16,0,0,0-.18-.16C65.72,53,65.74,53.1,65.74,53.15Z"/><path class="cls-17" d="M53.57,56.81h-.06c.07.1.17.07.27.06C53.73,56.79,53.64,56.82,53.57,56.81Z"/><path class="cls-17" d="M49.94,56.6s.08.1.11.1.08-.09.08-.16l-.07-.14c-.1-.06-.13,0-.14.08Z"/><path class="cls-17" d="M38.54,52.58a.47.47,0,0,1,.24,0h.06c.08-.21-.12-.16-.21-.21s-.14,0-.2,0a.38.38,0,0,0-.13.09l0,0A.18.18,0,0,0,38.54,52.58Z"/><path class="cls-17" d="M41.82,49.18c-.1-.12-.18,0-.32,0,.13.08.22.12.31,0S41.83,49.19,41.82,49.18Z"/><path class="cls-17" d="M42.15,48.47c-.1,0-.29,0-.29-.08s-.11-.11-.19-.13a.15.15,0,0,1-.12-.07c-.07,0-.14-.1-.22,0a.17.17,0,0,0,0,.22.68.68,0,0,0,.12.12c.13,0,.2.12.3.19a.4.4,0,0,0,.49,0,.16.16,0,0,0,0-.16A.1.1,0,0,0,42.15,48.47Z"/><path class="cls-17" d="M13.87,82.76a.2.2,0,0,1-.06-.14c0-.1-.05-.13-.14-.14s-.25,0-.12.18l.12.16C13.74,82.82,13.82,82.84,13.87,82.76Z"/><path class="cls-17" d="M9.25,98.29c-.11,0-.15,0-.16.12h.14S9.33,98.33,9.25,98.29Z"/><path class="cls-17" d="M97.92,72.91a3,3,0,0,1-.52-.07.28.28,0,0,0-.2,0c-.06.11-.48.06-.17.34l.09,0a.35.35,0,0,1,.21.1c.11.12.24.09.38,0s.51-.17.79-.14c.06-.1.2-.14.2-.28h0a.28.28,0,0,0-.28,0c-.14,0-.28,0-.41,0Z"/><path class="cls-17" d="M84.7,93.23s0,0,.08.06.19.09.21-.09,0-.07,0-.1h-.07C84.73,93,84.71,93,84.7,93.23Z"/><path class="cls-17" d="M86.12,93.75c0-.06,0-.12-.09-.12s-.06,0-.06.07,0,.11.1.12S86.12,93.78,86.12,93.75Z"/><path class="cls-17" d="M92.86,92.31c-.07-.13-.22,0-.3-.1s-.12-.26-.29-.28-.18,0-.2.09.06.11.13.13a.24.24,0,0,1,.18.23c0,.2.14.16.25.18l.15-.14S92.87,92.37,92.86,92.31Z"/><path class="cls-17" d="M94.19,91.78v-.12a.09.09,0,0,0-.06-.07c-.06-.06-.12-.11-.21-.07h0c-.12.06-.09.14,0,.21v.06H94s0,0,0,.07h.21A.22.22,0,0,1,94.19,91.78Z"/><path class="cls-17" d="M92.06,86.07h.13a1,1,0,0,0,.16-.13c.06-.05.05-.1,0-.12S92.05,85.89,92.06,86.07Z"/><path class="cls-17" d="M93,85.12a0,0,0,0,0,0,0l0,0s0,0,0,0S93,85.13,93,85.12Z"/><path class="cls-17" d="M91.55,78.82c.15,0,.16.17.16.31l.16-.21,0-.17C91.74,78.76,91.63,78.72,91.55,78.82Z"/><path class="cls-17" d="M91.2,81.53s0,.09.08.09a0,0,0,0,0,0,0,.08.08,0,0,0,0-.11l-.09,0h0S91.2,81.5,91.2,81.53Z"/><path class="cls-17" d="M20.32,89.38a.31.31,0,0,0,.22-.21h0a.12.12,0,0,0,0-.09c-.13-.16-.22-.1-.31,0l-.08,0-.08.07a.46.46,0,0,1-.07.07c-.06.15,0,.18.15.15Z"/><path class="cls-17" d="M14.89,87.79l.14.13.34-.07C15.22,87.74,15.05,87.81,14.89,87.79Z"/><path class="cls-17" d="M12.67,85.24c-.1,0-.15,0-.15.13S12.67,85.33,12.67,85.24Z"/><path class="cls-17" d="M70.89,41.36l.07.06.14.14h0l.07-.06h0c.1-.16,0-.2-.14-.28l-.31,0C70.75,41.29,70.86,41.28,70.89,41.36Z"/><path class="cls-17" d="M69.6,46.19c.09,0,.15,0,.15-.09s0-.19-.15-.12Z"/><path class="cls-17" d="M68.31,49.36c.08,0,.16,0,.2-.06l-.06-.07C68.36,49.23,68.22,49.18,68.31,49.36Z"/><path class="cls-17" d="M81.86,51.73a.15.15,0,0,0,0-.23C81.83,51.58,81.8,51.65,81.86,51.73Z"/><polygon class="cls-17" points="81.83 51.5 81.83 51.5 81.83 51.5 81.83 51.5"/><path class="cls-17" d="M86.47,57.92v0l.06,0,.07,0,.11,0,0,0,.07,0a.12.12,0,0,0,.08,0,.08.08,0,0,0,0,0,.56.56,0,0,0,.4.25c.13,0,.25.12.39.16a.37.37,0,0,0,.23,0c.08,0,.16,0,.21-.06s-.05,0-.07-.07l-.14-.08a.42.42,0,0,0-.21-.06c-.09-.06-.21-.1-.25-.18S87.16,58,87,58l-.13,0c-.07-.06-.16,0-.22-.07h0S86.5,57.86,86.47,57.92Z"/><path class="cls-17" d="M87.57,58s.05.08.1.07a.11.11,0,0,0,.09-.12c0-.05,0-.08-.08-.06S87.57,57.94,87.57,58Z"/><path class="cls-17" d="M84.15,56.63a.37.37,0,0,0,.39.25.15.15,0,0,0,.15-.07l-.07-.07-.07-.06h-.06l-.09-.06h-.05a.16.16,0,0,1-.09-.07h0a.07.07,0,0,0-.06,0A.36.36,0,0,0,84.15,56.63Z"/><path class="cls-17" d="M83.63,55.84l.2.08.08.06h0l.08.07h0s.06,0,.09,0v0l0,0,.06.08a1.53,1.53,0,0,1,.18.18h0a.88.88,0,0,1,.36.06h.07c.08,0,.13,0,.08-.12l-.15-.23-.14-.07v-.14s0,0,0,0v0a.15.15,0,0,0-.17-.07h0a.36.36,0,0,0-.31-.11C83.85,55.72,83.69,55.67,83.63,55.84Z"/><path class="cls-17" d="M75.13,42.9a.12.12,0,0,0,.09.09s.09,0,.09-.06a.09.09,0,0,0-.09-.11A.07.07,0,0,0,75.13,42.9Z"/><path class="cls-17" d="M79.14,48.36l0,0h0Z"/><path class="cls-17" d="M25,62.34c.07-.08.18,0,.26-.08a.28.28,0,0,0,.1-.09l0,0h0a.08.08,0,0,0,.08,0,.35.35,0,0,0,.12-.07c.11-.09.28-.12.31-.29h0l0,0c.13-.19.13-.19-.08-.21l-.07.07h0c-.17,0-.28.13-.42.22l-.08.06h0s0,0,0,0h-.06l0,0s0,0-.06,0h0a.13.13,0,0,1,0,.06h0c-.13,0-.19.09-.28.15a.46.46,0,0,1-.07.07.15.15,0,0,0,.15.07Z"/><path class="cls-17" d="M19.46,55.64h0l0,0s0,0-.05,0l0,0a.15.15,0,0,0,0-.17h0c-.07,0-.1-.16-.22-.14s0,.05,0,.07.07.24.21.28h0a.34.34,0,0,0,.08.27C19.6,55.82,19.49,55.73,19.46,55.64Z"/><path class="cls-17" d="M20.82,55.7a.42.42,0,0,1-.15-.12h-.06a.06.06,0,0,0-.09,0,.23.23,0,0,0,0,.14c0,.12.15.15.24.21h0l.07.06h0s0,.11.08.14h0c.08.08,0,.25.22.27s.12.12.13.21,0,.26.25.26c0-.13,0-.26,0-.39A7.68,7.68,0,0,0,20.82,55.7Z"/><path class="cls-17" d="M37.42,48.68l.06-.08a.13.13,0,0,0-.07-.14l-.28.22c-.08.17.07.12.15.14A.38.38,0,0,0,37.42,48.68Z"/><path class="cls-17" d="M38.65,43.52l-.09,0h0a.18.18,0,0,1,.07,0Z"/><path class="cls-17" d="M95.06,67.85l-.22-.13a2.14,2.14,0,0,0-.67,0,.12.12,0,0,0-.07.07.14.14,0,0,0,0,.09c.09.12.24.1.37.13s.18,0,.22.09S94.93,67.93,95.06,67.85Z"/><polygon class="cls-17" points="94.06 66.89 94.06 66.89 94.06 66.89 94.06 66.89"/><path class="cls-17" d="M94.15,66.91l-.09,0S94.1,67,94.15,66.91Z"/><path class="cls-17" d="M94.92,65.78c0-.06,0-.08-.06-.1a.09.09,0,0,0-.08,0l-.08.13C94.82,66,94.89,65.93,94.92,65.78Z"/><polygon class="cls-17" points="93.63 66.82 93.63 66.82 93.63 66.82 93.63 66.82"/><path class="cls-17" d="M93.49,66.61s0,0,0,.06,0,.06,0,.08a.23.23,0,0,0,.15.07h0c0,.1-.21,0-.27.16a.88.88,0,0,0,.48,0c0-.06.13-.06.15-.14-.16,0-.11-.2-.22-.26S93.58,66.61,93.49,66.61Z"/><path class="cls-17" d="M95,66.27l.08.07a0,0,0,0,0,.07,0h.07v-.14h-.07a.14.14,0,0,0-.15,0h0A.05.05,0,0,0,95,66.27Z"/><path class="cls-17" d="M95.65,65.52a.69.69,0,0,0-.4-.24s0,0,0,.08h0c.08.07,0,.21.13.25a.11.11,0,0,0,.08,0h.14S95.68,65.55,95.65,65.52Z"/><path class="cls-17" d="M91,62.06a2.18,2.18,0,0,0,.56.25s.06.06.09.09.26.08.21-.13,0-.22-.21-.21h0a.39.39,0,0,0-.1-.08c-.17-.08-.32-.22-.54-.16S90.88,62,91,62.06Z"/><path class="cls-17" d="M84.67,105.77l0,.06-.06.09a.36.36,0,0,0-.07.1,1.05,1.05,0,0,0,0,.19.11.11,0,0,0,0,.07c.11.09.14,0,.2-.07s0-.25.15-.35.12-.19-.07-.2l0,0S84.69,105.74,84.67,105.77Z"/><path class="cls-17" d="M86.19,101.46l.06,0s0-.12-.07-.1S86.15,101.42,86.19,101.46Z"/><path class="cls-17" d="M87.05,93.93a1.19,1.19,0,0,0-.08-.2h0l-.15-.14h-.06c-.08,0-.06.12-.06.2h0c.08,0,0,.13,0,.19a.13.13,0,0,0,.07.06l.08,0H87A.1.1,0,0,0,87.05,93.93Z"/><path class="cls-17" d="M21.65,72.19c-.08-.08-.16,0-.22.09l0,0h-.07c-.1.1-.22.18-.21.34a.44.44,0,0,0-.22.07l-.06,0s-.08.07,0,.11.08,0,.12,0H21l.06,0,.07,0,0-.06a.19.19,0,0,0,0-.08l0,0a.06.06,0,0,0,.08,0l0,0a1.08,1.08,0,0,1,.3-.26C21.61,72.35,21.76,72.31,21.65,72.19Z"/><path class="cls-17" d="M24.48,69.8l0,0a.2.2,0,0,0,0-.08.47.47,0,0,0,0-.17.11.11,0,0,0,0-.08s0,0,0,0,0,0-.05,0H24.4v.07a.23.23,0,0,0-.07.07.83.83,0,0,0-.08.12h0c-.29.18-.24.52-.49.77L24,70.4h0a.27.27,0,0,0,.08-.07,1.07,1.07,0,0,1,.29-.27.51.51,0,0,0,0-.21.14.14,0,0,0,0-.06A.09.09,0,0,0,24.48,69.8Z"/><path class="cls-17" d="M23.68,69.71l-.07.08-.07.06c0,.18.11.11.21.07S23.76,69.76,23.68,69.71Z"/><path class="cls-17" d="M82.68,93.45h-.06s-.06,0-.07-.06h0a.17.17,0,0,0-.08.15c.06.09.12.19.25.18S82.68,93.53,82.68,93.45Z"/><path class="cls-17" d="M65.93,63c.16.06.29,0,.37.13a.3.3,0,0,0,.16-.15.44.44,0,0,1,.07-.27c.09-.18.06-.27-.14-.4,0,.13-.06.26-.08.4S66.27,63,65.93,63Z"/><path class="cls-17" d="M72.33,61.86v-.67l-.16.11v.47c0,.17-.07.35.08.5A.26.26,0,0,0,72.33,61.86Z"/><path class="cls-17" d="M68.45,64.53a2.44,2.44,0,0,0,0-.27h0c-.09,0-.11,0-.14.08a.54.54,0,0,1-.07.27C68.35,64.67,68.43,64.65,68.45,64.53Z"/><path class="cls-17" d="M61.66,64.88c.06,0,.14,0,.12.09s.07.13.09.19a.81.81,0,0,0,.22,0c.07-.11,0-.2-.07-.28a.53.53,0,0,1-.15-.26C61.56,64.61,61.54,64.64,61.66,64.88Z"/><polygon class="cls-17" points="40.77 52.81 40.77 52.81 40.77 52.81 40.77 52.81"/><path class="cls-17" d="M40.4,52.41h0a.08.08,0,0,0,0,.13h0a.16.16,0,0,0,.07.07h0l.21.15s.11,0,.14.06l.09-.08s0,0,0-.06C40.76,52.48,40.55,52.49,40.4,52.41Z"/><path class="cls-17" d="M14.16,83.32l-.13.13a.07.07,0,0,0,0,0C14.24,83.5,14.25,83.49,14.16,83.32Z"/><path class="cls-17" d="M15.73,84.83l0,0c-.09-.12-.21,0-.31,0l-.07,0a.66.66,0,0,1,0,.14.34.34,0,0,0,.31.11C15.74,85,15.81,85,15.73,84.83Z"/><path class="cls-17" d="M10.38,98h-.06c-.06,0,0,.1-.08.13a.17.17,0,0,1,0,.07.17.17,0,0,0,.15.06h0s0-.11.07-.14A.14.14,0,0,0,10.38,98Z"/><path class="cls-17" d="M10.09,98.55a.13.13,0,0,0,.14.14c0-.07,0-.13,0-.2S10.11,98.46,10.09,98.55Z"/><path class="cls-17" d="M11.88,106.07l-.21-.55-.15.07s0,0,0,.06a.21.21,0,0,1-.06.08h-.06c0,.05,0,.11,0,.11s.17.05.12.17,0,.08,0,.12h.07a.41.41,0,0,0,.28.07A.14.14,0,0,0,11.88,106.07Z"/><path class="cls-17" d="M93,74.23a.07.07,0,0,0-.06-.07c-.06,0-.06,0,0,.09l0,.09h0A.12.12,0,0,0,93,74.23Z"/><path class="cls-17" d="M94.56,77h0c.1-.15,0-.23-.11-.31C94.37,76.81,94.53,76.86,94.56,77Z"/><path class="cls-17" d="M95.7,91.52h0l-.08-.06c-.06,0-.13-.12-.21,0s0,.15,0,.21.1.18.24.18S95.69,91.62,95.7,91.52Z"/><path class="cls-17" d="M83,91.71c.1,0,.11-.06.12-.13a.22.22,0,0,0-.21-.13s0,.09,0,.13S82.92,91.71,83,91.71Z"/><path class="cls-17" d="M21.41,89.36a.1.1,0,0,0,.07.11c.07,0,.1,0,.13-.09a.49.49,0,0,1,0-.21c.11-.24,0-.46,0-.7a.1.1,0,0,0-.13-.09c-.06,0-.06.06-.06.1s0,.23,0,.35A.69.69,0,0,1,21.41,89.36Z"/><path class="cls-17" d="M22.77,87.26a.18.18,0,0,0-.1-.11c-.11,0-.21-.14-.34,0h0a.1.1,0,0,0,0,.07.09.09,0,0,0,0,.07s.05.09.07.14h.08a.24.24,0,0,0,.2,0A.19.19,0,0,0,22.77,87.26Z"/><path class="cls-17" d="M69.88,48.19c0,.07-.13.14,0,.21s.13-.07.2-.08a.1.1,0,0,0,.08-.13c0-.07-.09-.07-.15-.06Z"/><path class="cls-17" d="M84.11,56.53c0-.13-.06-.19-.14-.27s0,.13-.06.2a.1.1,0,0,0,.07.07h0A.08.08,0,0,0,84.11,56.53Z"/><path class="cls-17" d="M24.64,68.23a.09.09,0,0,0-.07-.09c-.06,0-.09,0-.09.07a.08.08,0,0,0,.06.1A.1.1,0,0,0,24.64,68.23Z"/><path class="cls-17" d="M27.88,66.13c.07.08.12,0,.18,0l.05,0c0-.15-.12-.11-.19-.07A.11.11,0,0,0,27.88,66.13Z"/><polygon class="cls-17" points="28.11 66.05 28.11 66.05 28.11 66.06 28.11 66.05"/><path class="cls-17" d="M28.19,65.8c0,.23.18.07.28,0h.07c.12.07.16-.06.24-.08a.44.44,0,0,0,.15-.12.1.1,0,0,0,0-.13.2.2,0,0,1-.15-.07.53.53,0,0,0-.43.27h0A.19.19,0,0,1,28.19,65.8Z"/><path class="cls-17" d="M27.68,66.38c-.05,0,0,.08,0,.11l.07-.08S27.72,66.35,27.68,66.38Z"/><path class="cls-17" d="M26.89,59.88s0-.07-.06-.07-.1,0-.12.09,0,.07.06.07S26.88,60,26.89,59.88Z"/><path class="cls-17" d="M26.61,58c-.1,0,0-.19-.18-.22s0,.27-.1.36,0,.22,0,.32,0-.12.11-.15,0,.23.2.18A1.35,1.35,0,0,1,26.61,58Z"/><path class="cls-17" d="M37.27,49.63V49.5h-.14C37,49.68,37.18,49.63,37.27,49.63Z"/><path class="cls-17" d="M91,66.48h0c-.09.17-.33.09-.46.27h.38c.11,0,.19-.08.3,0s.06,0,.07-.09l-.07-.06C91.14,66.47,91,66.54,91,66.48Z"/><path class="cls-17" d="M92.7,63.43c0,.19,0,.22.21.28,0,0,.14,0,.08-.09s-.07-.17.09-.16,0-.05,0-.08l-.07-.08C92.92,63.32,92.73,63.18,92.7,63.43Z"/><path class="cls-17" d="M92.41,63h0l0,0v0c.1.15.2.19.31,0s.07-.06.11-.09,0-.15-.13-.1S92.5,63,92.41,63Z"/><path class="cls-17" d="M88.2,59.36h0c.1,0,.18.13.33.1C88.42,59.35,88.35,59.21,88.2,59.36Z"/><path class="cls-17" d="M84.92,105.46c0,.05,0,.1.08.09s0-.07,0-.11l0-.06h0S84.93,105.43,84.92,105.46Z"/><path class="cls-17" d="M18.37,77.3l.1.14a.27.27,0,0,0,.28.17c.05,0,.1,0,.14,0h0A.42.42,0,0,0,18.37,77.3Z"/><path class="cls-17" d="M19.46,77.3c.22-.06,0-.13,0-.2s-.21,0-.2.11S19.39,77.32,19.46,77.3Z"/><path class="cls-17" d="M20.53,77.17a.14.14,0,0,1,0,.06l.13.07s.1,0,.14.1a.11.11,0,0,0,.08,0,.15.15,0,0,0,.11-.2.18.18,0,0,0-.05-.07.67.67,0,0,0-.15-.06h0l-.07,0h0C20.58,77,20.46,77,20.53,77.17Z"/><path class="cls-17" d="M77.83,74.91a.2.2,0,0,0,0,.08s0,.07.06.11l.05.06h0a.51.51,0,0,1,.06.36c0,.14,0,.22.17.24h.06a.11.11,0,0,0,.06.09h0V76l.06,0h0c0,.1,0,.23.12.28a.39.39,0,0,0,0-.51h0l0,0c0-.11,0-.22-.06-.31a.61.61,0,0,1-.12-.15h0s0,0-.06-.07S78.08,75,78,74.9,77.89,74.86,77.83,74.91Z"/><path class="cls-17" d="M86,95.94l-.15.13s-.19.09,0,.15a.36.36,0,0,0,.29,0h0c.07-.12.14,0,.21,0l0,0v-.06s0,0,0-.05a.91.91,0,0,0,0-.33h-.05l-.3.13Z"/><path class="cls-17" d="M63.91,71.41c0-.09-.09-.1-.17-.11s-.21,0-.22.16a.09.09,0,0,0,.11.11A.36.36,0,0,0,63.91,71.41Z"/><path class="cls-17" d="M70.12,84.8c-.11.06-.07.19-.17.23l-.06.07-.09.06a.14.14,0,0,0,0,.09.19.19,0,0,0,.1.1H70c.18,0,.09-.19.18-.26h0C70.16,85,70.21,84.89,70.12,84.8Z"/><path class="cls-17" d="M61.8,72.61c-.08-.18-.09-.18-.35-.06,0,.13.14.17.17.31C61.67,72.73,61.7,72.65,61.8,72.61Z"/><path class="cls-17" d="M66.61,78.26c0,.08,0,.17-.08.22v.27h0c0,.08,0,.17.06.21s.17.1.28.07c0-.2-.05-.41.14-.57-.14-.07-.22.09-.32,0S66.7,78.32,66.61,78.26Z"/><path class="cls-17" d="M67.06,78.05c-.07.22.09.41,0,.63.14,0,.13-.11.14-.2s-.06-.29.06-.42,0-.25-.17-.23S67.08,78,67.06,78.05Z"/><path class="cls-17" d="M73,76.71a.08.08,0,0,0,.1.07c.1,0,.12-.1.12-.18s0,0-.08-.06S73,76.61,73,76.71Z"/><path class="cls-17" d="M83.41,91.17l.07.07c.1-.17.09-.21-.08-.28h0s-.05.05-.06.08v.06Z"/><path class="cls-17" d="M72.68,71.85a.84.84,0,0,1,.07.35c0,.11.09.23.25.15s.11-.18,0-.29A.17.17,0,0,1,73,72s0-.1-.07-.14l0,0s0,0,0,0a.55.55,0,0,0,0-.18s0-.11,0-.15h0c-.08-.06-.18,0-.27,0s-.15.07-.14.17S72.57,71.81,72.68,71.85Z"/><path class="cls-17" d="M72.1,84.27c-.11,0-.13.07-.14.16s0,.19-.08.25a2.44,2.44,0,0,0-.2.7l0,.12h0l0,0a.43.43,0,0,0-.07.35c0,.1,0,.19.19.12l.08-.07a.93.93,0,0,1,.09-.4l0,0H72a.16.16,0,0,0,0-.14h0a1.62,1.62,0,0,1,0-.49A2,2,0,0,0,72.1,84.27Z"/><path class="cls-17" d="M66.46,80.28a.21.21,0,0,1-.07.13c0,.14,0,.14.18,0l0,0a.19.19,0,0,0,0,.12c.11.05.16.18.28.21a.07.07,0,0,0,.07,0c0-.11.1-.22,0-.33s-.13-.31-.35-.21C66.49,80.13,66.52,80.27,66.46,80.28Z"/><path class="cls-17" d="M71.41,86.88c-.22.07-.17.28-.23.43a.29.29,0,0,0,.06.27.35.35,0,0,0,.21-.07,2.26,2.26,0,0,0,0-.26C71.49,87.12,71.55,87,71.41,86.88Z"/><path class="cls-17" d="M67,84.54v-.12l-.14.06a.57.57,0,0,1,0,.13c0,.13,0,.28.16.35h0A.56.56,0,0,0,67,84.54Z"/><path class="cls-17" d="M69.38,82h0c.05,0,.11.17.14,0s0-.16,0-.16S69.39,81.93,69.38,82Z"/><path class="cls-17" d="M65.56,67.68c.07.06.13,0,.18,0h0c-.06,0-.07-.13-.16-.07S65.52,67.65,65.56,67.68Z"/><path class="cls-17" d="M66.31,63.23s0,.1,0,.06S66.34,63.24,66.31,63.23Z"/><path class="cls-17" d="M70.24,54.1c.05,0,.1,0,.14-.05s.11-.13.05-.22-.08,0-.12,0l-.06.12S70.18,54.06,70.24,54.1Z"/><path class="cls-17" d="M66.38,51.85a.29.29,0,0,0,0-.09l0,0,0,.07Z"/><path class="cls-17" d="M38.84,61.23a.1.1,0,0,0,.07,0H39l.07,0a.21.21,0,0,0,.1-.06l.07-.06c0-.08,0-.14-.07-.14l-.06,0a.62.62,0,0,1-.29.12Z"/><path class="cls-17" d="M43.14,59.44l-.16.05h-.13c-.1.11-.27,0-.37.13a.16.16,0,0,1-.06.08h0c0,.06.09.07.15.08a3.53,3.53,0,0,1,.64-.16C43.24,59.55,43.33,59.45,43.14,59.44Z"/><path class="cls-17" d="M11,97.17a.12.12,0,0,0-.14-.06l-.07.07C10.89,97.39,11,97.16,11,97.17Z"/><polygon class="cls-17" points="92.63 72.33 92.63 72.33 92.63 72.34 92.63 72.33"/><path class="cls-17" d="M92.46,72.1A3.26,3.26,0,0,0,92,72a.19.19,0,0,0-.16.06c0,.11,0,.19.14.2a.29.29,0,0,1,.22,0l.06,0h.36C92.72,72.16,92.56,72.14,92.46,72.1Z"/><path class="cls-17" d="M92.83,73.19s0,0,0,0,.06.08.12.09h0C92.91,73.25,92.91,73.19,92.83,73.19Z"/><path class="cls-17" d="M91.56,72l-.38,0c.11.19.37.07.45.26.1,0,.15,0,.09-.14l-.1-.13Z"/><path class="cls-17" d="M90.75,72c0,.08.06.14.16.17s0,0,.07.06c.24-.07,0-.14,0-.21S90.81,71.86,90.75,72Z"/><path class="cls-17" d="M92.94,71.89c.12.21,0,.33-.16.44h0s.11,0,.15.07a.23.23,0,0,1,.15.07h.05a.11.11,0,0,1,.15,0h0a.24.24,0,0,0,.09,0,.17.17,0,0,0,.1,0,.15.15,0,0,0,.1.11h0a10,10,0,0,0,1.25.11c-.08-.12-.2-.08-.26-.17l-.21-.08a1.93,1.93,0,0,0-.42-.06h-.28s0,0,0-.06a.65.65,0,0,0-.43-.13c-.1-.15,0-.37-.2-.5A.13.13,0,0,0,92.94,71.89Z"/><path class="cls-17" d="M92.64,79.07c0,.05,0,.08.08.07a.13.13,0,0,0,0-.09.06.06,0,0,0-.05-.06C92.65,79,92.64,79,92.64,79.07Z"/><path class="cls-17" d="M16.54,86a.17.17,0,0,1-.15-.07L16.1,86h0a.08.08,0,0,0,0,.13c.1,0,.21,0,.28.07a.4.4,0,0,0,.28-.07A.12.12,0,0,0,16.54,86Z"/><path class="cls-17" d="M78.76,55h0a2,2,0,0,0-.06.23s0,.08.09.1.08,0,.09,0,.25-.33.09-.57C78.87,54.84,78.88,55,78.76,55Z"/><path class="cls-17" d="M85.34,58.53l.07.07a.23.23,0,0,0,.28-.13h0a.23.23,0,0,1-.07-.07h0C85.36,58.34,85.36,58.34,85.34,58.53Z"/><path class="cls-17" d="M85.62,60.54h0s-.05,0-.08-.06h-.13l0,0a0,0,0,0,1,0,0l-.08-.06c-.05-.06-.12,0-.19,0s-.17,0-.24,0h0a.06.06,0,0,0-.08,0h0a.24.24,0,0,1-.23,0h-.35c-.09,0-.14-.15-.24,0a0,0,0,0,0,0,.06c.06.11.17,0,.26.06v.07a.36.36,0,0,0,.12.08.67.67,0,0,1,.18.07,3,3,0,0,0,1,.19C85.51,60.73,85.63,60.72,85.62,60.54Z"/><path class="cls-17" d="M81.19,58.75l.07-.07v-.17c0-.21-.08-.07-.15,0a.13.13,0,0,1,0,.06C81.09,58.62,81,58.73,81.19,58.75Z"/><path class="cls-17" d="M82,58.6h.14v-.14C82,58.46,82,58.51,82,58.6Z"/><path class="cls-17" d="M83.4,60.12a.1.1,0,0,0-.06,0L83.19,60a1.34,1.34,0,0,0-.27-.13l-.12,0-.07,0-.12,0h-.08a.34.34,0,0,1-.2,0,.24.24,0,0,0-.12,0s-.07,0-.1,0l-.09,0c-.18,0-.16.11-.07.22a.28.28,0,0,0,.17.09c.1,0,.19-.06.28,0a2.32,2.32,0,0,1,.38.07,1.37,1.37,0,0,0,.48.13c0,.05.11,0,.14.08h0C83.56,60.27,83.48,60.2,83.4,60.12Z"/><path class="cls-17" d="M83.33,59.92h0c.11.06.26,0,.36.14h0c.08,0,.14,0,.14-.13a.5.5,0,0,0-.49-.14S83.29,59.87,83.33,59.92Z"/><path class="cls-17" d="M79.41,57.22c.06,0,.13.09.16,0s.11-.23-.09-.25l-.06.08Z"/><path class="cls-17" d="M87.47,59.1c.17-.13-.08-.2,0-.31s-.09-.1-.16-.12c-.24,0-.24,0-.2.14l.07.06C87.24,59,87.27,59.15,87.47,59.1Z"/><path class="cls-17" d="M86.62,58.2c-.11,0-.15,0-.14.13l.07.06C86.76,58.39,86.65,58.28,86.62,58.2Z"/><path class="cls-17" d="M72.53,51.64a.13.13,0,0,1,.14-.07.38.38,0,0,1,.13-.24s.1-.09,0-.14a.13.13,0,0,0-.19,0c-.09.17-.31.24-.41.41,0,0,0,0,0,0s-.17,0-.1.15.12,0,.18,0S72.44,51.7,72.53,51.64Z"/><path class="cls-17" d="M72.75,50.81h0a0,0,0,0,0,0,.06h0l.07.06a.06.06,0,0,0,.06,0l.09-.13s0,0,0-.06S72.8,50.74,72.75,50.81Z"/><path class="cls-17" d="M71.68,49.72c0,.06,0,.15.06.17s.13-.06.14-.13,0-.21-.13-.12Z"/><path class="cls-17" d="M28.91,62c.08,0,.06-.12,0-.18a1.51,1.51,0,0,0-.11-.22s0,0-.08-.06-.18.09-.06.33c0,0,0,0,0,.05S28.83,62.08,28.91,62Z"/><path class="cls-17" d="M27.48,67.68c.05.17.24,0,.37,0H28a.41.41,0,0,0,.3-.1c.1-.19.31-.29.43-.48h.07c0-.1,0-.2-.07-.27,0-.23,0-.24-.22-.15s-.25.27-.43.35l-.21.34C27.67,67.43,27.43,67.49,27.48,67.68Z"/><path class="cls-17" d="M27.4,61.78l-.07-.07h0a.1.1,0,0,0-.14,0,.33.33,0,0,0,.07.27C27.42,62,27.41,61.88,27.4,61.78Z"/><path class="cls-17" d="M27.55,59.44s.07-.1,0-.15-.11,0-.16,0l-.08.07a.15.15,0,0,0,.15.15Z"/><path class="cls-17" d="M27,61s0,0-.05,0,0,.13.11.14l0-.06C27,61.05,27.05,61,27,61Z"/><path class="cls-17" d="M93.25,71.88l.38.19c.08,0,.17,0,.24,0a.33.33,0,0,0-.17-.18C93.56,72,93.41,71.8,93.25,71.88Z"/><path class="cls-17" d="M93.06,67.79h-.14a.57.57,0,0,1,0,.13H93c.12,0,.26,0,.36-.08h0C93.26,67.78,93.14,67.86,93.06,67.79Z"/><path class="cls-17" d="M90.42,66.88c-.23-.08-.43.08-.64.07a.18.18,0,0,0-.14,0,.09.09,0,0,0-.06.06.14.14,0,0,0,0,.17c.07.06.14.18.21,0s.44,0,.65-.06h0Z"/><path class="cls-17" d="M87.69,62.34c0-.05-.1,0-.14-.08h0l-.07-.06h0a.06.06,0,0,0-.09,0,.12.12,0,0,0,0,.08,1.75,1.75,0,0,0,.08.51.22.22,0,0,0,0,.08s.09,0,.14,0c0-.18-.05-.37.07-.54Z"/><path class="cls-17" d="M91.48,63c-.07,0-.15,0-.2.06s.06.15.17.16S91.47,63.1,91.48,63Z"/><path class="cls-17" d="M92.08,63.26l-.09,0h0S92,63.32,92.08,63.26Z"/><path class="cls-17" d="M21.51,75s-.06,0-.11,0l-.07.12h.06C21.44,75.09,21.51,75.1,21.51,75Z"/><path class="cls-17" d="M76.29,72a.22.22,0,0,0,.36.1l-.12-.17c-.07,0,0-.12-.08-.17a.2.2,0,0,0-.34-.05C76.17,71.81,76.24,71.9,76.29,72Z"/><path class="cls-17" d="M79.36,98.32l-.16,0a.28.28,0,0,0-.16.19c0,.07.09.07.16.08s.32,0,.47-.09C79.8,98.17,79.49,98.36,79.36,98.32Z"/><path class="cls-17" d="M80,96.89a1.07,1.07,0,0,1-.15.22c0,.06,0,0,.08.06s0,0,0,0,0,0,0,0h0c.07-.06.16,0,.22-.07h0c.18,0,.28-.13.08-.27h-.14S80,96.85,80,96.89Z"/><path class="cls-17" d="M83,97.31c-.17.11-.45,0-.57.21h0a.2.2,0,0,0-.08.08h-.06v0l-.15.07-.19,0h-.16s-.06,0-.08,0l-.1,0a.44.44,0,0,1-.16,0,.09.09,0,0,0-.07,0c0,.11,0,.19.14.2a6.28,6.28,0,0,1,.86-.19c.16,0,.26-.17.42-.09a.16.16,0,0,0,.21-.07c.13,0,.2-.13.29-.2l0-.07c0-.06-.09-.15-.19-.14s-.11,0-.15.07Z"/><path class="cls-17" d="M85.44,95.64c0,.08.06.07.11.09h0c0-.06,0-.12-.09-.12S85.44,95.63,85.44,95.64Z"/><path class="cls-17" d="M70.89,89.45v.34H71a.31.31,0,0,0,.07-.2C71,89.57,71,89.45,70.89,89.45Z"/><path class="cls-17" d="M65.38,81.16a.42.42,0,0,1-.21.08c0,.05-.11.09-.15.14s-.1.12,0,.17.11,0,.17,0,.27-.11.29-.28Z"/><path class="cls-17" d="M65.45,79.92s0,0,0,.07h.2c0-.15,0-.2-.19-.12A.13.13,0,0,0,65.45,79.92Z"/><path class="cls-17" d="M66.88,74.75v-.13c0-.07,0-.16-.12-.05S66.75,74.75,66.88,74.75Z"/><path class="cls-17" d="M71.1,86.27a.32.32,0,0,1-.14.14c0,.15.11.14.21.13a.11.11,0,0,0,.07-.06l.08-.14A.14.14,0,0,0,71.1,86.27Z"/><path class="cls-17" d="M67.45,75.13s0-.11,0-.16-.18-.12-.2.06v.2C67.36,75.3,67.43,75.26,67.45,75.13Z"/><path class="cls-17" d="M67.45,74.75h.06l0-.13s0-.1-.07-.14h0c-.16-.08-.23,0-.3.14l-.06.15c0,.12,0,.13.14.07S67.4,74.84,67.45,74.75Z"/><path class="cls-17" d="M71.39,86.34a.19.19,0,0,0,.21.13c0-.11.05-.23-.06-.32A.23.23,0,0,1,71.39,86.34Z"/><path class="cls-17" d="M72.81,61.44h0c.07,0,.16.12.19,0s0-.11-.13-.11S72.8,61.38,72.81,61.44Z"/><path class="cls-17" d="M73.18,53.43h0c-.06.06,0,.15-.06.21h0a2.62,2.62,0,0,0,0,.28V54a.44.44,0,0,0,0,.34h0a.11.11,0,0,0-.09,0c-.07.15-.14.29,0,.45a2.46,2.46,0,0,0-.1.41c0,.21,0,.43-.09.63a2,2,0,0,0-.09.76h.08l0,0s0,0,.07-.06l0-.09a1.69,1.69,0,0,1,.07-.38,6.27,6.27,0,0,0,.18-1.37c0-.1,0-.21,0-.31a.09.09,0,0,0,0-.05h.06c0-.16.1-.3.08-.47s0-.15.06-.21a1.34,1.34,0,0,0,0-.2.14.14,0,0,0-.08-.15h0S73.22,53.39,73.18,53.43Z"/><path class="cls-17" d="M71.31,52.84s0,0,0-.05,0,0,0,0,0,0,0,0S71.29,52.86,71.31,52.84Z"/><path class="cls-17" d="M32.14,63.81l.12-.05.07,0c.1,0,.1-.14.14-.22a4.31,4.31,0,0,1,.51-.62s.05,0,.06-.07h0c0-.05-.07-.06-.12-.06h0l-.09,0-.14.08c-.08,0-.17.06-.21.15s-.21.23-.29.36a.71.71,0,0,1-.1.14l0,0-.06.06-.07,0-.09.08a.11.11,0,0,0,0,.08.13.13,0,0,0,.07.09H32l.11,0Z"/><path class="cls-17" d="M34.06,63.58a.15.15,0,0,0-.14-.07.17.17,0,0,1-.15.06c-.2,0-.26.13-.33.24s0,.1.11.11a.62.62,0,0,1,.43-.14A.16.16,0,0,0,34.06,63.58Z"/><path class="cls-17" d="M21,92.41v-.07a2.44,2.44,0,0,0,0-.27l0,0,0,0h.06s0,0,0-.07a.68.68,0,0,1-.07-.27h-.14v.55h-.06c0,.25,0,.28.2.27Z"/><path class="cls-17" d="M21,95.32a2.26,2.26,0,0,1,.63-.17.18.18,0,0,0,.07-.05c-.05-.15.11,0,.13-.11a.13.13,0,0,0,.06-.07c0-.17-.09-.17-.22-.1a.63.63,0,0,0-.24.13A.34.34,0,0,1,21,95v0a.21.21,0,0,0-.07-.13h0c.28-.06.12-.28.16-.43a8.83,8.83,0,0,1,0-.89,1,1,0,0,0,0-.24v0c0-.12-.15-.21-.06-.35s0,0,0-.06a.17.17,0,0,1-.07-.14c-.06,0-.1,0-.09.1s.07.27,0,.39a1.73,1.73,0,0,1-.12.9.23.23,0,0,0,0,.2.77.77,0,0,1,0,.34c0,.07,0,.14,0,.21s.05.22,0,.34a.31.31,0,0,0-.06.13.71.71,0,0,0,0,.14.13.13,0,0,0,.1.09.09.09,0,0,0,.08,0A.76.76,0,0,0,21,95.32Zm-.09-.67h0Z"/><path class="cls-17" d="M22.54,86h0s.05,0,.06-.08v-.13a.13.13,0,0,0-.21,0c-.06.08.05.11.09.15S22.52,86,22.54,86Z"/><path class="cls-17" d="M23.1,87.36a.25.25,0,0,1,.15-.06v-.11a.17.17,0,0,0-.18,0l0,0C23,87.24,23,87.32,23.1,87.36Z"/><path class="cls-17" d="M74.25,51.65v.13C74.32,51.74,74.33,51.69,74.25,51.65Z"/><polygon class="cls-17" points="72.1 52.19 72.1 52.19 72.1 52.19 72.1 52.19"/><path class="cls-17" d="M71.67,52.08a.19.19,0,0,0,0,.25c.06.06.16,0,.23,0a.27.27,0,0,0,.17-.11,1.08,1.08,0,0,1-.3-.46A2.84,2.84,0,0,1,71.67,52.08Z"/><path class="cls-17" d="M25,69.13c-.11,0-.12.08-.19.09h0s-.07.13,0,.11A.18.18,0,0,0,25,69.13Z"/><path class="cls-17" d="M29.12,65h0c.07.12.15,0,.22,0V65s0,0-.07,0h-.07Z"/><path class="cls-17" d="M26.32,68.61h0c-.05-.07-.13-.11-.17,0s.06.07.11.08h0Z"/><path class="cls-17" d="M32,69.37s0,.1.06.13c.3-.13.5-.41.79-.55,0-.09.23-.18,0-.27h-.06A4.71,4.71,0,0,0,32,69.37Z"/><path class="cls-17" d="M33.26,68.32l-.07,0-.06.07h0l-.07.06h0l-.07.07.08.08c.1,0,.22,0,.21-.15A.76.76,0,0,1,33.26,68.32Z"/><polygon class="cls-17" points="32.98 68.54 32.98 68.54 32.98 68.54 32.98 68.54"/><path class="cls-17" d="M30.23,65.55a.15.15,0,0,0,0,.07v0c.06.08.12,0,.17,0s0-.1.1-.13h0s.11,0,.14-.07h0a.27.27,0,0,0,.08-.07c.12-.09.13-.27.29-.33a.13.13,0,0,1,.13-.08.27.27,0,0,0,.08-.07h0c0-.07.06-.16.11-.23s0-.17-.17-.1-.19.28-.36.34a.56.56,0,0,0-.3.17.16.16,0,0,0,0,.08.5.5,0,0,1-.09.21l-.05.07-.05.1Z"/><path class="cls-17" d="M29.76,66c0-.1.23-.18.07-.33h0l-.1.06-.11.08h0c-.06.1-.09.18.07.21Z"/><path class="cls-17" d="M29.91,58.6l-.15,0-.07.06c-.05.07-.13.06-.2.08a.29.29,0,0,0,.41.05C29.9,58.74,29.91,58.67,29.91,58.6Z"/><path class="cls-17" d="M92.12,71.73c-.1,0-.21,0-.13.12C92.08,71.85,92.13,71.82,92.12,71.73Z"/><path class="cls-17" d="M87.62,61.65s0,0,0,.05l.56.09c.17,0,.13-.12.07-.22h-.21C87.91,61.6,87.74,61.51,87.62,61.65Z"/><path class="cls-17" d="M80.29,102.94c-.06.1,0,.19.11.23s.13-.19.2-.29v0s-.06-.1-.08-.1S80.34,102.85,80.29,102.94Z"/><path class="cls-17" d="M84.42,101.23s0-.07,0-.11h0a.46.46,0,0,1-.07.07A.07.07,0,0,0,84.42,101.23Z"/><path class="cls-17" d="M22.75,75.86l-.17,0s-.12,0-.15,0,0,.1.05.15.2,0,.28-.07A.13.13,0,0,1,22.75,75.86Z"/><path class="cls-17" d="M25.41,74c-.13,0-.24.08-.15.24s.17,0,.2,0,.29.08.44,0C25.82,74,25.59,74,25.41,74Z"/><path class="cls-17" d="M27.06,74c.06.1.15,0,.22,0a1.27,1.27,0,0,0,.35-.27c.23-.22.31-.56.55-.77,0-.11.09-.2,0-.35l-.36.43a.34.34,0,0,1-.11.18,2.41,2.41,0,0,0-.4.44h0l-.07.06a.25.25,0,0,1-.12.13C27.08,73.87,27,73.93,27.06,74Z"/><path class="cls-17" d="M77.46,94.7c-.08,0-.06.13-.07.2C77.59,94.88,77.51,94.79,77.46,94.7Z"/><path class="cls-17" d="M77.75,98.35a1,1,0,0,0-.5.13c0,.08.13.07.21.07S77.81,98.62,77.75,98.35Z"/><path class="cls-17" d="M78.41,98.15a.59.59,0,0,0,0,.13c0,.24,0,.24.25.13,0,0,0,0,.07-.06l0,0s0,0,0,0h.06a.61.61,0,0,1,.22-.2h.06c0-.06.07-.12-.06-.13S78.63,98.14,78.41,98.15Z"/><path class="cls-17" d="M78.18,98.2l-.14,0-.07,0v.06h.24c.05,0,.09,0,.08-.07S78.22,98.22,78.18,98.2Z"/><path class="cls-17" d="M77.1,97.7a.09.09,0,0,0,.11-.07c0-.07,0-.09-.11-.11a.08.08,0,0,0-.1.06A.11.11,0,0,0,77.1,97.7Z"/><path class="cls-17" d="M81.1,101.4c-.16,0-.26,0-.26.18a.31.31,0,0,0,.19,0l.07-.06Z"/><path class="cls-17" d="M65.59,81.93v-.34c-.07,0-.13-.08-.18,0a.4.4,0,0,0,.11.47h0a.08.08,0,0,0,0-.11s0,0,0,0l0,0Zm-.08,0h0Z"/><path class="cls-17" d="M76.75,65.47s0,.07,0,.07.1-.05.1-.11,0-.09,0-.08S76.76,65.4,76.75,65.47Z"/><path class="cls-17" d="M66.16,88a.3.3,0,0,0,0-.1.2.2,0,0,0,0-.15,1.14,1.14,0,0,0-.23-.15.12.12,0,0,0-.1,0,.28.28,0,0,0-.06.18,1.93,1.93,0,0,0,0,.34,1.14,1.14,0,0,1,0,.55l0,.13V89a.2.2,0,0,0,.06.07h0c.06,0,.11,0,.09.11a.77.77,0,0,0,0,.37c0,.12.11.12.21.08s0,0,.06-.08h0c0-.07,0-.1-.06-.14s0,0,0-.06A2.48,2.48,0,0,1,66.16,88Z"/><path class="cls-17" d="M69.06,92.2h.1v-.06l-.06,0s-.09,0-.11,0S69,92.2,69.06,92.2Z"/><path class="cls-17" d="M68.91,92.49s0,0,0,0h0c0-.07,0-.15-.06-.19v.19h0Z"/><path class="cls-17" d="M68.89,91.44c.11,0,.2,0,.21-.13s-.14,0-.22,0Z"/><path class="cls-17" d="M66,83.71c.09,0,0,.25.2.15v-.14C66.17,83.71,66.1,83.6,66,83.71Z"/><path class="cls-17" d="M61,75.38c0,.08,0,.11.11.11a.53.53,0,0,0,.08-.25A.15.15,0,0,0,61,75.38Z"/><path class="cls-17" d="M46.5,68.33a.31.31,0,0,0,.29.06.18.18,0,0,0,.09-.06.1.1,0,0,0,0-.13h0a4.85,4.85,0,0,1-.49-.29h0a.16.16,0,0,1-.08-.06.46.46,0,0,0-.07-.07.23.23,0,0,1-.07-.07h0c-.13.06-.13.15,0,.24s.16.09.19.18h0l.08.06.07.07a.23.23,0,0,0,.07.07Z"/><path class="cls-17" d="M54.37,67.31v0l.08,0C54.45,67.28,54.4,67.31,54.37,67.31Z"/><path class="cls-17" d="M31.46,64.47s0,0,0-.07,0-.1.07-.13h0a.24.24,0,0,0-.22-.15l-.21.07a.23.23,0,0,1-.07.07h0a.13.13,0,0,0,.14.07s0,0,0,0,0,0,.05,0,.06,0,.07,0A.13.13,0,0,0,31.46,64.47Z"/><path class="cls-17" d="M90,71.3a.09.09,0,0,0-.15,0,.07.07,0,0,0,0,.11h0s.09.07.14,0V71.3Z"/><path class="cls-17" d="M81.9,71.85h0c.06-.07.16,0,.22-.06v-.08h-.36A.22.22,0,0,0,81.9,71.85Z"/><path class="cls-17" d="M22.64,83.94c0-.07-.09-.14-.19-.12s-.05.11-.06.17v.18l.12-.08C22.57,84.05,22.7,84.06,22.64,83.94Z"/><path class="cls-17" d="M79.26,59.3a.3.3,0,0,0,0,.1c0,.06-.06.14,0,.17a.15.15,0,0,0,.18-.08s0-.08,0-.13A.26.26,0,0,0,79.26,59.3Z"/><polygon class="cls-17" points="27.97 73.51 27.97 73.51 27.97 73.51 27.97 73.51"/><path class="cls-17" d="M28,73.54l0,0S27.93,73.53,28,73.54Z"/><path class="cls-17" d="M32,58.12c0-.09,0-.13-.13-.13a.23.23,0,0,0-.07.07C31.82,58.14,31.9,58.13,32,58.12Z"/><path class="cls-17" d="M88.82,67.07h0s0,0,0,0h0S88.82,67.06,88.82,67.07Z"/><path class="cls-17" d="M89.42,67l0,0,0,0Z"/><path class="cls-17" d="M89.88,70.6s-.06,0-.11,0v.12C89.83,70.67,89.9,70.67,89.88,70.6Z"/><path class="cls-17" d="M81.07,104.3c.06.07.12,0,.18,0v0c-.06,0-.11-.1-.18,0A.07.07,0,0,0,81.07,104.3Z"/><path class="cls-17" d="M78,104.21c0,.07,0,.2.11.14s.24,0,.24-.2h0a.23.23,0,0,0-.07-.07.16.16,0,0,0-.07,0l-.08.06Z"/><path class="cls-17" d="M23.68,74.61c-.05,0-.07-.11-.12-.09s0,.11,0,.15l.11.08h0A.65.65,0,0,0,23.68,74.61Z"/><path class="cls-17" d="M72.75,98.69s-.12.07-.09.12.1,0,.16,0a.57.57,0,0,1,0-.13Z"/><path class="cls-17" d="M76.75,99.1a.3.3,0,0,0,.29,0c0-.06.07-.14-.06-.15S76.76,99,76.75,99.1Z"/><path class="cls-17" d="M77.88,98.57c-.15,0-.27.08-.41.05s0,.14.07.2.23-.14.35-.2A.43.43,0,0,0,77.88,98.57Z"/><path class="cls-17" d="M73.89,99.1c0,.05-.11,0-.15.07h-.13l-.36.21c-.14,0-.25,0-.22.19s.18.13.3.07a1.51,1.51,0,0,1,.31-.16c.14-.07.37,0,.39-.25,0-.09,0-.13-.14-.14Z"/><path class="cls-17" d="M79.62,103.37h0s.09-.08.06-.14,0,0-.08,0S79.58,103.32,79.62,103.37Z"/><path class="cls-17" d="M74.51,105a.26.26,0,0,0-.27,0,4.5,4.5,0,0,0-1.16.07.33.33,0,0,1-.34-.07c-.13,0-.08.11-.15.13a.6.6,0,0,1-.35.08c-.26,0-.51.09-.77.07,0,.25.19.19.33.2s.38.08.5-.12l.06,0a9.54,9.54,0,0,0,1.51-.06,1.17,1.17,0,0,0,.6-.16S74.58,105,74.51,105Z"/><path class="cls-17" d="M76,100s0-.05,0-.08l-.28.07c0,.17.12.09.18.11A.1.1,0,0,0,76,100Z"/><path class="cls-17" d="M62.45,83.51s0,.12.09.11a0,0,0,0,0,0,0C62.57,83.52,62.5,83.52,62.45,83.51Z"/><path class="cls-17" d="M78.32,71.1s0,0,0,.05c.2,0,.21,0,.15-.13S78.35,71,78.32,71.1Z"/><path class="cls-17" d="M65.76,86.63s0,.07.06.07.06,0,.05,0,0-.07-.05-.07S65.76,86.59,65.76,86.63Z"/><path class="cls-17" d="M59.85,78.84h-.11c-.08.08-.1.21-.23.26-.18.26-.16.32.14.34,0-.06,0-.15,0-.16C59.94,79.19,59.87,79,59.85,78.84Z"/><path class="cls-17" d="M60.93,77.93l-.06-.07c-.08,0-.18,0-.18.08s0,.19.16.18S60.94,78,60.93,77.93Z"/><path class="cls-17" d="M56.07,74,56,73.85c-.1,0-.15,0-.14.14Z"/><path class="cls-17" d="M48.5,69.23c0,.1,0,.16.1.14s.49-.19.72,0l0-.09c-.13-.06,0-.21-.08-.27a.57.57,0,0,1-.35-.14c0,.11-.09.23-.26.2S48.51,69.13,48.5,69.23Z"/><path class="cls-17" d="M87.41,70.06h.06c.09-.1,0-.14-.07-.19h0C87.23,69.93,87.29,70,87.41,70.06Z"/><path class="cls-17" d="M82.4,71.24h-.07c-.07.08,0,.19-.06.27l.07.07h.13l.07-.07C82.7,71.31,82.47,71.32,82.4,71.24Z"/><path class="cls-17" d="M83.2,69.56s.1,0,.08-.09-.1,0-.15,0a0,0,0,0,0,0,0Z"/><path class="cls-17" d="M24.61,87.06s0,0-.05,0,0,0,0,0a0,0,0,0,0,.06,0S24.65,87.06,24.61,87.06Z"/><path class="cls-17" d="M37.56,84a.44.44,0,0,0-.15-.35,3.94,3.94,0,0,1-.36-.89c-.09.12,0,.26-.13.33-.05.22.17.33.22.52a1.62,1.62,0,0,0,.27.58C37.56,84.21,37.55,84.1,37.56,84Z"/><path class="cls-17" d="M38.25,86.29a.3.3,0,0,1,0-.22.94.94,0,0,0,0-.29c0-.24-.16-.43-.2-.66a.12.12,0,0,0-.08,0h0V85h-.06c-.05-.06-.1-.07-.15,0a.21.21,0,0,0,0,.31.67.67,0,0,1,.15.48.64.64,0,0,0,.07.27.13.13,0,0,1,.06.07l.08.21a.12.12,0,0,1,.08.12A.14.14,0,0,0,38.25,86.29Z"/><path class="cls-17" d="M36.77,85.31h-.11c-.06,0-.13,0-.14.06s0,.1.09.13.26,0,.37-.06S36.81,85.39,36.77,85.31Z"/><path class="cls-17" d="M35.54,72.76h-.12c0,.12-.06.26.13.28S35.57,72.85,35.54,72.76Z"/><path class="cls-17" d="M27,79.51a.12.12,0,0,0,.14-.14.36.36,0,0,0-.28-.13c0,.13.06.2.14.27Z"/><path class="cls-17" d="M70.06,97.79s0,.07,0,.11.08,0,.13,0v-.07S70.09,97.78,70.06,97.79Z"/><path class="cls-17" d="M72,98.92c.23.06.23.06.25-.09C72.16,98.84,72.05,98.81,72,98.92Z"/><path class="cls-17" d="M69.63,102.33c0,.13-.14.18-.25.22l-.08.14c0,.09,0,.1.11.11h.09l.09,0c.12-.06.28-.06.36-.2l-.14-.13a.15.15,0,0,0-.07-.14S69.64,102.29,69.63,102.33Z"/><path class="cls-17" d="M73.82,101l-.07.06c-.06.11,0,.17.1.13s.26-.14.4-.2.1,0,.14-.07h0c0-.08-.14-.07-.22-.07a.16.16,0,0,1-.08.06Z"/><path class="cls-17" d="M75.37,105.21s0,.07.08.09l.08-.06C75.49,105.18,75.42,105.14,75.37,105.21Z"/><path class="cls-17" d="M61.05,91.49a.15.15,0,0,0,0,.23l.09-.13a.21.21,0,0,1,.06-.08h0C61.18,91.45,61.11,91.42,61.05,91.49Z"/><path class="cls-17" d="M65.74,88.21c0-.1-.1-.15-.2-.07a.91.91,0,0,0-.07.14C65.6,88.38,65.69,88.38,65.74,88.21Z"/><path class="cls-17" d="M79.33,63.78c0,.1,0,.14.14.14A.13.13,0,0,0,79.33,63.78Z"/><path class="cls-17" d="M47.39,70.74a.28.28,0,0,0,0,.09.36.36,0,0,0,.07.1l0,0,.13-.06c.11,0,.27,0,.28-.14h0c-.14-.1-.38-.09-.35-.35-.07,0-.12,0-.16,0S47.39,70.64,47.39,70.74Z"/><path class="cls-17" d="M48.36,71.05s0,0,0,0,.06.07.11.09h0S48.44,71.05,48.36,71.05Z"/><path class="cls-17" d="M46.39,69.78h.1a.24.24,0,0,0-.06-.08s-.08-.06-.11,0S46.34,69.77,46.39,69.78Z"/><path class="cls-17" d="M47.43,69.37c0,.19.17.16.29.2.17-.14,0-.18-.08-.27l-.15-.13a.14.14,0,0,0-.06.13Z"/><path class="cls-17" d="M22,96.89c-.07,0-.16,0-.24,0,.11,0,.21.06.29,0Z"/><path class="cls-17" d="M23.68,97.93c.06-.07,0-.16.07-.23v-.32h0c0-.09,0-.19-.12-.19,0,.06,0,.11,0,.17h0a.06.06,0,0,0,0,.09h0a0,0,0,0,1,0,.07v.13s0,.11-.06.14h0c0,.08,0,.22.15.14Z"/><path class="cls-17" d="M86.84,69.94h-.06s0,0,0,0a.09.09,0,0,0,.09,0S86.87,70,86.84,69.94Z"/><path class="cls-17" d="M26.61,92.89a1,1,0,0,0,0-.34c0-.06-.05-.06-.09-.07-.12.17-.07.4-.22.55h0c0,.08-.07.16,0,.22s.15,0,.21-.07a.34.34,0,0,0,.06-.24Z"/><path class="cls-17" d="M84.76,66.34a1.1,1.1,0,0,1-.57-.28h0l-.08,0c0-.13-.27,0-.31-.16a.51.51,0,0,1,0-.22c0-.06,0-.15-.13-.23,0,.23-.07.34-.29.38.19.23.5.19.65.4a4.44,4.44,0,0,0,1,.56c.07,0,.15,0,.19-.06l-.06-.07c0-.07-.15-.08-.2-.15A.38.38,0,0,1,84.76,66.34Z"/><path class="cls-17" d="M28.68,85.23l.07-.06c0-.13.15-.21.15-.34s0-.16-.14-.08-.41.21-.29.49h0A.17.17,0,0,0,28.68,85.23Z"/><path class="cls-17" d="M28.11,87.31l-.14.06a.09.09,0,0,0-.14,0c0,.06,0,.09.08.12h.21A.15.15,0,0,0,28.11,87.31Z"/><path class="cls-17" d="M37.77,84.61s0,0,0,0c-.18-.11-.2-.1-.22.11a.2.2,0,0,1,.08.14C37.73,84.77,37.68,84.65,37.77,84.61Z"/><path class="cls-17" d="M37.41,79c-.09,0-.12-.16-.22-.09s0,.16,0,.24v0h.14A.19.19,0,0,0,37.41,79Z"/><path class="cls-17" d="M36.52,74.66l0,.06,0,0s0,0,0-.06Z"/><path class="cls-17" d="M71.1,99.72l-.15.07c-.3.11-.3.11-.43-.18,0,0,0,0-.13,0h0a.28.28,0,0,1,0,.29h0a0,0,0,0,0,0,.07h0a.17.17,0,0,1,0,0c0,.14,0,.19.15.14h0l0,0c.24.07.37-.12.53-.23l.13-.08.07-.06s.06-.1,0-.14S71.14,99.7,71.1,99.72Z"/><path class="cls-17" d="M71,101a.18.18,0,0,0,.29,0h.2s.22-.09,0-.14h-.28C71.09,100.76,71,100.84,71,101Z"/><path class="cls-17" d="M71.42,99.93h.25l.08-.06s.07-.07.07-.11,0,0-.07,0A.42.42,0,0,0,71.42,99.93Z"/><path class="cls-17" d="M71.59,99.53h-.2c0,.06-.08.14,0,.18s.13,0,.17-.08S71.58,99.56,71.59,99.53Z"/><path class="cls-17" d="M67.74,102.28c-.16-.07-.31,0-.46,0a.29.29,0,0,0-.13.08.1.1,0,0,0,0,.14.08.08,0,0,0,.07,0s.1,0,.15-.06h.21c.08-.07.2,0,.29-.06l.42-.08c-.12-.19-.28-.07-.43-.06Z"/><path class="cls-17" d="M70.66,101.17c-.09-.11-.22,0-.34-.06s.07.15.18.11Z"/><path class="cls-17" d="M70.45,105.79c-.2,0-.34.12-.34.34s0,.15.14.12l.13,0a.56.56,0,0,1,.43-.21s0,0,0-.07.21,0,.25-.09-.08-.12-.13-.18h0a.31.31,0,0,1-.23.06h0l-.08.06h0a.16.16,0,0,0-.07,0Z"/><path class="cls-17" d="M47.5,84.72c0,.06,0,.13-.07.18l0,0a.47.47,0,0,0,0,.26c0,.13,0,.29.14.36a.17.17,0,0,0,.1,0c0-.12-.12-.23,0-.35s0-.29.08-.41,0-.09-.07-.11S47.51,84.67,47.5,84.72Z"/><path class="cls-17" d="M56.51,89.79c0-.07.11-.14,0-.21h0a.11.11,0,0,0-.08,0,.57.57,0,0,1-.18,0l-.09,0-.2,0h-.59l.19.13c.14,0,.24,0,.22.2a.11.11,0,0,0,.07.14h.14v-.1l0,0,0,0a.16.16,0,0,1,.09,0c.07,0,0,.07,0,.11s-.08.17,0,.25h.19c.14,0,.33,0,.41-.11S56.49,89.94,56.51,89.79Z"/><path class="cls-17" d="M56.69,87.33l0,.09s.08.13.15.08.05-.17,0-.26v-.07h0l-.06-.08c0-.06,0-.12-.08-.19s-.06.18-.07.27S56.67,87.28,56.69,87.33Z"/><path class="cls-17" d="M51.68,89.19c-.14,0,0,.17,0,.25h0l.07.07h0c.08,0,.11,0,.14-.07v-.06C51.76,89.34,51.82,89.14,51.68,89.19Z"/><path class="cls-17" d="M58.72,87.3a.14.14,0,0,0,.11,0l.09-.07,0,0c0-.08,0-.16-.08-.21a1.48,1.48,0,0,0-.29.27A.14.14,0,0,0,58.72,87.3Z"/><path class="cls-17" d="M61,92.13c0,.08.06.11.12.14h0l.07-.06h0c0-.06,0-.13-.12-.12S61,92.1,61,92.13Z"/><path class="cls-17" d="M60.36,92.75c0,.18.1,0,.16,0h0a.15.15,0,0,0-.08-.14h0a.23.23,0,0,1-.07.07S60.36,92.73,60.36,92.75Z"/><path class="cls-17" d="M61.31,91.8c0,.15.08.08.14.06A.12.12,0,0,0,61.31,91.8Z"/><path class="cls-17" d="M60.23,92.9s0,.1-.08.13h0a.11.11,0,0,1-.07.06H60a.11.11,0,0,0-.07.11s0,.05.07,0h.29c0-.08,0-.16.08-.21V93c0-.12-.06-.12-.14-.07Z"/><path class="cls-17" d="M48.93,76l0,0a0,0,0,0,0,0,0,.13.13,0,0,0-.15.14.09.09,0,0,0,0,.07.06.06,0,0,0,0,.06l.13,0A.3.3,0,0,0,48.93,76Z"/><path class="cls-17" d="M27.47,82.27s-.09-.07-.14,0,0,0,0,.06.1,0,.16,0Z"/><path class="cls-17" d="M23.81,96.81c0-.08,0-.11-.12-.11v.19S23.8,96.89,23.81,96.81Z"/><path class="cls-17" d="M26.16,97.17a.69.69,0,0,0,0-.13A.1.1,0,0,0,26,97C26,97.12,26.07,97.17,26.16,97.17Z"/><polygon class="cls-17" points="26.04 97.04 26.04 97.04 26.04 97.04 26.04 97.04"/><path class="cls-17" d="M46.71,91.79h0a3.78,3.78,0,0,0,.21.56v.06c.22.31.22.31.23.48s.12.33.35.33a.22.22,0,0,0,.19-.17.21.21,0,0,0-.09-.23.09.09,0,0,0-.1,0h0a.2.2,0,0,0,.06-.17l0-.09a.27.27,0,0,0-.29-.21h0v-.1s0,0,0,0-.06-.15-.1-.21-.12-.37-.37-.37C46.68,91.67,46.66,91.72,46.71,91.79Z"/><path class="cls-17" d="M42.06,102.21a.15.15,0,0,1-.14-.06h-.07a.46.46,0,0,0-.07.07h0a.46.46,0,0,0,.07.07H42S42.11,102.27,42.06,102.21Z"/><path class="cls-17" d="M40.06,91.13c0,.31,0,.35,0,.36s.06,0,.06,0A.25.25,0,0,0,40.06,91.13Z"/><path class="cls-17" d="M25.85,94.72c0,.1-.09.2,0,.31l0,0A.23.23,0,0,0,26,95h0a.23.23,0,0,0,.07-.07c0-.06.29,0,.06-.19-.06,0-.15.08-.2,0S25.88,94.66,25.85,94.72Z"/><path class="cls-17" d="M40.57,101.72a.09.09,0,0,0,.12-.06S40.59,101.66,40.57,101.72Z"/><path class="cls-17" d="M44.49,87.94c.06,0,.23,0,.14-.14s-.29,0-.42-.09h-.28v0c-.07,0-.15,0-.23,0a.47.47,0,0,0,.23,0,.16.16,0,0,1,.15.07l.07.06h.06a.22.22,0,0,0,.19,0Z"/><path class="cls-17" d="M45.92,89.72l0,0a.35.35,0,0,1-.12-.19l0-.09a.34.34,0,0,0-.26-.24h0a.15.15,0,0,0-.14.07l.22.41c.06.06,0,.15.07.21h0l.07.06C45.88,90,45.93,89.87,45.92,89.72Z"/><path class="cls-17" d="M42.21,87.92h.06l.07-.07v0l-.06-.08v-.14a.21.21,0,0,0,.21-.06c-.08,0-.13,0-.15-.12l-.08,0,0,0c-.08,0-.15-.11-.24,0h0l.06.26s0,0,.06,0A.42.42,0,0,0,42.21,87.92Z"/><path class="cls-17" d="M41,79.29h0c0-.07,0-.15-.08-.19a.25.25,0,0,1-.14-.06c-.11.09-.09.18,0,.26v.07h.06s0,0,0,.06a.57.57,0,0,1,.15.26s0,.06.06.09h0c0,.09,0,.21.14.28s.07.11.14.13a.57.57,0,0,1,.09.33c0,.07,0,.16.06.22h0s0,.11.06.16a.18.18,0,0,1,.05.16s0,.05.07.05A.21.21,0,0,1,42,81h0a.14.14,0,0,0,0,.09,2,2,0,0,0,.18.32l.07.11,0,.07a.4.4,0,0,0,.18.24c.15,0,.21.11.28.21s.17.09.2,0a1.13,1.13,0,0,0-.2-.43l-.06-.08c-.13-.14-.17-.33-.3-.48h0L42.29,81c-.07,0-.13-.1-.22-.09s.07-.12,0-.15c-.21-.21-.34-.49-.61-.64h0a.54.54,0,0,0-.08-.35C41.3,79.56,41.22,79.37,41,79.29Z"/><path class="cls-17" d="M66.66,104.62c0-.16-.1-.14-.2-.13S66.57,104.62,66.66,104.62Z"/><path class="cls-17" d="M47.38,86.59c.09.09.14,0,.18,0v-.14a.11.11,0,0,1,0-.14v-.14c-.12-.06,0-.22-.15-.27C47.21,86.09,47.36,86.34,47.38,86.59Z"/><path class="cls-17" d="M53.43,91.86l.07-.07c0-.23-.17-.11-.28-.07v.07C53.27,91.88,53.35,91.86,53.43,91.86Z"/><path class="cls-17" d="M57.57,88c.07,0,.07-.06.09-.11s-.1-.14-.15-.21-.19,0-.18.12S57.46,87.93,57.57,88Z"/><path class="cls-17" d="M57.08,89.52c0,.07.08.16.17,0l0-.09s0-.11-.06-.15h0C57.06,89.36,57.09,89.44,57.08,89.52Z"/><path class="cls-17" d="M57.94,88.13h0s-.06,0-.09,0-.11,0-.12.09,0,0,0,0,.08,0,.12,0Z"/><path class="cls-17" d="M56.63,88.49c0,.05,0,.05.08.05a.09.09,0,0,0,.08-.1s0-.06-.07,0A.12.12,0,0,0,56.63,88.49Z"/><path class="cls-17" d="M56.87,89.1h0c.05.06.1.1.17,0A.07.07,0,0,0,57,89C56.94,89,56.93,89.09,56.87,89.1Z"/><path class="cls-17" d="M55.94,90.56s0,0,0,.06h0s0,.1.07.13.07.06.12.06,0-.07,0-.12,0-.14-.07-.21h0a0,0,0,0,0-.05,0Z"/><path class="cls-17" d="M49.73,101.44a.15.15,0,0,0,0-.13s0-.06,0-.09a1.28,1.28,0,0,0-.21-.56c-.05,0-.1-.08-.17,0a.15.15,0,0,0,0,.07.14.14,0,0,0,0,.15,9.15,9.15,0,0,0,.3,1C49.77,101.74,49.69,101.58,49.73,101.44Z"/><path class="cls-17" d="M44.1,103s0,0-.06-.06-.13,0-.13.09,0,.05.07,0S44.1,103,44.1,103Z"/><path class="cls-17" d="M35.4,98.74c0-.1-.07-.13-.15-.15s-.1,0-.1.08.09.12.17.13S35.39,98.78,35.4,98.74Z"/><path class="cls-17" d="M45.22,87.51h-.15v.07l.07.07.21.14a.1.1,0,0,0,0-.14A.32.32,0,0,0,45.22,87.51Z"/><polygon class="cls-17" points="45.35 87.79 45.35 87.79 45.35 87.79 45.35 87.79"/><path class="cls-17" d="M44.28,85.65h0c.15,0,.2,0,.14-.14h0C44.33,85.52,44.28,85.56,44.28,85.65Z"/><path class="cls-17" d="M43.69,84.49c0,.14.15.18.23.26s.13.23.28.3c0-.12-.07-.2-.06-.3a.09.09,0,0,0,0-.13h0c-.17-.06-.17-.25-.3-.34h0a.46.46,0,0,1-.07-.07h0l-.06-.09s0-.05-.09-.05,0,.27,0,.41Z"/><path class="cls-17" d="M42.92,84.76H43s0,0,0,0-.15-.15-.14-.27l-.07-.07C42.68,84.56,42.89,84.64,42.92,84.76Z"/><path class="cls-17" d="M45.28,87.93l-.22-.1c-.05,0-.13,0-.14,0S45,88,45,88,45.24,88.17,45.28,87.93Z"/><path class="cls-17" d="M47,90.54l-.08-.07a.16.16,0,0,0-.08.15C46.92,90.62,47,90.61,47,90.54Z"/><path class="cls-17" d="M47.49,88.61a2.52,2.52,0,0,0,0,.55l.14-.06v-.21C47.52,88.83,47.61,88.68,47.49,88.61Z"/><path class="cls-17" d="M47.64,88.27a.08.08,0,0,1-.07,0c-.11.11,0,.13.07.14S47.7,88.32,47.64,88.27Z"/><path class="cls-17" d="M43,82.72a.11.11,0,0,0,.06-.07.15.15,0,0,0-.09-.1c-.15-.08-.21-.25-.36-.34,0,.16.07.28.14.41l.07.06h0A.17.17,0,0,0,43,82.72Z"/><path class="cls-17" d="M40.33,78.56l.23.34c.07,0,.07-.09.08-.16s-.06-.27-.21-.34S40.3,78.47,40.33,78.56Z"/><path class="cls-17" d="M52.22,105.11a.16.16,0,0,0-.08-.06l-.23-.07c-.13,0-.26-.12-.4,0s-.13,0-.15,0,.06.07.07.12a1.63,1.63,0,0,0,.5.07C52,105.16,52.14,105.21,52.22,105.11Z"/><path class="cls-17" d="M55.44,105.86a.17.17,0,0,0,.14.08h0s0-.07.06-.07h.14l.08.06h0c.08-.05.07-.13.07-.2l-.28-.08c-.16-.07-.31-.19-.5-.08,0,0,0,0,0,0v0l0,0h0s-.09,0-.12,0,0,.14,0,.21h.14A.26.26,0,0,1,55.44,105.86Z"/><path class="cls-17" d="M56.44,105.8v.13h.2a.15.15,0,0,0,.16,0h0a.93.93,0,0,0,.14-.14h0a.29.29,0,0,1,.08-.07h0c0-.07,0-.1-.09-.08S56.57,105.66,56.44,105.8Z"/><path class="cls-17" d="M57,106a1.68,1.68,0,0,0,.63.07c.05-.08,0-.1-.07-.14h-.2c-.05,0-.11,0-.15-.06h-.08C57.12,105.93,57,105.86,57,106Z"/><path class="cls-17" d="M69.67,100.4l-.08,0a.13.13,0,0,0-.13,0l-.43.2-.08.07c-.1.08-.24,0-.36.06h-.2a.13.13,0,0,0-.15.06h0c-.1,0-.16.14-.29.13l-.07.07h-.07l-.07.07a.14.14,0,0,1-.15.06l-.35.07c-.09.05-.21,0-.29.07h0c-.13.19-.41.09-.54.28a.54.54,0,0,0,.56-.07.41.41,0,0,1,.27-.07h0c.06-.06.14,0,.21,0l.09,0c.1-.05.2-.12.32-.07s.19-.07.23-.16.32-.09.45-.2a.14.14,0,0,0,.14-.06.54.54,0,0,0,.35-.08s.09,0,.14,0h.07a.55.55,0,0,1,.38,0,1.1,1.1,0,0,0,.54-.19H70.1c-.1,0-.11-.13-.13-.21h0a.13.13,0,0,1,0-.06c-.06-.08-.12-.08-.19,0A.24.24,0,0,1,69.67,100.4Z"/><path class="cls-17" d="M56.08,105.8h0a.18.18,0,0,0,.29,0,.46.46,0,0,0-.07-.07s0,0,0,0,0,0-.05,0h-.06Z"/><path class="cls-17" d="M56.62,101.79s0,.07.07.08h.1v-.06l-.06,0S56.64,101.73,56.62,101.79Z"/><path class="cls-17" d="M58.09,106c-.05,0-.1-.06-.15,0v.07H58c.08,0,.16,0,.21-.06Z"/><path class="cls-17" d="M41.7,80.14c.08.08.12.21.27.24,0-.17-.08-.27-.12-.38h-.06A.15.15,0,0,0,41.7,80.14Z"/><path class="cls-17" d="M50.15,91.3h0a0,0,0,0,0,0,0s0,0,0,0,0,0,.07,0,.25,0,.34-.06l-.14-.13C50.18,91.08,50.18,91.08,50.15,91.3Z"/><path class="cls-17" d="M52.1,91.26s.07,0,.12,0v-.1c0-.06,0-.14-.1-.12S52.07,91.2,52.1,91.26Z"/><path class="cls-17" d="M57.23,89.93l.14.07s0,0,0-.06a.4.4,0,0,0-.09-.21C57.1,89.74,57.25,89.86,57.23,89.93Z"/><path class="cls-17" d="M59.44,93.16a.62.62,0,0,0,.46-.07.36.36,0,0,1-.32-.13h-.06C59.5,93,59.41,93.06,59.44,93.16Z"/><polygon class="cls-17" points="58.9 90.81 58.91 90.79 58.9 90.79 58.9 90.81"/><path class="cls-17" d="M67.39,97.44c-.06,0-.09.07-.07.13s.08,0,.13,0S67.5,97.43,67.39,97.44Z"/><path class="cls-17" d="M44.28,105a.13.13,0,0,0,0,.06c.14.14.13.34.21.5a.35.35,0,0,0,.14.2c.1-.08.06-.19.08-.29a1.34,1.34,0,0,1-.07-.53c0-.11-.1-.19-.16-.28h-.07C44.42,104.83,44.44,105,44.28,105Z"/><path class="cls-17" d="M47.7,95.6h-.1c-.06,0-.13,0-.14.06s.06.06.1.08l.09,0C47.73,95.74,47.71,95.67,47.7,95.6Z"/><path class="cls-17" d="M45.56,103.46l-.28-.08C45.35,103.54,45.39,103.55,45.56,103.46Z"/><path class="cls-17" d="M48.58,101.76c-.13,0-.14.08-.15.17h-.07V102c.14.11,0,.25,0,.37s.12-.08.19-.09a.45.45,0,0,0,.08-.27l0-.09C48.64,101.86,48.67,101.77,48.58,101.76Z"/><path class="cls-17" d="M48,92.69c-.08-.06-.05-.16-.07-.24s-.1-.1-.17,0a.61.61,0,0,0,0,.13,1.9,1.9,0,0,1,.14.48L48,92.9A1.48,1.48,0,0,0,48,92.69Z"/><path class="cls-17" d="M48.45,96.75h0a.56.56,0,0,1,.07.26,1.68,1.68,0,0,0,.13.58h0c.12.44.14.91.23,1.36.12.1,0,.27.14.36h0c0,.26.17.48.15.74l.06,0a.13.13,0,0,0,0,.06.11.11,0,0,0,.06-.13l0-.06a.25.25,0,0,0,0-.08c0-.06,0-.11,0-.17a.29.29,0,0,0,0-.09,1.66,1.66,0,0,1-.11-.38.2.2,0,0,0,0-.08l0,0v0a.46.46,0,0,0,0-.2c0-.1,0-.2-.08-.3a3.15,3.15,0,0,0-.13-.61.82.82,0,0,1-.09-.34.28.28,0,0,0,0-.09.26.26,0,0,0-.05-.12h-.07a.19.19,0,0,0,0-.15,1.54,1.54,0,0,1,0-.43c0-.11,0-.23-.15-.25l0,0c-.07,0,0-.14-.13-.15A.5.5,0,0,0,48.45,96.75Z"/><path class="cls-17" d="M47.62,91.65s.07,0,.09.07a.14.14,0,0,0,.15-.06.3.3,0,0,0,.1-.19l0-.09-.11-.18,0,0c-.14.11,0,.31-.13.42h0S47.62,91.63,47.62,91.65Z"/><path class="cls-17" d="M47.35,91.86v.06s0,.11.06.11.08-.06.09-.11v-.13h-.07A.1.1,0,0,0,47.35,91.86Z"/><path class="cls-17" d="M47.65,89.58s0,0,0-.06c-.13.15-.06.31,0,.48C47.67,89.86,47.62,89.72,47.65,89.58Z"/><path class="cls-17" d="M48.07,88.34c-.07,0,0,.09,0,.14s.16,0,.16-.06S48.13,88.35,48.07,88.34Z"/><path class="cls-17" d="M50.64,104.91h0s0,.1.08.12h0c.14-.06.22-.14.06-.26h0l-.08-.05a.15.15,0,0,0-.13.06Z"/><path class="cls-17" d="M51,94.35h0c0,.05-.17,0-.13.11s.18.06.28,0h0C51.15,94.39,51.1,94.34,51,94.35Z"/><path class="cls-17" d="M52.24,93.86s0-.1,0-.14a.13.13,0,0,0,0-.06c-.12,0-.18.09-.28.13h0c0,.07,0,.13,0,.17a.08.08,0,0,0,.09,0h0Z"/><path class="cls-17" d="M57.31,90.2l.09.16a1.4,1.4,0,0,0,.1-.16C57.43,90.11,57.37,90.11,57.31,90.2Z"/><path class="cls-17" d="M57.86,91.66c-.1-.1,0-.23-.06-.35a.13.13,0,0,1,0-.06h0a.49.49,0,0,1,0-.12.86.86,0,0,1-.1-.16h0l-.09.08a.18.18,0,0,0,0,.2.13.13,0,0,1,0,.06s0,.11.07.15v.13a4.7,4.7,0,0,1,.21.9v0a.38.38,0,0,0,0,.21l0,0c.08,0,.15,0,.12-.12a.26.26,0,0,1,.09-.36.22.22,0,0,0,.06-.19C57.91,92,57.91,92,57.86,91.66Z"/><path class="cls-17" d="M48.43,90.89v-.06a.12.12,0,0,0,0-.15c0-.06-.09-.16-.14,0s0,.11-.07.15a.13.13,0,0,1,0,.06s0,0,0,.07V91C48.39,91.13,48.37,91,48.43,90.89Z"/><path class="cls-17" d="M58.17,95.45a.19.19,0,0,0-.25,0c0,.1.06.16.09.24S58.15,95.55,58.17,95.45Z"/><path class="cls-17" d="M56.65,96.77s0,.1.07.1.07-.05.07-.1a.09.09,0,0,0-.08-.09C56.64,96.68,56.65,96.73,56.65,96.77Z"/><path class="cls-17" d="M52.25,94.26s-.09,0-.13,0-.06,0-.06.08,0,0,.07,0,.16,0,.15.13-.08.13,0,.22a.88.88,0,0,0,.31-.39.83.83,0,0,1,0-.15c0-.09,0-.11-.1-.12S52.42,94.31,52.25,94.26Z"/><path class="cls-17" d="M52.07,95.72s0,0,0-.06a.23.23,0,0,1,.07-.07h0a.8.8,0,0,1,.13-.13c-.07-.07-.14,0-.21,0s-.22.37-.39.51l.12.06.19-.15C52.05,95.83,52,95.76,52.07,95.72Z"/><path class="cls-17" d="M51.22,100.55c-.1-.1-.19,0-.29,0C51.09,100.74,51.13,100.74,51.22,100.55Z"/><path class="cls-17" d="M53.72,100.11v0a.1.1,0,0,0-.14,0h0c0,.11-.15.23,0,.34v-.06l.06-.08a.17.17,0,0,1,.07-.13Z"/><path class="cls-17" d="M48.24,91.4h0s0,0,0,0h0Z"/></g></g></svg>