<svg xmlns="http://www.w3.org/2000/svg" xmlns:xlink="http://www.w3.org/1999/xlink" viewBox="0 0 106 106"><defs><style>.cls-1{fill:none;}.cls-2{clip-path:url(#clip-path);}.cls-3,.cls-5{fill:#62bfb3;}.cls-3{fill-rule:evenodd;}.cls-4{fill:#1d1d1b;}.cls-6,.cls-8{fill:#010101;}.cls-7{fill:#676767;}.cls-8{stroke:#fff;stroke-miterlimit:10;stroke-width:2px;}.cls-9{fill:url(#Degradado_sin_nombre_67);}.cls-10{fill:#4e4d4d;}.cls-11{fill:#f8e9c1;}.cls-12{fill:#fff;}.cls-13{fill:#c6c6c6;}.cls-14{fill:#dadada;}.cls-15{fill:#c7c6c6;}.cls-16{clip-path:url(#clip-path-2);}.cls-17{fill:url(#Degradado_sin_nombre_67-2);}</style><clipPath id="clip-path"><rect class="cls-1" x="-0.04" y="109.85" width="106.08" height="27.76" rx="4.5"/></clipPath><linearGradient id="Degradado_sin_nombre_67" x1="35.45" y1="23.84" x2="40.84" y2="33.18" gradientUnits="userSpaceOnUse"><stop offset="0" stop-color="#010101"/><stop offset="0.54" stop-color="#343434"/><stop offset="1" stop-color="#010101"/></linearGradient><clipPath id="clip-path-2"><circle class="cls-1" cx="35.52" cy="26.76" r="15.66"/></clipPath><linearGradient id="Degradado_sin_nombre_67-2" x1="35.57" y1="23.91" x2="41.76" y2="34.64" xlink:href="#Degradado_sin_nombre_67"/></defs><title>webIcons</title><g id="BUTTONS-3" data-name="BUTTONS"><g class="cls-2"><path class="cls-3" d="M-.14,69.38s.06-.1,0-.16a.17.17,0,0,0-.19,0,1.05,1.05,0,0,1-.52.1A1.51,1.51,0,0,1,0,69.1l.05.08s0-.05,0-.09A.36.36,0,0,1,.31,69a5.12,5.12,0,0,1,1.7-.2c.1.06.21,0,.32,0a.07.07,0,0,0,.06-.08.18.18,0,0,0-.09-.12.74.74,0,0,0-.36,0c-.08,0-.06,0-.05-.07l.05,0,.14,0,.08,0h0l-.08,0h.07a.13.13,0,0,0,0-.06h.21c.28,0,.58,0,.79-.27h.06c.1,0,.24,0,.22-.15s-.13-.08-.21-.05a5.94,5.94,0,0,0-.72.21c-.1.09-.25,0-.35.07h0v.13H1.94a.26.26,0,0,0-.24.07h0c-.13,0-.28,0-.37.15a.08.08,0,0,1,0,.05.47.47,0,0,0-.2,0l-.07,0c-.09-.06-.22,0-.32-.15s-.28-.08-.43,0-.12.12,0,.2-.06.15-.12.21l-.2.08a.1.1,0,0,0,0,0H-.21L-.28,69h0a4.35,4.35,0,0,0-1,.21v.21c.16.23.4.22.65.2h.14A.27.27,0,0,0-.14,69.38Z"/><path class="cls-3" d="M105.51,81.1a.09.09,0,0,0,0,.15c.09,0,.15,0,.2-.08l.29-.42v-.13C105.77,80.71,105.72,81,105.51,81.1Z"/><path class="cls-3" d="M43.22,30.87c.08.05.16.1.22,0s.08-.21.13-.31h-.36C43.32,30.64,43.22,30.75,43.22,30.87Z"/><path class="cls-3" d="M86.31,37.07c.08-.09.18-.16.09-.29a.1.1,0,0,0-.15,0C86.17,36.87,86.19,37,86.31,37.07Z"/><path class="cls-3" d="M97,58.58l-.08.1c.06.11.12.22.28.13l0-.05s0-.06,0-.09,0-.11,0-.14S97.05,58.5,97,58.58Z"/><path class="cls-3" d="M49.64,39.64h0c-.09-.13,0-.34-.21-.42l-.07-.07c-.08,0-.23,0-.17.12a1,1,0,0,0,.38.45C49.63,39.75,49.63,39.68,49.64,39.64Z"/><path class="cls-3" d="M104,82.75h0a.13.13,0,0,1-.07.06c-.12.1-.26.19-.3.35l-.06,0a.09.09,0,0,0-.06.06h0l0,.06a1.3,1.3,0,0,1-.51.42,1.75,1.75,0,0,0-.44.54l-.37.34a.18.18,0,0,1-.06.09h0s0,.1,0,.15h0l.09,0,0,0,.08-.05.08,0,.41-.38a3.7,3.7,0,0,1,.55-.49,2.11,2.11,0,0,1,.25-.27.34.34,0,0,0,.06-.12.46.46,0,0,0,0-.2c.1,0,.15,0,.22-.09a.47.47,0,0,0,.1-.1c.15-.12.21-.31.37-.43h0a.25.25,0,0,1,.13-.23.76.76,0,0,0,.25-.31c0-.07,0-.1-.09-.08l-.2.15C104.36,82.36,104.09,82.49,104,82.75Z"/><path class="cls-3" d="M49,32.18s-.13-.08-.11,0a1.63,1.63,0,0,0,.11.31c.09.06.12.2.26.2a0,0,0,0,1,0,0C49.18,32.52,49.22,32.29,49,32.18Z"/><path class="cls-3" d="M105.51,92.76h.06c0-.08-.13-.06-.2,0S105.46,92.75,105.51,92.76Z"/><path class="cls-3" d="M2.09,73.78h.06c.08-.05.24-.06.1-.21s0,0,0-.08,0,0,0-.06h0a.16.16,0,0,0-.09,0c-.07,0-.14,0-.2,0H2c-.06,0,0,.12,0,.19v0a.61.61,0,0,1-.36-.09c-.11-.07-.29.08-.43,0l0,0H1l-.17.09s.13,0,.16.11.23.08.36.07h.14c.15-.11.32-.06.48-.06A.53.53,0,0,0,2.09,73.78Z"/><path class="cls-3" d="M104.39,66.4c0,.1.16.11.26.14a.6.6,0,0,1,.22.2.32.32,0,0,0,.31.18l0,0a1.48,1.48,0,0,0,0-.21v-.13c-.13,0-.26,0-.35-.11s-.23-.13-.35-.18S104.32,66.27,104.39,66.4Z"/><polygon class="cls-3" points="105.22 66.89 105.22 66.89 105.22 66.89 105.22 66.89"/><path class="cls-3" d="M105.36,67.09a.46.46,0,0,1,.07.07c.06,0,.1.07.19,0-.14-.11-.16-.33-.4-.3C105.18,67,105.31,67,105.36,67.09Z"/><path class="cls-3" d="M105.13,72a.28.28,0,0,0,0,.09,1,1,0,0,1,0,.3.29.29,0,0,0,0,.09c-.06.09.25.3-.09.3a.13.13,0,0,1,0-.06.08.08,0,0,0-.07-.07h0v-.07a.5.5,0,0,1-.08-.2c-.09-.07-.08-.19-.14-.28a.13.13,0,0,0-.15.14.41.41,0,0,0,0,.22.41.41,0,0,1,0,.22l0,.08c-.16.13-.19.24,0,.31.08-.07.14-.16.27-.14h0c0,.13.06.25.23.26l0,0a.48.48,0,0,0,.08.33,1.35,1.35,0,0,1,.21.59h0l0-.07a.34.34,0,0,0-.09-.08.11.11,0,0,0-.08,0,.13.13,0,0,0,0,.11.22.22,0,0,0,0,.08l0,.07a.36.36,0,0,0,0,.11.37.37,0,0,0,0,.11l.09.16c.06.07.09.2.21.14l.13.1c-.1,0-.17,0-.23.1a.17.17,0,0,1,0,.07c.09,0,.16.1.28.08s0-.15,0-.22h0A.36.36,0,0,1,106,75v-.42h-.07a.2.2,0,0,0-.08-.2h0l-.14-.42c-.07-.08,0-.22-.13-.28a.08.08,0,0,1,0-.06.06.06,0,0,1,0-.08v0a.3.3,0,0,1-.08-.22.62.62,0,0,0,0-.13c0-.11-.12-.22,0-.29s0-.23,0-.35-.08-.21-.07-.33a1.72,1.72,0,0,0-.07-.21C105.26,71.78,105.19,71.85,105.13,72Z"/><path class="cls-3" d="M105.67,73.07s0,.06,0,.09.07-.08.08-.14-.06-.11-.13-.08S105.65,73,105.67,73.07Z"/><polygon class="cls-3" points="105.79 74.89 105.79 74.89 105.79 74.89 105.79 74.89"/><path class="cls-3" d="M105.86,70.8s0,0,0,0a0,0,0,0,0,0,0h0S105.83,70.8,105.86,70.8Z"/><path class="cls-3" d="M82,39.18a.48.48,0,0,1-.48,0l-.09,0-.18,0h0l0,0s-.09.08,0,.15h0c.17.08.35.12.51.21l.07.07c.15,0,.33-.06.43.13.1,0,.21,0,.3,0s.2,0,.27-.09,0-.16-.07-.23h-.06c-.13-.09-.31-.11-.42-.22A.23.23,0,0,0,82,39.18Z"/><path class="cls-3" d="M82.25,39.09c0,.13.11.15.21.17a.18.18,0,0,0,.09,0s.15,0,.07-.14-.05,0-.07-.07h0C82.44,39,82.33,39,82.25,39.09Z"/><path class="cls-3" d="M6.66,53a.54.54,0,0,0-.07-.43c-.07,0-.14-.06-.15.06a1.36,1.36,0,0,0,.08.49C6.6,53.08,6.65,53.05,6.66,53Z"/><path class="cls-3" d="M6.6,50.26c-.15-.07,0-.24-.15-.38v.52c0,.11.07.09.14.07S6.6,50.33,6.6,50.26Z"/><path class="cls-3" d="M11.76,44.16a.78.78,0,0,0,0-.22,1.07,1.07,0,0,0-.15-.37.16.16,0,0,0-.09,0c-.06,0-.08.06-.11.1h0l.21.83C11.79,44.44,11.74,44.28,11.76,44.16Z"/><path class="cls-3" d="M12,45.62a.42.42,0,0,0-.08-.47l-.15-.07a1.62,1.62,0,0,0,.08.69.17.17,0,0,1,.07.13C12,45.83,11.94,45.71,12,45.62Z"/><path class="cls-3" d="M12.52,51.71h0c-.24,0-.25,0-.15.21l.08.06h0C12.64,51.93,12.56,51.81,12.52,51.71Z"/><path class="cls-3" d="M10.45,31.27c0,.19,0,.37,0,.56.1-.07.06-.18.06-.27s0-.2.07-.27a.17.17,0,0,0,0-.21C10.47,31.09,10.45,31.17,10.45,31.27Z"/><path class="cls-3" d="M20.11,33.43c0,.09,0,.17,0,.26l.07.07a.23.23,0,0,0,.14-.13h0s0-.05-.07-.06h0a.09.09,0,0,1,0-.13c.07,0,.08-.1,0-.14S20.1,33.33,20.11,33.43Z"/><path class="cls-3" d="M18.61,32.45v-.06h0a.1.1,0,0,0-.05,0s0,.09,0,.11S18.6,32.48,18.61,32.45Z"/><path class="cls-3" d="M14.75,34.31c0,.07,0,.13.09.12a.12.12,0,0,0,.12-.14c0-.07,0-.14-.12-.13S14.75,34.25,14.75,34.31Z"/><path class="cls-3" d="M102.58,63.51v.06a.61.61,0,0,1,.21.35.13.13,0,0,0,.14-.13h0a.11.11,0,0,1,0-.14c0-.08,0-.14-.06-.2s-.11,0-.14-.07a.08.08,0,0,0-.08,0S102.62,63.47,102.58,63.51Z"/><path class="cls-3" d="M103.08,64.4a.15.15,0,0,0,.14-.07s0,0,0-.06a.32.32,0,0,1-.13-.15h0C103,64.21,103,64.31,103.08,64.4Z"/><path class="cls-3" d="M98.14,61V61c-.19-.17-.2-.17-.29,0v0a.1.1,0,0,0,0,0l.06,0,.07,0h0Z"/><path class="cls-3" d="M96.78,59.85c0,.06,0,.08.07.08l.23.24s.08.09.14.06.06-.12.07-.18a4,4,0,0,0-.51-.41C96.69,59.71,96.8,59.78,96.78,59.85Z"/><path class="cls-3" d="M101.57,60.47a.18.18,0,0,1,0,.1h0a.09.09,0,0,0-.08,0c-.15,0-.12-.2-.26-.18s.08.29,0,.45v0a.27.27,0,0,0,0,.12l0,.07a.35.35,0,0,0,.11.13c.31,0,0-.27.2-.33s.09.08.12.12l0,0,.07.06a.17.17,0,0,0,.18,0,.19.19,0,0,0,0-.08,0,0,0,0,1,0-.06.25.25,0,0,0,0-.07.2.2,0,0,0,0-.15s0,0,0-.05a.18.18,0,0,0,0-.07.15.15,0,0,0-.1-.09c.07-.05.12-.1.08-.19h0a.24.24,0,0,0-.06-.08h0C101.7,60.25,101.58,60.29,101.57,60.47Z"/><path class="cls-3" d="M100.43,104.9l-.11.07c-.14.09-.14.11,0,.21a.54.54,0,0,1,.28-.08c.21-.11.08-.22,0-.33h-.06Z"/><path class="cls-3" d="M4,69.31v.13a.14.14,0,0,0,.2,0h0C4.15,69.3,4.05,69.29,4,69.31Z"/><path class="cls-3" d="M11.81,73l0,0c.07,0,.14,0,.17,0s0-.09-.07-.12h0c-.07,0-.17,0-.22,0S11.8,73,11.81,73Z"/><path class="cls-3" d="M10.67,72.43s-.05,0-.05,0,0,.07,0,.07.05,0,.05,0S10.71,72.44,10.67,72.43Z"/><path class="cls-3" d="M9.37,67.71c.05,0,.13,0,.08-.14-.26-.1-.35-.06-.36.14h.28Z"/><path class="cls-3" d="M3.23,73.57a2,2,0,0,0,.64-.06.72.72,0,0,1,.52,0c.06,0,.14,0,.21,0a2.77,2.77,0,0,1,.81.06.22.22,0,0,0,.26-.06h.21v-.06h.51c.11,0,.08-.08.06-.14a1.63,1.63,0,0,1-.38,0,.8.8,0,0,0-.57,0H5.38l-.15,0H5.09c0-.09,0-.18-.14-.07l-.21.06a.22.22,0,0,1-.3-.19c-.07,0-.14-.26-.21,0s.1.24-.11.25a.86.86,0,0,0-.17,0c-.24-.08-.48,0-.72,0A.15.15,0,0,0,3.23,73.57Z"/><path class="cls-3" d="M54.22,39.57l0-.08-.08-.06c-.13,0-.14,0-.08.13h0c.06.09,0,.19,0,.29s-.09.35.06.51.14.1.24,0a.07.07,0,0,1,0,0c-.06-.12,0-.25-.06-.36a.17.17,0,0,1,0-.07c-.08-.1,0-.24-.07-.34Z"/><path class="cls-3" d="M50.07,34.81c-.12,0-.2-.12-.34-.09a.42.42,0,0,0,.06.36,1.47,1.47,0,0,1,0,.47c0,.07,0,.15.08.17s.15-.07.16-.14A1.54,1.54,0,0,0,50.07,34.81Z"/><path class="cls-3" d="M79.11,34.32c0,.06-.09.11,0,.18a.09.09,0,0,0,.15,0c0-.05.1-.12.06-.18s-.12,0-.18,0Z"/><path class="cls-3" d="M79.91,37.7H80c.15,0,.33.06.43-.13h0l-.07,0a.09.09,0,0,1-.07,0h0A.32.32,0,0,0,79.91,37.7Z"/><path class="cls-3" d="M81.83,39c.08,0,.17,0,.22,0s0-.07-.08-.1S81.74,38.83,81.83,39Z"/><path class="cls-3" d="M5.72,104.93c0-.12-.13,0-.2,0v.26C5.69,105.17,5.76,105.07,5.72,104.93Z"/><path class="cls-3" d="M5.61,101.85s0,0-.06-.07l-.14-.08-.07,0h0c-.06,0-.06.08-.07.13l.07.08.08.06a.17.17,0,0,0,.21,0A.15.15,0,0,0,5.61,101.85Z"/><path class="cls-3" d="M3,100.49H3a.15.15,0,0,0-.21,0h0v.12h0s.05,0,.08.06S3.1,100.64,3,100.49Z"/><path class="cls-3" d="M-.06,86.48c.09,0,.14,0,.13-.13S-.13,86.33-.06,86.48Z"/><path class="cls-3" d="M99.93,94c.1,0,.21,0,.2-.13h-.2Z"/><path class="cls-3" d="M99.92,93.3h-.06a.31.31,0,0,0-.12.43c.17,0,.17-.22.32-.23a.13.13,0,0,0,0-.06c.1-.08.13-.18,0-.25S99.94,93.21,99.92,93.3Z"/><path class="cls-3" d="M102.41,68a.13.13,0,0,0,0,.08l.1.08s.08.12.17.1h.15a.59.59,0,0,1-.08-.34l0,0c-.11-.11-.2-.08-.29,0A.16.16,0,0,0,102.41,68Z"/><path class="cls-3" d="M104.15,68.12c.07,0,.14.08.21,0s.23,0,.25.14.11,0,.17,0l.07-.07a.21.21,0,0,1,.14-.07v-.25l-.13,0c-.21-.13-.38,0-.57.07S104,68,104.15,68.12Z"/><path class="cls-3" d="M103.37,67.71h0a.12.12,0,0,0,.13,0s0-.12.08-.16h0s0-.09,0-.14h-.21A.2.2,0,0,0,103.37,67.71Z"/><path class="cls-3" d="M54.29,32.31c0-.07,0-.13,0-.2v-.06c0-.12,0-.23,0-.35A.63.63,0,0,0,54.29,32.31Z"/><path class="cls-3" d="M105.3,74.74c.13,0,.09-.06.06-.13S105.25,74.67,105.3,74.74Z"/><path class="cls-3" d="M95,48.53c.13.1.17-.07.25-.11l0,0c.1-.16,0-.17-.13-.18a.2.2,0,0,1-.14.06C95,48.35,94.85,48.45,95,48.53Z"/><path class="cls-3" d="M102.57,64.27h-.07c-.08,0-.07.14-.07.21s-.05.23,0,.34.1.18.12.28a.15.15,0,0,0,.09,0c.13,0,.23-.09.14-.24h0a.17.17,0,0,1,0-.21.46.46,0,0,1,.07-.07c0-.08,0-.16-.07-.21S102.63,64.33,102.57,64.27Z"/><path class="cls-3" d="M101.5,63.74c-.08-.06-.19-.14-.22,0l.21.28c.13,0,.29.08.29-.14h0A1,1,0,0,1,101.5,63.74Z"/><path class="cls-3" d="M101.5,64.4s0,0,0,.07-.06.22.13.21h0a1.77,1.77,0,0,0,0-.23C101.64,64.34,101.56,64.38,101.5,64.4Z"/><path class="cls-3" d="M100.22,62.81c.17.09.13,0,.13-.12S100.21,62.71,100.22,62.81Z"/><path class="cls-3" d="M98.28,61.37c0,.18.17,0,.22.13s.06-.08.06-.13a.21.21,0,0,0-.28,0Z"/><path class="cls-3" d="M95.21,58.25l.12.1,0,0h0s0,0,0,0,.06.24.19.32l.14.07,0,.06.09.14a1.58,1.58,0,0,0,.22.23l.16.16.08,0,.08,0c.15,0,.16,0,.1-.16a.8.8,0,0,0-.15-.18.62.62,0,0,1-.14-.28.27.27,0,0,1-.21-.15.76.76,0,0,0-.29-.27l-.15-.13c0-.11-.12-.16-.2-.22S95.21,58.17,95.21,58.25Z"/><path class="cls-3" d="M103.94,66h0l.07.08.06.07s.06.11.14.07l.08-.07c-.05-.09-.14-.16-.15-.27l-.07-.07A.17.17,0,0,0,103.94,66Z"/><path class="cls-3" d="M103.75,65.77a.29.29,0,0,0-.17-.37C103.58,65.54,103.57,65.68,103.75,65.77Z"/><path class="cls-3" d="M.6,73.62a.06.06,0,0,0-.08,0l-.08,0a.17.17,0,0,0,.1,0Z"/><path class="cls-3" d="M5.37,68.61a1,1,0,0,0-.8.2,2,2,0,0,0,.8-.13S5.41,68.64,5.37,68.61Z"/><path class="cls-3" d="M7.36,73.23l-.06-.06a.15.15,0,0,0-.15.06l0,.13a.34.34,0,0,0,.2-.06A.2.2,0,0,0,7.36,73.23Z"/><path class="cls-3" d="M9.77,73.1c.17.07.2-.09.31-.17a.6.6,0,0,0-.34,0h0C9.76,73,9.64,73.05,9.77,73.1Z"/><path class="cls-3" d="M11,73c-.06,0-.1,0-.12.09a.07.07,0,0,0,.09.07.11.11,0,0,0,.12-.09S11,73,11,73Z"/><path class="cls-3" d="M10.14,67.27s-.07,0-.12,0a.83.83,0,0,0-.35.14l.08.08.31,0A.11.11,0,0,0,10.14,67.27Z"/><path class="cls-3" d="M11.64,67.36l.32,0,.13-.15c0-.19-.17,0-.21-.13h-.06C11.83,67.22,11.76,67.28,11.64,67.36Z"/><path class="cls-3" d="M4.09,83.17s0-.08,0-.09-.27-.06-.38.08h0a.5.5,0,0,0,.36,0Z"/><path class="cls-3" d="M7.38,77.85c0,.2-.27.28-.29.49L7,78.41a.13.13,0,0,0,0,.06c.1.09.13-.06.21-.06s.18-.13.24-.22a.41.41,0,0,0,.07-.11.06.06,0,0,0,0-.08c0-.08.13-.18,0-.24S7.44,77.83,7.38,77.85Z"/><path class="cls-3" d="M8.31,76.48h0a.11.11,0,0,1-.15,0H8.09c0,.14.06.29-.06.42A.23.23,0,0,0,8,77c-.06.08,0,.13.07.13h0l.06,0,0,0,0,0,0,0,0,0,.05-.06s.1-.09.07-.17v-.2l0,0S8.32,76.46,8.31,76.48Z"/><polygon class="cls-3" points="8.38 76.47 8.38 76.48 8.38 76.48 8.38 76.47"/><path class="cls-3" d="M78.12,38.26l-.12.06c-.07.09-.07.16,0,.2s.39.06.62,0c-.17,0-.3-.07-.26-.23h0a.16.16,0,0,0-.13,0,.15.15,0,0,0-.09,0Z"/><path class="cls-3" d="M77.2,36.61c0,.08,0,.11.1.12s.15,0,.16-.1-.06-.1-.15-.1A.1.1,0,0,0,77.2,36.61Z"/><path class="cls-3" d="M79.18,37.67v0L79,37.56H79c0,.11,0,.22.13.2l.07-.07Z"/><path class="cls-3" d="M3.91,105.89a.14.14,0,0,0-.25,0h0a.2.2,0,0,1,.06.07.46.46,0,0,0,.07.07C3.86,106,4,106,3.91,105.89Z"/><path class="cls-3" d="M99.22,80.32l.06,0s.13,0,.12-.09a.12.12,0,0,0-.14-.08C99.19,80.19,99.22,80.27,99.22,80.32Z"/><path class="cls-3" d="M95.84,84.88l-.13.08a.56.56,0,0,0-.36.07c0,.19,0,.19.21.14l.15-.08.42-.13s.11,0,.14-.07h0C96.13,84.76,96,84.84,95.84,84.88Z"/><path class="cls-3" d="M101.15,85.59c0,.17.17.1.27.06l0-.2-.09-.08-.06,0C101.28,85.48,101.18,85.51,101.15,85.59Z"/><path class="cls-3" d="M99.49,87.06a.4.4,0,0,1-.27.18c-.09.18-.34.12-.43.28a1.24,1.24,0,0,0-.44.47l-.78.63c-.06.07,0,.13,0,.16s.26-.09.35-.19a1.78,1.78,0,0,1,.6-.41c.11-.07.16-.18.25-.27s.2-.14.27-.23a.47.47,0,0,1,.1-.1.86.86,0,0,0,.38-.35,1,1,0,0,0,.37-.41c0-.06,0-.09-.09-.07A1.28,1.28,0,0,0,99.49,87.06Z"/><path class="cls-3" d="M99,91.46c0,.06,0,.13-.1.16a.12.12,0,0,0-.11.12.22.22,0,0,0,0,.08,1.42,1.42,0,0,1,0,.16.2.2,0,0,0,0,.08.3.3,0,0,0,0,.08c.08.12.09.28.26.34a.17.17,0,0,0,.08-.14c0-.18-.16-.36,0-.55a.4.4,0,0,1-.06-.28,0,0,0,0,0,0-.06h0C99.07,91.35,99,91.33,99,91.46Z"/><path class="cls-3" d="M99.28,90.2v-.13C99.2,90.11,99.2,90.16,99.28,90.2Z"/><path class="cls-3" d="M99.5,94.07h0a.16.16,0,0,0-.24,0C99.34,94.09,99.42,94.05,99.5,94.07Z"/><path class="cls-3" d="M102.78,65.51h.08c0-.06,0-.14,0-.15s.11,0,.15.09l0,0c.13,0,.13-.11.21-.14v-.07l0-.05c-.15-.09-.29-.18-.44,0A.37.37,0,0,0,102.78,65.51Z"/><path class="cls-3" d="M103.79,66.82h.07l.08-.06s.07-.1,0-.14-.15,0-.2,0S103.66,66.8,103.79,66.82Z"/><path class="cls-3" d="M103.4,66.15s0,0,.06,0,0-.16,0-.24A.15.15,0,0,0,103.4,66.15Z"/><path class="cls-3" d="M103.64,69.17a.79.79,0,0,0,.36.48c.07,0,.15.21.22,0a4.08,4.08,0,0,0-.43-.83c-.12-.08-.24,0-.35,0C103.38,69,103.56,69.06,103.64,69.17Z"/><path class="cls-3" d="M68,34.51a.68.68,0,0,0-.12.12v0c-.08.09-.16,0-.25,0a.17.17,0,0,0-.24.1.23.23,0,0,0,.07.07.18.18,0,0,0,.2,0,.19.19,0,0,1,.22.06.18.18,0,0,0,.26,0h0c0,.16.19.11.31.12s.21,0,.29.06-.11.1-.11.17a.1.1,0,0,0,0,.07c.07,0,.15,0,.2,0h0c.22.1.17-.16.29-.2v.06l.07-.07h0c.15-.08.28.13.44,0l0,0a.22.22,0,0,0,.21.05h.59c-.14-.19-.35-.07-.47-.2h0c-.09-.1-.2-.06-.3-.07s-.19-.1-.23-.2-.08,0-.1,0l0,.08c0,.07-.09,0-.15,0l-.09,0a1.36,1.36,0,0,1-.29-.06,1.2,1.2,0,0,0-.53-.11.11.11,0,0,0,0-.05c-.09-.06-.11-.18-.22-.23Z"/><path class="cls-3" d="M9.66,66.26h0c-.06-.08-.28-.13-.06-.28h0s0,0-.07-.07a.13.13,0,0,0,0-.06.49.49,0,0,0-.26-.1.14.14,0,0,0-.09,0c-.09,0-.14,0-.14.13s.3.07.29.28.06.12.13.15S9.61,66.34,9.66,66.26Z"/><path class="cls-3" d="M104.21,71.38c.09,0,.08-.14.08-.22a.13.13,0,0,0-.15.14Z"/><path class="cls-3" d="M104.29,70.82a.13.13,0,0,0,.07-.14s-.09-.05-.12,0S104.23,70.78,104.29,70.82Z"/><path class="cls-3" d="M104.4,71.22c0,.1.12.19.18.29h0a.05.05,0,0,0,0-.08V71.3c-.06,0,0-.15-.07-.2h-.07C104.43,71.11,104.35,71.12,104.4,71.22Z"/><path class="cls-3" d="M105.09,73.77c.1,0,.13,0,.13-.12a.34.34,0,0,1-.07-.11s0-.07-.07-.07-.06.06-.07.1S105.07,73.7,105.09,73.77Z"/><path class="cls-3" d="M95.21,50h.07c.2.05.14-.14.21-.21v-.05C95.21,49.71,95.21,49.71,95.21,50Z"/><path class="cls-3" d="M17.25,49.84h0c-.13,0-.12.06-.07.14h0s0,.11.06.15l.23.47a.17.17,0,0,1,.07.14l.14.07a.62.62,0,0,0,0,.13c.07,0,.06-.09,0-.13V50.6a4.15,4.15,0,0,1-.28-.69S17.28,49.89,17.25,49.84Z"/><path class="cls-3" d="M32,48c0,.06,0,.07.1.07s.07,0,.07-.07,0-.08-.09-.09S32,47.92,32,48Z"/><path class="cls-3" d="M45.77,36.88l-.07-.14c-.16-.09-.15.07-.21.13s-.12.17,0,.18S45.77,37.05,45.77,36.88Z"/><path class="cls-3" d="M100.06,65c.06,0,.07-.08.08-.14h0l-.07-.08a.83.83,0,0,0-.07-.13c-.12-.18-.34-.12-.5-.2s-.06.07-.07.13.3.1.43.21h0a.11.11,0,0,0,0,.09h0a.08.08,0,0,0,0,0c0,.05.11,0,.14.08Z"/><path class="cls-3" d="M99.82,65.13s.06,0,.07-.06a.09.09,0,0,0-.08-.1s-.09,0-.09.07A.12.12,0,0,0,99.82,65.13Z"/><path class="cls-3" d="M99.13,64.27a.29.29,0,0,0,.1,0,.06.06,0,0,0,0-.09s0-.06-.08,0,0,.06,0,.09S99.14,64.25,99.13,64.27Z"/><path class="cls-3" d="M92.53,100.93q0,.09.09.09a.05.05,0,0,0,.07,0c0-.07,0-.11-.1-.1S92.54,100.92,92.53,100.93Z"/><path class="cls-3" d="M91.43,101.64h0a.28.28,0,0,0,.07-.19C91.41,101.46,91.4,101.54,91.43,101.64Z"/><path class="cls-3" d="M6.74,64.54l-.08-.07a.5.5,0,0,0-.14-.1.09.09,0,0,0-.07,0v.14s0,0,0,.06l.13.08C6.68,64.67,6.82,64.71,6.74,64.54Z"/><path class="cls-3" d="M20.08,68.94c.09,0,.11-.12,0-.2s-.16,0-.22-.06h0a.38.38,0,0,0,0,.48.23.23,0,0,0,.07-.07C20,69,20,69,20.08,68.94Z"/><path class="cls-3" d="M14.81,66.88h0s.11,0,.15-.06h.22a.73.73,0,0,0,.64-.33c.12-.19,0-.15-.14-.15-.32.11-.71-.07-1,.21a2.13,2.13,0,0,1-.35.14,2,2,0,0,0-.22.09l0,0c.11.13.26.09.39,0A.42.42,0,0,1,14.81,66.88Z"/><path class="cls-3" d="M48.79,45.58c0,.16.15.21.33.25A.85.85,0,0,0,49,45.5a.1.1,0,0,0-.12,0A.11.11,0,0,0,48.79,45.58Z"/><path class="cls-3" d="M56.75,37.73a.12.12,0,0,0-.18,0c-.11.11.06.13.09.2h0C56.73,37.86,56.82,37.83,56.75,37.73Z"/><path class="cls-3" d="M56.43,37.22c-.11-.08,0-.24-.14-.4v.41c0,.05,0,.12.1.1S56.44,37.26,56.43,37.22Z"/><path class="cls-3" d="M56.37,36.19v-.08s-.11,0-.12,0a.16.16,0,0,0,0,.23h0S56.32,36.22,56.37,36.19Z"/><path class="cls-3" d="M49.09,52.51c0,.08.12.11.2,0s.09-.17.16-.16.17-.13.26-.19c-.07-.12-.18,0-.27-.06h0s0,0-.08.06a1.16,1.16,0,0,0-.24.14A.13.13,0,0,0,49.09,52.51Z"/><path class="cls-3" d="M48.77,47c0-.1-.13,0-.19,0l.07.13C48.73,47.08,48.82,47.05,48.77,47Z"/><path class="cls-3" d="M44.87,42.57c-.15,0-.14.08-.16.17a2.56,2.56,0,0,0-.56.15A.17.17,0,0,1,44,43c-.14.1-.29,0-.43,0s-.06.13-.08.2l.09.08.42-.15h.07c.16.08.32,0,.49,0a.14.14,0,0,1,0-.06,3,3,0,0,1,.68-.14c.17,0,.34-.19.29-.27s-.22,0-.34,0S45,42.59,44.87,42.57Z"/><path class="cls-3" d="M45,42.25h-.14C44.91,42.33,45,42.32,45,42.25Z"/><path class="cls-3" d="M41.64,43.36l-.07.08c-.13,0-.31.13-.4-.09l-.1.08s0,.09,0,.14a.1.1,0,0,0,0,.13h.27a.24.24,0,0,1,.22-.13h.22a.36.36,0,0,0,0-.09c0-.07,0-.13,0-.17A.1.1,0,0,0,41.64,43.36Z"/><path class="cls-3" d="M42.42,42.81h0s0,0,0,.06.18,0,.27,0C42.66,42.65,42.53,42.77,42.42,42.81Z"/><path class="cls-3" d="M43.75,42.74s0,0,0,0l0,0a0,0,0,0,0,0,.05S43.75,42.77,43.75,42.74Z"/><path class="cls-3" d="M47.36,38.66c.09,0,.07-.11.06-.19C47.21,38.49,47.32,38.58,47.36,38.66Z"/><path class="cls-3" d="M44,40.18V40h-.19s-.11,0-.11.12a.08.08,0,0,0,0,.07h0A.19.19,0,0,0,44,40.18Z"/><path class="cls-3" d="M42,42a.35.35,0,0,0,.07.26l0,0a.37.37,0,0,0,.17-.05l.07,0h0c.07-.08.19-.15.07-.27a.57.57,0,0,0-.22.11C42.1,42.12,42.06,42,42,42Z"/><path class="cls-3" d="M45.88,37.37c-.06-.11-.15,0-.24,0s0,.23.14.27S46,37.49,45.88,37.37Z"/><path class="cls-3" d="M60.46,37.21c.07.06,0,.17.13.21l0-.06c-.06-.08,0-.17-.06-.26A.13.13,0,0,0,60.46,37.21Z"/><path class="cls-3" d="M75.54,37.36c-.05,0-.11.06-.1.13a.18.18,0,0,0,.1.14c.13.06.2-.13.23-.1.18.12.14-.06.2-.11h0c-.09-.06-.21,0-.29-.06h-.14Z"/><path class="cls-3" d="M75.61,36.19s.1,0,.11-.08a.1.1,0,0,0-.1-.11c-.09,0-.18,0-.28,0A.3.3,0,0,0,75.61,36.19Z"/><path class="cls-3" d="M5.53,99.42a.81.81,0,0,1-.09-.1c-.1.07-.06.18-.07.27h0a.1.1,0,0,1,0,.07.25.25,0,0,0,0,.07h0C5.72,99.61,5.72,99.59,5.53,99.42Z"/><path class="cls-3" d="M96.5,83.93V84c0,.08.1.15.21.07h0C96.71,83.92,96.62,83.9,96.5,83.93Z"/><path class="cls-3" d="M97.94,87.87c.15-.2.36-.36.41-.63a1.61,1.61,0,0,0-.5.35C97.84,87.69,97.76,87.81,97.94,87.87Z"/><path class="cls-3" d="M94.63,85.44l.08-.06v-.15h-.15C94.52,85.32,94.43,85.43,94.63,85.44Z"/><path class="cls-3" d="M97.13,83.59a.35.35,0,0,0-.28.06c0,.2.13.1.22.07Z"/><path class="cls-3" d="M94.27,81a.13.13,0,0,0-.07-.13c-.09.05-.16.14-.28.14a.91.91,0,0,0,.07.14C94.12,81.13,94.19,81,94.27,81Z"/><path class="cls-3" d="M97.79,97.72h0a.08.08,0,0,0,.14,0l.07-.07c0-.13,0-.21-.2-.12Z"/><path class="cls-3" d="M73.43,36.24c0,.08.08.09.11.14a.13.13,0,0,0,.2,0c.1-.11,0-.14-.07-.2h-.06C73.54,36.2,73.45,36.16,73.43,36.24Z"/><path class="cls-3" d="M68.73,34.74l.08.07c.1,0,.22,0,.21-.14a.44.44,0,0,0-.28-.07A.11.11,0,0,0,68.73,34.74Z"/><path class="cls-3" d="M73.9,36.47c.08.26.13,0,.2,0v-.06c0-.07,0-.14-.11,0A.45.45,0,0,0,73.9,36.47Z"/><path class="cls-3" d="M102.5,67.23c0,.15.12.13.22.14h0a.12.12,0,0,0,0-.15l-.08,0C102.56,67.13,102.53,67.17,102.5,67.23Z"/><path class="cls-3" d="M102.24,67.26c-.18,0-.37,0-.31.25h0c.08.07.2,0,.29.06h0a.23.23,0,0,0,.07.07h0l.13,0s.15.06.14-.06-.06-.09-.12-.09-.15,0-.15-.14Z"/><path class="cls-3" d="M102.37,68.19a.23.23,0,0,0-.15-.07s0,.07-.08,0,0,0,0-.08,0-.07,0-.1,0,0-.07-.06-.12-.14-.18-.21-.09-.08-.15,0a.11.11,0,0,0,0,.16.64.64,0,0,1,.2.49h0a.15.15,0,0,0,.11,0c.07,0,.07.07.1.1s0-.2.21-.17S102.41,68.23,102.37,68.19Z"/><path class="cls-3" d="M71.09,37s0-.07-.06-.07-.11.05-.15.12a.07.07,0,0,1,0,0l0,0s0,0,0,0S71.1,37.06,71.09,37Z"/><path class="cls-3" d="M9.67,64.71a.07.07,0,0,0-.07.06c0,.09.05.1.13.11s0,0,0,0S9.74,64.71,9.67,64.71Z"/><path class="cls-3" d="M104.51,72.54l-.15-.14-.07-.06c-.08,0-.07.13-.07.2l.07.14h.3a.64.64,0,0,1,0-.07Z"/><path class="cls-3" d="M81.31,52.89c.06.09.11.17.23.13a.14.14,0,0,0,.14-.06l-.14-.15h-.15C81.33,52.8,81.31,52.84,81.31,52.89Z"/><path class="cls-3" d="M85.9,54c0,.11.12.13.22.07s-.1-.14-.2-.13S85.88,54,85.9,54Z"/><path class="cls-3" d="M75.82,43.63l.08-.06c0-.09.12-.19-.07-.2S75.7,43.54,75.82,43.63Z"/><path class="cls-3" d="M16.1,60.82,16,60.61c-.18,0-.18.14-.28.28C15.85,60.85,16,61.06,16.1,60.82Z"/><path class="cls-3" d="M16.15,61.28c0-.05,0-.09-.12-.1s-.1.09-.1.15,0,.16.1.14A.16.16,0,0,0,16.15,61.28Z"/><path class="cls-3" d="M17.75,62.55a.2.2,0,0,0-.18-.22c-.05,0-.09,0-.1.08s.12.25.2.24S17.74,62.59,17.75,62.55Z"/><path class="cls-3" d="M13.52,56.81c.05.08.09,0,.14,0S13.56,56.75,13.52,56.81Z"/><path class="cls-3" d="M14.87,54.2h0c0-.07,0-.14,0-.21s-.13-.16-.14-.27a.34.34,0,0,1-.14-.15l-.07-.07h0s0,0,0-.06a.16.16,0,0,0-.12,0s0,0-.06,0h0c0-.12-.07-.11-.15-.07l-.06,0a1,1,0,0,0,.41.61h0s0,0,0,.06h0l.08.1a.05.05,0,0,1,0,0l.08.13C14.79,54.33,14.88,54.34,14.87,54.2Zm-.55-.69h0Z"/><path class="cls-3" d="M10.53,58.4h0s0,.08.09,0Z"/><path class="cls-3" d="M17.88,54.6v-.4c-.22.16-.24.28-.07.47h0a.27.27,0,0,0,.08-.07Z"/><path class="cls-3" d="M30.81,44.94a.74.74,0,0,0-.69.21l-.28.07c-.09,0-.11,0-.15.07a1.75,1.75,0,0,1-.64.14.18.18,0,0,1-.09.06H28.9s0,0-.07.06h0c-.13,0-.29,0-.38.11.1.07.21,0,.31,0l.08-.06.14,0a.24.24,0,0,0,.16-.05h0l.12,0a.14.14,0,0,0,.15-.06c.14,0,.28-.07.42,0s.18-.16.32-.17a3.58,3.58,0,0,0,.45-.09,1.23,1.23,0,0,0,.38-.08C31.06,45,30.92,45,30.81,44.94Z"/><path class="cls-3" d="M36.19,43.91c.21-.22,0-.24-.15-.24s-.24,0-.33.12-.28.15-.43.2-.14.21.07.17.47-.12.7-.18h0Z"/><path class="cls-3" d="M33.12,44.18c0,.1-.4,0-.14.22h.07a1.11,1.11,0,0,1,.39-.2c.11,0,.19-.09.18-.21a.1.1,0,0,0-.14,0,.35.35,0,0,1-.28.14Z"/><path class="cls-3" d="M34.91,43.23h-.06s-.07,0-.08.06.1.1.16.05S34.92,43.26,34.91,43.23Z"/><path class="cls-3" d="M39.78,43.15a.89.89,0,0,1-.43.15,2.15,2.15,0,0,1-.57.13.06.06,0,0,0,0,.06.07.07,0,0,0,0,0c0,.08-.06,0-.07.07-.21.15-.49.18-.67.37H38s-.07,0-.07.07a.6.6,0,0,0,.08.08c.09,0,.21-.06.26.08s.1.06.15,0a.38.38,0,0,0,.15-.18l0,0a0,0,0,0,1,0,0c.19-.11.41,0,.61-.05s.11-.41.39-.42h.07a.34.34,0,0,0,.19-.14h.06a.46.46,0,0,1,.07-.07h0C40,43.15,39.94,43.09,39.78,43.15Z"/><path class="cls-3" d="M39.86,44.12c0,.05,0,.09,0,.14a.47.47,0,0,0,.21.06c0-.14,0-.27,0-.41a.15.15,0,0,0-.14.07C39.86,44,39.89,44.08,39.86,44.12Z"/><path class="cls-3" d="M44.93,38.46v-.14l-.07-.08c-.18,0-.13.12-.08.22h0c.06,0,0,.17.14.14h0s0,0,0,.06.13.27.2,0C45.06,38.61,45.05,38.49,44.93,38.46Z"/><path class="cls-3" d="M99.35,67.55s.05.07.08.1h.06a.11.11,0,0,0,.15,0c.12-.09,0-.13-.06-.14h-.1S99.36,67.47,99.35,67.55Z"/><path class="cls-3" d="M95.56,64.68a4.43,4.43,0,0,0,.8.27.18.18,0,0,0,.19,0,.18.18,0,0,1-.13-.08l-.08-.07c-.13-.06-.32,0-.42-.14l-.07-.06h-.07a.15.15,0,0,0-.21,0h0A.1.1,0,0,0,95.56,64.68Z"/><path class="cls-3" d="M98.9,67.59c-.16,0-.28,0-.38.12C98.67,67.7,98.78,67.75,98.9,67.59Z"/><path class="cls-3" d="M98.64,67.37a.15.15,0,0,0,.07-.13c-.15,0-.15,0-.14.06a.46.46,0,0,1,.07.07Z"/><path class="cls-3" d="M100.71,67.23c-.11,0-.23-.14-.29.06s0,.15.08.22c-.11,0-.22,0-.27.12h0l.15.07.07-.06v-.14c.12.14.24.09.35,0s.12,0,.18-.11l-.17-.09C100.79,67.3,100.74,67.29,100.71,67.23Z"/><path class="cls-3" d="M99.24,66.42a0,0,0,0,0,0,0c.09,0,.08,0,.09-.1S99.23,66.34,99.24,66.42Z"/><path class="cls-3" d="M93.49,62.4h0s0,0,0,0h0l.06-.07v-.06C93.52,62.26,93.41,62.24,93.49,62.4Z"/><path class="cls-3" d="M94.05,63.34v0h0s0,.06.06.08l.09,0h0l0,0s0,0,0,0,.12,0,.12-.06-.18-.21-.33-.19S94,63.31,94.05,63.34Z"/><path class="cls-3" d="M92.78,99.9c-.26-.08-.22.1-.22.24s.25-.08.38-.08.22-.11.18-.26S92.92,99.94,92.78,99.9Z"/><path class="cls-3" d="M20,67.58v.06c.07,0,.09.16.21.14S20.13,67.56,20,67.58Z"/><path class="cls-3" d="M12.38,65.78c0,.1,0,.2.15.21a.06.06,0,0,0,.07,0s0-.06.07-.09h.06c.09-.1,0-.15-.06-.2h-.14s-.11,0-.15.06Z"/><path class="cls-3" d="M13,66.68h0a.38.38,0,0,0-.36,0A1.45,1.45,0,0,0,13,66.68Z"/><path class="cls-3" d="M13.1,66.54c0,.07.08.07.14.07A.13.13,0,0,0,13.1,66.54Z"/><path class="cls-3" d="M59.09,52.19a.1.1,0,0,0-.12,0l-.13.24a.14.14,0,0,0,0,.09q.1.16.24,0l.08-.12C59.15,52.37,59.2,52.26,59.09,52.19Z"/><path class="cls-3" d="M53.58,48.46s0-.1-.08-.13h0a.08.08,0,0,0-.13,0h0a.45.45,0,0,0-.08.27c.15.13.25,0,.36-.06Z"/><path class="cls-3" d="M51.17,49.33c.08-.09,0-.17,0-.24C51,49.13,51.06,49.22,51.17,49.33Z"/><path class="cls-3" d="M58,37.77c.11,0,.15.18.3.18,0-.15,0-.26-.09-.38C58,37.53,58,37.54,58,37.77Z"/><path class="cls-3" d="M47.66,54.23a.11.11,0,0,0,.11.14c.13,0,.07-.11.08-.17h0C47.79,54.22,47.69,54.09,47.66,54.23Z"/><path class="cls-3" d="M48.65,55.48a.11.11,0,0,0,0,.08c0,.08.12.1.18.15h0a.23.23,0,0,1,.07.07.32.32,0,0,1,.15.13c.1,0,.14,0,.14-.13l-.29-.34c0-.1-.15-.09-.21-.15h0a.15.15,0,0,0-.07.14Z"/><path class="cls-3" d="M96.63,91c-.09,0-.16.06-.12.12.16.22,0,.26-.16.29l-.07.07c0,.06-.11.09-.09.17a1.42,1.42,0,0,0,.54-.22A.33.33,0,0,0,96.63,91Z"/><path class="cls-3" d="M97.43,91h0a.11.11,0,0,1,0,.15h0a.08.08,0,0,0,0,.14h0c.11.05.2.08.16-.1a.1.1,0,0,1,0-.11c0-.11,0-.22-.07-.33C97.37,90.68,97.36,90.7,97.43,91Z"/><path class="cls-3" d="M96.07,90.21c0,.06,0,.11.09.12s.11-.06.12-.13S96.14,90.19,96.07,90.21Z"/><path class="cls-3" d="M97.2,89l.08.13.07,0a.66.66,0,0,0,0-.14s0-.1,0-.09S97.23,88.93,97.2,89Z"/><path class="cls-3" d="M97.82,88l0,0S97.83,88,97.82,88Z"/><path class="cls-3" d="M93.41,90.89v-.06c-.1,0-.2,0-.2.13s.12.16.16,0C93.37,90.92,93.4,90.91,93.41,90.89Z"/><path class="cls-3" d="M93.17,90.22a.09.09,0,0,0,0,0s0-.06,0,0,0,0,0,.05Z"/><path class="cls-3" d="M93.56,80.89h0c0-.06-.07-.13-.14-.16a.08.08,0,0,0-.08,0,.19.19,0,0,0-.08.28h.55C93.71,80.94,93.6,81,93.56,80.89Z"/><path class="cls-3" d="M97.56,89.45a.31.31,0,0,0,.09.19.15.15,0,0,0,0-.23S97.59,89.41,97.56,89.45Z"/><path class="cls-3" d="M72.24,36.88l.22.07c.08-.09.17-.17-.06-.16,0,0-.06,0-.08,0S72.22,36.81,72.24,36.88Z"/><path class="cls-3" d="M102.13,66.65c-.07.12.11.08.13.14l0,0h0c.07-.06.11-.13,0-.19S102.15,66.59,102.13,66.65Z"/><path class="cls-3" d="M101.5,67.51s.11,0,.14.06h0c.08-.06.11-.14,0-.19s-.15,0-.15.13Z"/><path class="cls-3" d="M103.21,69.37c-.1-.06-.14,0-.15.08a.13.13,0,0,1,0,.06s.06.06.05.08-.06.21.08.24.22,0,.23-.18S103.22,69.51,103.21,69.37Z"/><path class="cls-3" d="M69,46.7a.66.66,0,0,0,0,.58l0,0a.11.11,0,0,0,.12,0,.15.15,0,0,0,0-.13s-.08,0,0-.07l.09,0c.2-.38.19-.52-.06-.65h0a.08.08,0,0,0-.13,0A.73.73,0,0,1,69,46.7Z"/><path class="cls-3" d="M68.35,46s-.07.05-.11.08a.46.46,0,0,1-.07.07c0,.06,0,.16.11.09s.07-.11.09-.17S68.39,46,68.35,46Z"/><path class="cls-3" d="M68,45.57v.06l.07.08.14-.08s0,0,0-.06h0l-.06-.08h0C68.09,45.46,68.06,45.51,68,45.57Z"/><path class="cls-3" d="M103.44,70.2h0c0-.08,0-.18-.12-.24C103.28,70.09,103.27,70.18,103.44,70.2Z"/><path class="cls-3" d="M81.38,51.21a.14.14,0,0,0,0,.06.08.08,0,0,0,0,.07l0,0h.14l.06-.07s0-.09,0-.13h-.18Z"/><path class="cls-3" d="M83.94,53.25h0s0-.05,0,0v0S83.93,53.25,83.94,53.25Z"/><path class="cls-3" d="M84.41,57.13a.11.11,0,0,0,0,.08.24.24,0,0,0,.06.08l.12.08c.22.12.47.22.68.35a3.07,3.07,0,0,1,.31.17c.08,0,.17.09.25,0a.16.16,0,0,0,0-.26h0a.44.44,0,0,0-.2-.11.46.46,0,0,0-.23,0l-.29-.21s-.11,0-.14-.07h0a.35.35,0,0,0-.42-.14Z"/><path class="cls-3" d="M74.39,47.77c0-.08,0-.16-.07-.2S74.3,47.72,74.39,47.77Z"/><path class="cls-3" d="M79,46.68v.06s.1.08.16,0,0-.12,0-.19l-.06,0A.12.12,0,0,0,79,46.68Z"/><path class="cls-3" d="M23.23,62.89c.05-.15,0-.2-.25-.2h0a.21.21,0,0,0,.14.26S23.22,63,23.23,62.89Z"/><path class="cls-3" d="M20.39,65.15l.25-.11c.12,0,.22-.07.16-.2s-.16-.06-.25,0-.25.12-.37.19C20.12,65.26,20.31,65.13,20.39,65.15Z"/><path class="cls-3" d="M15.29,66.14l-.26,0h0C15.09,66.21,15.16,66.22,15.29,66.14Z"/><path class="cls-3" d="M14.67,66.33v-.14H14.6C14.55,66.27,14.51,66.35,14.67,66.33Z"/><path class="cls-3" d="M19.83,65.31c.05.08.14,0,.21.06h.06C20,65.27,19.92,65.3,19.83,65.31Z"/><path class="cls-3" d="M19.52,52.81s0,0,0,0l0,0v0S19.52,52.84,19.52,52.81Z"/><path class="cls-3" d="M34.5,45l-.08,0-.07.06v0a.56.56,0,0,0,.62,0c.15-.09,0-.11-.05-.17h-.14A.77.77,0,0,1,34.5,45Z"/><path class="cls-3" d="M32.61,44.36l-.13,0h-.07l-.08,0c-.09,0-.2,0-.28.07H32a1,1,0,0,0-.65.27.35.35,0,0,0-.12.07.18.18,0,0,0-.07,0,.18.18,0,0,0-.07,0l0,0,.14.13h.08a.46.46,0,0,1,.43-.2l.43-.21h.06a.22.22,0,0,0,.22,0h0c.15,0,.3,0,.44-.06S32.8,44.28,32.61,44.36Z"/><path class="cls-3" d="M34,44.23c0-.06-.1,0-.15,0a1.76,1.76,0,0,1-.45.12c-.12,0-.08.08-.06.14h.14c.08-.07.2,0,.29-.07h0a.2.2,0,0,1,.15-.07S34,44.27,34,44.23Z"/><path class="cls-3" d="M31.2,44.55c-.06.06-.15,0-.22.06l-.07.13h0a.15.15,0,0,0,.21,0C31.13,44.67,31.32,44.67,31.2,44.55Z"/><path class="cls-3" d="M34.2,49a.23.23,0,0,1,.14.13.23.23,0,0,0,.06.12l.1.09c.08.08.2.11.28.19h-.19l-.1,0h0a.23.23,0,0,0-.07-.17h0a.39.39,0,0,0-.12.19c-.09.17,0,.15.13.14h.08a11.21,11.21,0,0,0,1.42,0c.07,0,.22,0,.15.11s0,.23-.14.3l-.07.07h0a.26.26,0,0,1-.14.21c0,.09.12.06.2.05s.05-.27.21-.34h0l0-.07v0c0-.09,0-.15.09-.21l.07,0a.23.23,0,0,0,.15-.15c0-.12-.06-.17-.18-.12a2.43,2.43,0,0,1-.85-.06v-.07a.18.18,0,0,0-.09-.06h-.12c-.14,0-.31,0-.37-.13s-.18-.06-.27-.09l-.07-.06h0c0-.05-.1,0-.14-.08h0a.12.12,0,0,1-.07-.07h0a.12.12,0,0,0-.15,0Z"/><path class="cls-3" d="M33.2,49.9l.14,0h0a0,0,0,0,0,0,0l.08-.06a.93.93,0,0,0,.49-.08c-.13-.13-.29,0-.43-.06h-.27C33.11,49.72,33.13,49.81,33.2,49.9Z"/><path class="cls-3" d="M31.91,49.84v.07h0a.38.38,0,0,1,.14.14h0c.24.08.17-.12.21-.22s-.17-.13-.28-.06,0,0-.07.06Z"/><path class="cls-3" d="M37.63,43.7c0-.08,0-.13-.14-.13s0,.15.06.2l.08-.06Z"/><path class="cls-3" d="M39.56,43.71h0l.16-.12C39.54,43.59,39.54,43.59,39.56,43.71Z"/><path class="cls-3" d="M101.24,66.72a.06.06,0,0,0-.06.07c0,.06.07.08.14.09h0s0,0,0-.06S101.31,66.72,101.24,66.72Z"/><path class="cls-3" d="M93.25,64.26a.18.18,0,0,0,.07,0c.07,0,.15,0,.21.07a.83.83,0,0,0,.16.09c.15,0,.22.13.3.24s.05,0,.08,0c.28,0,.15.21.24.31a.51.51,0,0,0,.24.17c.2,0,.26-.06.24-.21h0l.13.07c.1,0,.15.16.28.17h0c0,.21.17.23.33.25l0,0s0,0,0,0,0,0,0,0l.06,0,.07,0h.05v0H96a.16.16,0,0,0,0,.09.12.12,0,0,0,.14,0h0s0,0,0,0c.06.26.29.34.49.45s.28.33.54.27h.21c.09,0,.24.05.3-.1a.3.3,0,0,0-.28-.09.45.45,0,0,1-.45-.2.43.43,0,0,0-.14-.13.24.24,0,0,1-.09-.08.21.21,0,0,1,0-.06,1.1,1.1,0,0,1,0-.18s0-.05,0-.07a.25.25,0,0,0-.22,0l-.17.06c0-.06,0-.1-.09-.14.13-.1.18-.21.07-.35h-.07C96,65,96,64.91,95.77,65c0,0-.11,0-.17,0s-.35-.11-.53-.15l-.15-.08c-.06,0-.07-.06-.08-.11a1.31,1.31,0,0,1-.42-.49c0-.13-.13-.2-.22-.28h-.06c-.18,0-.14.13-.13.23s.11.13.17.2a2.22,2.22,0,0,1-.48-.27c-.15-.07-.21-.22-.33-.32l-.1,0a.31.31,0,0,0-.19,0l-.08,0a.24.24,0,0,0,0,.14c0,.08.09.12.15.17A.29.29,0,0,1,93.25,64.26Z"/><path class="cls-3" d="M88.46,59.7c0,.14,0,.28.16.35a4.87,4.87,0,0,0,1,.47.15.15,0,0,0,.13-.07.15.15,0,0,0,0-.09.13.13,0,0,0-.06-.07c-.11-.07-.08-.21-.16-.3s-.2-.1-.3-.05-.25,0-.33-.17-.1-.17-.22-.18a.21.21,0,0,0-.19,0A.11.11,0,0,0,88.46,59.7Z"/><path class="cls-3" d="M90.14,60.05a.12.12,0,0,0,.13-.13l-.07-.07a.18.18,0,0,0-.15.07s0,.1.08.13Z"/><path class="cls-3" d="M92.06,61.92a1.24,1.24,0,0,1,.29.27c.09.06.2.07.28.14h.14v-.06l-.07-.08h0a2.3,2.3,0,0,0-.56-.35C92.07,61.82,92,61.85,92.06,61.92Z"/><path class="cls-3" d="M87.52,94.69l0,0-.08.05-.06.06c-.12,0-.11.07-.07.15h0a.36.36,0,0,1,.1.14.48.48,0,0,0,.06.14.34.34,0,0,0-.15.07v.13c.07.21.07.21.25.09l.09,0,.09-.06c0-.08,0-.1-.08-.14h0a.31.31,0,0,0-.1,0,.65.65,0,0,0,.11-.15h0A.23.23,0,0,1,87.7,95a.6.6,0,0,1,.35-.08v-.13a.15.15,0,0,0-.13,0C87.78,94.8,87.68,94.63,87.52,94.69Z"/><path class="cls-3" d="M87.78,95.44s.09,0,.09-.08-.05,0-.09,0S87.73,95.4,87.78,95.44Z"/><path class="cls-3" d="M23,68.27a.14.14,0,0,0-.14.06h0l.07.07.07.07c.09,0,.22,0,.15-.14l0,0a.13.13,0,0,0-.08,0Z"/><path class="cls-3" d="M20.39,72.54c.08-.06.17,0,.26,0s.05,0,.06-.05v0h0s0,0,0-.06v0a.12.12,0,0,1,0-.1l.06,0c.1-.1.24-.16.23-.33a.15.15,0,0,0-.15-.07h0s-.11,0-.15.07h0s-.05,0-.06.07a.55.55,0,0,0-.24.18.28.28,0,0,1-.33.1.14.14,0,0,1,0,.06.19.19,0,0,1-.14.2.38.38,0,0,0,0,.42C20.16,72.83,20.23,72.63,20.39,72.54Z"/><path class="cls-3" d="M19.68,73.5s.05-.08.07-.13-.18-.06-.28-.06l0,0C19.51,73.43,19.49,73.61,19.68,73.5Z"/><polygon class="cls-3" points="19.96 72.89 19.97 72.89 19.96 72.89 19.96 72.89 19.96 72.89"/><path class="cls-3" d="M20,72.91v0S19.93,72.91,20,72.91Z"/><path class="cls-3" d="M23,70.36c0-.08.09-.23-.11-.24h-.06l-.07.07h0c0,.09,0,.2.07.27h0S23,70.46,23,70.36Z"/><path class="cls-3" d="M8.32,79.54a.24.24,0,0,0-.29,0,.38.38,0,0,0,.28.15h0C8.32,79.66,8.4,79.59,8.32,79.54Z"/><path class="cls-3" d="M64.21,60v0c.12-.18,0-.38.06-.56l0-.09h0a.07.07,0,0,1,0-.08c0-.06,0-.12,0-.17h0c-.1-.08-.21-.16-.34-.05a1,1,0,0,0,.06.39.18.18,0,0,1,0,.22.13.13,0,0,1,0,.06c-.06.13-.08.25,0,.34l.1,0h.09S64.24,60,64.21,60Z"/><path class="cls-3" d="M52.43,57h0c0,.08.13.07.21.06v-.12h-.07S52.48,56.91,52.43,57Z"/><path class="cls-3" d="M65.49,61.08c0-.08-.14-.06-.22,0a.15.15,0,0,0-.15.11.08.08,0,0,0,0,.08.36.36,0,0,0,.3-.06A.08.08,0,0,0,65.49,61.08Z"/><path class="cls-3" d="M65.38,53.15c.11.07,0,.2.1.3.06-.08,0-.18.11-.23s0,0,0-.06a.17.17,0,0,0-.19-.16C65.36,53,65.39,53.1,65.38,53.15Z"/><path class="cls-3" d="M53.22,56.81h-.07c.07.1.18.07.27.06S53.29,56.82,53.22,56.81Z"/><path class="cls-3" d="M49.58,56.6s.08.1.12.1.08-.09.08-.16-.05-.09-.07-.14-.14,0-.14.08Z"/><path class="cls-3" d="M38.18,52.58a.51.51,0,0,1,.24,0h.06c.08-.21-.11-.16-.21-.21s-.13,0-.19,0a.42.42,0,0,0-.14.09l0,0A.18.18,0,0,0,38.18,52.58Z"/><path class="cls-3" d="M41.46,49.18c-.09-.12-.18,0-.31,0,.12.08.21.12.31,0A.06.06,0,0,0,41.46,49.18Z"/><path class="cls-3" d="M41.8,48.47c-.11,0-.29,0-.29-.08s-.11-.11-.2-.13a.14.14,0,0,1-.11-.07c-.08,0-.15-.1-.22,0s-.09.15,0,.22a.5.5,0,0,0,.13.12c.13,0,.19.12.29.19a.4.4,0,0,0,.49,0c0-.05.08-.09.06-.16A.11.11,0,0,0,41.8,48.47Z"/><path class="cls-3" d="M13.51,82.76a.16.16,0,0,1,0-.14c0-.1-.06-.13-.15-.14s-.24,0-.12.18a1,1,0,0,1,.13.16C13.39,82.82,13.47,82.84,13.51,82.76Z"/><path class="cls-3" d="M8.89,98.29c-.1,0-.14,0-.15.12h.14S9,98.33,8.89,98.29Z"/><path class="cls-3" d="M97.57,72.91a3,3,0,0,1-.52-.07.27.27,0,0,0-.2,0c-.06.11-.48.06-.18.34l.09,0a.32.32,0,0,1,.21.1.34.34,0,0,0,.38,0c.28,0,.52-.17.8-.14,0-.1.19-.14.19-.28h0a.28.28,0,0,0-.28,0c-.13,0-.28,0-.41,0Z"/><path class="cls-3" d="M84.34,93.23l.09.06c.17.1.18.09.2-.09a.34.34,0,0,0,0-.1h-.07C84.37,93,84.35,93,84.34,93.23Z"/><path class="cls-3" d="M85.77,93.75c0-.06,0-.12-.1-.12s-.06,0,0,.07a.11.11,0,0,0,.09.12A.07.07,0,0,0,85.77,93.75Z"/><path class="cls-3" d="M92.51,92.31c-.07-.13-.23,0-.31-.1s-.12-.26-.28-.28-.18,0-.2.09.06.11.13.13a.25.25,0,0,1,.18.23c0,.2.13.16.25.18a1.85,1.85,0,0,1,.14-.14S92.51,92.37,92.51,92.31Z"/><path class="cls-3" d="M93.83,91.78v-.12a.07.07,0,0,0-.06-.07c-.06-.06-.12-.11-.21-.07h0c-.11.06-.08.14,0,.21s0,0,0,.06h.07a.15.15,0,0,0,0,.07h.2S93.83,91.81,93.83,91.78Z"/><path class="cls-3" d="M91.7,86.07h.13a1.09,1.09,0,0,0,.17-.13c0-.05,0-.1,0-.12S91.7,85.89,91.7,86.07Z"/><path class="cls-3" d="M92.68,85.12a0,0,0,0,0,0,0l0,0s0,0,0,0S92.66,85.13,92.68,85.12Z"/><path class="cls-3" d="M91.2,78.82c.14,0,.15.17.16.31l.16-.21,0-.17C91.39,78.76,91.27,78.72,91.2,78.82Z"/><path class="cls-3" d="M90.85,81.53s0,.09.07.09l0,0a.09.09,0,0,0,0-.11l-.08,0h0A.28.28,0,0,0,90.85,81.53Z"/><path class="cls-3" d="M20,89.38a.28.28,0,0,0,.21-.21h0a.09.09,0,0,0,0-.09c-.12-.16-.22-.1-.3,0l-.09,0-.08.07-.06.07c-.06.15,0,.18.15.15Z"/><path class="cls-3" d="M14.53,87.79l.15.13.33-.07C14.86,87.74,14.69,87.81,14.53,87.79Z"/><path class="cls-3" d="M12.31,85.24c-.1,0-.14,0-.14.13S12.31,85.33,12.31,85.24Z"/><path class="cls-3" d="M70.53,41.36l.08.06.13.14h0l.08-.06h0c.1-.16,0-.2-.13-.28l-.32,0C70.39,41.29,70.5,41.28,70.53,41.36Z"/><path class="cls-3" d="M69.24,46.19c.1,0,.16,0,.15-.09s0-.19-.15-.12Z"/><path class="cls-3" d="M68,49.36c.07,0,.15,0,.2-.06l-.07-.07C68,49.23,67.87,49.18,68,49.36Z"/><path class="cls-3" d="M81.51,51.73a.15.15,0,0,0,0-.23C81.48,51.58,81.44,51.65,81.51,51.73Z"/><polygon class="cls-3" points="81.48 51.5 81.48 51.5 81.47 51.5 81.48 51.5"/><path class="cls-3" d="M86.12,57.92v0a.12.12,0,0,0,.05,0l.08,0,.1,0,0,0,.07,0a.1.1,0,0,0,.07,0s0,0,0,0a.54.54,0,0,0,.4.25c.13,0,.25.12.39.16a.36.36,0,0,0,.23,0c.07,0,.16,0,.21-.06s0,0-.07-.07l-.15-.08a.37.37,0,0,0-.21-.06c-.08-.06-.2-.1-.24-.18s-.29-.2-.49-.18l-.13,0c-.06-.06-.16,0-.22-.07h0C86.2,57.86,86.15,57.86,86.12,57.92Z"/><path class="cls-3" d="M87.22,58a.08.08,0,0,0,.09.07.13.13,0,0,0,.1-.12c0-.05,0-.08-.09-.06A.11.11,0,0,0,87.22,58Z"/><path class="cls-3" d="M83.8,56.63a.36.36,0,0,0,.39.25.16.16,0,0,0,.15-.07l-.07-.07-.08-.06h-.06l-.08-.06H84a.18.18,0,0,1-.08-.07h0a.07.07,0,0,0-.06,0A.12.12,0,0,0,83.8,56.63Z"/><path class="cls-3" d="M83.27,55.84l.21.08.07.06h0a.46.46,0,0,0,.07.07h0a.11.11,0,0,0,.09,0,0,0,0,0,0,0,0v0l.06.08c.07.05.12.12.19.18h0a.91.91,0,0,1,.36.06h.06c.08,0,.14,0,.08-.12s-.1-.15-.15-.23l-.13-.07v-.14s0,0,0,0v0a.16.16,0,0,0-.18-.07h0a.36.36,0,0,0-.31-.11C83.49,55.72,83.34,55.67,83.27,55.84Z"/><path class="cls-3" d="M74.78,42.9a.09.09,0,0,0,.08.09.08.08,0,0,0,.1-.06.09.09,0,0,0-.1-.11A.06.06,0,0,0,74.78,42.9Z"/><path class="cls-3" d="M78.79,48.36l0,0h0Z"/><path class="cls-3" d="M24.62,62.34c.07-.08.18,0,.26-.08a.28.28,0,0,0,.1-.09s0,0,0,0h.05a.08.08,0,0,0,.08,0l.12-.07c.1-.09.28-.12.31-.29h0l0,0c.14-.19.14-.19-.07-.21l-.07.07h0a.85.85,0,0,0-.42.22l-.08.06h0s0,0,0,0H24.9l0,0a0,0,0,0,0-.06,0h0a.13.13,0,0,1,0,.06h0c-.12,0-.19.09-.27.15l-.07.07a.14.14,0,0,0,.14.07Z"/><path class="cls-3" d="M19.1,55.64h0l0,0s0,0,0,0l0,0a.17.17,0,0,0,0-.17h0c-.08,0-.11-.16-.22-.14v.07c.1.08.07.24.22.28h0a.33.33,0,0,0,.07.27C19.25,55.82,19.14,55.73,19.1,55.64Z"/><path class="cls-3" d="M20.47,55.7a.3.3,0,0,1-.15-.12h-.07a.05.05,0,0,0-.08,0,.18.18,0,0,0,0,.14c0,.12.15.15.25.21h0l.08.06h0s0,.11.07.14h0c.09.08,0,.25.22.27s.13.12.14.21,0,.26.25.26c0-.13,0-.26,0-.39A7.57,7.57,0,0,0,20.47,55.7Z"/><path class="cls-3" d="M37.06,48.68l.07-.08a.14.14,0,0,0-.08-.14l-.28.22c-.08.17.07.12.15.14A.38.38,0,0,0,37.06,48.68Z"/><path class="cls-3" d="M38.29,43.52l-.09,0h0l.07,0Z"/><path class="cls-3" d="M94.7,67.85a1.16,1.16,0,0,0-.22-.13,2.09,2.09,0,0,0-.66,0,.14.14,0,0,0-.08.07.28.28,0,0,0,0,.09c.1.12.25.1.37.13s.18,0,.23.09S94.57,67.93,94.7,67.85Z"/><polygon class="cls-3" points="93.71 66.89 93.7 66.89 93.71 66.89 93.71 66.89"/><path class="cls-3" d="M93.8,66.91l-.09,0S93.75,67,93.8,66.91Z"/><path class="cls-3" d="M94.57,65.78c0-.06,0-.08-.06-.1a.08.08,0,0,0-.08,0l-.09.13C94.46,66,94.53,65.93,94.57,65.78Z"/><polygon class="cls-3" points="93.27 66.82 93.28 66.82 93.28 66.82 93.27 66.82"/><path class="cls-3" d="M93.13,66.61v.06s0,.06,0,.08a.19.19,0,0,0,.14.07h0c0,.1-.22,0-.27.16a.84.84,0,0,0,.47,0c0-.06.13-.06.16-.14-.16,0-.12-.2-.23-.26S93.23,66.61,93.13,66.61Z"/><path class="cls-3" d="M94.63,66.27l.07.07a.06.06,0,0,0,.08,0h.07v-.14h-.07a.14.14,0,0,0-.15,0h0A.06.06,0,0,0,94.63,66.27Z"/><path class="cls-3" d="M95.3,65.52a.75.75,0,0,0-.41-.24s0,0,0,.08h0c.09.07,0,.21.13.25a.11.11,0,0,0,.08,0h.14S95.32,65.55,95.3,65.52Z"/><path class="cls-3" d="M90.63,62.06a2,2,0,0,0,.56.25s.06.06.09.09.25.08.2-.13,0-.22-.2-.21h0L91.14,62c-.18-.08-.33-.22-.55-.16S90.52,62,90.63,62.06Z"/><path class="cls-3" d="M84.31,105.77l0,.06-.06.09-.06.1-.06.19a.11.11,0,0,0,0,.07c.11.09.15,0,.21-.07s0-.25.14-.35.12-.19-.07-.2l0,0A.7.7,0,0,0,84.31,105.77Z"/><path class="cls-3" d="M85.84,101.46l.06,0s0-.12-.08-.1S85.79,101.42,85.84,101.46Z"/><path class="cls-3" d="M86.7,93.93c0-.07-.06-.14-.08-.2h0l-.15-.14h-.06c-.08,0-.07.12-.06.2h.05c.08,0,0,.13,0,.19a.12.12,0,0,0,.06.06l.08,0h.09A.1.1,0,0,0,86.7,93.93Z"/><path class="cls-3" d="M21.3,72.19c-.08-.08-.16,0-.22.09l0,0H21c-.1.1-.22.18-.22.34-.08,0-.14,0-.22.07l-.05,0s-.08.07-.06.11.09,0,.13,0h.07l.05,0,.08,0a.21.21,0,0,0,0-.06.19.19,0,0,0,0-.08l0,0a0,0,0,0,0,.07,0l.06,0a1.2,1.2,0,0,1,.29-.26C21.25,72.35,21.4,72.31,21.3,72.19Z"/><path class="cls-3" d="M24.13,69.8l0,0,0-.08a.47.47,0,0,0,0-.17.19.19,0,0,0,0-.08s0,0,0,0,0,0-.06,0H24v.07l-.06.07-.09.12h0c-.29.18-.24.52-.48.77l.27-.07h0l.08-.07c.09-.09.15-.21.29-.27a1.52,1.52,0,0,0,0-.21s0,0,0-.06A.08.08,0,0,0,24.13,69.8Z"/><path class="cls-3" d="M23.33,69.71l-.07.08-.08.06c0,.18.12.11.21.07S23.41,69.76,23.33,69.71Z"/><path class="cls-3" d="M82.33,93.45h-.06a.24.24,0,0,1-.08-.06h0a.19.19,0,0,0-.08.15c.07.09.12.19.26.18S82.33,93.53,82.33,93.45Z"/><path class="cls-3" d="M65.57,63c.16.06.29,0,.38.13A.31.31,0,0,0,66.1,63a.52.52,0,0,1,.07-.27c.1-.18.07-.27-.14-.4,0,.13-.06.26-.08.4S65.91,63,65.57,63Z"/><path class="cls-3" d="M72,61.86v-.67l-.15.11c0,.16,0,.31,0,.47s-.06.35.09.5A.26.26,0,0,0,72,61.86Z"/><path class="cls-3" d="M68.09,64.53a2.45,2.45,0,0,0,0-.27h0c-.08,0-.1,0-.14.08a.54.54,0,0,1-.07.27C68,64.67,68.07,64.65,68.09,64.53Z"/><path class="cls-3" d="M61.31,64.88c.06,0,.13,0,.11.09s.07.13.1.19a.74.74,0,0,0,.21,0c.08-.11,0-.2-.06-.28a.63.63,0,0,1-.16-.26C61.21,64.61,61.19,64.64,61.31,64.88Z"/><polygon class="cls-3" points="40.42 52.81 40.42 52.81 40.42 52.81 40.42 52.81"/><path class="cls-3" d="M40,52.41h0c-.07,0-.06.09,0,.13h0a.46.46,0,0,0,.07.07h0l.21.15s.11,0,.15.06l.08-.08s0,0,0-.06C40.41,52.48,40.2,52.49,40,52.41Z"/><path class="cls-3" d="M13.81,83.32l-.14.13a.07.07,0,0,0,0,0C13.89,83.5,13.89,83.49,13.81,83.32Z"/><path class="cls-3" d="M15.38,84.83l-.05,0c-.08-.12-.2,0-.3,0l-.07,0v.14a.35.35,0,0,0,.32.11C15.38,85,15.46,85,15.38,84.83Z"/><path class="cls-3" d="M10,98h0c-.07,0-.05.1-.08.13a.17.17,0,0,0,0,.07.14.14,0,0,0,.14.06h0c.05,0,0-.11.08-.14A.17.17,0,0,0,10,98Z"/><path class="cls-3" d="M9.73,98.55a.13.13,0,0,0,.15.14c0-.07,0-.13,0-.2S9.76,98.46,9.73,98.55Z"/><path class="cls-3" d="M11.53,106.07c-.07-.18-.14-.37-.22-.55l-.14.07a.13.13,0,0,0,0,.06s0,0-.06.08H11c0,.05,0,.11.05.11s.17.05.12.17,0,.08,0,.12h.06a.42.42,0,0,0,.29.07A.14.14,0,0,0,11.53,106.07Z"/><path class="cls-3" d="M92.62,74.23s0-.07-.05-.07-.07,0,0,.09a.36.36,0,0,0,0,.09h0A.11.11,0,0,0,92.62,74.23Z"/><path class="cls-3" d="M94.21,77h0c.1-.15,0-.23-.11-.31C94,76.81,94.18,76.86,94.21,77Z"/><path class="cls-3" d="M95.34,91.52h0l-.08-.06c-.06,0-.12-.12-.2,0s0,.15,0,.21.11.18.24.18S95.34,91.62,95.34,91.52Z"/><path class="cls-3" d="M82.65,91.71c.09,0,.1-.06.12-.13a.23.23,0,0,0-.21-.13.69.69,0,0,0,0,.13C82.54,91.66,82.56,91.71,82.65,91.71Z"/><path class="cls-3" d="M21.06,89.36a.09.09,0,0,0,.06.11c.07,0,.11,0,.13-.09a1.41,1.41,0,0,1,0-.21c.11-.24,0-.46,0-.7a.1.1,0,0,0-.12-.09c-.06,0-.07.06-.07.1v.35A.8.8,0,0,1,21.06,89.36Z"/><path class="cls-3" d="M22.41,87.26a.17.17,0,0,0-.09-.11c-.12,0-.22-.14-.35,0h0a.16.16,0,0,0,0,.07.09.09,0,0,0,0,.07s.05.09.08.14h.08a.21.21,0,0,0,.19,0A.17.17,0,0,0,22.41,87.26Z"/><path class="cls-3" d="M69.53,48.19c0,.07-.13.14,0,.21s.12-.07.19-.08a.1.1,0,0,0,.08-.13c0-.07-.08-.07-.14-.06A.52.52,0,0,0,69.53,48.19Z"/><path class="cls-3" d="M83.75,56.53c0-.13-.06-.19-.13-.27s-.05.13-.07.2a.16.16,0,0,0,.07.07h0S83.71,56.58,83.75,56.53Z"/><path class="cls-3" d="M24.29,68.23a.11.11,0,0,0-.08-.09.08.08,0,0,0-.09.07c0,.05,0,.09.07.1A.11.11,0,0,0,24.29,68.23Z"/><path class="cls-3" d="M27.53,66.13c.07.08.12,0,.17,0l.06,0c0-.15-.12-.11-.2-.07A.1.1,0,0,0,27.53,66.13Z"/><polygon class="cls-3" points="27.76 66.05 27.76 66.05 27.76 66.06 27.76 66.05"/><path class="cls-3" d="M27.84,65.8c.05.23.18.07.28,0h.07c.11.07.16-.06.24-.08a.57.57,0,0,0,.15-.12.12.12,0,0,0,0-.13.21.21,0,0,1-.15-.07.56.56,0,0,0-.43.27h0A.18.18,0,0,1,27.84,65.8Z"/><path class="cls-3" d="M27.33,66.38s0,.08,0,.11l.07-.08S27.37,66.35,27.33,66.38Z"/><path class="cls-3" d="M26.53,59.88a.06.06,0,0,0-.06-.07c-.07,0-.1,0-.12.09a.06.06,0,0,0,.07.07C26.49,60,26.53,60,26.53,59.88Z"/><path class="cls-3" d="M26.26,58c-.1,0-.05-.19-.18-.22s0,.27-.1.36a.58.58,0,0,0,0,.32c.13,0,0-.12.12-.15s0,.23.2.18A1.17,1.17,0,0,1,26.26,58Z"/><path class="cls-3" d="M36.91,49.63V49.5h-.13C36.69,49.68,36.83,49.63,36.91,49.63Z"/><path class="cls-3" d="M90.62,66.48h0c-.08.17-.32.09-.46.27h.39c.1,0,.19-.08.3,0s.06,0,.06-.09l-.07-.06C90.79,66.47,90.68,66.54,90.62,66.48Z"/><path class="cls-3" d="M92.34,63.43c0,.19,0,.22.22.28,0,0,.14,0,.08-.09s-.08-.17.09-.16,0-.05,0-.08l-.06-.08C92.57,63.32,92.38,63.18,92.34,63.43Z"/><path class="cls-3" d="M92.06,63h0l0,0v0c.1.15.2.19.32,0s.07-.06.1-.09,0-.15-.13-.1A.44.44,0,0,1,92.06,63Z"/><path class="cls-3" d="M87.84,59.36h0c.1,0,.18.13.34.1C88.07,59.35,88,59.21,87.84,59.36Z"/><path class="cls-3" d="M84.57,105.46c0,.05,0,.1.08.09s0-.07,0-.11l0-.06h0S84.57,105.43,84.57,105.46Z"/><path class="cls-3" d="M18,77.3a.71.71,0,0,1,.1.14.28.28,0,0,0,.28.17c.05,0,.1,0,.14,0h0A.43.43,0,0,0,18,77.3Z"/><path class="cls-3" d="M19.1,77.3c.22-.06,0-.13,0-.2s-.22,0-.2.11S19,77.32,19.1,77.3Z"/><path class="cls-3" d="M20.18,77.17s0,0,0,.06l.12.07c.05,0,.11,0,.14.1a.14.14,0,0,0,.09,0c.1,0,.12-.11.11-.2a.18.18,0,0,0-.05-.07.94.94,0,0,0-.15-.06h0l-.06,0h0C20.23,77,20.1,77,20.18,77.17Z"/><path class="cls-3" d="M77.47,74.91a.11.11,0,0,0,0,.08s0,.07.06.11l0,.06h0a.57.57,0,0,1,.06.36c0,.14,0,.22.17.24h0a.13.13,0,0,0,.07.09h0V76L78,76h0c0,.1,0,.23.12.28a.39.39,0,0,0,0-.51h0l0,0c0-.11,0-.22-.07-.31a.42.42,0,0,1-.11-.15h0a.23.23,0,0,1-.07-.07c0-.11-.1-.22-.16-.33S77.54,74.86,77.47,74.91Z"/><path class="cls-3" d="M85.63,95.94l-.16.13s-.18.09,0,.15a.34.34,0,0,0,.28,0h0c.07-.12.15,0,.22,0l0,0v-.06a.09.09,0,0,1,0-.05.92.92,0,0,0,0-.33H86l-.3.13Z"/><path class="cls-3" d="M63.55,71.41c0-.09-.09-.1-.16-.11s-.21,0-.22.16a.09.09,0,0,0,.1.11A.34.34,0,0,0,63.55,71.41Z"/><path class="cls-3" d="M69.77,84.8c-.12.06-.07.19-.17.23l-.07.07-.08.06a.09.09,0,0,0,0,.09.22.22,0,0,0,.11.1h.1c.17,0,.09-.19.17-.26h0C69.8,85,69.86,84.89,69.77,84.8Z"/><path class="cls-3" d="M61.44,72.61c-.08-.18-.08-.18-.35-.06,0,.13.14.17.18.31C61.32,72.73,61.34,72.65,61.44,72.61Z"/><path class="cls-3" d="M66.26,78.26c0,.08,0,.17-.09.22s0,.18,0,.27h0c0,.08-.05.17.06.21s.17.1.27.07c0-.2,0-.41.14-.57-.14-.07-.22.09-.32,0S66.35,78.32,66.26,78.26Z"/><path class="cls-3" d="M66.71,78.05c-.07.22.09.41,0,.63.14,0,.12-.11.13-.2s0-.29.07-.42,0-.25-.17-.23S66.73,78,66.71,78.05Z"/><path class="cls-3" d="M72.62,76.71a.08.08,0,0,0,.1.07.15.15,0,0,0,.12-.18s0,0-.08-.06S72.61,76.61,72.62,76.71Z"/><path class="cls-3" d="M83.05,91.17l.07.07c.1-.17.09-.21-.07-.28h0L83,91v.06A.23.23,0,0,1,83.05,91.17Z"/><path class="cls-3" d="M72.32,71.85a.84.84,0,0,1,.07.35c0,.11.1.23.25.15s.12-.18,0-.29a.17.17,0,0,0,0-.07s0-.1-.06-.14l0,0s0,0,0,0,0-.12,0-.18,0-.11,0-.15h0c-.08-.06-.18,0-.27,0s-.15.07-.15.17S72.22,71.81,72.32,71.85Z"/><path class="cls-3" d="M71.75,84.27c-.11,0-.14.07-.15.16s0,.19-.07.25a2.16,2.16,0,0,0-.2.7l0,.12h0l0,0a.43.43,0,0,0-.07.35c0,.1.06.19.2.12l.07-.07a1.37,1.37,0,0,1,.09-.4l0,0h.07a.15.15,0,0,0,0-.14h0a1.16,1.16,0,0,1,0-.49A2.43,2.43,0,0,0,71.75,84.27Z"/><path class="cls-3" d="M66.11,80.28a.18.18,0,0,1-.08.13c0,.14,0,.14.18,0s0,0,0,0a.14.14,0,0,0,0,.12c.11.05.16.18.29.21a.08.08,0,0,0,.07,0c0-.11.1-.22,0-.33s-.13-.31-.36-.21C66.14,80.13,66.16,80.27,66.11,80.28Z"/><path class="cls-3" d="M71.06,86.88c-.22.07-.18.28-.24.43s0,.2.07.27.14,0,.21-.07,0-.17,0-.26S71.2,87,71.06,86.88Z"/><path class="cls-3" d="M66.68,84.54l0-.12-.13.06s0,.09,0,.13,0,.28.15.35h0A.61.61,0,0,0,66.68,84.54Z"/><path class="cls-3" d="M69,82h0s.11.17.14,0,0-.16-.06-.16S69,81.93,69,82Z"/><path class="cls-3" d="M65.21,67.68c.07.06.13,0,.18,0h0c-.06,0-.07-.13-.16-.07A.07.07,0,0,0,65.21,67.68Z"/><path class="cls-3" d="M66,63.23s0,.1,0,.06S66,63.24,66,63.23Z"/><path class="cls-3" d="M69.88,54.1c.06,0,.1,0,.15-.05s.11-.13,0-.22-.08,0-.13,0a.61.61,0,0,0,0,.12S69.82,54.06,69.88,54.1Z"/><path class="cls-3" d="M66,51.85a.29.29,0,0,1,0-.09l0,0,.06.07Z"/><path class="cls-3" d="M38.49,61.23a.1.1,0,0,0,.07,0h.11l.08,0a.18.18,0,0,0,.09-.06l.08-.06c0-.08,0-.14-.08-.14l-.06,0a.58.58,0,0,1-.29.12Z"/><path class="cls-3" d="M42.79,59.44l-.17.05H42.5c-.1.11-.28,0-.37.13s0,.06-.07.08h0a.21.21,0,0,0,.16.08,3.42,3.42,0,0,1,.63-.16C42.88,59.55,43,59.45,42.79,59.44Z"/><path class="cls-3" d="M10.66,97.17a.11.11,0,0,0-.13-.06l-.07.07C10.53,97.39,10.59,97.16,10.66,97.17Z"/><polygon class="cls-3" points="92.27 72.33 92.27 72.33 92.27 72.34 92.27 72.33"/><path class="cls-3" d="M92.11,72.1a3.4,3.4,0,0,0-.46-.09.2.2,0,0,0-.16.06c0,.11,0,.19.14.2s.16,0,.22,0l.07,0h.35C92.36,72.16,92.21,72.14,92.11,72.1Z"/><path class="cls-3" d="M92.47,73.19s0,0,0,0,.06.08.11.09h0C92.55,73.25,92.56,73.19,92.47,73.19Z"/><path class="cls-3" d="M91.2,72l-.37,0c.11.19.37.07.44.26.1,0,.16,0,.1-.14a1.47,1.47,0,0,1-.1-.13Z"/><path class="cls-3" d="M90.4,72c-.05.08.06.14.15.17s0,0,.08.06c.23-.07,0-.14,0-.21S90.45,71.86,90.4,72Z"/><path class="cls-3" d="M92.58,71.89c.13.21,0,.33-.16.44h0s.1,0,.14.07a.21.21,0,0,1,.15.07h.06a.11.11,0,0,1,.15,0h0a.19.19,0,0,0,.08,0,.16.16,0,0,0,.1,0s.05.08.11.11h0a10,10,0,0,0,1.25.11c-.08-.12-.21-.08-.27-.17l-.2-.08a2.12,2.12,0,0,0-.43-.06h-.28s0,0,0-.06a.66.66,0,0,0-.43-.13c-.11-.15,0-.37-.21-.5A.14.14,0,0,0,92.58,71.89Z"/><path class="cls-3" d="M92.28,79.07a.07.07,0,0,0,.09.07s0-.06,0-.09,0-.06,0-.06S92.28,79,92.28,79.07Z"/><path class="cls-3" d="M16.19,86a.19.19,0,0,1-.16-.07l-.28.07h0a.08.08,0,0,0,0,.13c.1,0,.21,0,.29.07a.37.37,0,0,0,.27-.07C16.31,86.05,16.28,86,16.19,86Z"/><path class="cls-3" d="M78.4,55h0a2,2,0,0,0-.06.23s0,.08.08.1.08,0,.09,0,.26-.33.09-.57C78.52,54.84,78.52,55,78.4,55Z"/><path class="cls-3" d="M85,58.53a.46.46,0,0,1,.07.07.24.24,0,0,0,.29-.13h0a.23.23,0,0,1-.07-.07h0C85,58.34,85,58.34,85,58.53Z"/><path class="cls-3" d="M85.27,60.54h0a.24.24,0,0,1-.08-.06h-.14l0,0a.06.06,0,0,1,0,0l-.08-.06c0-.06-.12,0-.18,0s-.17,0-.24,0h0a.06.06,0,0,0-.08,0h-.05c-.09,0-.17,0-.23,0h-.36c-.08,0-.13-.15-.24,0a.06.06,0,0,0,0,.06c.06.11.16,0,.25.06v.07l.12.08a.48.48,0,0,1,.18.07,3.09,3.09,0,0,0,1,.19C85.15,60.73,85.28,60.72,85.27,60.54Z"/><path class="cls-3" d="M80.84,58.75l.07-.07a1,1,0,0,1,0-.17c0-.21-.09-.07-.15,0a.13.13,0,0,0,0,.06C80.74,58.62,80.66,58.73,80.84,58.75Z"/><path class="cls-3" d="M81.62,58.6h.14v-.14C81.66,58.46,81.61,58.51,81.62,58.6Z"/><path class="cls-3" d="M83.05,60.12a.18.18,0,0,0-.07,0L82.83,60a1.13,1.13,0,0,0-.27-.13l-.11,0-.07,0-.12,0h-.09a.31.31,0,0,1-.19,0,.28.28,0,0,0-.13,0s-.06,0-.1,0l-.08,0c-.18,0-.16.11-.07.22a.26.26,0,0,0,.17.09c.09,0,.19-.06.28,0a2.41,2.41,0,0,1,.37.07,1.37,1.37,0,0,0,.49.13c0,.05.1,0,.13.08h0C83.2,60.27,83.13,60.2,83.05,60.12Z"/><path class="cls-3" d="M83,59.92h0c.12.06.26,0,.36.14h0c.08,0,.14,0,.14-.13a.49.49,0,0,0-.49-.14S82.94,59.87,83,59.92Z"/><path class="cls-3" d="M79.06,57.22s.13.09.16,0,.1-.23-.1-.25l-.06.08Z"/><path class="cls-3" d="M87.12,59.1c.17-.13-.08-.2-.05-.31s-.1-.1-.17-.12c-.24,0-.24,0-.19.14l.06.06C86.89,59,86.91,59.15,87.12,59.1Z"/><path class="cls-3" d="M86.26,58.2c-.1,0-.14,0-.14.13l.08.06C86.41,58.39,86.3,58.28,86.26,58.2Z"/><path class="cls-3" d="M72.17,51.64a.13.13,0,0,1,.14-.07.45.45,0,0,1,.14-.24s.09-.09,0-.14a.12.12,0,0,0-.18,0c-.1.17-.31.24-.41.41l0,0c-.07,0-.17,0-.09.15s.11,0,.18,0S72.08,51.7,72.17,51.64Z"/><path class="cls-3" d="M72.39,50.81h0s0,0,0,.06h0a.22.22,0,0,0,.07.06.06.06,0,0,0,.06,0l.09-.13a.14.14,0,0,1,0-.06C72.49,50.66,72.45,50.74,72.39,50.81Z"/><path class="cls-3" d="M71.33,49.72c0,.06,0,.15.06.17s.12-.06.13-.13,0-.21-.13-.12Z"/><path class="cls-3" d="M28.56,62a.13.13,0,0,0,0-.18l-.12-.22s0,0-.08-.06-.18.09-.05.33l.05.05C28.43,62,28.47,62.08,28.56,62Z"/><path class="cls-3" d="M27.13,67.68c0,.17.24,0,.37,0h.1a.41.41,0,0,0,.3-.1c.11-.19.32-.29.43-.48h.07c0-.1,0-.2-.06-.27,0-.23-.05-.24-.23-.15s-.25.27-.42.35-.15.23-.22.34S27.07,67.49,27.13,67.68Z"/><path class="cls-3" d="M27.05,61.78,27,61.71h0a.11.11,0,0,0-.15,0,.3.3,0,0,0,.08.27C27.07,62,27.05,61.88,27.05,61.78Z"/><path class="cls-3" d="M27.19,59.44s.07-.1,0-.15-.1,0-.15,0l-.09.07a.16.16,0,0,0,.16.15Z"/><path class="cls-3" d="M26.6,61a.08.08,0,0,0,0,0c0,.09,0,.13.11.14l0-.06C26.68,61.05,26.69,61,26.6,61Z"/><path class="cls-3" d="M92.9,71.88l.37.19c.08,0,.17,0,.25,0a.33.33,0,0,0-.17-.18C93.21,72,93.05,71.8,92.9,71.88Z"/><path class="cls-3" d="M92.7,67.79h-.14v.13h.06c.12,0,.27,0,.37-.08h0C92.91,67.78,92.79,67.86,92.7,67.79Z"/><path class="cls-3" d="M90.06,66.88c-.23-.08-.42.08-.64.07a.13.13,0,1,0-.15.21c.07.06.14.18.21,0s.44,0,.65-.06h0C90.11,67,90.09,67,90.06,66.88Z"/><path class="cls-3" d="M87.34,62.34c0-.05-.11,0-.14-.08h0l-.08-.06h0a.05.05,0,0,0-.08,0,.14.14,0,0,0-.05.08,2.17,2.17,0,0,0,.08.51.16.16,0,0,0,.06.08.12.12,0,0,0,.14,0c0-.18,0-.37.07-.54Z"/><path class="cls-3" d="M91.12,63c-.07,0-.15,0-.2.06s.07.15.17.16S91.12,63.1,91.12,63Z"/><path class="cls-3" d="M91.72,63.26l-.09,0h0S91.67,63.32,91.72,63.26Z"/><path class="cls-3" d="M21.15,75s-.06,0-.1,0l-.07.12H21S21.16,75.1,21.15,75Z"/><path class="cls-3" d="M75.93,72a.23.23,0,0,0,.37.1l-.12-.17c-.07,0-.05-.12-.09-.17s-.2-.17-.33-.05C75.82,71.81,75.88,71.9,75.93,72Z"/><path class="cls-3" d="M79,98.32l-.16,0a.29.29,0,0,0-.17.19c0,.07.1.07.16.08s.32,0,.48-.09C79.44,98.17,79.14,98.36,79,98.32Z"/><path class="cls-3" d="M79.61,96.89a.74.74,0,0,1-.14.22c0,.06,0,0,.07.06s0,0,0,0a.05.05,0,0,0,0,0h0c.06-.06.16,0,.22-.07h0c.18,0,.28-.13.07-.27h-.14S79.65,96.85,79.61,96.89Z"/><path class="cls-3" d="M82.69,97.31c-.18.11-.46,0-.57.21h0a.2.2,0,0,0-.08.08H82v0l-.15.07-.2,0h-.16s0,0-.07,0l-.11,0a.41.41,0,0,1-.16,0,.09.09,0,0,0-.07,0c0,.11,0,.19.14.2a6.42,6.42,0,0,1,.87-.19c.16,0,.25-.17.42-.09s.15,0,.21-.07.19-.13.28-.2l0-.07c0-.06-.08-.15-.19-.14s-.1,0-.15.07Z"/><path class="cls-3" d="M85.08,95.64c0,.08.06.07.12.09h0c0-.06,0-.12-.09-.12A0,0,0,0,0,85.08,95.64Z"/><path class="cls-3" d="M70.54,89.45v.34h.06a.31.31,0,0,0,.07-.2C70.6,89.57,70.64,89.45,70.54,89.45Z"/><path class="cls-3" d="M65,81.16a.39.39,0,0,1-.21.08,1.85,1.85,0,0,0-.14.14c0,.05-.1.12,0,.17s.11,0,.16,0,.27-.11.29-.28A.6.6,0,0,0,65,81.16Z"/><path class="cls-3" d="M65.09,79.92s0,0,0,.07h.2c0-.15,0-.2-.2-.12A.13.13,0,0,1,65.09,79.92Z"/><path class="cls-3" d="M66.53,74.75v-.13c0-.07,0-.16-.12-.05S66.4,74.75,66.53,74.75Z"/><path class="cls-3" d="M70.74,86.27a.29.29,0,0,1-.13.14c0,.15.1.14.21.13a.13.13,0,0,0,.07-.06l.08-.14A.15.15,0,0,0,70.74,86.27Z"/><path class="cls-3" d="M67.09,75.13a.43.43,0,0,0,0-.16c-.07,0-.18-.12-.2.06v.2C67,75.3,67.08,75.26,67.09,75.13Z"/><path class="cls-3" d="M67.1,74.75h.06v-.13s0-.1-.07-.14h0c-.16-.08-.22,0-.29.14l-.06.15c0,.12,0,.13.13.07S67.05,74.84,67.1,74.75Z"/><path class="cls-3" d="M71,86.34a.19.19,0,0,0,.21.13c0-.11.05-.23,0-.32A.24.24,0,0,1,71,86.34Z"/><path class="cls-3" d="M72.45,61.44h0c.06,0,.15.12.19,0s-.06-.11-.13-.11S72.45,61.38,72.45,61.44Z"/><path class="cls-3" d="M72.83,53.43h0c-.06.06,0,.15-.07.21h0a2.62,2.62,0,0,1,0,.28.06.06,0,0,1,0,.06.4.4,0,0,0,0,.34h0a.11.11,0,0,0-.09,0c-.08.15-.15.29,0,.45a2.45,2.45,0,0,0-.11.41c0,.21,0,.43-.09.63a2.17,2.17,0,0,0-.08.76h.07l0,0,.06-.06a.16.16,0,0,0,0-.09,1.29,1.29,0,0,1,.08-.38,6.27,6.27,0,0,0,.17-1.37c0-.1,0-.21,0-.31a.1.1,0,0,0,0-.05h.06c0-.16.11-.3.09-.47s0-.15.06-.21,0-.13,0-.2,0-.12-.08-.15h0S72.86,53.39,72.83,53.43Z"/><path class="cls-3" d="M71,52.84l0-.05s0,0-.06,0l0,0S70.93,52.86,71,52.84Z"/><path class="cls-3" d="M31.79,63.81l.11-.05.08,0c.1,0,.1-.14.14-.22a4.24,4.24,0,0,1,.5-.62.23.23,0,0,0,.07-.07h0a.14.14,0,0,0-.13-.06h0l-.08,0-.15.08c-.07,0-.16.06-.2.15s-.21.23-.29.36l-.1.14,0,0-.06.06-.06,0a.36.36,0,0,0-.09.08.12.12,0,0,0,0,.08.14.14,0,0,0,.08.09h.08l.12,0Z"/><path class="cls-3" d="M33.7,63.58a.13.13,0,0,0-.13-.07.19.19,0,0,1-.16.06c-.19,0-.25.13-.32.24s0,.1.11.11a.58.58,0,0,1,.42-.14C33.7,63.73,33.74,63.67,33.7,63.58Z"/><path class="cls-3" d="M20.68,92.41v-.07c0-.09,0-.18,0-.27l0,0,0,0h.06s0,0,0-.07a.56.56,0,0,1-.08-.27h-.13v.55h-.07c0,.25,0,.28.21.27Z"/><path class="cls-3" d="M20.65,95.32a2.17,2.17,0,0,1,.63-.17.15.15,0,0,0,.06-.05c-.05-.15.11,0,.14-.11l.06-.07c0-.17-.09-.17-.22-.1a.51.51,0,0,0-.24.13.34.34,0,0,1-.39,0v0a.16.16,0,0,0-.06-.13h0c.28-.06.12-.28.15-.43a8.83,8.83,0,0,1,0-.89,1,1,0,0,0,0-.24v0c0-.12-.15-.21-.07-.35s0,0,0-.06a.13.13,0,0,1-.07-.14c-.07,0-.11,0-.09.1s.06.27-.05.39a1.73,1.73,0,0,1-.11.9.23.23,0,0,0,0,.2.78.78,0,0,1,0,.34v.21c-.06.11.06.22,0,.34a.29.29,0,0,0-.05.13.23.23,0,0,0,0,.14.12.12,0,0,0,.1.09.1.1,0,0,0,.08,0Zm-.1-.67h0Z"/><path class="cls-3" d="M22.18,86h0l.07-.08v-.13a.14.14,0,0,0-.22,0c-.05.08,0,.11.09.15Z"/><path class="cls-3" d="M22.75,87.36a.25.25,0,0,1,.14-.06v-.06l0,0a.15.15,0,0,0-.17,0l0,0C22.68,87.24,22.66,87.32,22.75,87.36Z"/><path class="cls-3" d="M73.9,51.65v.13C74,51.74,74,51.69,73.9,51.65Z"/><polygon class="cls-3" points="71.75 52.19 71.75 52.19 71.75 52.19 71.75 52.19"/><path class="cls-3" d="M71.31,52.08a.2.2,0,0,0,0,.25c.06.06.15,0,.22,0s.14,0,.17-.11a1.19,1.19,0,0,1-.3-.46A2.84,2.84,0,0,1,71.31,52.08Z"/><path class="cls-3" d="M24.65,69.13c-.1,0-.12.08-.18.09h0s-.07.13,0,.11A.17.17,0,0,0,24.65,69.13Z"/><path class="cls-3" d="M28.76,65h0c.07.12.14,0,.21,0V65s0,0-.07,0h-.06Z"/><path class="cls-3" d="M26,68.61h0c-.06-.07-.13-.11-.18,0s.06.07.11.08h0Z"/><path class="cls-3" d="M31.63,69.37s0,.1.06.13c.3-.13.49-.41.79-.55,0-.09.23-.18,0-.27h-.06A4,4,0,0,0,31.63,69.37Z"/><path class="cls-3" d="M32.91,68.32l-.07,0a.13.13,0,0,0-.06.07h0l-.07.06h0l-.08.07.09.08c.1,0,.21,0,.2-.15Z"/><polygon class="cls-3" points="32.62 68.54 32.62 68.54 32.62 68.54 32.62 68.54"/><path class="cls-3" d="M29.87,65.55l0,.07v0c.07.08.13,0,.17,0s0-.1.11-.13h0s.11,0,.14-.07h0a.16.16,0,0,0,.07-.07c.12-.09.14-.27.29-.33a.14.14,0,0,1,.14-.08l.08-.07h0c.05-.07.06-.16.11-.23s0-.17-.16-.1-.19.28-.36.34a.59.59,0,0,0-.31.17.31.31,0,0,0,0,.08.51.51,0,0,1-.1.21l0,.07-.06.1Z"/><path class="cls-3" d="M29.4,66c.05-.1.24-.18.08-.33h0l-.11.06-.11.08h0c-.06.1-.1.18.07.21Z"/><path class="cls-3" d="M29.56,58.6l-.15,0-.07.06c-.05.07-.13.06-.21.08a.3.3,0,0,0,.42.05A1.48,1.48,0,0,1,29.56,58.6Z"/><path class="cls-3" d="M91.76,71.73c-.1,0-.21,0-.13.12C91.72,71.85,91.77,71.82,91.76,71.73Z"/><path class="cls-3" d="M87.26,61.65s0,0,0,.05l.55.09c.18,0,.14-.12.08-.22H87.7C87.55,61.6,87.39,61.51,87.26,61.65Z"/><path class="cls-3" d="M79.93,102.94c-.05.1,0,.19.11.23l.21-.29v0s0-.1-.08-.1S80,102.85,79.93,102.94Z"/><path class="cls-3" d="M84.06,101.23c.06,0,0-.07,0-.11h-.06a.23.23,0,0,1-.07.07S84,101.24,84.06,101.23Z"/><path class="cls-3" d="M22.39,75.86l-.16,0c-.06,0-.12,0-.16,0s0,.1.05.15.21,0,.28-.07S22.39,75.88,22.39,75.86Z"/><path class="cls-3" d="M25.05,74c-.13,0-.24.08-.14.24s.17,0,.2,0,.28.08.43,0C25.47,74,25.23,74,25.05,74Z"/><path class="cls-3" d="M26.71,74c.06.1.14,0,.21,0a1,1,0,0,0,.35-.27c.23-.22.31-.56.56-.77,0-.11.08-.2,0-.35l-.35.43a.42.42,0,0,1-.11.18,2.46,2.46,0,0,0-.41.44h0l-.07.06a.24.24,0,0,1-.11.13C26.72,73.87,26.67,73.93,26.71,74Z"/><path class="cls-3" d="M77.11,94.7c-.09,0-.07.13-.07.2C77.23,94.88,77.16,94.79,77.11,94.7Z"/><path class="cls-3" d="M77.39,98.35a1,1,0,0,0-.5.13c0,.08.14.07.22.07S77.45,98.62,77.39,98.35Z"/><path class="cls-3" d="M78.05,98.15a.59.59,0,0,1,0,.13c0,.24,0,.24.25.13,0,0,.05,0,.08-.06l0,0h.09a.54.54,0,0,1,.22-.2h.06c0-.06.06-.12-.06-.13S78.27,98.14,78.05,98.15Z"/><path class="cls-3" d="M77.82,98.2l-.13,0-.07,0a.06.06,0,0,0,0,.06h.23c.05,0,.09,0,.08-.07S77.87,98.22,77.82,98.2Z"/><path class="cls-3" d="M76.75,97.7a.08.08,0,0,0,.1-.07c0-.07,0-.09-.1-.11a.09.09,0,0,0-.11.06A.11.11,0,0,0,76.75,97.7Z"/><path class="cls-3" d="M80.74,101.4c-.16,0-.25,0-.25.18a.28.28,0,0,0,.18,0l.07-.06Z"/><path class="cls-3" d="M65.24,81.93c0-.12,0-.23,0-.34s-.13-.08-.18,0a.44.44,0,0,0,.11.47h0a.09.09,0,0,0,0-.11s0,0,0,0l0,0Zm-.08,0h0Z"/><path class="cls-3" d="M76.4,65.47s0,.07,0,.07.1-.05.1-.11,0-.09,0-.08S76.41,65.4,76.4,65.47Z"/><path class="cls-3" d="M65.8,88a.31.31,0,0,0,0-.1.26.26,0,0,0,0-.15,1.2,1.2,0,0,0-.24-.15.1.1,0,0,0-.09,0,.29.29,0,0,0-.07.18,1.3,1.3,0,0,0,0,.34,1,1,0,0,1-.06.55l0,.13a.14.14,0,0,0,0,.09.18.18,0,0,0,0,.07h0c.06,0,.12,0,.09.11a1.14,1.14,0,0,0,0,.37c0,.12.11.12.21.08l.07-.08h0c0-.07,0-.1-.07-.14a.13.13,0,0,0,0-.06A2.72,2.72,0,0,1,65.8,88Z"/><path class="cls-3" d="M68.71,92.2h.1v-.06l-.07,0s-.09,0-.11,0S68.66,92.2,68.71,92.2Z"/><path class="cls-3" d="M68.55,92.49s0,0,0,0h0c0-.07,0-.15-.06-.19s0,.12,0,.19h0Z"/><path class="cls-3" d="M68.53,91.44c.12,0,.21,0,.22-.13s-.15,0-.22,0Z"/><path class="cls-3" d="M65.68,83.71c.09,0,0,.25.19.15,0,0,0-.09,0-.14S65.75,83.6,65.68,83.71Z"/><path class="cls-3" d="M60.67,75.38c0,.08,0,.11.12.11s.09-.15.08-.25A.16.16,0,0,0,60.67,75.38Z"/><path class="cls-3" d="M46.14,68.33a.33.33,0,0,0,.3.06.16.16,0,0,0,.08-.06.11.11,0,0,0,0-.13h0a4,4,0,0,1-.49-.29h0a.13.13,0,0,1-.07-.06.46.46,0,0,1-.07-.07l-.08-.07h0c-.13.06-.12.15,0,.24s.15.09.18.18h0l.09.06.07.07.06.07Z"/><path class="cls-3" d="M54,67.31a0,0,0,0,0,0,0l.08,0C54.1,67.28,54.05,67.31,54,67.31Z"/><path class="cls-3" d="M31.11,64.47s0,0,0-.07,0-.1.08-.13h0a.25.25,0,0,0-.23-.15l-.21.07-.07.07h0a.15.15,0,0,0,.15.07s0,0,0,0a.06.06,0,0,0,.05,0s.06,0,.06,0A.14.14,0,0,0,31.11,64.47Z"/><path class="cls-3" d="M89.63,71.3c-.06,0-.11,0-.15,0s0,.08,0,.11h0s.1.07.15,0V71.3Z"/><path class="cls-3" d="M81.55,71.85h0c0-.07.15,0,.21-.06v-.08h-.35A.19.19,0,0,0,81.55,71.85Z"/><path class="cls-3" d="M22.28,83.94a.16.16,0,0,0-.18-.12c-.09,0-.06.11-.06.17v.18l.12-.08C22.22,84.05,22.34,84.06,22.28,83.94Z"/><path class="cls-3" d="M78.9,59.3s0,.06,0,.1-.06.14,0,.17a.14.14,0,0,0,.17-.08.14.14,0,0,0-.19-.19Z"/><polygon class="cls-3" points="27.62 73.51 27.61 73.51 27.62 73.51 27.62 73.51"/><path class="cls-3" d="M27.6,73.54v0S27.58,73.53,27.6,73.54Z"/><path class="cls-3" d="M31.62,58.12c0-.09-.05-.13-.14-.13l-.07.07C31.46,58.14,31.54,58.13,31.62,58.12Z"/><path class="cls-3" d="M88.46,67.07h0s0,0,0,0h0Z"/><path class="cls-3" d="M89.06,67l0,0,0,0Z"/><path class="cls-3" d="M89.53,70.6s-.07,0-.11,0v.12S89.54,70.67,89.53,70.6Z"/><path class="cls-3" d="M80.71,104.3c.07.07.12,0,.18,0a.43.43,0,0,1,0,0c-.06,0-.11-.1-.18,0A.08.08,0,0,0,80.71,104.3Z"/><path class="cls-3" d="M77.61,104.21c0,.07,0,.2.12.14s.24,0,.23-.2h0a.23.23,0,0,0-.07-.07s0,0-.06,0l-.08.06Z"/><path class="cls-3" d="M23.33,74.61c-.06,0-.07-.11-.12-.09s0,.11,0,.15.07,0,.1.08h.05A.65.65,0,0,1,23.33,74.61Z"/><path class="cls-3" d="M72.39,98.69s-.11.07-.08.12.1,0,.15,0V98.7Z"/><path class="cls-3" d="M76.4,99.1a.31.31,0,0,0,.29,0c0-.06.07-.14-.06-.15S76.41,99,76.4,99.1Z"/><path class="cls-3" d="M77.53,98.57c-.15,0-.27.08-.42.05s0,.14.08.2.22-.14.34-.2Z"/><path class="cls-3" d="M73.53,99.1c0,.05-.1,0-.14.07h-.14l-.36.21c-.13,0-.25,0-.21.19s.17.13.29.07a2.29,2.29,0,0,1,.31-.16c.14-.07.37,0,.4-.25,0-.09-.06-.13-.15-.14Z"/><path class="cls-3" d="M79.26,103.37h.06s.09-.08.06-.14-.06,0-.09,0S79.22,103.32,79.26,103.37Z"/><path class="cls-3" d="M74.15,105a.24.24,0,0,0-.26,0,4.61,4.61,0,0,0-1.17.07.31.31,0,0,1-.33-.07c-.13,0-.08.11-.15.13a.62.62,0,0,1-.35.08c-.27,0-.51.09-.78.07,0,.25.19.19.34.2s.38.08.49-.12l.06,0a9.49,9.49,0,0,0,1.51-.06,1.18,1.18,0,0,0,.61-.16S74.23,105,74.15,105Z"/><path class="cls-3" d="M75.66,100s0-.05,0-.08l-.28.07c0,.17.12.09.19.11A.11.11,0,0,0,75.66,100Z"/><path class="cls-3" d="M62.09,83.51s0,.12.09.11a0,0,0,0,0,0,0C62.21,83.52,62.15,83.52,62.09,83.51Z"/><path class="cls-3" d="M78,71.1l0,.05c.2,0,.2,0,.14-.13A.15.15,0,0,0,78,71.1Z"/><path class="cls-3" d="M65.4,86.63s0,.07.06.07.06,0,.06,0,0-.07,0-.07S65.4,86.59,65.4,86.63Z"/><path class="cls-3" d="M59.5,78.84h-.11c-.09.08-.1.21-.23.26-.18.26-.16.32.13.34,0-.06,0-.15.05-.16C59.58,79.19,59.52,79,59.5,78.84Z"/><path class="cls-3" d="M60.58,77.93l-.07-.07c-.07,0-.18,0-.17.08s0,.19.16.18S60.58,78,60.58,77.93Z"/><path class="cls-3" d="M55.71,74s0-.08-.05-.13-.16,0-.14.14Z"/><path class="cls-3" d="M48.14,69.23c0,.1,0,.16.1.14s.49-.19.73,0l0-.09c-.14-.06,0-.21-.08-.27a.55.55,0,0,1-.35-.14c0,.11-.09.23-.26.2S48.15,69.13,48.14,69.23Z"/><path class="cls-3" d="M87.05,70.06h.06c.1-.1,0-.14-.06-.19h0C86.88,69.93,86.93,70,87.05,70.06Z"/><path class="cls-3" d="M82,71.24H82c-.07.08,0,.19-.06.27l.06.07h.13l.07-.07C82.35,71.31,82.11,71.32,82,71.24Z"/><path class="cls-3" d="M82.85,69.56s.1,0,.07-.09-.1,0-.15,0v0Z"/><path class="cls-3" d="M24.25,87.06s0,0,0,0,0,0,0,0,.05,0,.05,0S24.29,87.06,24.25,87.06Z"/><path class="cls-3" d="M37.21,84a.48.48,0,0,0-.16-.35,3.93,3.93,0,0,1-.35-.89c-.1.12,0,.26-.14.33,0,.22.18.33.23.52a1.46,1.46,0,0,0,.27.58C37.21,84.21,37.19,84.1,37.21,84Z"/><path class="cls-3" d="M37.9,86.29a.26.26,0,0,1,0-.22,1.41,1.41,0,0,0,0-.29c0-.24-.17-.43-.21-.66a.1.1,0,0,0-.07,0h0V85h-.07a.09.09,0,0,0-.15,0,.22.22,0,0,0,0,.31.68.68,0,0,1,.16.48.52.52,0,0,0,.07.27.13.13,0,0,1,.06.07l.08.21c.06,0,.07.07.08.12A.15.15,0,0,0,37.9,86.29Z"/><path class="cls-3" d="M36.41,85.31H36.3s-.12,0-.14.06.05.1.09.13.26,0,.38-.06C36.58,85.35,36.46,85.39,36.41,85.31Z"/><path class="cls-3" d="M35.19,72.76h-.13c0,.12-.06.26.14.28S35.22,72.85,35.19,72.76Z"/><path class="cls-3" d="M26.62,79.51a.13.13,0,0,0,.14-.14.39.39,0,0,0-.29-.13c0,.13.07.2.15.27Z"/><path class="cls-3" d="M69.71,97.79s0,.07,0,.11.08,0,.13,0v-.07S69.73,97.78,69.71,97.79Z"/><path class="cls-3" d="M71.65,98.92c.23.06.23.06.24-.09C71.8,98.84,71.7,98.81,71.65,98.92Z"/><path class="cls-3" d="M69.27,102.33c0,.13-.13.18-.24.22l-.08.14c0,.09,0,.1.1.11h.1l.09,0c.12-.06.28-.06.35-.2l-.14-.13a.13.13,0,0,0-.06-.14S69.28,102.29,69.27,102.33Z"/><path class="cls-3" d="M73.47,101l-.07.06c-.06.11,0,.17.09.13s.27-.14.4-.2.11,0,.15-.07h0c-.05-.08-.14-.07-.22-.07a.16.16,0,0,1-.08.06Z"/><path class="cls-3" d="M75,105.21s0,.07.08.09l.07-.06C75.13,105.18,75.07,105.14,75,105.21Z"/><path class="cls-3" d="M60.7,91.49a.14.14,0,0,0,0,.23l.08-.13.06-.08h0C60.82,91.45,60.75,91.42,60.7,91.49Z"/><path class="cls-3" d="M65.38,88.21c0-.1-.1-.15-.2-.07a.91.91,0,0,1-.07.14C65.24,88.38,65.34,88.38,65.38,88.21Z"/><path class="cls-3" d="M79,63.78a.12.12,0,0,0,.14.14A.12.12,0,0,0,79,63.78Z"/><path class="cls-3" d="M47,70.74a.29.29,0,0,0,0,.09.21.21,0,0,0,.06.1l0,0,.14-.06c.11,0,.26,0,.28-.14h0c-.13-.1-.38-.09-.34-.35-.07,0-.12,0-.17,0S47,70.64,47,70.74Z"/><path class="cls-3" d="M48,71.05s0,0,0,0,.07.07.12.09h0S48.09,71.05,48,71.05Z"/><path class="cls-3" d="M46,69.78h.11l-.06-.08s-.09-.06-.11,0S46,69.77,46,69.78Z"/><path class="cls-3" d="M47.08,69.37c0,.19.17.16.28.2.17-.14,0-.18-.08-.27l-.15-.13a.14.14,0,0,0-.06.13S47.08,69.35,47.08,69.37Z"/><path class="cls-3" d="M21.68,96.89c-.07,0-.15,0-.23,0,.11,0,.2.06.29,0Z"/><path class="cls-3" d="M23.32,97.93c.06-.07,0-.16.08-.23v0c0-.09,0-.18,0-.27h0c0-.09,0-.19-.12-.19v.17h0a.08.08,0,0,0,0,.09h0a0,0,0,0,1,0,.07v.13s0,.11-.07.14h0c0,.08,0,.22.14.14Z"/><path class="cls-3" d="M86.48,69.94h-.06s0,0,0,0a.1.1,0,0,0,.09,0S86.51,70,86.48,69.94Z"/><path class="cls-3" d="M26.25,92.89c.06-.11,0-.23,0-.34s0-.06-.09-.07c-.12.17-.06.4-.22.55h0c0,.08-.06.16,0,.22s.15,0,.2-.07a.4.4,0,0,0,.07-.24Z"/><path class="cls-3" d="M84.4,66.34a1.07,1.07,0,0,1-.56-.28h0l-.09,0c0-.13-.26,0-.3-.16a.33.33,0,0,1,0-.22c-.05-.06,0-.15-.14-.23,0,.23-.07.34-.29.38.19.23.51.19.65.4a4.92,4.92,0,0,0,1,.56c.07,0,.15,0,.2-.06l-.06-.07c-.05-.07-.15-.08-.21-.15A.47.47,0,0,1,84.4,66.34Z"/><path class="cls-3" d="M28.33,85.23l.07-.06c0-.13.15-.21.14-.34s0-.16-.14-.08-.41.21-.28.49h0A.17.17,0,0,0,28.33,85.23Z"/><path class="cls-3" d="M27.76,87.31l-.14.06c-.06,0-.12,0-.14,0s0,.09.07.12h.21A.15.15,0,0,0,27.76,87.31Z"/><path class="cls-3" d="M37.41,84.61s0,0,0,0c-.19-.11-.21-.1-.22.11a.25.25,0,0,1,.08.14C37.38,84.77,37.33,84.65,37.41,84.61Z"/><path class="cls-3" d="M37.05,79c-.08,0-.11-.16-.22-.09s0,.16,0,.24v0H37A.21.21,0,0,0,37.05,79Z"/><path class="cls-3" d="M36.16,74.66l0,.06,0,0s0,0,0-.06Z"/><path class="cls-3" d="M70.74,99.72l-.14.07c-.3.11-.3.11-.43-.18,0,0,0,0-.13,0h0a.28.28,0,0,1,0,.29h0a.05.05,0,0,0,0,.07h0l0,0c0,.14,0,.19.15.14h0l0,0c.25.07.37-.12.54-.23l.12-.08.08-.06s0-.1,0-.14A.1.1,0,0,0,70.74,99.72Z"/><path class="cls-3" d="M70.68,101a.17.17,0,0,0,.28,0h.21s.22-.09,0-.14h-.28C70.74,100.76,70.69,100.84,70.68,101Z"/><path class="cls-3" d="M71.06,99.93h.26l.07-.06s.07-.07.08-.11,0,0-.08,0S71.17,99.81,71.06,99.93Z"/><path class="cls-3" d="M71.24,99.53H71c0,.06-.07.14,0,.18s.13,0,.18-.08S71.23,99.56,71.24,99.53Z"/><path class="cls-3" d="M67.38,102.28c-.16-.07-.3,0-.45,0a.32.32,0,0,0-.14.08.12.12,0,0,0,0,.14.08.08,0,0,0,.07,0s.11,0,.15-.06h.21c.09-.07.2,0,.29-.06l.42-.08c-.11-.19-.28-.07-.43-.06Z"/><path class="cls-3" d="M70.31,101.17c-.1-.11-.23,0-.35-.06s.07.15.19.11Z"/><path class="cls-3" d="M70.09,105.79c-.2,0-.34.12-.34.34s0,.15.15.12l.13,0a.53.53,0,0,1,.42-.21s0,0,0-.07.21,0,.25-.09-.09-.12-.14-.18h0a.29.29,0,0,1-.22.06h0l-.08.06h0s0,0-.06,0Z"/><path class="cls-3" d="M47.14,84.72c0,.06,0,.13-.06.18l0,0a.58.58,0,0,0-.05.26c0,.13,0,.29.15.36a.19.19,0,0,0,.1,0c0-.12-.13-.23,0-.35a.93.93,0,0,1,.07-.41s0-.09-.06-.11S47.15,84.67,47.14,84.72Z"/><path class="cls-3" d="M56.15,89.79c0-.07.12-.14,0-.21h0a.14.14,0,0,0-.09,0,.57.57,0,0,1-.18,0l-.08,0-.21,0H55l.2.13c.13,0,.23,0,.21.2a.12.12,0,0,0,.07.14h.14v-.1l0,0,0,0a.13.13,0,0,1,.09,0c.07,0,0,.07,0,.11s-.09.17,0,.25H56c.14,0,.33,0,.4-.11S56.14,89.94,56.15,89.79Z"/><path class="cls-3" d="M56.33,87.33a.36.36,0,0,0,0,.09s.07.13.14.08.06-.17,0-.26v-.07h0a.24.24,0,0,1-.06-.08l-.09-.19c-.11.07-.06.18-.06.27S56.31,87.28,56.33,87.33Z"/><path class="cls-3" d="M51.32,89.19c-.13,0,0,.17,0,.25h0l.08.07h0c.08,0,.1,0,.13-.07v-.06C51.4,89.34,51.47,89.14,51.32,89.19Z"/><path class="cls-3" d="M58.37,87.3a.12.12,0,0,0,.1,0l.1-.07,0,0c0-.08,0-.16-.08-.21a1.48,1.48,0,0,0-.29.27A.13.13,0,0,0,58.37,87.3Z"/><path class="cls-3" d="M60.61,92.13c0,.08.06.11.12.14h0l.07-.06h0c0-.06,0-.13-.12-.12A.08.08,0,0,0,60.61,92.13Z"/><path class="cls-3" d="M60,92.75c0,.18.11,0,.16,0h0a.17.17,0,0,0-.08-.14h0a.46.46,0,0,1-.07.07S60,92.73,60,92.75Z"/><path class="cls-3" d="M61,91.8c0,.15.07.08.13.06S61,91.79,61,91.8Z"/><path class="cls-3" d="M59.88,92.9c-.05,0,0,.1-.08.13h0a.12.12,0,0,1-.08.06h-.06a.13.13,0,0,0-.08.11.06.06,0,0,0,.08,0h.28c0-.08,0-.16.08-.21V93c0-.12-.05-.12-.14-.07Z"/><path class="cls-3" d="M48.57,76l0,0a.06.06,0,0,0,0,0,.14.14,0,0,0-.15.14.09.09,0,0,0,0,.07s0,0,0,.06l.13,0A.28.28,0,0,0,48.57,76Z"/><path class="cls-3" d="M27.12,82.27a.09.09,0,0,0-.15,0,.14.14,0,0,0,0,.06s.11,0,.16,0Z"/><path class="cls-3" d="M23.46,96.81c0-.08-.05-.11-.13-.11v.19C23.39,96.89,23.45,96.89,23.46,96.81Z"/><path class="cls-3" d="M25.81,97.17s0-.09,0-.13a.1.1,0,0,0-.14,0C25.69,97.12,25.71,97.17,25.81,97.17Z"/><polygon class="cls-3" points="25.69 97.04 25.69 97.04 25.69 97.04 25.69 97.04"/><path class="cls-3" d="M46.35,91.79h0a5.37,5.37,0,0,0,.21.56v.06c.22.31.22.31.23.48s.13.33.36.33a.24.24,0,0,0,.19-.17.23.23,0,0,0-.1-.23.07.07,0,0,0-.09,0h0a.18.18,0,0,0,.06-.17.32.32,0,0,0,0-.09.26.26,0,0,0-.29-.21h0v-.1s0,0,0,0,0-.15-.1-.21-.11-.37-.37-.37C46.32,91.67,46.3,91.72,46.35,91.79Z"/><path class="cls-3" d="M41.71,102.21a.17.17,0,0,1-.15-.06h-.07a.46.46,0,0,1-.07.07h0l.08.07h.16S41.75,102.27,41.71,102.21Z"/><path class="cls-3" d="M39.7,91.13c0,.31,0,.35,0,.36a.08.08,0,0,0,.07,0A.26.26,0,0,0,39.7,91.13Z"/><path class="cls-3" d="M25.5,94.72c0,.1-.1.2,0,.31l0,0c.06,0,.12,0,.17,0h0l.08-.07c0-.06.28,0,.06-.19-.06,0-.16.08-.2,0S25.53,94.66,25.5,94.72Z"/><path class="cls-3" d="M40.21,101.72c.06,0,.11,0,.13-.06S40.24,101.66,40.21,101.72Z"/><path class="cls-3" d="M44.13,87.94c.07,0,.24,0,.15-.14s-.3,0-.42-.09h-.29v0c-.08,0-.16,0-.23,0a.45.45,0,0,0,.23,0,.13.13,0,0,1,.14.07l.08.06h.06A.21.21,0,0,0,44,88Z"/><path class="cls-3" d="M45.57,89.72l0,0a.35.35,0,0,1-.12-.19.29.29,0,0,0,0-.09.35.35,0,0,0-.26-.24h0a.18.18,0,0,0-.15.07l.23.41c.06.06,0,.15.07.21h0l.07.06C45.53,90,45.58,89.87,45.57,89.72Z"/><path class="cls-3" d="M41.86,87.92h0l.07-.07v0l0-.08a.66.66,0,0,1,0-.14.2.2,0,0,0,.21-.06c-.07,0-.13,0-.15-.12l-.07,0,0,0c-.07,0-.15-.11-.24,0h0l.06.26.06,0A.43.43,0,0,0,41.86,87.92Z"/><path class="cls-3" d="M40.66,79.29h0c0-.07,0-.15-.07-.19a.28.28,0,0,1-.15-.06c-.11.09-.08.18,0,.26v.07h.07v.06a.5.5,0,0,1,.15.26.31.31,0,0,0,.07.09h0c0,.09,0,.21.13.28a.32.32,0,0,0,.15.13.64.64,0,0,1,.08.33c.06.07,0,.16.07.22h0s0,.11.06.16,0,.1,0,.16a.07.07,0,0,0,.07.05.21.21,0,0,1,.29-.1h0a.28.28,0,0,0,0,.09,1.41,1.41,0,0,0,.17.32.41.41,0,0,1,.07.11.25.25,0,0,0,0,.07.36.36,0,0,0,.18.24c.15,0,.21.11.28.21s.16.09.2,0a1,1,0,0,0-.21-.43.56.56,0,0,0-.05-.08c-.14-.14-.18-.33-.3-.48h0L41.93,81c-.07,0-.13-.1-.22-.09s.08-.12,0-.15c-.22-.21-.35-.49-.62-.64h0a.6.6,0,0,0-.07-.35C41,79.56,40.86,79.37,40.66,79.29Z"/><path class="cls-3" d="M66.31,104.62c0-.16-.1-.14-.21-.13S66.21,104.62,66.31,104.62Z"/><path class="cls-3" d="M47,86.59c.08.09.13,0,.18,0v-.14a.11.11,0,0,1,0-.14v-.14c-.11-.06,0-.22-.14-.27C46.85,86.09,47,86.34,47,86.59Z"/><path class="cls-3" d="M53.08,91.86l.06-.07c0-.23-.16-.11-.27-.07a.15.15,0,0,1,0,.07C52.91,91.88,53,91.86,53.08,91.86Z"/><path class="cls-3" d="M57.21,88c.07,0,.08-.06.09-.11s-.09-.14-.15-.21-.18,0-.18.12S57.11,87.93,57.21,88Z"/><path class="cls-3" d="M56.73,89.52c0,.07.08.16.17,0l0-.09s0-.11-.06-.15h0C56.71,89.36,56.73,89.44,56.73,89.52Z"/><path class="cls-3" d="M57.58,88.13h0s0,0-.08,0-.12,0-.12.09,0,0,0,0,.08,0,.12,0Z"/><path class="cls-3" d="M56.28,88.49c0,.05,0,.05.08.05s.07-.05.07-.1,0-.06-.07,0A.12.12,0,0,0,56.28,88.49Z"/><path class="cls-3" d="M56.51,89.1h0c.05.06.11.1.18,0a.07.07,0,0,0,0-.11C56.58,89,56.57,89.09,56.51,89.1Z"/><path class="cls-3" d="M55.59,90.56v.06h0s0,.1.07.13.07.06.12.06,0-.07,0-.12,0-.14-.07-.21h0s0,0-.05,0S55.6,90.53,55.59,90.56Z"/><path class="cls-3" d="M49.37,101.44a.15.15,0,0,0,0-.13.29.29,0,0,0,0-.09,1.4,1.4,0,0,0-.2-.56s-.11-.08-.18,0v.07a.11.11,0,0,0,0,.15,9.1,9.1,0,0,0,.29,1C49.42,101.74,49.33,101.58,49.37,101.44Z"/><path class="cls-3" d="M43.75,103s0,0-.07-.06-.12,0-.13.09,0,.05.08,0S43.75,103,43.75,103Z"/><path class="cls-3" d="M35,98.74c0-.1-.07-.13-.15-.15s-.1,0-.09.08.09.12.17.13A.06.06,0,0,0,35,98.74Z"/><path class="cls-3" d="M44.86,87.51h-.15v.07a.46.46,0,0,1,.07.07l.22.14a.11.11,0,0,0,0-.14A.27.27,0,0,0,44.86,87.51Z"/><polygon class="cls-3" points="45 87.79 45 87.79 44.99 87.79 45 87.79"/><path class="cls-3" d="M43.92,85.65h0c.15,0,.21,0,.15-.14h0C44,85.52,43.92,85.56,43.92,85.65Z"/><path class="cls-3" d="M43.34,84.49c0,.14.15.18.23.26s.13.23.27.3c0-.12-.07-.2-.06-.3a.08.08,0,0,0,0-.13h0c-.17-.06-.16-.25-.29-.34h0l-.08-.07h0a.47.47,0,0,0-.06-.09s0-.05-.08-.05,0,.27,0,.41Z"/><path class="cls-3" d="M42.57,84.76h.09s0,0,.05,0-.16-.15-.14-.27l-.08-.07C42.32,84.56,42.54,84.64,42.57,84.76Z"/><path class="cls-3" d="M44.92,87.93l-.21-.1a.13.13,0,0,0-.15,0c0,.06.07.07.09.12S44.89,88.17,44.92,87.93Z"/><path class="cls-3" d="M46.65,90.54l-.07-.07a.09.09,0,1,0,.07.07Z"/><path class="cls-3" d="M47.14,88.61a2.52,2.52,0,0,0,0,.55l.14-.06c0-.07,0-.14,0-.21S47.26,88.68,47.14,88.61Z"/><path class="cls-3" d="M47.29,88.27a.08.08,0,0,1-.07,0c-.12.11,0,.13.06.14S47.35,88.32,47.29,88.27Z"/><path class="cls-3" d="M42.68,82.72a.08.08,0,0,0,0-.07c0-.05,0-.08-.09-.1s-.21-.25-.35-.34c0,.16.06.28.13.41l.08.06h0A.17.17,0,0,0,42.68,82.72Z"/><path class="cls-3" d="M40,78.56c.07.11.15.22.22.34.07,0,.08-.09.09-.16s-.06-.27-.22-.34S40,78.47,40,78.56Z"/><path class="cls-3" d="M51.86,105.11a.13.13,0,0,0-.07-.06l-.24-.07c-.13,0-.26-.12-.39,0s-.14,0-.16,0,.06.07.08.12a1.61,1.61,0,0,0,.49.07C51.67,105.16,51.78,105.21,51.86,105.11Z"/><path class="cls-3" d="M55.09,105.86c0,.06.08.07.14.08h0s0-.07.07-.07h.13l.08.06h0c.08-.05.06-.13.06-.2l-.28-.08c-.16-.07-.3-.19-.49-.08,0,0,0,0,0,0v0s0,0,0,0h0s-.1,0-.13,0,0,.14,0,.21h.14A.28.28,0,0,1,55.09,105.86Z"/><path class="cls-3" d="M56.08,105.8v.13h.2a.14.14,0,0,0,.15,0h0a.67.67,0,0,0,.15-.14h0l.07-.07h0c0-.07,0-.1-.09-.08S56.22,105.66,56.08,105.8Z"/><path class="cls-3" d="M56.66,106a1.75,1.75,0,0,0,.64.07c0-.08,0-.1-.07-.14H57s-.11,0-.15-.06H56.8C56.77,105.93,56.62,105.86,56.66,106Z"/><path class="cls-3" d="M69.32,100.4l-.08,0a.12.12,0,0,0-.13,0l-.44.2-.07.07c-.11.08-.25,0-.36.06H68a.12.12,0,0,0-.14.06h0c-.11,0-.17.14-.29.13a.23.23,0,0,0-.07.07h-.07l-.08.07a.13.13,0,0,1-.14.06l-.36.07c-.09.05-.21,0-.28.07h0c-.13.19-.41.09-.55.28a.54.54,0,0,0,.56-.07.42.42,0,0,1,.27-.07h0c.07-.06.15,0,.22,0l.09,0c.1-.05.2-.12.32-.07s.18-.07.23-.16.32-.09.44-.2a.17.17,0,0,0,.15-.06.51.51,0,0,0,.34-.08.11.11,0,0,1,.15,0h.06a.55.55,0,0,1,.38,0,1.17,1.17,0,0,0,.55-.19h-.07c-.1,0-.1-.13-.13-.21h0s0,0,0-.06a.12.12,0,0,0-.2,0A.21.21,0,0,1,69.32,100.4Z"/><path class="cls-3" d="M55.73,105.8h0a.18.18,0,0,0,.29,0l-.06-.07s0,0,0,0,0,0-.05,0H55.8Z"/><path class="cls-3" d="M56.26,101.79s0,.07.07.08h.11v-.06l-.06,0S56.28,101.73,56.26,101.79Z"/><path class="cls-3" d="M57.74,106a.09.09,0,0,0-.16,0v.07h.07c.08,0,.16,0,.21-.06Z"/><path class="cls-3" d="M41.34,80.14c.08.08.12.21.27.24,0-.17-.07-.27-.12-.38h-.06C41.36,80,41.35,80.08,41.34,80.14Z"/><path class="cls-3" d="M49.8,91.3h0a0,0,0,0,0,0,0s0,0,0,0,0,0,.07,0,.25,0,.35-.06l-.14-.13C49.82,91.08,49.82,91.08,49.8,91.3Z"/><path class="cls-3" d="M51.74,91.26s.08,0,.12,0a.33.33,0,0,0,0-.1c0-.06,0-.14-.09-.12S51.71,91.2,51.74,91.26Z"/><path class="cls-3" d="M56.87,89.93,57,90s0,0,0-.06a.5.5,0,0,0-.09-.21C56.75,89.74,56.89,89.86,56.87,89.93Z"/><path class="cls-3" d="M59.08,93.16a.61.61,0,0,0,.46-.07.35.35,0,0,1-.31-.13h-.07C59.15,93,59.05,93.06,59.08,93.16Z"/><polygon class="cls-3" points="58.55 90.81 58.56 90.79 58.54 90.79 58.55 90.81"/><path class="cls-3" d="M67,97.44c-.06,0-.09.07-.07.13s.09,0,.14,0S67.14,97.43,67,97.44Z"/><path class="cls-3" d="M43.93,105v.06c.15.14.14.34.21.5a.35.35,0,0,0,.14.2c.11-.08.06-.19.08-.29a1.83,1.83,0,0,1-.07-.53c0-.11-.1-.19-.15-.28h-.07C44.07,104.83,44.09,105,43.93,105Z"/><path class="cls-3" d="M47.35,95.6h-.11c-.05,0-.13,0-.14.06s.06.06.1.08l.09,0C47.37,95.74,47.36,95.67,47.35,95.6Z"/><path class="cls-3" d="M45.2,103.46l-.27-.08C45,103.54,45,103.55,45.2,103.46Z"/><path class="cls-3" d="M48.22,101.76c-.12,0-.14.08-.14.17H48V102c.13.11,0,.25,0,.37s.12-.08.18-.09a.45.45,0,0,0,.08-.27l0-.09C48.28,101.86,48.31,101.77,48.22,101.76Z"/><path class="cls-3" d="M47.64,92.69c-.09-.06-.06-.16-.08-.24s-.1-.1-.16,0a.33.33,0,0,0,0,.13,1.56,1.56,0,0,1,.14.48l.15-.13C47.65,92.83,47.64,92.76,47.64,92.69Z"/><path class="cls-3" d="M48.1,96.75h0a.46.46,0,0,1,.07.26,2,2,0,0,0,.13.58h0c.13.44.15.91.24,1.36.12.1,0,.27.13.36h0c0,.26.18.48.16.74l.06,0v.06a.14.14,0,0,0,.07-.13l0-.06s0-.06,0-.08V99.7a.28.28,0,0,0,0-.09,1,1,0,0,1-.11-.38.22.22,0,0,0-.05-.08.05.05,0,0,0,0,0v0a.46.46,0,0,0,0-.2c0-.1-.05-.2-.08-.3a4.11,4.11,0,0,0-.12-.61.69.69,0,0,1-.09-.34v-.09a.18.18,0,0,0-.05-.12h-.07a.16.16,0,0,0,0-.15,2,2,0,0,1,0-.43c0-.11,0-.23-.15-.25l0,0c-.07,0,0-.14-.12-.15A.5.5,0,0,0,48.1,96.75Z"/><path class="cls-3" d="M47.27,91.65s.06,0,.09.07a.15.15,0,0,0,.15-.06c.05-.06.1-.11.09-.19a.16.16,0,0,0,0-.09.87.87,0,0,0-.11-.18l0,0c-.15.11,0,.31-.14.42h0A0,0,0,0,0,47.27,91.65Z"/><path class="cls-3" d="M47,91.86s0,0,0,.06,0,.11.07.11.08-.06.08-.11v-.13h-.07A.1.1,0,0,0,47,91.86Z"/><path class="cls-3" d="M47.29,89.58a.13.13,0,0,0,0-.06c-.13.15-.05.31,0,.48A1.21,1.21,0,0,0,47.29,89.58Z"/><path class="cls-3" d="M47.71,88.34c-.07,0,0,.09,0,.14s.15,0,.15-.06S47.78,88.35,47.71,88.34Z"/><path class="cls-3" d="M50.28,104.91h0c.06,0,0,.1.09.12h0c.14-.06.21-.14.06-.26h0l-.08-.05a.14.14,0,0,0-.12.06A.78.78,0,0,0,50.28,104.91Z"/><path class="cls-3" d="M50.65,94.35h0c0,.05-.18,0-.13.11s.18.06.27,0h0A.12.12,0,0,0,50.65,94.35Z"/><path class="cls-3" d="M51.88,93.86s0-.1,0-.14v-.06c-.13,0-.19.09-.28.13h0c0,.07,0,.13,0,.17a.1.1,0,0,0,.1,0h0A.31.31,0,0,0,51.88,93.86Z"/><path class="cls-3" d="M57,90.2c0,.06.07.11.1.16l.09-.16C57.08,90.11,57,90.11,57,90.2Z"/><path class="cls-3" d="M57.5,91.66c-.1-.1,0-.23-.06-.35s0,0,0-.06h0s0-.08,0-.12-.07-.1-.1-.16h0l-.08.08a.18.18,0,0,0,0,.2s0,0,0,.06,0,.11.07.15v.13a4.68,4.68,0,0,1,.2.9v0a.38.38,0,0,0,.05.21l0,0c.08,0,.16,0,.12-.12a.27.27,0,0,1,.09-.36.26.26,0,0,0,.07-.19C57.55,92,57.55,92,57.5,91.66Z"/><path class="cls-3" d="M48.07,90.89v-.06a.12.12,0,0,0,0-.15c0-.06-.1-.16-.15,0s0,.11-.07.15v.06s0,0,0,.07V91C48,91.13,48,91,48.07,90.89Z"/><path class="cls-3" d="M57.81,95.45a.17.17,0,0,0-.24,0c0,.1.06.16.09.24S57.8,95.55,57.81,95.45Z"/><path class="cls-3" d="M56.29,96.77s0,.1.08.1.07-.05.06-.1a.09.09,0,0,0-.07-.09C56.29,96.68,56.29,96.73,56.29,96.77Z"/><path class="cls-3" d="M51.89,94.26a.15.15,0,0,0-.13,0s0,0,0,.08,0,0,.07,0,.16,0,.15.13-.08.13,0,.22a.88.88,0,0,0,.31-.39.83.83,0,0,0,0-.15c0-.09,0-.11-.09-.12S52.07,94.31,51.89,94.26Z"/><path class="cls-3" d="M51.72,95.72a.13.13,0,0,1,0-.06.23.23,0,0,1,.07-.07h0l.13-.13c-.06-.07-.13,0-.21,0s-.21.37-.39.51l.12.06.2-.15S51.68,95.76,51.72,95.72Z"/><path class="cls-3" d="M50.86,100.55c-.09-.1-.19,0-.28,0C50.73,100.74,50.77,100.74,50.86,100.55Z"/><path class="cls-3" d="M53.36,100.11v0a.1.1,0,0,0-.14,0h0c0,.11-.15.23,0,.34v-.06l.06-.08a.13.13,0,0,1,.07-.13Z"/><path class="cls-3" d="M47.88,91.4h0s0,0,0,0h0Z"/></g></g><g id="Cam_Glass" data-name="Cam Glass"><path class="cls-4" d="M31.25,81.19V25.67a6.39,6.39,0,0,1,6.39-6.38H62a6.39,6.39,0,0,1,6.39,6.38V81.19A6.4,6.4,0,0,1,62,87.58H37.64A6.4,6.4,0,0,1,31.25,81.19Zm6.39-61.4a5.89,5.89,0,0,0-5.89,5.88V81.19a5.89,5.89,0,0,0,5.89,5.89H62a5.89,5.89,0,0,0,5.89-5.89V25.67A5.89,5.89,0,0,0,62,19.79Z"/><path class="cls-4" d="M31.75,35.12a1.1,1.1,0,0,0-1.1,1.1v5.36a1.1,1.1,0,0,0,1.1,1.1h0"/><path class="cls-4" d="M68.24,32.43a.58.58,0,0,0,.58-.59V29.49a.58.58,0,0,0-.58-.58h0"/><path class="cls-4" d="M68.24,39.54a.59.59,0,0,0,.58-.59V34.7a.59.59,0,0,0-.58-.59h0"/><path class="cls-4" d="M68.24,45.83h0a.58.58,0,0,0,.58-.58V41a.58.58,0,0,0-.58-.58h0"/><path class="cls-5" d="M49.51,35.46,40,51.36a.86.86,0,0,0,.73,1.3H60a.85.85,0,0,0,.73-1.3L51,35.46A.85.85,0,0,0,49.51,35.46Z"/><path class="cls-4" d="M49.67,48l-.92-5.27c-.29-1.58.35-2,1.59-2s1.88.43,1.6,2L51,48Z"/><circle class="cls-4" cx="50.31" cy="49.98" r="1.37"/><rect class="cls-6" x="35.52" y="22.86" width="5.25" height="11.29" rx="2.22"/><path class="cls-7" d="M38.14,34.6a3.08,3.08,0,0,1-3.07-3.07v-6a3.08,3.08,0,0,1,6.15,0v6A3.08,3.08,0,0,1,38.14,34.6Zm0-11.29A2.19,2.19,0,0,0,36,25.49v6a2.18,2.18,0,0,0,4.36,0v-6A2.19,2.19,0,0,0,38.14,23.31Z"/><rect class="cls-8" x="35.52" y="22.86" width="5.25" height="11.29" rx="2.22"/><rect class="cls-9" x="35.52" y="22.86" width="5.25" height="11.29" rx="2.22"/><circle class="cls-10" cx="38.14" cy="25.57" r="1.54"/><circle class="cls-11" cx="38.14" cy="28.45" r="0.73"/><path class="cls-12" d="M38.45,28.45a.31.31,0,1,1-.31-.31A.31.31,0,0,1,38.45,28.45Z"/><path class="cls-10" d="M39.68,31.45a1.54,1.54,0,1,1-1.54-1.54A1.54,1.54,0,0,1,39.68,31.45Z"/><path class="cls-13" d="M39.23,25.57a1.09,1.09,0,1,1-2.17,0,1.09,1.09,0,0,1,2.17,0Z"/><circle class="cls-14" cx="38.14" cy="25.57" r="0.73"/><path class="cls-12" d="M38.45,25.57a.31.31,0,0,1-.62,0,.31.31,0,0,1,.62,0Z"/><path class="cls-15" d="M39.23,31.45a1.09,1.09,0,1,1-1.09-1.09A1.09,1.09,0,0,1,39.23,31.45Z"/><circle class="cls-14" cx="38.14" cy="31.45" r="0.73"/><path class="cls-12" d="M38.45,31.45a.31.31,0,1,1-.31-.31A.31.31,0,0,1,38.45,31.45Z"/><circle class="cls-12" cx="35.52" cy="26.76" r="15.66"/><path class="cls-4" d="M35.52,42.77a16,16,0,1,1,16-16A16,16,0,0,1,35.52,42.77Zm0-31.32A15.32,15.32,0,1,0,50.83,26.76,15.33,15.33,0,0,0,35.52,11.45Z"/><g class="cls-16"><path class="cls-4" d="M30.88,88.8V26.07a7.23,7.23,0,0,1,7.21-7.22H65.63a7.23,7.23,0,0,1,7.22,7.22V88.8A7.22,7.22,0,0,1,65.63,96H38.09A7.22,7.22,0,0,1,30.88,88.8Zm7.21-69.38a6.65,6.65,0,0,0-6.64,6.65V88.8a6.66,6.66,0,0,0,6.64,6.65H65.63a6.66,6.66,0,0,0,6.65-6.65V26.07a6.65,6.65,0,0,0-6.65-6.65Z"/><path class="cls-4" d="M31.44,36.74A1.25,1.25,0,0,0,30.2,38V44a1.25,1.25,0,0,0,1.24,1.24h0"/><rect class="cls-6" x="35.7" y="22.89" width="5.94" height="12.75" rx="2.22"/><path class="cls-7" d="M38.66,36.15a3.47,3.47,0,0,1-3.47-3.47V25.86a3.48,3.48,0,0,1,7,0v6.82A3.47,3.47,0,0,1,38.66,36.15Zm0-12.75a2.46,2.46,0,0,0-2.46,2.46v6.82a2.47,2.47,0,0,0,4.93,0V25.86A2.47,2.47,0,0,0,38.66,23.4Z"/><rect class="cls-8" x="35.7" y="22.89" width="5.94" height="12.75" rx="2.22"/><rect class="cls-17" x="35.7" y="22.89" width="5.94" height="12.75" rx="2.22"/><circle class="cls-10" cx="38.66" cy="25.96" r="1.74"/><circle class="cls-11" cx="38.66" cy="29.21" r="0.82"/><path class="cls-12" d="M39,29.21a.35.35,0,1,1-.69,0,.35.35,0,1,1,.69,0Z"/><path class="cls-10" d="M40.4,32.6a1.74,1.74,0,1,1-1.74-1.74A1.73,1.73,0,0,1,40.4,32.6Z"/><path class="cls-13" d="M39.89,26a1.23,1.23,0,1,1-1.23-1.23A1.23,1.23,0,0,1,39.89,26Z"/><circle class="cls-14" cx="38.66" cy="25.96" r="0.82"/><path class="cls-12" d="M39,26a.35.35,0,1,1-.35-.35A.34.34,0,0,1,39,26Z"/><path class="cls-15" d="M39.89,32.6a1.23,1.23,0,1,1-1.23-1.23A1.23,1.23,0,0,1,39.89,32.6Z"/><circle class="cls-14" cx="38.66" cy="32.6" r="0.82"/><path class="cls-12" d="M39,32.6a.35.35,0,1,1-.35-.35A.34.34,0,0,1,39,32.6Z"/></g></g></svg>