<svg xmlns="http://www.w3.org/2000/svg" xmlns:xlink="http://www.w3.org/1999/xlink" viewBox="0 0 106 106"><defs><style>.cls-1{fill:none;}.cls-2{fill:#1d1d1b;}.cls-3{fill:#fff;}.cls-15,.cls-4{fill:#62bfb3;}.cls-5,.cls-7{fill:#010101;}.cls-6{fill:#676767;}.cls-7{stroke:#fff;stroke-miterlimit:10;stroke-width:2px;}.cls-8{fill:url(#Degradado_sin_nombre_67);}.cls-9{fill:#4e4d4d;}.cls-10{fill:#f8e9c1;}.cls-11{fill:#c6c6c6;}.cls-12{fill:#dadada;}.cls-13{fill:#c7c6c6;}.cls-14{clip-path:url(#clip-path);}.cls-15{fill-rule:evenodd;}</style><linearGradient id="Degradado_sin_nombre_67" x1="35.45" y1="23.84" x2="40.84" y2="33.18" gradientUnits="userSpaceOnUse"><stop offset="0" stop-color="#010101"/><stop offset="0.54" stop-color="#343434"/><stop offset="1" stop-color="#010101"/></linearGradient><clipPath id="clip-path"><rect class="cls-1" x="0.24" y="109.85" width="106.08" height="27.76" rx="4.5"/></clipPath></defs><title>webIcons</title><g id="Icon_Cam_2" data-name="Icon Cam 2"><path class="cls-2" d="M50.72,83.86a1.29,1.29,0,0,0-.62-.37,1.12,1.12,0,0,0-.44-.06,1.17,1.17,0,0,0-.77.31,1.68,1.68,0,0,0-.43.66,1.56,1.56,0,0,0-.1.53,1.9,1.9,0,0,0,.06.5,1.62,1.62,0,0,0,.41.72,1.21,1.21,0,0,0,.61.32,1.1,1.1,0,0,0,.41,0,1.19,1.19,0,0,0,.44-.11,1.25,1.25,0,0,0,.43-.31,1.21,1.21,0,0,0,.35-.78c0-.22-.06-.33-.14-.32s-.11.12-.17.29a3.18,3.18,0,0,1-.28.55,1.26,1.26,0,0,1-.43.38,1,1,0,0,1-.57,0,1,1,0,0,1-.58-.34,1,1,0,0,1-.18-.31,1.68,1.68,0,0,1-.11-.4,1.29,1.29,0,0,1,0-.65,1.26,1.26,0,0,1,.47-.64l.13-.07.13,0,.19-.06a1,1,0,0,1,.52.09.6.6,0,0,1,.11.06,1.19,1.19,0,0,1,.18.15l.1.13a2.33,2.33,0,0,1,.28.59c.06.15.11.24.19.25s.12-.15.1-.38A1.13,1.13,0,0,0,50.72,83.86Z"/><path class="cls-2" d="M31.25,81.19V25.67a6.39,6.39,0,0,1,6.39-6.38H62a6.39,6.39,0,0,1,6.39,6.38V81.19A6.4,6.4,0,0,1,62,87.58H37.64A6.4,6.4,0,0,1,31.25,81.19Zm6.39-61.4a5.89,5.89,0,0,0-5.89,5.88V81.19a5.89,5.89,0,0,0,5.89,5.89H62a5.89,5.89,0,0,0,5.89-5.89V25.67A5.89,5.89,0,0,0,62,19.79Z"/><path class="cls-2" d="M31.75,35.12a1.1,1.1,0,0,0-1.1,1.1v5.36a1.1,1.1,0,0,0,1.1,1.1h0"/><path class="cls-2" d="M68.24,32.43a.58.58,0,0,0,.58-.59V29.49a.58.58,0,0,0-.58-.58h0"/><path class="cls-2" d="M68.24,39.54a.59.59,0,0,0,.58-.59V34.7a.59.59,0,0,0-.58-.59h0"/><path class="cls-2" d="M68.24,45.83h0a.58.58,0,0,0,.58-.58V41a.58.58,0,0,0-.58-.58h0"/><polygon class="cls-3" points="68.53 56.53 65.05 56.53 65.05 80.62 59.56 82.87 59.56 87.55 68.26 87.55 68.53 56.53"/><path class="cls-3" d="M53.33,77.69l9.2,8.75H48.2a3.41,3.41,0,0,1-3.5-3.3v-17a3.41,3.41,0,0,1,3.5-3.3h6.28l1.19-3.53,7.2,7-9.58,10a1,1,0,0,0,0,1.37Z"/><path class="cls-2" d="M63,87.61H48.2a4.57,4.57,0,0,1-4.67-4.47v-17a4.57,4.57,0,0,1,4.67-4.47h5.44l1-3a1,1,0,0,1,.71-.64,1,1,0,0,1,.94.25l7.54,7.3a1,1,0,0,1,0,1.36L54.28,77l9.42,9A1,1,0,0,1,63.94,87,1,1,0,0,1,63,87.61ZM48.2,62.84a3.41,3.41,0,0,0-3.5,3.3v17a3.41,3.41,0,0,0,3.5,3.3H62.53l-9.2-8.75a1,1,0,0,1,0-1.37l9.58-10-7.2-7-1.19,3.53Z"/><path class="cls-3" d="M82.29,67V82.3a4.42,4.42,0,0,1-4.42,4.42h-6L62.33,76.9l9.42-9.63a1,1,0,0,0,0-1.38L63.3,57.55c1.06,0,2.66,0,4.77,0A4.42,4.42,0,0,1,72.52,62v.58h5.35A4.43,4.43,0,0,1,82.29,67Z"/><path class="cls-2" d="M77.87,87.9h-6.1a1,1,0,0,1-.7-.3l-9.72-10a1,1,0,0,1,0-1.37l9.42-9.62-8.64-8.54a1,1,0,0,1,.68-1.68h0c1,0,2.78,0,5.24,0a5.6,5.6,0,0,1,5.59,5h4.21a5.6,5.6,0,0,1,5.6,5.6V82.3A5.6,5.6,0,0,1,77.87,87.9Zm-6-1.18h6a4.42,4.42,0,0,0,4.42-4.42V67a4.43,4.43,0,0,0-4.42-4.43H72.52V62a4.42,4.42,0,0,0-4.45-4.43c-2.11,0-3.71,0-4.77,0l8.44,8.34a1,1,0,0,1,0,1.38L62.33,76.9Zm-9.66-10h0ZM63,57.21Z"/><path class="cls-2" d="M54.18,75.68a9.3,9.3,0,0,1,8.36-11.37l.09,1.16a8.13,8.13,0,0,0-7.3,9.94Z"/><path class="cls-2" d="M66.54,82.24l-.42-1.09a8.18,8.18,0,0,0,5.22-7.59,8,8,0,0,0-1.72-5l.92-.72a9.16,9.16,0,0,1,2,5.71A9.34,9.34,0,0,1,66.54,82.24Z"/><path class="cls-4" d="M49.51,35.46,40,51.36a.86.86,0,0,0,.73,1.3H60a.85.85,0,0,0,.73-1.3L51,35.46A.85.85,0,0,0,49.51,35.46Z"/><path class="cls-2" d="M49.67,48l-.92-5.27c-.29-1.58.35-2,1.59-2s1.88.43,1.6,2L51,48Z"/><circle class="cls-2" cx="50.31" cy="49.98" r="1.37"/><rect class="cls-5" x="35.52" y="22.86" width="5.25" height="11.29" rx="2.22"/><path class="cls-6" d="M38.14,34.6a3.08,3.08,0,0,1-3.07-3.07v-6a3.08,3.08,0,0,1,6.15,0v6A3.08,3.08,0,0,1,38.14,34.6Zm0-11.29A2.19,2.19,0,0,0,36,25.49v6a2.18,2.18,0,0,0,4.36,0v-6A2.19,2.19,0,0,0,38.14,23.31Z"/><rect class="cls-7" x="35.52" y="22.86" width="5.25" height="11.29" rx="2.22"/><rect class="cls-8" x="35.52" y="22.86" width="5.25" height="11.29" rx="2.22"/><circle class="cls-9" cx="38.14" cy="25.57" r="1.54"/><circle class="cls-10" cx="38.14" cy="28.45" r="0.73"/><path class="cls-3" d="M38.45,28.45a.31.31,0,1,1-.31-.31A.31.31,0,0,1,38.45,28.45Z"/><path class="cls-9" d="M39.68,31.45a1.54,1.54,0,1,1-1.54-1.54A1.54,1.54,0,0,1,39.68,31.45Z"/><path class="cls-11" d="M39.23,25.57a1.09,1.09,0,1,1-2.17,0,1.09,1.09,0,0,1,2.17,0Z"/><circle class="cls-12" cx="38.14" cy="25.57" r="0.73"/><path class="cls-3" d="M38.45,25.57a.31.31,0,0,1-.62,0,.31.31,0,0,1,.62,0Z"/><path class="cls-13" d="M39.23,31.45a1.09,1.09,0,1,1-1.09-1.09A1.09,1.09,0,0,1,39.23,31.45Z"/><circle class="cls-12" cx="38.14" cy="31.45" r="0.73"/><path class="cls-3" d="M38.45,31.45a.31.31,0,1,1-.31-.31A.31.31,0,0,1,38.45,31.45Z"/></g><g id="Button-2" data-name="Button"><g class="cls-14"><path class="cls-15" d="M.15,69.38s.06-.1,0-.16a.17.17,0,0,0-.19,0,1.05,1.05,0,0,1-.52.1,1.51,1.51,0,0,1,.83-.18l.05.08s0-.05,0-.09A.43.43,0,0,1,.59,69a5.21,5.21,0,0,1,1.71-.2c.1.06.21,0,.32,0a.07.07,0,0,0,.06-.08.18.18,0,0,0-.09-.12.75.75,0,0,0-.36,0c-.08,0-.06,0-.06-.07l.06,0,.14,0,.08,0h0l-.08,0h.07a.13.13,0,0,0,0-.06h.21c.28,0,.58,0,.79-.27h.06c.09,0,.24,0,.22-.15s-.13-.08-.21-.05a5.94,5.94,0,0,0-.72.21c-.1.09-.25,0-.36.07h0v.13H2.23a.25.25,0,0,0-.24.07H2c-.13,0-.28,0-.37.15a.08.08,0,0,1,0,.05.44.44,0,0,0-.2,0l-.07,0c-.09-.06-.22,0-.32-.15s-.28-.08-.43,0-.12.12,0,.2-.06.15-.12.21l-.2.08a.13.13,0,0,0-.06,0h0L0,69H0a4.24,4.24,0,0,0-1,.21v.21c.16.23.4.22.65.2H-.2A.27.27,0,0,0,.15,69.38Z"/><path class="cls-15" d="M105.8,81.1a.09.09,0,0,0,0,.15c.09,0,.15,0,.19-.08l.29-.42v-.13C106.06,80.71,106,81,105.8,81.1Z"/><path class="cls-15" d="M43.51,30.87c.08.05.16.1.22,0s.08-.21.13-.31H43.5C43.6,30.64,43.51,30.75,43.51,30.87Z"/><path class="cls-15" d="M86.6,37.07c.08-.09.18-.16.09-.29a.1.1,0,0,0-.15,0C86.45,36.87,86.48,37,86.6,37.07Z"/><path class="cls-15" d="M97.3,58.58l-.09.1c.06.11.13.22.28.13l0-.05s0-.06,0-.09,0-.11,0-.14S97.34,58.5,97.3,58.58Z"/><path class="cls-15" d="M49.93,39.64h0c-.09-.13,0-.34-.21-.42l-.07-.07c-.08,0-.23,0-.17.12a1,1,0,0,0,.37.45C49.92,39.75,49.92,39.68,49.93,39.64Z"/><path class="cls-15" d="M104.29,82.75h0a.13.13,0,0,1-.07.06c-.12.1-.26.19-.3.35l-.06,0a.09.09,0,0,0-.06.06h0l-.05.06a1.3,1.3,0,0,1-.51.42,1.75,1.75,0,0,0-.44.54l-.37.34a.18.18,0,0,1-.06.09h0s0,.1,0,.15h.05l.08,0,0,0,.08-.05.08,0,.41-.38a4.19,4.19,0,0,1,.54-.49c.08-.1.17-.18.25-.27a.24.24,0,0,0,.07-.12.46.46,0,0,0,0-.2c.1,0,.15,0,.22-.09a.47.47,0,0,0,.1-.1c.15-.12.21-.31.37-.43h0a.26.26,0,0,1,.12-.23.71.71,0,0,0,.26-.31c0-.07,0-.1-.09-.08l-.2.15C104.65,82.36,104.38,82.49,104.29,82.75Z"/><path class="cls-15" d="M49.29,32.18s-.13-.08-.11,0a1.63,1.63,0,0,0,.11.31c.09.06.12.2.26.2a0,0,0,0,1,0,0C49.47,32.52,49.51,32.29,49.29,32.18Z"/><path class="cls-15" d="M105.8,92.76h.06c0-.08-.13-.06-.2,0S105.75,92.75,105.8,92.76Z"/><path class="cls-15" d="M2.37,73.78h.07c.08-.05.24-.06.1-.21s0,0,0-.08a.13.13,0,0,1,0-.06h0a.16.16,0,0,0-.09,0c-.07,0-.14,0-.2,0h0c-.06,0,0,.12,0,.19v0a.61.61,0,0,1-.36-.09c-.12-.07-.29.08-.43,0l0,0H1.31l-.17.09s.13,0,.16.11.23.08.36.07H1.8c.15-.11.32-.06.48-.06S2.35,73.76,2.37,73.78Z"/><path class="cls-15" d="M104.68,66.4c0,.1.16.11.26.14a.51.51,0,0,1,.21.2.35.35,0,0,0,.32.18l0,0c0-.07,0-.14,0-.21v-.13c-.13,0-.26,0-.35-.11s-.23-.13-.35-.18S104.61,66.27,104.68,66.4Z"/><polygon class="cls-15" points="105.51 66.89 105.51 66.89 105.51 66.89 105.51 66.89"/><path class="cls-15" d="M105.65,67.09a.46.46,0,0,1,.07.07c.06,0,.09.07.19,0-.14-.11-.16-.33-.4-.3C105.46,67,105.59,67,105.65,67.09Z"/><path class="cls-15" d="M105.42,72a.28.28,0,0,0,0,.09,1.54,1.54,0,0,1,0,.3.29.29,0,0,0,0,.09c-.06.09.25.3-.1.3v-.06a.08.08,0,0,0-.07-.07h0v-.07a.52.52,0,0,1-.09-.2c-.08-.07-.07-.19-.13-.28a.13.13,0,0,0-.15.14.41.41,0,0,0,0,.22.41.41,0,0,1,0,.22.3.3,0,0,1,0,.08c-.15.13-.19.24.06.31.08-.07.14-.16.26-.14h0c0,.13.06.25.23.26l0,0a.48.48,0,0,0,.08.33,1.49,1.49,0,0,1,.21.59h0l0-.07a.39.39,0,0,0-.1-.08.11.11,0,0,0-.08,0,.22.22,0,0,0-.05.11s0,0,0,.08l0,.07a.36.36,0,0,0,0,.11.37.37,0,0,0,0,.11l.09.16c.06.07.09.2.21.14l.13.1a.16.16,0,0,0-.23.1.17.17,0,0,1,0,.07c.09,0,.16.1.28.08s0-.15,0-.22h0a.31.31,0,0,1,.21.07v-.42h-.06c0-.07,0-.15-.08-.2h0c-.05-.14-.09-.28-.14-.42s0-.22-.14-.28,0,0,0-.06a.06.06,0,0,1,0-.08v0a.3.3,0,0,1-.08-.22.62.62,0,0,0,0-.13c0-.11-.12-.22,0-.29s0-.23,0-.35-.09-.21-.07-.33,0-.14-.07-.21S105.48,71.85,105.42,72Z"/><path class="cls-15" d="M106,73.07a.41.41,0,0,0,.05.09c.06,0,.07-.08.08-.14s-.06-.11-.13-.08S105.94,73,106,73.07Z"/><path class="cls-15" d="M82.29,39.18a.48.48,0,0,1-.48,0l-.09,0-.18,0h-.05l0,0s-.09.08,0,.15h0c.17.08.34.12.5.21l.08.07c.15,0,.33-.06.43.13.1,0,.21,0,.29,0s.2,0,.28-.09,0-.16-.07-.23h-.06c-.13-.09-.31-.11-.42-.22A.24.24,0,0,0,82.29,39.18Z"/><path class="cls-15" d="M82.54,39.09c0,.13.11.15.21.17a.18.18,0,0,0,.09,0s.15,0,.07-.14,0,0-.08-.07h0C82.73,39,82.62,39,82.54,39.09Z"/><path class="cls-15" d="M7,53a.54.54,0,0,0-.07-.43c-.07,0-.14-.06-.15.06a1.36,1.36,0,0,0,.08.49C6.89,53.08,6.94,53.05,7,53Z"/><path class="cls-15" d="M6.89,50.26c-.15-.07,0-.24-.15-.38,0,.21,0,.36,0,.52s.07.09.14.07A1.48,1.48,0,0,1,6.89,50.26Z"/><path class="cls-15" d="M12.05,44.16a.78.78,0,0,0,0-.22,1.07,1.07,0,0,0-.15-.37.16.16,0,0,0-.09,0c-.06,0-.08.06-.11.1h0l.21.83C12.08,44.44,12,44.28,12.05,44.16Z"/><path class="cls-15" d="M12.26,45.62a.4.4,0,0,0-.09-.47L12,45.08a1.62,1.62,0,0,0,.08.69.17.17,0,0,1,.07.13C12.29,45.83,12.23,45.71,12.26,45.62Z"/><path class="cls-15" d="M12.81,51.71h0c-.24,0-.25,0-.15.21l.08.06h0C12.93,51.93,12.85,51.81,12.81,51.71Z"/><path class="cls-15" d="M10.74,31.27c0,.19,0,.37,0,.56.1-.07.05-.18.06-.27s0-.2.07-.27a.17.17,0,0,0,0-.21C10.76,31.09,10.74,31.17,10.74,31.27Z"/><path class="cls-15" d="M20.4,33.43a2.26,2.26,0,0,0,0,.26l.06.07a.19.19,0,0,0,.14-.13h0l-.07-.06h0a.08.08,0,0,1,0-.13c.07,0,.08-.1,0-.14S20.39,33.33,20.4,33.43Z"/><path class="cls-15" d="M18.9,32.45v-.06h0a.1.1,0,0,0,0,0s-.05.09,0,.11S18.89,32.48,18.9,32.45Z"/><path class="cls-15" d="M15,34.31c0,.07,0,.13.09.12a.11.11,0,0,0,.11-.14c0-.07,0-.14-.11-.13S15,34.25,15,34.31Z"/><path class="cls-15" d="M102.87,63.51v.06a.61.61,0,0,1,.21.35.12.12,0,0,0,.13-.13h0s0-.09,0-.14,0-.14-.06-.2-.11,0-.15-.07a.06.06,0,0,0-.07,0S102.91,63.47,102.87,63.51Z"/><path class="cls-15" d="M103.36,64.4a.16.16,0,0,0,.15-.07s0,0,0-.06a.32.32,0,0,1-.13-.15h0C103.24,64.21,103.32,64.31,103.36,64.4Z"/><path class="cls-15" d="M98.43,61a.2.2,0,0,0,0-.07c-.18-.17-.19-.17-.28,0v0a.1.1,0,0,0,0,0l.06,0,.07,0h0A.46.46,0,0,1,98.43,61Z"/><path class="cls-15" d="M97.07,59.85c0,.06,0,.08.06.08l.24.24s.08.09.14.06,0-.12.07-.18a4,4,0,0,0-.51-.41C97,59.71,97.09,59.78,97.07,59.85Z"/><path class="cls-15" d="M101.86,60.47a.18.18,0,0,1,0,.1h0a.12.12,0,0,0-.09,0c-.15,0-.11-.2-.25-.18s.07.29.05.45v0a.5.5,0,0,0,0,.12l0,.07a.35.35,0,0,0,.11.13c.31,0,0-.27.2-.33s.09.08.12.12l0,0,.08.06a.17.17,0,0,0,.18,0,.19.19,0,0,0,0-.08,0,0,0,0,1,0-.06.11.11,0,0,0,0-.07.17.17,0,0,0,0-.15.07.07,0,0,0,0-.05.18.18,0,0,0,0-.07.15.15,0,0,0-.1-.09c.07-.05.12-.1.08-.19h0a.27.27,0,0,0-.07-.08h0C102,60.25,101.87,60.29,101.86,60.47Z"/><path class="cls-15" d="M100.72,104.9l-.12.07c-.14.09-.13.11.05.21a.51.51,0,0,1,.28-.08c.21-.11.08-.22,0-.33h-.06Z"/><path class="cls-15" d="M4.24,69.31a.62.62,0,0,1,0,.13.15.15,0,0,0,.21,0h0C4.44,69.3,4.34,69.29,4.24,69.31Z"/><path class="cls-15" d="M12.1,73l0,0c.07,0,.14,0,.17,0s0-.09-.07-.12h0c-.08,0-.17,0-.22,0S12.09,73,12.1,73Z"/><path class="cls-15" d="M11,72.43l-.06,0a.05.05,0,0,0,0,.07s.05,0,.05,0S11,72.44,11,72.43Z"/><path class="cls-15" d="M9.66,67.71c.05,0,.13,0,.08-.14-.26-.1-.35-.06-.36.14h.28Z"/><path class="cls-15" d="M3.52,73.57a2,2,0,0,0,.64-.06.72.72,0,0,1,.52,0c.05,0,.14,0,.21,0a2.68,2.68,0,0,1,.8.06A.22.22,0,0,0,6,73.51h.22v-.06h.51c.11,0,.08-.08.06-.14a1.63,1.63,0,0,1-.38,0,.8.8,0,0,0-.57,0H5.67l-.15,0H5.38c0-.09,0-.18-.15-.07a1.17,1.17,0,0,1-.2.06.22.22,0,0,1-.3-.19c-.07,0-.14-.26-.21,0,.08.14.1.24-.11.25a.86.86,0,0,0-.17,0c-.24-.08-.48,0-.72,0A.15.15,0,0,0,3.52,73.57Z"/><path class="cls-15" d="M54.51,39.57a.35.35,0,0,1,0-.08l-.08-.06c-.13,0-.14,0-.08.13h0c.06.09,0,.19,0,.29s-.08.35.07.51.14.1.23,0,0,0,0,0,0-.25-.06-.36a.17.17,0,0,1,0-.07c-.08-.1,0-.24-.07-.34Z"/><path class="cls-15" d="M50.36,34.81c-.12,0-.21-.12-.34-.09a.42.42,0,0,0,.06.36,1.23,1.23,0,0,1,0,.47c0,.07,0,.15.09.17s.15-.07.16-.14A1.54,1.54,0,0,0,50.36,34.81Z"/><path class="cls-15" d="M79.4,34.32c0,.06-.09.11,0,.18a.09.09,0,0,0,.15,0c0-.05.1-.12.06-.18s-.12,0-.18,0Z"/><path class="cls-15" d="M80.2,37.7h.06c.15,0,.33.06.42-.13h0l-.07,0a.11.11,0,0,1-.08,0h0A.31.31,0,0,0,80.2,37.7Z"/><path class="cls-15" d="M82.12,39c.08,0,.17,0,.22,0s0-.07-.08-.1S82,38.83,82.12,39Z"/><path class="cls-15" d="M6,104.93c0-.12-.13,0-.2,0v.26C6,105.17,6.05,105.07,6,104.93Z"/><path class="cls-15" d="M5.9,101.85s0,0-.06-.07l-.14-.08-.07,0h0c-.06,0-.06.08-.07.13l.07.08.07.06a.18.18,0,0,0,.22,0A.29.29,0,0,0,5.9,101.85Z"/><path class="cls-15" d="M3.3,100.49h0a.15.15,0,0,0-.21,0h0v.12h0s.05,0,.08.06S3.39,100.64,3.3,100.49Z"/><path class="cls-15" d="M.23,86.48c.08,0,.14,0,.13-.13S.15,86.33.23,86.48Z"/><path class="cls-15" d="M100.22,94c.1,0,.21,0,.2-.13h-.2Z"/><path class="cls-15" d="M100.21,93.3h-.06a.31.31,0,0,0-.12.43c.17,0,.17-.22.32-.23a.13.13,0,0,0,0-.06c.09-.08.13-.18,0-.25S100.23,93.21,100.21,93.3Z"/><path class="cls-15" d="M102.69,68s0,0,0,.08l.1.08s.08.12.17.1h.14a.67.67,0,0,1-.07-.34l-.06,0c-.1-.11-.19-.08-.28,0A.36.36,0,0,0,102.69,68Z"/><path class="cls-15" d="M104.44,68.12c.07,0,.14.08.21,0s.23,0,.25.14.11,0,.17,0l.07-.07a.21.21,0,0,1,.14-.07v-.25l-.13,0c-.21-.13-.39,0-.57.07S104.31,68,104.44,68.12Z"/><path class="cls-15" d="M103.66,67.71h0a.11.11,0,0,0,.12,0c.06,0,0-.12.09-.16h0s0-.09,0-.14h-.21A.2.2,0,0,0,103.66,67.71Z"/><path class="cls-15" d="M54.58,32.31c0-.07,0-.13,0-.2v-.06c0-.12,0-.23,0-.35A.63.63,0,0,0,54.58,32.31Z"/><path class="cls-15" d="M.08,68.61s-.06.07-.06.12C.18,68.75.1,68.67.08,68.61Z"/><path class="cls-15" d="M105.59,74.74c.13,0,.09-.06.06-.13S105.54,74.67,105.59,74.74Z"/><path class="cls-15" d="M95.26,48.53c.13.1.17-.07.25-.11l0,0c.1-.16,0-.17-.13-.18a.2.2,0,0,1-.14.06C95.24,48.35,95.14,48.45,95.26,48.53Z"/><path class="cls-15" d="M102.86,64.27h-.07c-.08,0-.07.14-.07.21s0,.23,0,.34.1.18.12.28a.13.13,0,0,0,.09,0c.13,0,.22-.09.14-.24h0a.17.17,0,0,1,0-.21.46.46,0,0,1,.07-.07c0-.08,0-.16-.07-.21S102.92,64.33,102.86,64.27Z"/><path class="cls-15" d="M101.79,63.74c-.08-.06-.19-.14-.22,0l.21.28c.13,0,.29.08.29-.14h0A1,1,0,0,1,101.79,63.74Z"/><path class="cls-15" d="M101.79,64.4a.15.15,0,0,0,0,.07c.08,0-.06.22.13.21h0a1.77,1.77,0,0,0,0-.23C101.92,64.34,101.85,64.38,101.79,64.4Z"/><path class="cls-15" d="M100.51,62.81c.17.09.13,0,.13-.12S100.5,62.71,100.51,62.81Z"/><path class="cls-15" d="M98.57,61.37c0,.18.17,0,.22.13s.06-.08.06-.13a.21.21,0,0,0-.28,0Z"/><path class="cls-15" d="M95.5,58.25l.12.1,0,0h0s0,0-.05,0,.06.24.18.32l.15.07,0,.06.09.14a1.19,1.19,0,0,0,.22.23l.16.16.07,0,.09,0c.15,0,.16,0,.1-.16a1.19,1.19,0,0,0-.15-.18.62.62,0,0,1-.14-.28.27.27,0,0,1-.21-.15.84.84,0,0,0-.29-.27l-.15-.13c0-.11-.12-.16-.2-.22S95.5,58.17,95.5,58.25Z"/><path class="cls-15" d="M104.23,66h0s0,0,.06.08l.07.07s.06.11.14.07l.08-.07c0-.09-.14-.16-.15-.27l-.07-.07A.17.17,0,0,0,104.23,66Z"/><path class="cls-15" d="M104,65.77a.29.29,0,0,0-.17-.37C103.87,65.54,103.86,65.68,104,65.77Z"/><path class="cls-15" d="M.88,73.62s0,0-.07,0l-.08,0a.17.17,0,0,0,.1,0Z"/><path class="cls-15" d="M5.66,68.61a1,1,0,0,0-.8.2,2,2,0,0,0,.8-.13S5.7,68.64,5.66,68.61Z"/><path class="cls-15" d="M7.65,73.23l-.06-.06a.15.15,0,0,0-.15.06l0,.13a.34.34,0,0,0,.2-.06A.2.2,0,0,0,7.65,73.23Z"/><path class="cls-15" d="M10.06,73.1c.17.07.19-.09.31-.17a.6.6,0,0,0-.34,0h0C10.05,73,9.93,73.05,10.06,73.1Z"/><path class="cls-15" d="M11.26,73c-.06,0-.1,0-.12.09a.07.07,0,0,0,.09.07.11.11,0,0,0,.12-.09S11.31,73,11.26,73Z"/><path class="cls-15" d="M10.43,67.27a.1.1,0,0,0-.12,0,.83.83,0,0,0-.35.14.6.6,0,0,0,.08.08l.31,0A.11.11,0,0,0,10.43,67.27Z"/><path class="cls-15" d="M11.92,67.36l.33,0,.13-.15c0-.19-.17,0-.21-.13h-.06C12.12,67.22,12.05,67.28,11.92,67.36Z"/><path class="cls-15" d="M4.38,83.17s0-.08,0-.09S4.13,83,4,83.16H4a.5.5,0,0,0,.36,0Z"/><path class="cls-15" d="M7.67,77.85c0,.2-.27.28-.29.49a.13.13,0,0,0-.06.07s0,0,0,.06.14-.06.22-.06.18-.13.24-.22a.41.41,0,0,0,.07-.11.08.08,0,0,0,0-.08c0-.08.13-.18,0-.24S7.73,77.83,7.67,77.85Z"/><path class="cls-15" d="M8.6,76.48h0a.11.11,0,0,1-.15,0H8.38c0,.14.06.29-.06.42L8.24,77c-.05.08,0,.13.08.13h0l.06,0,0,0,.05,0,0,0,.05,0,0-.06s.1-.09.06-.17v-.2s0,0,0,0A0,0,0,0,0,8.6,76.48Z"/><polygon class="cls-15" points="8.66 76.47 8.66 76.48 8.67 76.48 8.66 76.47"/><path class="cls-15" d="M78.41,38.26l-.12.06c-.07.09-.07.16,0,.2s.39.06.62,0c-.17,0-.3-.07-.26-.23h0a.16.16,0,0,0-.13,0,.15.15,0,0,0-.09,0Z"/><path class="cls-15" d="M77.49,36.61c0,.08,0,.11.1.12s.15,0,.16-.1-.06-.1-.15-.1A.1.1,0,0,0,77.49,36.61Z"/><path class="cls-15" d="M79.47,37.67v0l-.15-.08h0c0,.11,0,.22.13.2l.07-.07Z"/><path class="cls-15" d="M4.19,105.89c-.05-.1-.15-.13-.24,0H4a.2.2,0,0,1,.06.07.46.46,0,0,0,.07.07C4.15,106,4.24,106,4.19,105.89Z"/><path class="cls-15" d="M99.51,80.32l.06,0c.05,0,.13,0,.12-.09a.12.12,0,0,0-.14-.08C99.47,80.19,99.5,80.27,99.51,80.32Z"/><path class="cls-15" d="M96.13,84.88,96,85a.56.56,0,0,0-.36.07c0,.19,0,.19.21.14l.14-.08.43-.13s.11,0,.14-.07h0C96.42,84.76,96.27,84.84,96.13,84.88Z"/><path class="cls-15" d="M101.44,85.59c0,.17.17.1.27.06l0-.2-.09-.08-.06,0C101.57,85.48,101.47,85.51,101.44,85.59Z"/><path class="cls-15" d="M99.78,87.06a.4.4,0,0,1-.27.18c-.09.18-.34.12-.44.28a1.21,1.21,0,0,0-.43.47l-.78.63c-.06.07,0,.13,0,.16s.26-.09.35-.19a1.78,1.78,0,0,1,.6-.41c.11-.07.16-.18.25-.27s.2-.14.27-.23a.47.47,0,0,1,.1-.1.86.86,0,0,0,.38-.35,1,1,0,0,0,.36-.41c0-.06,0-.09-.08-.07A1.28,1.28,0,0,0,99.78,87.06Z"/><path class="cls-15" d="M99.23,91.46c0,.06,0,.13-.09.16a.12.12,0,0,0-.11.12.22.22,0,0,0,0,.08c0,.06,0,.11,0,.16a.2.2,0,0,0,0,.08l0,.08c.07.12.09.28.26.34a.17.17,0,0,0,.08-.14c0-.18-.16-.36,0-.55a.47.47,0,0,1-.07-.28,0,0,0,0,0,0-.06h0C99.36,91.35,99.29,91.33,99.23,91.46Z"/><path class="cls-15" d="M99.57,90.2v-.13C99.49,90.11,99.49,90.16,99.57,90.2Z"/><path class="cls-15" d="M99.79,94.07h0a.16.16,0,0,0-.24,0C99.63,94.09,99.71,94.05,99.79,94.07Z"/><path class="cls-15" d="M103.07,65.51h.08c0-.06,0-.14,0-.15s.11,0,.15.09l0,0c.13,0,.13-.11.21-.14v-.07l0-.05c-.15-.09-.29-.18-.44,0A.37.37,0,0,0,103.07,65.51Z"/><path class="cls-15" d="M104.08,66.82h.06l.09-.06s.06-.1,0-.14-.14,0-.19,0S104,66.8,104.08,66.82Z"/><path class="cls-15" d="M103.69,66.15s0,0,0,0,0-.16,0-.24A.15.15,0,0,0,103.69,66.15Z"/><path class="cls-15" d="M103.93,69.17a.79.79,0,0,0,.36.48c.07,0,.15.21.22,0a3.67,3.67,0,0,0-.44-.83c-.11-.08-.23,0-.34,0C103.67,69,103.85,69.06,103.93,69.17Z"/><path class="cls-15" d="M68.31,34.51a.68.68,0,0,0-.12.12l0,0c-.07.09-.15,0-.24,0a.17.17,0,0,0-.24.1l.06.07a.18.18,0,0,0,.2,0,.2.2,0,0,1,.23.06.18.18,0,0,0,.26,0h0c0,.16.19.11.3.12s.22,0,.3.06-.11.1-.11.17a.1.1,0,0,0,0,.07c.06,0,.15,0,.2,0h0c.21.1.17-.16.29-.2v.06l.07-.07h0c.15-.08.28.13.44,0l0,0a.22.22,0,0,0,.21.05h.58c-.13-.19-.35-.07-.46-.2h0C70.25,35,70.14,35,70,35s-.19-.1-.23-.2-.08,0-.1,0,0,0,0,.08-.1,0-.15,0l-.1,0a1.4,1.4,0,0,1-.28-.06,1.2,1.2,0,0,0-.53-.11.11.11,0,0,0,0-.05c-.09-.06-.11-.18-.22-.23Z"/><path class="cls-15" d="M10,66.26h0c-.06-.08-.28-.13-.06-.28h0a.1.1,0,0,1-.07-.07s0,0,0-.06a.49.49,0,0,0-.26-.1.12.12,0,0,0-.09,0c-.09,0-.14,0-.14.13s.3.07.29.28.06.12.13.15S9.9,66.34,10,66.26Z"/><path class="cls-15" d="M104.5,71.38c.09,0,.07-.14.08-.22s-.15,0-.15.14A.27.27,0,0,0,104.5,71.38Z"/><path class="cls-15" d="M104.58,70.82a.13.13,0,0,0,.07-.14s-.09-.05-.12,0S104.52,70.78,104.58,70.82Z"/><path class="cls-15" d="M104.69,71.22c0,.1.12.19.18.29h0a.05.05,0,0,0,0-.08V71.3c-.06,0,0-.15-.07-.2h-.07C104.72,71.11,104.64,71.12,104.69,71.22Z"/><path class="cls-15" d="M105.38,73.77c.1,0,.12,0,.13-.12a.76.76,0,0,1-.08-.11s0-.07-.06-.07-.07.06-.07.1S105.36,73.7,105.38,73.77Z"/><path class="cls-15" d="M95.5,50h.07c.19.05.14-.14.21-.21v-.05C95.5,49.71,95.5,49.71,95.5,50Z"/><path class="cls-15" d="M17.54,49.84h0c-.13,0-.12.06-.07.14h0s0,.11.06.15l.23.47a.17.17,0,0,1,.07.14l.13.07a.53.53,0,0,1,0,.13c.08,0,.06-.09,0-.13a1.48,1.48,0,0,0,0-.21,5.24,5.24,0,0,1-.28-.69S17.57,49.89,17.54,49.84Z"/><path class="cls-15" d="M32.29,48c0,.06.05.07.1.07s.07,0,.07-.07,0-.08-.09-.09S32.28,47.92,32.29,48Z"/><path class="cls-15" d="M46.06,36.88,46,36.74c-.16-.09-.15.07-.21.13s-.13.17,0,.18S46.06,37.05,46.06,36.88Z"/><path class="cls-15" d="M100.35,65a.13.13,0,0,0,.07-.14h0l-.06-.08-.07-.13c-.12-.18-.34-.12-.5-.2s-.06.07-.07.13.3.1.42.21h0a.1.1,0,0,0,.06.09h0a.08.08,0,0,0,0,0c0,.05.11,0,.13.08Z"/><path class="cls-15" d="M100.11,65.13s.06,0,.07-.06a.09.09,0,0,0-.08-.1S100,65,100,65A.12.12,0,0,0,100.11,65.13Z"/><path class="cls-15" d="M99.42,64.27a.29.29,0,0,0,.1,0,.06.06,0,0,0,0-.09s-.05-.06-.08,0,0,.06,0,.09A.17.17,0,0,0,99.42,64.27Z"/><path class="cls-15" d="M92.82,100.93q0,.09.09.09a.05.05,0,0,0,.07,0c0-.07,0-.11-.1-.1S92.83,100.92,92.82,100.93Z"/><path class="cls-15" d="M91.72,101.64h0a.28.28,0,0,0,.07-.19C91.7,101.46,91.69,101.54,91.72,101.64Z"/><path class="cls-15" d="M7,64.54,7,64.47a.5.5,0,0,0-.14-.1.09.09,0,0,0-.07,0v.14s0,0,0,.06l.13.08C7,64.67,7.1,64.71,7,64.54Z"/><path class="cls-15" d="M20.37,68.94c.09,0,.11-.12,0-.2s-.16,0-.22-.06h0a.38.38,0,0,0,0,.48.46.46,0,0,0,.07-.07C20.26,69,20.31,69,20.37,68.94Z"/><path class="cls-15" d="M15.1,66.88h0s.11,0,.15-.06h.21a.73.73,0,0,0,.65-.33c.12-.19,0-.15-.14-.15-.32.11-.71-.07-1,.21a2.55,2.55,0,0,1-.35.14,2,2,0,0,0-.22.09l0,0c.11.13.26.09.39,0A.42.42,0,0,1,15.1,66.88Z"/><path class="cls-15" d="M49.08,45.58c0,.16.14.21.33.25a.85.85,0,0,0-.17-.33.1.1,0,0,0-.12,0A.11.11,0,0,0,49.08,45.58Z"/><path class="cls-15" d="M57,37.73a.12.12,0,0,0-.18,0c-.11.11.06.13.09.2h0C57,37.86,57.11,37.83,57,37.73Z"/><path class="cls-15" d="M56.72,37.22c-.11-.08,0-.24-.14-.4v.41c0,.05,0,.12.1.1S56.73,37.26,56.72,37.22Z"/><path class="cls-15" d="M56.66,36.19v-.08s-.11,0-.12,0a.16.16,0,0,0,.05.23h0S56.61,36.22,56.66,36.19Z"/><path class="cls-15" d="M49.38,52.51c0,.08.12.11.2,0s.09-.17.16-.16.17-.13.26-.19c-.07-.12-.18,0-.27-.06h0s0,0-.08.06a1.16,1.16,0,0,0-.24.14A.13.13,0,0,0,49.38,52.51Z"/><path class="cls-15" d="M49.06,47c0-.1-.13,0-.2,0l.08.13C49,47.08,49.11,47.05,49.06,47Z"/><path class="cls-15" d="M45.16,42.57c-.15,0-.15.08-.16.17a2.82,2.82,0,0,0-.57.15.14.14,0,0,1-.14.06c-.14.1-.29,0-.43,0s-.06.13-.08.2l.09.08.42-.15h.07c.16.08.32,0,.49,0,0,0,0,0,0-.06a3.29,3.29,0,0,1,.68-.14c.18,0,.35-.19.3-.27s-.22,0-.34,0S45.27,42.59,45.16,42.57Z"/><path class="cls-15" d="M45.29,42.25h-.14C45.2,42.33,45.25,42.32,45.29,42.25Z"/><path class="cls-15" d="M41.93,43.36l-.07.08c-.13,0-.31.13-.4-.09l-.11.08s0,.09,0,.14a.11.11,0,0,0,0,.13h.27a.24.24,0,0,1,.22-.13h.22l0-.09c0-.07,0-.13,0-.17A.1.1,0,0,0,41.93,43.36Z"/><path class="cls-15" d="M42.71,42.81h0a0,0,0,0,0,0,.06c.1.08.19,0,.28,0C43,42.65,42.82,42.77,42.71,42.81Z"/><path class="cls-15" d="M44,42.74s0,0,0,0l0,0a0,0,0,0,0,0,.05S44,42.77,44,42.74Z"/><path class="cls-15" d="M47.65,38.66c.08,0,.07-.11.06-.19C47.5,38.49,47.61,38.58,47.65,38.66Z"/><path class="cls-15" d="M44.28,40.18V40h-.2s-.1,0-.11.12a.16.16,0,0,0,0,.07h0A.2.2,0,0,0,44.28,40.18Z"/><path class="cls-15" d="M42.29,42a.35.35,0,0,0,.07.26l0,0a.31.31,0,0,0,.17-.05l.08,0h0c.07-.08.19-.15.07-.27a.57.57,0,0,0-.22.11C42.39,42.12,42.35,42,42.29,42Z"/><path class="cls-15" d="M46.17,37.37c-.06-.11-.16,0-.24,0s0,.23.14.27S46.25,37.49,46.17,37.37Z"/><path class="cls-15" d="M60.75,37.21c.07.06,0,.17.12.21l.05-.06c-.06-.08,0-.17-.06-.26A.13.13,0,0,0,60.75,37.21Z"/><path class="cls-15" d="M75.83,37.36s-.11.06-.1.13a.18.18,0,0,0,.1.14c.13.06.19-.13.23-.1s.14-.06.2-.11h0c-.09-.06-.21,0-.29-.06h-.14Z"/><path class="cls-15" d="M75.9,36.19s.1,0,.11-.08a.1.1,0,0,0-.1-.11c-.09,0-.18,0-.28,0A.3.3,0,0,0,75.9,36.19Z"/><path class="cls-15" d="M5.82,99.42a.81.81,0,0,1-.09-.1c-.1.07-.06.18-.07.27h0a.1.1,0,0,1,0,.07.25.25,0,0,0,0,.07h0C6,99.61,6,99.59,5.82,99.42Z"/><path class="cls-15" d="M96.79,83.93V84c0,.08.1.15.21.07h0C97,83.92,96.91,83.9,96.79,83.93Z"/><path class="cls-15" d="M98.22,87.87c.15-.2.37-.36.42-.63a1.61,1.61,0,0,0-.5.35C98.13,87.69,98.05,87.81,98.22,87.87Z"/><path class="cls-15" d="M94.92,85.44l.08-.06v-.15h-.15C94.81,85.32,94.72,85.43,94.92,85.44Z"/><path class="cls-15" d="M97.42,83.59a.35.35,0,0,0-.28.06c0,.2.13.1.22.07Z"/><path class="cls-15" d="M94.55,81a.11.11,0,0,0-.06-.13c-.09.05-.16.14-.28.14a.91.91,0,0,0,.07.14C94.41,81.13,94.48,81,94.55,81Z"/><path class="cls-15" d="M98.07,97.72h0a.08.08,0,0,0,.14,0l.07-.07c0-.13,0-.21-.2-.12A1.21,1.21,0,0,1,98.07,97.72Z"/><path class="cls-15" d="M73.71,36.24c0,.08.09.09.12.14a.13.13,0,0,0,.2,0c.1-.11,0-.14-.07-.2h-.07C73.83,36.2,73.74,36.16,73.71,36.24Z"/><path class="cls-15" d="M69,34.74l.08.07c.1,0,.22,0,.21-.14A.44.44,0,0,0,69,34.6.11.11,0,0,0,69,34.74Z"/><path class="cls-15" d="M74.19,36.47c.08.26.13,0,.2,0v-.06c0-.07,0-.14-.12,0A.73.73,0,0,0,74.19,36.47Z"/><path class="cls-15" d="M102.79,67.23c0,.15.12.13.22.14h0a.14.14,0,0,0,0-.15l-.08,0C102.85,67.13,102.82,67.17,102.79,67.23Z"/><path class="cls-15" d="M102.53,67.26c-.18,0-.37,0-.31.25h0c.08.07.2,0,.29.06h0a.23.23,0,0,0,.07.07h0l.13,0c.05,0,.14.06.14-.06s-.06-.09-.12-.09-.15,0-.15-.14Z"/><path class="cls-15" d="M102.66,68.19a.24.24,0,0,0-.16-.07s0,.07-.07,0,0,0,0-.08,0-.07,0-.1-.05,0-.07-.06-.12-.14-.18-.21-.09-.08-.15,0a.11.11,0,0,0,0,.16.64.64,0,0,1,.2.49h0a.15.15,0,0,0,.11,0c.07,0,.07.07.1.1s0-.2.21-.17S102.69,68.23,102.66,68.19Z"/><path class="cls-15" d="M71.38,37s0-.07-.06-.07-.12.05-.15.12a.07.07,0,0,1,0,0,0,0,0,0,0,0,0s0,0,0,0S71.39,37.06,71.38,37Z"/><path class="cls-15" d="M10,64.71a.07.07,0,0,0-.07.06c0,.09,0,.1.13.11a.08.08,0,0,1,0,0S10,64.71,10,64.71Z"/><path class="cls-15" d="M104.8,72.54l-.15-.14-.07-.06c-.09,0-.07.13-.07.2l.07.14h.29s0,0,0-.07Z"/><path class="cls-15" d="M81.6,52.89c.05.09.11.17.23.13A.14.14,0,0,0,82,53l-.14-.15h-.15C81.62,52.8,81.6,52.84,81.6,52.89Z"/><path class="cls-15" d="M86.19,54c0,.11.12.13.22.07s-.1-.14-.2-.13S86.17,54,86.19,54Z"/><path class="cls-15" d="M76.11,43.63l.07-.06c0-.09.13-.19-.06-.2S76,43.54,76.11,43.63Z"/><path class="cls-15" d="M16.39,60.82l-.14-.21c-.18,0-.18.14-.28.28C16.14,60.85,16.29,61.06,16.39,60.82Z"/><path class="cls-15" d="M16.44,61.28c0-.05-.05-.09-.12-.1s-.1.09-.1.15,0,.16.1.14S16.44,61.37,16.44,61.28Z"/><path class="cls-15" d="M18,62.55a.19.19,0,0,0-.17-.22c-.05,0-.09,0-.1.08s.11.25.2.24S18,62.59,18,62.55Z"/><path class="cls-15" d="M13.81,56.81c0,.08.09,0,.14,0S13.85,56.75,13.81,56.81Z"/><path class="cls-15" d="M15.16,54.2h0c0-.07,0-.14,0-.21s-.13-.16-.14-.27a.34.34,0,0,1-.14-.15.23.23,0,0,1-.07-.07h0s0,0,0-.06a.2.2,0,0,0-.13,0l0,0h0c0-.12-.06-.11-.14-.07l-.06,0a1,1,0,0,0,.41.61h0a.09.09,0,0,0,0,.06h0l.08.1a.05.05,0,0,1,0,0l.08.13C15.08,54.33,15.16,54.34,15.16,54.2Zm-.55-.69h0Z"/><path class="cls-15" d="M10.82,58.4h0s0,.08.09,0Z"/><path class="cls-15" d="M18.17,54.6v-.4c-.22.16-.24.28-.07.47h0a.27.27,0,0,0,.08-.07Z"/><path class="cls-15" d="M31.1,44.94a.73.73,0,0,0-.69.21l-.29.07c-.08,0-.1,0-.14.07a1.75,1.75,0,0,1-.64.14.18.18,0,0,1-.09.06h-.06s0,0-.07.06h0c-.13,0-.29,0-.38.11.1.07.21,0,.31,0l.08-.06.14,0a.24.24,0,0,0,.16-.05h0l.12,0a.15.15,0,0,0,.15-.06c.14,0,.28-.07.42,0s.18-.16.32-.17a3.58,3.58,0,0,0,.45-.09,1.17,1.17,0,0,0,.37-.08C31.35,45,31.21,45,31.1,44.94Z"/><path class="cls-15" d="M36.48,43.91c.21-.22,0-.24-.15-.24s-.24,0-.33.12-.28.15-.43.2-.14.21.07.17.47-.12.7-.18h0Z"/><path class="cls-15" d="M33.41,44.18c0,.1-.4,0-.14.22h.07a1.11,1.11,0,0,1,.39-.2.21.21,0,0,0,.18-.21.1.1,0,0,0-.14,0,.35.35,0,0,1-.28.14Z"/><path class="cls-15" d="M35.2,43.23h-.06s-.07,0-.08.06.09.1.16.05S35.21,43.26,35.2,43.23Z"/><path class="cls-15" d="M40.07,43.15a.92.92,0,0,1-.43.15,2.15,2.15,0,0,1-.57.13,0,0,0,0,0,0,.06.07.07,0,0,0,.05,0c0,.08-.06,0-.08.07-.21.15-.48.18-.66.37h-.07s-.07,0-.07.07a.6.6,0,0,0,.08.08c.09,0,.21-.06.26.08s.1.06.15,0a.38.38,0,0,0,.15-.18l0,0s0,0,0,0c.2-.11.42,0,.62-.05s.1-.41.39-.42h.06a.33.33,0,0,0,.2-.14h.06a.23.23,0,0,1,.07-.07h0C40.26,43.15,40.22,43.09,40.07,43.15Z"/><path class="cls-15" d="M40.15,44.12c0,.05,0,.09,0,.14s.13.07.22.06,0-.27,0-.41a.15.15,0,0,0-.14.07C40.15,44,40.18,44.08,40.15,44.12Z"/><path class="cls-15" d="M45.21,38.46a.71.71,0,0,0,0-.14l-.07-.08c-.18,0-.13.12-.08.22h0c.06,0,0,.17.14.14h0a.14.14,0,0,1,0,.06c.07,0,.13.27.2,0C45.35,38.61,45.33,38.49,45.21,38.46Z"/><path class="cls-15" d="M99.64,67.55s0,.07.07.1h.07a.11.11,0,0,0,.15,0c.12-.09,0-.13-.06-.14h-.1S99.65,67.47,99.64,67.55Z"/><path class="cls-15" d="M95.85,64.68a4.43,4.43,0,0,0,.8.27.18.18,0,0,0,.19,0,.17.17,0,0,1-.13-.08l-.08-.07c-.13-.06-.32,0-.42-.14l-.08-.06h-.06a.17.17,0,0,0-.22,0h0A.1.1,0,0,0,95.85,64.68Z"/><path class="cls-15" d="M99.19,67.59c-.16,0-.28,0-.38.12C99,67.7,99.07,67.75,99.19,67.59Z"/><path class="cls-15" d="M98.93,67.37a.15.15,0,0,0,.07-.13c-.15,0-.15,0-.14.06l.07.07Z"/><path class="cls-15" d="M101,67.23c-.11,0-.23-.14-.29.06s0,.15.07.22-.22,0-.26.12h0l.14.07.08-.06v-.14c.12.14.23.09.35,0s.12,0,.18-.11l-.18-.09A.13.13,0,0,1,101,67.23Z"/><path class="cls-15" d="M99.53,66.42a0,0,0,0,0,0,0c.09,0,.08,0,.09-.1S99.52,66.34,99.53,66.42Z"/><path class="cls-15" d="M93.78,62.4h0s0,0,0,0h0l.06-.07v-.06C93.81,62.26,93.7,62.24,93.78,62.4Z"/><path class="cls-15" d="M94.34,63.34v0h0s0,.06.07.08l.09,0h0s0,0,0,0,0,0,0,0,.12,0,.12-.06-.18-.21-.33-.19S94.33,63.31,94.34,63.34Z"/><path class="cls-15" d="M93.07,99.9c-.26-.08-.22.1-.22.24s.24-.08.38-.08.22-.11.18-.26S93.21,99.94,93.07,99.9Z"/><path class="cls-15" d="M20.26,67.58v.06c.07,0,.09.16.2.14S20.42,67.56,20.26,67.58Z"/><path class="cls-15" d="M12.67,65.78c0,.1,0,.2.15.21a.06.06,0,0,0,.07,0s0-.06.07-.09H13c.09-.1,0-.15-.07-.2h-.13s-.11,0-.15.06Z"/><path class="cls-15" d="M13.25,66.68h0a.38.38,0,0,0-.36,0A1.45,1.45,0,0,0,13.25,66.68Z"/><path class="cls-15" d="M13.39,66.54c0,.07.08.07.14.07A.14.14,0,0,0,13.39,66.54Z"/><path class="cls-15" d="M59.37,52.19s-.08,0-.11,0l-.13.24a.14.14,0,0,0,0,.09q.1.16.24,0l.08-.12C59.44,52.37,59.49,52.26,59.37,52.19Z"/><path class="cls-15" d="M53.87,48.46s0-.1-.08-.13h0a.08.08,0,0,0-.13,0h0a.45.45,0,0,0-.08.27c.15.13.25,0,.36-.06Z"/><path class="cls-15" d="M51.46,49.33c.08-.09,0-.17,0-.24C51.29,49.13,51.35,49.22,51.46,49.33Z"/><path class="cls-15" d="M58.31,37.77c.11,0,.15.18.3.18,0-.15,0-.26-.09-.38C58.31,37.53,58.3,37.54,58.31,37.77Z"/><path class="cls-15" d="M47.94,54.23a.12.12,0,0,0,.12.14c.13,0,.07-.11.08-.17h0C48.08,54.22,48,54.09,47.94,54.23Z"/><path class="cls-15" d="M48.94,55.48a.11.11,0,0,0,0,.08c0,.08.12.1.18.15h0a.46.46,0,0,1,.07.07.32.32,0,0,1,.15.13c.1,0,.14,0,.14-.13l-.29-.34c0-.1-.15-.09-.21-.15h0a.13.13,0,0,0-.07.14Z"/><path class="cls-15" d="M96.92,91c-.09,0-.16.06-.12.12.16.22,0,.26-.16.29l-.07.07c0,.06-.11.09-.09.17A1.57,1.57,0,0,0,97,91.4.33.33,0,0,0,96.92,91Z"/><path class="cls-15" d="M97.72,91h0a.14.14,0,0,1,0,.15h0a.08.08,0,0,0,0,.14h0c.1.05.2.08.16-.1a.1.1,0,0,1,0-.11c0-.11,0-.22-.07-.33C97.66,90.68,97.65,90.7,97.72,91Z"/><path class="cls-15" d="M96.36,90.21c0,.06,0,.11.09.12s.11-.06.12-.13S96.43,90.19,96.36,90.21Z"/><path class="cls-15" d="M97.49,89l.08.13.07,0a.66.66,0,0,0,0-.14s0-.1,0-.09S97.52,88.93,97.49,89Z"/><path class="cls-15" d="M98.11,88l0,0S98.12,88,98.11,88Z"/><path class="cls-15" d="M93.7,90.89v-.06c-.1,0-.2,0-.2.13s.12.16.16,0C93.66,90.92,93.69,90.91,93.7,90.89Z"/><path class="cls-15" d="M93.46,90.22a.09.09,0,0,0,0,0s0-.06,0,0,0,0,0,.05Z"/><path class="cls-15" d="M93.85,80.89h0c0-.06-.07-.13-.14-.16a.08.08,0,0,0-.08,0,.19.19,0,0,0-.08.28h.55C94,80.94,93.89,81,93.85,80.89Z"/><path class="cls-15" d="M97.85,89.45a.31.31,0,0,0,.09.19.15.15,0,0,0,0-.23S97.87,89.41,97.85,89.45Z"/><path class="cls-15" d="M72.53,36.88l.22.07c.08-.09.17-.17-.06-.16,0,0-.06,0-.08,0S72.5,36.81,72.53,36.88Z"/><path class="cls-15" d="M102.42,66.65c-.07.12.1.08.13.14l0,0h0c.07-.06.11-.13,0-.19S102.44,66.59,102.42,66.65Z"/><path class="cls-15" d="M101.79,67.51s.1,0,.14.06h0c.08-.06.11-.14,0-.19s-.15,0-.15.13Z"/><path class="cls-15" d="M103.5,69.37c-.1-.06-.14,0-.15.08a.13.13,0,0,1,0,.06s.06.06,0,.08-.06.21.08.24.22,0,.23-.18S103.51,69.51,103.5,69.37Z"/><path class="cls-15" d="M69.29,46.7a.66.66,0,0,0,0,.58l0,0a.13.13,0,0,0,.13,0,.19.19,0,0,0,0-.13s-.08,0,0-.07l.08,0c.21-.38.2-.52-.05-.65h0s-.09,0-.13,0A.73.73,0,0,1,69.29,46.7Z"/><path class="cls-15" d="M68.63,46s-.06.05-.1.08l-.07.07c0,.06,0,.16.11.09s.07-.11.09-.17S68.68,46,68.63,46Z"/><path class="cls-15" d="M68.32,45.57v.06l.07.08.14-.08s0,0,0-.06h0a.24.24,0,0,1-.06-.08h0C68.38,45.46,68.35,45.51,68.32,45.57Z"/><path class="cls-15" d="M103.72,70.2h0c0-.08,0-.18-.12-.24C103.56,70.09,103.56,70.18,103.72,70.2Z"/><path class="cls-15" d="M81.67,51.21a.14.14,0,0,0,0,.06.08.08,0,0,0,0,.07l0,0h.15l.06-.07v-.13h-.17S81.69,51.19,81.67,51.21Z"/><path class="cls-15" d="M84.23,53.25h0s0-.05,0,0,0,0,0,0S84.22,53.25,84.23,53.25Z"/><path class="cls-15" d="M84.7,57.13a.11.11,0,0,0,0,.08.16.16,0,0,0,.06.08.5.5,0,0,0,.12.08c.22.12.46.22.68.35a2.14,2.14,0,0,1,.3.17c.09,0,.18.09.25,0s.09-.19,0-.26h0a.36.36,0,0,0-.2-.11.41.41,0,0,0-.22,0l-.29-.21s-.11,0-.14-.07h0a.35.35,0,0,0-.42-.14Z"/><path class="cls-15" d="M74.68,47.77c0-.08,0-.16-.07-.2S74.59,47.72,74.68,47.77Z"/><path class="cls-15" d="M79.27,46.68s0,0,0,.06.1.08.15,0,0-.12,0-.19l-.06,0A.12.12,0,0,0,79.27,46.68Z"/><path class="cls-15" d="M23.52,62.89c.05-.15,0-.2-.25-.2h0a.2.2,0,0,0,.14.26S23.5,63,23.52,62.89Z"/><path class="cls-15" d="M20.67,65.15l.26-.11c.12,0,.22-.07.16-.2s-.16-.06-.25,0-.25.12-.37.19C20.41,65.26,20.59,65.13,20.67,65.15Z"/><path class="cls-15" d="M15.57,66.14l-.26,0h0C15.38,66.21,15.45,66.22,15.57,66.14Z"/><path class="cls-15" d="M15,66.33v-.14h-.07C14.84,66.27,14.8,66.35,15,66.33Z"/><path class="cls-15" d="M20.12,65.31c.05.08.14,0,.21.06h.05C20.31,65.27,20.21,65.3,20.12,65.31Z"/><path class="cls-15" d="M19.81,52.81s0,0,0,0l0,0v0S19.81,52.84,19.81,52.81Z"/><path class="cls-15" d="M34.79,45l-.09,0-.06.06v0a.56.56,0,0,0,.62,0c.15-.09,0-.11,0-.17h-.14A.83.83,0,0,1,34.79,45Z"/><path class="cls-15" d="M32.9,44.36l-.13,0H32.7l-.08,0c-.1,0-.2,0-.28.07h-.07a1.08,1.08,0,0,0-.66.27.41.41,0,0,0-.11.07.18.18,0,0,0-.07,0,.18.18,0,0,0-.07,0l0,0,.14.13h.07a.48.48,0,0,1,.43-.2l.44-.21h.06a.22.22,0,0,0,.22,0h0c.14,0,.3,0,.44-.06S33.09,44.28,32.9,44.36Z"/><path class="cls-15" d="M34.29,44.23c0-.06-.1,0-.16,0a1.57,1.57,0,0,1-.45.12c-.11,0-.07.08,0,.14h.14c.08-.07.2,0,.29-.07h0a.19.19,0,0,1,.14-.07S34.31,44.27,34.29,44.23Z"/><path class="cls-15" d="M31.49,44.55c-.06.06-.15,0-.22.06l-.07.13h0a.15.15,0,0,0,.21,0C31.42,44.67,31.61,44.67,31.49,44.55Z"/><path class="cls-15" d="M34.49,49a.25.25,0,0,1,.14.13.17.17,0,0,0,.06.12l.1.09c.08.08.2.11.28.19h-.19l-.1,0h0a.23.23,0,0,0-.07-.17h0a.39.39,0,0,0-.12.19c-.09.17,0,.15.13.14h.08a11.21,11.21,0,0,0,1.42,0c.07,0,.22,0,.14.11s0,.23-.13.3l-.08.07h0a.26.26,0,0,1-.14.21c0,.09.12.06.2.05s0-.27.21-.34h0l0-.07v0c0-.09,0-.15.09-.21l.06,0a.22.22,0,0,0,.16-.15c0-.12-.06-.17-.18-.12a2.43,2.43,0,0,1-.85-.06v-.07a.17.17,0,0,0-.1-.06h-.11c-.14,0-.31,0-.38-.13s-.17-.06-.26-.09l-.08-.06h0c0-.05-.1,0-.14-.08h0a.23.23,0,0,1-.07-.07h0a.12.12,0,0,0-.15,0Z"/><path class="cls-15" d="M33.49,49.9l.14,0h0s0,0,.05,0l.08-.06a.93.93,0,0,0,.49-.08c-.13-.13-.29,0-.43-.06h-.28C33.4,49.72,33.42,49.81,33.49,49.9Z"/><path class="cls-15" d="M32.19,49.84a.2.2,0,0,1,0,.07h0a.38.38,0,0,1,.14.14h0c.24.08.17-.12.21-.22s-.17-.13-.28-.06,0,0-.07.06Z"/><path class="cls-15" d="M37.92,43.7c0-.08,0-.13-.14-.13s0,.15.06.2l.08-.06Z"/><path class="cls-15" d="M39.85,43.71h0l.16-.12C39.83,43.59,39.83,43.59,39.85,43.71Z"/><path class="cls-15" d="M101.53,66.72a.06.06,0,0,0-.06.07c0,.06.07.08.14.09h0s0,0,0-.06S101.6,66.72,101.53,66.72Z"/><path class="cls-15" d="M93.54,64.26a.18.18,0,0,0,.07,0l.21.07a.83.83,0,0,0,.16.09c.15,0,.22.13.3.24a.19.19,0,0,0,.08,0c.28,0,.15.21.24.31a.46.46,0,0,0,.24.17c.2,0,.26-.06.24-.21h0l.13.07c.1,0,.15.16.28.17h0c0,.21.17.23.34.25a.05.05,0,0,1,0,0s0,0,0,0,0,0,0,0a.1.1,0,0,0,.06,0l.07,0h0s0,0,0,0h.17a.29.29,0,0,0,0,.09.14.14,0,0,0,.15,0h0l0,0c.06.26.29.34.49.45s.28.33.54.27h.21c.09,0,.24.05.3-.1a.3.3,0,0,0-.28-.09.47.47,0,0,1-.46-.2.33.33,0,0,0-.13-.13.24.24,0,0,1-.09-.08.21.21,0,0,1,0-.06.55.55,0,0,1,0-.18.12.12,0,0,0,0-.07.25.25,0,0,0-.22,0l-.17.06a.26.26,0,0,0-.09-.14c.13-.1.18-.21.07-.35h-.07c-.1-.11-.19-.24-.37-.11s-.11,0-.17,0-.35-.11-.54-.15l-.14-.08c-.06,0-.07-.06-.08-.11a1.31,1.31,0,0,1-.42-.49.56.56,0,0,0-.22-.28h-.06c-.18,0-.14.13-.13.23s.11.13.17.2a2.22,2.22,0,0,1-.48-.27c-.15-.07-.21-.22-.34-.32l-.09,0a.31.31,0,0,0-.19,0l-.08,0a.24.24,0,0,0-.05.14c0,.08.09.12.15.17A.33.33,0,0,1,93.54,64.26Z"/><path class="cls-15" d="M88.75,59.7c0,.14,0,.28.16.35a4.87,4.87,0,0,0,1,.47.13.13,0,0,0,.12-.07.1.1,0,0,0,0-.09L90,60.29c-.11-.07-.08-.21-.16-.3s-.21-.1-.3-.05-.25,0-.33-.17-.1-.17-.22-.18a.21.21,0,0,0-.19,0A.11.11,0,0,0,88.75,59.7Z"/><path class="cls-15" d="M90.42,60.05c.1,0,.14,0,.14-.13l-.07-.07a.18.18,0,0,0-.15.07s0,.1.08.13Z"/><path class="cls-15" d="M92.35,61.92a1.48,1.48,0,0,1,.29.27c.09.06.2.07.28.14h.14v-.06L93,62.19h0a2.5,2.5,0,0,0-.56-.35C92.35,61.82,92.33,61.85,92.35,61.92Z"/><path class="cls-15" d="M87.81,94.69l0,0-.08.05-.06.06c-.12,0-.12.07-.07.15h0a.26.26,0,0,1,.09.14.88.88,0,0,0,.07.14.34.34,0,0,0-.15.07v.13c.07.21.07.21.25.09l.09,0,.09-.06c0-.08,0-.1-.08-.14h0l-.1,0a.65.65,0,0,0,.11-.15h0A.23.23,0,0,1,88,95a.6.6,0,0,1,.35-.08v-.13a.15.15,0,0,0-.13,0C88.07,94.8,88,94.63,87.81,94.69Z"/><path class="cls-15" d="M88.06,95.44s.1,0,.09-.08-.05,0-.08,0S88,95.4,88.06,95.44Z"/><path class="cls-15" d="M23.26,68.27a.14.14,0,0,0-.14.06h0l.07.07.07.07c.09,0,.22,0,.15-.14l0,0a.13.13,0,0,0-.08,0Z"/><path class="cls-15" d="M20.68,72.54c.08-.06.17,0,.26,0s0,0,.06-.05v0h0s0,0,0-.06a.08.08,0,0,0,0,0,.18.18,0,0,1,0-.1l.06,0c.1-.1.24-.16.23-.33a.15.15,0,0,0-.15-.07h0s-.11,0-.15.07h0a.46.46,0,0,0-.07.07.58.58,0,0,0-.23.18.28.28,0,0,1-.33.1.09.09,0,0,1,0,.06.18.18,0,0,1-.13.2.38.38,0,0,0,0,.42C20.45,72.83,20.51,72.63,20.68,72.54Z"/><path class="cls-15" d="M20,73.5a.57.57,0,0,0,.08-.13c-.07-.1-.18-.06-.28-.06l0,0C19.8,73.43,19.78,73.61,20,73.5Z"/><polygon class="cls-15" points="20.25 72.89 20.25 72.89 20.25 72.89 20.25 72.89 20.25 72.89"/><path class="cls-15" d="M20.24,72.91v0S20.22,72.91,20.24,72.91Z"/><path class="cls-15" d="M23.29,70.36c0-.08.09-.23-.11-.24h-.07a.46.46,0,0,1-.07.07h0c0,.09,0,.2.07.27h0C23.16,70.42,23.27,70.46,23.29,70.36Z"/><path class="cls-15" d="M8.61,79.54a.26.26,0,0,0-.3,0,.41.41,0,0,0,.29.15h0C8.61,79.66,8.69,79.59,8.61,79.54Z"/><path class="cls-15" d="M64.49,60v0c.12-.18,0-.38.06-.56l0-.09h0a.07.07,0,0,1,0-.08c0-.06,0-.12,0-.17h0c-.1-.08-.21-.16-.35-.05a1.28,1.28,0,0,0,.07.39.2.2,0,0,1,0,.22.13.13,0,0,1,0,.06c-.06.13-.08.25.05.34l.09,0h.1S64.53,60,64.49,60Z"/><path class="cls-15" d="M52.72,57h0c.05.08.13.07.21.06v-.12h-.07S52.77,56.91,52.72,57Z"/><path class="cls-15" d="M65.78,61.08c-.06-.08-.14-.06-.22,0a.15.15,0,0,0-.15.11.08.08,0,0,0,0,.08.33.33,0,0,0,.29-.06S65.79,61.09,65.78,61.08Z"/><path class="cls-15" d="M65.67,53.15c.1.07,0,.2.1.3.06-.08,0-.18.11-.23s0,0,0-.06a.17.17,0,0,0-.19-.16C65.65,53,65.68,53.1,65.67,53.15Z"/><path class="cls-15" d="M53.51,56.81h-.07c.07.1.18.07.27.06S53.58,56.82,53.51,56.81Z"/><path class="cls-15" d="M49.87,56.6s.08.1.12.1.08-.09.08-.16A.61.61,0,0,1,50,56.4c-.1-.06-.14,0-.15.08Z"/><path class="cls-15" d="M38.47,52.58a.51.51,0,0,1,.24,0h.06c.08-.21-.11-.16-.21-.21s-.13,0-.19,0a.42.42,0,0,0-.14.09l0,0A.18.18,0,0,0,38.47,52.58Z"/><path class="cls-15" d="M41.75,49.18c-.09-.12-.18,0-.31,0,.12.08.21.12.31,0A.06.06,0,0,0,41.75,49.18Z"/><path class="cls-15" d="M42.09,48.47c-.11,0-.29,0-.29-.08s-.12-.11-.2-.13a.12.12,0,0,1-.11-.07c-.08,0-.15-.1-.23,0a.18.18,0,0,0,0,.22.5.5,0,0,0,.13.12c.13,0,.19.12.29.19a.4.4,0,0,0,.49,0c0-.05.08-.09.06-.16A.11.11,0,0,0,42.09,48.47Z"/><path class="cls-15" d="M13.8,82.76a.16.16,0,0,1-.05-.14c0-.1-.06-.13-.15-.14s-.24,0-.12.18l.12.16C13.68,82.82,13.76,82.84,13.8,82.76Z"/><path class="cls-15" d="M9.18,98.29c-.11,0-.15,0-.15.12h.13C9.21,98.38,9.26,98.33,9.18,98.29Z"/><path class="cls-15" d="M97.85,72.91a3,3,0,0,1-.51-.07.27.27,0,0,0-.2,0c-.06.11-.48.06-.18.34l.09,0a.35.35,0,0,1,.21.1.33.33,0,0,0,.38,0c.27,0,.52-.17.8-.14,0-.1.19-.14.19-.28h0a.28.28,0,0,0-.28,0c-.13,0-.28,0-.41,0Z"/><path class="cls-15" d="M84.63,93.23l.09.06c.16.1.18.09.2-.09s0-.07,0-.1h-.07C84.66,93,84.64,93,84.63,93.23Z"/><path class="cls-15" d="M86.06,93.75c0-.06,0-.12-.1-.12s-.06,0,0,.07a.11.11,0,0,0,.09.12S86.05,93.78,86.06,93.75Z"/><path class="cls-15" d="M92.79,92.31c-.06-.13-.22,0-.3-.1s-.12-.26-.28-.28-.18,0-.21.09.07.11.13.13a.25.25,0,0,1,.19.23c0,.2.13.16.25.18a1.85,1.85,0,0,1,.14-.14S92.8,92.37,92.79,92.31Z"/><path class="cls-15" d="M94.12,91.78v-.12a.07.07,0,0,0-.06-.07c-.06-.06-.12-.11-.21-.07h0c-.11.06-.08.14,0,.21s0,0,0,.06h.07v.07h.21S94.12,91.81,94.12,91.78Z"/><path class="cls-15" d="M92,86.07h.13a1.09,1.09,0,0,0,.17-.13c0-.05,0-.1,0-.12S92,85.89,92,86.07Z"/><path class="cls-15" d="M93,85.12a0,0,0,0,1,0,0l0,0,0,0S92.94,85.13,93,85.12Z"/><path class="cls-15" d="M91.49,78.82c.14,0,.15.17.16.31a2.26,2.26,0,0,1,.16-.21l0-.17C91.68,78.76,91.56,78.72,91.49,78.82Z"/><path class="cls-15" d="M91.13,81.53s0,.09.08.09l0,0a.09.09,0,0,0,0-.11l-.08,0h0Z"/><path class="cls-15" d="M20.26,89.38a.3.3,0,0,0,.21-.21h0a.12.12,0,0,0,0-.09c-.12-.16-.22-.1-.3,0l-.09,0-.08.07-.06.07c-.06.15,0,.18.15.15Z"/><path class="cls-15" d="M14.82,87.79l.15.13.33-.07C15.15,87.74,15,87.81,14.82,87.79Z"/><path class="cls-15" d="M12.6,85.24c-.1,0-.14,0-.14.13S12.6,85.33,12.6,85.24Z"/><path class="cls-15" d="M70.82,41.36l.08.06.13.14h0l.08-.06h0c.1-.16,0-.2-.14-.28l-.31,0C70.68,41.29,70.79,41.28,70.82,41.36Z"/><path class="cls-15" d="M69.53,46.19c.09,0,.16,0,.15-.09s0-.19-.15-.12Z"/><path class="cls-15" d="M68.25,49.36c.07,0,.15,0,.2-.06l-.07-.07C68.3,49.23,68.16,49.18,68.25,49.36Z"/><path class="cls-15" d="M81.79,51.73a.15.15,0,0,0,0-.23C81.77,51.58,81.73,51.65,81.79,51.73Z"/><polygon class="cls-15" points="81.77 51.5 81.77 51.5 81.76 51.5 81.77 51.5"/><path class="cls-15" d="M86.41,57.92v0l0,0,.07,0,.11,0,0,0,.07,0a.1.1,0,0,0,.07,0s0,0,0,0a.54.54,0,0,0,.4.25c.13,0,.25.12.38.16a.37.37,0,0,0,.23,0c.08,0,.16,0,.22-.06s0,0-.07-.07l-.15-.08a.37.37,0,0,0-.21-.06c-.08-.06-.2-.1-.25-.18s-.29-.2-.48-.18l-.13,0c-.06-.06-.16,0-.22-.07h0C86.49,57.86,86.44,57.86,86.41,57.92Z"/><path class="cls-15" d="M87.51,58a.08.08,0,0,0,.09.07.11.11,0,0,0,.09-.12c0-.05,0-.08-.08-.06A.11.11,0,0,0,87.51,58Z"/><path class="cls-15" d="M84.08,56.63a.38.38,0,0,0,.4.25.13.13,0,0,0,.14-.07l-.07-.07-.07-.06h-.06l-.08-.06h-.06a.14.14,0,0,1-.08-.07h0a.07.07,0,0,0-.06,0A.19.19,0,0,0,84.08,56.63Z"/><path class="cls-15" d="M83.56,55.84l.2.08.08.06h0a.23.23,0,0,0,.07.07h0a.11.11,0,0,0,.09,0v0l0,0,.06.08c.07.05.12.12.19.18h0a.91.91,0,0,1,.36.06h.06c.08,0,.14,0,.08-.12s-.1-.15-.15-.23l-.13-.07v-.14s0,0,0,0v0a.16.16,0,0,0-.18-.07h0a.36.36,0,0,0-.31-.11C83.78,55.72,83.63,55.67,83.56,55.84Z"/><path class="cls-15" d="M75.06,42.9a.12.12,0,0,0,.09.09.08.08,0,0,0,.1-.06c0-.07,0-.11-.1-.11A.07.07,0,0,0,75.06,42.9Z"/><path class="cls-15" d="M79.07,48.36l0,0h0Z"/><path class="cls-15" d="M24.91,62.34c.07-.08.18,0,.26-.08a.41.41,0,0,0,.1-.09l0,0h0a.1.1,0,0,0,.09,0l.12-.07c.1-.09.28-.12.31-.29h0l0,0c.14-.19.14-.19-.07-.21l-.07.07h0a.85.85,0,0,0-.42.22l-.08.06h0s0,0,0,0h-.06l0,0s0,0-.06,0h0a.13.13,0,0,1,0,.06h0c-.13,0-.19.09-.27.15l-.07.07a.13.13,0,0,0,.14.07Z"/><path class="cls-15" d="M19.39,55.64h0l0,0s0,0,0,0l0,0a.17.17,0,0,0,0-.17h0c-.08,0-.11-.16-.22-.14v.07c.1.08.07.24.22.28h0a.33.33,0,0,0,.07.27C19.54,55.82,19.42,55.73,19.39,55.64Z"/><path class="cls-15" d="M20.76,55.7a.3.3,0,0,1-.15-.12h-.07a.05.05,0,0,0-.08,0,.18.18,0,0,0,0,.14c0,.12.15.15.24.21h0l.08.06h0s0,.11.07.14h0c.09.08,0,.25.22.27s.13.12.14.21,0,.26.25.26c0-.13,0-.26-.05-.39A7.57,7.57,0,0,0,20.76,55.7Z"/><path class="cls-15" d="M37.35,48.68l.06-.08a.12.12,0,0,0-.07-.14l-.28.22c-.08.17.07.12.15.14A.38.38,0,0,0,37.35,48.68Z"/><path class="cls-15" d="M38.58,43.52l-.09,0h0l.07,0Z"/><path class="cls-15" d="M95,67.85l-.22-.13a2.09,2.09,0,0,0-.66,0,.14.14,0,0,0-.08.07.28.28,0,0,0,0,.09c.1.12.25.1.37.13s.18,0,.23.09S94.86,67.93,95,67.85Z"/><polygon class="cls-15" points="94 66.89 93.99 66.89 94 66.89 94 66.89"/><path class="cls-15" d="M94.09,66.91l-.09,0S94,67,94.09,66.91Z"/><path class="cls-15" d="M94.86,65.78c0-.06,0-.08-.06-.1a.11.11,0,0,0-.09,0l-.08.13C94.75,66,94.82,65.93,94.86,65.78Z"/><polygon class="cls-15" points="93.56 66.82 93.56 66.82 93.56 66.82 93.56 66.82"/><path class="cls-15" d="M93.42,66.61v.06s0,.06,0,.08a.19.19,0,0,0,.14.07h0c0,.1-.22,0-.27.16a.84.84,0,0,0,.47,0c0-.06.13-.06.16-.14-.16,0-.12-.2-.23-.26S93.52,66.61,93.42,66.61Z"/><path class="cls-15" d="M94.92,66.27l.07.07a.06.06,0,0,0,.08,0h.07v-.14h-.07a.14.14,0,0,0-.15,0h0A.06.06,0,0,0,94.92,66.27Z"/><path class="cls-15" d="M95.59,65.52a.75.75,0,0,0-.41-.24s0,0,0,.08h0c.09.07,0,.21.13.25a.11.11,0,0,0,.08,0h.14S95.61,65.55,95.59,65.52Z"/><path class="cls-15" d="M90.92,62.06a2.11,2.11,0,0,0,.55.25s.07.06.1.09.25.08.2-.13,0-.22-.21-.21h0L91.43,62c-.18-.08-.33-.22-.55-.16S90.81,62,90.92,62.06Z"/><path class="cls-15" d="M84.6,105.77l0,.06-.06.09a.33.33,0,0,0-.06.1,1.06,1.06,0,0,0-.06.19.11.11,0,0,0,0,.07c.11.09.15,0,.21-.07s0-.25.14-.35.12-.19-.07-.2l0,0Z"/><path class="cls-15" d="M86.13,101.46l.06,0s0-.12-.08-.1S86.08,101.42,86.13,101.46Z"/><path class="cls-15" d="M87,93.93l-.08-.2h0l-.15-.14H86.7c-.08,0-.07.12-.07.2h.06c.08,0,0,.13,0,.19a.09.09,0,0,0,.06.06l.08,0H87A.1.1,0,0,0,87,93.93Z"/><path class="cls-15" d="M21.58,72.19c-.07-.08-.15,0-.21.09l-.05,0h-.06c-.1.1-.22.18-.22.34a.44.44,0,0,0-.22.07l-.05,0s-.08.07-.06.11.08,0,.13,0h.06l.06,0,.08,0a.21.21,0,0,0,0-.06.19.19,0,0,0,0-.08l0,0s.05,0,.08,0l.05,0a1.48,1.48,0,0,1,.3-.26C21.54,72.35,21.69,72.31,21.58,72.19Z"/><path class="cls-15" d="M24.42,69.8l0,0a.2.2,0,0,0,0-.08.47.47,0,0,0,0-.17.2.2,0,0,0,0-.08s0,0,0,0,0,0-.06,0h-.07v.07l-.06.07-.09.12h0c-.29.18-.24.52-.48.77L24,70.4h0a.46.46,0,0,0,.07-.07c.1-.09.16-.21.29-.27a.51.51,0,0,0,0-.21s0,0,0-.06A.08.08,0,0,0,24.42,69.8Z"/><path class="cls-15" d="M23.61,69.71s0,.05-.06.08l-.08.06c0,.18.12.11.21.07S23.7,69.76,23.61,69.71Z"/><path class="cls-15" d="M82.62,93.45h-.06a.24.24,0,0,1-.08-.06h0a.19.19,0,0,0-.08.15c.07.09.12.19.26.18S82.62,93.53,82.62,93.45Z"/><path class="cls-15" d="M65.86,63c.16.06.29,0,.37.13a.3.3,0,0,0,.16-.15.44.44,0,0,1,.07-.27c.1-.18.07-.27-.14-.4,0,.13-.06.26-.08.4S66.2,63,65.86,63Z"/><path class="cls-15" d="M72.26,61.86v-.67l-.16.11v.47c.05.17-.06.35.08.5A.25.25,0,0,0,72.26,61.86Z"/><path class="cls-15" d="M68.38,64.53a2.44,2.44,0,0,0,0-.27h0c-.08,0-.1,0-.14.08a.54.54,0,0,1-.07.27C68.28,64.67,68.36,64.65,68.38,64.53Z"/><path class="cls-15" d="M61.6,64.88c.06,0,.13,0,.11.09s.07.13.1.19a.74.74,0,0,0,.21,0c.07-.11,0-.2-.07-.28a.74.74,0,0,1-.15-.26C61.5,64.61,61.48,64.64,61.6,64.88Z"/><polygon class="cls-15" points="40.71 52.81 40.71 52.81 40.71 52.81 40.71 52.81"/><path class="cls-15" d="M40.33,52.41h0c-.07,0-.06.09,0,.13h0a.46.46,0,0,0,.07.07h0l.21.15s.11,0,.15.06l.08-.08s0,0,0-.06C40.7,52.48,40.49,52.49,40.33,52.41Z"/><path class="cls-15" d="M14.1,83.32l-.14.13a.07.07,0,0,0,0,0C14.17,83.5,14.18,83.49,14.1,83.32Z"/><path class="cls-15" d="M15.67,84.83l-.05,0c-.08-.12-.21,0-.31,0l-.06,0v.14a.35.35,0,0,0,.32.11C15.67,85,15.75,85,15.67,84.83Z"/><path class="cls-15" d="M10.31,98h-.06c-.06,0,0,.1-.08.13v.07a.14.14,0,0,0,.14.06h0s0-.11.08-.14A.17.17,0,0,0,10.31,98Z"/><path class="cls-15" d="M10,98.55a.13.13,0,0,0,.15.14c0-.07,0-.13,0-.2S10,98.46,10,98.55Z"/><path class="cls-15" d="M11.82,106.07l-.22-.55-.14.07a.13.13,0,0,0,0,.06s0,0-.06.08h-.06c0,.05,0,.11.05.11s.16.05.12.17,0,.08,0,.12h.06a.42.42,0,0,0,.29.07A.14.14,0,0,0,11.82,106.07Z"/><path class="cls-15" d="M92.91,74.23s0-.07,0-.07-.07,0,0,.09a.36.36,0,0,0,0,.09h0A.11.11,0,0,0,92.91,74.23Z"/><path class="cls-15" d="M94.5,77h0c.1-.15,0-.23-.11-.31C94.31,76.81,94.47,76.86,94.5,77Z"/><path class="cls-15" d="M95.63,91.52h0l-.08-.06c-.06,0-.12-.12-.2,0s0,.15,0,.21.11.18.24.18S95.63,91.62,95.63,91.52Z"/><path class="cls-15" d="M82.94,91.71c.09,0,.1-.06.11-.13a.21.21,0,0,0-.21-.13s0,.09,0,.13S82.85,91.71,82.94,91.71Z"/><path class="cls-15" d="M21.35,89.36a.08.08,0,0,0,.06.11c.07,0,.11,0,.13-.09a.72.72,0,0,1,0-.21c.11-.24,0-.46,0-.7a.1.1,0,0,0-.12-.09c-.06,0-.07.06-.07.1s0,.23,0,.35A.8.8,0,0,1,21.35,89.36Z"/><path class="cls-15" d="M22.7,87.26a.2.2,0,0,0-.09-.11c-.12,0-.22-.14-.35,0h0a.16.16,0,0,0,0,.07.09.09,0,0,0,0,.07s.05.09.08.14h.07a.24.24,0,0,0,.2,0A.19.19,0,0,0,22.7,87.26Z"/><path class="cls-15" d="M69.82,48.19c0,.07-.13.14,0,.21s.12-.07.19-.08a.1.1,0,0,0,.08-.13c0-.07-.08-.07-.14-.06A.52.52,0,0,0,69.82,48.19Z"/><path class="cls-15" d="M84,56.53c0-.13-.06-.19-.13-.27s0,.13-.07.2a.16.16,0,0,0,.07.07h0S84,56.58,84,56.53Z"/><path class="cls-15" d="M24.57,68.23a.09.09,0,0,0-.07-.09c-.05,0-.09,0-.09.07s0,.09.07.1A.09.09,0,0,0,24.57,68.23Z"/><path class="cls-15" d="M27.82,66.13c.07.08.12,0,.17,0l.06,0c0-.15-.12-.11-.2-.07A.1.1,0,0,0,27.82,66.13Z"/><polygon class="cls-15" points="28.05 66.05 28.05 66.05 28.05 66.06 28.05 66.05"/><path class="cls-15" d="M28.13,65.8c.05.23.18.07.28,0h.07c.11.07.15-.06.24-.08a.41.41,0,0,0,.14-.12.1.1,0,0,0,0-.13.21.21,0,0,1-.15-.07.56.56,0,0,0-.43.27h0A.18.18,0,0,1,28.13,65.8Z"/><path class="cls-15" d="M27.62,66.38c-.06,0,0,.08,0,.11l.07-.08S27.66,66.35,27.62,66.38Z"/><path class="cls-15" d="M26.82,59.88s0-.07-.06-.07-.1,0-.12.09a.06.06,0,0,0,.07.07C26.78,60,26.82,60,26.82,59.88Z"/><path class="cls-15" d="M26.55,58c-.1,0-.05-.19-.18-.22s0,.27-.1.36a.58.58,0,0,0,0,.32c.13,0,0-.12.11-.15s0,.23.21.18A1.17,1.17,0,0,1,26.55,58Z"/><path class="cls-15" d="M37.2,49.63V49.5h-.13C37,49.68,37.12,49.63,37.2,49.63Z"/><path class="cls-15" d="M90.91,66.48h0c-.08.17-.33.09-.46.27h.39c.1,0,.19-.08.3,0s.06,0,.06-.09l-.07-.06C91.08,66.47,91,66.54,90.91,66.48Z"/><path class="cls-15" d="M92.63,63.43c0,.19,0,.22.22.28.05,0,.14,0,.08-.09s-.08-.17.09-.16,0-.05,0-.08L93,63.3C92.86,63.32,92.67,63.18,92.63,63.43Z"/><path class="cls-15" d="M92.35,63h0l0,0v0c.1.15.2.19.31,0A.48.48,0,0,1,92.7,63c0-.08,0-.15-.13-.1A.44.44,0,0,1,92.35,63Z"/><path class="cls-15" d="M88.13,59.36h0c.1,0,.18.13.34.1C88.35,59.35,88.29,59.21,88.13,59.36Z"/><path class="cls-15" d="M84.86,105.46c0,.05,0,.1.07.09s0-.07,0-.11l0-.06h0S84.86,105.43,84.86,105.46Z"/><path class="cls-15" d="M18.3,77.3a.71.71,0,0,1,.1.14.28.28,0,0,0,.28.17c.05,0,.1,0,.14,0h0A.43.43,0,0,0,18.3,77.3Z"/><path class="cls-15" d="M19.39,77.3c.22-.06,0-.13,0-.2s-.21,0-.19.11S19.32,77.32,19.39,77.3Z"/><path class="cls-15" d="M20.47,77.17s0,0,0,.06l.12.07s.11,0,.14.1a.14.14,0,0,0,.09,0,.15.15,0,0,0,.1-.2.16.16,0,0,0,0-.07.94.94,0,0,0-.15-.06h0l-.07,0h0C20.52,77,20.39,77,20.47,77.17Z"/><path class="cls-15" d="M77.76,74.91a.11.11,0,0,0,0,.08s0,.07.06.11a.13.13,0,0,0,0,.06h0a.51.51,0,0,1,.07.36c0,.14,0,.22.17.24h.05a.13.13,0,0,0,.07.09h0V76l0,0h0c0,.1,0,.23.12.28a.38.38,0,0,0,0-.51h0l0,0c0-.11,0-.22-.06-.31a.61.61,0,0,1-.12-.15h0l-.06-.07c-.05-.11-.1-.22-.16-.33S77.83,74.86,77.76,74.91Z"/><path class="cls-15" d="M85.91,95.94l-.15.13s-.18.09,0,.15a.34.34,0,0,0,.28,0h0c.07-.12.15,0,.22,0l0,0v-.06a.09.09,0,0,1,0-.05.91.91,0,0,0,0-.33h0l-.3.13Z"/><path class="cls-15" d="M63.84,71.41c0-.09-.09-.1-.16-.11s-.21,0-.23.16a.1.1,0,0,0,.11.11A.34.34,0,0,0,63.84,71.41Z"/><path class="cls-15" d="M70.06,84.8c-.12.06-.07.19-.17.23l-.07.07-.08.06a.09.09,0,0,0,0,.09.24.24,0,0,0,.1.1h.11c.17,0,.09-.19.17-.26h0C70.09,85,70.15,84.89,70.06,84.8Z"/><path class="cls-15" d="M61.73,72.61c-.08-.18-.09-.18-.35-.06,0,.13.14.17.18.31C61.61,72.73,61.63,72.65,61.73,72.61Z"/><path class="cls-15" d="M66.55,78.26c0,.08,0,.17-.09.22a2.44,2.44,0,0,0,0,.27h0c0,.08,0,.17.06.21s.16.1.27.07c0-.2,0-.41.14-.57-.14-.07-.22.09-.32,0S66.64,78.32,66.55,78.26Z"/><path class="cls-15" d="M67,78.05c-.07.22.09.41,0,.63.14,0,.12-.11.13-.2s0-.29.07-.42,0-.25-.18-.23S67,78,67,78.05Z"/><path class="cls-15" d="M72.91,76.71a.08.08,0,0,0,.1.07c.1,0,.12-.1.12-.18s0,0-.08-.06S72.9,76.61,72.91,76.71Z"/><path class="cls-15" d="M83.34,91.17l.07.07c.1-.17.09-.21-.07-.28h0l-.07.08v.06Z"/><path class="cls-15" d="M72.61,71.85a.84.84,0,0,1,.07.35c0,.11.1.23.25.15s.11-.18,0-.29,0,0,0-.07,0-.1-.07-.14l0,0s0,0,0,0a1.1,1.1,0,0,0,0-.18s0-.11,0-.15h0c-.08-.06-.18,0-.27,0s-.15.07-.15.17S72.51,71.81,72.61,71.85Z"/><path class="cls-15" d="M72,84.27c-.1,0-.13.07-.14.16s0,.19-.07.25a2.18,2.18,0,0,0-.21.7l0,.12h0l0,0a.43.43,0,0,0-.07.35c0,.1.06.19.2.12l.07-.07a1.11,1.11,0,0,1,.09-.4l0,0H72a.15.15,0,0,0,0-.14h0a1.16,1.16,0,0,1,0-.49A2,2,0,0,0,72,84.27Z"/><path class="cls-15" d="M66.39,80.28a.15.15,0,0,1-.07.13c.05.14.05.14.18,0s0,0,0,0a.14.14,0,0,0,0,.12c.11.05.16.18.29.21a.05.05,0,0,0,.06,0c0-.11.11-.22,0-.33s-.13-.31-.36-.21C66.43,80.13,66.45,80.27,66.39,80.28Z"/><path class="cls-15" d="M71.35,86.88c-.22.07-.18.28-.24.43s0,.2.07.27.14,0,.21-.07a2.26,2.26,0,0,1,0-.26C71.42,87.12,71.49,87,71.35,86.88Z"/><path class="cls-15" d="M67,84.54l0-.12-.13.06s0,.09,0,.13,0,.28.16.35h0A.61.61,0,0,0,67,84.54Z"/><path class="cls-15" d="M69.31,82h0s.12.17.15,0,0-.16-.06-.16S69.32,81.93,69.31,82Z"/><path class="cls-15" d="M65.5,67.68c.07.06.13,0,.17,0h0c-.06,0-.07-.13-.16-.07A.07.07,0,0,0,65.5,67.68Z"/><path class="cls-15" d="M66.24,63.23s0,.1.05.06S66.27,63.24,66.24,63.23Z"/><path class="cls-15" d="M70.17,54.1s.1,0,.15-.05.11-.13.05-.22-.09,0-.13,0a.61.61,0,0,0,0,.12S70.11,54.06,70.17,54.1Z"/><path class="cls-15" d="M66.32,51.85l0-.09,0,0,.06.07Z"/><path class="cls-15" d="M38.78,61.23a.08.08,0,0,0,.06,0H39l.07,0a.17.17,0,0,0,.1-.06l.08-.06c0-.08,0-.14-.08-.14l-.06,0a.58.58,0,0,1-.29.12Z"/><path class="cls-15" d="M43.07,59.44l-.16.05h-.13c-.09.11-.27,0-.36.13a.27.27,0,0,1-.07.08h0c0,.06.1.07.16.08a3.42,3.42,0,0,1,.63-.16C43.17,59.55,43.27,59.45,43.07,59.44Z"/><path class="cls-15" d="M11,97.17a.12.12,0,0,0-.14-.06l-.07.07C10.82,97.39,10.88,97.16,11,97.17Z"/><polygon class="cls-15" points="92.56 72.33 92.56 72.33 92.56 72.34 92.56 72.33"/><path class="cls-15" d="M92.4,72.1a3.4,3.4,0,0,0-.46-.09.2.2,0,0,0-.16.06c0,.11,0,.19.14.2s.16,0,.22,0l.06,0h.36C92.65,72.16,92.5,72.14,92.4,72.1Z"/><path class="cls-15" d="M92.76,73.19s0,0,0,0,.06.08.11.09h0C92.84,73.25,92.85,73.19,92.76,73.19Z"/><path class="cls-15" d="M91.49,72l-.37,0c.11.19.37.07.44.26.1,0,.16,0,.1-.14a1.47,1.47,0,0,1-.1-.13Z"/><path class="cls-15" d="M90.68,72c0,.08.06.14.16.17s0,0,.07.06c.24-.07,0-.14,0-.21S90.74,71.86,90.68,72Z"/><path class="cls-15" d="M92.87,71.89c.13.21,0,.33-.16.44h0s.1,0,.14.07a.21.21,0,0,1,.15.07h0c.06,0,.11,0,.15,0h0a.19.19,0,0,0,.08,0,.16.16,0,0,0,.1,0s0,.08.11.11h0a10,10,0,0,0,1.25.11c-.08-.12-.21-.08-.27-.17l-.2-.08a2.12,2.12,0,0,0-.43-.06h-.28a.13.13,0,0,1,0-.06.66.66,0,0,0-.43-.13c-.11-.15,0-.37-.21-.5A.14.14,0,0,0,92.87,71.89Z"/><path class="cls-15" d="M92.57,79.07c0,.05,0,.08.09.07s0-.06,0-.09a.06.06,0,0,0,0-.06A.08.08,0,0,0,92.57,79.07Z"/><path class="cls-15" d="M16.47,86a.18.18,0,0,1-.15-.07L16,86h0a.08.08,0,0,0,0,.13c.1,0,.21,0,.29.07a.37.37,0,0,0,.27-.07A.12.12,0,0,0,16.47,86Z"/><path class="cls-15" d="M78.69,55h0a1,1,0,0,0,0,.23s0,.08.08.1.08,0,.09,0,.26-.33.09-.57C78.81,54.84,78.81,55,78.69,55Z"/><path class="cls-15" d="M85.27,58.53a.46.46,0,0,1,.07.07.24.24,0,0,0,.29-.13h0a.16.16,0,0,1-.07-.07h0C85.29,58.34,85.29,58.34,85.27,58.53Z"/><path class="cls-15" d="M85.56,60.54h0a.24.24,0,0,1-.08-.06h-.14l0,0s0,0,0,0l-.08-.06c0-.06-.12,0-.18,0s-.17,0-.24,0h0a.06.06,0,0,0-.08,0h-.06a.22.22,0,0,1-.22,0h-.36c-.08,0-.14-.15-.24,0a.06.06,0,0,0,0,.06c0,.11.16,0,.25.06v.07l.12.08a.48.48,0,0,1,.18.07,3.09,3.09,0,0,0,1,.19C85.44,60.73,85.57,60.72,85.56,60.54Z"/><path class="cls-15" d="M81.13,58.75l.07-.07c0-.06,0-.11,0-.17s-.08-.07-.14,0a.13.13,0,0,0,0,.06C81,58.62,81,58.73,81.13,58.75Z"/><path class="cls-15" d="M81.91,58.6h.14v-.14C82,58.46,81.9,58.51,81.91,58.6Z"/><path class="cls-15" d="M83.34,60.12a.18.18,0,0,0-.07,0L83.12,60a1.13,1.13,0,0,0-.27-.13l-.11,0-.08,0-.11,0h-.09a.34.34,0,0,1-.2,0,.24.24,0,0,0-.12,0s-.06,0-.1,0l-.08,0c-.18,0-.16.11-.08.22a.31.31,0,0,0,.18.09c.09,0,.19-.06.27,0a2.32,2.32,0,0,1,.38.07,1.37,1.37,0,0,0,.49.13c0,.05.1,0,.13.08h0C83.49,60.27,83.42,60.2,83.34,60.12Z"/><path class="cls-15" d="M83.26,59.92h0c.12.06.26,0,.36.14h0c.08,0,.14,0,.14-.13a.49.49,0,0,0-.49-.14S83.22,59.87,83.26,59.92Z"/><path class="cls-15" d="M79.35,57.22c.05,0,.12.09.16,0s.1-.23-.1-.25l-.06.08Z"/><path class="cls-15" d="M87.41,59.1c.17-.13-.08-.2,0-.31s-.1-.1-.17-.12c-.24,0-.24,0-.19.14l.06.06C87.18,59,87.2,59.15,87.41,59.1Z"/><path class="cls-15" d="M86.55,58.2c-.11,0-.15,0-.14.13l.08.06C86.69,58.39,86.59,58.28,86.55,58.2Z"/><path class="cls-15" d="M72.46,51.64a.13.13,0,0,1,.14-.07.45.45,0,0,1,.14-.24s.09-.09,0-.14a.12.12,0,0,0-.18,0c-.1.17-.31.24-.41.41,0,0,0,0-.05,0s-.17,0-.09.15.11,0,.18,0S72.37,51.7,72.46,51.64Z"/><path class="cls-15" d="M72.68,50.81h0a0,0,0,0,0,0,.06h0l.08.06a.06.06,0,0,0,.06,0l.09-.13a.14.14,0,0,1,0-.06C72.78,50.66,72.73,50.74,72.68,50.81Z"/><path class="cls-15" d="M71.62,49.72c0,.06,0,.15.06.17s.12-.06.13-.13,0-.21-.13-.12Z"/><path class="cls-15" d="M28.84,62c.08,0,.06-.12,0-.18a1.51,1.51,0,0,0-.11-.22s-.05,0-.08-.06-.18.09-.05.33l.05.05C28.72,62,28.76,62.08,28.84,62Z"/><path class="cls-15" d="M27.42,67.68c0,.17.24,0,.37,0h.1a.41.41,0,0,0,.3-.1c.11-.19.32-.29.43-.48h.07c0-.1,0-.2-.06-.27,0-.23-.05-.24-.23-.15s-.25.27-.42.35l-.22.34C27.6,67.43,27.36,67.49,27.42,67.68Z"/><path class="cls-15" d="M27.33,61.78l-.06-.07h0a.1.1,0,0,0-.14,0,.3.3,0,0,0,.08.27C27.35,62,27.34,61.88,27.33,61.78Z"/><path class="cls-15" d="M27.48,59.44s.07-.1,0-.15-.1,0-.15,0l-.09.07a.16.16,0,0,0,.16.15Z"/><path class="cls-15" d="M26.89,61a.08.08,0,0,0,0,0c0,.09,0,.13.1.14a.09.09,0,0,0,0-.06C27,61.05,27,61,26.89,61Z"/><path class="cls-15" d="M93.19,71.88l.37.19c.08,0,.17,0,.24,0a.32.32,0,0,0-.16-.18C93.5,72,93.34,71.8,93.19,71.88Z"/><path class="cls-15" d="M93,67.79h-.14v.13h.06c.12,0,.27,0,.37-.08h0C93.19,67.78,93.07,67.86,93,67.79Z"/><path class="cls-15" d="M90.35,66.88c-.23-.08-.42.08-.64.07a.17.17,0,0,0-.14,0,.09.09,0,0,0-.06.06c0,.07,0,.13,0,.17s.14.18.21,0,.44,0,.65-.06h0Z"/><path class="cls-15" d="M87.63,62.34c0-.05-.11,0-.15-.08h0l-.07-.06h0s0,0-.09,0a.2.2,0,0,0,0,.08,2.17,2.17,0,0,0,.08.51.16.16,0,0,0,.06.08.12.12,0,0,0,.14,0c0-.18,0-.37.06-.54Z"/><path class="cls-15" d="M91.41,63c-.07,0-.15,0-.2.06s.06.15.17.16S91.41,63.1,91.41,63Z"/><path class="cls-15" d="M92,63.26l-.09,0h0S92,63.32,92,63.26Z"/><path class="cls-15" d="M21.44,75s-.06,0-.1,0l-.07.12h.05C21.37,75.09,21.45,75.1,21.44,75Z"/><path class="cls-15" d="M76.22,72c.09.16.2.2.36.1,0-.06-.07-.12-.11-.17s-.06-.12-.09-.17-.2-.17-.33-.05C76.11,71.81,76.17,71.9,76.22,72Z"/><path class="cls-15" d="M79.3,98.32l-.16,0a.29.29,0,0,0-.17.19c0,.07.1.07.16.08s.32,0,.47-.09C79.73,98.17,79.43,98.36,79.3,98.32Z"/><path class="cls-15" d="M79.9,96.89a.74.74,0,0,1-.14.22c-.05.06,0,0,.07.06s0,0,0,0l0,0h0c.06-.06.16,0,.22-.07h0c.19,0,.29-.13.08-.27h-.14S79.94,96.85,79.9,96.89Z"/><path class="cls-15" d="M83,97.31c-.17.11-.45,0-.57.21h0a.23.23,0,0,0-.09.08h-.06v0l-.15.07-.2,0h-.16l-.08,0-.1,0a.41.41,0,0,1-.16,0,.09.09,0,0,0-.07,0c0,.11,0,.19.14.2a6.42,6.42,0,0,1,.87-.19c.15,0,.25-.17.42-.09s.15,0,.21-.07.19-.13.28-.2l0-.07c0-.06-.08-.15-.19-.14s-.11,0-.15.07Z"/><path class="cls-15" d="M85.37,95.64c0,.08.06.07.12.09h0c0-.06,0-.12-.09-.12A0,0,0,0,0,85.37,95.64Z"/><path class="cls-15" d="M70.83,89.45v.34h.06c0-.07.08-.12.07-.2S70.92,89.45,70.83,89.45Z"/><path class="cls-15" d="M65.31,81.16a.39.39,0,0,1-.21.08l-.14.14c0,.05-.1.12,0,.17s.11,0,.16,0,.27-.11.29-.28Z"/><path class="cls-15" d="M65.38,79.92s0,0,0,.07h.21c0-.15,0-.2-.2-.12C65.39,79.88,65.38,79.9,65.38,79.92Z"/><path class="cls-15" d="M66.82,74.75v-.13c0-.07,0-.16-.12-.05S66.69,74.75,66.82,74.75Z"/><path class="cls-15" d="M71,86.27a.32.32,0,0,1-.14.14c0,.15.11.14.21.13a.12.12,0,0,0,.08-.06l.07-.14A.14.14,0,0,0,71,86.27Z"/><path class="cls-15" d="M67.38,75.13a.43.43,0,0,0,0-.16c-.07,0-.18-.12-.2.06v.2C67.29,75.3,67.37,75.26,67.38,75.13Z"/><path class="cls-15" d="M67.39,74.75h.06v-.13s0-.1-.07-.14h0c-.16-.08-.22,0-.29.14l-.06.15c0,.12,0,.13.13.07S67.34,74.84,67.39,74.75Z"/><path class="cls-15" d="M71.32,86.34a.19.19,0,0,0,.21.13c0-.11,0-.23-.06-.32A.21.21,0,0,1,71.32,86.34Z"/><path class="cls-15" d="M72.74,61.44h0c.06,0,.15.12.19,0s-.06-.11-.13-.11S72.74,61.38,72.74,61.44Z"/><path class="cls-15" d="M73.11,53.43h0c-.06.06,0,.15-.07.21h0c0,.09,0,.19,0,.28s0,0,0,.06a.4.4,0,0,0,0,.34h0a.14.14,0,0,0-.09,0c-.07.15-.14.29,0,.45a2.45,2.45,0,0,0-.11.41c0,.21,0,.43-.09.63a2,2,0,0,0-.08.76h.07l0,0,.06-.06a.16.16,0,0,0,0-.09,1.69,1.69,0,0,1,.07-.38,5.72,5.72,0,0,0,.18-1.37c0-.1,0-.21,0-.31a.1.1,0,0,0,0-.05h.06a3.55,3.55,0,0,0,.09-.47c0-.06,0-.15.06-.21a1.34,1.34,0,0,1,0-.2c0-.06,0-.12-.08-.15h0S73.15,53.39,73.11,53.43Z"/><path class="cls-15" d="M71.24,52.84s0,0,0-.05,0,0-.06,0l0,0S71.22,52.86,71.24,52.84Z"/><path class="cls-15" d="M32.08,63.81l.11-.05.08,0c.1,0,.1-.14.14-.22a4.24,4.24,0,0,1,.5-.62.23.23,0,0,0,.07-.07h0a.14.14,0,0,0-.13-.06h0l-.08,0-.15.08c-.08,0-.17.06-.2.15s-.22.23-.3.36L32,63.5l0,0-.06.06-.06,0-.1.08a.22.22,0,0,0,0,.08.14.14,0,0,0,.08.09h.08l.11,0Z"/><path class="cls-15" d="M34,63.58a.15.15,0,0,0-.13-.07.2.2,0,0,1-.16.06c-.19,0-.25.13-.33.24s.05.1.12.11a.58.58,0,0,1,.42-.14A.15.15,0,0,0,34,63.58Z"/><path class="cls-15" d="M21,92.41v-.07a2.44,2.44,0,0,1,0-.27l0,0s0,0,0,0H21s0,0,0-.07a.56.56,0,0,1-.08-.27h-.13v.55h-.07c0,.25,0,.28.21.27Z"/><path class="cls-15" d="M20.93,95.32a2.33,2.33,0,0,1,.64-.17.15.15,0,0,0,.06-.05c-.05-.15.11,0,.13-.11a.23.23,0,0,0,.07-.07c0-.17-.1-.17-.22-.1a.51.51,0,0,0-.24.13.35.35,0,0,1-.4,0v0a.2.2,0,0,0-.06-.13h0c.27-.06.12-.28.15-.43a8.83,8.83,0,0,1,0-.89,1,1,0,0,0,0-.24v0c0-.12-.15-.21-.07-.35s0,0,0-.06a.14.14,0,0,1-.06-.14c-.07,0-.11,0-.09.1s.06.27-.05.39a1.73,1.73,0,0,1-.11.9.23.23,0,0,0,0,.2.78.78,0,0,1,0,.34v.21c-.06.11.06.22,0,.34a.21.21,0,0,0,0,.13.23.23,0,0,0,0,.14.12.12,0,0,0,.1.09.08.08,0,0,0,.07,0A.44.44,0,0,0,20.93,95.32Zm-.09-.67h0Z"/><path class="cls-15" d="M22.47,86h0l.07-.08v-.13a.14.14,0,0,0-.22,0c-.06.08.05.11.09.15Z"/><path class="cls-15" d="M23,87.36a.22.22,0,0,1,.14-.06v-.06l0,0a.16.16,0,0,0-.17,0l0,0C23,87.24,23,87.32,23,87.36Z"/><path class="cls-15" d="M74.19,51.65v.13C74.26,51.74,74.26,51.69,74.19,51.65Z"/><polygon class="cls-15" points="72.03 52.19 72.03 52.19 72.03 52.19 72.03 52.19"/><path class="cls-15" d="M71.6,52.08a.2.2,0,0,0,0,.25c.06.06.15,0,.22,0s.14,0,.17-.11a1.19,1.19,0,0,1-.3-.46A2.84,2.84,0,0,1,71.6,52.08Z"/><path class="cls-15" d="M24.94,69.13c-.11,0-.12.08-.19.09h0s-.07.13,0,.11A.17.17,0,0,0,24.94,69.13Z"/><path class="cls-15" d="M29.05,65h0c.07.12.14,0,.21,0V65s0,0-.07,0h-.06Z"/><path class="cls-15" d="M26.26,68.61h0c-.06-.07-.13-.11-.18,0s.06.07.11.08h0Z"/><path class="cls-15" d="M31.92,69.37s0,.1,0,.13c.31-.13.5-.41.8-.55,0-.09.23-.18,0-.27h-.06A4,4,0,0,0,31.92,69.37Z"/><path class="cls-15" d="M33.2,68.32l-.07,0a.23.23,0,0,0-.07.07h0l-.07.06h0l-.08.07.09.08c.1,0,.21,0,.2-.15Z"/><polygon class="cls-15" points="32.91 68.54 32.91 68.54 32.91 68.54 32.91 68.54"/><path class="cls-15" d="M30.16,65.55l0,.07v0c.07.08.12,0,.17,0s.05-.1.11-.13h0s.11,0,.14-.07h0a.23.23,0,0,0,.07-.07c.12-.09.14-.27.29-.33A.14.14,0,0,1,31,65a.27.27,0,0,0,.08-.07h0c.05-.07.06-.16.11-.23s0-.17-.17-.1-.18.28-.35.34a.59.59,0,0,0-.31.17l0,.08a.4.4,0,0,1-.09.21l0,.07-.06.1Z"/><path class="cls-15" d="M29.69,66c0-.1.24-.18.08-.33h0l-.11.06-.11.08h0c-.07.1-.1.18.07.21Z"/><path class="cls-15" d="M29.85,58.6l-.15,0-.07.06c-.05.07-.13.06-.21.08a.29.29,0,0,0,.41.05C29.84,58.74,29.84,58.67,29.85,58.6Z"/><path class="cls-15" d="M92.05,71.73c-.1,0-.21,0-.13.12C92,71.85,92.06,71.82,92.05,71.73Z"/><path class="cls-15" d="M87.55,61.65s0,0,0,.05l.55.09c.18,0,.14-.12.08-.22H88C87.84,61.6,87.67,61.51,87.55,61.65Z"/><path class="cls-15" d="M80.22,102.94c0,.1,0,.19.11.23l.21-.29v0s-.05-.1-.08-.1S80.27,102.85,80.22,102.94Z"/><path class="cls-15" d="M84.35,101.23c.06,0,.05-.07.05-.11h-.06l-.07.07S84.31,101.24,84.35,101.23Z"/><path class="cls-15" d="M22.68,75.86l-.16,0c-.06,0-.12,0-.16,0s0,.1.05.15.21,0,.28-.07S22.68,75.88,22.68,75.86Z"/><path class="cls-15" d="M25.34,74c-.13,0-.24.08-.14.24s.16,0,.2,0,.28.08.43,0C25.76,74,25.52,74,25.34,74Z"/><path class="cls-15" d="M27,74c.06.1.14,0,.21,0a1,1,0,0,0,.35-.27c.23-.22.31-.56.55-.77,0-.11.09-.2,0-.35-.13.16-.24.3-.36.43a.32.32,0,0,1-.1.18,2.46,2.46,0,0,0-.41.44h0l-.07.06a.24.24,0,0,1-.11.13C27,73.87,27,73.93,27,74Z"/><path class="cls-15" d="M77.39,94.7c-.08,0-.06.13-.06.2C77.52,94.88,77.45,94.79,77.39,94.7Z"/><path class="cls-15" d="M77.68,98.35a1,1,0,0,0-.5.13c0,.08.13.07.22.07S77.74,98.62,77.68,98.35Z"/><path class="cls-15" d="M78.34,98.15a.59.59,0,0,1,0,.13c0,.24,0,.24.25.13,0,0,0,0,.08-.06l0,0h.08a.64.64,0,0,1,.23-.2H79c0-.06.06-.12-.06-.13S78.56,98.14,78.34,98.15Z"/><path class="cls-15" d="M78.11,98.2l-.13,0-.07,0a.13.13,0,0,0,0,.06h.24s.09,0,.08-.07S78.15,98.22,78.11,98.2Z"/><path class="cls-15" d="M77,97.7a.09.09,0,0,0,.11-.07c0-.07,0-.09-.1-.11s-.1,0-.11.06A.11.11,0,0,0,77,97.7Z"/><path class="cls-15" d="M81,101.4c-.16,0-.26,0-.25.18a.28.28,0,0,0,.18,0l.07-.06Z"/><path class="cls-15" d="M65.53,81.93c0-.12,0-.23,0-.34s-.13-.08-.18,0a.44.44,0,0,0,.11.47h0a.09.09,0,0,0,0-.11l0,0,0,0Zm-.08,0h0Z"/><path class="cls-15" d="M76.69,65.47s0,.07,0,.07.1-.05.1-.11,0-.09,0-.08S76.7,65.4,76.69,65.47Z"/><path class="cls-15" d="M66.09,88a.31.31,0,0,0,0-.1.26.26,0,0,0,0-.15,1.2,1.2,0,0,0-.24-.15.1.1,0,0,0-.09,0,.29.29,0,0,0-.07.18,1.3,1.3,0,0,0,0,.34,1,1,0,0,1-.06.55l0,.13a.14.14,0,0,0,0,.09.18.18,0,0,0,0,.07h0c.06,0,.12,0,.09.11a1.14,1.14,0,0,0,0,.37c0,.12.11.12.21.08l.07-.08h0c.05-.07,0-.1-.07-.14s0,0,0-.06A2.6,2.6,0,0,1,66.09,88Z"/><path class="cls-15" d="M69,92.2h.1v-.06l-.06,0s-.09,0-.11,0S69,92.2,69,92.2Z"/><path class="cls-15" d="M68.84,92.49s0,0,0,0h0c0-.07,0-.15,0-.19a1.15,1.15,0,0,0,0,.19h0Z"/><path class="cls-15" d="M68.82,91.44c.11,0,.21,0,.22-.13s-.15,0-.22,0Z"/><path class="cls-15" d="M66,83.71c.09,0,0,.25.19.15,0,0,0-.09,0-.14S66,83.6,66,83.71Z"/><path class="cls-15" d="M61,75.38c0,.08,0,.11.12.11s.09-.15.07-.25A.16.16,0,0,0,61,75.38Z"/><path class="cls-15" d="M46.43,68.33a.33.33,0,0,0,.3.06.16.16,0,0,0,.08-.06.11.11,0,0,0,0-.13h0a4,4,0,0,1-.49-.29h0a.13.13,0,0,1-.07-.06.46.46,0,0,1-.07-.07.27.27,0,0,1-.08-.07h0c-.13.06-.12.15,0,.24s.15.09.18.18h0l.08.06.08.07.06.07Z"/><path class="cls-15" d="M54.31,67.31a0,0,0,0,0,0,0l.08,0C54.39,67.28,54.34,67.31,54.31,67.31Z"/><path class="cls-15" d="M31.4,64.47s0,0,0-.07,0-.1.08-.13h0a.25.25,0,0,0-.23-.15l-.21.07a.23.23,0,0,1-.07.07h0a.14.14,0,0,0,.14.07s0,0,0,0a.06.06,0,0,0,.05,0s.06,0,.06,0S31.32,64.46,31.4,64.47Z"/><path class="cls-15" d="M89.92,71.3c-.06,0-.11,0-.15,0a.07.07,0,0,0,0,.11h0s.1.07.14,0V71.3Z"/><path class="cls-15" d="M81.83,71.85h0c.06-.07.16,0,.22-.06v-.08H81.7A.19.19,0,0,0,81.83,71.85Z"/><path class="cls-15" d="M22.57,83.94a.16.16,0,0,0-.18-.12c-.09,0-.06.11-.06.17v.18l.12-.08C22.5,84.05,22.63,84.06,22.57,83.94Z"/><path class="cls-15" d="M79.19,59.3s0,.06,0,.1,0,.14,0,.17.13,0,.17-.08a.25.25,0,0,0,0-.13A.26.26,0,0,0,79.19,59.3Z"/><polygon class="cls-15" points="27.9 73.51 27.9 73.51 27.91 73.51 27.9 73.51"/><path class="cls-15" d="M27.89,73.54v0S27.87,73.53,27.89,73.54Z"/><path class="cls-15" d="M31.91,58.12c0-.09-.05-.13-.14-.13a.46.46,0,0,0-.07.07C31.75,58.14,31.83,58.13,31.91,58.12Z"/><path class="cls-15" d="M88.75,67.07h0s0,0,0,0h0Z"/><path class="cls-15" d="M89.35,67l0,0,0,0Z"/><path class="cls-15" d="M89.82,70.6s-.07,0-.11,0v.12C89.76,70.67,89.83,70.67,89.82,70.6Z"/><path class="cls-15" d="M81,104.3c.07.07.12,0,.18,0a.07.07,0,0,1,0,0c-.06,0-.11-.1-.18,0A.08.08,0,0,0,81,104.3Z"/><path class="cls-15" d="M77.9,104.21c0,.07,0,.2.12.14s.23,0,.23-.2h0a.23.23,0,0,0-.07-.07s0,0-.06,0l-.08.06Z"/><path class="cls-15" d="M23.62,74.61c-.06,0-.07-.11-.12-.09s0,.11,0,.15.07,0,.1.08h.05A.65.65,0,0,1,23.62,74.61Z"/><path class="cls-15" d="M72.68,98.69s-.11.07-.08.12.1,0,.15,0a.57.57,0,0,0,0-.13Z"/><path class="cls-15" d="M76.69,99.1a.28.28,0,0,0,.28,0c0-.06.07-.14,0-.15S76.7,99,76.69,99.1Z"/><path class="cls-15" d="M77.81,98.57c-.14,0-.27.08-.41.05s0,.14.08.2.22-.14.34-.2A.07.07,0,0,0,77.81,98.57Z"/><path class="cls-15" d="M73.82,99.1c0,.05-.1,0-.14.07h-.14l-.36.21c-.13,0-.25,0-.21.19s.17.13.29.07a2.29,2.29,0,0,1,.31-.16c.14-.07.37,0,.4-.25,0-.09-.06-.13-.15-.14Z"/><path class="cls-15" d="M79.55,103.37h.06s.08-.08.06-.14-.06,0-.09,0S79.51,103.32,79.55,103.37Z"/><path class="cls-15" d="M74.44,105a.24.24,0,0,0-.26,0A4.58,4.58,0,0,0,73,105a.31.31,0,0,1-.33-.07c-.13,0-.08.11-.15.13a.62.62,0,0,1-.35.08c-.27,0-.51.09-.78.07,0,.25.19.19.34.2s.38.08.49-.12l.06,0a9.49,9.49,0,0,0,1.51-.06,1.18,1.18,0,0,0,.61-.16S74.52,105,74.44,105Z"/><path class="cls-15" d="M76,100s0-.05,0-.08l-.28.07c0,.17.12.09.19.11A.11.11,0,0,0,76,100Z"/><path class="cls-15" d="M62.38,83.51s0,.12.09.11a0,0,0,0,0,0,0C62.5,83.52,62.44,83.52,62.38,83.51Z"/><path class="cls-15" d="M78.25,71.1l0,.05c.19,0,.2,0,.14-.13A.15.15,0,0,0,78.25,71.1Z"/><path class="cls-15" d="M65.69,86.63a.07.07,0,0,0,.06.07,0,0,0,0,0,.06,0s0-.07-.06-.07S65.69,86.59,65.69,86.63Z"/><path class="cls-15" d="M59.79,78.84h-.11c-.09.08-.1.21-.23.26-.19.26-.16.32.13.34,0-.06,0-.15.05-.16C59.87,79.19,59.81,79,59.79,78.84Z"/><path class="cls-15" d="M60.87,77.93l-.07-.07c-.07,0-.18,0-.18.08s.05.19.17.18S60.87,78,60.87,77.93Z"/><path class="cls-15" d="M56,74l-.06-.13c-.1,0-.15,0-.14.14Z"/><path class="cls-15" d="M48.43,69.23c0,.1,0,.16.1.14s.49-.19.73,0l0-.09c-.14-.06,0-.21-.08-.27a.6.6,0,0,1-.36-.14c0,.11-.08.23-.25.2S48.44,69.13,48.43,69.23Z"/><path class="cls-15" d="M87.34,70.06h.06c.1-.1,0-.14-.06-.19h0C87.17,69.93,87.22,70,87.34,70.06Z"/><path class="cls-15" d="M82.33,71.24h-.07c-.06.08,0,.19-.05.27l.06.07h.13l.07-.07C82.64,71.31,82.4,71.32,82.33,71.24Z"/><path class="cls-15" d="M83.13,69.56c.05,0,.11,0,.08-.09s-.1,0-.15,0v0Z"/><path class="cls-15" d="M24.54,87.06l0,0s0,0,0,0,0,0,0,0S24.58,87.06,24.54,87.06Z"/><path class="cls-15" d="M37.5,84a.48.48,0,0,0-.16-.35,4.47,4.47,0,0,1-.36-.89c-.09.12,0,.26-.13.33,0,.22.18.33.23.52a1.46,1.46,0,0,0,.27.58C37.5,84.21,37.48,84.1,37.5,84Z"/><path class="cls-15" d="M38.19,86.29a.26.26,0,0,1,0-.22,1.41,1.41,0,0,0,0-.29c0-.24-.17-.43-.21-.66a.1.1,0,0,0-.07,0h0l0-.11h-.06a.09.09,0,0,0-.15,0,.21.21,0,0,0,0,.31.63.63,0,0,1,.15.48.65.65,0,0,0,.08.27s0,0,.06.07l.08.21c.06,0,.07.07.08.12A.15.15,0,0,0,38.19,86.29Z"/><path class="cls-15" d="M36.7,85.31h-.11c-.05,0-.12,0-.14.06s0,.1.09.13.26,0,.37-.06S36.75,85.39,36.7,85.31Z"/><path class="cls-15" d="M35.47,72.76h-.12c0,.12-.06.26.14.28S35.5,72.85,35.47,72.76Z"/><path class="cls-15" d="M26.91,79.51a.13.13,0,0,0,.14-.14.39.39,0,0,0-.29-.13c0,.13.06.2.15.27Z"/><path class="cls-15" d="M70,97.79s0,.07,0,.11.09,0,.14,0v-.07S70,97.78,70,97.79Z"/><path class="cls-15" d="M71.94,98.92c.23.06.23.06.24-.09C72.09,98.84,72,98.81,71.94,98.92Z"/><path class="cls-15" d="M69.56,102.33c0,.13-.13.18-.24.22l-.08.14c0,.09,0,.1.1.11h.1l.08,0c.13-.06.29-.06.36-.2l-.14-.13a.14.14,0,0,0-.06-.14C69.63,102.28,69.57,102.29,69.56,102.33Z"/><path class="cls-15" d="M73.76,101l-.07.06c-.06.11,0,.17.09.13s.27-.14.4-.2.11,0,.15-.07h0c-.06-.08-.14-.07-.22-.07a.16.16,0,0,1-.08.06Z"/><path class="cls-15" d="M75.3,105.21s0,.07.09.09l.07-.06C75.42,105.18,75.36,105.14,75.3,105.21Z"/><path class="cls-15" d="M61,91.49a.14.14,0,0,0,0,.23l.08-.13.06-.08h0C61.11,91.45,61,91.42,61,91.49Z"/><path class="cls-15" d="M65.67,88.21c0-.1-.1-.15-.2-.07s0,.09-.07.14S65.63,88.38,65.67,88.21Z"/><path class="cls-15" d="M79.26,63.78a.12.12,0,0,0,.14.14A.13.13,0,0,0,79.26,63.78Z"/><path class="cls-15" d="M47.32,70.74s0,.06,0,.09a.36.36,0,0,0,.07.1l0,0,.14-.06c.11,0,.26,0,.28-.14h0c-.14-.1-.38-.09-.34-.35-.07,0-.12,0-.17,0S47.33,70.64,47.32,70.74Z"/><path class="cls-15" d="M48.29,71.05s0,0,0,0,.06.07.11.09h0S48.37,71.05,48.29,71.05Z"/><path class="cls-15" d="M46.32,69.78h.1a.22.22,0,0,0-.05-.08s-.09-.06-.12,0S46.27,69.77,46.32,69.78Z"/><path class="cls-15" d="M47.37,69.37c0,.19.17.16.28.2.17-.14,0-.18-.08-.27l-.15-.13a.14.14,0,0,0-.06.13S47.37,69.35,47.37,69.37Z"/><path class="cls-15" d="M22,96.89c-.07,0-.15,0-.23,0,.11,0,.2.06.29,0Z"/><path class="cls-15" d="M23.61,97.93c.06-.07,0-.16.08-.23v-.32h0c0-.09,0-.19-.12-.19a1,1,0,0,1,0,.17h0s0,.06,0,.09h0a0,0,0,0,1,0,.07v.13s0,.11-.07.14h0c0,.08,0,.22.14.14Z"/><path class="cls-15" d="M86.77,69.94h-.06s0,0,0,0a.1.1,0,0,0,.09,0S86.8,70,86.77,69.94Z"/><path class="cls-15" d="M26.54,92.89c.06-.11,0-.23,0-.34s0-.06-.09-.07c-.12.17-.07.4-.22.55h0c-.05.08-.06.16,0,.22s.15,0,.2-.07a.4.4,0,0,0,.07-.24Z"/><path class="cls-15" d="M84.69,66.34a1.14,1.14,0,0,1-.57-.28h0L84,66c-.05-.13-.26,0-.3-.16a.4.4,0,0,1-.06-.22c0-.06,0-.15-.13-.23,0,.23-.07.34-.29.38.19.23.5.19.65.4a4.66,4.66,0,0,0,1,.56c.07,0,.15,0,.2-.06l-.06-.07c0-.07-.15-.08-.21-.15A.47.47,0,0,1,84.69,66.34Z"/><path class="cls-15" d="M28.61,85.23l.08-.06c0-.13.15-.21.14-.34s0-.16-.14-.08-.41.21-.28.49h0A.15.15,0,0,0,28.61,85.23Z"/><path class="cls-15" d="M28.05,87.31l-.15.06a.08.08,0,0,0-.13,0c0,.06,0,.09.07.12h.21A.15.15,0,0,0,28.05,87.31Z"/><path class="cls-15" d="M37.7,84.61s0,0,0,0c-.18-.11-.2-.1-.21.11a.23.23,0,0,1,.07.14C37.66,84.77,37.61,84.65,37.7,84.61Z"/><path class="cls-15" d="M37.34,79c-.08,0-.12-.16-.22-.09s0,.16,0,.24v0h.13A.19.19,0,0,0,37.34,79Z"/><path class="cls-15" d="M36.45,74.66l0,.06,0,0s0,0,0-.06Z"/><path class="cls-15" d="M71,99.72l-.14.07c-.3.11-.3.11-.43-.18,0,0,0,0-.14,0h0a.28.28,0,0,1,0,.29h0a.05.05,0,0,0,0,.07h0l0,0c0,.14,0,.19.15.14h0l0,0c.25.07.37-.12.54-.23l.12-.08.07-.06s.06-.1,0-.14S71.07,99.7,71,99.72Z"/><path class="cls-15" d="M71,101a.17.17,0,0,0,.28,0h.21s.22-.09,0-.14h-.28C71,100.76,71,100.84,71,101Z"/><path class="cls-15" d="M71.35,99.93h.26l.07-.06s.07-.07.08-.11-.05,0-.08,0S71.46,99.81,71.35,99.93Z"/><path class="cls-15" d="M71.53,99.53h-.21c0,.06-.07.14,0,.18s.13,0,.18-.08S71.52,99.56,71.53,99.53Z"/><path class="cls-15" d="M67.67,102.28c-.16-.07-.3,0-.46,0a.35.35,0,0,0-.13.08.12.12,0,0,0,0,.14.09.09,0,0,0,.07,0s.11,0,.15-.06h.21c.08-.07.2,0,.29-.06l.42-.08c-.11-.19-.28-.07-.43-.06Z"/><path class="cls-15" d="M70.6,101.17c-.1-.11-.23,0-.35-.06s.07.15.18.11Z"/><path class="cls-15" d="M70.38,105.79c-.2,0-.34.12-.34.34s0,.15.14.12l.14,0a.53.53,0,0,1,.42-.21s0,0,0-.07.22,0,.25-.09-.08-.12-.13-.18h0a.29.29,0,0,1-.22.06h0l-.08.06h0s0,0-.06,0Z"/><path class="cls-15" d="M47.43,84.72c0,.06,0,.13-.07.18l0,0a.58.58,0,0,0,0,.26c0,.13,0,.29.15.36a.14.14,0,0,0,.09,0c0-.12-.12-.23,0-.35a.93.93,0,0,1,.07-.41s0-.09-.07-.11S47.44,84.67,47.43,84.72Z"/><path class="cls-15" d="M56.44,89.79c0-.07.11-.14,0-.21h0a.14.14,0,0,0-.09,0,.57.57,0,0,1-.18,0l-.08,0-.21,0h-.59l.19.13c.14,0,.24,0,.22.2a.12.12,0,0,0,.07.14h.14v-.1l0,0,0,0a.2.2,0,0,1,.09,0c.08,0,0,.07,0,.11s-.09.17,0,.25h.19c.15,0,.34,0,.41-.11S56.43,89.94,56.44,89.79Z"/><path class="cls-15" d="M56.62,87.33a.36.36,0,0,0,0,.09s.07.13.14.08.06-.17,0-.26v-.07h0a.16.16,0,0,1-.06-.08l-.09-.19c-.11.07-.06.18-.06.27S56.6,87.28,56.62,87.33Z"/><path class="cls-15" d="M51.61,89.19c-.13,0,0,.17,0,.25h0l.07.07h0c.09,0,.11,0,.14-.07v-.06C51.69,89.34,51.75,89.14,51.61,89.19Z"/><path class="cls-15" d="M58.66,87.3a.12.12,0,0,0,.1,0l.1-.07,0,0c0-.08,0-.16-.08-.21a1.07,1.07,0,0,0-.29.27A.13.13,0,0,0,58.66,87.3Z"/><path class="cls-15" d="M60.9,92.13c0,.08.06.11.12.14h0l.07-.06h0c0-.06,0-.13-.12-.12A.08.08,0,0,0,60.9,92.13Z"/><path class="cls-15" d="M60.29,92.75c0,.18.11,0,.16,0h0a.17.17,0,0,0-.08-.14h0a.46.46,0,0,1-.07.07S60.3,92.73,60.29,92.75Z"/><path class="cls-15" d="M61.25,91.8c0,.15.07.08.13.06S61.31,91.79,61.25,91.8Z"/><path class="cls-15" d="M60.17,92.9c-.05,0,0,.1-.08.13h0a.16.16,0,0,1-.08.06H60a.12.12,0,0,0-.08.11.06.06,0,0,0,.08,0h.28c0-.08,0-.16.08-.21V93c0-.12-.05-.12-.14-.07Z"/><path class="cls-15" d="M48.86,76l0,0a.06.06,0,0,0-.05,0,.14.14,0,0,0-.15.14.09.09,0,0,0,0,.07s0,0,0,.06l.13,0A.28.28,0,0,0,48.86,76Z"/><path class="cls-15" d="M27.41,82.27a.09.09,0,0,0-.15,0s0,0,0,.06.1,0,.16,0Z"/><path class="cls-15" d="M23.75,96.81c0-.08-.05-.11-.13-.11v.19C23.68,96.89,23.74,96.89,23.75,96.81Z"/><path class="cls-15" d="M26.1,97.17a.51.51,0,0,1,0-.13A.1.1,0,0,0,26,97C26,97.12,26,97.17,26.1,97.17Z"/><polygon class="cls-15" points="25.98 97.04 25.98 97.04 25.98 97.04 25.98 97.04"/><path class="cls-15" d="M46.64,91.79h0a3.78,3.78,0,0,0,.21.56v.06c.22.31.22.31.23.48s.13.33.36.33a.24.24,0,0,0,.19-.17.23.23,0,0,0-.1-.23.07.07,0,0,0-.09,0h0a.18.18,0,0,0,.06-.17l0-.09a.26.26,0,0,0-.29-.21h0v-.1s0,0,0,0,0-.15-.1-.21-.11-.37-.37-.37C46.61,91.67,46.59,91.72,46.64,91.79Z"/><path class="cls-15" d="M42,102.21a.17.17,0,0,1-.15-.06h-.07l-.07.07h0l.07.07H42S42,102.27,42,102.21Z"/><path class="cls-15" d="M40,91.13c0,.31,0,.35,0,.36a.08.08,0,0,0,.07,0A.26.26,0,0,0,40,91.13Z"/><path class="cls-15" d="M25.79,94.72c0,.1-.1.2,0,.31l0,0c.06,0,.12,0,.17,0h0l.08-.07c0-.06.28,0,.06-.19s-.16.08-.21,0S25.81,94.66,25.79,94.72Z"/><path class="cls-15" d="M40.5,101.72a.11.11,0,0,0,.13-.06C40.57,101.66,40.52,101.66,40.5,101.72Z"/><path class="cls-15" d="M44.42,87.94c.07,0,.24,0,.14-.14s-.29,0-.41-.09h-.29v0c-.08,0-.16,0-.24,0a.5.5,0,0,0,.24,0,.14.14,0,0,1,.14.07l.07.06h.06a.24.24,0,0,0,.2,0Z"/><path class="cls-15" d="M45.86,89.72l0,0a.35.35,0,0,1-.12-.19.16.16,0,0,0,0-.09.32.32,0,0,0-.25-.24h0a.18.18,0,0,0-.15.07l.22.41c.07.06,0,.15.08.21h0l.07.06C45.81,90,45.87,89.87,45.86,89.72Z"/><path class="cls-15" d="M42.15,87.92h.05l.07-.07v0l-.06-.08v-.14a.2.2,0,0,0,.21-.06c-.07,0-.13,0-.15-.12l-.08,0,0,0c-.08,0-.15-.11-.24,0h0l.06.26.06,0A.43.43,0,0,0,42.15,87.92Z"/><path class="cls-15" d="M41,79.29h0c0-.07,0-.15-.07-.19A.25.25,0,0,1,40.7,79c-.11.09-.08.18,0,.26v.07h.07v.06a.5.5,0,0,1,.15.26s0,.06.07.09h0c0,.09,0,.21.13.28a.32.32,0,0,0,.15.13.64.64,0,0,1,.08.33c0,.07,0,.16.06.22h0s0,.11.07.16,0,.1,0,.16a.07.07,0,0,0,.07.05.21.21,0,0,1,.29-.1h0a.28.28,0,0,0,0,.09,1.41,1.41,0,0,0,.17.32l.07.11a.25.25,0,0,0,0,.07.38.38,0,0,0,.17.24c.15,0,.22.11.29.21s.16.09.2,0a1,1,0,0,0-.21-.43.56.56,0,0,0-.05-.08c-.14-.14-.18-.33-.3-.48h0L42.22,81c-.07,0-.13-.1-.22-.09s.07-.12,0-.15c-.21-.21-.34-.49-.61-.64h0a.54.54,0,0,0-.08-.35A.88.88,0,0,0,41,79.29Z"/><path class="cls-15" d="M66.6,104.62c0-.16-.1-.14-.21-.13S66.5,104.62,66.6,104.62Z"/><path class="cls-15" d="M47.32,86.59c.08.09.13,0,.18,0v-.14a.11.11,0,0,1,0-.14v-.14c-.11-.06,0-.22-.14-.27C47.14,86.09,47.29,86.34,47.32,86.59Z"/><path class="cls-15" d="M53.37,91.86l.06-.07c0-.23-.17-.11-.27-.07s0,0,0,.07S53.28,91.86,53.37,91.86Z"/><path class="cls-15" d="M57.5,88c.07,0,.07-.06.09-.11s-.09-.14-.15-.21-.18,0-.18.12S57.4,87.93,57.5,88Z"/><path class="cls-15" d="M57,89.52c.05.07.08.16.17,0l0-.09s0-.11-.06-.15h0C57,89.36,57,89.44,57,89.52Z"/><path class="cls-15" d="M57.87,88.13h0s0,0-.08,0-.12,0-.12.09,0,0,0,0,.08,0,.12,0Z"/><path class="cls-15" d="M56.57,88.49c0,.05,0,.05.08.05s.07-.05.07-.1,0-.06-.07,0A.11.11,0,0,0,56.57,88.49Z"/><path class="cls-15" d="M56.8,89.1h0c.05.06.11.1.17,0A.06.06,0,0,0,57,89C56.87,89,56.86,89.09,56.8,89.1Z"/><path class="cls-15" d="M55.88,90.56v.06h0s0,.1.07.13.07.06.12.06,0-.07,0-.12,0-.14-.07-.21h0s0,0-.05,0S55.89,90.53,55.88,90.56Z"/><path class="cls-15" d="M49.66,101.44a.15.15,0,0,0,0-.13.29.29,0,0,0,0-.09,1.4,1.4,0,0,0-.2-.56c-.06,0-.11-.08-.18,0a.16.16,0,0,0,0,.07.12.12,0,0,0,0,.15c.09.34.18.69.3,1C49.7,101.74,49.62,101.58,49.66,101.44Z"/><path class="cls-15" d="M44,103s0,0-.06-.06-.12,0-.13.09,0,.05.08,0S44,103,44,103Z"/><path class="cls-15" d="M35.33,98.74c0-.1-.07-.13-.15-.15s-.1,0-.09.08.09.12.17.13A.06.06,0,0,0,35.33,98.74Z"/><path class="cls-15" d="M45.15,87.51H45v.07a.46.46,0,0,1,.07.07l.22.14a.11.11,0,0,0,0-.14A.27.27,0,0,0,45.15,87.51Z"/><polygon class="cls-15" points="45.29 87.79 45.29 87.79 45.28 87.79 45.29 87.79"/><path class="cls-15" d="M44.21,85.65h0c.15,0,.21,0,.15-.14h0C44.26,85.52,44.21,85.56,44.21,85.65Z"/><path class="cls-15" d="M43.63,84.49c0,.14.15.18.23.26s.13.23.27.3c0-.12-.07-.2-.06-.3a.09.09,0,0,0,0-.13h0c-.17-.06-.16-.25-.29-.34h0a.27.27,0,0,1-.08-.07h0a.47.47,0,0,0-.06-.09s0-.05-.08-.05,0,.27,0,.41Z"/><path class="cls-15" d="M42.85,84.76H43s0,0,0,0-.16-.15-.14-.27l-.08-.07C42.61,84.56,42.83,84.64,42.85,84.76Z"/><path class="cls-15" d="M45.21,87.93l-.21-.1a.13.13,0,0,0-.15,0c0,.06.07.07.09.12S45.18,88.17,45.21,87.93Z"/><path class="cls-15" d="M46.94,90.54l-.07-.07a.09.09,0,1,0,.07.07Z"/><path class="cls-15" d="M47.43,88.61a2.52,2.52,0,0,0,0,.55l.14-.06c0-.07,0-.14,0-.21S47.54,88.68,47.43,88.61Z"/><path class="cls-15" d="M47.58,88.27a.08.08,0,0,1-.07,0c-.12.11,0,.13.06.14S47.63,88.32,47.58,88.27Z"/><path class="cls-15" d="M43,82.72a.08.08,0,0,0,.05-.07c0-.05,0-.08-.09-.1s-.21-.25-.36-.34c0,.16.07.28.14.41l.07.06h0A.17.17,0,0,0,43,82.72Z"/><path class="cls-15" d="M40.27,78.56c.07.11.15.22.22.34.07,0,.08-.09.09-.16s-.07-.27-.22-.34S40.23,78.47,40.27,78.56Z"/><path class="cls-15" d="M52.15,105.11a.13.13,0,0,0-.07-.06l-.24-.07c-.13,0-.26-.12-.39,0s-.14,0-.16,0,.06.07.07.12a1.73,1.73,0,0,0,.5.07C52,105.16,52.07,105.21,52.15,105.11Z"/><path class="cls-15" d="M55.38,105.86c0,.06.08.07.14.08h0s0-.07.07-.07h.13l.08.06h0c.08-.05.06-.13.06-.2l-.28-.08c-.16-.07-.31-.19-.49-.08,0,0,0,0,0,0v0s0,0,0,0h0c-.05,0-.1,0-.13,0s0,.14,0,.21h.14A.28.28,0,0,1,55.38,105.86Z"/><path class="cls-15" d="M56.37,105.8v.13h.21a.14.14,0,0,0,.15,0h0a.67.67,0,0,0,.15-.14h0l.08-.07h0c0-.07,0-.1-.09-.08S56.51,105.66,56.37,105.8Z"/><path class="cls-15" d="M57,106a1.71,1.71,0,0,0,.64.07c0-.08,0-.1-.07-.14h-.21s-.11,0-.15-.06h-.07C57.06,105.93,56.91,105.86,57,106Z"/><path class="cls-15" d="M69.6,100.4l-.07,0a.15.15,0,0,0-.14,0l-.43.2-.07.07c-.11.08-.25,0-.36.06h-.21a.12.12,0,0,0-.14.06h0c-.11,0-.17.14-.29.13l-.08.07h-.07l-.07.07a.14.14,0,0,1-.15.06l-.35.07c-.09.05-.21,0-.28.07h0c-.13.19-.42.09-.55.28a.54.54,0,0,0,.56-.07.41.41,0,0,1,.27-.07h0c.07-.06.15,0,.22,0l.09,0c.1-.05.19-.12.32-.07s.18-.07.23-.16.32-.09.44-.2a.17.17,0,0,0,.15-.06.51.51,0,0,0,.34-.08.11.11,0,0,1,.15,0h.06a.55.55,0,0,1,.38,0,1.17,1.17,0,0,0,.55-.19H70c-.1,0-.1-.13-.13-.21h0a.14.14,0,0,1,0-.06.12.12,0,0,0-.2,0A.24.24,0,0,1,69.6,100.4Z"/><path class="cls-15" d="M56,105.8h0a.18.18,0,0,0,.29,0,.23.23,0,0,0-.07-.07s0,0,0,0a0,0,0,0,0-.05,0h-.07Z"/><path class="cls-15" d="M56.55,101.79s0,.07.07.08h.11v-.06l-.06,0S56.57,101.73,56.55,101.79Z"/><path class="cls-15" d="M58,106c-.06,0-.11-.06-.16,0v.07H58c.07,0,.16,0,.21-.06Z"/><path class="cls-15" d="M41.63,80.14c.08.08.12.21.27.24,0-.17-.07-.27-.12-.38h-.06C41.65,80,41.64,80.08,41.63,80.14Z"/><path class="cls-15" d="M50.09,91.3h0a0,0,0,0,0,0,0s0,0,0,0,.05,0,.07,0,.25,0,.35-.06l-.14-.13C50.11,91.08,50.11,91.08,50.09,91.3Z"/><path class="cls-15" d="M52,91.26s.08,0,.12,0v-.1c0-.06,0-.14-.09-.12S52,91.2,52,91.26Z"/><path class="cls-15" d="M57.16,89.93l.14.07s0,0,0-.06a.5.5,0,0,0-.09-.21C57,89.74,57.18,89.86,57.16,89.93Z"/><path class="cls-15" d="M59.37,93.16a.61.61,0,0,0,.46-.07.35.35,0,0,1-.31-.13h-.07C59.43,93,59.34,93.06,59.37,93.16Z"/><polygon class="cls-15" points="58.84 90.81 58.85 90.79 58.83 90.79 58.84 90.81"/><path class="cls-15" d="M67.32,97.44c-.06,0-.09.07-.07.13s.09,0,.14,0S67.43,97.43,67.32,97.44Z"/><path class="cls-15" d="M44.22,105v.06c.15.14.14.34.21.5a.35.35,0,0,0,.14.2c.1-.08.06-.19.08-.29a1.83,1.83,0,0,1-.07-.53c0-.11-.1-.19-.15-.28h-.07C44.36,104.83,44.37,105,44.22,105Z"/><path class="cls-15" d="M47.64,95.6h-.11c-.05,0-.13,0-.14.06s.06.06.1.08l.09,0C47.66,95.74,47.65,95.67,47.64,95.6Z"/><path class="cls-15" d="M45.49,103.46l-.27-.08C45.29,103.54,45.33,103.55,45.49,103.46Z"/><path class="cls-15" d="M48.51,101.76c-.12,0-.14.08-.15.17H48.3s0,0,0,.06,0,.25,0,.37.12-.08.18-.09a.45.45,0,0,0,.08-.27l0-.09C48.57,101.86,48.6,101.77,48.51,101.76Z"/><path class="cls-15" d="M47.93,92.69c-.09-.06-.06-.16-.08-.24s-.1-.1-.16,0a.33.33,0,0,0,0,.13,1.56,1.56,0,0,1,.14.48l.15-.13A1.48,1.48,0,0,1,47.93,92.69Z"/><path class="cls-15" d="M48.39,96.75h0a.46.46,0,0,1,.07.26,2,2,0,0,0,.13.58h0c.13.44.15.91.24,1.36.12.1,0,.27.13.36h0c0,.26.18.48.15.74l.07,0s0,0,0,.06a.11.11,0,0,0,.06-.13s0,0,0-.06a.31.31,0,0,0,0-.08V99.7a.29.29,0,0,0,0-.09,1.26,1.26,0,0,1-.1-.38.22.22,0,0,0,0-.08l0,0v0a.46.46,0,0,0,0-.2c0-.1,0-.2-.08-.3a4.11,4.11,0,0,0-.12-.61.6.6,0,0,1-.09-.34v-.09a.18.18,0,0,0-.05-.12h-.07a.16.16,0,0,0,0-.15,1.54,1.54,0,0,1,0-.43c0-.11,0-.23-.15-.25l0,0c-.07,0,0-.14-.12-.15A.42.42,0,0,0,48.39,96.75Z"/><path class="cls-15" d="M47.56,91.65s.06,0,.09.07a.15.15,0,0,0,.15-.06c.05-.06.1-.11.09-.19a.16.16,0,0,0,0-.09.87.87,0,0,0-.11-.18l0,0c-.15.11,0,.31-.14.42h0A0,0,0,0,0,47.56,91.65Z"/><path class="cls-15" d="M47.28,91.86v.06s0,.11.06.11.09-.06.09-.11v-.13h-.07A.1.1,0,0,0,47.28,91.86Z"/><path class="cls-15" d="M47.58,89.58a.13.13,0,0,0,0-.06c-.13.15,0,.31,0,.48A1.21,1.21,0,0,0,47.58,89.58Z"/><path class="cls-15" d="M48,88.34c-.07,0,0,.09,0,.14s.16,0,.16-.06S48.07,88.35,48,88.34Z"/><path class="cls-15" d="M50.57,104.91h0c.06,0,0,.1.09.12h0c.14-.06.21-.14.06-.26h0l-.08-.05a.16.16,0,0,0-.13.06Z"/><path class="cls-15" d="M50.94,94.35h0c0,.05-.18,0-.13.11s.17.06.27,0h0A.12.12,0,0,0,50.94,94.35Z"/><path class="cls-15" d="M52.17,93.86s0-.1,0-.14v-.06c-.13,0-.19.09-.28.13h0c0,.07,0,.13,0,.17a.1.1,0,0,0,.1,0h0A.31.31,0,0,0,52.17,93.86Z"/><path class="cls-15" d="M57.24,90.2a.86.86,0,0,0,.1.16l.09-.16C57.37,90.11,57.3,90.11,57.24,90.2Z"/><path class="cls-15" d="M57.79,91.66c-.1-.1,0-.23-.06-.35a.13.13,0,0,1,0-.06h0s0-.08,0-.12a.86.86,0,0,1-.1-.16h0l-.08.08a.18.18,0,0,0,0,.2s0,0,0,.06,0,.11.07.15v.13a4.05,4.05,0,0,1,.21.9v0a.38.38,0,0,0,.05.21l0,0c.08,0,.16,0,.12-.12a.27.27,0,0,1,.09-.36.22.22,0,0,0,.06-.19C57.84,92,57.84,92,57.79,91.66Z"/><path class="cls-15" d="M48.36,90.89v-.06a.14.14,0,0,0,0-.15c0-.06-.1-.16-.15,0s0,.11-.07.15v.06s0,0,0,.07V91C48.32,91.13,48.3,91,48.36,90.89Z"/><path class="cls-15" d="M58.1,95.45a.17.17,0,0,0-.24,0c0,.1,0,.16.09.24S58.09,95.55,58.1,95.45Z"/><path class="cls-15" d="M56.58,96.77s0,.1.08.1.07-.05.06-.1a.09.09,0,0,0-.07-.09C56.58,96.68,56.58,96.73,56.58,96.77Z"/><path class="cls-15" d="M52.18,94.26a.15.15,0,0,0-.13,0,.24.24,0,0,0-.06.08c0,.05,0,0,.08,0s.16,0,.15.13-.08.13,0,.22a.88.88,0,0,0,.31-.39s0-.1,0-.15,0-.11-.1-.12S52.36,94.31,52.18,94.26Z"/><path class="cls-15" d="M52,95.72s0,0,0-.06a.16.16,0,0,1,.07-.07h0l.13-.13c-.06-.07-.14,0-.21,0s-.21.37-.39.51l.12.06.2-.15S52,95.76,52,95.72Z"/><path class="cls-15" d="M51.15,100.55c-.09-.1-.19,0-.29,0C51,100.74,51.06,100.74,51.15,100.55Z"/><path class="cls-15" d="M53.65,100.11v0a.1.1,0,0,0-.14,0h0c0,.11-.16.23,0,.34v-.06l.06-.08a.14.14,0,0,1,.06-.13Z"/><path class="cls-15" d="M48.17,91.4h0s0,0,0,0,0,0,0,0Z"/></g></g></svg>