<svg xmlns="http://www.w3.org/2000/svg" xmlns:xlink="http://www.w3.org/1999/xlink" viewBox="0 0 106 106"><defs><style>.cls-1,.cls-9{fill:none;}.cls-2{clip-path:url(#clip-path);}.cls-3,.cls-6{fill:#62bfb3;}.cls-3{fill-rule:evenodd;}.cls-4{fill:#fff;}.cls-4,.cls-5{stroke:#1d1d1b;stroke-width:0.75px;}.cls-4,.cls-5,.cls-9{stroke-miterlimit:10;}.cls-5,.cls-7{fill:#1d1d1b;}.cls-8{clip-path:url(#clip-path-2);}.cls-9{stroke:#000;stroke-width:0.5px;}</style><clipPath id="clip-path"><rect class="cls-1" x="0.06" y="109.85" width="106.08" height="27.76" rx="4.5"/></clipPath><clipPath id="clip-path-2"><circle class="cls-1" cx="56.34" cy="41.97" r="15.66"/></clipPath></defs><title>webIcons</title><g id="BUTTONS-3" data-name="BUTTONS"><g class="cls-2"><path class="cls-3" d="M0,69.38s.05-.1,0-.16a.16.16,0,0,0-.19,0,1,1,0,0,1-.51.1,1.48,1.48,0,0,1,.83-.18l0,.08s0-.05,0-.09A.39.39,0,0,1,.41,69a5.15,5.15,0,0,1,1.7-.2c.11.06.22,0,.33,0a.07.07,0,0,0,.06-.08.27.27,0,0,0-.09-.12.78.78,0,0,0-.37,0c-.08,0-.06,0-.05-.07l.06,0,.14,0,.08,0h0l-.08,0h.07s0,0,0-.06h.21c.28,0,.58,0,.78-.27h.07c.09,0,.23,0,.21-.15s-.12-.08-.21-.05a5.79,5.79,0,0,0-.71.21c-.11.09-.25,0-.36.07h0v.13H2.05a.25.25,0,0,0-.24.07H1.76c-.13,0-.27,0-.36.15a.17.17,0,0,0,0,.05.44.44,0,0,0-.2,0l-.07,0c-.1-.06-.23,0-.32-.15s-.29-.08-.44,0-.11.12,0,.2-.06.15-.12.21l-.2.08,0,0h0L-.17,69h0a4.24,4.24,0,0,0-1,.21v.21c.16.23.4.22.64.2h.14A.28.28,0,0,0,0,69.38Z"/><path class="cls-3" d="M105.61,81.1a.1.1,0,0,0,0,.15c.09,0,.15,0,.2-.08l.29-.42v-.13C105.87,80.71,105.82,81,105.61,81.1Z"/><path class="cls-3" d="M43.32,30.87c.08.05.17.1.22,0s.09-.21.13-.31h-.36C43.42,30.64,43.32,30.75,43.32,30.87Z"/><path class="cls-3" d="M86.41,37.07c.09-.09.19-.16.1-.29a.11.11,0,0,0-.16,0C86.27,36.87,86.3,37,86.41,37.07Z"/><path class="cls-3" d="M97.11,58.58l-.08.1c.06.11.12.22.28.13l0-.05a.29.29,0,0,1,0-.09c0-.05,0-.11,0-.14A.13.13,0,0,0,97.11,58.58Z"/><path class="cls-3" d="M49.74,39.64h0c-.09-.13,0-.34-.21-.42l-.07-.07c-.09,0-.24,0-.17.12a1,1,0,0,0,.37.45C49.73,39.75,49.74,39.68,49.74,39.64Z"/><path class="cls-3" d="M104.1,82.75h0a.13.13,0,0,1-.07.06.79.79,0,0,0-.3.35l0,0a.09.09,0,0,0-.07.06h0l-.06.06a1.23,1.23,0,0,1-.51.42,1.9,1.9,0,0,0-.44.54l-.36.34s0,.06-.06.09h0c-.06,0-.05.1,0,.15h0l.09,0,0,0,.08-.05.08,0c.14-.12.27-.26.4-.38a5.07,5.07,0,0,1,.55-.49c.08-.1.17-.18.25-.27a.35.35,0,0,0,.07-.12.65.65,0,0,0,0-.2c.1,0,.16,0,.23-.09l.1-.1c.14-.12.21-.31.36-.43h0a.24.24,0,0,1,.12-.23.63.63,0,0,0,.25-.31c0-.07,0-.1-.09-.08l-.2.15C104.46,82.36,104.2,82.49,104.1,82.75Z"/><path class="cls-3" d="M49.11,32.18s-.13-.08-.11,0a1.6,1.6,0,0,0,.1.31c.1.06.12.2.27.2a0,0,0,0,1,0,0C49.29,32.52,49.32,32.29,49.11,32.18Z"/><path class="cls-3" d="M105.62,92.76h.06c-.05-.08-.13-.06-.21,0S105.56,92.75,105.62,92.76Z"/><path class="cls-3" d="M2.19,73.78h.07c.08-.05.23-.06.09-.21a.45.45,0,0,1,0-.08v-.06h0a.12.12,0,0,0-.09,0c-.06,0-.13,0-.19,0h0c-.06,0,0,.12,0,.19v0a.59.59,0,0,1-.36-.09c-.12-.07-.29.08-.44,0l0,0H1.12L1,73.61c.05,0,.14,0,.17.11s.23.08.36.07h.13c.15-.11.33-.06.49-.06S2.16,73.76,2.19,73.78Z"/><path class="cls-3" d="M104.49,66.4c.05.1.16.11.26.14a.48.48,0,0,1,.22.2.34.34,0,0,0,.31.18l0,0v-.34c-.12,0-.26,0-.34-.11s-.23-.13-.35-.18S104.43,66.27,104.49,66.4Z"/><polygon class="cls-3" points="105.33 66.89 105.33 66.89 105.32 66.89 105.33 66.89"/><path class="cls-3" d="M105.47,67.09l.07.07s.09.07.19,0c-.14-.11-.17-.33-.4-.3C105.28,67,105.41,67,105.47,67.09Z"/><path class="cls-3" d="M105.23,72a.14.14,0,0,0,0,.09,1,1,0,0,1,0,.3s0,.06,0,.09.26.3-.09.3c0,0,0,0,0-.06a.07.07,0,0,0-.06-.07h0v-.07a.4.4,0,0,1-.09-.2c-.08-.07-.07-.19-.14-.28a.13.13,0,0,0-.14.14.33.33,0,0,0,0,.22.33.33,0,0,1,0,.22s0,0,0,.08-.19.24,0,.31c.08-.07.15-.16.27-.14h0c0,.13.06.25.22.26l0,0a.49.49,0,0,0,.09.33,1.48,1.48,0,0,1,.2.59h0l0-.07a.24.24,0,0,0-.09-.08.11.11,0,0,0-.08,0,.16.16,0,0,0,0,.11.24.24,0,0,0,0,.08l0,.07s0,.08,0,.11l.06.11.09.16c0,.07.08.2.21.14l.12.1c-.09,0-.17,0-.22.1a.17.17,0,0,0,0,.07c.08,0,.16.1.27.08s0-.15,0-.22h0a.33.33,0,0,1,.21.07v-.42h-.06c0-.07,0-.15-.09-.2h0c0-.14-.09-.28-.13-.42s0-.22-.14-.28,0,0,0-.06a.06.06,0,0,1,0-.08v0a.24.24,0,0,1-.08-.22.53.53,0,0,1,0-.13c0-.11-.12-.22,0-.29s0-.23,0-.35-.08-.21-.06-.33a1.72,1.72,0,0,1-.07-.21C105.36,71.78,105.29,71.85,105.23,72Z"/><path class="cls-3" d="M105.77,73.07l.06.09c.06,0,.06-.08.07-.14s-.06-.11-.12-.08S105.75,73,105.77,73.07Z"/><polygon class="cls-3" points="105.9 74.89 105.9 74.89 105.9 74.89 105.9 74.89"/><path class="cls-3" d="M106,70.8s0,0,0,0,0,0,0,0h0S105.93,70.8,106,70.8Z"/><path class="cls-3" d="M82.1,39.18a.47.47,0,0,1-.47,0l-.09,0-.18,0h0l0,0s-.09.08,0,.15h0c.16.08.34.12.5.21l.07.07c.15,0,.34-.06.43.13.1,0,.21,0,.3,0s.2,0,.28-.09,0-.16-.07-.23h-.07c-.13-.09-.3-.11-.42-.22A.22.22,0,0,0,82.1,39.18Z"/><path class="cls-3" d="M82.36,39.09c0,.13.1.15.2.17a.18.18,0,0,0,.1,0s.15,0,.06-.14,0,0-.07-.07h0C82.55,39,82.43,39,82.36,39.09Z"/><path class="cls-3" d="M6.77,53a.59.59,0,0,0-.08-.43c-.06,0-.13-.06-.14.06a1.18,1.18,0,0,0,.08.49C6.71,53.08,6.76,53.05,6.77,53Z"/><path class="cls-3" d="M6.7,50.26c-.14-.07,0-.24-.15-.38v.52c0,.11.08.09.15.07Z"/><path class="cls-3" d="M11.87,44.16a.78.78,0,0,0,0-.22c-.05-.12-.05-.26-.16-.37a.12.12,0,0,0-.09,0c-.06,0-.07.06-.1.1h0l.21.83C11.9,44.44,11.84,44.28,11.87,44.16Z"/><path class="cls-3" d="M12.07,45.62a.4.4,0,0,0-.08-.47l-.15-.07a1.48,1.48,0,0,0,.09.69.21.21,0,0,1,.07.13C12.1,45.83,12,45.71,12.07,45.62Z"/><path class="cls-3" d="M12.63,51.71h0c-.24,0-.24,0-.15.21l.08.06h0C12.75,51.93,12.67,51.81,12.63,51.71Z"/><path class="cls-3" d="M10.56,31.27v.56c.1-.07.06-.18.07-.27s0-.2.07-.27a.18.18,0,0,0,0-.21C10.57,31.09,10.56,31.17,10.56,31.27Z"/><path class="cls-3" d="M20.21,33.43a2.26,2.26,0,0,1,0,.26l.07.07a.23.23,0,0,0,.14-.13h0s-.05-.05-.08-.06h0a.08.08,0,0,1,0-.13c.07,0,.07-.1,0-.14S20.21,33.33,20.21,33.43Z"/><path class="cls-3" d="M18.71,32.45s0,0,0-.06h0l-.05,0s0,.09,0,.11S18.7,32.48,18.71,32.45Z"/><path class="cls-3" d="M14.86,34.31c0,.07,0,.13.09.12a.12.12,0,0,0,.11-.14c0-.07,0-.14-.12-.13S14.86,34.25,14.86,34.31Z"/><path class="cls-3" d="M102.68,63.51v.06a.61.61,0,0,1,.21.35c.1,0,.14-.05.14-.13h0a.1.1,0,0,1,0-.14.35.35,0,0,0-.07-.2s-.1,0-.14-.07a.08.08,0,0,0-.08,0S102.72,63.47,102.68,63.51Z"/><path class="cls-3" d="M103.18,64.4a.17.17,0,0,0,.15-.07s0,0,0-.06a.49.49,0,0,1-.13-.15h0C103.05,64.21,103.14,64.31,103.18,64.4Z"/><path class="cls-3" d="M98.24,61V61c-.18-.17-.19-.17-.29,0v0A.12.12,0,0,0,98,61l.06,0,.07,0h0Z"/><path class="cls-3" d="M96.89,59.85c0,.06,0,.08.06.08l.23.24s.09.09.15.06,0-.12.06-.18a3.31,3.31,0,0,0-.5-.41C96.8,59.71,96.91,59.78,96.89,59.85Z"/><path class="cls-3" d="M101.68,60.47a.18.18,0,0,1,0,.1h0a.09.09,0,0,0-.08,0c-.15,0-.11-.2-.25-.18s.07.29,0,.45v0l0,.12a.25.25,0,0,0,0,.07.23.23,0,0,0,.11.13c.31,0,0-.27.2-.33s.08.08.12.12l0,0,.08.06a.15.15,0,0,0,.17,0,.08.08,0,0,0,0-.08,0,0,0,0,1,0-.06l0-.07a.17.17,0,0,0,0-.15.43.43,0,0,0,0-.05l0-.07a.21.21,0,0,0-.1-.09c.06-.05.11-.1.07-.19h0a.27.27,0,0,0-.07-.08h0C101.8,60.25,101.69,60.29,101.68,60.47Z"/><path class="cls-3" d="M100.54,104.9l-.12.07c-.14.09-.13.11,0,.21a.57.57,0,0,1,.28-.08c.21-.11.08-.22,0-.33h-.06A.86.86,0,0,1,100.54,104.9Z"/><path class="cls-3" d="M4.05,69.31v.13a.15.15,0,0,0,.21,0h0C4.25,69.3,4.16,69.29,4.05,69.31Z"/><path class="cls-3" d="M11.92,73l0,0a.13.13,0,0,0,.17,0c0-.06,0-.09-.07-.12h0c-.07,0-.16,0-.21,0S11.9,73,11.92,73Z"/><path class="cls-3" d="M10.77,72.43l0,0s0,.07,0,.07a.07.07,0,0,0,.06,0S10.81,72.44,10.77,72.43Z"/><path class="cls-3" d="M9.48,67.71s.12,0,.07-.14c-.25-.1-.34-.06-.35.14h.28Z"/><path class="cls-3" d="M3.34,73.57A2,2,0,0,0,4,73.51a.69.69,0,0,1,.51,0c.06,0,.14,0,.21,0a2.75,2.75,0,0,1,.81.06.22.22,0,0,0,.26-.06H6a.13.13,0,0,1,0-.06h.5c.12,0,.08-.08.06-.14a1.54,1.54,0,0,1-.37,0,.8.8,0,0,0-.57,0H5.48l-.15,0H5.2c0-.09,0-.18-.15-.07a1.52,1.52,0,0,1-.2.06c-.17,0-.28,0-.3-.19-.07,0-.14-.26-.21,0,.08.14.1.24-.12.25a1,1,0,0,0-.17,0c-.24-.08-.48,0-.72,0A.17.17,0,0,0,3.34,73.57Z"/><path class="cls-3" d="M54.32,39.57a.35.35,0,0,0,0-.08l-.07-.06c-.13,0-.15,0-.08.13h0c.06.09,0,.19,0,.29s-.09.35.06.51.15.1.24,0a.43.43,0,0,1,0,0c-.05-.12,0-.25-.05-.36a.17.17,0,0,1,0-.07c-.09-.1,0-.24-.08-.34Z"/><path class="cls-3" d="M50.17,34.81c-.11,0-.2-.12-.34-.09a.46.46,0,0,0,.07.36,1.23,1.23,0,0,1,0,.47c0,.07,0,.15.08.17s.15-.07.17-.14A1.55,1.55,0,0,0,50.17,34.81Z"/><path class="cls-3" d="M79.21,34.32c0,.06-.09.11,0,.18a.09.09,0,0,0,.15,0c0-.05.1-.12.06-.18s-.12,0-.18,0Z"/><path class="cls-3" d="M80,37.7h.06c.15,0,.33.06.42-.13h0l-.07,0a.11.11,0,0,1-.07,0h0A.31.31,0,0,0,80,37.7Z"/><path class="cls-3" d="M81.94,39c.07,0,.16,0,.22,0l-.08-.1C82,38.89,81.85,38.83,81.94,39Z"/><path class="cls-3" d="M5.83,104.93c0-.12-.13,0-.2,0v.26A.18.18,0,0,0,5.83,104.93Z"/><path class="cls-3" d="M5.71,101.85l0-.07-.14-.08s0,0-.08,0h0a.14.14,0,0,0-.06.13l.07.08.07.06a.17.17,0,0,0,.21,0A.1.1,0,0,0,5.71,101.85Z"/><path class="cls-3" d="M3.11,100.49h0a.15.15,0,0,0-.21,0h0v.12h0s.05,0,.08.06S3.21,100.64,3.11,100.49Z"/><path class="cls-3" d="M0,86.48c.09,0,.15,0,.13-.13S0,86.33,0,86.48Z"/><path class="cls-3" d="M100,94c.1,0,.2,0,.2-.13H100Z"/><path class="cls-3" d="M100,93.3H100a.31.31,0,0,0-.12.43c.17,0,.17-.22.32-.23a.07.07,0,0,0,0-.06c.1-.08.14-.18,0-.25S100.05,93.21,100,93.3Z"/><path class="cls-3" d="M102.51,68a.13.13,0,0,0,0,.08l.1.08c.06,0,.09.12.18.1H103a.68.68,0,0,1-.08-.34l0,0c-.1-.11-.2-.08-.28,0A.36.36,0,0,0,102.51,68Z"/><path class="cls-3" d="M104.25,68.12c.08,0,.14.08.22,0s.23,0,.25.14.11,0,.16,0l.08-.07a.17.17,0,0,1,.14-.07,2.09,2.09,0,0,0,0-.25l-.12,0c-.22-.13-.39,0-.58.07S104.13,68,104.25,68.12Z"/><path class="cls-3" d="M103.47,67.71h0s.07,0,.12,0,0-.12.09-.16h0s0-.09,0-.14h-.2A.2.2,0,0,0,103.47,67.71Z"/><path class="cls-3" d="M54.4,32.31a1.34,1.34,0,0,1,0-.2v-.06c0-.12,0-.23,0-.35A.63.63,0,0,0,54.4,32.31Z"/><path class="cls-3" d="M105.4,74.74c.14,0,.09-.06.07-.13S105.36,74.67,105.4,74.74Z"/><path class="cls-3" d="M95.07,48.53c.13.1.17-.07.25-.11l.05,0c.11-.16,0-.17-.12-.18a.2.2,0,0,1-.15.06C95.05,48.35,95,48.45,95.07,48.53Z"/><path class="cls-3" d="M102.67,64.27h-.06c-.09,0-.07.14-.08.21s0,.23,0,.34.1.18.12.28a.12.12,0,0,0,.08,0c.14,0,.23-.09.15-.24h0a.15.15,0,0,1,0-.21l.06-.07c0-.08,0-.16-.07-.21S102.74,64.33,102.67,64.27Z"/><path class="cls-3" d="M101.6,63.74c-.07-.06-.18-.14-.22,0l.22.28c.13,0,.29.08.29-.14h0A1.08,1.08,0,0,1,101.6,63.74Z"/><path class="cls-3" d="M101.61,64.4a.15.15,0,0,0,0,.07c.07,0-.06.22.13.21h0v-.23C101.74,64.34,101.67,64.38,101.61,64.4Z"/><path class="cls-3" d="M100.32,62.81c.17.09.14,0,.14-.12S100.31,62.71,100.32,62.81Z"/><path class="cls-3" d="M98.39,61.37c0,.18.17,0,.22.13a.11.11,0,0,0,0-.13.2.2,0,0,0-.27,0Z"/><path class="cls-3" d="M95.32,58.25l.11.1a.05.05,0,0,1,0,0h0s0,0-.06,0,.06.24.19.32l.15.07,0,.06s0,.09.09.14a1.19,1.19,0,0,0,.22.23l.16.16.07,0,.08,0c.15,0,.17,0,.11-.16s-.1-.12-.15-.18a.53.53,0,0,1-.14-.28.31.31,0,0,1-.22-.15.73.73,0,0,0-.28-.27l-.16-.13a.41.41,0,0,0-.19-.22C95.3,58.09,95.31,58.17,95.32,58.25Z"/><path class="cls-3" d="M104.05,66h0l.07.08.07.07s.06.11.14.07l.07-.07c0-.09-.14-.16-.15-.27l-.07-.07A.18.18,0,0,0,104.05,66Z"/><path class="cls-3" d="M103.85,65.77a.29.29,0,0,0-.17-.37C103.69,65.54,103.68,65.68,103.85,65.77Z"/><path class="cls-3" d="M.7,73.62s0,0-.08,0-.05,0-.07,0a.17.17,0,0,0,.1,0Z"/><path class="cls-3" d="M5.48,68.61a1,1,0,0,0-.8.2,2,2,0,0,0,.8-.13S5.51,68.64,5.48,68.61Z"/><path class="cls-3" d="M7.47,73.23l-.06-.06a.15.15,0,0,0-.15.06v.13a.39.39,0,0,0,.21-.06S7.47,73.26,7.47,73.23Z"/><path class="cls-3" d="M9.87,73.1c.18.07.2-.09.32-.17a.61.61,0,0,0-.34,0h0C9.86,73,9.75,73.05,9.87,73.1Z"/><path class="cls-3" d="M11.08,73a.11.11,0,0,0-.13.09s0,.08.09.07a.12.12,0,0,0,.13-.09S11.12,73,11.08,73Z"/><path class="cls-3" d="M10.25,67.27a.12.12,0,0,0-.13,0,1,1,0,0,0-.35.14l.09.08.31,0A.11.11,0,0,0,10.25,67.27Z"/><path class="cls-3" d="M11.74,67.36l.32,0,.14-.15c0-.19-.17,0-.22-.13h-.05C11.94,67.22,11.86,67.28,11.74,67.36Z"/><path class="cls-3" d="M4.2,83.17s0-.08,0-.09a.25.25,0,0,0-.37.08h0a.47.47,0,0,0,.35,0Z"/><path class="cls-3" d="M7.48,77.85c0,.2-.27.28-.29.49l-.06.07s0,0,0,.06.14-.06.22-.06.17-.13.24-.22l.07-.11a.08.08,0,0,0,0-.08c0-.08.12-.18,0-.24S7.55,77.83,7.48,77.85Z"/><path class="cls-3" d="M8.41,76.48h0a.1.1,0,0,1-.14,0H8.2c0,.14.05.29-.07.42a.46.46,0,0,0-.07.07c-.06.08,0,.13.07.13h0l.05,0,0,0,.05,0,0,0,0,0,.05-.06s.11-.09.07-.17v-.2s0,0,0,0A.06.06,0,0,0,8.41,76.48Z"/><polygon class="cls-3" points="8.48 76.47 8.48 76.48 8.48 76.48 8.48 76.47"/><path class="cls-3" d="M78.22,38.26l-.11.06c-.08.09-.08.16,0,.2s.38.06.61,0c-.17,0-.29-.07-.26-.23h0a.15.15,0,0,0-.13,0,.12.12,0,0,0-.08,0Z"/><path class="cls-3" d="M77.31,36.61c0,.08,0,.11.1.12s.15,0,.15-.1,0-.1-.14-.1A.1.1,0,0,0,77.31,36.61Z"/><path class="cls-3" d="M79.29,37.67v0l-.14-.08h-.06c0,.11,0,.22.14.2l.07-.07Z"/><path class="cls-3" d="M4,105.89c-.06-.1-.15-.13-.25,0h0a.23.23,0,0,1,.07.07.23.23,0,0,0,.07.07C4,106,4.06,106,4,105.89Z"/><path class="cls-3" d="M99.33,80.32l0,0c.06,0,.14,0,.12-.09a.11.11,0,0,0-.14-.08C99.29,80.19,99.32,80.27,99.33,80.32Z"/><path class="cls-3" d="M95.94,84.88a.57.57,0,0,1-.13.08.56.56,0,0,0-.36.07c0,.19,0,.19.22.14l.14-.08.43-.13s.11,0,.14-.07h0C96.24,84.76,96.09,84.84,95.94,84.88Z"/><path class="cls-3" d="M101.25,85.59c.06.17.17.1.28.06l0-.2-.09-.08-.06,0C101.39,85.48,101.29,85.51,101.25,85.59Z"/><path class="cls-3" d="M99.6,87.06a.42.42,0,0,1-.28.18c-.08.18-.33.12-.43.28a1.21,1.21,0,0,0-.43.47l-.79.63a.09.09,0,0,0,0,.16c.17,0,.26-.09.36-.19a1.78,1.78,0,0,1,.6-.41,2.16,2.16,0,0,0,.25-.27c.07-.09.2-.14.27-.23a.32.32,0,0,1,.1-.1.86.86,0,0,0,.38-.35,1,1,0,0,0,.36-.41c0-.06,0-.09-.08-.07A1.28,1.28,0,0,0,99.6,87.06Z"/><path class="cls-3" d="M99.05,91.46c0,.06,0,.13-.09.16a.13.13,0,0,0-.12.12.24.24,0,0,0,0,.08.75.75,0,0,0,0,.16l0,.08,0,.08c.08.12.1.28.27.34a.17.17,0,0,0,.08-.14c0-.18-.16-.36,0-.55a.41.41,0,0,1-.07-.28s0,0,0-.06h0C99.17,91.35,99.11,91.33,99.05,91.46Z"/><path class="cls-3" d="M99.39,90.2v-.13C99.31,90.11,99.31,90.16,99.39,90.2Z"/><path class="cls-3" d="M99.6,94.07h0a.16.16,0,0,0-.24,0C99.45,94.09,99.53,94.05,99.6,94.07Z"/><path class="cls-3" d="M102.89,65.51H103c0-.06,0-.14,0-.15s.1,0,.14.09l0,0c.12,0,.12-.11.2-.14v-.07l-.05-.05c-.14-.09-.28-.18-.43,0A.3.3,0,0,0,102.89,65.51Z"/><path class="cls-3" d="M103.9,66.82H104l.08-.06c.06,0,.07-.1,0-.14s-.14,0-.2,0S103.76,66.8,103.9,66.82Z"/><path class="cls-3" d="M103.5,66.15s0,0,.06,0,0-.16,0-.24A.15.15,0,0,0,103.5,66.15Z"/><path class="cls-3" d="M103.74,69.17a.83.83,0,0,0,.36.48c.08,0,.15.21.22,0-.16-.27-.2-.6-.43-.83-.12-.08-.23,0-.35,0C103.49,69,103.66,69.06,103.74,69.17Z"/><path class="cls-3" d="M68.12,34.51a.63.63,0,0,0-.11.12l0,0c-.07.09-.16,0-.24,0s-.2,0-.24.1l.06.07a.18.18,0,0,0,.2,0,.19.19,0,0,1,.22.06.19.19,0,0,0,.27,0h0c0,.16.19.11.3.12s.21,0,.29.06-.1.1-.1.17a.08.08,0,0,0,0,.07c.06,0,.14,0,.2,0h0c.21.1.17-.16.29-.2v.06l.07-.07h0c.16-.08.29.13.44,0l0,0a.23.23,0,0,0,.21.05h.59c-.14-.19-.35-.07-.47-.2h0c-.08-.1-.2-.06-.3-.07s-.18-.1-.22-.2-.08,0-.11,0l0,.08c0,.07-.09,0-.15,0l-.09,0a1.27,1.27,0,0,1-.28-.06c-.18,0-.34-.15-.54-.11a0,0,0,0,0,0-.05c-.09-.06-.11-.18-.22-.23Z"/><path class="cls-3" d="M9.77,66.26h0c-.07-.08-.28-.13-.06-.28h0a.11.11,0,0,1-.06-.07s0,0,0-.06a.43.43,0,0,0-.26-.1.16.16,0,0,0-.09,0,.12.12,0,0,0-.14.13c.15,0,.3.07.29.28s.07.12.13.15S9.72,66.34,9.77,66.26Z"/><path class="cls-3" d="M104.31,71.38c.1,0,.08-.14.08-.22a.12.12,0,0,0-.14.14Z"/><path class="cls-3" d="M104.39,70.82a.13.13,0,0,0,.07-.14s-.08-.05-.11,0S104.34,70.78,104.39,70.82Z"/><path class="cls-3" d="M104.5,71.22l.18.29h0a.07.07,0,0,0,0-.08V71.3c-.07,0,0-.15-.08-.2h-.06C104.54,71.11,104.45,71.12,104.5,71.22Z"/><path class="cls-3" d="M105.19,73.77c.1,0,.13,0,.13-.12l-.07-.11s0-.07-.07-.07-.06.06-.06.1S105.18,73.7,105.19,73.77Z"/><path class="cls-3" d="M95.32,50h.06c.2.05.15-.14.21-.21v-.05C95.32,49.71,95.32,49.71,95.32,50Z"/><path class="cls-3" d="M17.35,49.84h0c-.13,0-.13.06-.08.14h0s0,.11.06.15l.24.47a.14.14,0,0,1,.06.14l.14.07s0,.08,0,.13.06-.09,0-.13V50.6a5.24,5.24,0,0,1-.28-.69S17.39,49.89,17.35,49.84Z"/><path class="cls-3" d="M32.1,48c0,.06,0,.07.11.07a.07.07,0,0,0,.06-.07.09.09,0,0,0-.08-.09S32.1,47.92,32.1,48Z"/><path class="cls-3" d="M45.87,36.88l-.06-.14c-.17-.09-.15.07-.21.13s-.13.17,0,.18S45.87,37.05,45.87,36.88Z"/><path class="cls-3" d="M100.17,65a.15.15,0,0,0,.07-.14h0l-.06-.08-.07-.13c-.12-.18-.34-.12-.5-.2s-.07.07-.07.13.3.1.42.21h0a.1.1,0,0,0,.06.09h0a.08.08,0,0,0,0,0c0,.05.1,0,.13.08Z"/><path class="cls-3" d="M99.93,65.13s.06,0,.07-.06,0-.09-.08-.1-.1,0-.09.07S99.88,65.12,99.93,65.13Z"/><path class="cls-3" d="M99.24,64.27a.38.38,0,0,0,.1,0,.08.08,0,0,0,0-.09s-.06-.06-.08,0,0,.06,0,.09Z"/><path class="cls-3" d="M92.63,100.93c0,.06.05.09.1.09a0,0,0,0,0,.06,0,.08.08,0,0,0-.1-.1S92.65,100.92,92.63,100.93Z"/><path class="cls-3" d="M91.53,101.64h0a.25.25,0,0,0,.08-.19C91.51,101.46,91.51,101.54,91.53,101.64Z"/><path class="cls-3" d="M6.84,64.54l-.08-.07a.45.45,0,0,0-.13-.1.11.11,0,0,0-.08,0v.14s0,0,0,.06l.13.08C6.79,64.67,6.92,64.71,6.84,64.54Z"/><path class="cls-3" d="M20.19,68.94c.08,0,.11-.12,0-.2s-.16,0-.22-.06h0a.38.38,0,0,0,0,.48l.07-.07C20.07,69,20.13,69,20.19,68.94Z"/><path class="cls-3" d="M14.92,66.88h0s.11,0,.15-.06h.21a.75.75,0,0,0,.65-.33c.12-.19,0-.15-.14-.15-.32.11-.71-.07-1,.21a2.13,2.13,0,0,1-.35.14,1.89,1.89,0,0,0-.21.09l0,0c.11.13.26.09.39,0A.42.42,0,0,1,14.92,66.88Z"/><path class="cls-3" d="M48.9,45.58c0,.16.14.21.32.25a1,1,0,0,0-.16-.33.11.11,0,0,0-.13,0S48.89,45.53,48.9,45.58Z"/><path class="cls-3" d="M56.86,37.73a.12.12,0,0,0-.18,0c-.11.11.06.13.09.2h0C56.83,37.86,56.93,37.83,56.86,37.73Z"/><path class="cls-3" d="M56.54,37.22c-.12-.08,0-.24-.14-.4v.41c0,.05,0,.12.1.1S56.54,37.26,56.54,37.22Z"/><path class="cls-3" d="M56.48,36.19v-.08s-.12,0-.13,0a.17.17,0,0,0,.06.23h0S56.43,36.22,56.48,36.19Z"/><path class="cls-3" d="M49.2,52.51c0,.08.12.11.2,0s.08-.17.15-.16.18-.13.26-.19-.17,0-.27-.06h0s0,0-.07.06a1.23,1.23,0,0,0-.25.14A.13.13,0,0,0,49.2,52.51Z"/><path class="cls-3" d="M48.88,47c-.05-.1-.13,0-.2,0l.07.13C48.84,47.08,48.92,47.05,48.88,47Z"/><path class="cls-3" d="M45,42.57c-.14,0-.14.08-.15.17a2.82,2.82,0,0,0-.57.15.15.15,0,0,1-.14.06c-.15.1-.29,0-.44,0s-.06.13-.07.2l.08.08.42-.15h.07c.16.08.33,0,.49,0s0,0,0-.06a3.16,3.16,0,0,1,.68-.14c.18,0,.35-.19.3-.27s-.23,0-.34,0Z"/><path class="cls-3" d="M45.11,42.25H45C45,42.33,45.07,42.32,45.11,42.25Z"/><path class="cls-3" d="M41.74,43.36l-.07.08c-.13,0-.31.13-.4-.09l-.1.08s0,.09,0,.14a.12.12,0,0,0,0,.13h.28a.23.23,0,0,1,.22-.13h.22l0-.09c0-.07,0-.13,0-.17S41.78,43.31,41.74,43.36Z"/><path class="cls-3" d="M42.53,42.81h0s0,0,0,.06.19,0,.28,0C42.77,42.65,42.64,42.77,42.53,42.81Z"/><path class="cls-3" d="M43.86,42.74s0,0,0,0l0,0s0,.05,0,.05A0,0,0,0,0,43.86,42.74Z"/><path class="cls-3" d="M47.47,38.66c.08,0,.07-.11.05-.19C47.32,38.49,47.43,38.58,47.47,38.66Z"/><path class="cls-3" d="M44.09,40.18V40h-.2s-.11,0-.11.12a.1.1,0,0,0,0,.07h0A.19.19,0,0,0,44.09,40.18Z"/><path class="cls-3" d="M42.11,42a.39.39,0,0,0,.06.26l0,0a.34.34,0,0,0,.17-.05l.08,0h0c.07-.08.19-.15.06-.27a.53.53,0,0,0-.21.11C42.21,42.12,42.17,42,42.11,42Z"/><path class="cls-3" d="M46,37.37c-.07-.11-.16,0-.24,0s0,.23.13.27S46.06,37.49,46,37.37Z"/><path class="cls-3" d="M60.57,37.21c.07.06,0,.17.12.21l0-.06c0-.08,0-.17,0-.26A.12.12,0,0,0,60.57,37.21Z"/><path class="cls-3" d="M75.64,37.36s-.1.06-.1.13a.22.22,0,0,0,.11.14c.12.06.19-.13.23-.1s.14-.06.19-.11h0c-.08-.06-.2,0-.29-.06h-.14Z"/><path class="cls-3" d="M75.72,36.19s.1,0,.1-.08a.09.09,0,0,0-.1-.11c-.09,0-.17,0-.27,0A.3.3,0,0,0,75.72,36.19Z"/><path class="cls-3" d="M5.63,99.42l-.09-.1c-.09.07,0,.18-.07.27h0a.16.16,0,0,1,0,.07.11.11,0,0,0,0,.07h0C5.82,99.61,5.83,99.59,5.63,99.42Z"/><path class="cls-3" d="M96.61,83.93V84c0,.08.09.15.2.07h0C96.81,83.92,96.72,83.9,96.61,83.93Z"/><path class="cls-3" d="M98,87.87c.15-.2.37-.36.42-.63a1.61,1.61,0,0,0-.5.35C98,87.69,97.87,87.81,98,87.87Z"/><path class="cls-3" d="M94.74,85.44l.07-.06v-.15h-.15C94.63,85.32,94.54,85.43,94.74,85.44Z"/><path class="cls-3" d="M97.23,83.59a.32.32,0,0,0-.27.06c0,.2.12.1.21.07Z"/><path class="cls-3" d="M94.37,81a.12.12,0,0,0-.06-.13c-.1.05-.16.14-.29.14l.07.14C94.23,81.13,94.3,81,94.37,81Z"/><path class="cls-3" d="M97.89,97.72h0s.09,0,.13,0l.08-.07c0-.13,0-.21-.2-.12A1.21,1.21,0,0,0,97.89,97.72Z"/><path class="cls-3" d="M73.53,36.24c0,.08.08.09.11.14a.14.14,0,0,0,.21,0c.09-.11,0-.14-.07-.2h-.07C73.65,36.2,73.56,36.16,73.53,36.24Z"/><path class="cls-3" d="M68.83,34.74l.09.07c.1,0,.21,0,.21-.14a.47.47,0,0,0-.28-.07A.1.1,0,0,0,68.83,34.74Z"/><path class="cls-3" d="M74,36.47c.09.26.14,0,.2,0l0-.06c0-.07,0-.14-.12,0A.73.73,0,0,0,74,36.47Z"/><path class="cls-3" d="M102.61,67.23c0,.15.11.13.21.14h0a.12.12,0,0,0,0-.15l-.08,0C102.67,67.13,102.63,67.17,102.61,67.23Z"/><path class="cls-3" d="M102.35,67.26c-.19,0-.37,0-.32.25h0c.09.07.21,0,.29.06h0l.06.07h0l.13,0s.15.06.15-.06-.06-.09-.12-.09a.14.14,0,0,1-.16-.14Z"/><path class="cls-3" d="M102.47,68.19a.2.2,0,0,0-.15-.07s0,.07-.08,0,0,0,0-.08,0-.07,0-.1,0,0-.08-.06-.12-.14-.17-.21-.09-.08-.15,0a.11.11,0,0,0,0,.16.64.64,0,0,1,.2.49h0a.12.12,0,0,0,.1,0c.07,0,.07.07.11.1s0-.2.21-.17S102.51,68.23,102.47,68.19Z"/><path class="cls-3" d="M71.2,37s0-.07-.06-.07S71,37,71,37a.43.43,0,0,1,0,0s0,0,0,0a0,0,0,0,0,0,0C71.14,37.07,71.21,37.06,71.2,37Z"/><path class="cls-3" d="M9.77,64.71a.05.05,0,0,0-.06.06c0,.09,0,.1.12.11l0,0S9.85,64.71,9.77,64.71Z"/><path class="cls-3" d="M104.61,72.54l-.14-.14-.08-.06c-.08,0-.06.13-.07.2l.08.14h.29a.15.15,0,0,1,0-.07A.46.46,0,0,1,104.61,72.54Z"/><path class="cls-3" d="M81.42,52.89c0,.09.11.17.23.13s.11,0,.13-.06l-.14-.15H81.5C81.43,52.8,81.41,52.84,81.42,52.89Z"/><path class="cls-3" d="M86,54c0,.11.11.13.21.07s-.1-.14-.2-.13S86,54,86,54Z"/><path class="cls-3" d="M75.93,43.63l.07-.06c0-.09.12-.19-.07-.2S75.8,43.54,75.93,43.63Z"/><path class="cls-3" d="M16.2,60.82c0-.07-.09-.14-.14-.21s-.18.14-.28.28C16,60.85,16.1,61.06,16.2,60.82Z"/><path class="cls-3" d="M16.26,61.28c0-.05-.06-.09-.12-.1s-.11.09-.11.15,0,.16.11.14S16.26,61.37,16.26,61.28Z"/><path class="cls-3" d="M17.85,62.55a.19.19,0,0,0-.18-.22s-.09,0-.09.08.11.25.2.24S17.85,62.59,17.85,62.55Z"/><path class="cls-3" d="M13.62,56.81c.06.08.1,0,.14,0S13.66,56.75,13.62,56.81Z"/><path class="cls-3" d="M15,54.2h0c0-.07,0-.14,0-.21s-.14-.16-.15-.27a.41.41,0,0,1-.14-.15s0,0-.06-.07h0a.13.13,0,0,0,0-.06.17.17,0,0,0-.12,0s0,0,0,0h0c0-.12-.06-.11-.15-.07l-.06,0a1,1,0,0,0,.42.61h0a.14.14,0,0,0,0,.06h0l.08.1,0,0,.09.13C14.89,54.33,15,54.34,15,54.2Zm-.55-.69h0Z"/><path class="cls-3" d="M10.64,58.4h0s0,.08.08,0Z"/><path class="cls-3" d="M18,54.6c0-.13,0-.27,0-.4-.22.16-.23.28-.06.47h0L18,54.6Z"/><path class="cls-3" d="M30.92,44.94a.75.75,0,0,0-.7.21l-.28.07c-.08,0-.1,0-.14.07a1.8,1.8,0,0,1-.65.14.16.16,0,0,1-.08.06H29a.24.24,0,0,1-.08.06h0c-.13,0-.28,0-.38.11.11.07.22,0,.32,0l.07-.06.14,0a.21.21,0,0,0,.16-.05h0l.12,0a.15.15,0,0,0,.15-.06c.14,0,.27-.07.41,0s.18-.16.33-.17a3.43,3.43,0,0,0,.44-.09,1.17,1.17,0,0,0,.38-.08C31.16,45,31,45,30.92,44.94Z"/><path class="cls-3" d="M36.29,43.91c.21-.22,0-.24-.14-.24s-.25,0-.34.12-.27.15-.43.2-.13.21.08.17.47-.12.7-.18h0Z"/><path class="cls-3" d="M33.22,44.18c0,.1-.4,0-.13.22h.07a1.11,1.11,0,0,1,.39-.2.21.21,0,0,0,.18-.21.1.1,0,0,0-.14,0,.37.37,0,0,1-.29.14Z"/><path class="cls-3" d="M35,43.23H35s-.07,0-.07.06.09.1.15.05S35,43.26,35,43.23Z"/><path class="cls-3" d="M39.88,43.15a.89.89,0,0,1-.42.15,2.32,2.32,0,0,1-.58.13.06.06,0,0,0,0,.06.1.1,0,0,0,0,0c0,.08,0,0-.07.07-.21.15-.48.18-.67.37h-.07s-.06,0-.07.07l.08.08c.1,0,.22-.06.27.08s.09.06.15,0a.44.44,0,0,0,.15-.18l0,0v0c.2-.11.41,0,.62-.05s.1-.41.38-.42h.07a.41.41,0,0,0,.2-.14H40s0,0,.06-.07h0C40.08,43.15,40,43.09,39.88,43.15Z"/><path class="cls-3" d="M40,44.12c0,.05,0,.09,0,.14s.13.07.21.06a2.81,2.81,0,0,0,0-.41A.15.15,0,0,0,40,44C40,44,40,44.08,40,44.12Z"/><path class="cls-3" d="M45,38.46a.61.61,0,0,1,0-.14L45,38.24c-.17,0-.13.12-.07.22h0c.06,0,0,.17.13.14h0a.13.13,0,0,1,0,.06c.07,0,.13.27.21,0C45.17,38.61,45.15,38.49,45,38.46Z"/><path class="cls-3" d="M99.46,67.55s0,.07.07.1h.06a.11.11,0,0,0,.15,0c.12-.09.06-.13,0-.14h-.1S99.47,67.47,99.46,67.55Z"/><path class="cls-3" d="M95.66,64.68a4.71,4.71,0,0,0,.8.27.19.19,0,0,0,.2,0,.15.15,0,0,1-.13-.08l-.08-.07c-.14-.06-.32,0-.43-.14L96,64.55h-.07a.15.15,0,0,0-.21,0h0A.11.11,0,0,0,95.66,64.68Z"/><path class="cls-3" d="M99,67.59c-.16,0-.28,0-.38.12C98.77,67.7,98.88,67.75,99,67.59Z"/><path class="cls-3" d="M98.75,67.37a.17.17,0,0,0,.07-.13c-.15,0-.15,0-.15.06a.23.23,0,0,1,.07.07Z"/><path class="cls-3" d="M100.82,67.23c-.12,0-.24-.14-.29.06s0,.15.07.22c-.11,0-.22,0-.26.12h0l.14.07.07-.06v-.14c.12.14.24.09.36,0s.11,0,.18-.11L101,67.3A.13.13,0,0,1,100.82,67.23Z"/><path class="cls-3" d="M99.34,66.42s0,0,0,0,.08,0,.09-.1S99.34,66.34,99.34,66.42Z"/><path class="cls-3" d="M93.6,62.4h0s0,0,0,0h0a.46.46,0,0,0,.07-.07v-.06C93.63,62.26,93.52,62.24,93.6,62.4Z"/><path class="cls-3" d="M94.15,63.34v0h0s0,.06.07.08l.08,0h0l0,0s0,0,0,0,.11,0,.11-.06-.18-.21-.32-.19S94.14,63.31,94.15,63.34Z"/><path class="cls-3" d="M92.89,99.9c-.27-.08-.22.1-.22.24s.24-.08.38-.08.21-.11.18-.26S93,99.94,92.89,99.9Z"/><path class="cls-3" d="M20.08,67.58a.13.13,0,0,0,0,.06c.07,0,.1.16.21.14S20.24,67.56,20.08,67.58Z"/><path class="cls-3" d="M12.49,65.78c0,.1,0,.2.14.21a.07.07,0,0,0,.07,0s.05-.06.07-.09h.07c.09-.1,0-.15-.07-.2h-.14s-.1,0-.14.06Z"/><path class="cls-3" d="M13.06,66.68h0a.36.36,0,0,0-.35,0A1.4,1.4,0,0,0,13.06,66.68Z"/><path class="cls-3" d="M13.2,66.54c0,.07.08.07.14.07S13.26,66.54,13.2,66.54Z"/><path class="cls-3" d="M59.19,52.19s-.08,0-.11,0-.1.16-.14.24v.09c.07.11.15.12.25,0l.07-.12C59.25,52.37,59.3,52.26,59.19,52.19Z"/><path class="cls-3" d="M53.69,48.46s0-.1-.08-.13h0s-.09,0-.14,0h0c0,.09-.09.17-.07.27s.25,0,.35-.06Z"/><path class="cls-3" d="M51.28,49.33c.07-.09,0-.17,0-.24C51.11,49.13,51.17,49.22,51.28,49.33Z"/><path class="cls-3" d="M58.13,37.77c.1,0,.14.18.3.18,0-.15,0-.26-.1-.38C58.12,37.53,58.12,37.54,58.13,37.77Z"/><path class="cls-3" d="M47.76,54.23a.11.11,0,0,0,.11.14c.14,0,.07-.11.09-.17h0C47.89,54.22,47.8,54.09,47.76,54.23Z"/><path class="cls-3" d="M48.75,55.48l0,.08c0,.08.13.1.18.15h0l.08.07a.32.32,0,0,1,.15.13c.09,0,.13,0,.13-.13L49,55.44c0-.1-.14-.09-.2-.15h0a.14.14,0,0,0-.08.14Z"/><path class="cls-3" d="M96.73,91c-.08,0-.16.06-.12.12.17.22,0,.26-.16.29l-.07.07c0,.06-.1.09-.08.17a1.44,1.44,0,0,0,.53-.22A.32.32,0,0,0,96.73,91Z"/><path class="cls-3" d="M97.53,91h0a.11.11,0,0,1,0,.15h0a.1.1,0,0,0,0,.14h0c.11.05.2.08.16-.1a.09.09,0,0,1,0-.11c0-.11,0-.22-.07-.33C97.47,90.68,97.46,90.7,97.53,91Z"/><path class="cls-3" d="M96.17,90.21c0,.06,0,.11.09.12s.11-.06.12-.13S96.24,90.19,96.17,90.21Z"/><path class="cls-3" d="M97.31,89a.57.57,0,0,0,.08.13l.07,0V89s0-.1-.06-.09S97.34,88.93,97.31,89Z"/><path class="cls-3" d="M97.93,88l0,0S97.93,88,97.93,88Z"/><path class="cls-3" d="M93.52,90.89v-.06c-.1,0-.19,0-.19.13s.12.16.15,0Z"/><path class="cls-3" d="M93.28,90.22a.08.08,0,0,0,0,0s0-.06,0,0,0,0,0,.05Z"/><path class="cls-3" d="M93.67,80.89h0c0-.06-.06-.13-.14-.16a.08.08,0,0,0-.08,0,.2.2,0,0,0-.07.28h.54C93.82,80.94,93.71,81,93.67,80.89Z"/><path class="cls-3" d="M97.66,89.45a.48.48,0,0,0,.09.19.14.14,0,0,0,0-.23S97.69,89.41,97.66,89.45Z"/><path class="cls-3" d="M72.35,36.88l.21.07c.08-.09.17-.17,0-.16,0,0-.06,0-.09,0S72.32,36.81,72.35,36.88Z"/><path class="cls-3" d="M102.23,66.65c-.06.12.11.08.14.14l0,0h0c.07-.06.1-.13,0-.19S102.26,66.59,102.23,66.65Z"/><path class="cls-3" d="M101.6,67.51s.11,0,.15.06h0c.07-.06.11-.14,0-.19s-.14,0-.15.13Z"/><path class="cls-3" d="M103.32,69.37c-.1-.06-.15,0-.15.08s0,0,0,.06.06.06,0,.08-.06.21.08.24.22,0,.22-.18A.36.36,0,0,1,103.32,69.37Z"/><path class="cls-3" d="M69.11,46.7a.66.66,0,0,0,0,.58l0,0a.13.13,0,0,0,.13,0,.19.19,0,0,0,0-.13s-.07,0,0-.07a.2.2,0,0,0,.08,0c.21-.38.2-.52,0-.65h0s-.09,0-.14,0S69.16,46.62,69.11,46.7Z"/><path class="cls-3" d="M68.45,46s-.07.05-.1.08l-.07.07c0,.06,0,.16.1.09s.07-.11.1-.17S68.49,46,68.45,46Z"/><path class="cls-3" d="M68.14,45.57v.06l.06.08.14-.08s0,0,0-.06h0a.27.27,0,0,1-.07-.08h0C68.2,45.46,68.17,45.51,68.14,45.57Z"/><path class="cls-3" d="M103.54,70.2h0c0-.08,0-.18-.12-.24C103.38,70.09,103.38,70.18,103.54,70.2Z"/><path class="cls-3" d="M81.49,51.21a.14.14,0,0,0,0,.06.08.08,0,0,0,0,.07l0,0h.14l.07-.07v-.13h-.18A.12.12,0,0,0,81.49,51.21Z"/><path class="cls-3" d="M84,53.25h0s0-.05,0,0l0,0S84,53.25,84,53.25Z"/><path class="cls-3" d="M84.52,57.13a.08.08,0,0,0,0,.08.22.22,0,0,0,.05.08l.12.08c.23.12.47.22.69.35l.3.17c.08,0,.17.09.25,0s.09-.19,0-.26h0a.36.36,0,0,0-.2-.11.45.45,0,0,0-.23,0l-.28-.21s-.11,0-.15-.07h0a.35.35,0,0,0-.42-.14Z"/><path class="cls-3" d="M74.49,47.77c0-.08,0-.16-.06-.2S74.41,47.72,74.49,47.77Z"/><path class="cls-3" d="M79.09,46.68a.13.13,0,0,0,0,.06s.11.08.16,0,0-.12,0-.19l-.06,0A.1.1,0,0,0,79.09,46.68Z"/><path class="cls-3" d="M23.34,62.89c.05-.15,0-.2-.25-.2h0a.21.21,0,0,0,.14.26C23.27,62.94,23.32,63,23.34,62.89Z"/><path class="cls-3" d="M20.49,65.15l.26-.11c.11,0,.22-.07.16-.2s-.17-.06-.26,0-.25.12-.36.19C20.22,65.26,20.41,65.13,20.49,65.15Z"/><path class="cls-3" d="M15.39,66.14l-.26,0h0C15.19,66.21,15.27,66.22,15.39,66.14Z"/><path class="cls-3" d="M14.78,66.33v-.14h-.07C14.66,66.27,14.62,66.35,14.78,66.33Z"/><path class="cls-3" d="M19.93,65.31c.05.08.14,0,.22.06h.05C20.13,65.27,20,65.3,19.93,65.31Z"/><path class="cls-3" d="M19.62,52.81s0,0,0,0l0,0a0,0,0,0,0,0,0S19.62,52.84,19.62,52.81Z"/><path class="cls-3" d="M34.61,45l-.09,0-.06.06,0,0a.56.56,0,0,0,.62,0c.15-.09,0-.11-.05-.17h-.13A.9.9,0,0,1,34.61,45Z"/><path class="cls-3" d="M32.72,44.36l-.14,0h-.06l-.08,0c-.1,0-.21,0-.29.07h-.06a1.06,1.06,0,0,0-.66.27l-.12.07-.07,0-.06,0,0,0,.14.13h.07a.47.47,0,0,1,.43-.2l.43-.21h.07a.22.22,0,0,0,.22,0h0c.14,0,.3,0,.43-.06S32.91,44.28,32.72,44.36Z"/><path class="cls-3" d="M34.11,44.23c0-.06-.1,0-.16,0a1.76,1.76,0,0,1-.45.12c-.12,0-.08.08,0,.14h.13c.09-.07.21,0,.29-.07h0a.21.21,0,0,1,.15-.07S34.13,44.27,34.11,44.23Z"/><path class="cls-3" d="M31.31,44.55c-.07.06-.15,0-.23.06l-.06.13h0a.15.15,0,0,0,.21,0C31.23,44.67,31.43,44.67,31.31,44.55Z"/><path class="cls-3" d="M34.31,49a.25.25,0,0,1,.14.13.17.17,0,0,0,0,.12l.11.09c.08.08.2.11.27.19H34.7l-.1,0h0a.36.36,0,0,0-.07-.17h0c-.08.05-.09.12-.13.19s0,.15.14.14h.07a11.37,11.37,0,0,0,1.43,0c.06,0,.21,0,.14.11s0,.23-.13.3l-.08.07h0a.28.28,0,0,1-.13.21c0,.09.12.06.19.05s.06-.27.22-.34h0l.05-.07v0a.31.31,0,0,1,.09-.21l.07,0a.26.26,0,0,0,.16-.15c0-.12-.06-.17-.19-.12a2.37,2.37,0,0,1-.84-.06v-.07a.21.21,0,0,0-.1-.06h-.12c-.14,0-.3,0-.37-.13s-.18-.06-.26-.09l-.08-.06h0c0-.05-.11,0-.14-.08h0a.16.16,0,0,1-.07-.07h0a.12.12,0,0,0-.15,0Z"/><path class="cls-3" d="M33.31,49.9l.13,0h0s0,0,0,0l.08-.06a1,1,0,0,0,.5-.08c-.13-.13-.29,0-.44-.06h-.27C33.21,49.72,33.24,49.81,33.31,49.9Z"/><path class="cls-3" d="M32,49.84v.07h0a.5.5,0,0,1,.15.14h0c.25.08.18-.12.21-.22s-.16-.13-.28-.06,0,0-.07.06Z"/><path class="cls-3" d="M37.73,43.7a.12.12,0,0,0-.13-.13.17.17,0,0,0,0,.2l.09-.06Z"/><path class="cls-3" d="M39.67,43.71h0l.16-.12C39.64,43.59,39.64,43.59,39.67,43.71Z"/><path class="cls-3" d="M101.35,66.72a.06.06,0,0,0-.06.07c0,.06.07.08.13.09h0s0,0,0-.06S101.42,66.72,101.35,66.72Z"/><path class="cls-3" d="M93.35,64.26l.07,0,.22.07a1.19,1.19,0,0,0,.15.09.43.43,0,0,1,.3.24.32.32,0,0,0,.09,0c.27,0,.15.21.24.31a.46.46,0,0,0,.24.17c.19,0,.26-.06.23-.21h0l.13.07c.09,0,.15.16.27.17h0c0,.21.17.23.34.25l0,0,0,0v0l.06,0,.08,0h0v0h.18a.15.15,0,0,0,0,.09.12.12,0,0,0,.14,0h0s0,0,0,0c0,.26.28.34.49.45s.28.33.54.27h.2c.1,0,.24.05.3-.1a.29.29,0,0,0-.28-.09.47.47,0,0,1-.45-.2.29.29,0,0,0-.14-.13l-.09-.08,0-.06c0-.06,0-.12,0-.18a.08.08,0,0,0,0-.07.26.26,0,0,0-.23,0l-.17.06a.18.18,0,0,0-.09-.14c.13-.1.19-.21.07-.35h-.06c-.1-.11-.19-.24-.38-.11,0,0-.11,0-.16,0a2,2,0,0,1-.54-.15L95,64.8c-.06,0-.07-.06-.09-.11a1.52,1.52,0,0,1-.42-.49c0-.13-.12-.2-.22-.28h-.06c-.17,0-.13.13-.13.23s.12.13.17.2a2.82,2.82,0,0,1-.48-.27c-.15-.07-.21-.22-.33-.32l-.09,0a.35.35,0,0,0-.2,0l-.08,0a.18.18,0,0,0,0,.14c0,.08.08.12.15.17A.28.28,0,0,1,93.35,64.26Z"/><path class="cls-3" d="M88.57,59.7a.32.32,0,0,0,.16.35,5,5,0,0,0,1,.47.14.14,0,0,0,.13-.07.14.14,0,0,0,0-.09l-.06-.07c-.12-.07-.08-.21-.16-.3s-.21-.1-.31-.05-.25,0-.33-.17-.1-.17-.22-.18a.22.22,0,0,0-.19,0A.1.1,0,0,0,88.57,59.7Z"/><path class="cls-3" d="M90.24,60.05a.13.13,0,0,0,.14-.13l-.07-.07a.17.17,0,0,0-.15.07s0,.1.08.13Z"/><path class="cls-3" d="M92.16,61.92a1.29,1.29,0,0,1,.3.27c.08.06.2.07.28.14h.14v-.06l-.06-.08h0a2.57,2.57,0,0,0-.57-.35C92.17,61.82,92.15,61.85,92.16,61.92Z"/><path class="cls-3" d="M87.63,94.69l0,0-.07.05-.06.06c-.12,0-.12.07-.08.15h0a.34.34,0,0,1,.09.14.45.45,0,0,0,.07.14.34.34,0,0,0-.15.07.53.53,0,0,1,0,.13c.08.21.08.21.25.09l.1,0,.09-.06c0-.08,0-.1-.08-.14h0l-.1,0a.65.65,0,0,0,.1-.15h0A.46.46,0,0,1,87.8,95a.64.64,0,0,1,.36-.08v-.13a.17.17,0,0,0-.13,0C87.88,94.8,87.78,94.63,87.63,94.69Z"/><path class="cls-3" d="M87.88,95.44s.09,0,.09-.08,0,0-.08,0S87.83,95.4,87.88,95.44Z"/><path class="cls-3" d="M23.07,68.27a.15.15,0,0,0-.14.06h0a.46.46,0,0,1,.07.07l.07.07c.09,0,.23,0,.15-.14l0,0a.11.11,0,0,0-.07,0Z"/><path class="cls-3" d="M20.5,72.54c.08-.06.17,0,.25,0a.12.12,0,0,0,.07-.05v0h0a.13.13,0,0,0,0-.06v0a.13.13,0,0,1,0-.1l.06,0c.09-.1.23-.16.22-.33a.13.13,0,0,0-.14-.07h0s-.1,0-.14.07h0a.23.23,0,0,0-.07.07.55.55,0,0,0-.24.18.28.28,0,0,1-.33.1.14.14,0,0,1,0,.06.18.18,0,0,1-.13.2.36.36,0,0,0,0,.42C20.26,72.83,20.33,72.63,20.5,72.54Z"/><path class="cls-3" d="M19.78,73.5l.08-.13c-.08-.1-.19-.06-.29-.06l0,0C19.61,73.43,19.59,73.61,19.78,73.5Z"/><polygon class="cls-3" points="20.07 72.89 20.07 72.89 20.07 72.89 20.07 72.89 20.07 72.89"/><path class="cls-3" d="M20.05,72.91l0,0S20,72.91,20.05,72.91Z"/><path class="cls-3" d="M23.11,70.36c0-.08.09-.23-.11-.24h-.07l-.07.07h0c0,.09,0,.2.07.27h0C23,70.42,23.08,70.46,23.11,70.36Z"/><path class="cls-3" d="M8.42,79.54a.25.25,0,0,0-.29,0,.38.38,0,0,0,.28.15h0C8.42,79.66,8.5,79.59,8.42,79.54Z"/><path class="cls-3" d="M64.31,60v0c.12-.18,0-.38.07-.56l0-.09h0a.06.06,0,0,1,0-.08c0-.06,0-.12,0-.17h0c-.11-.08-.21-.16-.35-.05s.05.26.07.39a.2.2,0,0,1,0,.22v.06c-.06.13-.09.25,0,.34l.09,0h.1S64.34,60,64.31,60Z"/><path class="cls-3" d="M52.54,57h0c.06.08.14.07.22.06v-.12h-.06S52.58,56.91,52.54,57Z"/><path class="cls-3" d="M65.59,61.08c0-.08-.14-.06-.21,0a.14.14,0,0,0-.15.11.06.06,0,0,0,0,.08.33.33,0,0,0,.29-.06S65.61,61.09,65.59,61.08Z"/><path class="cls-3" d="M65.49,53.15c.1.07,0,.2.1.3.06-.08,0-.18.11-.23s0,0,0-.06a.16.16,0,0,0-.18-.16C65.47,53,65.49,53.1,65.49,53.15Z"/><path class="cls-3" d="M53.32,56.81h-.06c.07.1.17.07.27.06C53.48,56.79,53.39,56.82,53.32,56.81Z"/><path class="cls-3" d="M49.69,56.6s.08.1.11.1.08-.09.08-.16l-.07-.14c-.1-.06-.13,0-.14.08Z"/><path class="cls-3" d="M38.29,52.58a.47.47,0,0,1,.24,0h.06c.08-.21-.12-.16-.21-.21s-.14,0-.2,0a.38.38,0,0,0-.13.09l0,0A.18.18,0,0,0,38.29,52.58Z"/><path class="cls-3" d="M41.57,49.18c-.1-.12-.18,0-.32,0,.13.08.22.12.31,0S41.58,49.19,41.57,49.18Z"/><path class="cls-3" d="M41.9,48.47c-.1,0-.29,0-.29-.08s-.11-.11-.19-.13a.15.15,0,0,1-.12-.07c-.07,0-.14-.1-.22,0a.17.17,0,0,0,0,.22.68.68,0,0,0,.12.12c.13,0,.2.12.3.19a.4.4,0,0,0,.49,0,.16.16,0,0,0,0-.16A.1.1,0,0,0,41.9,48.47Z"/><path class="cls-3" d="M13.62,82.76a.2.2,0,0,1-.06-.14c0-.1-.05-.13-.14-.14s-.25,0-.12.18l.12.16C13.49,82.82,13.57,82.84,13.62,82.76Z"/><path class="cls-3" d="M9,98.29c-.11,0-.15,0-.16.12H9S9.08,98.33,9,98.29Z"/><path class="cls-3" d="M97.67,72.91a3,3,0,0,1-.52-.07.28.28,0,0,0-.2,0c-.06.11-.48.06-.17.34l.09,0a.35.35,0,0,1,.21.1c.11.12.24.09.38,0s.51-.17.79-.14c.06-.1.2-.14.2-.28h0a.28.28,0,0,0-.28,0c-.14,0-.28,0-.41,0Z"/><path class="cls-3" d="M84.45,93.23s0,0,.08.06.19.09.21-.09,0-.07,0-.1h-.07C84.48,93,84.46,93,84.45,93.23Z"/><path class="cls-3" d="M85.87,93.75c0-.06,0-.12-.09-.12s-.06,0-.06.07,0,.11.1.12S85.87,93.78,85.87,93.75Z"/><path class="cls-3" d="M92.61,92.31c-.07-.13-.22,0-.3-.1s-.12-.26-.29-.28-.18,0-.2.09.06.11.13.13a.24.24,0,0,1,.18.23c0,.2.14.16.25.18l.15-.14S92.62,92.37,92.61,92.31Z"/><path class="cls-3" d="M93.94,91.78v-.12a.09.09,0,0,0-.06-.07c-.06-.06-.12-.11-.21-.07h0c-.12.06-.09.14,0,.21v.06h.07s0,0,0,.07H94A.22.22,0,0,1,93.94,91.78Z"/><path class="cls-3" d="M91.81,86.07h.13a1,1,0,0,0,.16-.13c.06-.05.05-.1,0-.12S91.8,85.89,91.81,86.07Z"/><path class="cls-3" d="M92.78,85.12a0,0,0,0,0,0,0l0,0s0,0,0,0S92.76,85.13,92.78,85.12Z"/><path class="cls-3" d="M91.3,78.82c.15,0,.16.17.16.31l.16-.21,0-.17C91.49,78.76,91.38,78.72,91.3,78.82Z"/><path class="cls-3" d="M91,81.53s0,.09.08.09a0,0,0,0,0,0,0,.08.08,0,0,0,0-.11l-.09,0h0S91,81.5,91,81.53Z"/><path class="cls-3" d="M20.07,89.38a.31.31,0,0,0,.22-.21h0a.12.12,0,0,0,0-.09c-.13-.16-.22-.1-.31,0l-.08,0-.08.07a.46.46,0,0,1-.07.07c-.06.15,0,.18.15.15Z"/><path class="cls-3" d="M14.64,87.79l.14.13.34-.07C15,87.74,14.8,87.81,14.64,87.79Z"/><path class="cls-3" d="M12.42,85.24c-.1,0-.15,0-.15.13S12.42,85.33,12.42,85.24Z"/><path class="cls-3" d="M70.64,41.36l.07.06.14.14h0l.07-.06h0c.1-.16,0-.2-.14-.28l-.31,0C70.5,41.29,70.61,41.28,70.64,41.36Z"/><path class="cls-3" d="M69.35,46.19c.09,0,.15,0,.15-.09s0-.19-.15-.12Z"/><path class="cls-3" d="M68.06,49.36c.08,0,.16,0,.2-.06l-.06-.07C68.11,49.23,68,49.18,68.06,49.36Z"/><path class="cls-3" d="M81.61,51.73a.15.15,0,0,0,0-.23C81.58,51.58,81.55,51.65,81.61,51.73Z"/><polygon class="cls-3" points="81.58 51.5 81.58 51.5 81.58 51.5 81.58 51.5"/><path class="cls-3" d="M86.22,57.92v0l.06,0,.07,0,.11,0,0,0,.07,0a.12.12,0,0,0,.08,0,.08.08,0,0,0,0,0,.56.56,0,0,0,.4.25c.13,0,.25.12.39.16a.37.37,0,0,0,.23,0c.08,0,.16,0,.21-.06s-.05,0-.06-.07l-.15-.08a.42.42,0,0,0-.21-.06c-.09-.06-.21-.1-.25-.18s-.29-.2-.48-.18l-.13,0c-.07-.06-.16,0-.22-.07h0S86.25,57.86,86.22,57.92Z"/><path class="cls-3" d="M87.32,58s.05.08.1.07a.11.11,0,0,0,.09-.12c0-.05,0-.08-.08-.06S87.32,57.94,87.32,58Z"/><path class="cls-3" d="M83.9,56.63a.37.37,0,0,0,.39.25.15.15,0,0,0,.15-.07l-.07-.07-.07-.06h-.06l-.09-.06H84.1a.16.16,0,0,1-.09-.07h0a.07.07,0,0,0-.06,0A.36.36,0,0,0,83.9,56.63Z"/><path class="cls-3" d="M83.38,55.84l.2.08.08.06h0l.08.07h0s.06,0,.09,0v0l0,0,.06.08a1.53,1.53,0,0,1,.18.18h0a.88.88,0,0,1,.36.06h.07c.08,0,.13,0,.08-.12l-.15-.23-.14-.07v-.14s0,0,0,0v0a.15.15,0,0,0-.17-.07h0a.36.36,0,0,0-.31-.11C83.6,55.72,83.44,55.67,83.38,55.84Z"/><path class="cls-3" d="M74.88,42.9A.12.12,0,0,0,75,43s.09,0,.09-.06a.09.09,0,0,0-.09-.11A.07.07,0,0,0,74.88,42.9Z"/><path class="cls-3" d="M78.89,48.36l0,0h0Z"/><path class="cls-3" d="M24.72,62.34c.07-.08.18,0,.26-.08a.28.28,0,0,0,.1-.09l0,0h0a.08.08,0,0,0,.08,0,.35.35,0,0,0,.12-.07c.11-.09.28-.12.31-.29h0l0,0c.13-.19.13-.19-.08-.21l-.07.07h0c-.17,0-.28.13-.42.22l-.08.06h0s0,0,0,0H25l0,0s0,0-.06,0h0a.13.13,0,0,1,0,.06h0c-.13,0-.19.09-.28.15a.46.46,0,0,1-.07.07.15.15,0,0,0,.15.07Z"/><path class="cls-3" d="M19.21,55.64h0l0,0s0,0-.05,0l0,0a.15.15,0,0,0,0-.17h0c-.07,0-.1-.16-.22-.14s0,.05,0,.07.07.24.21.28h0a.34.34,0,0,0,.08.27C19.35,55.82,19.24,55.73,19.21,55.64Z"/><path class="cls-3" d="M20.57,55.7a.42.42,0,0,1-.15-.12h-.06a.06.06,0,0,0-.09,0,.23.23,0,0,0,0,.14c0,.12.15.15.24.21h0l.07.06h0s0,.11.08.14h0c.08.08,0,.25.22.27s.12.12.13.21,0,.26.26.26c0-.13,0-.26-.05-.39A7.68,7.68,0,0,0,20.57,55.7Z"/><path class="cls-3" d="M37.17,48.68l.06-.08a.13.13,0,0,0-.07-.14l-.28.22c-.08.17.07.12.15.14A.38.38,0,0,0,37.17,48.68Z"/><path class="cls-3" d="M38.4,43.52l-.09,0h0a.18.18,0,0,1,.07,0Z"/><path class="cls-3" d="M94.81,67.85l-.22-.13a2.14,2.14,0,0,0-.67,0,.12.12,0,0,0-.07.07.14.14,0,0,0,0,.09c.09.12.24.1.37.13s.18,0,.22.09S94.68,67.93,94.81,67.85Z"/><polygon class="cls-3" points="93.81 66.89 93.81 66.89 93.81 66.89 93.81 66.89"/><path class="cls-3" d="M93.9,66.91l-.09,0S93.85,67,93.9,66.91Z"/><path class="cls-3" d="M94.67,65.78c0-.06,0-.08-.06-.1a.09.09,0,0,0-.08,0l-.08.13C94.57,66,94.64,65.93,94.67,65.78Z"/><polygon class="cls-3" points="93.38 66.82 93.38 66.82 93.38 66.82 93.38 66.82"/><path class="cls-3" d="M93.24,66.61s0,0,0,.06,0,.06,0,.08a.23.23,0,0,0,.15.07h0c0,.1-.21,0-.27.16a.88.88,0,0,0,.48,0c0-.06.13-.06.15-.14-.16,0-.11-.2-.22-.26S93.33,66.61,93.24,66.61Z"/><path class="cls-3" d="M94.73,66.27l.08.07a0,0,0,0,0,.07,0H95v-.14h-.07a.14.14,0,0,0-.15,0h0A.05.05,0,0,0,94.73,66.27Z"/><path class="cls-3" d="M95.4,65.52a.69.69,0,0,0-.4-.24s0,0,0,.08h0c.08.07,0,.21.13.25a.11.11,0,0,0,.08,0h.14S95.43,65.55,95.4,65.52Z"/><path class="cls-3" d="M90.73,62.06a2.18,2.18,0,0,0,.56.25s.06.06.09.09.26.08.21-.13,0-.22-.21-.21h0a.39.39,0,0,0-.1-.08c-.17-.08-.32-.22-.54-.16S90.63,62,90.73,62.06Z"/><path class="cls-3" d="M84.42,105.77l0,.06-.06.09a.36.36,0,0,0-.07.1,1.05,1.05,0,0,0,0,.19.11.11,0,0,0,0,.07c.11.09.14,0,.2-.07s0-.25.15-.35.12-.19-.07-.2l0,0S84.44,105.74,84.42,105.77Z"/><path class="cls-3" d="M85.94,101.46l.06,0s0-.12-.07-.1S85.9,101.42,85.94,101.46Z"/><path class="cls-3" d="M86.8,93.93a1.19,1.19,0,0,0-.08-.2h0l-.15-.14h-.06c-.08,0-.06.12-.06.2h0c.08,0,0,.13,0,.19a.13.13,0,0,0,.07.06l.08,0h.09A.1.1,0,0,0,86.8,93.93Z"/><path class="cls-3" d="M21.4,72.19c-.08-.08-.16,0-.22.09l0,0h-.07c-.1.1-.22.18-.21.34a.44.44,0,0,0-.22.07l-.06,0s-.08.07,0,.11.08,0,.12,0h.07l.06,0,.07,0a.13.13,0,0,0,0-.06.19.19,0,0,0,0-.08l0,0a.06.06,0,0,0,.08,0l0,0a1.08,1.08,0,0,1,.3-.26C21.36,72.35,21.51,72.31,21.4,72.19Z"/><path class="cls-3" d="M24.23,69.8l0,0a.2.2,0,0,0,0-.08.47.47,0,0,0,0-.17.11.11,0,0,0,0-.08s0,0,0,0,0,0-.05,0h-.07v.07a.23.23,0,0,0-.07.07.83.83,0,0,0-.08.12h0c-.29.18-.24.52-.49.77l.27-.07h0a.27.27,0,0,0,.08-.07,1.07,1.07,0,0,1,.29-.27.51.51,0,0,0,0-.21.14.14,0,0,0,0-.06A.09.09,0,0,0,24.23,69.8Z"/><path class="cls-3" d="M23.43,69.71l-.07.08-.07.06c0,.18.11.11.21.07S23.52,69.76,23.43,69.71Z"/><path class="cls-3" d="M82.43,93.45h-.06s-.06,0-.07-.06h0a.17.17,0,0,0-.08.15c.06.09.12.19.25.18S82.43,93.53,82.43,93.45Z"/><path class="cls-3" d="M65.68,63c.16.06.29,0,.37.13a.3.3,0,0,0,.16-.15.44.44,0,0,1,.07-.27c.09-.18.06-.27-.14-.4,0,.13-.06.26-.08.4S66,63,65.68,63Z"/><path class="cls-3" d="M72.08,61.86v-.67l-.16.11v.47c0,.17-.07.35.08.5A.26.26,0,0,0,72.08,61.86Z"/><path class="cls-3" d="M68.2,64.53a2.44,2.44,0,0,0,0-.27h0c-.09,0-.11,0-.14.08a.54.54,0,0,1-.07.27C68.1,64.67,68.18,64.65,68.2,64.53Z"/><path class="cls-3" d="M61.41,64.88c.06,0,.14,0,.12.09s.07.13.09.19a.81.81,0,0,0,.22,0c.07-.11,0-.2-.07-.28a.53.53,0,0,1-.15-.26C61.31,64.61,61.29,64.64,61.41,64.88Z"/><polygon class="cls-3" points="40.52 52.81 40.52 52.81 40.52 52.81 40.52 52.81"/><path class="cls-3" d="M40.15,52.41h0a.08.08,0,0,0,0,.13h0a.16.16,0,0,0,.07.07h0l.21.15s.11,0,.14.06l.09-.08s0,0,0-.06C40.51,52.48,40.3,52.49,40.15,52.41Z"/><path class="cls-3" d="M13.91,83.32l-.13.13a.07.07,0,0,0,0,0C14,83.5,14,83.49,13.91,83.32Z"/><path class="cls-3" d="M15.48,84.83l0,0c-.09-.12-.21,0-.31,0l-.07,0a.66.66,0,0,1,0,.14.34.34,0,0,0,.31.11C15.49,85,15.56,85,15.48,84.83Z"/><path class="cls-3" d="M10.13,98h-.06c-.06,0,0,.1-.08.13a.17.17,0,0,1,0,.07.17.17,0,0,0,.15.06h0s0-.11.07-.14A.14.14,0,0,0,10.13,98Z"/><path class="cls-3" d="M9.84,98.55a.13.13,0,0,0,.14.14c0-.07,0-.13,0-.2S9.86,98.46,9.84,98.55Z"/><path class="cls-3" d="M11.63,106.07l-.21-.55-.15.07s0,0,0,.06a.21.21,0,0,1-.06.08h-.06c0,.05,0,.11,0,.11s.17.05.12.17,0,.08,0,.12h.07a.41.41,0,0,0,.28.07A.14.14,0,0,0,11.63,106.07Z"/><path class="cls-3" d="M92.73,74.23a.07.07,0,0,0-.06-.07c-.06,0-.06,0,0,.09l0,.09h0A.12.12,0,0,0,92.73,74.23Z"/><path class="cls-3" d="M94.31,77h0c.1-.15,0-.23-.11-.31C94.12,76.81,94.28,76.86,94.31,77Z"/><path class="cls-3" d="M95.45,91.52h0l-.08-.06c-.06,0-.13-.12-.21,0s0,.15,0,.21.1.18.24.18S95.44,91.62,95.45,91.52Z"/><path class="cls-3" d="M82.75,91.71c.1,0,.11-.06.12-.13a.22.22,0,0,0-.21-.13.51.51,0,0,1,0,.13C82.64,91.66,82.67,91.71,82.75,91.71Z"/><path class="cls-3" d="M21.16,89.36a.1.1,0,0,0,.07.11c.07,0,.1,0,.13-.09a.49.49,0,0,1,0-.21c.11-.24,0-.46,0-.7a.1.1,0,0,0-.13-.09c-.06,0-.06.06-.06.1s0,.23,0,.35A.69.69,0,0,1,21.16,89.36Z"/><path class="cls-3" d="M22.52,87.26a.18.18,0,0,0-.1-.11c-.11,0-.21-.14-.34,0h0a.1.1,0,0,0,0,.07.09.09,0,0,0,0,.07s.05.09.07.14h.08a.24.24,0,0,0,.2,0A.19.19,0,0,0,22.52,87.26Z"/><path class="cls-3" d="M69.63,48.19c0,.07-.13.14,0,.21s.13-.07.2-.08a.1.1,0,0,0,.08-.13c0-.07-.09-.07-.15-.06Z"/><path class="cls-3" d="M83.86,56.53c0-.13-.06-.19-.14-.27s0,.13-.06.2a.1.1,0,0,0,.07.07h0A.08.08,0,0,0,83.86,56.53Z"/><path class="cls-3" d="M24.39,68.23a.09.09,0,0,0-.07-.09c-.06,0-.09,0-.09.07a.08.08,0,0,0,.06.1A.1.1,0,0,0,24.39,68.23Z"/><path class="cls-3" d="M27.63,66.13c.07.08.12,0,.18,0l.05,0c0-.15-.12-.11-.19-.07A.11.11,0,0,0,27.63,66.13Z"/><polygon class="cls-3" points="27.86 66.05 27.86 66.05 27.86 66.06 27.86 66.05"/><path class="cls-3" d="M27.94,65.8c0,.23.18.07.28,0h.07c.12.07.16-.06.24-.08a.44.44,0,0,0,.15-.12.1.1,0,0,0,0-.13.2.2,0,0,1-.15-.07.53.53,0,0,0-.43.27h0A.19.19,0,0,1,27.94,65.8Z"/><path class="cls-3" d="M27.43,66.38c-.05,0,0,.08,0,.11l.07-.08S27.47,66.35,27.43,66.38Z"/><path class="cls-3" d="M26.64,59.88s0-.07-.06-.07-.1,0-.12.09,0,.07.06.07S26.63,60,26.64,59.88Z"/><path class="cls-3" d="M26.36,58c-.1,0,0-.19-.18-.22s0,.27-.1.36,0,.22,0,.32,0-.12.11-.15,0,.23.2.18A1.35,1.35,0,0,1,26.36,58Z"/><path class="cls-3" d="M37,49.63V49.5h-.14C36.79,49.68,36.93,49.63,37,49.63Z"/><path class="cls-3" d="M90.73,66.48h0c-.09.17-.33.09-.46.27h.38c.11,0,.19-.08.3,0s.07,0,.07-.09L91,66.55C90.89,66.47,90.79,66.54,90.73,66.48Z"/><path class="cls-3" d="M92.45,63.43c0,.19,0,.22.21.28,0,0,.14,0,.08-.09s-.07-.17.09-.16,0-.05,0-.08l-.07-.08C92.67,63.32,92.48,63.18,92.45,63.43Z"/><path class="cls-3" d="M92.16,63h0l0,0v0c.1.15.2.19.31,0s.07-.06.11-.09,0-.15-.13-.1S92.25,63,92.16,63Z"/><path class="cls-3" d="M88,59.36h0c.1,0,.18.13.33.1C88.17,59.35,88.1,59.21,88,59.36Z"/><path class="cls-3" d="M84.67,105.46c0,.05,0,.1.08.09s0-.07,0-.11l0-.06h0S84.68,105.43,84.67,105.46Z"/><path class="cls-3" d="M18.12,77.3l.1.14a.27.27,0,0,0,.28.17c.05,0,.1,0,.14,0h0A.42.42,0,0,0,18.12,77.3Z"/><path class="cls-3" d="M19.21,77.3c.22-.06,0-.13,0-.2s-.21,0-.2.11S19.14,77.32,19.21,77.3Z"/><path class="cls-3" d="M20.28,77.17a.14.14,0,0,1,0,.06l.13.07s.1,0,.14.1a.11.11,0,0,0,.08,0,.15.15,0,0,0,.11-.2.18.18,0,0,0-.05-.07.67.67,0,0,0-.15-.06h0l-.07,0h0C20.33,77,20.21,77,20.28,77.17Z"/><path class="cls-3" d="M77.58,74.91a.2.2,0,0,0,0,.08s0,.07.06.11l.05.06h0a.51.51,0,0,1,.06.36c0,.14,0,.22.17.24h.06a.11.11,0,0,0,.06.09h0V76l.06,0h0c0,.1,0,.23.12.28a.39.39,0,0,0,0-.51h0l0,0c0-.11,0-.22-.06-.31A.61.61,0,0,1,78,75.3h0s0,0-.06-.07l-.16-.33C77.71,74.82,77.64,74.86,77.58,74.91Z"/><path class="cls-3" d="M85.73,95.94l-.15.13s-.19.09,0,.15a.36.36,0,0,0,.29,0h0c.07-.12.14,0,.21,0l0,0v-.06s0,0,0-.05a.91.91,0,0,0,0-.33H86.1l-.3.13Z"/><path class="cls-3" d="M63.66,71.41c0-.09-.09-.1-.17-.11s-.21,0-.22.16a.09.09,0,0,0,.11.11A.36.36,0,0,0,63.66,71.41Z"/><path class="cls-3" d="M69.87,84.8c-.11.06-.07.19-.17.23l-.06.07-.09.06a.14.14,0,0,0,0,.09.19.19,0,0,0,.1.1h.1c.18,0,.09-.19.18-.26h0C69.91,85,70,84.89,69.87,84.8Z"/><path class="cls-3" d="M61.55,72.61c-.08-.18-.09-.18-.35-.06,0,.13.14.17.17.31C61.42,72.73,61.45,72.65,61.55,72.61Z"/><path class="cls-3" d="M66.36,78.26c0,.08,0,.17-.08.22v.27h0c0,.08,0,.17.06.21s.17.1.28.07c0-.2-.05-.41.14-.57-.14-.07-.22.09-.32,0S66.45,78.32,66.36,78.26Z"/><path class="cls-3" d="M66.81,78.05c-.07.22.09.41,0,.63.14,0,.13-.11.14-.2s-.06-.29.06-.42,0-.25-.17-.23S66.83,78,66.81,78.05Z"/><path class="cls-3" d="M72.73,76.71a.08.08,0,0,0,.1.07c.1,0,.12-.1.12-.18s0,0-.08-.06S72.72,76.61,72.73,76.71Z"/><path class="cls-3" d="M83.16,91.17l.07.07c.1-.17.09-.21-.08-.28h0s-.05.05-.06.08v.06Z"/><path class="cls-3" d="M72.43,71.85a.84.84,0,0,1,.07.35c0,.11.09.23.25.15s.11-.18,0-.29a.17.17,0,0,1,0-.07s0-.1-.07-.14l0,0s0,0,0,0a.55.55,0,0,0,0-.18s0-.11,0-.15h0c-.08-.06-.18,0-.27,0s-.15.07-.14.17S72.32,71.81,72.43,71.85Z"/><path class="cls-3" d="M71.85,84.27c-.11,0-.13.07-.14.16s0,.19-.08.25a2.44,2.44,0,0,0-.2.7l0,.12h0l0,0a.43.43,0,0,0-.07.35c0,.1,0,.19.19.12l.08-.07a.93.93,0,0,1,.09-.4l0,0h.07a.13.13,0,0,0,0-.14h0a1.62,1.62,0,0,1,0-.49A2,2,0,0,0,71.85,84.27Z"/><path class="cls-3" d="M66.21,80.28a.21.21,0,0,1-.07.13c0,.14,0,.14.18,0l0,0a.19.19,0,0,0,0,.12c.11.05.16.18.28.21a.07.07,0,0,0,.07,0c0-.11.1-.22,0-.33s-.13-.31-.35-.21C66.24,80.13,66.27,80.27,66.21,80.28Z"/><path class="cls-3" d="M71.16,86.88c-.22.07-.17.28-.23.43a.29.29,0,0,0,.06.27.35.35,0,0,0,.21-.07,2.26,2.26,0,0,0,0-.26C71.24,87.12,71.3,87,71.16,86.88Z"/><path class="cls-3" d="M66.78,84.54v-.12l-.14.06a.57.57,0,0,1,0,.13c0,.13,0,.28.16.35h0A.56.56,0,0,0,66.78,84.54Z"/><path class="cls-3" d="M69.13,82h0c.05,0,.11.17.14,0s0-.16,0-.16S69.14,81.93,69.13,82Z"/><path class="cls-3" d="M65.31,67.68c.07.06.13,0,.18,0h0c-.06,0-.07-.13-.16-.07S65.27,67.65,65.31,67.68Z"/><path class="cls-3" d="M66.06,63.23s0,.1,0,.06S66.09,63.24,66.06,63.23Z"/><path class="cls-3" d="M70,54.1c.05,0,.1,0,.14-.05s.11-.13.05-.22-.08,0-.12,0L70,54S69.93,54.06,70,54.1Z"/><path class="cls-3" d="M66.13,51.85a.29.29,0,0,0,0-.09l0,0,0,.07Z"/><path class="cls-3" d="M38.59,61.23a.1.1,0,0,0,.07,0h.12l.07,0a.21.21,0,0,0,.1-.06l.07-.06c0-.08,0-.14-.07-.14l-.06,0a.62.62,0,0,1-.29.12Z"/><path class="cls-3" d="M42.89,59.44l-.16.05H42.6c-.1.11-.27,0-.37.13a.16.16,0,0,1-.06.08h0c0,.06.09.07.15.08a3.53,3.53,0,0,1,.64-.16C43,59.55,43.08,59.45,42.89,59.44Z"/><path class="cls-3" d="M10.77,97.17a.12.12,0,0,0-.14-.06l-.07.07C10.64,97.39,10.7,97.16,10.77,97.17Z"/><polygon class="cls-3" points="92.38 72.33 92.38 72.33 92.38 72.34 92.38 72.33"/><path class="cls-3" d="M92.21,72.1a3.26,3.26,0,0,0-.45-.09.19.19,0,0,0-.16.06c0,.11,0,.19.14.2a.29.29,0,0,1,.22,0l.06,0h.36C92.47,72.16,92.31,72.14,92.21,72.1Z"/><path class="cls-3" d="M92.58,73.19s0,0,0,0,.06.08.12.09h0C92.66,73.25,92.66,73.19,92.58,73.19Z"/><path class="cls-3" d="M91.31,72l-.38,0c.11.19.37.07.45.26.1,0,.15,0,.09-.14l-.1-.13Z"/><path class="cls-3" d="M90.5,72c0,.08.06.14.16.17s0,0,.07.06c.24-.07,0-.14,0-.21S90.56,71.86,90.5,72Z"/><path class="cls-3" d="M92.69,71.89c.12.21,0,.33-.16.44h0s.11,0,.15.07a.23.23,0,0,1,.15.07h.05a.11.11,0,0,1,.15,0h0a.24.24,0,0,0,.09,0,.17.17,0,0,0,.1,0,.15.15,0,0,0,.1.11h0a10,10,0,0,0,1.25.11c-.08-.12-.2-.08-.26-.17l-.21-.08a1.93,1.93,0,0,0-.42-.06h-.28s0,0,0-.06a.65.65,0,0,0-.43-.13c-.1-.15,0-.37-.2-.5A.13.13,0,0,0,92.69,71.89Z"/><path class="cls-3" d="M92.39,79.07c0,.05,0,.08.08.07a.13.13,0,0,0,0-.09.06.06,0,0,0-.05-.06C92.4,79,92.39,79,92.39,79.07Z"/><path class="cls-3" d="M16.29,86a.17.17,0,0,1-.15-.07l-.29.07h0a.08.08,0,0,0,0,.13c.1,0,.21,0,.28.07a.4.4,0,0,0,.28-.07A.12.12,0,0,0,16.29,86Z"/><path class="cls-3" d="M78.51,55h0a2,2,0,0,0-.06.23s0,.08.09.1.08,0,.09,0,.25-.33.09-.57C78.62,54.84,78.63,55,78.51,55Z"/><path class="cls-3" d="M85.09,58.53l.07.07a.23.23,0,0,0,.28-.13h0a.23.23,0,0,1-.07-.07h0C85.11,58.34,85.11,58.34,85.09,58.53Z"/><path class="cls-3" d="M85.37,60.54h0s-.05,0-.08-.06h-.13l0,0a0,0,0,0,1,0,0L85,60.41c-.05-.06-.12,0-.19,0s-.17,0-.24,0h0a.06.06,0,0,0-.08,0h0a.24.24,0,0,1-.23,0h-.35c-.09,0-.14-.15-.24,0a0,0,0,0,0,0,.06c.06.11.17,0,.26.06v.07a.36.36,0,0,0,.12.08.67.67,0,0,1,.18.07,3,3,0,0,0,1,.19C85.26,60.73,85.38,60.72,85.37,60.54Z"/><path class="cls-3" d="M80.94,58.75l.07-.07v-.17c0-.21-.08-.07-.15,0a.13.13,0,0,1,0,.06C80.84,58.62,80.76,58.73,80.94,58.75Z"/><path class="cls-3" d="M81.72,58.6h.14v-.14C81.76,58.46,81.71,58.51,81.72,58.6Z"/><path class="cls-3" d="M83.15,60.12a.1.1,0,0,0-.06,0L82.94,60a1.13,1.13,0,0,0-.27-.13l-.12,0-.07,0-.12,0h-.08a.34.34,0,0,1-.2,0,.24.24,0,0,0-.12,0s-.07,0-.1,0l-.09,0c-.18,0-.16.11-.07.22a.28.28,0,0,0,.17.09c.1,0,.19-.06.28,0a2.32,2.32,0,0,1,.38.07,1.37,1.37,0,0,0,.48.13c0,.05.11,0,.14.08h0C83.31,60.27,83.23,60.2,83.15,60.12Z"/><path class="cls-3" d="M83.08,59.92h0c.11.06.26,0,.36.14h0c.08,0,.14,0,.14-.13a.5.5,0,0,0-.49-.14S83,59.87,83.08,59.92Z"/><path class="cls-3" d="M79.16,57.22c.06,0,.13.09.16,0s.11-.23-.09-.25l-.06.08Z"/><path class="cls-3" d="M87.22,59.1c.17-.13-.08-.2,0-.31s-.09-.1-.16-.12c-.24,0-.24,0-.2.14l.07.06C87,59,87,59.15,87.22,59.1Z"/><path class="cls-3" d="M86.37,58.2c-.11,0-.15,0-.14.13l.07.06C86.51,58.39,86.4,58.28,86.37,58.2Z"/><path class="cls-3" d="M72.28,51.64a.13.13,0,0,1,.14-.07.38.38,0,0,1,.13-.24s.1-.09,0-.14a.13.13,0,0,0-.19,0c-.09.17-.31.24-.41.41,0,0,0,0,0,0s-.17,0-.1.15.12,0,.18,0S72.19,51.7,72.28,51.64Z"/><path class="cls-3" d="M72.5,50.81h0a0,0,0,0,0,0,.06h0l.07.06a.06.06,0,0,0,.06,0l.09-.13s0,0,0-.06S72.55,50.74,72.5,50.81Z"/><path class="cls-3" d="M71.43,49.72c0,.06,0,.15.06.17s.13-.06.14-.13,0-.21-.13-.12Z"/><path class="cls-3" d="M28.66,62c.08,0,.06-.12,0-.18a1.51,1.51,0,0,0-.11-.22s0,0-.08-.06-.18.09-.06.33c0,0,0,0,0,.05S28.58,62.08,28.66,62Z"/><path class="cls-3" d="M27.23,67.68c.05.17.24,0,.37,0h.11a.41.41,0,0,0,.3-.1c.1-.19.31-.29.43-.48h.07c0-.1,0-.2-.07-.27,0-.23,0-.24-.22-.15s-.25.27-.43.35l-.21.34C27.42,67.43,27.18,67.49,27.23,67.68Z"/><path class="cls-3" d="M27.15,61.78l-.07-.07h0a.1.1,0,0,0-.14,0A.33.33,0,0,0,27,62C27.17,62,27.16,61.88,27.15,61.78Z"/><path class="cls-3" d="M27.3,59.44s.07-.1,0-.15-.11,0-.16,0l-.08.07a.15.15,0,0,0,.15.15Z"/><path class="cls-3" d="M26.71,61s0,0-.05,0,0,.13.11.14l0-.06C26.78,61.05,26.8,61,26.71,61Z"/><path class="cls-3" d="M93,71.88l.38.19c.08,0,.17,0,.24,0a.33.33,0,0,0-.17-.18C93.31,72,93.16,71.8,93,71.88Z"/><path class="cls-3" d="M92.81,67.79h-.14a.57.57,0,0,1,0,.13h.07c.12,0,.26,0,.36-.08h0C93,67.78,92.89,67.86,92.81,67.79Z"/><path class="cls-3" d="M90.17,66.88c-.23-.08-.43.08-.64.07a.18.18,0,0,0-.14,0,.09.09,0,0,0-.06.06.14.14,0,0,0,0,.17c.07.06.14.18.21,0s.44,0,.65-.06h0Z"/><path class="cls-3" d="M87.44,62.34c0-.05-.1,0-.14-.08h0l-.07-.06h0a.06.06,0,0,0-.09,0,.12.12,0,0,0,0,.08,1.75,1.75,0,0,0,.08.51.22.22,0,0,0,0,.08s.09,0,.14,0c0-.18-.05-.37.07-.54Z"/><path class="cls-3" d="M91.23,63c-.07,0-.15,0-.2.06s.06.15.17.16S91.22,63.1,91.23,63Z"/><path class="cls-3" d="M91.83,63.26l-.09,0h0S91.78,63.32,91.83,63.26Z"/><path class="cls-3" d="M21.26,75s-.06,0-.11,0l-.07.12h.06C21.19,75.09,21.26,75.1,21.26,75Z"/><path class="cls-3" d="M76,72a.22.22,0,0,0,.36.1l-.12-.17c-.07,0,0-.12-.08-.17a.2.2,0,0,0-.34-.05C75.92,71.81,76,71.9,76,72Z"/><path class="cls-3" d="M79.11,98.32l-.16,0a.28.28,0,0,0-.16.19c0,.07.09.07.16.08s.32,0,.47-.09C79.55,98.17,79.24,98.36,79.11,98.32Z"/><path class="cls-3" d="M79.72,96.89a1.07,1.07,0,0,1-.15.22c0,.06,0,0,.08.06s0,0,0,0,0,0,0,0h0c.07-.06.16,0,.22-.07h0c.18,0,.28-.13.08-.27h-.14S79.76,96.85,79.72,96.89Z"/><path class="cls-3" d="M82.79,97.31c-.17.11-.45,0-.57.21h0a.2.2,0,0,0-.08.08h-.06v0l-.15.07-.19,0h-.16l-.08,0-.1,0a.44.44,0,0,1-.16,0,.09.09,0,0,0-.07,0c0,.11,0,.19.14.2a6.28,6.28,0,0,1,.86-.19c.16,0,.26-.17.42-.09a.16.16,0,0,0,.21-.07c.13,0,.2-.13.29-.2l0-.07c0-.06-.09-.15-.19-.14s-.11,0-.15.07Z"/><path class="cls-3" d="M85.19,95.64c0,.08.06.07.11.09h0c0-.06,0-.12-.09-.12S85.19,95.63,85.19,95.64Z"/><path class="cls-3" d="M70.64,89.45v.34h.06a.31.31,0,0,0,.07-.2C70.7,89.57,70.74,89.45,70.64,89.45Z"/><path class="cls-3" d="M65.13,81.16a.42.42,0,0,1-.21.08c0,.05-.11.09-.15.14s-.1.12,0,.17.11,0,.17,0,.27-.11.29-.28Z"/><path class="cls-3" d="M65.2,79.92s0,0,0,.07h.2c0-.15,0-.2-.19-.12A.13.13,0,0,0,65.2,79.92Z"/><path class="cls-3" d="M66.63,74.75v-.13c0-.07,0-.16-.12-.05S66.5,74.75,66.63,74.75Z"/><path class="cls-3" d="M70.85,86.27a.32.32,0,0,1-.14.14c0,.15.11.14.21.13a.11.11,0,0,0,.07-.06l.08-.14A.14.14,0,0,0,70.85,86.27Z"/><path class="cls-3" d="M67.2,75.13s0-.11,0-.16S67,74.85,67,75v.2C67.11,75.3,67.18,75.26,67.2,75.13Z"/><path class="cls-3" d="M67.2,74.75h.06l0-.13s0-.1-.07-.14h0c-.16-.08-.23,0-.3.14l-.06.15c0,.12,0,.13.14.07S67.15,74.84,67.2,74.75Z"/><path class="cls-3" d="M71.14,86.34a.19.19,0,0,0,.21.13c0-.11.05-.23-.06-.32A.23.23,0,0,1,71.14,86.34Z"/><path class="cls-3" d="M72.56,61.44h0c.07,0,.16.12.19,0s0-.11-.13-.11S72.55,61.38,72.56,61.44Z"/><path class="cls-3" d="M72.93,53.43h0c-.06.06,0,.15-.06.21h0a2.62,2.62,0,0,0,0,.28V54a.44.44,0,0,0,0,.34h0a.11.11,0,0,0-.09,0c-.07.15-.14.29,0,.45a2.46,2.46,0,0,0-.1.41c0,.21,0,.43-.09.63a2,2,0,0,0-.09.76h.08l0,0s0,0,.07-.06l0-.09a1.69,1.69,0,0,1,.07-.38,6.27,6.27,0,0,0,.18-1.37c0-.1,0-.21,0-.31l0-.05h.06c0-.16.1-.3.08-.47s0-.15.06-.21a1.34,1.34,0,0,0,0-.2.14.14,0,0,0-.08-.15h0S73,53.39,72.93,53.43Z"/><path class="cls-3" d="M71.06,52.84s0,0,0-.05,0,0,0,0,0,0,0,0S71,52.86,71.06,52.84Z"/><path class="cls-3" d="M31.89,63.81l.12-.05.07,0c.1,0,.1-.14.14-.22a4.31,4.31,0,0,1,.51-.62s.05,0,.06-.07h0c0-.05-.07-.06-.12-.06h0l-.09,0-.14.08c-.08,0-.17.06-.21.15s-.21.23-.29.36a.71.71,0,0,1-.1.14l0,0-.06.06-.07,0-.09.08a.11.11,0,0,0,0,.08.13.13,0,0,0,.07.09h.09l.11,0Z"/><path class="cls-3" d="M33.81,63.58a.15.15,0,0,0-.14-.07.17.17,0,0,1-.15.06c-.2,0-.25.13-.33.24s0,.1.11.11a.62.62,0,0,1,.43-.14A.16.16,0,0,0,33.81,63.58Z"/><path class="cls-3" d="M20.79,92.41v-.07a2.44,2.44,0,0,0,0-.27l0,0,0,0h.06s0,0,0-.07a.68.68,0,0,1-.07-.27h-.14v.55h-.06c0,.25,0,.28.2.27Z"/><path class="cls-3" d="M20.75,95.32a2.26,2.26,0,0,1,.63-.17.18.18,0,0,0,.07-.05c-.05-.15.11,0,.13-.11a.13.13,0,0,0,.06-.07c0-.17-.09-.17-.22-.1a.63.63,0,0,0-.24.13.34.34,0,0,1-.39,0v0a.21.21,0,0,0-.07-.13h0c.28-.06.12-.28.16-.43a8.83,8.83,0,0,1,0-.89,1,1,0,0,0,0-.24v0c0-.12-.15-.21-.06-.35s0,0,0-.06a.17.17,0,0,1-.07-.14c-.06,0-.1,0-.09.1s.07.27,0,.39a1.73,1.73,0,0,1-.12.9.23.23,0,0,0,0,.2.77.77,0,0,1,0,.34c0,.07,0,.14,0,.21s.05.22,0,.34a.31.31,0,0,0-.06.13.71.71,0,0,0,0,.14.13.13,0,0,0,.1.09.09.09,0,0,0,.08,0A.76.76,0,0,0,20.75,95.32Zm-.09-.67h0Z"/><path class="cls-3" d="M22.29,86h0s.05,0,.06-.08v-.13a.13.13,0,0,0-.21,0c-.06.08.05.11.09.15S22.27,86,22.29,86Z"/><path class="cls-3" d="M22.85,87.36A.25.25,0,0,1,23,87.3v-.11a.17.17,0,0,0-.18,0l0,0C22.78,87.24,22.77,87.32,22.85,87.36Z"/><path class="cls-3" d="M74,51.65v.13C74.07,51.74,74.08,51.69,74,51.65Z"/><polygon class="cls-3" points="71.85 52.19 71.85 52.19 71.85 52.19 71.85 52.19"/><path class="cls-3" d="M71.42,52.08a.19.19,0,0,0,0,.25c.06.06.16,0,.23,0a.27.27,0,0,0,.17-.11,1.08,1.08,0,0,1-.3-.46A2.84,2.84,0,0,1,71.42,52.08Z"/><path class="cls-3" d="M24.76,69.13c-.11,0-.12.08-.19.09h0s-.07.13,0,.11A.18.18,0,0,0,24.76,69.13Z"/><path class="cls-3" d="M28.87,65h0c.07.12.15,0,.22,0V65s0,0-.07,0h-.07Z"/><path class="cls-3" d="M26.07,68.61h0c-.05-.07-.13-.11-.17,0s.06.07.11.08h0Z"/><path class="cls-3" d="M31.73,69.37s0,.1.06.13c.3-.13.5-.41.79-.55,0-.09.23-.18,0-.27h-.06A4.71,4.71,0,0,0,31.73,69.37Z"/><path class="cls-3" d="M33,68.32l-.07,0-.06.07h0l-.07.06h0l-.07.07.08.08c.1,0,.22,0,.21-.15A.76.76,0,0,1,33,68.32Z"/><polygon class="cls-3" points="32.73 68.54 32.73 68.54 32.73 68.54 32.73 68.54"/><path class="cls-3" d="M30,65.55a.15.15,0,0,0,0,.07v0c.06.08.12,0,.17,0s0-.1.1-.13h0s.11,0,.14-.07h0a.27.27,0,0,0,.08-.07c.12-.09.13-.27.29-.33a.13.13,0,0,1,.13-.08.27.27,0,0,0,.08-.07h0c0-.07.06-.16.11-.23s0-.17-.17-.1-.19.28-.36.34a.56.56,0,0,0-.3.17.16.16,0,0,0,0,.08.5.5,0,0,1-.09.21l-.05.07-.05.1Z"/><path class="cls-3" d="M29.51,66c0-.1.23-.18.07-.33h0l-.1.06-.11.08h0c-.06.1-.09.18.07.21Z"/><path class="cls-3" d="M29.66,58.6l-.15,0-.07.06c-.05.07-.13.06-.2.08a.29.29,0,0,0,.41.05C29.65,58.74,29.66,58.67,29.66,58.6Z"/><path class="cls-3" d="M91.87,71.73c-.1,0-.21,0-.13.12C91.83,71.85,91.88,71.82,91.87,71.73Z"/><path class="cls-3" d="M87.37,61.65s0,0,0,.05l.56.09c.17,0,.13-.12.07-.22H87.8C87.66,61.6,87.49,61.51,87.37,61.65Z"/><path class="cls-3" d="M80,102.94c-.06.1,0,.19.11.23s.13-.19.2-.29v0s-.06-.1-.08-.1S80.09,102.85,80,102.94Z"/><path class="cls-3" d="M84.17,101.23s0-.07,0-.11h0a.46.46,0,0,1-.07.07A.07.07,0,0,0,84.17,101.23Z"/><path class="cls-3" d="M22.5,75.86l-.17,0s-.12,0-.15,0,0,.1.05.15.2,0,.28-.07A.13.13,0,0,1,22.5,75.86Z"/><path class="cls-3" d="M25.16,74c-.13,0-.24.08-.15.24s.17,0,.2,0,.29.08.44,0C25.57,74,25.34,74,25.16,74Z"/><path class="cls-3" d="M26.81,74c.06.1.15,0,.22,0a1.27,1.27,0,0,0,.35-.27c.23-.22.31-.56.55-.77,0-.11.09-.2,0-.35l-.36.43a.34.34,0,0,1-.11.18,2.41,2.41,0,0,0-.4.44h0l-.07.06a.25.25,0,0,1-.12.13C26.83,73.87,26.77,73.93,26.81,74Z"/><path class="cls-3" d="M77.21,94.7c-.08,0-.06.13-.07.2C77.34,94.88,77.26,94.79,77.21,94.7Z"/><path class="cls-3" d="M77.5,98.35a1,1,0,0,0-.5.13c0,.08.13.07.21.07S77.56,98.62,77.5,98.35Z"/><path class="cls-3" d="M78.16,98.15a.59.59,0,0,0,0,.13c0,.24,0,.24.25.13,0,0,0,0,.07-.06l0,0s0,0,0,0h.06a.61.61,0,0,1,.22-.2h.06c0-.06.07-.12-.06-.13S78.38,98.14,78.16,98.15Z"/><path class="cls-3" d="M77.93,98.2l-.14,0-.07,0v.06H78c.05,0,.09,0,.08-.07S78,98.22,77.93,98.2Z"/><path class="cls-3" d="M76.85,97.7a.09.09,0,0,0,.11-.07c0-.07,0-.09-.11-.11a.08.08,0,0,0-.1.06A.11.11,0,0,0,76.85,97.7Z"/><path class="cls-3" d="M80.85,101.4c-.16,0-.26,0-.26.18a.31.31,0,0,0,.19,0l.07-.06Z"/><path class="cls-3" d="M65.34,81.93v-.34c-.07,0-.13-.08-.18,0a.4.4,0,0,0,.11.47h0a.08.08,0,0,0,0-.11s0,0,0,0l0,0Zm-.08,0h0Z"/><path class="cls-3" d="M76.5,65.47s0,.07,0,.07.1-.05.1-.11,0-.09,0-.08S76.51,65.4,76.5,65.47Z"/><path class="cls-3" d="M65.91,88a.3.3,0,0,0,0-.1.2.2,0,0,0,0-.15,1.14,1.14,0,0,0-.23-.15.12.12,0,0,0-.1,0,.28.28,0,0,0-.06.18,1.93,1.93,0,0,0,0,.34,1.14,1.14,0,0,1,0,.55l0,.13V89a.2.2,0,0,0,.06.07h0c.06,0,.11,0,.09.11a.77.77,0,0,0,0,.37c0,.12.11.12.21.08s0,0,.06-.08h0c0-.07,0-.1-.06-.14s0,0,0-.06A2.48,2.48,0,0,1,65.91,88Z"/><path class="cls-3" d="M68.81,92.2h.1v-.06l-.06,0s-.09,0-.11,0S68.76,92.2,68.81,92.2Z"/><path class="cls-3" d="M68.66,92.49s0,0,0,0h0c0-.07,0-.15-.06-.19v.19h0Z"/><path class="cls-3" d="M68.64,91.44c.11,0,.2,0,.21-.13s-.14,0-.22,0Z"/><path class="cls-3" d="M65.78,83.71c.09,0,0,.25.2.15v-.14C65.92,83.71,65.85,83.6,65.78,83.71Z"/><path class="cls-3" d="M60.78,75.38c0,.08,0,.11.11.11a.53.53,0,0,0,.08-.25A.15.15,0,0,0,60.78,75.38Z"/><path class="cls-3" d="M46.25,68.33a.31.31,0,0,0,.29.06.18.18,0,0,0,.09-.06.1.1,0,0,0,0-.13h0a4.85,4.85,0,0,1-.49-.29h0a.16.16,0,0,1-.08-.06.46.46,0,0,0-.07-.07.23.23,0,0,1-.07-.07h0c-.13.06-.13.15,0,.24s.16.09.19.18h0l.08.06.07.07a.23.23,0,0,0,.07.07Z"/><path class="cls-3" d="M54.12,67.31v0l.08,0C54.2,67.28,54.15,67.31,54.12,67.31Z"/><path class="cls-3" d="M31.21,64.47s0,0,0-.07,0-.1.07-.13h0a.24.24,0,0,0-.22-.15l-.21.07a.23.23,0,0,1-.07.07h0a.13.13,0,0,0,.14.07s0,0,0,0,0,0,.05,0,.06,0,.07,0A.13.13,0,0,0,31.21,64.47Z"/><path class="cls-3" d="M89.73,71.3a.09.09,0,0,0-.15,0,.07.07,0,0,0,0,.11h0s.09.07.14,0V71.3Z"/><path class="cls-3" d="M81.65,71.85h0c.06-.07.16,0,.22-.06v-.08h-.35A.19.19,0,0,0,81.65,71.85Z"/><path class="cls-3" d="M22.39,83.94c0-.07-.09-.14-.19-.12s-.05.11-.06.17v.18l.12-.08C22.32,84.05,22.45,84.06,22.39,83.94Z"/><path class="cls-3" d="M79,59.3a.3.3,0,0,0,0,.1c0,.06-.06.14,0,.17a.15.15,0,0,0,.18-.08s0-.08,0-.13A.26.26,0,0,0,79,59.3Z"/><polygon class="cls-3" points="27.72 73.51 27.72 73.51 27.72 73.51 27.72 73.51"/><path class="cls-3" d="M27.7,73.54l0,0S27.68,73.53,27.7,73.54Z"/><path class="cls-3" d="M31.72,58.12c0-.09,0-.13-.13-.13a.23.23,0,0,0-.07.07C31.57,58.14,31.65,58.13,31.72,58.12Z"/><path class="cls-3" d="M88.57,67.07h0s0,0,0,0h0S88.57,67.06,88.57,67.07Z"/><path class="cls-3" d="M89.17,67l0,0,0,0Z"/><path class="cls-3" d="M89.63,70.6s-.06,0-.11,0v.12C89.58,70.67,89.65,70.67,89.63,70.6Z"/><path class="cls-3" d="M80.82,104.3c.06.07.12,0,.18,0v0c-.06,0-.11-.1-.18,0A.07.07,0,0,0,80.82,104.3Z"/><path class="cls-3" d="M77.72,104.21c0,.07,0,.2.11.14s.24,0,.24-.2h0a.23.23,0,0,0-.07-.07.16.16,0,0,0-.07,0l-.08.06Z"/><path class="cls-3" d="M23.43,74.61c-.05,0-.07-.11-.12-.09s0,.11,0,.15l.11.08h0A.65.65,0,0,0,23.43,74.61Z"/><path class="cls-3" d="M72.5,98.69s-.12.07-.09.12.1,0,.16,0,0-.09,0-.13Z"/><path class="cls-3" d="M76.5,99.1a.3.3,0,0,0,.29,0c0-.06.07-.14-.06-.15S76.51,99,76.5,99.1Z"/><path class="cls-3" d="M77.63,98.57c-.15,0-.27.08-.41.05s0,.14.07.2.23-.14.35-.2A.43.43,0,0,0,77.63,98.57Z"/><path class="cls-3" d="M73.64,99.1c0,.05-.11,0-.15.07h-.13l-.36.21c-.14,0-.25,0-.22.19s.18.13.3.07a1.51,1.51,0,0,1,.31-.16c.14-.07.37,0,.39-.25,0-.09,0-.13-.14-.14Z"/><path class="cls-3" d="M79.37,103.37h0s.09-.08.06-.14,0,0-.08,0S79.33,103.32,79.37,103.37Z"/><path class="cls-3" d="M74.26,105a.26.26,0,0,0-.27,0,4.5,4.5,0,0,0-1.16.07.33.33,0,0,1-.34-.07c-.13,0-.08.11-.15.13a.6.6,0,0,1-.35.08c-.26,0-.51.09-.77.07,0,.25.19.19.33.2s.38.08.5-.12l.06,0a9.54,9.54,0,0,0,1.51-.06,1.17,1.17,0,0,0,.6-.16S74.33,105,74.26,105Z"/><path class="cls-3" d="M75.76,100s0-.05,0-.08l-.28.07c0,.17.12.09.18.11A.1.1,0,0,0,75.76,100Z"/><path class="cls-3" d="M62.2,83.51s0,.12.09.11a0,0,0,0,0,0,0C62.32,83.52,62.25,83.52,62.2,83.51Z"/><path class="cls-3" d="M78.07,71.1s0,0,0,.05c.2,0,.21,0,.15-.13S78.1,71,78.07,71.1Z"/><path class="cls-3" d="M65.51,86.63s0,.07.06.07.06,0,.05,0,0-.07-.05-.07S65.51,86.59,65.51,86.63Z"/><path class="cls-3" d="M59.6,78.84h-.11c-.08.08-.1.21-.23.26-.18.26-.16.32.14.34,0-.06,0-.15,0-.16C59.69,79.19,59.62,79,59.6,78.84Z"/><path class="cls-3" d="M60.68,77.93l-.06-.07c-.08,0-.18,0-.18.08s0,.19.16.18S60.69,78,60.68,77.93Z"/><path class="cls-3" d="M55.82,74l-.06-.13c-.1,0-.15,0-.14.14Z"/><path class="cls-3" d="M48.25,69.23c0,.1,0,.16.1.14s.49-.19.72,0l0-.09c-.13-.06,0-.21-.08-.27a.57.57,0,0,1-.35-.14c0,.11-.09.23-.26.2S48.26,69.13,48.25,69.23Z"/><path class="cls-3" d="M87.16,70.06h.06c.09-.1,0-.14-.07-.19h0C87,69.93,87,70,87.16,70.06Z"/><path class="cls-3" d="M82.15,71.24h-.07c-.07.08,0,.19-.06.27l.07.07h.13l.07-.07C82.45,71.31,82.22,71.32,82.15,71.24Z"/><path class="cls-3" d="M83,69.56s.1,0,.08-.09-.1,0-.15,0a0,0,0,0,0,0,0Z"/><path class="cls-3" d="M24.36,87.06s0,0-.05,0,0,0,0,0a0,0,0,0,0,.06,0S24.4,87.06,24.36,87.06Z"/><path class="cls-3" d="M37.31,84a.44.44,0,0,0-.15-.35,3.94,3.94,0,0,1-.36-.89c-.09.12,0,.26-.13.33-.05.22.17.33.22.52a1.62,1.62,0,0,0,.27.58C37.31,84.21,37.3,84.1,37.31,84Z"/><path class="cls-3" d="M38,86.29a.3.3,0,0,1,0-.22.94.94,0,0,0,0-.29c0-.24-.16-.43-.2-.66a.12.12,0,0,0-.08,0h0V85H37.6c-.05-.06-.1-.07-.15,0a.21.21,0,0,0,0,.31.67.67,0,0,1,.15.48.64.64,0,0,0,.07.27.13.13,0,0,1,.06.07l.08.21a.12.12,0,0,1,.08.12A.14.14,0,0,0,38,86.29Z"/><path class="cls-3" d="M36.52,85.31h-.11c-.06,0-.13,0-.14.06s0,.1.09.13.26,0,.37-.06S36.56,85.39,36.52,85.31Z"/><path class="cls-3" d="M35.29,72.76h-.12c0,.12-.06.26.13.28S35.32,72.85,35.29,72.76Z"/><path class="cls-3" d="M26.72,79.51a.12.12,0,0,0,.14-.14.36.36,0,0,0-.28-.13c0,.13.06.2.14.27Z"/><path class="cls-3" d="M69.81,97.79s0,.07,0,.11.08,0,.13,0v-.07S69.84,97.78,69.81,97.79Z"/><path class="cls-3" d="M71.75,98.92c.23.06.23.06.25-.09C71.91,98.84,71.8,98.81,71.75,98.92Z"/><path class="cls-3" d="M69.38,102.33c0,.13-.14.18-.25.22l-.08.14c0,.09,0,.1.11.11h.09l.09,0c.12-.06.28-.06.36-.2l-.14-.13a.15.15,0,0,0-.07-.14S69.39,102.29,69.38,102.33Z"/><path class="cls-3" d="M73.57,101l-.07.06c-.06.11,0,.17.1.13s.26-.14.4-.2.1,0,.14-.07h0c0-.08-.14-.07-.22-.07a.12.12,0,0,1-.08.06Z"/><path class="cls-3" d="M75.12,105.21s0,.07.08.09l.08-.06C75.24,105.18,75.17,105.14,75.12,105.21Z"/><path class="cls-3" d="M60.8,91.49a.15.15,0,0,0,0,.23l.09-.13a.21.21,0,0,1,.06-.08h0C60.93,91.45,60.86,91.42,60.8,91.49Z"/><path class="cls-3" d="M65.49,88.21c0-.1-.1-.15-.2-.07a.91.91,0,0,0-.07.14C65.35,88.38,65.44,88.38,65.49,88.21Z"/><path class="cls-3" d="M79.08,63.78c0,.1,0,.14.14.14A.13.13,0,0,0,79.08,63.78Z"/><path class="cls-3" d="M47.14,70.74a.28.28,0,0,0,0,.09.36.36,0,0,0,.07.1l0,0,.13-.06c.11,0,.27,0,.28-.14h0c-.14-.1-.38-.09-.35-.35-.07,0-.12,0-.16,0S47.14,70.64,47.14,70.74Z"/><path class="cls-3" d="M48.11,71.05s0,0,0,0,.06.07.11.09h0S48.19,71.05,48.11,71.05Z"/><path class="cls-3" d="M46.14,69.78h.1a.24.24,0,0,0-.06-.08s-.08-.06-.11,0S46.09,69.77,46.14,69.78Z"/><path class="cls-3" d="M47.19,69.37c0,.19.17.16.28.2.17-.14,0-.18-.08-.27l-.15-.13a.14.14,0,0,0-.06.13A.17.17,0,0,0,47.19,69.37Z"/><path class="cls-3" d="M21.79,96.89c-.07,0-.16,0-.24,0,.11,0,.21.06.29,0Z"/><path class="cls-3" d="M23.43,97.93c.06-.07,0-.16.07-.23v-.32h0c0-.09,0-.19-.12-.19,0,.06,0,.11,0,.17h0a.06.06,0,0,0,0,.09h0a0,0,0,0,1,0,.07v.13s0,.11-.06.14h0c0,.08,0,.22.15.14Z"/><path class="cls-3" d="M86.59,69.94h-.06s0,0,0,0a.09.09,0,0,0,.09,0S86.62,70,86.59,69.94Z"/><path class="cls-3" d="M26.36,92.89a1,1,0,0,0,0-.34c0-.06-.05-.06-.09-.07-.12.17-.07.4-.22.55h0c0,.08-.07.16,0,.22s.15,0,.21-.07a.34.34,0,0,0,.06-.24Z"/><path class="cls-3" d="M84.51,66.34a1.1,1.1,0,0,1-.57-.28h0l-.08,0c0-.13-.27,0-.31-.16a.51.51,0,0,1,0-.22c0-.06,0-.15-.13-.23,0,.23-.07.34-.29.38.19.23.5.19.65.4a4.44,4.44,0,0,0,1,.56c.07,0,.15,0,.19-.06l-.06-.07c0-.07-.15-.08-.2-.15A.38.38,0,0,1,84.51,66.34Z"/><path class="cls-3" d="M28.43,85.23l.07-.06c0-.13.15-.21.15-.34s0-.16-.14-.08-.41.21-.29.49h0A.17.17,0,0,0,28.43,85.23Z"/><path class="cls-3" d="M27.86,87.31l-.14.06a.09.09,0,0,0-.14,0c0,.06,0,.09.08.12h.21A.15.15,0,0,0,27.86,87.31Z"/><path class="cls-3" d="M37.52,84.61s0,0,0,0c-.18-.11-.2-.1-.22.11a.2.2,0,0,1,.08.14C37.48,84.77,37.43,84.65,37.52,84.61Z"/><path class="cls-3" d="M37.16,79c-.09,0-.12-.16-.22-.09s0,.16,0,.24v0h.14A.19.19,0,0,0,37.16,79Z"/><path class="cls-3" d="M36.27,74.66l0,.06,0,0s0,0,0-.06Z"/><path class="cls-3" d="M70.85,99.72l-.15.07c-.3.11-.3.11-.43-.18,0,0,0,0-.13,0h0a.28.28,0,0,1,0,.29h0a0,0,0,0,0,0,.07h0a.17.17,0,0,1,0,0c0,.14,0,.19.15.14h0l0,0c.24.07.37-.12.53-.23l.13-.08.07-.06s.06-.1,0-.14S70.89,99.7,70.85,99.72Z"/><path class="cls-3" d="M70.78,101a.18.18,0,0,0,.29,0h.2s.22-.09,0-.14H71C70.84,100.76,70.79,100.84,70.78,101Z"/><path class="cls-3" d="M71.17,99.93h.25l.08-.06s.07-.07.07-.11,0,0-.07,0A.42.42,0,0,0,71.17,99.93Z"/><path class="cls-3" d="M71.34,99.53h-.2c0,.06-.08.14,0,.18s.13,0,.17-.08S71.33,99.56,71.34,99.53Z"/><path class="cls-3" d="M67.49,102.28c-.16-.07-.31,0-.46,0a.29.29,0,0,0-.13.08.1.1,0,0,0,0,.14.08.08,0,0,0,.07,0s.1,0,.15-.06h.21c.08-.07.2,0,.29-.06l.42-.08c-.12-.19-.28-.07-.43-.06Z"/><path class="cls-3" d="M70.41,101.17c-.09-.11-.22,0-.34-.06s.07.15.18.11Z"/><path class="cls-3" d="M70.2,105.79c-.2,0-.34.12-.34.34s0,.15.14.12l.13,0a.56.56,0,0,1,.43-.21s0,0,0-.07.21,0,.25-.09-.08-.12-.13-.18h0a.31.31,0,0,1-.23.06h0l-.08.06h0a.16.16,0,0,0-.07,0Z"/><path class="cls-3" d="M47.25,84.72c0,.06,0,.13-.07.18l0,0a.47.47,0,0,0,0,.26c0,.13,0,.29.14.36a.17.17,0,0,0,.1,0c0-.12-.12-.23,0-.35s0-.29.08-.41a.3.3,0,0,0-.07-.11S47.26,84.67,47.25,84.72Z"/><path class="cls-3" d="M56.26,89.79c0-.07.11-.14,0-.21h0a.11.11,0,0,0-.08,0,.57.57,0,0,1-.18,0l-.09,0-.2,0h-.59l.19.13c.14,0,.24,0,.22.2a.11.11,0,0,0,.07.14h.14v-.1l0,0,0,0a.16.16,0,0,1,.09,0c.07,0,0,.07,0,.11s-.08.17,0,.25h.19c.14,0,.33,0,.41-.11S56.24,89.94,56.26,89.79Z"/><path class="cls-3" d="M56.44,87.33l0,.09s.08.13.15.08.05-.17,0-.26v-.07h0l-.06-.08c0-.06,0-.12-.08-.19s-.06.18-.07.27S56.42,87.28,56.44,87.33Z"/><path class="cls-3" d="M51.43,89.19c-.14,0,0,.17,0,.25h0l.07.07h0c.08,0,.11,0,.14-.07v-.06C51.51,89.34,51.57,89.14,51.43,89.19Z"/><path class="cls-3" d="M58.47,87.3a.14.14,0,0,0,.11,0l.09-.07,0,0c0-.08,0-.16-.08-.21a1.48,1.48,0,0,0-.29.27A.14.14,0,0,0,58.47,87.3Z"/><path class="cls-3" d="M60.72,92.13c0,.08.06.11.12.14h0l.07-.06h0c0-.06,0-.13-.12-.12S60.72,92.1,60.72,92.13Z"/><path class="cls-3" d="M60.11,92.75c0,.18.1,0,.16,0h0a.15.15,0,0,0-.08-.14h0a.23.23,0,0,1-.07.07S60.11,92.73,60.11,92.75Z"/><path class="cls-3" d="M61.06,91.8c0,.15.08.08.14.06A.12.12,0,0,0,61.06,91.8Z"/><path class="cls-3" d="M60,92.9s0,.1-.08.13h0a.11.11,0,0,1-.07.06h-.07a.11.11,0,0,0-.07.11s0,.05.07,0h.29c0-.08,0-.16.08-.21V93c0-.12-.06-.12-.14-.07Z"/><path class="cls-3" d="M48.68,76l0,0a0,0,0,0,0,0,0,.13.13,0,0,0-.15.14.09.09,0,0,0,0,.07.06.06,0,0,0,0,.06l.13,0A.3.3,0,0,0,48.68,76Z"/><path class="cls-3" d="M27.22,82.27s-.09-.07-.14,0,0,0,0,.06.1,0,.16,0Z"/><path class="cls-3" d="M23.56,96.81c0-.08,0-.11-.12-.11v.19S23.55,96.89,23.56,96.81Z"/><path class="cls-3" d="M25.91,97.17a.69.69,0,0,0,0-.13.1.1,0,0,0-.14,0C25.79,97.12,25.82,97.17,25.91,97.17Z"/><polygon class="cls-3" points="25.79 97.04 25.79 97.04 25.79 97.04 25.79 97.04"/><path class="cls-3" d="M46.46,91.79h0a3.78,3.78,0,0,0,.21.56v.06c.22.31.22.31.23.48s.12.33.35.33a.22.22,0,0,0,.19-.17.21.21,0,0,0-.09-.23.09.09,0,0,0-.1,0h0a.2.2,0,0,0,.06-.17l0-.09a.27.27,0,0,0-.29-.21h0v-.1s0,0,0,0-.06-.15-.1-.21-.12-.37-.37-.37C46.43,91.67,46.41,91.72,46.46,91.79Z"/><path class="cls-3" d="M41.82,102.21a.16.16,0,0,1-.15-.06H41.6a.46.46,0,0,0-.07.07h0a.46.46,0,0,0,.07.07h.17S41.86,102.27,41.82,102.21Z"/><path class="cls-3" d="M39.81,91.13c0,.31,0,.35,0,.36s.06,0,.06,0A.25.25,0,0,0,39.81,91.13Z"/><path class="cls-3" d="M25.61,94.72c-.05.1-.1.2,0,.31l0,0a.23.23,0,0,0,.18,0h0a.23.23,0,0,0,.07-.07c0-.06.29,0,.06-.19-.06,0-.15.08-.2,0S25.63,94.66,25.61,94.72Z"/><path class="cls-3" d="M40.32,101.72a.09.09,0,0,0,.12-.06S40.34,101.66,40.32,101.72Z"/><path class="cls-3" d="M44.24,87.94c.06,0,.23,0,.14-.14s-.29,0-.42-.09h-.28v0c-.07,0-.15,0-.23,0a.47.47,0,0,0,.23,0,.16.16,0,0,1,.15.07l.07.06H44a.22.22,0,0,0,.19,0Z"/><path class="cls-3" d="M45.67,89.72l0,0a.35.35,0,0,1-.12-.19l0-.09a.34.34,0,0,0-.26-.24h0a.15.15,0,0,0-.14.07l.22.41c.06.06,0,.15.07.21h0l.08.06C45.63,90,45.68,89.87,45.67,89.72Z"/><path class="cls-3" d="M42,87.92H42l.07-.07v0L42,87.72v-.14a.21.21,0,0,0,.21-.06c-.08,0-.13,0-.15-.12l-.08,0,0,0c-.08,0-.15-.11-.24,0h0l.06.26s0,0,.06,0A.42.42,0,0,0,42,87.92Z"/><path class="cls-3" d="M40.76,79.29h0c0-.07,0-.15-.08-.19a.25.25,0,0,1-.14-.06c-.11.09-.09.18,0,.26v.07h.06s0,0,0,.06a.57.57,0,0,1,.15.26s0,.06.06.09h0c0,.09,0,.21.14.28s.07.11.15.13a.64.64,0,0,1,.08.33c0,.07,0,.16.06.22h0s0,.11.06.16a.18.18,0,0,1,.05.16s0,.05.07.05a.21.21,0,0,1,.29-.1h0a.14.14,0,0,0,0,.09,2,2,0,0,0,.18.32l.07.11,0,.07a.4.4,0,0,0,.18.24c.15,0,.21.11.28.21s.17.09.2,0a1.13,1.13,0,0,0-.2-.43l-.06-.08c-.13-.14-.17-.33-.3-.48h0L42,81c-.07,0-.13-.1-.22-.09s.07-.12,0-.15c-.21-.21-.34-.49-.61-.64h0a.54.54,0,0,0-.08-.35C41.05,79.56,41,79.37,40.76,79.29Z"/><path class="cls-3" d="M66.41,104.62c0-.16-.1-.14-.2-.13S66.32,104.62,66.41,104.62Z"/><path class="cls-3" d="M47.13,86.59c.09.09.14,0,.18,0v-.14a.11.11,0,0,1,0-.14v-.14c-.12-.06,0-.22-.15-.27C47,86.09,47.11,86.34,47.13,86.59Z"/><path class="cls-3" d="M53.18,91.86l.07-.07c0-.23-.17-.11-.28-.07v.07C53,91.88,53.1,91.86,53.18,91.86Z"/><path class="cls-3" d="M57.32,88c.07,0,.07-.06.09-.11s-.1-.14-.15-.21-.19,0-.18.12S57.21,87.93,57.32,88Z"/><path class="cls-3" d="M56.83,89.52c0,.07.08.16.17,0l0-.09s0-.11-.06-.15h0C56.81,89.36,56.84,89.44,56.83,89.52Z"/><path class="cls-3" d="M57.69,88.13h0s-.06,0-.09,0-.11,0-.12.09,0,0,0,0,.08,0,.12,0Z"/><path class="cls-3" d="M56.38,88.49c0,.05,0,.05.08.05a.09.09,0,0,0,.08-.1s0-.06-.07,0A.12.12,0,0,0,56.38,88.49Z"/><path class="cls-3" d="M56.62,89.1h0c.05.06.1.1.17,0a.07.07,0,0,0,0-.11C56.69,89,56.68,89.09,56.62,89.1Z"/><path class="cls-3" d="M55.69,90.56s0,0,0,.06h0s0,.1.07.13.07.06.12.06,0-.07,0-.12,0-.14-.07-.21h0s0,0-.05,0Z"/><path class="cls-3" d="M49.48,101.44a.15.15,0,0,0,0-.13s0-.06,0-.09a1.28,1.28,0,0,0-.21-.56c-.05,0-.1-.08-.17,0a.15.15,0,0,0,0,.07.14.14,0,0,0,0,.15,9.15,9.15,0,0,0,.3,1C49.52,101.74,49.44,101.58,49.48,101.44Z"/><path class="cls-3" d="M43.85,103s0,0-.06-.06-.13,0-.13.09,0,.05.07,0S43.85,103,43.85,103Z"/><path class="cls-3" d="M35.15,98.74c0-.1-.07-.13-.15-.15s-.1,0-.1.08.09.12.17.13S35.14,98.78,35.15,98.74Z"/><path class="cls-3" d="M45,87.51h-.15v.07l.07.07.21.14a.1.1,0,0,0,0-.14A.32.32,0,0,0,45,87.51Z"/><polygon class="cls-3" points="45.1 87.79 45.1 87.79 45.1 87.79 45.1 87.79"/><path class="cls-3" d="M44,85.65h0c.15,0,.2,0,.14-.14h0C44.08,85.52,44,85.56,44,85.65Z"/><path class="cls-3" d="M43.44,84.49c0,.14.15.18.23.26s.13.23.28.3c0-.12-.07-.2-.06-.3a.09.09,0,0,0,0-.13h0c-.17-.06-.17-.25-.3-.34h0a.46.46,0,0,1-.07-.07h0l-.06-.09s0-.05-.09-.05,0,.27,0,.41Z"/><path class="cls-3" d="M42.67,84.76h.1s0,0,0,0-.15-.15-.14-.27l-.07-.07C42.43,84.56,42.64,84.64,42.67,84.76Z"/><path class="cls-3" d="M45,87.93l-.22-.1c-.05,0-.13,0-.14,0s.06.07.09.12S45,88.17,45,87.93Z"/><path class="cls-3" d="M46.76,90.54l-.08-.07a.16.16,0,0,0-.08.15C46.67,90.62,46.73,90.61,46.76,90.54Z"/><path class="cls-3" d="M47.24,88.61a2.52,2.52,0,0,0,0,.55l.14-.06v-.21C47.27,88.83,47.36,88.68,47.24,88.61Z"/><path class="cls-3" d="M47.39,88.27a.08.08,0,0,1-.07,0c-.11.11,0,.13.07.14S47.45,88.32,47.39,88.27Z"/><path class="cls-3" d="M42.78,82.72a.11.11,0,0,0,.06-.07.15.15,0,0,0-.09-.1c-.15-.08-.21-.25-.36-.34,0,.16.07.28.14.41l.07.06h0A.17.17,0,0,0,42.78,82.72Z"/><path class="cls-3" d="M40.08,78.56l.23.34c.07,0,.07-.09.08-.16s-.06-.27-.21-.34S40.05,78.47,40.08,78.56Z"/><path class="cls-3" d="M52,105.11a.16.16,0,0,0-.08-.06l-.23-.07c-.13,0-.26-.12-.4,0s-.13,0-.15,0,.06.07.07.12a1.63,1.63,0,0,0,.5.07C51.77,105.16,51.89,105.21,52,105.11Z"/><path class="cls-3" d="M55.19,105.86a.17.17,0,0,0,.14.08h0s0-.07.06-.07h.14l.08.06h0c.08-.05.07-.13.07-.2l-.28-.08c-.16-.07-.31-.19-.5-.08,0,0,0,0,0,0v0l0,0h0s-.09,0-.12,0,0,.14,0,.21h.14A.26.26,0,0,1,55.19,105.86Z"/><path class="cls-3" d="M56.19,105.8v.13h.2a.15.15,0,0,0,.16,0h0a.93.93,0,0,0,.14-.14h0a.29.29,0,0,1,.08-.07h0c0-.07,0-.1-.09-.08S56.32,105.66,56.19,105.8Z"/><path class="cls-3" d="M56.77,106a1.68,1.68,0,0,0,.63.07c.05-.08,0-.1-.07-.14h-.2s-.11,0-.15-.06H56.9C56.87,105.93,56.72,105.86,56.77,106Z"/><path class="cls-3" d="M69.42,100.4l-.08,0a.13.13,0,0,0-.13,0l-.43.2-.08.07c-.1.08-.24,0-.36.06h-.2a.13.13,0,0,0-.15.06h0c-.1,0-.16.14-.29.13l-.07.07h-.07l-.07.07a.14.14,0,0,1-.15.06l-.35.07c-.09.05-.21,0-.29.07h0c-.13.19-.41.09-.54.28a.54.54,0,0,0,.56-.07.41.41,0,0,1,.27-.07h0c.06-.06.14,0,.21,0l.09,0c.1-.05.2-.12.32-.07s.19-.07.23-.16.32-.09.45-.2a.14.14,0,0,0,.14-.06.54.54,0,0,0,.35-.08s.09,0,.14,0H69a.55.55,0,0,1,.38,0,1.1,1.1,0,0,0,.54-.19h-.06c-.1,0-.11-.13-.13-.21h0a.13.13,0,0,1,0-.06c-.06-.08-.12-.08-.19,0A.24.24,0,0,1,69.42,100.4Z"/><path class="cls-3" d="M55.83,105.8h0a.18.18,0,0,0,.29,0,.46.46,0,0,0-.07-.07s0,0,0,0,0,0-.05,0h-.06Z"/><path class="cls-3" d="M56.37,101.79s0,.07.07.08h.1v-.06l-.06,0S56.39,101.73,56.37,101.79Z"/><path class="cls-3" d="M57.84,106c-.05,0-.1-.06-.15,0v.07h.07c.08,0,.16,0,.21-.06Z"/><path class="cls-3" d="M41.45,80.14c.08.08.12.21.27.24,0-.17-.08-.27-.12-.38h-.06A.15.15,0,0,0,41.45,80.14Z"/><path class="cls-3" d="M49.9,91.3h0a0,0,0,0,0,0,0s0,0,0,0,0,0,.07,0,.25,0,.34-.06l-.14-.13C49.93,91.08,49.93,91.08,49.9,91.3Z"/><path class="cls-3" d="M51.85,91.26s.07,0,.12,0v-.1c0-.06,0-.14-.1-.12S51.82,91.2,51.85,91.26Z"/><path class="cls-3" d="M57,89.93l.14.07s0,0,0-.06a.4.4,0,0,0-.09-.21C56.85,89.74,57,89.86,57,89.93Z"/><path class="cls-3" d="M59.19,93.16a.62.62,0,0,0,.46-.07.36.36,0,0,1-.32-.13h-.06C59.25,93,59.16,93.06,59.19,93.16Z"/><polygon class="cls-3" points="58.65 90.81 58.66 90.79 58.65 90.79 58.65 90.81"/><path class="cls-3" d="M67.14,97.44c-.06,0-.09.07-.07.13s.08,0,.13,0S67.25,97.43,67.14,97.44Z"/><path class="cls-3" d="M44,105a.13.13,0,0,0,0,.06c.14.14.13.34.21.5a.35.35,0,0,0,.14.2c.1-.08.06-.19.08-.29a1.34,1.34,0,0,1-.07-.53c0-.11-.1-.19-.16-.28h-.07C44.17,104.83,44.19,105,44,105Z"/><path class="cls-3" d="M47.45,95.6h-.1c-.06,0-.13,0-.14.06s.06.06.1.08l.09,0C47.48,95.74,47.46,95.67,47.45,95.6Z"/><path class="cls-3" d="M45.31,103.46l-.28-.08C45.1,103.54,45.14,103.55,45.31,103.46Z"/><path class="cls-3" d="M48.33,101.76c-.13,0-.14.08-.15.17h-.07a.13.13,0,0,0,0,.06c.13.11,0,.25,0,.37s.12-.08.19-.09a.45.45,0,0,0,.08-.27l0-.09C48.39,101.86,48.42,101.77,48.33,101.76Z"/><path class="cls-3" d="M47.74,92.69c-.08-.06-.05-.16-.07-.24s-.1-.1-.17,0a.61.61,0,0,0,0,.13,1.9,1.9,0,0,1,.14.48l.14-.13A1.48,1.48,0,0,0,47.74,92.69Z"/><path class="cls-3" d="M48.2,96.75h0a.56.56,0,0,1,.07.26,1.68,1.68,0,0,0,.13.58h0c.12.44.14.91.23,1.36.12.1,0,.27.14.36h0c0,.26.17.48.15.74l.06,0a.13.13,0,0,0,0,.06A.11.11,0,0,0,49,100l0-.06a.25.25,0,0,0,0-.08c0-.06,0-.11,0-.17a.29.29,0,0,0,0-.09,1.66,1.66,0,0,1-.11-.38.2.2,0,0,0,0-.08l0,0v0a.46.46,0,0,0,0-.2c0-.1,0-.2-.08-.3a3.15,3.15,0,0,0-.13-.61.82.82,0,0,1-.09-.34.28.28,0,0,0,0-.09.26.26,0,0,0-.05-.12h-.07a.19.19,0,0,0,0-.15,1.54,1.54,0,0,1,0-.43c0-.11,0-.23-.15-.25l0,0c-.07,0,0-.14-.13-.15A.5.5,0,0,0,48.2,96.75Z"/><path class="cls-3" d="M47.37,91.65s.07,0,.09.07a.14.14,0,0,0,.15-.06.3.3,0,0,0,.1-.19l0-.09-.11-.18,0,0c-.14.11,0,.31-.13.42h0S47.37,91.63,47.37,91.65Z"/><path class="cls-3" d="M47.1,91.86v.06s0,.11.06.11.08-.06.09-.11v-.13h-.07A.1.1,0,0,0,47.1,91.86Z"/><path class="cls-3" d="M47.4,89.58s0,0,0-.06c-.13.15-.06.31,0,.48C47.42,89.86,47.37,89.72,47.4,89.58Z"/><path class="cls-3" d="M47.82,88.34c-.07,0,0,.09,0,.14s.16,0,.16-.06S47.88,88.35,47.82,88.34Z"/><path class="cls-3" d="M50.39,104.91h0s0,.1.08.12h0c.14-.06.22-.14.06-.26h0l-.08-.05a.15.15,0,0,0-.13.06Z"/><path class="cls-3" d="M50.75,94.35h0c0,.05-.17,0-.13.11s.18.06.28,0h0C50.9,94.39,50.85,94.34,50.75,94.35Z"/><path class="cls-3" d="M52,93.86s0-.1,0-.14a.13.13,0,0,0,0-.06c-.12,0-.18.09-.28.13h0c0,.07,0,.13,0,.17a.08.08,0,0,0,.09,0h0Z"/><path class="cls-3" d="M57.06,90.2l.09.16a1.4,1.4,0,0,0,.1-.16C57.18,90.11,57.12,90.11,57.06,90.2Z"/><path class="cls-3" d="M57.61,91.66c-.1-.1,0-.23-.06-.35a.13.13,0,0,1,0-.06h0a.49.49,0,0,1,0-.12.86.86,0,0,1-.1-.16h0l-.09.08a.18.18,0,0,0,0,.2.13.13,0,0,1,0,.06s0,.11.07.15v.13a4.7,4.7,0,0,1,.21.9v0a.38.38,0,0,0,0,.21l0,0c.08,0,.15,0,.12-.12a.26.26,0,0,1,.09-.36.22.22,0,0,0,.06-.19C57.66,92,57.66,92,57.61,91.66Z"/><path class="cls-3" d="M48.18,90.89v-.06a.12.12,0,0,0,0-.15c0-.06-.09-.16-.14,0s0,.11-.07.15a.13.13,0,0,1,0,.06s0,0,0,.07V91C48.14,91.13,48.12,91,48.18,90.89Z"/><path class="cls-3" d="M57.92,95.45a.19.19,0,0,0-.25,0c0,.1.06.16.09.24S57.9,95.55,57.92,95.45Z"/><path class="cls-3" d="M56.4,96.77s0,.1.07.1.07-.05.07-.1a.09.09,0,0,0-.08-.09C56.39,96.68,56.4,96.73,56.4,96.77Z"/><path class="cls-3" d="M52,94.26s-.09,0-.13,0-.06,0-.06.08,0,0,.07,0,.16,0,.15.13-.08.13,0,.22a.88.88,0,0,0,.31-.39.83.83,0,0,1,0-.15c0-.09,0-.11-.1-.12S52.17,94.31,52,94.26Z"/><path class="cls-3" d="M51.82,95.72s0,0,0-.06a.23.23,0,0,1,.07-.07h0a.8.8,0,0,1,.13-.13c-.07-.07-.14,0-.21,0s-.22.37-.39.51l.12.06.19-.15C51.8,95.83,51.78,95.76,51.82,95.72Z"/><path class="cls-3" d="M51,100.55c-.1-.1-.19,0-.29,0C50.84,100.74,50.88,100.74,51,100.55Z"/><path class="cls-3" d="M53.47,100.11v0a.1.1,0,0,0-.14,0h0c0,.11-.15.23,0,.34v-.06l.06-.08a.17.17,0,0,1,.07-.13Z"/><path class="cls-3" d="M48,91.4h0s0,0,0,0h0Z"/></g></g><g id="Icon_Power" data-name="Icon Power"><rect class="cls-4" x="53.97" y="18.79" width="4.49" height="68.51" rx="2.24"/><rect class="cls-5" x="55.46" y="32.67" width="1.37" height="7.51" rx="0.69"/><rect class="cls-5" x="55.39" y="41.89" width="1.37" height="7.51" rx="0.69"/><path class="cls-6" d="M81.16,35.46l-9.54,15.9a.85.85,0,0,0,.73,1.3H91.63a.85.85,0,0,0,.73-1.3l-9.74-15.9A.85.85,0,0,0,81.16,35.46Z"/><path class="cls-7" d="M81.32,48l-.93-5.27c-.28-1.58.36-2,1.6-2s1.88.43,1.6,2L82.66,48Z"/><circle class="cls-7" cx="81.95" cy="49.98" r="1.37"/><g class="cls-8"><rect class="cls-4" x="53.26" y="11.48" width="5.86" height="89.42" rx="2.24"/><rect class="cls-5" x="55.2" y="30.59" width="1.79" height="9.8" rx="0.69"/></g><path class="cls-7" d="M56.21,58a16,16,0,1,1,16-16A16,16,0,0,1,56.21,58Zm0-31.32A15.32,15.32,0,1,0,71.53,42,15.33,15.33,0,0,0,56.21,26.65Z"/><line class="cls-9" x1="64.23" y1="28.6" x2="47.1" y2="54.89"/></g></svg>