<svg xmlns="http://www.w3.org/2000/svg" xmlns:xlink="http://www.w3.org/1999/xlink" viewBox="0 0 106 106"><defs><style>.cls-1{fill:none;}.cls-2{fill:#fff;}.cls-3,.cls-5{fill:#62bfb3;}.cls-4{clip-path:url(#clip-path);}.cls-5{fill-rule:evenodd;}</style><clipPath id="clip-path"><rect class="cls-1" x="1.17" y="119.27" width="106.08" height="27.76" rx="4.5"/></clipPath></defs><title>webIcons</title><g id="Icon_Cam_1" data-name="Icon Cam 1"><path d="M30.74,22.91v60.7c.84-.74,1.54-1.37,2.26-2a2.17,2.17,0,0,1,3.27,0c1.3,1.16,2.61,2.33,3.88,3.53a.75.75,0,0,0,1.24,0c1.2-1.14,2.45-2.23,3.68-3.35s2.31-1.26,3.68-.06,2.53,2.25,3.76,3.41a.72.72,0,0,0,1.18,0c1.13-1.06,2.28-2.09,3.42-3.13,1.69-1.56,2.6-1.55,4.26,0,1.13,1.06,2.32,2.06,3.43,3.12.47.45.78.44,1.24,0,1.25-1.18,2.54-2.32,3.81-3.47a2.19,2.19,0,0,1,3.34-.08c.7.6,1.39,1.23,2.11,1.87.31-.27.19-.6.19-.89q0-28.53,0-57.06c0-2.3,0-4.61,0-6.91a5.2,5.2,0,0,1,.09-1,2.23,2.23,0,0,1,2.26-2,2.2,2.2,0,0,1,2,2.32c0,2.1,0,4.2,0,6.3v63c0,.44,0,.88,0,1.31a2.12,2.12,0,0,1-1.21,2,2,2,0,0,1-2.36-.32c-1.33-1.18-2.66-2.36-3.95-3.59-.58-.55-1-.59-1.57,0-1.13,1.13-2.36,2.17-3.54,3.25s-2.38,1.18-3.69,0S61,87.69,59.83,86.52c-.46-.44-.76-.38-1.17,0-1.31,1.21-2.62,2.42-3.95,3.59a2.13,2.13,0,0,1-3.26,0c-1.3-1.16-2.61-2.33-3.88-3.53-.45-.43-.76-.47-1.23,0-1.24,1.2-2.54,2.33-3.81,3.49a2.28,2.28,0,0,1-3.49,0c-1.3-1.16-2.6-2.33-3.87-3.53-.41-.38-.67-.42-1.09,0-.95.9-1.94,1.76-2.92,2.63-.24.22-.46.45-.7.66-.83.74-1.7,1.41-2.9.85s-1.29-1.58-1.29-2.72q0-34.57,0-69.13c0-1.18,0-2.32,1.29-2.9s2.21.21,3.09,1C31.81,18,33,19,34.14,20.08c.36.33.6.32,1,0,1.23-1.16,2.5-2.28,3.74-3.42,1.42-1.3,2.47-1.29,3.88,0,1.19,1.12,2.44,2.18,3.62,3.31.47.45.78.42,1.23,0,1.27-1.2,2.57-2.37,3.88-3.53a2.13,2.13,0,0,1,3.26-.05c1.3,1.12,2.56,2.3,3.8,3.48.52.49.88.57,1.44,0,1.21-1.18,2.49-2.29,3.75-3.42a2.28,2.28,0,0,1,3.43,0l5.51,5,.31.31a2.18,2.18,0,0,1,.23,3.19,2.15,2.15,0,0,1-3.19,0c-1.27-1.12-2.55-2.23-3.75-3.41-.62-.62-1-.62-1.64,0-1.18,1.17-2.45,2.25-3.68,3.36a2.16,2.16,0,0,1-3.21.09Q55.79,23.31,54,21.54c-.58-.56-1-.67-1.67-.05-1.08,1.07-2.22,2.07-3.34,3.09-1.57,1.43-2.51,1.4-4.07,0-1.16-1.08-2.35-2.1-3.49-3.19a.76.76,0,0,0-1.25,0c-1.22,1.16-2.5,2.28-3.75,3.42s-2.26,1.16-3.52,0C32.21,24.19,31.53,23.61,30.74,22.91Z"/><path class="cls-2" d="M28.15,22.33v62.9a1.37,1.37,0,0,0,2.3,1L32.89,84a2.38,2.38,0,0,1,3.29.07l3.6,3.61a1.38,1.38,0,0,0,1.93,0l3.5-3.43a2.39,2.39,0,0,1,3.32,0l3.59,3.46a1.37,1.37,0,0,0,1.92,0l3.5-3.53a2.37,2.37,0,0,1,3.36,0l3.56,3.52a1.37,1.37,0,0,0,2,0l3.3-3.46a2.38,2.38,0,0,1,3.46,0L75,86.11a1.37,1.37,0,0,0,2.37-.94v-73l-3.71,9.67a2.2,2.2,0,0,1-3.63.75l-3.4-3.49a1.63,1.63,0,0,0-2.42.1L60.7,23.34a2.2,2.2,0,0,1-3.4,0l-3.26-4a1.62,1.62,0,0,0-2.56,0L48.61,23A2.21,2.21,0,0,1,45.07,23l-2.62-3.67a1.63,1.63,0,0,0-2.55-.13l-3.75,4.28a2.2,2.2,0,0,1-3.35,0L31,21.29A1.63,1.63,0,0,0,28.15,22.33Z"/><path class="cls-3" d="M52.41,68.84c.9,0,1.81,0,2.71,0s1.42-.48,1.42-1.2a1.29,1.29,0,0,0-1.43-1.22c-1.37,0-2.74,0-4.11,0a5.58,5.58,0,0,1-5.61-4.74,5.43,5.43,0,0,1,4.55-6.15C50.79,55.35,51,55,51,54.17a2.11,2.11,0,0,1,4.19-.5c.21,1.53.21,1.53,1.81,1.71a2.26,2.26,0,0,1,2,1.76,2.05,2.05,0,0,1-1.11,2.27,4,4,0,0,1-1.7.32h-5c-1.08,0-1.61.4-1.61,1.17s.62,1.26,1.66,1.27h3.94A5.49,5.49,0,0,1,56.51,73a4.29,4.29,0,0,1-.6.13c-.56,0-.74.37-.71.89a4.17,4.17,0,0,1,0,.79,2.11,2.11,0,0,1-4.19,0c-.21-1.55-.21-1.55-1.74-1.68a2.21,2.21,0,0,1-2.13-2,2.09,2.09,0,0,1,2.06-2.26c1.07-.1,2.15,0,3.23,0Z"/><path d="M53.13,33.11H65.37a1.94,1.94,0,0,1,1.9,1.16A2.12,2.12,0,0,1,67,36.51a2.27,2.27,0,0,1-2,.83H41.33a2.46,2.46,0,0,1-2.14-.76,2.13,2.13,0,0,1-.29-2.31,1.93,1.93,0,0,1,1.9-1.16H53.13Z"/><path d="M56.41,46.64H47.75c-1.5,0-2.36-.76-2.37-2.07a2.15,2.15,0,0,1,2.35-2.16H65.14a2.18,2.18,0,0,1,2.21,1.4,2.15,2.15,0,0,1-.63,2.39,2.29,2.29,0,0,1-1.56.44Z"/><path d="M41.16,46.64c-1.67,0-2.58-.88-2.44-2.34.14-1.31,1.24-2,3-1.88a2.19,2.19,0,0,1,2.13,2.3C43.71,46,42.81,46.64,41.16,46.64Z"/></g><g id="BUTTONS-3" data-name="BUTTONS"><g class="cls-4"><path class="cls-5" d="M1.08,78.8s0-.11,0-.16S1,78.58.9,78.6a1,1,0,0,1-.51.1,1.48,1.48,0,0,1,.83-.18l.05.08a.08.08,0,0,0,0-.09.43.43,0,0,1,.23-.14,5.21,5.21,0,0,1,1.71-.2c.1.06.21,0,.32,0a.08.08,0,0,0,.06-.08A.27.27,0,0,0,3.52,78a.78.78,0,0,0-.37,0c-.08,0-.06,0,0-.07l.06,0,.14,0,.08,0h0l-.08,0h.07a.13.13,0,0,0,0-.06h.21c.28,0,.58,0,.79-.27h.06c.09,0,.23,0,.22-.16s-.13-.07-.22,0a5.75,5.75,0,0,0-.71.2c-.11.09-.25,0-.36.08h0v.12l-.21,0a.25.25,0,0,0-.24.07h0c-.13,0-.27,0-.36.15s0,0,0,0a.44.44,0,0,0-.2,0l-.07,0c-.1-.07-.23,0-.32-.15s-.28-.08-.43,0-.12.12,0,.2-.06.15-.12.2a1.21,1.21,0,0,1-.2.09l-.05,0H1l-.07.08h0a3.79,3.79,0,0,0-1,.21v.21c.16.23.4.22.64.2H.73A.28.28,0,0,0,1.08,78.8Z"/><path class="cls-5" d="M.08,96.52a2.49,2.49,0,0,1,.07-.77c-.11,0-.14.07-.21.08v.07a.1.1,0,0,1,0,.14v.55C0,96.62.05,96.58.08,96.52Z"/><path class="cls-5" d="M44.43,40.28c.09.06.17.11.23,0l.12-.31h-.35C44.53,40.06,44.44,40.17,44.43,40.28Z"/><path class="cls-5" d="M.16,81.61s0,0,0-.06h-.2v.14C0,81.69.11,81.7.16,81.61Z"/><path class="cls-5" d="M87.53,46.48c.08-.08.18-.15.09-.28s-.12-.06-.15,0S87.41,46.39,87.53,46.48Z"/><path class="cls-5" d="M98.23,68l-.09.11c.06.11.13.21.28.12a.08.08,0,0,0,0,0s0-.06,0-.09,0-.11,0-.14S98.27,67.92,98.23,68Z"/><path class="cls-5" d="M50.86,49.06h0c-.09-.13,0-.34-.21-.42l-.07-.07c-.09,0-.23,0-.17.12a.94.94,0,0,0,.37.44C50.84,49.17,50.85,49.1,50.86,49.06Z"/><path class="cls-5" d="M105.22,92.17h0a.12.12,0,0,1-.06.06.81.81,0,0,0-.31.35l0,0a.07.07,0,0,0-.07.06h0l-.06.06a1.17,1.17,0,0,1-.51.42,1.77,1.77,0,0,0-.44.54l-.36.34a.12.12,0,0,1-.06.08h0c-.06.06,0,.11,0,.16h0a.13.13,0,0,0,.08,0l0,0,.08,0,.08,0,.41-.38a5.16,5.16,0,0,1,.54-.5l.25-.26a.47.47,0,0,0,.07-.12.45.45,0,0,0,0-.2c.1,0,.16-.05.23-.09a.94.94,0,0,0,.1-.1c.14-.13.21-.31.36-.43h0a.23.23,0,0,1,.12-.22.63.63,0,0,0,.25-.31c0-.07,0-.1-.08-.08l-.2.14C105.58,91.77,105.31,91.9,105.22,92.17Z"/><path class="cls-5" d="M50.22,41.6s-.13-.08-.11,0a1.28,1.28,0,0,0,.11.31c.09.06.12.2.26.2a.06.06,0,0,1,0,0C50.4,41.94,50.43,41.71,50.22,41.6Z"/><path class="cls-5" d="M3.3,83.2h.07c.08,0,.24-.06.09-.21a.45.45,0,0,1,0-.08v-.06h0a.1.1,0,0,0-.1,0c-.06,0-.13,0-.19,0h0c-.06,0,0,.12,0,.19h0A.59.59,0,0,1,2.83,83c-.12-.08-.29.08-.44,0l0,0H2.24L2.06,83s.14,0,.17.1.23.09.36.08h.14c.15-.11.32-.06.48-.07Z"/><path class="cls-5" d="M105.6,75.82c.05.1.16.11.26.13a.5.5,0,0,1,.22.21.37.37,0,0,0,.32.18l0,0v-.25l0,0V76c-.12,0-.26,0-.34-.12s-.23-.12-.35-.18S105.54,75.69,105.6,75.82Z"/><path class="cls-5" d="M106.35,81.38a.14.14,0,0,0,0,.09,1,1,0,0,1,0,.3s0,.06,0,.09.26.3-.09.29a.11.11,0,0,0,0-.05s0-.06-.06-.08h0V82a.4.4,0,0,1-.09-.2c-.08-.08-.07-.2-.13-.28s-.15,0-.15.14a.3.3,0,0,0,0,.21.37.37,0,0,1,0,.23.16.16,0,0,1,0,.08c-.15.13-.19.24.06.3.08-.06.14-.15.26-.13h0c0,.13.06.25.23.26,0,0,0,0,0,0a.41.41,0,0,0,.08.32,1.79,1.79,0,0,1,.21.6h0a.25.25,0,0,0,0-.07.24.24,0,0,0-.09-.08.11.11,0,0,0-.08,0,.14.14,0,0,0,0,.11.19.19,0,0,0,0,.07l0,.08,0,.11.06.11.09.16c.06.07.08.2.21.14l.13.1a.16.16,0,0,0-.23.1s0,0,0,.07.16.09.28.08a1.62,1.62,0,0,1,0-.22h0c.08,0,.14,0,.21.07V84h-.06c0-.08,0-.16-.08-.2h0c0-.14-.09-.29-.14-.43s0-.21-.14-.27a.13.13,0,0,1,0-.06.06.06,0,0,1,0-.08v-.06c-.07,0-.07-.13-.08-.21s0-.09,0-.14-.12-.21,0-.29,0-.23,0-.34-.09-.21-.07-.33a1.72,1.72,0,0,1-.07-.21C106.47,81.2,106.4,81.27,106.35,81.38Z"/><path class="cls-5" d="M.84,81.83s0,0-.07,0-.06,0-.06.06a.06.06,0,0,0,.07,0S.85,81.87.84,81.83Z"/><path class="cls-5" d="M83.21,48.6a.47.47,0,0,1-.47,0l-.09,0-.18,0h0l0,0s-.09.08,0,.15h0c.16.08.34.12.5.21l.07.07c.15,0,.34-.06.43.13.11,0,.21,0,.3.05s.2,0,.28-.09,0-.16-.07-.24h-.07c-.12-.1-.3-.11-.42-.22A.22.22,0,0,0,83.21,48.6Z"/><path class="cls-5" d="M83.47,48.5c0,.14.1.16.21.18a.18.18,0,0,0,.09,0s.15,0,.06-.14a.16.16,0,0,0-.07-.07h0C83.66,48.44,83.55,48.39,83.47,48.5Z"/><path class="cls-5" d="M7.88,62.38A.52.52,0,0,0,7.8,62c-.06,0-.13-.06-.14.06a1.16,1.16,0,0,0,.08.48A.12.12,0,0,0,7.88,62.38Z"/><path class="cls-5" d="M7.81,59.67c-.14-.07,0-.24-.15-.37v.52c0,.11.08.08.15.06Z"/><path class="cls-5" d="M13,53.58a.78.78,0,0,0,0-.22A1.07,1.07,0,0,0,12.8,53a.17.17,0,0,0-.1,0s-.07.06-.1.09h0l.21.84C13,53.86,13,53.7,13,53.58Z"/><path class="cls-5" d="M13.18,55a.39.39,0,0,0-.08-.47L13,54.5a1.36,1.36,0,0,0,.08.69.17.17,0,0,1,.07.13C13.21,55.25,13.16,55.13,13.18,55Z"/><path class="cls-5" d="M13.74,61.13h0c-.23,0-.24,0-.14.22l.07.06h0C13.86,61.34,13.78,61.23,13.74,61.13Z"/><path class="cls-5" d="M11.67,40.69v.56c.1-.07.06-.18.07-.27s0-.2.07-.28a.15.15,0,0,0,0-.2C11.69,40.51,11.67,40.59,11.67,40.69Z"/><path class="cls-5" d="M21.33,42.85a2.26,2.26,0,0,0,0,.26l.06.07a.2.2,0,0,0,.14-.13h0a.46.46,0,0,1-.07-.07h0a.1.1,0,0,1,0-.14c.07,0,.07-.09,0-.13S21.32,42.75,21.33,42.85Z"/><path class="cls-5" d="M19.82,41.87a.13.13,0,0,0,0-.06h0l-.05.05s0,.09,0,.1S19.82,41.9,19.82,41.87Z"/><path class="cls-5" d="M16,43.72c0,.08,0,.14.09.13a.12.12,0,0,0,.11-.14c0-.07,0-.14-.12-.13S16,43.67,16,43.72Z"/><path class="cls-5" d="M103.79,72.93V73a.69.69,0,0,1,.22.34c.09,0,.13,0,.13-.13h0a.11.11,0,0,1,0-.14.39.39,0,0,0-.06-.21s-.11,0-.15-.06a.06.06,0,0,0-.08,0S103.84,72.88,103.79,72.93Z"/><path class="cls-5" d="M104.29,73.82a.17.17,0,0,0,.15-.07.13.13,0,0,1,0-.06c-.05,0-.11-.08-.14-.15h0C104.17,73.63,104.25,73.72,104.29,73.82Z"/><path class="cls-5" d="M99.36,70.44a.15.15,0,0,1,0-.07c-.18-.17-.19-.17-.29,0v0l.05,0,.06,0,.07,0h0Z"/><path class="cls-5" d="M98,69.26c0,.07,0,.08.06.09l.23.24a.15.15,0,0,0,.15.06c.08,0,0-.12.06-.18a3.31,3.31,0,0,0-.5-.41C97.91,69.12,98,69.2,98,69.26Z"/><path class="cls-5" d="M102.79,69.88a.18.18,0,0,1,0,.11h0a.14.14,0,0,0-.09,0c-.15,0-.11-.19-.25-.17s.07.29,0,.44v0l0,.11,0,.08a.25.25,0,0,0,.11.12c.31,0,0-.26.2-.32s.08.07.12.12l0,0,.08.06a.17.17,0,0,0,.17,0,.13.13,0,0,0,0-.08,0,0,0,0,1,0-.06.11.11,0,0,0,0-.07.17.17,0,0,0,0-.15s0,0,0-.06l0-.06a.15.15,0,0,0-.1-.09c.06,0,.12-.11.08-.19h0a.46.46,0,0,0-.07-.07h0C102.91,69.67,102.8,69.71,102.79,69.88Z"/><path class="cls-5" d="M5.17,78.73s0,.08,0,.12a.15.15,0,0,0,.21,0h0C5.36,78.72,5.27,78.71,5.17,78.73Z"/><path class="cls-5" d="M13,82.44l0,0c.07,0,.14,0,.17,0s0-.09-.07-.12h0c-.08,0-.17,0-.22,0S13,82.39,13,82.44Z"/><path class="cls-5" d="M11.88,81.85l-.05,0a.05.05,0,0,0,.05.07.07.07,0,0,0,0,0A0,0,0,0,0,11.88,81.85Z"/><path class="cls-5" d="M10.59,77.12c.05,0,.13,0,.08-.13-.26-.1-.35-.06-.36.14h.28Z"/><path class="cls-5" d="M4.45,83a2,2,0,0,0,.64-.07.75.75,0,0,1,.51,0,1.41,1.41,0,0,0,.21,0,2.75,2.75,0,0,1,.81.06.22.22,0,0,0,.26-.06h.21s0,0,0-.06h.51c.11,0,.08-.08,0-.14a1.58,1.58,0,0,1-.37,0,.8.8,0,0,0-.57,0H6.31c0-.09,0-.18-.15-.07a1.17,1.17,0,0,1-.2.06c-.17,0-.28,0-.3-.2-.07,0-.14-.25-.21,0s.1.24-.12.24a.59.59,0,0,0-.17,0c-.24-.08-.48,0-.71,0A.15.15,0,0,0,4.45,83Z"/><path class="cls-5" d="M55.44,49l0-.08a.21.21,0,0,0-.08-.06c-.13,0-.14,0-.08.13h0c.06.09,0,.19,0,.29s-.08.35.06.51.15.1.24,0,0,0,0-.06,0-.24,0-.36a.13.13,0,0,1,0-.06c-.09-.1,0-.24-.07-.35Z"/><path class="cls-5" d="M51.29,44.23c-.12,0-.21-.12-.35-.09a.46.46,0,0,0,.07.36A1.23,1.23,0,0,1,51,45c0,.07,0,.15.08.17s.15-.07.17-.14A1.67,1.67,0,0,0,51.29,44.23Z"/><path class="cls-5" d="M80.32,43.74c0,.06-.09.11,0,.18a.1.1,0,0,0,.15,0c0-.06.1-.12.06-.18s-.12,0-.18,0Z"/><path class="cls-5" d="M81.13,47.11h.06c.15,0,.33.06.42-.13h0a.08.08,0,0,0-.07,0l-.07,0h0A.31.31,0,0,0,81.13,47.11Z"/><path class="cls-5" d="M83.05,48.43c.08,0,.16,0,.22,0s0-.06-.08-.09S83,48.25,83.05,48.43Z"/><path class="cls-5" d="M1.15,95.9c.09,0,.15,0,.14-.13S1.08,95.75,1.15,95.9Z"/><path class="cls-5" d="M101.15,103.41c.1,0,.2,0,.2-.12h-.2Z"/><path class="cls-5" d="M101.14,102.72h-.06c-.19.11-.18.26-.13.43.18,0,.18-.22.33-.24a.07.07,0,0,0,0,0c.09-.08.13-.18,0-.25S101.16,102.63,101.14,102.72Z"/><path class="cls-5" d="M103.62,77.36a.12.12,0,0,0,0,.09l.1.08s.08.12.17.09h.14a.62.62,0,0,1-.07-.33l-.06,0c-.1-.11-.19-.08-.28,0A.3.3,0,0,0,103.62,77.36Z"/><path class="cls-5" d="M105.37,77.54c.07,0,.13.08.21,0s.23,0,.25.14.11,0,.17,0l.07-.06a.15.15,0,0,1,.14-.07v-.25l-.13,0c-.21-.13-.39,0-.57.07S105.24,77.4,105.37,77.54Z"/><path class="cls-5" d="M104.59,77.12h0s.07,0,.12,0,0-.13.09-.16h0a.66.66,0,0,1,0-.14h-.21A.18.18,0,0,0,104.59,77.12Z"/><path class="cls-5" d="M55.51,41.73a1.27,1.27,0,0,1,0-.2v-.06c0-.12,0-.23,0-.35A.63.63,0,0,0,55.51,41.73Z"/><path class="cls-5" d="M1,78c-.05,0-.06.07-.06.12C1.11,78.17,1,78.09,1,78Z"/><path class="cls-5" d="M96.19,58c.12.09.16-.07.25-.11l0-.05c.1-.15,0-.16-.13-.17a.2.2,0,0,1-.15.06C96.16,57.77,96.07,57.86,96.19,58Z"/><path class="cls-5" d="M103.78,73.69h-.06c-.09,0-.07.13-.08.21s0,.23,0,.34.1.18.12.28l.08,0c.14,0,.23-.09.15-.24h0a.15.15,0,0,1,0-.21l.06-.07c0-.08,0-.16-.07-.21S103.85,73.75,103.78,73.69Z"/><path class="cls-5" d="M102.71,73.16c-.07-.07-.18-.15-.21,0l.21.28c.13,0,.29.08.29-.14h0A1.08,1.08,0,0,1,102.71,73.16Z"/><path class="cls-5" d="M102.72,73.82a.17.17,0,0,0,0,.07c.08,0-.06.22.13.2h0v-.22C102.85,73.75,102.78,73.8,102.72,73.82Z"/><path class="cls-5" d="M101.43,72.23c.17.08.14,0,.14-.13S101.43,72.13,101.43,72.23Z"/><path class="cls-5" d="M99.5,70.79c0,.18.17,0,.22.13a.14.14,0,0,0,.06-.13.21.21,0,0,0-.28,0Z"/><path class="cls-5" d="M96.43,67.67l.11.09a.05.05,0,0,0,0,0h0a.1.1,0,0,0,0,0c0,.17.06.25.18.32l.15.08,0,0a.67.67,0,0,0,.09.14,1,1,0,0,0,.22.24,1.14,1.14,0,0,0,.16.15l.07.06.09,0c.15,0,.16-.06.1-.16a1.3,1.3,0,0,0-.15-.18.62.62,0,0,1-.14-.28.27.27,0,0,1-.21-.15.75.75,0,0,0-.29-.27l-.15-.13c0-.11-.12-.16-.2-.22S96.42,67.59,96.43,67.67Z"/><path class="cls-5" d="M105.16,75.4h0s0,0,.06.07l.07.08s.06.11.14.07l.07-.07c0-.09-.13-.16-.14-.27l-.07-.07A.17.17,0,0,0,105.16,75.4Z"/><path class="cls-5" d="M105,75.19a.29.29,0,0,0-.17-.37C104.8,75,104.79,75.1,105,75.19Z"/><path class="cls-5" d="M1.81,83a.05.05,0,0,0-.08,0l-.07,0h.1Z"/><path class="cls-5" d="M6.59,78a1,1,0,0,0-.8.19,1.67,1.67,0,0,0,.8-.13S6.62,78.05,6.59,78Z"/><path class="cls-5" d="M8.58,82.65l-.06-.07a.16.16,0,0,0-.15.07l0,.13a.34.34,0,0,0,.2-.06A.17.17,0,0,0,8.58,82.65Z"/><path class="cls-5" d="M11,82.52c.18.07.2-.1.32-.18a.69.69,0,0,0-.34,0h0C11,82.38,10.86,82.47,11,82.52Z"/><path class="cls-5" d="M12.19,82.37c-.07,0-.1,0-.12.1a.07.07,0,0,0,.08.07.12.12,0,0,0,.13-.09C12.29,82.39,12.24,82.38,12.19,82.37Z"/><path class="cls-5" d="M11.36,76.69a.1.1,0,0,0-.12,0,.93.93,0,0,0-.36.14l.09.08c.1,0,.21,0,.31-.05A.1.1,0,0,0,11.36,76.69Z"/><path class="cls-5" d="M12.85,76.78l.33,0,.13-.15c0-.19-.17-.05-.21-.13H13C13.05,76.63,13,76.7,12.85,76.78Z"/><path class="cls-5" d="M5.31,92.59s0-.08,0-.09a.25.25,0,0,0-.37.08H5a.43.43,0,0,0,.35,0Z"/><path class="cls-5" d="M8.59,87.27c0,.2-.27.28-.28.48a.16.16,0,0,0-.06.08.14.14,0,0,0,0,.06c.11.09.14-.06.22-.06s.17-.13.24-.22a.41.41,0,0,0,.07-.11.1.1,0,0,0,0-.09c0-.08.12-.17,0-.24S8.66,87.25,8.59,87.27Z"/><path class="cls-5" d="M9.53,85.9h0a.11.11,0,0,1-.15,0H9.31c0,.14.06.3-.07.42a.23.23,0,0,1-.07.07c-.06.09,0,.14.07.14h0a.1.1,0,0,0,.05,0l0,0,.05,0,0,0,.05-.06,0,0c0-.06.1-.09.06-.17v-.21s0,0,0,0S9.54,85.88,9.53,85.9Z"/><polygon class="cls-5" points="9.59 85.89 9.59 85.89 9.6 85.9 9.59 85.89"/><path class="cls-5" d="M79.34,47.68l-.12.06c-.08.08-.08.15,0,.2s.38.06.61,0c-.16,0-.29-.07-.26-.24h0a.17.17,0,0,0-.13-.05l-.08.05Z"/><path class="cls-5" d="M78.42,46c0,.08,0,.11.1.11s.15,0,.15-.09,0-.1-.14-.1A.1.1,0,0,0,78.42,46Z"/><path class="cls-5" d="M80.4,47.09v0L80.25,47h0c0,.11,0,.22.13.2a.46.46,0,0,1,.07-.07Z"/><path class="cls-5" d="M100.44,89.74l.06,0s.13,0,.11-.09a.12.12,0,0,0-.13-.09C100.4,89.61,100.43,89.68,100.44,89.74Z"/><path class="cls-5" d="M97.05,94.3l-.13.08a.52.52,0,0,0-.36.07c0,.19,0,.19.22.14l.14-.08.43-.14s.11,0,.14-.06h0C97.35,94.18,97.2,94.26,97.05,94.3Z"/><path class="cls-5" d="M102.36,95c.06.17.18.09.28,0l0-.19-.09-.08h-.06C102.5,94.9,102.4,94.93,102.36,95Z"/><path class="cls-5" d="M100.71,96.47a.4.4,0,0,1-.27.19c-.09.18-.34.11-.44.28a1.21,1.21,0,0,0-.43.47l-.78.63c-.07.07,0,.12,0,.16s.26-.1.35-.19a1.78,1.78,0,0,1,.6-.41c.11-.07.16-.18.25-.27s.2-.14.27-.23a.47.47,0,0,1,.1-.1.92.92,0,0,0,.38-.35,1.09,1.09,0,0,0,.36-.41c0-.06,0-.09-.08-.07A1.43,1.43,0,0,0,100.71,96.47Z"/><path class="cls-5" d="M100.16,100.88c0,.06,0,.13-.09.16a.11.11,0,0,0-.11.12.25.25,0,0,0,0,.08c0,.05,0,.11,0,.16l0,.08,0,.08c.08.12.1.28.27.33s.07-.08.08-.13-.16-.36,0-.55a.41.41,0,0,1-.07-.28s0-.05,0-.06h0C100.28,100.77,100.22,100.75,100.16,100.88Z"/><path class="cls-5" d="M100.5,99.62v-.13C100.42,99.53,100.42,99.58,100.5,99.62Z"/><path class="cls-5" d="M100.72,103.49h0a.16.16,0,0,0-.24,0C100.56,103.51,100.64,103.47,100.72,103.49Z"/><path class="cls-5" d="M104,74.93h.07s0-.13,0-.14.1,0,.15.09l0,0c.13,0,.12-.11.2-.14v-.07l0-.06c-.14-.08-.28-.17-.43,0A.33.33,0,0,0,104,74.93Z"/><path class="cls-5" d="M105,76.24h.06l.08-.06c.06,0,.07-.1,0-.15s-.14,0-.19.06S104.88,76.22,105,76.24Z"/><path class="cls-5" d="M104.61,75.57h.06c.09-.09,0-.16,0-.24A.15.15,0,0,0,104.61,75.57Z"/><path class="cls-5" d="M104.86,78.59a.75.75,0,0,0,.36.48c.07,0,.15.21.21,0-.16-.26-.2-.59-.43-.82-.11-.08-.23,0-.35,0C104.6,78.42,104.78,78.48,104.86,78.59Z"/><path class="cls-5" d="M69.23,43.93a.63.63,0,0,0-.11.12l0,0c-.07.09-.16,0-.24,0a.16.16,0,0,0-.24.1l.06.07a.18.18,0,0,0,.2,0,.2.2,0,0,1,.23.06.18.18,0,0,0,.26,0h0c0,.16.19.1.3.12s.21,0,.29.06-.1.09-.1.17a.08.08,0,0,0,0,.07c.06,0,.14,0,.2.05h0c.21.09.17-.17.29-.2v.06l.07-.07h0c.16-.08.29.13.44,0l0,0a.25.25,0,0,0,.22.05h.58c-.13-.19-.35-.07-.46-.2h0c-.08-.09-.2-.05-.3-.07s-.18-.09-.22-.19-.08,0-.11,0l0,.08c0,.06-.09,0-.14,0l-.1,0a1.4,1.4,0,0,1-.28-.06c-.18,0-.34-.15-.53-.11a.09.09,0,0,0,0,0c-.09-.06-.11-.19-.22-.23Z"/><path class="cls-5" d="M10.88,75.68h0c-.06-.08-.28-.13-.06-.28h0a.1.1,0,0,1-.07-.07s0,0,0-.06a.38.38,0,0,0-.27-.1.11.11,0,0,0-.08,0c-.09,0-.15,0-.15.13.15,0,.31.07.29.28s.07.11.13.15S10.83,75.76,10.88,75.68Z"/><path class="cls-5" d="M105.43,80.8c.09,0,.07-.14.08-.22s-.15,0-.15.14Z"/><path class="cls-5" d="M105.5,80.24a.14.14,0,0,0,.08-.14s-.09,0-.12,0S105.45,80.2,105.5,80.24Z"/><path class="cls-5" d="M105.62,80.64l.17.28,0,0a.06.06,0,0,0,0-.09v-.13c-.07,0,0-.15-.08-.2h-.06C105.65,80.53,105.56,80.53,105.62,80.64Z"/><path class="cls-5" d="M96.43,59.39h.06c.2.05.15-.14.21-.22v0C96.43,59.13,96.43,59.13,96.43,59.39Z"/><path class="cls-5" d="M18.47,59.26h0c-.13,0-.13.06-.08.14h0c.05,0,0,.1.07.15s.15.31.23.47a.14.14,0,0,1,.06.14l.14.07a.49.49,0,0,1,0,.12c.08,0,.06-.08,0-.12V60a5.86,5.86,0,0,1-.28-.69S18.5,59.31,18.47,59.26Z"/><path class="cls-5" d="M33.21,57.39c0,.06.06.07.11.07s.07,0,.07-.07a.11.11,0,0,0-.09-.09S33.21,57.34,33.21,57.39Z"/><path class="cls-5" d="M47,46.3l-.07-.14c-.16-.1-.15.07-.21.13s-.13.17,0,.17S47,46.47,47,46.3Z"/><path class="cls-5" d="M101.28,74.38a.15.15,0,0,0,.07-.14h0l-.06-.08s-.05-.09-.07-.13-.34-.12-.5-.2-.07.07-.07.13a3.23,3.23,0,0,1,.42.2h0s0,.06.06.08h0a.08.08,0,0,0,0,0s.1,0,.13.08Z"/><path class="cls-5" d="M101,74.55a.07.07,0,0,0,.07-.06s0-.09-.08-.1-.09,0-.09.07A.12.12,0,0,0,101,74.55Z"/><path class="cls-5" d="M100.35,73.69l.1,0s0-.06,0-.09,0-.06-.08,0,0,.06,0,.09Z"/><path class="cls-5" d="M8,74l-.07-.06a.45.45,0,0,0-.14-.1.11.11,0,0,0-.08,0V74a.13.13,0,0,1,0,.06l.14.08C7.9,74.09,8,74.13,8,74Z"/><path class="cls-5" d="M21.3,78.36c.08-.06.11-.12,0-.2s-.16,0-.22-.06h0a.38.38,0,0,0,0,.48.46.46,0,0,1,.07-.07C21.18,78.43,21.24,78.39,21.3,78.36Z"/><path class="cls-5" d="M16,76.3h0s.11,0,.15-.06h.21A.73.73,0,0,0,17,75.9c.12-.19,0-.14-.14-.14-.32.11-.71-.07-1,.21l-.34.14a1.45,1.45,0,0,0-.22.09l0,0c.11.13.26.09.39,0A.42.42,0,0,1,16,76.3Z"/><path class="cls-5" d="M50,55c0,.16.14.21.32.25a.73.73,0,0,0-.16-.33.1.1,0,0,0-.12,0S50,55,50,55Z"/><path class="cls-5" d="M58,47.15a.12.12,0,0,0-.18,0c-.11.11.06.13.09.2h0C57.94,47.28,58,47.25,58,47.15Z"/><path class="cls-5" d="M57.65,46.64c-.12-.09,0-.24-.14-.41v.41s0,.12.1.11S57.65,46.68,57.65,46.64Z"/><path class="cls-5" d="M57.59,45.6v-.07s-.12,0-.12,0a.16.16,0,0,0,.05.23h0S57.54,45.64,57.59,45.6Z"/><path class="cls-5" d="M50.31,61.93c0,.08.12.11.2,0s.08-.17.15-.17.18-.12.27-.19c-.07-.11-.18,0-.27-.05h0l-.07.07a1.83,1.83,0,0,0-.24.13A.14.14,0,0,0,50.31,61.93Z"/><path class="cls-5" d="M50,56.37c0-.1-.13,0-.2,0l.07.13C50,56.5,50,56.47,50,56.37Z"/><path class="cls-5" d="M46.08,52c-.14,0-.14.08-.15.17a2.82,2.82,0,0,0-.57.15.2.2,0,0,1-.14.06c-.15.1-.29,0-.44,0s-.05.14-.07.21l.09.08.41-.15h.07c.17.08.33,0,.49,0a.14.14,0,0,0,0-.06,3.29,3.29,0,0,1,.68-.14c.18,0,.35-.19.3-.27s-.23,0-.34,0Z"/><path class="cls-5" d="M46.22,51.67h-.14C46.13,51.75,46.18,51.74,46.22,51.67Z"/><path class="cls-5" d="M42.85,52.78l-.06.07c-.13,0-.31.13-.4-.08l-.11.08s0,.09,0,.14a.13.13,0,0,0,0,.13h.28a.24.24,0,0,1,.22-.12H43l0-.09c0-.07,0-.14,0-.17S42.89,52.73,42.85,52.78Z"/><path class="cls-5" d="M43.64,52.22h0s0,.05,0,.07.19,0,.28,0C43.88,52.07,43.75,52.19,43.64,52.22Z"/><path class="cls-5" d="M45,52.15l0,0,0,0s0,.05,0,.05A0,0,0,0,0,45,52.15Z"/><path class="cls-5" d="M48.58,48.08c.08,0,.07-.12.05-.19C48.43,47.9,48.54,48,48.58,48.08Z"/><path class="cls-5" d="M45.21,49.6v-.2H45s-.1.06-.11.13a.16.16,0,0,0,0,.07h0A.21.21,0,0,0,45.21,49.6Z"/><path class="cls-5" d="M43.22,51.41a.39.39,0,0,0,.06.26l0,0a.31.31,0,0,0,.17,0l.08,0h0c.07-.08.19-.15.06-.27a.53.53,0,0,0-.21.11C43.32,51.54,43.28,51.44,43.22,51.41Z"/><path class="cls-5" d="M47.1,46.79c-.07-.11-.16,0-.24,0s0,.23.14.27S47.17,46.91,47.1,46.79Z"/><path class="cls-5" d="M61.68,46.63c.07,0,0,.17.12.21l0-.06c-.05-.08,0-.18-.05-.26A.12.12,0,0,0,61.68,46.63Z"/><path class="cls-5" d="M76.76,46.78c-.05,0-.11.06-.1.13a.18.18,0,0,0,.1.14c.12.05.19-.13.23-.1s.14-.07.2-.11h0c-.08-.06-.2,0-.29-.06h-.13Z"/><path class="cls-5" d="M76.83,45.6s.1,0,.1-.07a.09.09,0,0,0-.1-.11,1.47,1.47,0,0,0-.27,0A.29.29,0,0,0,76.83,45.6Z"/><path class="cls-5" d="M97.72,93.35v.05c0,.09.1.15.2.08h0C97.92,93.34,97.83,93.32,97.72,93.35Z"/><path class="cls-5" d="M99.15,97.28c.15-.19.37-.35.42-.62a1.61,1.61,0,0,0-.5.35C99.06,97.11,99,97.23,99.15,97.28Z"/><path class="cls-5" d="M95.85,94.86l.07-.06v-.15h-.14C95.74,94.74,95.65,94.85,95.85,94.86Z"/><path class="cls-5" d="M98.34,93a.32.32,0,0,0-.27.06c0,.2.12.1.21.07Z"/><path class="cls-5" d="M95.48,90.37a.12.12,0,0,0-.06-.14c-.09.06-.16.15-.28.15l.06.14C95.34,90.55,95.41,90.46,95.48,90.37Z"/><path class="cls-5" d="M74.64,45.66c0,.08.08.08.11.14a.13.13,0,0,0,.21,0c.09-.1,0-.14-.07-.19h-.07C74.76,45.61,74.67,45.58,74.64,45.66Z"/><path class="cls-5" d="M70,44.16l.08.06c.1,0,.22,0,.21-.13A.41.41,0,0,0,70,44S69.92,44.11,70,44.16Z"/><path class="cls-5" d="M75.11,45.88c.09.27.14,0,.2,0l0-.06c0-.07,0-.14-.12-.06S75.15,45.84,75.11,45.88Z"/><path class="cls-5" d="M103.72,76.65c0,.14.11.13.21.14h0a.12.12,0,0,0,0-.15l-.08-.06C103.78,76.54,103.75,76.59,103.72,76.65Z"/><path class="cls-5" d="M103.46,76.68c-.18,0-.37,0-.32.25h0c.08.06.2,0,.28.06h0a.23.23,0,0,0,.07.07h0l.12,0c.06,0,.15.06.15-.06s-.06-.09-.12-.09-.15,0-.15-.14Z"/><path class="cls-5" d="M103.59,77.6a.28.28,0,0,0-.16-.06s0,.06-.07,0,0,0,0-.08,0-.07,0-.1,0,0-.08-.07-.12-.13-.17-.2-.09-.08-.15,0a.11.11,0,0,0,0,.16.63.63,0,0,1,.19.49h0a.15.15,0,0,0,.11,0c.06,0,.07.07.1.1s0-.2.21-.17S103.62,77.65,103.59,77.6Z"/><path class="cls-5" d="M72.31,46.38a.06.06,0,0,0-.06-.06c-.09,0-.12,0-.15.11a.13.13,0,0,1,0,.06l0,0s0,0,.05,0S72.32,46.48,72.31,46.38Z"/><path class="cls-5" d="M10.88,74.13s-.06,0-.06.06,0,.1.12.11l0,0S11,74.13,10.88,74.13Z"/><path class="cls-5" d="M105.72,82l-.14-.14a.23.23,0,0,1-.07-.07c-.09,0-.07.14-.08.21l.08.14h.29s0,0,0-.07S105.75,82,105.72,82Z"/><path class="cls-5" d="M82.53,62.31c0,.09.11.16.23.13s.11,0,.13-.07l-.14-.14h-.14C82.54,62.22,82.53,62.26,82.53,62.31Z"/><path class="cls-5" d="M87.12,63.4c0,.11.11.13.22.07s-.1-.14-.21-.13S87.1,63.37,87.12,63.4Z"/><path class="cls-5" d="M77,53.05l.07-.06c0-.09.13-.19-.06-.2S76.91,53,77,53.05Z"/><path class="cls-5" d="M17.31,70.23l-.13-.2c-.18,0-.18.14-.29.28C17.06,70.27,17.21,70.48,17.31,70.23Z"/><path class="cls-5" d="M17.37,70.7c0-.06-.05-.09-.12-.1s-.11.08-.11.15,0,.15.11.14A.18.18,0,0,0,17.37,70.7Z"/><path class="cls-5" d="M19,72a.19.19,0,0,0-.17-.22c-.05,0-.1,0-.1.08a.26.26,0,0,0,.2.24C19,72.06,19,72,19,72Z"/><path class="cls-5" d="M14.73,66.23c.06.08.1,0,.14,0S14.78,66.17,14.73,66.23Z"/><path class="cls-5" d="M16.09,63.62h0c0-.07,0-.14,0-.21s-.13-.16-.15-.27a.37.37,0,0,1-.13-.15.27.27,0,0,1-.07-.08h0v-.06a.18.18,0,0,0-.13,0l0,0h0c0-.13-.06-.11-.14-.07l-.07,0a1,1,0,0,0,.42.61h0a.14.14,0,0,0,0,.06h0l.08.09s0,0,0,0l.09.13C16,63.75,16.09,63.76,16.09,63.62Zm-.55-.7h0Z"/><path class="cls-5" d="M11.75,67.82h0s0,.08.09,0Z"/><path class="cls-5" d="M19.1,64c0-.14,0-.27,0-.4-.22.16-.23.28-.06.46h0L19.1,64Z"/><path class="cls-5" d="M32,54.35a.78.78,0,0,0-.7.22l-.28.07c-.08,0-.1,0-.14.07a1.8,1.8,0,0,1-.65.14.16.16,0,0,1-.08.06h-.06s0,0-.07.06h0c-.14,0-.29,0-.39.11.11.07.22,0,.32,0l.07-.06.15,0a.24.24,0,0,0,.16,0h0l.12,0a.17.17,0,0,0,.15-.06c.14,0,.28-.08.42,0s.17-.17.32-.17.3-.07.45-.09a1.17,1.17,0,0,0,.37-.08C32.27,54.4,32.14,54.38,32,54.35Z"/><path class="cls-5" d="M37.41,53.33c.2-.23,0-.24-.15-.24s-.25,0-.34.12-.27.15-.42.19-.14.22.07.18a5.56,5.56,0,0,0,.7-.19h0Z"/><path class="cls-5" d="M34.33,53.59c0,.11-.39,0-.13.23h.07a1.11,1.11,0,0,1,.39-.2.21.21,0,0,0,.18-.21.1.1,0,0,0-.14,0,.36.36,0,0,1-.29.14Z"/><path class="cls-5" d="M36.12,52.65h0s-.07,0-.08.06a.1.1,0,0,0,.16,0S36.14,52.68,36.12,52.65Z"/><path class="cls-5" d="M41,52.57a.84.84,0,0,1-.43.14,1.9,1.9,0,0,1-.57.14,0,0,0,0,0,0,.06.08.08,0,0,0,0,0c0,.07,0,0-.07.07-.21.14-.48.18-.67.37h-.06s-.07,0-.08.07l.09.08c.09,0,.21-.06.26.08s.1.06.15,0a.44.44,0,0,0,.15-.18s0,0,0,0l0,0c.2-.11.41,0,.62,0s.1-.41.39-.42l.06,0a.34.34,0,0,0,.2-.13h.06a.23.23,0,0,1,.07-.07h0C41.19,52.57,41.15,52.51,41,52.57Z"/><path class="cls-5" d="M41.08,53.54s0,.09,0,.13.13.08.21.07,0-.28,0-.41a.15.15,0,0,0-.14.07C41.08,53.43,41.1,53.5,41.08,53.54Z"/><path class="cls-5" d="M46.14,47.88c0-.05,0-.1,0-.15l-.07-.07c-.18,0-.14.12-.08.22h0c.06,0,0,.17.13.14h0s0,0,0,.06.12.26.2,0C46.28,48,46.26,47.9,46.14,47.88Z"/><path class="cls-5" d="M100.57,77s.05.06.07.1h.06c.06,0,.11,0,.15,0s.06-.13,0-.15h-.1S100.58,76.89,100.57,77Z"/><path class="cls-5" d="M96.78,74.1a4.33,4.33,0,0,0,.79.27.18.18,0,0,0,.2-.06.13.13,0,0,1-.13-.07l-.08-.07c-.13-.07-.32,0-.43-.14a.13.13,0,0,0-.07-.06H97a.17.17,0,0,0-.22,0h0A.1.1,0,0,0,96.78,74.1Z"/><path class="cls-5" d="M100.12,77c-.16,0-.28-.06-.38.12C99.88,77.12,100,77.17,100.12,77Z"/><path class="cls-5" d="M99.86,76.78s.06-.07.07-.12c-.15,0-.15,0-.15.06a.27.27,0,0,1,.08.07Z"/><path class="cls-5" d="M101.93,76.65c-.12-.05-.24-.14-.29.06s0,.15.07.21c-.11,0-.22,0-.26.13h0l.14.07.08-.07v-.13c.12.14.23.09.35,0s.11-.06.18-.11l-.18-.09A.15.15,0,0,1,101.93,76.65Z"/><path class="cls-5" d="M100.46,75.84a0,0,0,0,0,0,0c.08,0,.08,0,.09-.11S100.45,75.75,100.46,75.84Z"/><path class="cls-5" d="M94.71,71.82h0s0,0,0,0h0a.16.16,0,0,0,.07-.07v0C94.74,71.68,94.63,71.65,94.71,71.82Z"/><path class="cls-5" d="M95.26,72.76v0h0s0,.06.07.08l.09,0h0a0,0,0,0,0,0,0s0,0,0,0,.11,0,.11-.06-.17-.2-.32-.19S95.26,72.73,95.26,72.76Z"/><path class="cls-5" d="M21.19,77a.13.13,0,0,0,0,.06c.07,0,.1.15.21.14S21.35,77,21.19,77Z"/><path class="cls-5" d="M13.6,75.2c0,.1,0,.2.15.21a0,0,0,0,0,.06,0,.65.65,0,0,0,.08-.09.06.06,0,0,1,.06,0c.09-.11,0-.15-.07-.2h-.13c-.05,0-.11,0-.15.06Z"/><path class="cls-5" d="M14.17,76.1h0a.38.38,0,0,0-.36,0A1.4,1.4,0,0,0,14.17,76.1Z"/><path class="cls-5" d="M14.31,76c0,.07.08.07.14.07S14.37,76,14.31,76Z"/><path class="cls-5" d="M60.3,61.61s-.08,0-.11,0-.1.16-.13.24a.14.14,0,0,0,0,.09q.09.17.24,0l.07-.13C60.37,61.79,60.41,61.68,60.3,61.61Z"/><path class="cls-5" d="M54.8,57.88s0-.1-.08-.13h0s-.09,0-.14,0h0a.45.45,0,0,0-.08.27c.15.13.25,0,.35-.07Z"/><path class="cls-5" d="M52.39,58.74c.08-.08,0-.16,0-.23C52.22,58.55,52.28,58.64,52.39,58.74Z"/><path class="cls-5" d="M59.24,47.19c.1,0,.14.18.3.18s0-.26-.1-.38S59.23,47,59.24,47.19Z"/><path class="cls-5" d="M48.87,63.64a.12.12,0,0,0,.11.15c.14,0,.08-.11.09-.18h0C49,63.64,48.91,63.51,48.87,63.64Z"/><path class="cls-5" d="M49.87,64.9a.11.11,0,0,0,0,.08c0,.08.12.1.17.15h0a.27.27,0,0,1,.08.07.32.32,0,0,1,.15.13.12.12,0,0,0,.13-.13c-.09-.12-.19-.23-.29-.35s-.14-.08-.2-.14h0c-.06,0-.07.08-.08.14Z"/><path class="cls-5" d="M97.85,100.39c-.09,0-.17.06-.12.11.16.22,0,.27-.16.29l-.07.08c0,.06-.11.09-.09.17a1.44,1.44,0,0,0,.53-.23A.31.31,0,0,0,97.85,100.39Z"/><path class="cls-5" d="M98.64,100.38h0a.1.1,0,0,1,0,.14h0a.09.09,0,0,0,0,.14h0c.11.06.2.09.17-.09a.09.09,0,0,1,0-.11c0-.11,0-.22-.07-.33C98.59,100.1,98.58,100.12,98.64,100.38Z"/><path class="cls-5" d="M97.28,99.63c0,.05,0,.11.1.12s.1-.06.12-.13S97.35,99.61,97.28,99.63Z"/><path class="cls-5" d="M98.42,98.38l.08.13h.07v-.13s0-.1-.06-.09S98.45,98.35,98.42,98.38Z"/><path class="cls-5" d="M99,97.4h0S99.05,97.38,99,97.4Z"/><path class="cls-5" d="M94.63,100.31v-.06c-.09,0-.19,0-.19.12s.12.17.16,0C94.59,100.34,94.61,100.33,94.63,100.31Z"/><path class="cls-5" d="M94.39,99.64s0,0,0,0,0-.06,0,0,0,0,0,0Z"/><path class="cls-5" d="M94.78,90.31h0s-.06-.12-.13-.15a.11.11,0,0,0-.08,0,.21.21,0,0,0-.08.29H95C94.93,90.35,94.82,90.4,94.78,90.31Z"/><path class="cls-5" d="M98.77,98.87a.48.48,0,0,0,.09.19.14.14,0,0,0,0-.23S98.8,98.83,98.77,98.87Z"/><path class="cls-5" d="M73.46,46.3l.21.07c.09-.09.17-.17,0-.17,0,0-.06,0-.09,0S73.43,46.22,73.46,46.3Z"/><path class="cls-5" d="M103.34,76.06c-.06.13.11.08.14.15l0,0h0c.07-.06.11-.13,0-.19S103.37,76,103.34,76.06Z"/><path class="cls-5" d="M102.72,76.93s.1,0,.14.06h0c.08-.06.11-.14,0-.19s-.14,0-.14.13Z"/><path class="cls-5" d="M104.43,78.79c-.1-.06-.15,0-.15.08a.43.43,0,0,1,0,0s.06.07,0,.09-.06.21.08.24.22,0,.22-.18A.37.37,0,0,1,104.43,78.79Z"/><path class="cls-5" d="M70.22,56.12a.66.66,0,0,0,0,.58l0,0a.12.12,0,0,0,.13,0,.15.15,0,0,0,0-.13s-.07,0,0-.07a.2.2,0,0,0,.08,0c.21-.38.2-.52,0-.65h0s-.09,0-.14,0S70.27,56,70.22,56.12Z"/><path class="cls-5" d="M69.56,55.39s-.07,0-.1.08l-.07.07c0,.06,0,.15.11.09s.07-.11.09-.17S69.6,55.39,69.56,55.39Z"/><path class="cls-5" d="M69.25,55v.06l.07.07.13-.07s0,0,0-.07h0a.23.23,0,0,1-.07-.07h0C69.31,54.88,69.28,54.93,69.25,55Z"/><path class="cls-5" d="M104.65,79.62h0c0-.08,0-.19-.13-.24C104.49,79.51,104.49,79.6,104.65,79.62Z"/><path class="cls-5" d="M82.6,60.63a.14.14,0,0,0,0,.06.17.17,0,0,0,0,.07l0,0h.14l.07-.07v-.14h-.18A.12.12,0,0,0,82.6,60.63Z"/><path class="cls-5" d="M85.15,62.67l0,0s0,0,0,0,0,0,0,0S85.15,62.66,85.15,62.67Z"/><path class="cls-5" d="M85.63,66.55a.11.11,0,0,0,0,.08.16.16,0,0,0,.06.08l.11.08c.23.12.47.21.69.35a1.78,1.78,0,0,1,.3.17c.08,0,.17.09.25,0a.14.14,0,0,0,0-.25h0a.36.36,0,0,0-.2-.11.45.45,0,0,0-.23,0l-.28-.21s-.11,0-.14-.07h0a.37.37,0,0,0-.42-.15A.24.24,0,0,0,85.63,66.55Z"/><path class="cls-5" d="M75.6,57.18c0-.07,0-.15-.06-.19S75.52,57.14,75.6,57.18Z"/><path class="cls-5" d="M80.2,56.1a.09.09,0,0,0,0,0c.06,0,.11.09.16.05s0-.13,0-.19l-.06,0A.08.08,0,0,0,80.2,56.1Z"/><path class="cls-5" d="M24.45,72.31c.05-.15,0-.2-.25-.21h0a.21.21,0,0,0,.15.26S24.43,72.36,24.45,72.31Z"/><path class="cls-5" d="M21.6,74.57l.26-.11c.11,0,.22-.07.16-.2s-.17-.06-.25,0-.26.12-.37.19C21.33,74.68,21.52,74.54,21.6,74.57Z"/><path class="cls-5" d="M16.5,75.56l-.26,0h0C16.31,75.62,16.38,75.64,16.5,75.56Z"/><path class="cls-5" d="M15.89,75.75v-.14h-.07C15.77,75.69,15.73,75.77,15.89,75.75Z"/><path class="cls-5" d="M21.05,74.72c0,.09.13.06.21.07h0C21.24,74.68,21.14,74.72,21.05,74.72Z"/><path class="cls-5" d="M20.74,62.23l0,0,0,0s0,0,0,0S20.74,62.26,20.74,62.23Z"/><path class="cls-5" d="M35.72,54.37l-.09,0a.17.17,0,0,0-.06.06v0a.58.58,0,0,0,.62,0c.14-.09,0-.11-.06-.17H36A1.19,1.19,0,0,1,35.72,54.37Z"/><path class="cls-5" d="M33.83,53.78l-.14,0h-.14c-.1,0-.21,0-.28.07H33.2a1.08,1.08,0,0,0-.66.27l-.12.06-.07.06-.06,0,0,0,.14.13h.07a.47.47,0,0,1,.43-.2l.43-.21h.07a.23.23,0,0,0,.22-.06h0c.14,0,.3,0,.43-.06S34,53.7,33.83,53.78Z"/><path class="cls-5" d="M35.22,53.65c0-.06-.1,0-.16,0a1.37,1.37,0,0,1-.45.13c-.11,0-.07.08,0,.14h.14c.08-.06.2,0,.28-.06h0c0-.06.09-.06.15-.08S35.24,53.69,35.22,53.65Z"/><path class="cls-5" d="M32.42,54c-.06.05-.15,0-.22.06l-.07.13h0a.17.17,0,0,0,.21,0C32.35,54.08,32.54,54.09,32.42,54Z"/><path class="cls-5" d="M35.42,58.43a.32.32,0,0,1,.14.14.16.16,0,0,0,.06.12l.1.09c.08.07.2.11.28.19h-.19l-.1,0h0c0-.06,0-.13-.07-.17h0c-.07,0-.09.12-.13.19s0,.15.14.14h.07a9.74,9.74,0,0,0,1.43,0c.06,0,.22,0,.14.12s0,.23-.13.3a.27.27,0,0,0-.08.07h0a.27.27,0,0,1-.13.21c0,.08.12.06.19,0s.06-.28.22-.34l0,0a.43.43,0,0,0,0-.07v0c0-.08,0-.14.1-.21h.06a.22.22,0,0,0,.16-.15c0-.12-.06-.17-.19-.12a2.18,2.18,0,0,1-.84-.07v-.06a.17.17,0,0,0-.1-.06h-.12c-.13,0-.3,0-.37-.12s-.18-.06-.26-.09l-.08-.07h0s-.11,0-.14-.07h0a.23.23,0,0,1-.07-.07h0a.12.12,0,0,0-.15,0Z"/><path class="cls-5" d="M34.42,59.32l.13,0h0a.06.06,0,0,0,.05,0l.07-.06a1,1,0,0,0,.5-.08c-.13-.13-.29,0-.44-.06h-.27C34.32,59.14,34.35,59.22,34.42,59.32Z"/><path class="cls-5" d="M33.12,59.26v.07h0a.47.47,0,0,1,.14.14h0c.24.09.17-.11.21-.21s-.17-.13-.28-.07l-.08.07Z"/><path class="cls-5" d="M38.85,53.12c0-.09-.05-.13-.14-.13s0,.15,0,.2l.09-.06Z"/><path class="cls-5" d="M40.78,53.12h0l.16-.11C40.75,53,40.75,53,40.78,53.12Z"/><path class="cls-5" d="M102.46,76.14a.06.06,0,0,0-.06.07.14.14,0,0,0,.13.09h0s0,0,0-.06S102.53,76.14,102.46,76.14Z"/><path class="cls-5" d="M94.46,73.68l.08,0,.21.07a.83.83,0,0,0,.16.09.48.48,0,0,1,.3.24l.08,0c.27,0,.15.21.24.3a.37.37,0,0,0,.24.17c.2,0,.26,0,.24-.2h0l.13.07c.1,0,.15.16.27.16h0c0,.21.17.23.34.25l0,0,0,0a0,0,0,0,0,0,0s0,0,.06.06L97,75h0v0h.18a.19.19,0,0,0,0,.08.14.14,0,0,0,.15,0h0l0,0c.06.25.29.34.49.44s.28.33.54.28h.2c.1,0,.25.05.3-.1a.27.27,0,0,0-.28-.09.45.45,0,0,1-.45-.21.33.33,0,0,0-.14-.12l-.09-.08,0-.07c0-.06,0-.11,0-.17a.07.07,0,0,0,0-.07.28.28,0,0,0-.22,0l-.17.07a.26.26,0,0,0-.09-.14c.12-.1.18-.21.06-.35h-.06c-.1-.11-.19-.24-.37-.11s-.12,0-.17,0a2,2,0,0,1-.54-.15l-.14-.08c-.06,0-.07-.07-.09-.11a1.56,1.56,0,0,1-.42-.5c0-.12-.12-.19-.22-.27h0c-.18,0-.14.13-.14.23s.12.12.18.2a2.57,2.57,0,0,1-.49-.27c-.14-.07-.21-.22-.33-.32l-.09,0a.35.35,0,0,0-.2,0l-.08,0a.23.23,0,0,0,0,.14c0,.08.08.12.15.16A.33.33,0,0,1,94.46,73.68Z"/><path class="cls-5" d="M89.68,69.12a.32.32,0,0,0,.16.35,4.87,4.87,0,0,0,1,.47.19.19,0,0,0,.12-.07.1.1,0,0,0,0-.09l-.06-.08c-.12-.06-.08-.21-.16-.29s-.21-.1-.3,0-.26-.06-.33-.17S90,69,89.92,69a.34.34,0,0,0-.2,0A.15.15,0,0,0,89.68,69.12Z"/><path class="cls-5" d="M91.35,69.47a.13.13,0,0,0,.14-.14l-.07-.07c-.06,0-.12,0-.15.08s0,.1.08.13Z"/><path class="cls-5" d="M93.28,71.34a1.8,1.8,0,0,1,.29.26c.09.07.2.07.28.15H94v-.06s0,0-.06-.08h0a2.36,2.36,0,0,0-.57-.35C93.28,71.24,93.26,71.27,93.28,71.34Z"/><path class="cls-5" d="M88.74,104.1l0,0-.07.06-.06.06c-.12,0-.12.06-.08.14h0a.28.28,0,0,1,.09.13.42.42,0,0,0,.07.15.34.34,0,0,0-.15.07v.13c.07.21.07.21.24.09a.38.38,0,0,1,.1,0l.09-.06c0-.08,0-.1-.08-.14h0a.24.24,0,0,0-.1,0,.55.55,0,0,0,.1-.16h0l.07-.06a.66.66,0,0,1,.36-.08v-.13a.15.15,0,0,0-.13,0C89,104.22,88.89,104.05,88.74,104.1Z"/><path class="cls-5" d="M89,104.86s.1,0,.09-.08,0,0-.08,0S88.94,104.82,89,104.86Z"/><path class="cls-5" d="M24.18,77.68a.19.19,0,0,0-.14.07h0a.46.46,0,0,1,.07.07l.07.07c.1,0,.23,0,.15-.14l0,0-.08,0Z"/><path class="cls-5" d="M21.61,82c.08-.06.17,0,.25,0a.18.18,0,0,0,.07-.05v0h0a.13.13,0,0,0,0-.06v0a.13.13,0,0,1,0-.1l.06,0c.09-.1.23-.17.23-.33a.15.15,0,0,0-.15-.07h0s-.1,0-.14.06h0l-.07.07a.71.71,0,0,0-.23.19.32.32,0,0,1-.33.1l0,.05a.19.19,0,0,1-.13.21.34.34,0,0,0,0,.41C21.38,82.25,21.44,82.05,21.61,82Z"/><path class="cls-5" d="M20.89,82.92l.08-.13c-.08-.1-.19-.06-.28-.07l0,0C20.72,82.84,20.7,83,20.89,82.92Z"/><polygon class="cls-5" points="21.18 82.31 21.18 82.31 21.18 82.3 21.18 82.31 21.18 82.31"/><path class="cls-5" d="M21.16,82.33l0,0S21.15,82.33,21.16,82.33Z"/><path class="cls-5" d="M24.22,79.78c0-.08.09-.23-.11-.24H24l-.07.07h0c0,.09,0,.2.07.27h0C24.09,79.84,24.2,79.88,24.22,79.78Z"/><path class="cls-5" d="M9.54,89a.26.26,0,0,0-.3,0,.39.39,0,0,0,.28.15h0C9.54,89.08,9.62,89,9.54,89Z"/><path class="cls-5" d="M65.42,69.38v0c.12-.18,0-.38.07-.57a.59.59,0,0,1,0-.08h0s0-.05,0-.07,0-.12,0-.17h0c-.1-.08-.21-.16-.35-.06s.05.27.07.4a.2.2,0,0,1,0,.22s0,0,0,.06a.24.24,0,0,0,0,.34l.09,0a.17.17,0,0,0,.1,0S65.45,69.4,65.42,69.38Z"/><path class="cls-5" d="M53.65,66.36h0c.05.08.13.07.21.06V66.3H53.8S53.69,66.33,53.65,66.36Z"/><path class="cls-5" d="M66.71,70.5a.21.21,0,0,0-.22-.06.17.17,0,0,0-.15.12.07.07,0,0,0,0,.08.37.37,0,0,0,.29-.06S66.72,70.51,66.71,70.5Z"/><path class="cls-5" d="M66.6,62.57c.1.07,0,.2.1.3.06-.09,0-.18.11-.23s0,0,0-.06a.16.16,0,0,0-.18-.16C66.58,62.43,66.6,62.52,66.6,62.57Z"/><path class="cls-5" d="M54.43,66.23h-.06c.07.1.17.07.27.06S54.51,66.24,54.43,66.23Z"/><path class="cls-5" d="M50.8,66s.08.1.11.1S51,66,51,66s0-.1-.08-.14-.13,0-.14.08Z"/><path class="cls-5" d="M39.4,62a.4.4,0,0,1,.24,0h.06c.08-.21-.12-.16-.21-.21s-.13,0-.2,0a.57.57,0,0,0-.13.08l0,0A.18.18,0,0,0,39.4,62Z"/><path class="cls-5" d="M42.68,58.6c-.09-.12-.18,0-.32,0,.13.08.22.12.31,0A0,0,0,0,0,42.68,58.6Z"/><path class="cls-5" d="M43,57.89c-.11,0-.3,0-.29-.08s-.12-.11-.2-.13a.19.19,0,0,1-.12-.07c-.07,0-.14-.1-.22,0a.17.17,0,0,0,0,.22.68.68,0,0,0,.12.12c.13,0,.2.12.3.18a.39.39,0,0,0,.49,0,.13.13,0,0,0,0-.15A.1.1,0,0,0,43,57.89Z"/><path class="cls-5" d="M14.73,92.18a.2.2,0,0,1-.06-.14c0-.1-.05-.13-.14-.14s-.25,0-.12.17l.12.17C14.6,92.24,14.68,92.26,14.73,92.18Z"/><path class="cls-5" d="M98.78,82.33a2.34,2.34,0,0,1-.52-.08.35.35,0,0,0-.2,0c-.06.11-.47.06-.17.34l.09,0a.35.35,0,0,1,.21.1.35.35,0,0,0,.38,0c.27,0,.51-.17.79-.14.06-.1.2-.14.2-.28h0a.26.26,0,0,0-.28,0c-.13-.05-.28,0-.41,0Z"/><path class="cls-5" d="M85.56,102.65l.09.06c.16.1.18.09.2-.09s0-.07,0-.1h-.07C85.59,102.42,85.57,102.43,85.56,102.65Z"/><path class="cls-5" d="M87,103.16s0-.11-.1-.11-.06,0-.06.07,0,.11.1.11S87,103.2,87,103.16Z"/><path class="cls-5" d="M93.72,101.73c-.06-.13-.22,0-.3-.11s-.12-.25-.29-.27-.18,0-.2.09.07.1.13.13a.23.23,0,0,1,.18.23c0,.2.14.16.25.17l.15-.14S93.73,101.79,93.72,101.73Z"/><path class="cls-5" d="M95.05,101.2v-.12A.07.07,0,0,0,95,101c-.06-.06-.12-.11-.21-.07h0c-.11.06-.09.14,0,.21a.13.13,0,0,0,0,.06.16.16,0,0,0,.07,0v.07h.21A.15.15,0,0,1,95.05,101.2Z"/><path class="cls-5" d="M92.92,95.49h.13c.06,0,.12-.08.17-.13s0-.1,0-.12S92.91,95.31,92.92,95.49Z"/><path class="cls-5" d="M93.9,94.54a0,0,0,0,1,0,0l0,0,0,0S93.87,94.55,93.9,94.54Z"/><path class="cls-5" d="M92.41,88.24c.15,0,.16.16.17.3l.16-.2,0-.17C92.61,88.18,92.49,88.14,92.41,88.24Z"/><path class="cls-5" d="M92.06,91s0,.08.08.09l0,0a.09.09,0,0,0,0-.11l-.09-.06h0A.28.28,0,0,1,92.06,91Z"/><path class="cls-5" d="M21.18,98.8a.35.35,0,0,0,.22-.21h0a.16.16,0,0,0,0-.09c-.13-.17-.22-.1-.31,0l-.08,0-.08.07-.06.07c-.07.15,0,.18.15.14Z"/><path class="cls-5" d="M15.75,97.21l.15.13.33-.07C16.08,97.16,15.91,97.23,15.75,97.21Z"/><path class="cls-5" d="M13.53,94.66c-.1,0-.15,0-.14.13S13.53,94.75,13.53,94.66Z"/><path class="cls-5" d="M71.75,50.77l.07.07A1.85,1.85,0,0,1,72,51h0l.07-.06h0c.1-.16,0-.21-.14-.28l-.31,0C71.61,50.71,71.72,50.7,71.75,50.77Z"/><path class="cls-5" d="M70.46,55.61c.09,0,.15,0,.15-.09s0-.19-.15-.12Z"/><path class="cls-5" d="M69.18,58.78c.07,0,.15,0,.19-.06l-.06-.08C69.23,58.65,69.08,58.6,69.18,58.78Z"/><path class="cls-5" d="M82.72,61.14c.07-.08,0-.15,0-.22S82.66,61.07,82.72,61.14Z"/><polygon class="cls-5" points="82.69 60.92 82.69 60.92 82.69 60.92 82.69 60.92"/><path class="cls-5" d="M87.34,67.34v0a.1.1,0,0,0,.05.06l.07,0,.11.05,0,0,.07,0a.08.08,0,0,0,.08,0,.06.06,0,0,0,0,0,.59.59,0,0,0,.4.25c.14,0,.26.12.39.16a.45.45,0,0,0,.23,0c.08,0,.16,0,.22-.06s-.06,0-.07-.07l-.15-.08a.42.42,0,0,0-.21-.06c-.09-.06-.21-.1-.25-.18s-.29-.2-.48-.18l-.13-.06c-.06-.06-.16,0-.22-.06h0C87.42,67.27,87.36,67.28,87.34,67.34Z"/><path class="cls-5" d="M88.43,67.42s0,.09.1.08a.11.11,0,0,0,.09-.12s0-.08-.08-.07S88.43,67.36,88.43,67.42Z"/><path class="cls-5" d="M85,66.05a.38.38,0,0,0,.4.25.13.13,0,0,0,.14-.07l-.07-.07-.07-.07h-.06a.19.19,0,0,1-.08-.07h-.06a.22.22,0,0,1-.09-.07h0A0,0,0,0,0,85,66,.3.3,0,0,0,85,66.05Z"/><path class="cls-5" d="M84.49,65.26l.2.08.08.06h0a.23.23,0,0,0,.07.07h0a.08.08,0,0,0,.09,0v0l0,0,.06.07c.07.06.12.13.18.19h0a1.14,1.14,0,0,1,.37.05l.06,0c.08,0,.13,0,.08-.13l-.15-.22-.14-.07v-.14h0a0,0,0,0,0,0,0c0-.07-.1-.08-.17-.08l0,0a.39.39,0,0,0-.32-.11C84.71,65.14,84.55,65.09,84.49,65.26Z"/><path class="cls-5" d="M76,52.31a.12.12,0,0,0,.09.1.08.08,0,0,0,.1-.07c0-.07,0-.1-.1-.11A.08.08,0,0,0,76,52.31Z"/><path class="cls-5" d="M80,57.78l0,0h0Z"/><path class="cls-5" d="M25.83,71.75c.08-.07.19,0,.26-.07a.45.45,0,0,0,.1-.09s0,0,0,0h.05a.13.13,0,0,0,.09,0,.41.41,0,0,0,.11-.07c.11-.09.29-.12.31-.29h0l0,0C27,71,27,71,26.76,71l-.07.06h0a1.1,1.1,0,0,0-.43.22l-.07.06h0a0,0,0,0,0,0,.06h-.06l0,0s0,0-.06,0h0a.13.13,0,0,1,0,.06h0c-.13,0-.19.09-.27.15a.46.46,0,0,0-.07.07c0,.06.08.06.14.07Z"/><path class="cls-5" d="M20.32,65.06h0a0,0,0,0,0,0,0s0,0-.05,0l0,0a.15.15,0,0,0,0-.17h0c-.07,0-.1-.16-.22-.14a.2.2,0,0,1,0,.07c.1.07.07.24.21.28h0a.39.39,0,0,0,.08.27C20.47,65.23,20.35,65.15,20.32,65.06Z"/><path class="cls-5" d="M21.69,65.12c-.07,0-.11-.08-.16-.12h-.06s0,0-.09,0a.22.22,0,0,0,0,.14c0,.12.15.15.24.21h0l.07.06h0s0,.1.08.14h0c.09.07,0,.25.22.27s.13.11.14.21,0,.26.25.25c0-.12,0-.25-.05-.38A7.82,7.82,0,0,0,21.69,65.12Z"/><path class="cls-5" d="M38.28,58.1l.06-.08a.12.12,0,0,0-.07-.14l-.28.21c-.08.18.07.13.15.14A.29.29,0,0,0,38.28,58.1Z"/><path class="cls-5" d="M39.51,52.93l-.09,0h0l.06.06Z"/><path class="cls-5" d="M95.92,77.27l-.22-.13a2.15,2.15,0,0,0-.67,0,.12.12,0,0,0-.07.07.14.14,0,0,0,0,.09c.1.12.24.09.37.13s.18,0,.23.09S95.79,77.35,95.92,77.27Z"/><polygon class="cls-5" points="94.92 76.31 94.92 76.31 94.92 76.31 94.92 76.31"/><path class="cls-5" d="M95,76.33l-.1,0S95,76.39,95,76.33Z"/><path class="cls-5" d="M95.79,75.2c0-.06,0-.08-.07-.1a.09.09,0,0,0-.08,0l-.08.13C95.68,75.39,95.75,75.34,95.79,75.2Z"/><polygon class="cls-5" points="94.49 76.24 94.49 76.23 94.49 76.23 94.49 76.24"/><path class="cls-5" d="M94.35,76v.06s0,0,0,.08.09,0,.14.06h0c0,.11-.21,0-.26.17a.84.84,0,0,0,.47,0c0-.06.13-.06.15-.14-.16,0-.11-.2-.22-.26S94.44,76,94.35,76Z"/><path class="cls-5" d="M95.84,75.69l.08.07a0,0,0,0,0,.07,0h.07v-.14H96a.16.16,0,0,0-.15,0h0S95.82,75.66,95.84,75.69Z"/><path class="cls-5" d="M96.51,74.94a.69.69,0,0,0-.4-.24s0,0,0,.08h0c.09.06,0,.21.13.25a.11.11,0,0,0,.08,0h.14S96.54,75,96.51,74.94Z"/><path class="cls-5" d="M91.84,71.48a2,2,0,0,0,.56.24s.06.06.1.1.25.08.2-.13c-.08-.06,0-.22-.21-.21h0a.39.39,0,0,0-.1-.08c-.17-.08-.32-.22-.54-.16S91.74,71.41,91.84,71.48Z"/><path class="cls-5" d="M87.92,103.34l-.09-.19h0l-.14-.14h-.07c-.08,0-.06.12-.06.19l0,0c.08,0,0,.13.06.19a.12.12,0,0,0,.06.06l.08,0h.09C88,103.45,88,103.4,87.92,103.34Z"/><path class="cls-5" d="M22.51,81.61c-.08-.08-.15,0-.21.09s0,0-.05,0h-.06a.44.44,0,0,0-.22.34.55.55,0,0,0-.22.06l-.05,0s-.08.07-.06.11.08,0,.12,0h.07l.06,0,.07,0A.12.12,0,0,0,22,82.2a.17.17,0,0,0,0-.07l0,0a.05.05,0,0,0,.08,0l.05,0a1.12,1.12,0,0,1,.3-.27C22.47,81.77,22.62,81.72,22.51,81.61Z"/><path class="cls-5" d="M25.34,79.21l0,0a.2.2,0,0,0,0-.08.53.53,0,0,0,0-.17.2.2,0,0,0,0-.08h0s0,0-.05,0h-.07v.06l-.07.08a.83.83,0,0,1-.08.12h0c-.29.17-.24.52-.48.77l.26-.07h0a.46.46,0,0,0,.07-.07c.1-.09.16-.21.29-.27a.51.51,0,0,0,0-.21.14.14,0,0,0,0-.06S25.32,79.23,25.34,79.21Z"/><path class="cls-5" d="M24.54,79.13a.23.23,0,0,1-.07.07l-.07.07c0,.18.12.11.21.07S24.63,79.18,24.54,79.13Z"/><path class="cls-5" d="M83.54,102.87h-.05s-.07,0-.08-.07h0a.16.16,0,0,0-.08.15c.07.08.12.19.26.18S83.54,103,83.54,102.87Z"/><path class="cls-5" d="M66.79,72.39c.16,0,.29,0,.37.13a.28.28,0,0,0,.16-.16.41.41,0,0,1,.07-.26c.1-.18.06-.27-.14-.4,0,.13-.06.26-.08.39S67.13,72.37,66.79,72.39Z"/><path class="cls-5" d="M73.19,71.28v-.67l-.16.1v.48c0,.16-.07.35.08.5A.25.25,0,0,0,73.19,71.28Z"/><path class="cls-5" d="M69.31,73.94a2.17,2.17,0,0,0,0-.26h0c-.08,0-.11,0-.14.08a.5.5,0,0,1-.07.27C69.21,74.09,69.29,74.06,69.31,73.94Z"/><path class="cls-5" d="M62.53,74.3s.13,0,.11.09.07.12.1.19a.74.74,0,0,0,.21,0c.07-.11,0-.2-.07-.28a.74.74,0,0,1-.15-.26C62.42,74,62.4,74.06,62.53,74.3Z"/><polygon class="cls-5" points="41.64 62.23 41.63 62.23 41.63 62.23 41.64 62.23"/><path class="cls-5" d="M41.26,61.83h0c-.06,0,0,.08,0,.13h0l.07.07h0l.21.15s.11,0,.15.06l.08-.08a.13.13,0,0,1,0-.06C41.62,61.9,41.41,61.91,41.26,61.83Z"/><path class="cls-5" d="M15,92.73l-.14.13a.13.13,0,0,0,0,.06C15.1,92.92,15.11,92.91,15,92.73Z"/><path class="cls-5" d="M16.59,94.25l0,0c-.09-.12-.21,0-.31,0h-.07a.66.66,0,0,1,0,.14.4.4,0,0,0,.31.11C16.6,94.42,16.67,94.37,16.59,94.25Z"/><path class="cls-5" d="M93.84,83.65s0-.07,0-.07-.07,0-.06.09l0,.09h0A.14.14,0,0,0,93.84,83.65Z"/><path class="cls-5" d="M95.42,86.37h0c.1-.15,0-.22-.11-.31C95.23,86.23,95.4,86.27,95.42,86.37Z"/><path class="cls-5" d="M96.56,100.94h0l-.08-.06c-.06,0-.12-.12-.21,0s0,.15,0,.21.11.17.24.18S96.55,101,96.56,100.94Z"/><path class="cls-5" d="M83.87,101.13c.09,0,.1-.07.11-.13a.2.2,0,0,0-.21-.13s0,.09,0,.13A.1.1,0,0,0,83.87,101.13Z"/><path class="cls-5" d="M22.28,98.78a.08.08,0,0,0,.06.11c.07,0,.1,0,.13-.09a.49.49,0,0,1,0-.21c.11-.24,0-.47,0-.7a.1.1,0,0,0-.13-.09c-.05,0-.06.06-.06.1s0,.23,0,.34A.78.78,0,0,1,22.28,98.78Z"/><path class="cls-5" d="M23.63,96.68a.2.2,0,0,0-.09-.11c-.12,0-.22-.14-.35,0h0a.1.1,0,0,0,0,.07.06.06,0,0,0,0,.06,1,1,0,0,1,.07.15h.08a.18.18,0,0,0,.2,0A.16.16,0,0,0,23.63,96.68Z"/><path class="cls-5" d="M70.74,57.61c0,.07-.12.13,0,.2s.12-.06.19-.08a.09.09,0,0,0,.08-.12c0-.07-.09-.07-.15-.06Z"/><path class="cls-5" d="M85,66c0-.14-.06-.19-.14-.27s0,.13-.06.2a.16.16,0,0,0,.07.07h0A.08.08,0,0,0,85,66Z"/><path class="cls-5" d="M25.5,77.65a.09.09,0,0,0-.07-.09c-.05,0-.09,0-.09.07s0,.09.07.1A.09.09,0,0,0,25.5,77.65Z"/><path class="cls-5" d="M28.75,75.55c.07.08.11,0,.17,0a.1.1,0,0,0,0,0c0-.15-.11-.11-.19-.07A.1.1,0,0,0,28.75,75.55Z"/><polygon class="cls-5" points="28.97 75.47 28.97 75.47 28.97 75.47 28.97 75.47"/><path class="cls-5" d="M29.06,75.22c0,.23.18.07.28,0h.06c.12.07.16-.06.24-.08a.47.47,0,0,0,.15-.12.12.12,0,0,0,0-.14.16.16,0,0,1-.15-.06.55.55,0,0,0-.43.27h0A.2.2,0,0,1,29.06,75.22Z"/><path class="cls-5" d="M28.54,75.8c-.05,0,0,.07,0,.1l.07-.07S28.58,75.77,28.54,75.8Z"/><path class="cls-5" d="M27.75,69.3a.08.08,0,0,0-.06-.08c-.07,0-.1,0-.12.1s0,.06.07.07A.09.09,0,0,0,27.75,69.3Z"/><path class="cls-5" d="M27.48,67.4c-.11,0-.05-.2-.18-.22s0,.27-.1.36,0,.22,0,.32,0-.13.11-.15,0,.23.21.18A1.17,1.17,0,0,1,27.48,67.4Z"/><path class="cls-5" d="M38.13,59.05v-.13H38C37.9,59.1,38,59.05,38.13,59.05Z"/><path class="cls-5" d="M91.84,75.89h0c-.09.17-.33.09-.46.27h.38c.11,0,.19-.08.3,0s.07-.05.07-.09L92.06,76C92,75.89,91.9,76,91.84,75.89Z"/><path class="cls-5" d="M93.56,72.85c0,.19,0,.21.22.28,0,0,.14,0,.07-.09s-.07-.17.09-.16,0,0,0-.09l-.06-.07C93.78,72.74,93.59,72.6,93.56,72.85Z"/><path class="cls-5" d="M93.28,72.44h0a.08.08,0,0,0,0,0v0c.1.16.2.19.31,0l.11-.08c0-.08,0-.15-.13-.1A.44.44,0,0,1,93.28,72.44Z"/><path class="cls-5" d="M89.06,68.78h0c.1,0,.18.13.33.1C89.28,68.77,89.21,68.63,89.06,68.78Z"/><path class="cls-5" d="M19.23,86.72l.1.14a.28.28,0,0,0,.28.17c.05,0,.1,0,.14,0h0A.42.42,0,0,0,19.23,86.72Z"/><path class="cls-5" d="M20.32,86.72c.22-.06,0-.13,0-.2s-.21,0-.19.11S20.25,86.74,20.32,86.72Z"/><path class="cls-5" d="M21.39,86.59a.08.08,0,0,1,0,.06l.13.07s.1,0,.14.09a.12.12,0,0,0,.08,0,.15.15,0,0,0,.11-.2.12.12,0,0,0-.05-.07.59.59,0,0,0-.14-.06l0,0-.07,0h0C21.44,86.45,21.32,86.42,21.39,86.59Z"/><path class="cls-5" d="M78.69,84.33a.2.2,0,0,0,0,.08.6.6,0,0,0,.06.11l.05.06h0a.51.51,0,0,1,.06.36c0,.14,0,.22.17.24h.06a.15.15,0,0,0,.06.09h0v.14l.06,0h0c0,.1,0,.23.12.28a.39.39,0,0,0,0-.51h0l0,0a.4.4,0,0,0-.06-.3.88.88,0,0,1-.12-.15h0l-.06-.07c0-.11-.11-.22-.16-.34S78.75,84.28,78.69,84.33Z"/><path class="cls-5" d="M86.84,105.36l-.15.12s-.19.09,0,.15a.33.33,0,0,0,.29,0h0c.07-.12.14,0,.22,0l0,0v-.06l0,0a.91.91,0,0,0,0-.33h-.05l-.3.13Z"/><path class="cls-5" d="M64.77,80.83a.14.14,0,0,0-.16-.11c-.12,0-.21,0-.23.16a.1.1,0,0,0,.11.11A.39.39,0,0,0,64.77,80.83Z"/><path class="cls-5" d="M71,94.22c-.12,0-.07.19-.17.23l-.07.07-.08,0a.11.11,0,0,0,0,.1.24.24,0,0,0,.1.1h.1c.18,0,.1-.19.18-.26h0C71,94.42,71.07,94.31,71,94.22Z"/><path class="cls-5" d="M62.66,82c-.08-.18-.09-.18-.35-.07,0,.13.14.18.17.32C62.53,82.15,62.56,82.07,62.66,82Z"/><path class="cls-5" d="M67.47,87.67c0,.09,0,.18-.08.23a2.44,2.44,0,0,0,0,.27h0c0,.08-.06.16.06.21s.16.1.27.06,0-.4.14-.56c-.14-.07-.22.09-.32,0S67.57,87.74,67.47,87.67Z"/><path class="cls-5" d="M67.92,87.47c-.06.22.1.41,0,.62.14,0,.12-.1.13-.19s0-.3.06-.42,0-.25-.17-.23S67.94,87.39,67.92,87.47Z"/><path class="cls-5" d="M73.84,86.12c0,.06,0,.08.1.08s.12-.1.12-.18S74,86,74,86,73.83,86,73.84,86.12Z"/><path class="cls-5" d="M84.27,100.58l.07.07c.1-.16.09-.2-.08-.27h0l-.06.08v.05A.46.46,0,0,0,84.27,100.58Z"/><path class="cls-5" d="M73.54,81.27a.83.83,0,0,1,.07.34c0,.11.09.24.25.16s.11-.19,0-.29,0,0,0-.07,0-.1-.07-.14l0,0s0,0,0,0a.47.47,0,0,0,0-.17s0-.11,0-.15h0c-.08-.07-.18,0-.26,0s-.16.07-.15.17S73.44,81.23,73.54,81.27Z"/><path class="cls-5" d="M73,93.69c-.11,0-.13.07-.14.16s0,.19-.07.25a2.18,2.18,0,0,0-.21.7l0,.12h0s0,0,0,0a.41.41,0,0,0-.07.34c0,.11,0,.2.2.13l.07-.07a1.11,1.11,0,0,1,.09-.4l0,0h.07a.13.13,0,0,0,0-.14h0a1.7,1.7,0,0,1,0-.5A1.66,1.66,0,0,0,73,93.69Z"/><path class="cls-5" d="M67.32,89.7a.17.17,0,0,1-.07.13c0,.14,0,.14.18,0h0a.15.15,0,0,0,0,.13c.11.05.16.18.28.21s.06,0,.07,0,.1-.22,0-.33-.13-.31-.35-.22C67.35,89.55,67.38,89.69,67.32,89.7Z"/><path class="cls-5" d="M72.28,96.3c-.22.07-.18.27-.24.43a.27.27,0,0,0,.07.27.35.35,0,0,0,.2-.07c0-.09,0-.18,0-.26S72.42,96.4,72.28,96.3Z"/><path class="cls-5" d="M67.9,94l0-.13-.13.07s0,.08,0,.13,0,.28.16.35h0A.61.61,0,0,0,67.9,94Z"/><path class="cls-5" d="M70.24,91.42h0c.05,0,.11.17.15,0s0-.16-.06-.16S70.25,91.35,70.24,91.42Z"/><path class="cls-5" d="M66.43,77.1c.07.06.12,0,.17,0h0c-.06,0-.07-.13-.16-.07A.06.06,0,0,0,66.43,77.1Z"/><path class="cls-5" d="M67.17,72.64s0,.1,0,.07S67.2,72.66,67.17,72.64Z"/><path class="cls-5" d="M71.1,63.52c.05,0,.1,0,.15-.05s.11-.14,0-.22-.09,0-.13,0l-.06.12S71,63.48,71.1,63.52Z"/><path class="cls-5" d="M67.24,61.27a.29.29,0,0,0,0-.09l0,0,0,.07Z"/><path class="cls-5" d="M39.71,70.65a.09.09,0,0,0,.06,0h.12l.07,0s.08,0,.1-.06l.08-.06c0-.08,0-.14-.08-.14H40a.55.55,0,0,1-.29.13Z"/><path class="cls-5" d="M44,68.86l-.16,0h-.13c-.09.11-.27,0-.36.13a.27.27,0,0,1-.07.08h0c0,.06.1.06.16.08a2.65,2.65,0,0,1,.63-.16C44.1,69,44.19,68.87,44,68.86Z"/><polygon class="cls-5" points="93.49 81.75 93.49 81.75 93.49 81.75 93.49 81.75"/><path class="cls-5" d="M93.32,81.52a3.26,3.26,0,0,0-.45-.09.22.22,0,0,0-.16,0c0,.11,0,.2.14.21s.16,0,.22,0l.06,0h.36C93.58,81.58,93.43,81.56,93.32,81.52Z"/><path class="cls-5" d="M93.69,82.61s0,0,0,0,.06.07.11.09h0S93.78,82.61,93.69,82.61Z"/><path class="cls-5" d="M92.42,81.4l-.37,0c.11.18.36.07.44.26.1,0,.16,0,.09-.14a1,1,0,0,0-.09-.13Z"/><path class="cls-5" d="M91.61,81.38c0,.09.06.15.16.18s0,0,.07.06c.24-.07,0-.14,0-.21S91.67,81.28,91.61,81.38Z"/><path class="cls-5" d="M93.8,81.31c.13.21,0,.33-.16.44h0s.1,0,.14.07a.23.23,0,0,1,.15.07,0,0,0,0,1,0,0s.1,0,.15,0h0l.09,0a.12.12,0,0,0,.1,0,.13.13,0,0,0,.1.11h0c.41,0,.82.14,1.25.11-.07-.12-.2-.09-.26-.17l-.2-.08a3.21,3.21,0,0,0-.43-.07H94.5a.13.13,0,0,1,0-.06.68.68,0,0,0-.43-.13c-.11-.15,0-.38-.21-.5A.13.13,0,0,0,93.8,81.31Z"/><path class="cls-5" d="M93.5,88.49c0,.05,0,.08.09.06s0,0,0-.08,0-.06-.05-.06S93.5,88.45,93.5,88.49Z"/><path class="cls-5" d="M17.4,95.42a.2.2,0,0,1-.15-.07l-.29.07h0a.08.08,0,0,0,0,.13c.1,0,.21,0,.28.07a.4.4,0,0,0,.28-.07A.12.12,0,0,0,17.4,95.42Z"/><path class="cls-5" d="M79.62,64.44h0a2,2,0,0,0-.06.23.11.11,0,0,0,.09.09s.08,0,.09,0,.26-.33.09-.56C79.74,64.26,79.74,64.4,79.62,64.44Z"/><path class="cls-5" d="M86.2,68l.07.07a.24.24,0,0,0,.29-.13h0l-.07-.06h0C86.22,67.76,86.22,67.76,86.2,68Z"/><path class="cls-5" d="M86.49,70h0l-.08-.06h-.13s0,0,0,0a0,0,0,0,1,0,0l-.08-.06c-.05-.07-.12,0-.19,0s-.16,0-.24,0h0a.06.06,0,0,0-.07,0h-.06a.24.24,0,0,1-.23,0H85c-.09,0-.14-.16-.24,0s0,0,0,.06.17,0,.26.06v.07a.29.29,0,0,0,.12.07l.18.08a2.76,2.76,0,0,0,1,.18C86.37,70.15,86.5,70.14,86.49,70Z"/><path class="cls-5" d="M82.05,68.17l.08-.07a1,1,0,0,1,0-.17c0-.21-.08-.07-.15,0V68C82,68,81.87,68.15,82.05,68.17Z"/><path class="cls-5" d="M82.84,68H83v-.13C82.87,67.88,82.83,67.92,82.84,68Z"/><path class="cls-5" d="M84.27,69.54a.18.18,0,0,0-.07-.05l-.15-.08a.84.84,0,0,0-.27-.13l-.12,0-.07,0a.34.34,0,0,0-.12,0h-.08a.34.34,0,0,1-.2,0h-.12s-.07,0-.1,0l-.09,0c-.18,0-.15.11-.07.22a.32.32,0,0,0,.17.09c.1,0,.19-.06.28,0s.26,0,.38.08a1.37,1.37,0,0,0,.49.13s.1,0,.13.07h0C84.42,69.69,84.35,69.61,84.27,69.54Z"/><path class="cls-5" d="M84.19,69.34h0c.11.06.26,0,.36.14h0c.08,0,.14,0,.14-.13a.49.49,0,0,0-.49-.14S84.15,69.29,84.19,69.34Z"/><path class="cls-5" d="M80.27,66.63c.06,0,.13.1.17,0s.1-.23-.1-.25l-.06.08Z"/><path class="cls-5" d="M88.33,68.52c.18-.13-.08-.2,0-.31s-.09-.1-.16-.13c-.24,0-.24,0-.2.15l.07.06C88.1,68.37,88.13,68.57,88.33,68.52Z"/><path class="cls-5" d="M87.48,67.62c-.11,0-.15,0-.14.13l.08.06C87.62,67.8,87.51,67.7,87.48,67.62Z"/><path class="cls-5" d="M73.39,61.06c0-.06.08-.07.14-.08a.39.39,0,0,1,.13-.23s.1-.09,0-.14a.12.12,0,0,0-.19,0c-.09.17-.3.24-.41.4s0,.05,0,.05-.17,0-.09.16.11,0,.17,0S73.3,61.12,73.39,61.06Z"/><path class="cls-5" d="M73.61,60.23h0a0,0,0,0,0,0,.06h0a.46.46,0,0,0,.07.07h.07a.64.64,0,0,0,.08-.14.43.43,0,0,1,0,0C73.71,60.07,73.66,60.16,73.61,60.23Z"/><path class="cls-5" d="M72.54,59.13c0,.07,0,.16.07.17s.12,0,.13-.12,0-.21-.13-.12Z"/><path class="cls-5" d="M29.77,71.46c.08,0,.06-.12,0-.18a1.51,1.51,0,0,0-.11-.22s-.05,0-.08-.06-.18.09-.06.33l.05,0C29.65,71.44,29.69,71.5,29.77,71.46Z"/><path class="cls-5" d="M28.34,77.1c.05.17.25,0,.38,0l.1,0a.4.4,0,0,0,.3-.09c.11-.19.32-.29.43-.48h.07c0-.1,0-.2-.07-.28s0-.23-.22-.14-.25.27-.42.35-.15.23-.22.34S28.29,76.91,28.34,77.1Z"/><path class="cls-5" d="M28.26,71.2l-.07-.07h0a.1.1,0,0,0-.14,0,.33.33,0,0,0,.07.27C28.28,71.41,28.27,71.3,28.26,71.2Z"/><path class="cls-5" d="M28.41,68.86s.07-.1,0-.16-.11,0-.16,0l-.08.06a.14.14,0,0,0,.16.15Z"/><path class="cls-5" d="M27.82,70.4s0,0,0,0,0,.13.1.13a.16.16,0,0,0,0-.06S27.91,70.39,27.82,70.4Z"/><path class="cls-5" d="M94.11,81.3l.38.18c.08,0,.17,0,.24,0a.3.3,0,0,0-.17-.18C94.43,81.4,94.27,81.22,94.11,81.3Z"/><path class="cls-5" d="M93.92,77.21h-.14a.57.57,0,0,1,0,.13h.07c.12,0,.26,0,.36-.08h0C94.12,77.2,94,77.28,93.92,77.21Z"/><path class="cls-5" d="M91.28,76.29c-.23-.08-.42.09-.64.08a.24.24,0,0,0-.14,0,.13.13,0,0,0-.06.07.14.14,0,0,0,0,.17c.07.06.14.18.21,0s.44,0,.65-.06h0C91.33,76.44,91.3,76.37,91.28,76.29Z"/><path class="cls-5" d="M88.55,71.75s-.1,0-.14-.07h0a.46.46,0,0,1-.07-.07h0a.06.06,0,0,0-.09,0,.2.2,0,0,0,0,.08,1.75,1.75,0,0,0,.08.51.22.22,0,0,0,0,.08s.09,0,.14,0,0-.37.07-.55Z"/><path class="cls-5" d="M92.34,72.45c-.07,0-.15,0-.2.06s.06.15.17.16S92.34,72.52,92.34,72.45Z"/><path class="cls-5" d="M92.94,72.67l-.09,0h0S92.89,72.74,92.94,72.67Z"/><path class="cls-5" d="M22.37,84.44s-.06,0-.1-.06l-.07.12.05,0C22.3,84.51,22.37,84.52,22.37,84.44Z"/><path class="cls-5" d="M77.15,81.42c.09.16.2.2.36.1l-.12-.17c-.06,0,0-.12-.08-.17s-.2-.17-.33-.05C77,81.23,77.1,81.32,77.15,81.42Z"/><path class="cls-5" d="M86.3,105.05c0,.09.06.08.11.1h0c0-.06,0-.12-.09-.12Z"/><path class="cls-5" d="M71.75,98.87v.33h.06a.28.28,0,0,0,.07-.19C71.81,99,71.85,98.87,71.75,98.87Z"/><path class="cls-5" d="M66.24,90.58a.54.54,0,0,1-.21.08,1,1,0,0,0-.15.14s-.1.12,0,.17.11,0,.17,0,.27-.11.29-.28Z"/><path class="cls-5" d="M66.31,89.34s0,0,0,.07h.2c0-.15,0-.21-.19-.12C66.32,89.3,66.31,89.32,66.31,89.34Z"/><path class="cls-5" d="M67.74,84.17V84c0-.07,0-.16-.12-.05S67.61,84.17,67.74,84.17Z"/><path class="cls-5" d="M72,95.69a.38.38,0,0,1-.14.14c0,.15.11.14.21.13a.08.08,0,0,0,.07-.07l.08-.13A.14.14,0,0,0,72,95.69Z"/><path class="cls-5" d="M68.31,84.55s0-.11,0-.16-.18-.12-.2.06v.2C68.22,84.72,68.29,84.68,68.31,84.55Z"/><path class="cls-5" d="M68.31,84.17h.06l0-.13s0-.1-.07-.14h0c-.16-.08-.22,0-.29.14s0,.1-.07.14.05.13.14.07S68.27,84.26,68.31,84.17Z"/><path class="cls-5" d="M72.25,95.76a.19.19,0,0,0,.21.13c0-.11.05-.23-.06-.33A.24.24,0,0,1,72.25,95.76Z"/><path class="cls-5" d="M73.67,70.86h0c.07,0,.16.11.19,0s0-.11-.13-.12S73.66,70.8,73.67,70.86Z"/><path class="cls-5" d="M74,62.85h0c-.07.06,0,.15-.07.21h0c0,.09,0,.18,0,.28v.06a.44.44,0,0,0,0,.34h0a.11.11,0,0,0-.09.05.41.41,0,0,0,0,.45,4.11,4.11,0,0,0-.1.41c0,.2,0,.43-.09.62a2,2,0,0,0-.09.76h.12a.23.23,0,0,0,.07-.07l0-.08a1.59,1.59,0,0,1,.07-.38A6.27,6.27,0,0,0,74,64.11c0-.1,0-.21,0-.31a.07.07,0,0,0,0,0H74a2.57,2.57,0,0,0,.08-.47c.06-.06,0-.15.07-.21a1.27,1.27,0,0,1,0-.2c0-.06,0-.12-.09-.15h0S74.08,62.81,74,62.85Z"/><path class="cls-5" d="M72.17,62.26s0,0,0-.06,0,0,0,0,0,0,0,.05S72.15,62.28,72.17,62.26Z"/><path class="cls-5" d="M33,73.23l.11,0,.07,0c.1,0,.1-.14.14-.22a4.31,4.31,0,0,1,.51-.62.13.13,0,0,0,.06-.07h0c0-.06-.07-.06-.12-.06h0l-.08,0a.71.71,0,0,0-.15.08c-.08,0-.17.06-.2.15s-.22.23-.3.36a.71.71,0,0,1-.1.14l0,0-.06,0-.06,0a.39.39,0,0,0-.1.08.19.19,0,0,0,0,.08.13.13,0,0,0,.07.09h.09l.11,0Z"/><path class="cls-5" d="M34.92,73a.13.13,0,0,0-.13-.07.25.25,0,0,1-.16.06c-.2,0-.25.13-.33.24s.05.1.11.11a.68.68,0,0,1,.43-.15A.15.15,0,0,0,34.92,73Z"/><path class="cls-5" d="M21.9,101.83v-.07a2.44,2.44,0,0,1,0-.27s0,0,0,0,0,0,0,0H22a0,0,0,0,0,0-.06.56.56,0,0,1-.08-.27h-.14v.55h-.06c0,.25,0,.28.2.27Z"/><path class="cls-5" d="M21.86,104.74a2.26,2.26,0,0,1,.63-.17.18.18,0,0,0,.07,0c0-.15.11,0,.13-.11a.13.13,0,0,0,.06-.07c0-.17-.09-.17-.21-.1a.38.38,0,0,0-.24.13.33.33,0,0,1-.4,0v0a.17.17,0,0,0-.07-.13h0c.28-.06.13-.28.16-.43a8.7,8.7,0,0,1,0-.89,1,1,0,0,0,0-.24v0c0-.11-.14-.2-.06-.34s0,0,0-.06a.14.14,0,0,1-.06-.14c-.07,0-.11,0-.1.1a.39.39,0,0,1,0,.39,1.85,1.85,0,0,1-.11.9.2.2,0,0,0,0,.2.77.77,0,0,1,0,.34,1.34,1.34,0,0,1,0,.2c-.07.12.05.23,0,.34a.38.38,0,0,0-.06.13.39.39,0,0,0,0,.15.12.12,0,0,0,.09.09.09.09,0,0,0,.08,0A.44.44,0,0,0,21.86,104.74Zm-.09-.67h0v0Z"/><path class="cls-5" d="M23.4,95.42h0s.05,0,.06-.08v-.13a.14.14,0,0,0-.22,0c-.06.08.05.11.09.15S23.38,95.41,23.4,95.42Z"/><path class="cls-5" d="M24,96.78a.25.25,0,0,1,.15-.06v-.06l0,0a.16.16,0,0,0-.17,0l0,0C23.9,96.66,23.88,96.74,24,96.78Z"/><path class="cls-5" d="M75.12,61.07v.12C75.19,61.15,75.19,61.11,75.12,61.07Z"/><polygon class="cls-5" points="72.96 61.61 72.96 61.61 72.96 61.61 72.96 61.61"/><path class="cls-5" d="M72.53,61.5a.19.19,0,0,0,0,.25c.06.06.15,0,.22,0a.28.28,0,0,0,.17-.11,1.08,1.08,0,0,1-.3-.46A2.84,2.84,0,0,1,72.53,61.5Z"/><path class="cls-5" d="M25.87,78.55c-.11,0-.12.08-.19.09h0s-.07.14,0,.12A.17.17,0,0,0,25.87,78.55Z"/><path class="cls-5" d="M30,74.44h0c.07.12.15,0,.22,0v-.06s0,0-.07,0h-.06S30,74.42,30,74.44Z"/><path class="cls-5" d="M27.19,78h0c-.06-.08-.13-.12-.18,0s.06.07.11.08h0Z"/><path class="cls-5" d="M32.85,78.79s0,.1,0,.13c.31-.13.5-.41.79-.55,0-.09.23-.18,0-.27h-.07A4.28,4.28,0,0,0,32.85,78.79Z"/><path class="cls-5" d="M34.12,77.74l-.06,0-.07.06h0l-.08.06h0l-.07.07.08.08c.1,0,.22,0,.21-.15S34.12,77.79,34.12,77.74Z"/><polygon class="cls-5" points="33.84 77.96 33.84 77.96 33.84 77.96 33.84 77.96"/><path class="cls-5" d="M31.09,75l0,.07v0c.07.07.12,0,.17,0s.05-.1.11-.13h0s.11,0,.13-.07h0a.19.19,0,0,0,.08-.07c.12-.1.13-.27.29-.34a.14.14,0,0,1,.13-.07.27.27,0,0,0,.08-.07h0c.05-.07.06-.16.11-.23s0-.18-.17-.1-.19.27-.35.34a.53.53,0,0,0-.31.17l0,.08a.4.4,0,0,1-.09.21l-.05.07a.47.47,0,0,1-.05.1Z"/><path class="cls-5" d="M30.62,75.4c0-.11.23-.18.08-.33h0a1430629207429.91,1430629207429.91,0,0,0-.22.14h0c-.06.09-.09.18.08.2Z"/><path class="cls-5" d="M30.77,68l-.15,0-.07.06c-.05.07-.13.06-.2.07a.29.29,0,0,0,.41.06A1.48,1.48,0,0,0,30.77,68Z"/><path class="cls-5" d="M93,81.14c-.1,0-.21,0-.13.13C92.94,81.27,93,81.24,93,81.14Z"/><path class="cls-5" d="M88.48,71.07s0,0,0,.05l.55.09c.17,0,.13-.12.08-.22h-.22C88.77,71,88.6,70.92,88.48,71.07Z"/><path class="cls-5" d="M23.61,85.28l-.17,0a.12.12,0,0,0-.15,0c0,.06,0,.11.05.16s.21,0,.28-.07A.13.13,0,0,1,23.61,85.28Z"/><path class="cls-5" d="M26.27,83.37c-.13,0-.24.08-.15.24s.17,0,.2,0,.29.09.44.05C26.69,83.45,26.45,83.43,26.27,83.37Z"/><path class="cls-5" d="M27.92,83.42c.07.1.15,0,.22,0s.23-.18.35-.27.31-.56.55-.77c0-.11.09-.2,0-.35l-.36.43a.36.36,0,0,1-.1.18,2.14,2.14,0,0,0-.41.44h0l-.07.06a.24.24,0,0,1-.11.13C27.94,83.29,27.88,83.35,27.92,83.42Z"/><path class="cls-5" d="M78.32,104.12c-.08,0-.06.12-.06.19C78.45,104.3,78.37,104.21,78.32,104.12Z"/><path class="cls-5" d="M66.46,91.34c0-.11,0-.22,0-.33s-.13-.08-.18,0a.42.42,0,0,0,.11.47h0a.08.08,0,0,0,0-.11s0,0,0,0h0S66.44,91.36,66.46,91.34Zm-.08,0h0Z"/><path class="cls-5" d="M77.61,74.89s0,.07,0,.07.1,0,.1-.11a.15.15,0,0,0,0-.09C77.65,74.77,77.62,74.82,77.61,74.89Z"/><path class="cls-5" d="M67,97.45a.41.41,0,0,0,0-.09.2.2,0,0,0,0-.15.91.91,0,0,0-.23-.15.09.09,0,0,0-.09,0,.23.23,0,0,0-.07.17,1.93,1.93,0,0,0,0,.34,1,1,0,0,1,0,.56l0,.13a.14.14,0,0,0,0,.09.15.15,0,0,0,0,.07h0c.06,0,.11,0,.09.11a.87.87,0,0,0,0,.36c0,.13.11.13.21.08l.06-.07h0c0-.08,0-.1-.06-.14s0,0,0-.06A2.64,2.64,0,0,1,67,97.45Z"/><path class="cls-5" d="M69.92,101.62H70v-.06l-.06,0s-.09,0-.11,0S69.87,101.62,69.92,101.62Z"/><path class="cls-5" d="M69.77,101.91s0,0,0,0h0c0-.07,0-.15-.06-.19v.19h0Z"/><path class="cls-5" d="M69.75,100.86c.11,0,.21,0,.22-.13s-.15,0-.22,0Z"/><path class="cls-5" d="M66.9,93.13c.08,0,0,.25.19.14a.57.57,0,0,1,0-.13C67,93.12,67,93,66.9,93.13Z"/><path class="cls-5" d="M61.89,84.79c0,.09,0,.12.12.12s.08-.15.07-.25A.16.16,0,0,0,61.89,84.79Z"/><path class="cls-5" d="M47.36,77.75a.31.31,0,0,0,.29.06.18.18,0,0,0,.09-.06.1.1,0,0,0,0-.13h0c-.18-.06-.31-.21-.49-.29h0a.21.21,0,0,1-.08-.06.46.46,0,0,0-.07-.07L47,77.13h0c-.13.06-.12.15,0,.24s.16.09.19.18h0l.08.06.08.07a.13.13,0,0,0,.06.07Z"/><path class="cls-5" d="M55.23,76.72v.06l.09,0C55.32,76.7,55.27,76.73,55.23,76.72Z"/><path class="cls-5" d="M32.33,73.89a.17.17,0,0,1,0-.07s0-.1.07-.13h0a.25.25,0,0,0-.22-.14l-.21.07a.23.23,0,0,1-.07.07h0a.13.13,0,0,0,.14.07s0,0,0,0a0,0,0,0,0,0,0s.06,0,.07,0S32.25,73.88,32.33,73.89Z"/><path class="cls-5" d="M90.84,80.72a.1.1,0,0,0-.15,0,.08.08,0,0,0,0,.12h0s.1.07.14,0v-.14Z"/><path class="cls-5" d="M82.76,81.27h0c.06-.07.16,0,.22-.07v-.07h-.35A.19.19,0,0,0,82.76,81.27Z"/><path class="cls-5" d="M23.5,93.36c0-.07-.09-.15-.19-.12s0,.11,0,.17a1.05,1.05,0,0,0,0,.18.4.4,0,0,1,.12-.08C23.43,93.47,23.56,93.48,23.5,93.36Z"/><path class="cls-5" d="M80.12,68.72a.3.3,0,0,0,0,.1c0,.06-.06.13,0,.17a.15.15,0,0,0,.17-.08.51.51,0,0,0,0-.13A.26.26,0,0,0,80.12,68.72Z"/><polygon class="cls-5" points="28.83 82.93 28.83 82.93 28.83 82.93 28.83 82.93"/><path class="cls-5" d="M28.82,83v0S28.79,83,28.82,83Z"/><path class="cls-5" d="M32.84,67.54c0-.1-.05-.13-.14-.13l-.07.06C32.68,67.56,32.76,67.55,32.84,67.54Z"/><path class="cls-5" d="M89.68,76.49h0s0,0,0,0h0Z"/><path class="cls-5" d="M90.28,76.45l0,0,0,0Z"/><path class="cls-5" d="M90.74,80s-.06-.05-.11,0v.12C90.69,80.09,90.76,80.09,90.74,80Z"/><path class="cls-5" d="M24.54,84c-.05,0-.06-.12-.12-.09s0,.1,0,.15a.41.41,0,0,0,.11.07h0A.5.5,0,0,0,24.54,84Z"/><path class="cls-5" d="M63.31,92.93s0,.12.09.11a0,0,0,0,0,0,0C63.43,92.94,63.36,92.94,63.31,92.93Z"/><path class="cls-5" d="M79.18,80.52l0,0c.19,0,.2,0,.14-.14S79.21,80.45,79.18,80.52Z"/><path class="cls-5" d="M66.62,96.05a.07.07,0,0,0,.06.07,0,0,0,0,0,.06-.05s0-.07-.06-.08A.05.05,0,0,0,66.62,96.05Z"/><path class="cls-5" d="M60.72,88.26H60.6c-.08.08-.1.21-.22.26-.19.26-.17.31.13.34,0-.06,0-.15,0-.16C60.8,88.61,60.74,88.43,60.72,88.26Z"/><path class="cls-5" d="M61.79,87.35l-.06-.07c-.08,0-.18,0-.18.08s.05.19.16.17S61.8,87.43,61.79,87.35Z"/><path class="cls-5" d="M56.93,83.4l-.06-.13c-.1,0-.15,0-.14.14Z"/><path class="cls-5" d="M49.36,78.65c0,.1,0,.16.1.13s.49-.18.73,0l0-.08c-.13-.07,0-.21-.07-.28a.57.57,0,0,1-.36-.13c0,.11-.09.23-.26.19S49.37,78.55,49.36,78.65Z"/><path class="cls-5" d="M88.27,79.48h.06c.09-.1,0-.14-.07-.19h0C88.09,79.35,88.15,79.42,88.27,79.48Z"/><path class="cls-5" d="M83.26,80.66h-.07c-.07.08,0,.19-.06.27l.07.06h.13l.07-.07C83.56,80.73,83.33,80.73,83.26,80.66Z"/><path class="cls-5" d="M84.06,79s.1,0,.08-.08-.1,0-.15,0a0,0,0,0,0,0,0Z"/><path class="cls-5" d="M25.47,96.48l0,0s0,0,0,0,0,0,.05,0S25.51,96.48,25.47,96.48Z"/><path class="cls-5" d="M38.42,93.43a.42.42,0,0,0-.15-.35,4.14,4.14,0,0,1-.36-.89c-.09.12,0,.26-.13.33-.05.22.18.33.22.52a1.81,1.81,0,0,0,.27.58C38.42,93.63,38.41,93.51,38.42,93.43Z"/><path class="cls-5" d="M39.12,95.71a.28.28,0,0,1-.06-.23.86.86,0,0,0,0-.28c0-.24-.17-.43-.21-.66a.1.1,0,0,0-.08,0h0l0-.11h-.06c-.05-.06-.1-.07-.15,0a.21.21,0,0,0,0,.31.61.61,0,0,1,.15.48.57.57,0,0,0,.08.26.35.35,0,0,1,0,.08l.08.2a.17.17,0,0,1,.09.13C39.06,95.81,39.09,95.76,39.12,95.71Z"/><path class="cls-5" d="M37.63,94.73a.41.41,0,0,0-.11,0c-.06,0-.13,0-.14.06s0,.09.09.13.26,0,.37-.06C37.8,94.77,37.67,94.81,37.63,94.73Z"/><path class="cls-5" d="M36.4,82.18h-.12c0,.12-.06.25.14.28S36.43,82.27,36.4,82.18Z"/><path class="cls-5" d="M27.84,88.93c.09,0,.14-.05.14-.14a.44.44,0,0,0-.29-.14c0,.13.06.2.15.28Z"/><path class="cls-5" d="M61.92,100.91a.14.14,0,0,0,0,.23A.57.57,0,0,1,62,101a.16.16,0,0,1,.06-.08h0C62,100.87,62,100.84,61.92,100.91Z"/><path class="cls-5" d="M66.6,97.62c0-.09-.1-.14-.2-.06a.61.61,0,0,0-.07.14C66.46,97.8,66.56,97.8,66.6,97.62Z"/><path class="cls-5" d="M80.19,73.2a.12.12,0,0,0,.14.14A.13.13,0,0,0,80.19,73.2Z"/><path class="cls-5" d="M48.25,80.16a.28.28,0,0,0,0,.09.61.61,0,0,0,.07.1l0,0,.14-.06c.1,0,.26,0,.28-.14h0c-.14-.1-.38-.09-.34-.35a.14.14,0,0,0-.17,0C48.21,80,48.25,80.06,48.25,80.16Z"/><path class="cls-5" d="M49.22,80.47s0,0,0,0,.06.07.11.08h0S49.3,80.47,49.22,80.47Z"/><path class="cls-5" d="M47.25,79.2h.1l-.05-.09s-.09,0-.12,0S47.2,79.19,47.25,79.2Z"/><path class="cls-5" d="M48.3,78.79c0,.19.17.15.28.2.17-.14,0-.18-.08-.27l-.15-.13a.14.14,0,0,0-.06.13A.2.2,0,0,0,48.3,78.79Z"/><path class="cls-5" d="M87.7,79.35h-.06s0,0,0,0a.08.08,0,0,0,.09,0S87.73,79.37,87.7,79.35Z"/><path class="cls-5" d="M27.47,102.31a1,1,0,0,0,0-.35s-.05-.06-.09-.06c-.12.17-.07.4-.22.55h0c-.05.08-.06.16,0,.21s.16,0,.21-.06a.42.42,0,0,0,.07-.24Z"/><path class="cls-5" d="M85.62,75.76a1.15,1.15,0,0,1-.57-.29h0a.11.11,0,0,0-.08,0c0-.13-.26,0-.3-.16a.43.43,0,0,1-.06-.22c0-.07,0-.16-.13-.23,0,.23-.07.34-.29.37.19.24.5.19.65.41a4.44,4.44,0,0,0,1,.56c.07,0,.15,0,.2-.07L86,76c0-.08-.15-.09-.2-.15A.38.38,0,0,1,85.62,75.76Z"/><path class="cls-5" d="M29.54,94.65l.07-.07c0-.12.15-.2.15-.33s0-.17-.14-.08-.41.2-.28.49h0A.15.15,0,0,0,29.54,94.65Z"/><path class="cls-5" d="M29,96.73l-.15.06a.09.09,0,0,0-.14,0c0,.06,0,.09.08.12H29A.15.15,0,0,0,29,96.73Z"/><path class="cls-5" d="M38.63,94s0,0,0-.06c-.18-.1-.2-.09-.21.12a.23.23,0,0,1,.07.14C38.59,94.19,38.54,94.07,38.63,94Z"/><path class="cls-5" d="M38.27,88.39c-.09,0-.12-.17-.22-.09s0,.16,0,.24v0h.13A.19.19,0,0,0,38.27,88.39Z"/><path class="cls-5" d="M37.38,84.08l0,0,0,.06s0,0,0-.06S37.39,84.1,37.38,84.08Z"/><path class="cls-5" d="M48.36,94.14c0,.06,0,.13-.07.17l0,0a.47.47,0,0,0,0,.26c0,.13,0,.28.15.35a.1.1,0,0,0,.09,0c0-.12-.12-.23,0-.35a.72.72,0,0,1,.07-.41s0-.1-.07-.11S48.37,94.09,48.36,94.14Z"/><path class="cls-5" d="M57.37,99.21c0-.07.11-.14,0-.21h-.13a.57.57,0,0,1-.18,0L57,99l-.21,0h-.59l.19.13c.14,0,.24,0,.22.2a.12.12,0,0,0,.07.14h.14v-.11l0,0,0,0a.2.2,0,0,1,.09,0c.07,0,0,.07,0,.11s-.09.17,0,.24a.14.14,0,0,0,.09,0h.1c.14,0,.34.05.41-.1S57.36,99.36,57.37,99.21Z"/><path class="cls-5" d="M57.55,96.75l0,.09s.08.13.15.08.06-.18,0-.27v-.06h0l-.06-.08c0-.06,0-.12-.08-.19s-.06.17-.07.27S57.53,96.7,57.55,96.75Z"/><path class="cls-5" d="M52.54,98.6c-.14.05,0,.18,0,.26h0l.07.07h0c.08,0,.11,0,.14-.07V98.8C52.62,98.76,52.68,98.56,52.54,98.6Z"/><path class="cls-5" d="M59.58,96.72a.2.2,0,0,0,.11,0,.31.31,0,0,0,.09-.07l0,0c0-.08,0-.17-.07-.21a1.07,1.07,0,0,0-.29.27A.13.13,0,0,0,59.58,96.72Z"/><path class="cls-5" d="M61.83,101.55c0,.08.06.11.12.14h0l.07-.07h0c0-.07,0-.13-.12-.12S61.83,101.51,61.83,101.55Z"/><path class="cls-5" d="M61.22,102.17c0,.18.1,0,.16,0h0a.15.15,0,0,0-.07-.14h0l-.08.07S61.22,102.15,61.22,102.17Z"/><path class="cls-5" d="M62.17,101.22c0,.14.08.08.14.06A.12.12,0,0,0,62.17,101.22Z"/><path class="cls-5" d="M61.1,102.32c-.05,0,0,.1-.08.13h0a.16.16,0,0,1-.08.06h-.06c-.05,0-.09,0-.08.1s0,0,.08,0h.28c0-.07,0-.15.08-.2v-.06c0-.12-.06-.12-.14-.07Z"/><path class="cls-5" d="M49.79,85.41l0,0a0,0,0,0,0-.05,0,.13.13,0,0,0-.15.14.09.09,0,0,0,0,.07.1.1,0,0,0,.05.06l.13,0A.29.29,0,0,0,49.79,85.41Z"/><path class="cls-5" d="M28.33,91.69s-.08-.07-.14,0,0,0,0,0,.1,0,.16,0Z"/><path class="cls-5" d="M47.57,101.21h0a3.78,3.78,0,0,0,.21.56v0c.22.32.22.32.23.49a.34.34,0,0,0,.36.33.21.21,0,0,0,.18-.18.2.2,0,0,0-.09-.22.08.08,0,0,0-.09,0h0a.21.21,0,0,0,.06-.17l0-.09a.28.28,0,0,0-.29-.22h0v-.1s0,0,0,0-.06-.15-.1-.21-.12-.37-.37-.38C47.54,101.08,47.52,101.14,47.57,101.21Z"/><path class="cls-5" d="M40.92,100.55c0,.31,0,.35,0,.36H41A.25.25,0,0,0,40.92,100.55Z"/><path class="cls-5" d="M26.72,104.13a.31.31,0,0,0,0,.32l0,0c.07,0,.13,0,.18,0h0a.46.46,0,0,0,.07-.07c0-.06.29-.06.07-.19-.07,0-.16.08-.21,0S26.74,104.08,26.72,104.13Z"/><path class="cls-5" d="M45.35,97.36c.07,0,.24,0,.14-.14s-.29,0-.42-.09h-.28v0c-.07,0-.15,0-.23,0a.47.47,0,0,0,.23,0,.15.15,0,0,1,.15.07l.07.06h.06a.23.23,0,0,0,.2,0Z"/><path class="cls-5" d="M46.78,99.14l0,0a.29.29,0,0,1-.12-.18l0-.09a.34.34,0,0,0-.26-.24h0a.15.15,0,0,0-.14.07l.22.41c.06.06,0,.15.07.21h0l.08.06C46.74,99.37,46.8,99.29,46.78,99.14Z"/><path class="cls-5" d="M43.08,97.34h.05l.07-.07v0l-.06-.08V97c.08,0,.16,0,.21-.07a.16.16,0,0,1-.15-.11l-.08,0,0,0c-.08-.05-.15-.12-.24,0h0l.06.26L43,97A.43.43,0,0,0,43.08,97.34Z"/><path class="cls-5" d="M41.88,88.71h0c0-.07,0-.15-.07-.19a.25.25,0,0,1-.15-.06c-.11.09-.09.18,0,.26v.07h.06a.13.13,0,0,1,0,.06.46.46,0,0,1,.15.26.17.17,0,0,0,.06.08h0c0,.1,0,.21.14.28s.07.12.15.14a.64.64,0,0,1,.08.33c.05.07,0,.16.06.22h0s0,.11.06.16.05.1.06.16,0,0,.06.05a.21.21,0,0,1,.29-.1h0v.09a2,2,0,0,0,.18.32l.07.1,0,.08a.42.42,0,0,0,.18.23c.15,0,.21.11.29.21s.16.1.19,0-.13-.29-.2-.43l-.06-.08c-.13-.14-.17-.33-.29-.48h0l-.06-.06c-.07,0-.13-.1-.22-.09s.07-.12,0-.16c-.21-.2-.34-.48-.61-.63h0a.58.58,0,0,0-.08-.36A.9.9,0,0,0,41.88,88.71Z"/><path class="cls-5" d="M48.25,96c.08.1.13,0,.18,0v-.14a.11.11,0,0,1,0-.14v-.14c-.11-.06,0-.22-.15-.27C48.07,95.51,48.22,95.76,48.25,96Z"/><path class="cls-5" d="M54.29,101.28l.07-.07c0-.23-.17-.11-.28-.07v.07C54.13,101.29,54.21,101.28,54.29,101.28Z"/><path class="cls-5" d="M58.43,97.39c.07,0,.07-.07.09-.11s-.09-.14-.15-.21-.18,0-.18.11S58.33,97.35,58.43,97.39Z"/><path class="cls-5" d="M57.94,98.93c.05.08.08.17.17,0l0-.1s0-.1-.06-.14h0C57.93,98.78,58,98.86,57.94,98.93Z"/><path class="cls-5" d="M58.8,97.55h0s0,0-.08,0-.12,0-.12.08,0,.06,0,.06.08,0,.12,0Z"/><path class="cls-5" d="M57.5,97.91s0,0,.07,0a.09.09,0,0,0,.08-.1.05.05,0,0,0-.07,0A.11.11,0,0,0,57.5,97.91Z"/><path class="cls-5" d="M57.73,98.52h0c.05.06.11.09.17,0a.08.08,0,0,0,0-.12C57.8,98.39,57.79,98.51,57.73,98.52Z"/><path class="cls-5" d="M56.81,100a.07.07,0,0,1,0,0h0s0,.11.07.14.07.06.12.06,0-.08,0-.12,0-.14-.07-.21l0,0a.06.06,0,0,0-.05,0A.24.24,0,0,0,56.81,100Z"/><path class="cls-5" d="M46.08,96.93h-.15V97l.07.07.21.14a.1.1,0,0,0,0-.14A.27.27,0,0,0,46.08,96.93Z"/><polygon class="cls-5" points="46.21 97.21 46.21 97.21 46.21 97.21 46.21 97.21"/><path class="cls-5" d="M45.14,95.07h0c.15.05.2,0,.15-.14h0C45.19,94.93,45.14,95,45.14,95.07Z"/><path class="cls-5" d="M44.55,93.91c0,.14.16.18.23.26s.13.23.28.29c0-.11-.07-.19-.06-.29A.09.09,0,0,0,45,94h0c-.17-.06-.17-.25-.29-.34v0l-.07-.06h0l-.06-.08s0-.05-.09-.05,0,.27,0,.41Z"/><path class="cls-5" d="M43.78,94.18h.1a0,0,0,0,0,0,0c0-.12-.15-.15-.13-.28l-.08-.06C43.54,94,43.75,94.06,43.78,94.18Z"/><path class="cls-5" d="M46.14,97.35l-.21-.1a.13.13,0,0,0-.15,0c0,.06.07.07.09.11S46.1,97.59,46.14,97.35Z"/><path class="cls-5" d="M47.87,100l-.08-.07c-.06,0-.07.09-.08.15S47.84,100,47.87,100Z"/><path class="cls-5" d="M48.36,98a1.69,1.69,0,0,0,0,.55l.14-.06a1.48,1.48,0,0,1,0-.21C48.38,98.25,48.47,98.09,48.36,98Z"/><path class="cls-5" d="M48.5,97.69s0,0-.07,0,0,.12.07.14S48.56,97.74,48.5,97.69Z"/><path class="cls-5" d="M43.9,92.14a.12.12,0,0,0,.05-.07c0-.06-.05-.08-.09-.1s-.21-.25-.36-.34a.58.58,0,0,0,.14.4.46.46,0,0,1,.07.07h0A.19.19,0,0,0,43.9,92.14Z"/><path class="cls-5" d="M41.19,88l.23.33a.14.14,0,0,0,.08-.15c-.09-.1-.06-.28-.21-.35S41.16,87.89,41.19,88Z"/><path class="cls-5" d="M42.56,89.56c.08.08.12.2.27.24,0-.17-.08-.27-.12-.39h-.06A.18.18,0,0,0,42.56,89.56Z"/><path class="cls-5" d="M51,100.72h0s0,0,0,0,0,0,0,0a.09.09,0,0,1,.07,0c.11,0,.25,0,.34-.07l-.14-.13C51,100.5,51,100.5,51,100.72Z"/><path class="cls-5" d="M53,100.67s.07,0,.12.06v-.1c0-.06,0-.14-.1-.12S52.93,100.62,53,100.67Z"/><path class="cls-5" d="M58.09,99.35l.14.07s0,0,0-.06a.33.33,0,0,0-.09-.21C58,99.16,58.11,99.28,58.09,99.35Z"/><path class="cls-5" d="M60.3,102.58a.67.67,0,0,0,.46-.07.34.34,0,0,1-.31-.13h-.07C60.36,102.45,60.27,102.48,60.3,102.58Z"/><polygon class="cls-5" points="59.77 100.22 59.78 100.21 59.76 100.2 59.77 100.22"/><path class="cls-5" d="M48.56,105a.34.34,0,0,0-.1,0c-.06,0-.13,0-.14.06s.06.06.1.08l.09,0C48.59,105.16,48.57,105.08,48.56,105Z"/><path class="cls-5" d="M48.85,102.11c-.08-.06-.05-.16-.07-.24s-.1-.1-.16,0,0,.08,0,.13a1.9,1.9,0,0,1,.14.48l.15-.13C48.86,102.25,48.86,102.18,48.85,102.11Z"/><path class="cls-5" d="M49.31,106.16h0l0,0a.45.45,0,0,1,.07.25,1.88,1.88,0,0,0,.13.58h0c.12.45.15.92.23,1.37.12.09,0,.27.14.36h0c0,.26.18.48.15.74h.06a.13.13,0,0,0,0,.06.11.11,0,0,0,.06-.13l0,0a.25.25,0,0,0,0-.08c0-.06,0-.12,0-.17a.29.29,0,0,0,0-.09,1.66,1.66,0,0,1-.11-.38.36.36,0,0,0,0-.09h0v0a.5.5,0,0,0,0-.21c0-.1,0-.19-.08-.29a3.42,3.42,0,0,0-.13-.62.78.78,0,0,1-.09-.33.28.28,0,0,0,0-.09.22.22,0,0,0-.05-.12h-.07a.19.19,0,0,0,0-.15,1.55,1.55,0,0,1,0-.43c0-.12,0-.23-.15-.25l0,0c-.07,0,0-.13-.12-.14A.39.39,0,0,0,49.31,106.16Z"/><path class="cls-5" d="M48.48,101.07s.07,0,.09.07a.13.13,0,0,0,.15-.07.27.27,0,0,0,.1-.19.41.41,0,0,0,0-.08,1.08,1.08,0,0,0-.11-.18l0,0c-.14.11,0,.3-.13.42h0A.07.07,0,0,0,48.48,101.07Z"/><path class="cls-5" d="M48.21,101.28v.06s0,.1.06.11.09-.06.09-.11v-.13h-.07A.1.1,0,0,0,48.21,101.28Z"/><path class="cls-5" d="M48.51,99s0,0,0-.06c-.13.15,0,.31,0,.47A1.15,1.15,0,0,0,48.51,99Z"/><path class="cls-5" d="M48.93,97.75c-.07,0,0,.1,0,.15s.16,0,.16-.06S49,97.76,48.93,97.75Z"/><path class="cls-5" d="M51.87,103.76h0s-.17,0-.12.12.17.06.27,0h0A.13.13,0,0,0,51.87,103.76Z"/><path class="cls-5" d="M53.1,103.28s0-.1,0-.14a.13.13,0,0,0,0-.06c-.12,0-.18.09-.28.13h0c0,.07,0,.13,0,.17a.08.08,0,0,0,.09,0h0S53.08,103.31,53.1,103.28Z"/><path class="cls-5" d="M58.17,99.62l.09.16a1.4,1.4,0,0,0,.1-.16C58.3,99.53,58.23,99.53,58.17,99.62Z"/><path class="cls-5" d="M58.72,101.08c-.1-.1,0-.23-.06-.35a.13.13,0,0,1,0-.06h0a.49.49,0,0,1,0-.12.86.86,0,0,1-.1-.16h0l-.09.08a.18.18,0,0,0,0,.2.13.13,0,0,1,0,.06s0,.11.07.15V101a4.53,4.53,0,0,1,.21.9v0a.32.32,0,0,0,0,.21l0,0c.08,0,.16,0,.12-.12a.28.28,0,0,1,.09-.37.19.19,0,0,0,.06-.18C58.77,101.44,58.77,101.44,58.72,101.08Z"/><path class="cls-5" d="M49.29,100.31v-.06a.14.14,0,0,0,0-.15c0-.06-.1-.16-.15,0s0,.12-.07.16a.13.13,0,0,1,0,.06,0,0,0,0,0,0,.07v.07C49.25,100.55,49.23,100.38,49.29,100.31Z"/><path class="cls-5" d="M59,104.87a.19.19,0,0,0-.25,0c0,.1.06.16.09.24S59,105,59,104.87Z"/><path class="cls-5" d="M53.11,103.68s-.09,0-.13,0-.06,0-.06.08,0,0,.07,0,.16,0,.16.13-.08.13,0,.22a.88.88,0,0,0,.31-.39.83.83,0,0,1,0-.15c0-.09,0-.11-.1-.12S53.28,103.73,53.11,103.68Z"/><path class="cls-5" d="M52.93,105.14s0,0,0-.06A.23.23,0,0,1,53,105h0l.13-.13c-.07-.06-.14,0-.21,0s-.22.38-.39.52l.12.06.2-.16S52.89,105.18,52.93,105.14Z"/><path class="cls-5" d="M49.1,100.81h0s0,0,0,0h0Z"/></g></g></svg>