<svg xmlns="http://www.w3.org/2000/svg" xmlns:xlink="http://www.w3.org/1999/xlink" viewBox="0 0 106 106"><defs><style>.cls-1{fill:none;}.cls-2{clip-path:url(#clip-path);}.cls-3,.cls-5{fill:#62bfb3;}.cls-3{fill-rule:evenodd;}.cls-4{fill:#1d1d1b;}</style><clipPath id="clip-path"><rect class="cls-1" x="1.18" y="113.81" width="106.08" height="27.76" rx="4.5"/></clipPath></defs><title>webIcons</title><g id="Buttons-2" data-name="Buttons"><g class="cls-2"><path class="cls-3" d="M1.09,73.35c0-.06,0-.11,0-.16s-.11-.07-.19,0a.9.9,0,0,1-.51.1,1.48,1.48,0,0,1,.83-.18l.05.08s0,0,0-.09a.43.43,0,0,1,.23-.14,5.21,5.21,0,0,1,1.71-.2.58.58,0,0,0,.32,0,.07.07,0,0,0,.06-.07.25.25,0,0,0-.09-.13.67.67,0,0,0-.37,0c-.08,0-.06,0-.05-.08l.06,0,.14,0,.08,0h0l-.08,0h.07a.13.13,0,0,0,0-.06H3.6c.28,0,.58,0,.79-.28h.06c.09,0,.23,0,.22-.15s-.13-.08-.22,0S4,71.9,3.74,72s-.25,0-.36.07h0v.13H3.17a.28.28,0,0,0-.24.07H2.88c-.13,0-.27,0-.36.15l0,.06a.66.66,0,0,0-.2,0,.09.09,0,0,0-.07,0c-.1-.07-.23,0-.32-.16s-.28-.08-.43,0-.12.12,0,.2-.06.15-.12.21l-.2.08-.05,0H1L1,72.92H1a3.78,3.78,0,0,0-1,.2v.21c.16.23.4.22.64.21H.74A.27.27,0,0,0,1.09,73.35Z"/><path class="cls-3" d="M.09,91.06a2.42,2.42,0,0,1,.07-.76c-.11,0-.14.06-.21.07v.07a.1.1,0,0,1,0,.14v.55C0,91.17.07,91.12.09,91.06Z"/><path class="cls-3" d="M44.44,34.83c.09.06.17.1.23,0l.12-.31h-.35C44.54,34.6,44.45,34.71,44.44,34.83Z"/><path class="cls-3" d="M.17,76.16s0,0,0-.06H0v.14C0,76.23.12,76.24.17,76.16Z"/><path class="cls-3" d="M87.54,41c.08-.09.18-.16.09-.28s-.12-.07-.15,0S87.42,40.93,87.54,41Z"/><path class="cls-3" d="M98.24,62.54l-.09.1c.06.12.13.22.28.13l0,0s0-.07,0-.1,0-.11,0-.14A.12.12,0,0,0,98.24,62.54Z"/><path class="cls-3" d="M50.87,43.6h0c-.09-.13,0-.33-.21-.42l-.07-.07c-.09,0-.23,0-.17.12a1,1,0,0,0,.37.45C50.85,43.72,50.86,43.64,50.87,43.6Z"/><path class="cls-3" d="M105.23,86.71h0s0,.05-.06.07-.26.18-.31.34l0,0s-.06,0-.06.06h0l-.06.07a1.33,1.33,0,0,1-.51.42,1.77,1.77,0,0,0-.44.54l-.36.34a.21.21,0,0,1-.06.08h0c-.06.06,0,.11,0,.15h.05a.2.2,0,0,0,.08,0l0,0,.08,0,.08,0,.41-.38a4.19,4.19,0,0,1,.54-.49,3.13,3.13,0,0,1,.25-.26.75.75,0,0,0,.07-.12.52.52,0,0,0,0-.21c.1,0,.16,0,.23-.09l.1-.09c.14-.13.21-.32.36-.44h0a.26.26,0,0,1,.12-.23A.63.63,0,0,0,106,86c0-.07,0-.09-.08-.08l-.2.15C105.59,86.32,105.32,86.45,105.23,86.71Z"/><path class="cls-3" d="M50.23,36.15s-.13-.08-.11,0a1.35,1.35,0,0,0,.11.32c.09,0,.12.2.26.19a0,0,0,0,1,0,0C50.41,36.49,50.44,36.26,50.23,36.15Z"/><path class="cls-3" d="M3.31,77.74h.07c.08,0,.24-.06.09-.21l0-.07V77.4h0a.17.17,0,0,0-.1,0,.32.32,0,0,0-.19,0h0c-.06.06,0,.13,0,.19v0a.61.61,0,0,1-.36-.09c-.12-.07-.29.08-.44,0l0,0H2.25l-.18.09c.05.06.14,0,.17.11s.23.09.36.07h.14c.15-.11.32,0,.48-.06Z"/><path class="cls-3" d="M105.61,70.36c0,.11.16.12.26.14a.48.48,0,0,1,.22.2.33.33,0,0,0,.32.18l0,0v-.24l0,0v-.06c-.12,0-.26,0-.34-.11s-.23-.13-.35-.18S105.55,70.23,105.61,70.36Z"/><path class="cls-3" d="M106.36,75.93a.11.11,0,0,0,0,.08,1.05,1.05,0,0,1,0,.31s0,.06,0,.08.26.3-.09.3a.13.13,0,0,0,0-.06.07.07,0,0,0-.06-.07h0V76.5a.37.37,0,0,1-.09-.2c-.08-.07-.07-.19-.13-.28a.14.14,0,0,0-.15.15.31.31,0,0,0,0,.21.33.33,0,0,1,0,.22.11.11,0,0,1,0,.08c-.15.13-.19.24.06.31.08-.07.14-.16.26-.14h0c0,.13.06.25.23.27a.07.07,0,0,0,0,.05.41.41,0,0,0,.08.32,1.66,1.66,0,0,1,.21.59h0a.21.21,0,0,0,0-.06.2.2,0,0,0-.09-.09.08.08,0,0,0-.08,0,.12.12,0,0,0,0,.1.24.24,0,0,0,0,.08l0,.07,0,.12.06.11.09.15c.06.07.08.2.21.14a.69.69,0,0,0,.13.11.15.15,0,0,0-.23.09s0,0,0,.07.16.1.28.08a1.7,1.7,0,0,1,0-.22h0c.08,0,.14,0,.21.07v-.41h-.06c0-.07,0-.15-.08-.2h0l-.14-.42c-.07-.08,0-.22-.14-.27a.13.13,0,0,1,0-.06.08.08,0,0,1,0-.09v0a.3.3,0,0,1-.08-.22s0-.09,0-.13-.12-.22,0-.29,0-.23,0-.35-.09-.21-.07-.33a1.72,1.72,0,0,1-.07-.21C106.48,75.74,106.42,75.81,106.36,75.93Z"/><path class="cls-3" d="M.85,76.37s0-.05-.07,0a.06.06,0,0,0-.06.06s0,0,.07,0S.86,76.41.85,76.37Z"/><path class="cls-3" d="M83.22,43.15a.49.49,0,0,1-.47,0l-.09,0-.18,0h0l0,0s-.09.09,0,.16h0c.16.08.34.13.5.21l.07.07c.15,0,.34-.06.43.13.11,0,.21,0,.3.06s.2,0,.28-.09,0-.17-.07-.24h-.07c-.12-.09-.3-.1-.42-.22A.17.17,0,0,0,83.22,43.15Z"/><path class="cls-3" d="M83.48,43.05c0,.14.1.15.21.17a.12.12,0,0,0,.09,0s.15,0,.06-.14,0,0-.07-.06h0C83.67,43,83.56,42.94,83.48,43.05Z"/><path class="cls-3" d="M7.89,56.93a.55.55,0,0,0-.08-.43c-.06,0-.13-.06-.14.06a1.18,1.18,0,0,0,.08.49A.13.13,0,0,0,7.89,56.93Z"/><path class="cls-3" d="M7.82,54.22c-.14-.07,0-.24-.15-.38v.52c0,.11.08.09.15.07Z"/><path class="cls-3" d="M13,48.12a.76.76,0,0,0,0-.21c-.05-.13-.05-.27-.15-.37a.18.18,0,0,0-.1,0c-.05,0-.07.06-.1.1h0l.21.83C13,48.4,13,48.24,13,48.12Z"/><path class="cls-3" d="M13.19,49.58a.4.4,0,0,0-.08-.47L13,49.05a1.36,1.36,0,0,0,.08.69s.06.07.07.12S13.17,49.68,13.19,49.58Z"/><path class="cls-3" d="M13.75,55.67h0c-.23,0-.24,0-.14.21l.07.06h0C13.87,55.89,13.79,55.78,13.75,55.67Z"/><path class="cls-3" d="M11.68,35.23v.56c.1-.07.06-.18.07-.27s0-.2.07-.27a.17.17,0,0,0,0-.21C11.7,35.05,11.68,35.13,11.68,35.23Z"/><path class="cls-3" d="M21.34,37.39a2.17,2.17,0,0,0,0,.26l.06.07a.19.19,0,0,0,.14-.13h0l-.07-.06h0c0-.05,0-.1,0-.14s.07-.1,0-.14S21.33,37.3,21.34,37.39Z"/><path class="cls-3" d="M19.83,36.41a.13.13,0,0,0,0-.06h0l0,0s0,.09,0,.11S19.83,36.45,19.83,36.41Z"/><path class="cls-3" d="M16,38.27c0,.07,0,.13.09.12a.12.12,0,0,0,.11-.14c0-.06,0-.14-.12-.13S16,38.21,16,38.27Z"/><path class="cls-3" d="M103.8,67.47v.06a.72.72,0,0,1,.22.35.12.12,0,0,0,.13-.13h0a.12.12,0,0,1,0-.15.34.34,0,0,0-.06-.2s-.11,0-.15-.07a.06.06,0,0,0-.08,0S103.85,67.43,103.8,67.47Z"/><path class="cls-3" d="M104.3,68.36a.15.15,0,0,0,.15-.07.11.11,0,0,1,0-.05.66.66,0,0,1-.14-.15h0C104.18,68.18,104.26,68.27,104.3,68.36Z"/><path class="cls-3" d="M99.37,65a.13.13,0,0,1,0-.06c-.18-.18-.19-.18-.29,0v0l0,0,.06,0h.1Z"/><path class="cls-3" d="M98,63.81c0,.06,0,.08.06.08l.23.24s.09.09.15.06,0-.11.06-.18a3.31,3.31,0,0,0-.5-.41C97.92,63.67,98,63.74,98,63.81Z"/><path class="cls-3" d="M102.8,64.43a.25.25,0,0,1,0,.11s0,0,0,0l-.09,0c-.15,0-.11-.19-.25-.18-.1.17.07.3,0,.45v0l0,.11a.25.25,0,0,0,0,.07.28.28,0,0,0,.11.13c.31,0,0-.27.2-.33s.08.08.12.12l0,0,.08.06a.15.15,0,0,0,.17,0,.11.11,0,0,0,0-.08,0,0,0,0,1,0-.06.09.09,0,0,0,0-.07.17.17,0,0,0,0-.15s0,0,0,0l0-.07a.18.18,0,0,0-.1-.09c.06,0,.12-.1.08-.19h0a.23.23,0,0,0-.07-.07h0C102.92,64.21,102.81,64.25,102.8,64.43Z"/><path class="cls-3" d="M5.18,73.27s0,.08,0,.13a.17.17,0,0,0,.21,0h0C5.37,73.26,5.28,73.26,5.18,73.27Z"/><path class="cls-3" d="M13,77l0,0c.07,0,.14,0,.17,0s0-.1-.07-.13h0c-.08,0-.17,0-.22,0S13,76.94,13,77Z"/><path class="cls-3" d="M11.9,76.39s-.05,0-.06,0a0,0,0,0,0,.05.06l0,0A.05.05,0,0,0,11.9,76.39Z"/><path class="cls-3" d="M10.6,71.67c.05,0,.13,0,.08-.14-.26-.09-.35-.06-.36.15l.27,0Z"/><path class="cls-3" d="M4.46,77.53a1.72,1.72,0,0,0,.64-.06.69.69,0,0,1,.51,0,.49.49,0,0,0,.21,0,2.45,2.45,0,0,1,.81.07.23.23,0,0,0,.26-.06H7.1s0,0,0-.06h.51c.11,0,.08-.07,0-.14a1.18,1.18,0,0,1-.37,0,.86.86,0,0,0-.57,0H6.6l-.14,0H6.32c0-.08,0-.17-.15-.06l-.2.06c-.17,0-.28,0-.3-.2-.07,0-.14-.25-.21,0,.08.13.1.23-.12.24l-.17,0c-.24-.08-.48,0-.71,0A.15.15,0,0,0,4.46,77.53Z"/><path class="cls-3" d="M55.45,43.53a.35.35,0,0,1-.05-.08l-.08-.06c-.13,0-.14,0-.08.13h0c.06.09,0,.19,0,.29s-.08.36.06.51.15.1.24,0,0,0,0-.05,0-.25,0-.36a.15.15,0,0,1,0-.07c-.09-.1,0-.24-.07-.34Z"/><path class="cls-3" d="M51.3,38.77c-.12,0-.21-.11-.35-.08A.44.44,0,0,0,51,39a1.25,1.25,0,0,1,0,.47c0,.07,0,.15.08.17s.15-.06.17-.14A1.67,1.67,0,0,0,51.3,38.77Z"/><path class="cls-3" d="M80.33,38.28c0,.06-.09.12,0,.18a.09.09,0,0,0,.15,0c0-.05.1-.11.06-.18s-.12,0-.18,0Z"/><path class="cls-3" d="M81.14,41.66h.06c.15,0,.33.06.42-.13h0a.2.2,0,0,0-.08,0,.11.11,0,0,1-.07,0h0A.31.31,0,0,0,81.14,41.66Z"/><path class="cls-3" d="M83.06,43c.08,0,.16.05.22,0s0-.07-.08-.1S83,42.79,83.06,43Z"/><path class="cls-3" d="M6.83,105.82a.18.18,0,0,0,0-.07.67.67,0,0,0-.14-.09l-.07,0h0a.13.13,0,0,0-.07.14.46.46,0,0,1,.07.07l.07.06a.15.15,0,0,0,.21,0A.08.08,0,0,0,6.83,105.82Z"/><path class="cls-3" d="M4.24,104.45h0a.17.17,0,0,0-.21,0H4v.13H4l.07.06C4.25,104.65,4.33,104.6,4.24,104.45Z"/><path class="cls-3" d="M1.16,90.44c.09,0,.15,0,.14-.13S1.09,90.29,1.16,90.44Z"/><path class="cls-3" d="M101.16,98c.1,0,.2,0,.2-.13h-.2Z"/><path class="cls-3" d="M101.15,97.26l-.06,0c-.19.11-.18.25-.13.43.18,0,.18-.23.33-.24a.13.13,0,0,0,0-.06c.09-.08.13-.17,0-.25S101.17,97.17,101.15,97.26Z"/><path class="cls-3" d="M103.63,71.91a.09.09,0,0,0,0,.08.39.39,0,0,0,.1.08s.08.12.17.1h.14a.66.66,0,0,1-.07-.33l-.06,0c-.1-.11-.19-.08-.28,0A.36.36,0,0,0,103.63,71.91Z"/><path class="cls-3" d="M105.38,72.08c.07,0,.13.09.21,0s.23-.06.25.13.11,0,.17,0l.07-.07a.17.17,0,0,1,.14-.06v-.26l-.13,0c-.21-.13-.39,0-.57.07S105.25,71.94,105.38,72.08Z"/><path class="cls-3" d="M104.6,71.67h0s.07,0,.12,0,0-.12.09-.16h0a.61.61,0,0,1,0-.14h-.21A.19.19,0,0,0,104.6,71.67Z"/><path class="cls-3" d="M55.52,36.28a1.48,1.48,0,0,1,0-.21V36c0-.11,0-.23,0-.34A.63.63,0,0,0,55.52,36.28Z"/><path class="cls-3" d="M1,72.57a.12.12,0,0,0-.06.12C1.12,72.72,1,72.63,1,72.57Z"/><path class="cls-3" d="M96.2,52.49c.12.1.16-.06.25-.11l0,0c.1-.16,0-.17-.13-.18a.21.21,0,0,1-.15.07C96.18,52.31,96.08,52.41,96.2,52.49Z"/><path class="cls-3" d="M103.79,68.23h-.06c-.09,0-.07.14-.08.22s0,.22,0,.33.1.18.12.28a.12.12,0,0,0,.08,0c.14,0,.23-.09.15-.24h0a.15.15,0,0,1,0-.21l.06-.07c0-.08,0-.16-.07-.21S103.86,68.29,103.79,68.23Z"/><path class="cls-3" d="M102.72,67.7c-.07-.06-.18-.14-.21,0l.21.28c.13,0,.29.07.29-.15h0A1.08,1.08,0,0,1,102.72,67.7Z"/><path class="cls-3" d="M102.73,68.37a.13.13,0,0,0,0,.06c.08,0-.06.22.13.21h0v-.23C102.86,68.3,102.79,68.35,102.73,68.37Z"/><path class="cls-3" d="M101.44,66.77c.17.09.14,0,.14-.12S101.44,66.68,101.44,66.77Z"/><path class="cls-3" d="M99.51,65.33c0,.18.17,0,.22.13a.14.14,0,0,0,.06-.13.21.21,0,0,0-.28,0Z"/><path class="cls-3" d="M96.44,62.21l.12.1,0,0h0a.1.1,0,0,0,0,0c-.05.16.06.25.18.32l.15.07,0,.06s0,.09.09.14a1,1,0,0,0,.22.23l.16.16.07,0,.09,0c.15,0,.16,0,.1-.15a1.39,1.39,0,0,0-.15-.19.62.62,0,0,1-.14-.28.26.26,0,0,1-.21-.14.78.78,0,0,0-.29-.28l-.15-.13a.47.47,0,0,0-.2-.22C96.42,62.06,96.43,62.14,96.44,62.21Z"/><path class="cls-3" d="M105.17,69.94h0l.06.07.07.07s.06.11.14.07l.07-.07c0-.09-.13-.16-.14-.27l-.07-.07A.17.17,0,0,0,105.17,69.94Z"/><path class="cls-3" d="M105,69.74a.3.3,0,0,0-.17-.38C104.81,69.5,104.8,69.64,105,69.74Z"/><path class="cls-3" d="M1.82,77.58s-.05,0-.08,0l-.07.06h.1S1.82,77.59,1.82,77.58Z"/><path class="cls-3" d="M6.6,72.58a.93.93,0,0,0-.8.19,2,2,0,0,0,.8-.13S6.63,72.6,6.6,72.58Z"/><path class="cls-3" d="M8.59,77.2l-.06-.07a.15.15,0,0,0-.15.06l0,.14a.35.35,0,0,0,.2-.07A.13.13,0,0,0,8.59,77.2Z"/><path class="cls-3" d="M11,77.06c.18.07.2-.09.32-.17a.61.61,0,0,0-.34,0h0C11,76.92,10.87,77,11,77.06Z"/><path class="cls-3" d="M12.2,76.92a.11.11,0,0,0-.12.09.08.08,0,0,0,.09.08.14.14,0,0,0,.12-.1S12.25,76.92,12.2,76.92Z"/><path class="cls-3" d="M11.37,71.24a.1.1,0,0,0-.12,0,.93.93,0,0,0-.36.14l.09.08.31,0A.1.1,0,0,0,11.37,71.24Z"/><path class="cls-3" d="M12.86,71.32l.33,0,.13-.15c0-.18-.17,0-.21-.13h-.06C13.06,71.18,13,71.25,12.86,71.32Z"/><path class="cls-3" d="M5.32,87.13s0-.08,0-.09S5.06,87,5,87.13H5a.39.39,0,0,0,.35,0Z"/><path class="cls-3" d="M8.6,81.82c0,.19-.27.27-.28.48a.13.13,0,0,0-.06.07.14.14,0,0,0,0,.06c.11.1.14-.06.22-.06s.17-.13.24-.21A.75.75,0,0,0,8.77,82a.08.08,0,0,0,0-.08c0-.08.12-.17,0-.24S8.67,81.8,8.6,81.82Z"/><path class="cls-3" d="M9.54,80.44h0a.11.11,0,0,1-.15,0H9.32c0,.14.06.29-.07.42l-.07.07c-.06.08,0,.13.07.14h0l.05,0,0,0s0,0,.05,0l0,0,.05,0,.05-.06s.1-.09.06-.17v-.2l0,0A0,0,0,0,0,9.54,80.44Z"/><polygon class="cls-3" points="9.6 80.44 9.6 80.44 9.61 80.44 9.6 80.44"/><path class="cls-3" d="M79.35,42.22l-.12.06c-.08.09-.08.16,0,.21s.38,0,.61,0c-.16,0-.29-.06-.26-.23h0a.12.12,0,0,0-.13,0l-.08,0Z"/><path class="cls-3" d="M78.43,40.58c0,.07,0,.1.1.11s.15,0,.15-.1-.05-.1-.14-.1A.1.1,0,0,0,78.43,40.58Z"/><path class="cls-3" d="M80.41,41.63v0l-.15-.08h-.05c0,.11,0,.22.13.21l.07-.08Z"/><path class="cls-3" d="M100.45,84.28l.06,0s.13,0,.11-.09a.11.11,0,0,0-.13-.08C100.41,84.16,100.44,84.23,100.45,84.28Z"/><path class="cls-3" d="M97.07,88.85l-.14.07a.59.59,0,0,0-.36.07c0,.19,0,.19.22.14l.14-.08.43-.13s.11,0,.14-.07h0C97.36,88.72,97.21,88.81,97.07,88.85Z"/><path class="cls-3" d="M102.37,89.55c.06.17.18.1.28.06l0-.2-.09-.08-.06,0C102.51,89.44,102.41,89.47,102.37,89.55Z"/><path class="cls-3" d="M100.72,91a.42.42,0,0,1-.27.18c-.09.18-.34.12-.44.28a1.17,1.17,0,0,0-.43.48l-.78.62c-.07.08,0,.13,0,.17s.26-.1.35-.2a1.62,1.62,0,0,1,.6-.4c.11-.07.16-.19.25-.28s.2-.13.27-.23a.47.47,0,0,1,.1-.1.9.9,0,0,0,.38-.34,1.18,1.18,0,0,0,.36-.41c0-.07,0-.1-.08-.08A1.47,1.47,0,0,0,100.72,91Z"/><path class="cls-3" d="M100.17,95.42c0,.06,0,.14-.09.16s-.11.06-.11.12a.19.19,0,0,0,0,.08c0,.06,0,.11,0,.16l0,.08a.3.3,0,0,1,0,.08c.08.12.1.29.27.34a.17.17,0,0,0,.08-.14c0-.18-.16-.36,0-.55a.38.38,0,0,1-.07-.28s0,0,0-.06h0C100.29,95.31,100.23,95.29,100.17,95.42Z"/><path class="cls-3" d="M100.51,94.16V94C100.43,94.08,100.43,94.12,100.51,94.16Z"/><path class="cls-3" d="M100.73,98h0a.16.16,0,0,0-.24,0C100.57,98.05,100.65,98,100.73,98Z"/><path class="cls-3" d="M104,69.47h.07s0-.14,0-.15.1.05.15.09l0,.06c.13,0,.12-.11.2-.14v-.07l0-.06c-.14-.09-.28-.18-.43,0A.31.31,0,0,0,104,69.47Z"/><path class="cls-3" d="M105,70.78h.06l.08-.06c.06,0,.07-.09,0-.14s-.14,0-.19.05S104.89,70.76,105,70.78Z"/><path class="cls-3" d="M104.62,70.11s0,0,.06,0,0-.16,0-.24A.15.15,0,0,0,104.62,70.11Z"/><path class="cls-3" d="M104.87,73.13a.75.75,0,0,0,.36.48c.07,0,.15.21.21,0a3.85,3.85,0,0,0-.43-.83c-.11-.08-.23,0-.35,0C104.61,73,104.79,73,104.87,73.13Z"/><path class="cls-3" d="M69.24,38.47l-.11.12,0,0c-.07.09-.16,0-.24,0s-.2,0-.24.11l.06.07a.23.23,0,0,0,.2,0,.19.19,0,0,1,.23,0,.19.19,0,0,0,.26,0h0c.05.16.19.11.3.12s.21,0,.29.07-.1.09-.1.16a.08.08,0,0,0,0,.07c.06,0,.14,0,.2,0h0c.21.1.17-.16.29-.19v0l.07-.07h0c.16-.08.29.13.44,0l0,0a.25.25,0,0,0,.22.05h.58c-.13-.18-.35-.07-.46-.19h0c-.08-.1-.2,0-.3-.07s-.18-.1-.22-.2-.08,0-.1,0a.25.25,0,0,0,0,.07c0,.07-.09,0-.14,0l-.1,0a.94.94,0,0,1-.28-.06c-.18,0-.34-.15-.53-.11a.11.11,0,0,0,0,0c-.09-.06-.11-.18-.22-.22A.14.14,0,0,0,69.24,38.47Z"/><path class="cls-3" d="M10.89,70.23h0c-.06-.08-.28-.13-.06-.27h0a.13.13,0,0,1-.07-.08s0,0,0-.06a.49.49,0,0,0-.27-.1.11.11,0,0,0-.08,0c-.09,0-.15.05-.15.14.15,0,.31.07.29.27s.07.12.13.15S10.84,70.3,10.89,70.23Z"/><path class="cls-3" d="M105.44,75.34c.09,0,.07-.13.08-.21s-.15.05-.15.14Z"/><path class="cls-3" d="M105.51,74.79a.16.16,0,0,0,.08-.15s-.09,0-.12,0S105.46,74.74,105.51,74.79Z"/><path class="cls-3" d="M105.63,75.18c.05.1.11.19.17.29h0s.05,0,0-.08v-.13c-.07-.06,0-.16-.08-.21h-.06C105.66,75.07,105.57,75.08,105.63,75.18Z"/><path class="cls-3" d="M96.44,53.94h.06c.2.05.15-.13.21-.21v0C96.44,53.68,96.44,53.68,96.44,53.94Z"/><path class="cls-3" d="M18.48,53.8h0c-.13,0-.13.06-.08.14h0c.05.05,0,.11.07.15s.15.32.23.47a.15.15,0,0,1,.06.14l.14.07a.57.57,0,0,1,0,.13c.08,0,.06-.09,0-.13v-.2a6,6,0,0,1-.28-.7S18.51,53.85,18.48,53.8Z"/><path class="cls-3" d="M33.22,51.93a.09.09,0,0,0,.11.07.07.07,0,0,0,.07-.07s0-.07-.09-.09S33.22,51.88,33.22,51.93Z"/><path class="cls-3" d="M47,40.85l-.07-.14c-.16-.1-.15.07-.21.12s-.13.17,0,.18S47,41,47,40.85Z"/><path class="cls-3" d="M101.29,68.92a.15.15,0,0,0,.07-.14h0l-.06-.08-.07-.13c-.12-.18-.34-.11-.5-.2s-.07.08-.07.13.3.1.42.21h0a.1.1,0,0,0,.06.09h0a.05.05,0,0,0,0,0s.1,0,.13.08Z"/><path class="cls-3" d="M101.05,69.09s.06,0,.07-.06,0-.09-.08-.1A.07.07,0,0,0,101,69,.12.12,0,0,0,101.05,69.09Z"/><path class="cls-3" d="M100.36,68.23a.38.38,0,0,0,.1,0s0-.06,0-.09,0-.06-.08,0,0,.06,0,.09Z"/><path class="cls-3" d="M93.75,104.9a.11.11,0,0,0,.1.08.05.05,0,0,0,.07,0c0-.07,0-.11-.11-.09S93.77,104.88,93.75,104.9Z"/><path class="cls-3" d="M92.66,105.61h0a.24.24,0,0,0,.08-.19C92.63,105.42,92.63,105.5,92.66,105.61Z"/><path class="cls-3" d="M8,68.5l-.07-.06a.33.33,0,0,0-.14-.1.08.08,0,0,0-.08,0v.14a.13.13,0,0,1,0,.06l.14.08C7.91,68.64,8,68.67,8,68.5Z"/><path class="cls-3" d="M21.31,72.9c.08-.05.11-.12,0-.2s-.16,0-.22-.06h0a.38.38,0,0,0,0,.48l.07-.07C21.19,73,21.25,72.94,21.31,72.9Z"/><path class="cls-3" d="M16,70.85h0s.11,0,.15-.07h.21a.74.74,0,0,0,.65-.33c.12-.19,0-.15-.14-.15-.32.11-.71-.07-1,.21a1.43,1.43,0,0,1-.34.14,1.45,1.45,0,0,0-.22.09l0,0c.11.13.26.09.39,0A.38.38,0,0,1,16,70.85Z"/><path class="cls-3" d="M50,49.54c0,.17.14.22.32.25a.78.78,0,0,0-.16-.33.09.09,0,0,0-.16.08Z"/><path class="cls-3" d="M58,41.69a.12.12,0,0,0-.18,0c-.11.12.06.14.09.21h0C58,41.82,58.05,41.79,58,41.69Z"/><path class="cls-3" d="M57.66,41.18c-.12-.08,0-.24-.14-.4v.41c0,.05,0,.12.1.1S57.66,41.23,57.66,41.18Z"/><path class="cls-3" d="M57.6,40.15v-.08s-.12,0-.12,0a.15.15,0,0,0,.05.22h0S57.55,40.18,57.6,40.15Z"/><path class="cls-3" d="M50.32,56.48c0,.08.12.11.2,0s.08-.18.15-.17.18-.13.27-.19c-.07-.11-.18,0-.27-.06h0l-.07.06a1.88,1.88,0,0,0-.24.14A.14.14,0,0,0,50.32,56.48Z"/><path class="cls-3" d="M50,50.91c0-.1-.13,0-.2,0l.07.13C50,51,50.05,51,50,50.91Z"/><path class="cls-3" d="M46.09,46.53c-.14,0-.14.08-.15.17a2.82,2.82,0,0,0-.57.15.14.14,0,0,1-.14.06c-.15.1-.29,0-.44,0s0,.13-.07.2l.09.09.41-.16h.07c.17.08.33,0,.49,0a.14.14,0,0,0,0-.06,3.26,3.26,0,0,1,.68-.13c.18-.05.35-.2.3-.28s-.23,0-.34,0Z"/><path class="cls-3" d="M46.23,46.21l-.14,0C46.14,46.3,46.19,46.28,46.23,46.21Z"/><path class="cls-3" d="M42.86,47.32l-.06.08c-.13,0-.31.13-.4-.09l-.11.08s0,.09,0,.14a.12.12,0,0,0,0,.13h.28a.25.25,0,0,1,.22-.13H43l0-.09c0-.07,0-.13,0-.17S42.9,47.28,42.86,47.32Z"/><path class="cls-3" d="M43.65,46.77h0a0,0,0,0,0,0,.07c.1.07.19,0,.28,0C43.89,46.61,43.76,46.73,43.65,46.77Z"/><path class="cls-3" d="M45,46.7s0,0,0,0l0,0s0,.05,0,.05S45,46.74,45,46.7Z"/><path class="cls-3" d="M48.59,42.62c.08,0,.07-.11,0-.18C48.44,42.45,48.55,42.55,48.59,42.62Z"/><path class="cls-3" d="M45.22,44.14V44H45s-.1,0-.11.12,0,.06,0,.07h0A.2.2,0,0,0,45.22,44.14Z"/><path class="cls-3" d="M43.23,46a.43.43,0,0,0,.06.27l0,0a.31.31,0,0,0,.17-.05.2.2,0,0,0,.08,0h0c.07-.08.19-.15.06-.27a1,1,0,0,0-.21.11C43.33,46.08,43.29,46,43.23,46Z"/><path class="cls-3" d="M47.11,41.33c-.07-.11-.16,0-.24,0s0,.23.14.27S47.18,41.45,47.11,41.33Z"/><path class="cls-3" d="M61.69,41.17c.07.06,0,.17.12.21l0-.06c-.05-.08,0-.17-.05-.26A.12.12,0,0,0,61.69,41.17Z"/><path class="cls-3" d="M76.77,41.32s-.11.06-.1.13a.18.18,0,0,0,.1.14c.12.06.19-.13.23-.1s.14-.06.2-.1h0c-.08-.07-.2,0-.29-.06h-.13Z"/><path class="cls-3" d="M76.84,40.15s.1,0,.1-.07a.1.1,0,0,0-.1-.12,1.57,1.57,0,0,0-.27,0A.31.31,0,0,0,76.84,40.15Z"/><path class="cls-3" d="M6.75,103.38l-.09-.1c-.09.07,0,.18-.06.27h0a.16.16,0,0,1,0,.07.21.21,0,0,0,0,.07h0C6.94,103.57,7,103.55,6.75,103.38Z"/><path class="cls-3" d="M97.73,87.9v0c0,.08.1.15.2.07h0C97.93,87.88,97.84,87.87,97.73,87.9Z"/><path class="cls-3" d="M99.16,91.83c.15-.2.37-.36.42-.62a1.58,1.58,0,0,0-.5.34C99.07,91.65,99,91.78,99.16,91.83Z"/><path class="cls-3" d="M95.86,89.4l.07-.06V89.2h-.15C95.75,89.28,95.66,89.39,95.86,89.4Z"/><path class="cls-3" d="M98.35,87.55a.33.33,0,0,0-.27.07c0,.19.12.1.21.07Z"/><path class="cls-3" d="M95.49,84.92a.12.12,0,0,0-.06-.14c-.09,0-.16.15-.28.14l.06.14C95.35,85.09,95.42,85,95.49,84.92Z"/><path class="cls-3" d="M99,101.68h0s.09,0,.13,0l.08-.06c0-.14,0-.22-.2-.13C99,101.55,99,101.62,99,101.68Z"/><path class="cls-3" d="M74.65,40.2c0,.08.09.09.11.14a.14.14,0,0,0,.21,0c.09-.11,0-.14-.07-.2h-.07C74.77,40.16,74.68,40.12,74.65,40.2Z"/><path class="cls-3" d="M70,38.7l.08.07c.1,0,.22,0,.21-.14a.47.47,0,0,0-.28-.07S69.93,38.65,70,38.7Z"/><path class="cls-3" d="M75.13,40.43c.08.26.13,0,.19,0l0-.06c0-.08,0-.14-.12-.06A.6.6,0,0,0,75.13,40.43Z"/><path class="cls-3" d="M103.73,71.19c0,.15.11.14.21.14h0a.11.11,0,0,0,0-.14l-.08-.06C103.79,71.09,103.76,71.13,103.73,71.19Z"/><path class="cls-3" d="M103.47,71.22c-.18,0-.37,0-.31.25h0c.08.07.2,0,.28.06h0a.23.23,0,0,0,.07.07h0l.12,0c.06,0,.15.06.15-.06s-.06-.09-.12-.09-.15-.05-.15-.14Z"/><path class="cls-3" d="M103.6,72.15a.19.19,0,0,0-.16-.06s0,.06-.07,0,0,0,0-.08,0-.07,0-.1-.05,0-.08-.06-.12-.14-.17-.2-.09-.09-.15,0,0,.1,0,.15a.63.63,0,0,1,.19.49h0a.12.12,0,0,0,.11,0c.06,0,.07.07.1.11s0-.2.21-.17S103.63,72.19,103.6,72.15Z"/><path class="cls-3" d="M72.32,40.93s0-.07-.06-.07-.12.06-.15.12a.09.09,0,0,1,0,.05l0,0s0,0,0,0S72.33,41,72.32,40.93Z"/><path class="cls-3" d="M10.89,68.67a.06.06,0,0,0-.06.06c0,.09.05.1.12.11l0,0C11,68.74,11,68.68,10.89,68.67Z"/><path class="cls-3" d="M105.73,76.5l-.14-.13-.07-.07c-.09,0-.07.13-.08.21l.08.13h.29s0,0,0-.06Z"/><path class="cls-3" d="M82.54,56.85c0,.09.11.17.23.13s.11,0,.13-.06l-.14-.14h-.14C82.56,56.76,82.54,56.8,82.54,56.85Z"/><path class="cls-3" d="M87.13,57.94c0,.11.11.14.22.07s-.1-.13-.21-.13S87.11,57.92,87.13,57.94Z"/><path class="cls-3" d="M77.05,47.59l.07-.06c0-.08.13-.19-.06-.2S76.92,47.5,77.05,47.59Z"/><path class="cls-3" d="M17.32,64.78l-.13-.21c-.18,0-.18.14-.29.28C17.07,64.81,17.22,65,17.32,64.78Z"/><path class="cls-3" d="M17.38,65.25c0-.06-.05-.1-.12-.11s-.11.09-.11.15,0,.16.11.14S17.38,65.33,17.38,65.25Z"/><path class="cls-3" d="M19,66.51a.19.19,0,0,0-.17-.22c-.05,0-.1,0-.1.08s.11.25.2.24S19,66.55,19,66.51Z"/><path class="cls-3" d="M14.74,60.78c.06.07.1,0,.14,0S14.79,60.71,14.74,60.78Z"/><path class="cls-3" d="M16.1,58.16h0c0-.07,0-.14,0-.21s-.13-.16-.15-.27a.32.32,0,0,1-.13-.15l-.07-.07h0v-.07a.18.18,0,0,0-.13,0l-.05,0h0c0-.12-.06-.11-.14-.07l-.07,0a1,1,0,0,0,.42.61h0a.08.08,0,0,0,0,.06h0l.08.09v0l.09.13C16,58.29,16.1,58.3,16.1,58.16Zm-.55-.69h0Z"/><path class="cls-3" d="M11.76,62.37h0s0,.08.09,0Z"/><path class="cls-3" d="M19.11,58.56c0-.13,0-.27,0-.4-.22.16-.23.28-.06.47h0a.23.23,0,0,0,.07-.07Z"/><path class="cls-3" d="M32,48.9a.75.75,0,0,0-.7.21l-.28.07c-.08,0-.1,0-.14.07a1.8,1.8,0,0,1-.65.14.16.16,0,0,1-.08.06h-.06l-.07.07h0c-.14,0-.29,0-.39.11.11.07.22,0,.32,0l.07-.06.15,0a.19.19,0,0,0,.16-.05h0l.12,0a.15.15,0,0,0,.15-.06c.14,0,.28-.07.42,0s.17-.16.32-.17a3.58,3.58,0,0,0,.45-.09,1,1,0,0,0,.37-.08C32.28,48.94,32.15,48.92,32,48.9Z"/><path class="cls-3" d="M37.42,47.87c.2-.22,0-.23-.15-.24s-.25,0-.34.12-.27.15-.42.2-.14.21.07.17.47-.12.7-.18h0S37.37,47.9,37.42,47.87Z"/><path class="cls-3" d="M34.34,48.14c0,.1-.39,0-.13.22h.07a1,1,0,0,1,.39-.21c.11,0,.18-.08.18-.2a.08.08,0,0,0-.14,0,.38.38,0,0,1-.29.13Z"/><path class="cls-3" d="M36.13,47.19h-.05s-.07,0-.08.06a.1.1,0,0,0,.16,0S36.15,47.23,36.13,47.19Z"/><path class="cls-3" d="M41,47.12a.84.84,0,0,1-.43.14,2.24,2.24,0,0,1-.57.13s0,0,0,.06a.1.1,0,0,0,0,0c0,.07-.05,0-.07.07-.21.14-.48.17-.67.37h-.06s-.07,0-.08.07l.09.08c.09,0,.21-.05.26.08s.1.06.15,0a.44.44,0,0,0,.15-.18l0,0,0,0c.2-.12.41,0,.62-.06s.1-.41.39-.41l.06,0a.35.35,0,0,0,.2-.14h.06l.07-.07h0C41.2,47.11,41.16,47.06,41,47.12Z"/><path class="cls-3" d="M41.09,48.08c0,.05,0,.09,0,.14s.13.07.21.06,0-.27,0-.41a.17.17,0,0,0-.14.07C41.09,48,41.11,48,41.09,48.08Z"/><path class="cls-3" d="M46.15,42.42c0-.05,0-.09,0-.14l-.07-.07c-.18,0-.14.11-.08.21h0c.06,0,0,.18.13.15h0l0,.06c.06,0,.12.27.2,0C46.29,42.57,46.27,42.45,46.15,42.42Z"/><path class="cls-3" d="M100.58,71.51s0,.07.07.1a.06.06,0,0,0,.06,0c.06,0,.11,0,.15,0s.06-.13,0-.15h-.1S100.59,71.43,100.58,71.51Z"/><path class="cls-3" d="M96.79,68.64a4.33,4.33,0,0,0,.79.27.19.19,0,0,0,.2,0,.15.15,0,0,1-.13-.08l-.08-.06c-.13-.07-.32,0-.43-.15l-.07-.06H97a.17.17,0,0,0-.22,0h0A.1.1,0,0,0,96.79,68.64Z"/><path class="cls-3" d="M100.13,71.55c-.16,0-.28,0-.38.12C99.89,71.66,100,71.72,100.13,71.55Z"/><path class="cls-3" d="M99.87,71.33a.14.14,0,0,0,.07-.13c-.15,0-.15,0-.15.06s.06,0,.08.07Z"/><path class="cls-3" d="M101.94,71.19c-.12,0-.24-.14-.29.07s0,.15.07.21c-.11,0-.22,0-.26.12l.05,0,.14.06.08-.06v-.14c.12.14.23.09.35,0s.11,0,.18-.1l-.18-.1A.13.13,0,0,1,101.94,71.19Z"/><path class="cls-3" d="M100.47,70.38s0,0,0,0,.08-.06.09-.11S100.46,70.3,100.47,70.38Z"/><path class="cls-3" d="M94.72,66.36h0s0,0,0,0l0,0h0a.23.23,0,0,0,.07-.07v-.06C94.75,66.22,94.64,66.2,94.72,66.36Z"/><path class="cls-3" d="M95.27,67.3v0h0s0,0,.07.07.06,0,.09,0h0a0,0,0,0,0,0,0s0,0,0,0,.11,0,.11-.06-.17-.2-.32-.19S95.27,67.27,95.27,67.3Z"/><path class="cls-3" d="M94,103.86c-.27-.08-.22.1-.22.24s.24-.08.38-.07.21-.12.18-.27S94.14,103.9,94,103.86Z"/><path class="cls-3" d="M21.2,71.54a.15.15,0,0,0,0,.07c.07,0,.1.15.21.13S21.36,71.52,21.2,71.54Z"/><path class="cls-3" d="M13.61,69.74c0,.1,0,.2.15.21a0,0,0,0,0,.06,0s0-.06.08-.09H14c.09-.1,0-.15-.07-.2h-.13s-.11,0-.15.06Z"/><path class="cls-3" d="M14.18,70.64h0a.38.38,0,0,0-.36,0A1.4,1.4,0,0,0,14.18,70.64Z"/><path class="cls-3" d="M14.32,70.5c0,.07.08.07.14.07S14.38,70.5,14.32,70.5Z"/><path class="cls-3" d="M60.31,56.15c-.05,0-.08,0-.11,0s-.1.16-.13.24a.14.14,0,0,0,0,.09c.06.11.14.12.24,0l.07-.13C60.38,56.33,60.42,56.22,60.31,56.15Z"/><path class="cls-3" d="M54.81,52.43c-.05,0,0-.1-.08-.14h0a.1.1,0,0,0-.14,0h0a.46.46,0,0,0-.08.28c.15.12.25,0,.35-.07Z"/><path class="cls-3" d="M52.4,53.29c.08-.08,0-.17.05-.24C52.23,53.1,52.29,53.18,52.4,53.29Z"/><path class="cls-3" d="M59.25,41.73c.1.05.14.19.3.18s0-.26-.1-.38C59.25,41.49,59.24,41.5,59.25,41.73Z"/><path class="cls-3" d="M48.88,58.19a.11.11,0,0,0,.11.14c.14,0,.08-.11.09-.17h0C49,58.18,48.92,58.05,48.88,58.19Z"/><path class="cls-3" d="M49.88,59.44a.16.16,0,0,0,0,.09c0,.07.12.09.17.14h0l.08.07a.32.32,0,0,1,.15.13c.09,0,.13,0,.13-.13l-.29-.34c0-.1-.14-.09-.2-.15h0c-.06,0-.07.08-.08.14Z"/><path class="cls-3" d="M97.86,94.94c-.09,0-.17,0-.12.11.16.22,0,.26-.16.29l-.07.07c0,.07-.11.09-.09.18a1.63,1.63,0,0,0,.53-.23C98.05,95.27,98,95,97.86,94.94Z"/><path class="cls-3" d="M98.65,94.93h0a.11.11,0,0,1,0,.15h0a.08.08,0,0,0,0,.13h0c.11,0,.2.08.17-.1a.1.1,0,0,1,0-.11c0-.1,0-.21-.07-.32C98.6,94.64,98.59,94.66,98.65,94.93Z"/><path class="cls-3" d="M97.29,94.17c0,.06,0,.12.1.12s.1-.06.12-.12S97.36,94.15,97.29,94.17Z"/><path class="cls-3" d="M98.43,92.92l.08.14h.07v-.13s0-.11-.06-.1S98.46,92.89,98.43,92.92Z"/><path class="cls-3" d="M99.05,91.94l0,0S99.06,91.92,99.05,91.94Z"/><path class="cls-3" d="M94.64,94.85v0c-.09,0-.19,0-.19.12s.12.16.16,0C94.6,94.88,94.62,94.87,94.64,94.85Z"/><path class="cls-3" d="M94.4,94.19s0,0,0-.06,0-.06-.05,0,0,0,0,0Z"/><path class="cls-3" d="M94.79,84.85h0c0-.06-.06-.13-.13-.16a.11.11,0,0,0-.08,0,.19.19,0,0,0-.08.28H95C94.94,84.9,94.83,84.94,94.79,84.85Z"/><path class="cls-3" d="M98.78,93.41a.48.48,0,0,0,.09.19.14.14,0,0,0,0-.23S98.81,93.37,98.78,93.41Z"/><path class="cls-3" d="M73.47,40.84l.21.07c.09-.08.17-.17-.05-.16,0,0-.06,0-.09,0S73.44,40.77,73.47,40.84Z"/><path class="cls-3" d="M103.35,70.61c-.06.13.11.08.14.14l0,0h0c.07-.06.11-.13,0-.19S103.38,70.56,103.35,70.61Z"/><path class="cls-3" d="M102.73,71.47s.1,0,.14.07h0c.08-.07.11-.15,0-.19s-.14,0-.14.12Z"/><path class="cls-3" d="M104.44,73.33c-.1-.06-.15,0-.15.08s0,0,0,.06.06.06,0,.08-.06.21.08.25.22,0,.22-.19A.36.36,0,0,1,104.44,73.33Z"/><path class="cls-3" d="M70.23,50.66a.66.66,0,0,0,0,.58l0,0a.13.13,0,0,0,.13,0,.13.13,0,0,0,0-.12s-.07-.06,0-.08a.19.19,0,0,0,.08,0c.21-.39.2-.53,0-.66h0a.1.1,0,0,0-.14,0C70.25,50.46,70.28,50.59,70.23,50.66Z"/><path class="cls-3" d="M69.57,49.94s-.07.05-.1.07a.46.46,0,0,1-.07.07c0,.06,0,.16.11.1A.35.35,0,0,0,69.6,50S69.61,49.93,69.57,49.94Z"/><path class="cls-3" d="M69.26,49.53v.06l.07.08.13-.08s0,0,0-.06h0l-.07-.07h0C69.32,49.42,69.29,49.48,69.26,49.53Z"/><path class="cls-3" d="M104.66,74.17h0c0-.08,0-.18-.13-.23C104.5,74.05,104.5,74.14,104.66,74.17Z"/><path class="cls-3" d="M82.61,55.17a.14.14,0,0,0,0,.06.15.15,0,0,0,0,.07l0,0h.14l.07-.08v-.13h-.18Z"/><path class="cls-3" d="M85.16,57.21h0s0-.05,0,0,0,0,0,0A0,0,0,0,0,85.16,57.21Z"/><path class="cls-3" d="M85.64,61.09a.14.14,0,0,0,0,.09.13.13,0,0,0,.06.07l.11.08c.23.12.47.22.69.35l.3.17c.08.06.17.1.25,0a.15.15,0,0,0,0-.26h0a.43.43,0,0,0-.2-.11.58.58,0,0,0-.23,0l-.28-.21s-.11,0-.14-.06h0a.34.34,0,0,0-.42-.15Z"/><path class="cls-3" d="M75.61,51.73c0-.08,0-.15-.06-.2S75.53,51.68,75.61,51.73Z"/><path class="cls-3" d="M80.21,50.64a.13.13,0,0,0,0,.06c.06,0,.11.08.16,0s0-.12,0-.18l-.06,0A.09.09,0,0,0,80.21,50.64Z"/><path class="cls-3" d="M24.46,66.86c.05-.16,0-.21-.25-.21h0a.22.22,0,0,0,.15.27S24.44,66.91,24.46,66.86Z"/><path class="cls-3" d="M21.61,69.11a2.77,2.77,0,0,1,.26-.1c.11,0,.22-.07.16-.21s-.17-.06-.25,0-.26.12-.37.2C21.34,69.23,21.53,69.09,21.61,69.11Z"/><path class="cls-3" d="M16.51,70.1h-.26C16.32,70.17,16.39,70.18,16.51,70.1Z"/><path class="cls-3" d="M15.9,70.3v-.14h-.07C15.78,70.24,15.74,70.31,15.9,70.3Z"/><path class="cls-3" d="M21.06,69.27c0,.08.13,0,.21.07l.05,0C21.25,69.23,21.15,69.27,21.06,69.27Z"/><path class="cls-3" d="M20.75,56.77a0,0,0,0,0,0,0h0a0,0,0,0,0,0,0S20.75,56.8,20.75,56.77Z"/><path class="cls-3" d="M35.73,48.91l-.09,0-.06.06v0a.56.56,0,0,0,.62,0c.14-.08,0-.11-.06-.16H36A.82.82,0,0,1,35.73,48.91Z"/><path class="cls-3" d="M33.84,48.33a.58.58,0,0,1-.14,0h-.06l-.08,0c-.1,0-.21,0-.28.07h-.07a1.08,1.08,0,0,0-.66.27l-.12.07-.07,0-.06.06,0,0,.14.13h.07a.46.46,0,0,1,.43-.21l.44-.2h0l.06,0a.2.2,0,0,0,.22,0h0c.14,0,.3,0,.43-.06S34,48.25,33.84,48.33Z"/><path class="cls-3" d="M35.23,48.19c0-.06-.1,0-.16,0a1.36,1.36,0,0,1-.45.12c-.11,0-.07.08,0,.14h.14c.08-.07.2,0,.28-.07h0a.21.21,0,0,1,.15-.07S35.25,48.23,35.23,48.19Z"/><path class="cls-3" d="M32.43,48.51c-.06.06-.15,0-.22.06l-.07.13h0a.17.17,0,0,0,.21,0C32.36,48.63,32.55,48.63,32.43,48.51Z"/><path class="cls-3" d="M35.43,53a.29.29,0,0,1,.14.13.14.14,0,0,0,.06.12l.1.09c.08.08.2.11.28.19l-.19,0a.19.19,0,0,0-.1,0l0,0a.4.4,0,0,0-.07-.18h0c-.07.05-.09.13-.13.19s0,.15.14.14h.08a9.62,9.62,0,0,0,1.42,0c.06,0,.22,0,.14.12s0,.22-.13.29l-.08.07h0a.29.29,0,0,1-.14.2c.05.09.12.07.19.06s.06-.28.22-.34l0,0,0-.07v0a.28.28,0,0,1,.1-.21l.06,0a.22.22,0,0,0,.16-.15c0-.12-.06-.17-.19-.12a2.39,2.39,0,0,1-.84-.06V53.4a.14.14,0,0,0-.1-.07h-.12c-.13,0-.3,0-.37-.13s-.17-.06-.26-.09l-.08-.06h0s-.11,0-.14-.07h0a.46.46,0,0,1-.07-.07h0a.12.12,0,0,0-.15,0Z"/><path class="cls-3" d="M34.43,53.87h.16s0,0,0,0l.07,0a1.06,1.06,0,0,0,.5-.08c-.13-.13-.29-.05-.44-.07a2.43,2.43,0,0,0-.27,0C34.33,53.68,34.36,53.77,34.43,53.87Z"/><path class="cls-3" d="M33.13,53.8v.08h0a.35.35,0,0,1,.14.13h0c.24.08.17-.12.21-.22s-.17-.13-.28-.06-.05,0-.08.06Z"/><path class="cls-3" d="M38.86,47.66a.12.12,0,0,0-.14-.13c0,.08,0,.15.06.2l.08-.06Z"/><path class="cls-3" d="M40.79,47.67h0l.16-.12C40.76,47.55,40.76,47.55,40.79,47.67Z"/><path class="cls-3" d="M102.47,70.68a.06.06,0,0,0-.06.07.13.13,0,0,0,.13.09h0s0,0,0-.06S102.54,70.68,102.47,70.68Z"/><path class="cls-3" d="M94.48,68.22a.13.13,0,0,0,.07,0,1.8,1.8,0,0,1,.21.08l.16.08a.55.55,0,0,1,.3.24.2.2,0,0,0,.08,0c.27,0,.15.21.24.3a.46.46,0,0,0,.24.17c.2,0,.26-.06.24-.2h0l.13.06c.1,0,.15.16.27.17h0c0,.22.17.23.34.25l0,0,0,0v0a.1.1,0,0,0,.06,0,.15.15,0,0,0,.07,0h0v0h.18a.24.24,0,0,0,0,.08.12.12,0,0,0,.15,0h0s0,0,0,0c.06.26.29.34.49.45s.28.33.54.27h.2c.1-.05.25,0,.3-.11a.29.29,0,0,0-.28-.09.45.45,0,0,1-.45-.2A.35.35,0,0,0,98,69.9l-.09-.08,0-.06c0-.06,0-.12,0-.18a.08.08,0,0,0,0-.07.25.25,0,0,0-.22,0l-.17.06a.26.26,0,0,0-.09-.14c.13-.1.18-.21.06-.35h-.06c-.1-.11-.19-.24-.37-.11s-.11,0-.17,0a2,2,0,0,1-.54-.15l-.14-.07c-.06,0-.07-.07-.09-.12a1.52,1.52,0,0,1-.42-.49.42.42,0,0,0-.22-.27l0,0c-.18,0-.14.13-.14.24s.12.12.18.19a2.57,2.57,0,0,1-.49-.27c-.14-.07-.21-.22-.33-.31l-.09,0a.46.46,0,0,0-.2,0,.21.21,0,0,0-.08.06.2.2,0,0,0,0,.13c0,.08.08.12.15.17A.39.39,0,0,1,94.48,68.22Z"/><path class="cls-3" d="M89.69,63.66a.34.34,0,0,0,.16.36,5.39,5.39,0,0,0,1,.46.13.13,0,0,0,.12-.07.1.1,0,0,0,0-.09l-.06-.07c-.12-.07-.08-.21-.16-.3s-.21-.1-.3-.05-.26,0-.33-.16-.11-.18-.22-.19a.28.28,0,0,0-.2,0A.12.12,0,0,0,89.69,63.66Z"/><path class="cls-3" d="M91.36,64a.12.12,0,0,0,.14-.13l-.07-.07a.18.18,0,0,0-.15.07s0,.1.08.13Z"/><path class="cls-3" d="M93.29,65.88a1.48,1.48,0,0,1,.29.27c.09.06.2.07.28.14H94v-.06s0,0-.06-.07h0a2.36,2.36,0,0,0-.57-.35C93.29,65.79,93.27,65.82,93.29,65.88Z"/><path class="cls-3" d="M88.75,98.65l0,0-.07,0-.06.06c-.12,0-.12.07-.08.15h0a.31.31,0,0,1,.09.14.35.35,0,0,0,.07.14.28.28,0,0,0-.15.08v.12c.07.21.07.21.24.1l.1,0,.09-.06c0-.08,0-.1-.08-.14h0l-.1,0a.65.65,0,0,0,.1-.15h0a.16.16,0,0,1,.08-.06.48.48,0,0,1,.35-.08v-.14a.15.15,0,0,0-.13-.05C89,98.76,88.9,98.59,88.75,98.65Z"/><path class="cls-3" d="M89,99.41s.1,0,.09-.09,0,0-.08,0S89,99.36,89,99.41Z"/><path class="cls-3" d="M24.19,72.23a.15.15,0,0,0-.14.06h0a.46.46,0,0,1,.07.07l.07.07c.1,0,.23,0,.15-.15l0,0s-.05,0-.08,0Z"/><path class="cls-3" d="M21.62,76.51c.08-.07.17,0,.25,0a.12.12,0,0,0,.07,0h0a.14.14,0,0,0,0-.06s0,0,0,0a.11.11,0,0,1,0-.09l.06-.06c.09-.09.23-.16.23-.32a.16.16,0,0,0-.15-.08h0c-.05,0-.11,0-.15.07h0a.46.46,0,0,0-.07.07.58.58,0,0,0-.23.18.28.28,0,0,1-.33.1s0,0,0,.06a.19.19,0,0,1-.13.21.34.34,0,0,0,0,.41C21.39,76.79,21.45,76.59,21.62,76.51Z"/><path class="cls-3" d="M20.9,77.47l.08-.14c-.08-.09-.18-.06-.28-.06l0,0C20.73,77.39,20.71,77.57,20.9,77.47Z"/><polygon class="cls-3" points="21.19 76.85 21.19 76.85 21.19 76.85 21.19 76.85 21.19 76.85"/><path class="cls-3" d="M21.17,76.87l0,0S21.16,76.87,21.17,76.87Z"/><path class="cls-3" d="M24.23,74.33c0-.09.09-.23-.11-.25h-.07a.23.23,0,0,1-.07.07h0c0,.09,0,.2.07.28h0C24.1,74.38,24.21,74.42,24.23,74.33Z"/><path class="cls-3" d="M9.55,83.5a.26.26,0,0,0-.3,0,.41.41,0,0,0,.28.15h0C9.55,83.62,9.63,83.55,9.55,83.5Z"/><path class="cls-3" d="M65.43,63.92v0c.11-.18,0-.37.06-.56l0-.08h0a.08.08,0,0,1,0-.08c0-.06,0-.12,0-.17h0c-.1-.09-.21-.16-.35-.06s0,.26.07.39a.2.2,0,0,1,0,.22s0,0,0,.06-.08.25,0,.34l.09.05h.1S65.46,64,65.43,63.92Z"/><path class="cls-3" d="M53.66,60.91h0c.05.08.13.07.21.06v-.12h-.06S53.7,60.88,53.66,60.91Z"/><path class="cls-3" d="M66.72,65c-.06-.08-.14-.06-.22-.05a.18.18,0,0,0-.15.11.06.06,0,0,0,.05.08.33.33,0,0,0,.29-.05S66.73,65.06,66.72,65Z"/><path class="cls-3" d="M66.61,57.11c.1.07,0,.2.1.3.06-.08,0-.18.11-.22s0,0,0-.06-.07-.18-.18-.17S66.61,57.06,66.61,57.11Z"/><path class="cls-3" d="M54.45,60.77h-.07c.07.09.17.06.27.06S54.52,60.79,54.45,60.77Z"/><path class="cls-3" d="M50.81,60.56s.08.1.11.1.09-.09.09-.15l-.08-.15c-.1-.06-.13,0-.14.08Z"/><path class="cls-3" d="M39.41,56.54a.49.49,0,0,1,.24,0h.06c.08-.21-.12-.16-.21-.2s-.13,0-.2,0a.38.38,0,0,0-.13.09l0,0A.18.18,0,0,0,39.41,56.54Z"/><path class="cls-3" d="M42.69,53.14c-.09-.12-.18,0-.32,0,.13.08.22.12.31,0S42.7,53.16,42.69,53.14Z"/><path class="cls-3" d="M43,52.43c-.11,0-.29,0-.29-.07s-.12-.12-.2-.13a.24.24,0,0,1-.12-.07c-.07,0-.14-.1-.22,0a.17.17,0,0,0,0,.22l.12.12c.13,0,.2.12.3.18a.4.4,0,0,0,.49,0,.13.13,0,0,0,.05-.15A.1.1,0,0,0,43,52.43Z"/><path class="cls-3" d="M14.74,86.72a.2.2,0,0,1-.06-.14c0-.1,0-.13-.14-.13s-.25,0-.12.17l.12.16C14.61,86.78,14.7,86.8,14.74,86.72Z"/><path class="cls-3" d="M10.12,102.26c-.11-.05-.15,0-.15.11h.13C10.15,102.35,10.2,102.29,10.12,102.26Z"/><path class="cls-3" d="M98.79,76.87a2.32,2.32,0,0,1-.52-.07.46.46,0,0,0-.2,0c-.06.11-.47.06-.17.35l.09,0a.51.51,0,0,1,.21.1.32.32,0,0,0,.38,0c.27,0,.51-.17.79-.14.06-.1.2-.14.2-.27h0a.28.28,0,0,0-.28,0c-.13,0-.28,0-.41,0Z"/><path class="cls-3" d="M85.57,97.2l.09,0c.16.1.18.09.2-.09,0,0,0-.06,0-.1h-.07C85.6,97,85.58,97,85.57,97.2Z"/><path class="cls-3" d="M87,97.71c0-.06,0-.11-.1-.12a.07.07,0,0,0-.06.07c0,.06,0,.11.1.12S87,97.74,87,97.71Z"/><path class="cls-3" d="M93.73,96.27c-.06-.13-.22,0-.3-.1s-.12-.26-.29-.28-.18,0-.2.09.07.11.13.13a.24.24,0,0,1,.18.23c0,.21.14.17.26.18a1.85,1.85,0,0,1,.14-.14S93.74,96.33,93.73,96.27Z"/><path class="cls-3" d="M95.06,95.75v-.13a.09.09,0,0,0-.06-.07c-.06-.06-.12-.11-.21-.07h0c-.11.07-.09.14,0,.21a.2.2,0,0,0,0,.07h.07v.06h.21A.2.2,0,0,1,95.06,95.75Z"/><path class="cls-3" d="M92.93,90h.13l.17-.12c0-.05,0-.11,0-.13S92.92,89.85,92.93,90Z"/><path class="cls-3" d="M93.91,89.08a0,0,0,0,1,0,0l0,0,0,0S93.88,89.09,93.91,89.08Z"/><path class="cls-3" d="M92.42,82.79c.15,0,.16.16.17.3a2.26,2.26,0,0,1,.16-.21l0-.17C92.62,82.73,92.5,82.68,92.42,82.79Z"/><path class="cls-3" d="M92.07,85.5s0,.08.08.08l0,0a.09.09,0,0,0,0-.11l-.09,0h0A.31.31,0,0,1,92.07,85.5Z"/><path class="cls-3" d="M21.19,93.34a.31.31,0,0,0,.22-.21h0a.12.12,0,0,0,0-.09c-.13-.16-.22-.1-.31,0l-.08,0L21,93.2l-.06.07c-.07.16,0,.19.15.15Z"/><path class="cls-3" d="M15.76,91.75l.15.13.33-.07C16.09,91.7,15.92,91.77,15.76,91.75Z"/><path class="cls-3" d="M13.54,89.2c-.1,0-.15,0-.14.14A.12.12,0,0,0,13.54,89.2Z"/><path class="cls-3" d="M71.76,45.32l.07.06.14.14h0a.46.46,0,0,1,.07-.07h0c.1-.16,0-.21-.14-.28l-.31,0C71.62,45.25,71.73,45.25,71.76,45.32Z"/><path class="cls-3" d="M70.47,50.15c.09,0,.15,0,.15-.09s0-.19-.15-.12Z"/><path class="cls-3" d="M69.19,53.32c.07,0,.15,0,.19-.06l-.06-.07C69.24,53.19,69.09,53.15,69.19,53.32Z"/><path class="cls-3" d="M82.73,55.69a.14.14,0,0,0,0-.22C82.7,55.54,82.67,55.61,82.73,55.69Z"/><polygon class="cls-3" points="82.7 55.47 82.7 55.46 82.7 55.47 82.7 55.47"/><path class="cls-3" d="M87.35,61.88v0l0,.06.07,0,.11,0,0,0,.07,0a.11.11,0,0,0,.08,0,.09.09,0,0,0,0,0,.6.6,0,0,0,.4.24,4,4,0,0,0,.39.16.37.37,0,0,0,.23,0c.08,0,.16,0,.22-.06s-.06,0-.07-.07l-.15-.07a.44.44,0,0,0-.21-.07c-.09-.06-.21-.1-.25-.18s-.29-.2-.48-.18l-.13,0c-.06-.06-.16,0-.22-.07h0C87.43,61.82,87.37,61.82,87.35,61.88Z"/><path class="cls-3" d="M88.44,62s0,.08.1.07a.11.11,0,0,0,.09-.12c0-.05,0-.08-.08-.06S88.44,61.9,88.44,62Z"/><path class="cls-3" d="M85,60.59a.4.4,0,0,0,.4.26c.06,0,.11,0,.14-.08l-.07-.07-.07-.06h-.06a.16.16,0,0,1-.08-.06h-.06a.15.15,0,0,1-.09-.06h0l0,0s0,0-.06,0A.29.29,0,0,0,85,60.59Z"/><path class="cls-3" d="M84.5,59.8l.2.09a.21.21,0,0,1,.08.06h0a.23.23,0,0,0,.07.07h0a.11.11,0,0,0,.09,0v0l0,0,.06.07a1.53,1.53,0,0,1,.18.18h0a1.51,1.51,0,0,1,.37.06l.06,0c.08,0,.13,0,.08-.13a1.7,1.7,0,0,0-.15-.22L85.42,60v-.13h0s0,0,0,0-.1-.08-.17-.07h0c-.1-.06-.19-.14-.32-.11S84.56,59.63,84.5,59.8Z"/><path class="cls-3" d="M76,46.86a.12.12,0,0,0,.09.09.08.08,0,0,0,.1-.06c0-.07,0-.11-.1-.11A.08.08,0,0,0,76,46.86Z"/><path class="cls-3" d="M80,52.32l0,0h0Z"/><path class="cls-3" d="M25.84,66.3c.08-.07.19,0,.26-.08a.22.22,0,0,0,.1-.09.08.08,0,0,0,0,0h.05a.1.1,0,0,0,.09,0,.41.41,0,0,0,.11-.07c.11-.09.29-.12.31-.29h0l0,0c.13-.19.13-.19-.07-.21l-.07.07h0a1,1,0,0,0-.43.22l-.07.06h0a0,0,0,0,0,0,.06.07.07,0,0,0-.06,0h-.08A.17.17,0,0,1,26,66h0c-.13,0-.19.08-.27.14l-.07.07c0,.06.08.07.14.07Z"/><path class="cls-3" d="M20.33,59.61h0l0,0s0,0,0,0l0,0a.19.19,0,0,0,0-.18h0c-.07,0-.1-.15-.22-.13a.13.13,0,0,1,0,.06c.1.08.07.24.21.28h0a.38.38,0,0,0,.08.27C20.48,59.78,20.36,59.69,20.33,59.61Z"/><path class="cls-3" d="M21.7,59.67a.51.51,0,0,1-.16-.13h-.06s-.05,0-.09,0a.23.23,0,0,0,0,.14c0,.12.15.16.24.22h0a.46.46,0,0,1,.07.07h0s0,.1.08.13h0c.09.08,0,.25.22.27s.13.12.14.21,0,.26.25.26c0-.13,0-.26-.05-.38A7.82,7.82,0,0,0,21.7,59.67Z"/><path class="cls-3" d="M38.29,52.64l.06-.08a.12.12,0,0,0-.07-.14l-.28.22c-.08.18.07.12.15.14A.38.38,0,0,0,38.29,52.64Z"/><path class="cls-3" d="M39.52,47.48l-.09,0h0l.06,0Z"/><path class="cls-3" d="M95.93,71.82a.85.85,0,0,0-.22-.13,2.51,2.51,0,0,0-.67,0,.23.23,0,0,0-.07.07.18.18,0,0,0,0,.1c.1.11.24.09.37.13s.18,0,.23.08S95.8,71.89,95.93,71.82Z"/><polygon class="cls-3" points="94.93 70.85 94.93 70.85 94.93 70.85 94.93 70.85"/><path class="cls-3" d="M95,70.87l-.1,0S95,70.94,95,70.87Z"/><path class="cls-3" d="M95.8,69.74s0-.08-.07-.09a.08.08,0,0,0-.08,0l-.08.13C95.69,69.93,95.76,69.89,95.8,69.74Z"/><polygon class="cls-3" points="94.5 70.78 94.5 70.78 94.5 70.78 94.5 70.78"/><path class="cls-3" d="M94.36,70.57v.06s0,.06,0,.09a.22.22,0,0,0,.14.06h0c0,.1-.21,0-.26.16a.84.84,0,0,0,.47,0c0-.06.13-.06.15-.13-.16,0-.11-.21-.22-.26S94.45,70.57,94.36,70.57Z"/><path class="cls-3" d="M95.85,70.23l.08.07s0,0,.07,0h.07v-.14H96a.14.14,0,0,0-.15,0h0S95.83,70.21,95.85,70.23Z"/><path class="cls-3" d="M96.52,69.48a.75.75,0,0,0-.4-.24s0,.06,0,.09h0c.09.06,0,.21.13.24a.11.11,0,0,0,.08,0h.14S96.55,69.51,96.52,69.48Z"/><path class="cls-3" d="M91.85,66a2,2,0,0,0,.56.25s.06.06.1.09.25.08.2-.13,0-.22-.21-.21h0a.39.39,0,0,0-.1-.08c-.17-.08-.32-.22-.54-.16S91.75,66,91.85,66Z"/><path class="cls-3" d="M87.07,105.42h.06c0-.06,0-.13-.08-.1S87,105.39,87.07,105.42Z"/><path class="cls-3" d="M87.93,97.89l-.09-.2h0a.93.93,0,0,1-.14-.14.16.16,0,0,1-.07,0c-.08,0-.06.13-.06.2h.05c.08,0,0,.13.06.19a.13.13,0,0,0,.06.07l.08,0a.14.14,0,0,0,.09,0A.1.1,0,0,0,87.93,97.89Z"/><path class="cls-3" d="M22.52,76.16c-.08-.09-.15,0-.21.08l0,.05H22.2c-.11.1-.22.19-.22.34a.57.57,0,0,0-.22.07.1.1,0,0,0-.05,0s-.08.06-.06.11.08,0,.12,0h.07l.06,0,.07,0a.13.13,0,0,0,.05-.06.22.22,0,0,0,0-.08l0,0a.05.05,0,0,0,.08,0l.05,0a1.08,1.08,0,0,1,.3-.26C22.48,76.31,22.63,76.27,22.52,76.16Z"/><path class="cls-3" d="M25.35,73.76l0,0a.2.2,0,0,0,0-.08.47.47,0,0,0,0-.17.3.3,0,0,0,0-.08h0a.06.06,0,0,0-.05,0h-.07v.07a.46.46,0,0,0-.07.07l-.08.12h0c-.29.18-.24.53-.48.78l.26-.08h0l.07-.07c.1-.09.16-.21.29-.27a.51.51,0,0,0,0-.21.14.14,0,0,0,0-.06A.06.06,0,0,0,25.35,73.76Z"/><path class="cls-3" d="M24.55,73.68l-.07.07-.07.06c0,.18.12.12.21.07S24.64,73.73,24.55,73.68Z"/><path class="cls-3" d="M83.55,97.41h0a.1.1,0,0,1-.08-.06h0c-.06,0-.07.08-.08.14s.12.2.26.18S83.55,97.49,83.55,97.41Z"/><path class="cls-3" d="M66.8,66.93c.16.06.29,0,.37.13a.26.26,0,0,0,.16-.15.44.44,0,0,1,.07-.27c.1-.18.06-.26-.14-.4,0,.13-.06.26-.08.4S67.14,66.91,66.8,66.93Z"/><path class="cls-3" d="M73.2,65.82v-.67l-.16.11v.48c0,.16-.07.34.08.49A.25.25,0,0,0,73.2,65.82Z"/><path class="cls-3" d="M69.32,68.49a2.44,2.44,0,0,0,0-.27h0c-.08,0-.11,0-.14.08a.52.52,0,0,1-.07.27C69.22,68.63,69.3,68.61,69.32,68.49Z"/><path class="cls-3" d="M62.54,68.84c.05,0,.13,0,.11.09s.07.13.1.19H63c.07-.11,0-.2-.07-.28a.79.79,0,0,1-.15-.25C62.43,68.57,62.41,68.6,62.54,68.84Z"/><polygon class="cls-3" points="41.65 56.78 41.65 56.77 41.65 56.78 41.65 56.78"/><path class="cls-3" d="M41.27,56.37h0c-.06,0,0,.08,0,.12h0l.07.08h0l.21.15s.11,0,.15.07l.08-.08a.13.13,0,0,1,0-.06C41.63,56.45,41.42,56.45,41.27,56.37Z"/><path class="cls-3" d="M15,87.28l-.14.13a.13.13,0,0,0,0,.06C15.11,87.46,15.12,87.45,15,87.28Z"/><path class="cls-3" d="M16.6,88.79h0c-.09-.13-.21,0-.31,0h-.06v.13a.34.34,0,0,0,.31.11C16.61,89,16.68,88.91,16.6,88.79Z"/><path class="cls-3" d="M11.25,102l-.06,0c-.06,0,0,.09-.08.12v.07a.15.15,0,0,0,.14.07h0s0-.1.07-.14A.14.14,0,0,0,11.25,102Z"/><path class="cls-3" d="M11,102.51a.13.13,0,0,0,.15.14,1.41,1.41,0,0,1,0-.2C11,102.34,11,102.42,11,102.51Z"/><path class="cls-3" d="M93.85,78.2a.08.08,0,0,0,0-.08c-.07,0-.07,0-.06.09l0,.09h0A.12.12,0,0,0,93.85,78.2Z"/><path class="cls-3" d="M95.43,80.92h0c.1-.15,0-.23-.11-.31C95.24,80.77,95.41,80.82,95.43,80.92Z"/><path class="cls-3" d="M96.57,95.48h0l-.08-.06c-.06,0-.12-.12-.21,0s0,.15,0,.21.11.18.24.18S96.56,95.58,96.57,95.48Z"/><path class="cls-3" d="M83.88,95.68c.09,0,.1-.07.11-.14a.19.19,0,0,0-.21-.12s0,.08,0,.13A.1.1,0,0,0,83.88,95.68Z"/><path class="cls-3" d="M22.29,93.32a.08.08,0,0,0,.06.11c.07,0,.1,0,.13-.09s0-.15,0-.2c.11-.25,0-.47,0-.71a.1.1,0,0,0-.12-.09c-.06,0-.07.06-.07.11s0,.22,0,.34A.75.75,0,0,1,22.29,93.32Z"/><path class="cls-3" d="M23.64,91.22a.24.24,0,0,0-.09-.11c-.12,0-.22-.14-.35,0h0a.08.08,0,0,0,0,.06.09.09,0,0,0,0,.07l.07.14h.08a.24.24,0,0,0,.2,0A.19.19,0,0,0,23.64,91.22Z"/><path class="cls-3" d="M70.76,52.15c0,.07-.13.14,0,.21s.12-.06.19-.08.1-.06.08-.13-.09-.07-.15-.06Z"/><path class="cls-3" d="M85,60.49c0-.13-.06-.19-.13-.27s0,.14-.07.2a.16.16,0,0,0,.07.07h0A.08.08,0,0,0,85,60.49Z"/><path class="cls-3" d="M25.51,72.19a.07.07,0,0,0-.07-.08.07.07,0,0,0-.09.07s0,.09.07.09A.09.09,0,0,0,25.51,72.19Z"/><path class="cls-3" d="M28.76,70.09c.07.08.11,0,.17,0L29,70c0-.16-.11-.11-.19-.08A.1.1,0,0,0,28.76,70.09Z"/><polygon class="cls-3" points="28.98 70.02 28.98 70.02 28.98 70.02 28.98 70.02"/><path class="cls-3" d="M29.07,69.76c0,.24.18.07.28,0h.06c.12.08.16-.06.24-.08a.3.3,0,0,0,.15-.12.11.11,0,0,0,0-.13.15.15,0,0,1-.15-.07.57.57,0,0,0-.43.27h0A.2.2,0,0,1,29.07,69.76Z"/><path class="cls-3" d="M28.55,70.34c-.05,0,0,.08,0,.11l.07-.08S28.59,70.31,28.55,70.34Z"/><path class="cls-3" d="M27.76,63.84s0-.07-.06-.07-.1,0-.12.09a.06.06,0,0,0,.07.07C27.72,64,27.76,63.91,27.76,63.84Z"/><path class="cls-3" d="M27.49,62c-.11,0,0-.2-.18-.22s0,.26-.1.36,0,.22,0,.31,0-.12.11-.14,0,.22.21.17A1.15,1.15,0,0,1,27.49,62Z"/><path class="cls-3" d="M38.14,53.6v-.13H38C37.91,53.64,38.05,53.59,38.14,53.6Z"/><path class="cls-3" d="M91.85,70.44h0c-.09.17-.33.1-.46.27h.38c.11,0,.19-.07.3,0s.07,0,.07-.09l-.07-.06C92,70.44,91.91,70.5,91.85,70.44Z"/><path class="cls-3" d="M93.57,67.4c0,.19,0,.21.22.27,0,0,.14,0,.07-.09s-.07-.17.09-.16,0,0,0-.08l-.06-.07C93.8,67.28,93.6,67.14,93.57,67.4Z"/><path class="cls-3" d="M93.29,67h0s0,0,0,0v0c.1.15.2.19.31,0a.48.48,0,0,1,.11-.09c0-.08,0-.15-.13-.09A.74.74,0,0,1,93.29,67Z"/><path class="cls-3" d="M89.07,63.32h0c.1,0,.18.14.33.1C89.29,63.31,89.22,63.18,89.07,63.32Z"/><path class="cls-3" d="M19.24,81.26l.1.14a.26.26,0,0,0,.28.17c.05,0,.1,0,.14,0h0A.42.42,0,0,0,19.24,81.26Z"/><path class="cls-3" d="M20.33,81.26c.22-.05,0-.13,0-.2s-.21,0-.19.12S20.26,81.28,20.33,81.26Z"/><path class="cls-3" d="M21.4,81.13a.14.14,0,0,1,0,.06l.13.07s.1,0,.14.1a.11.11,0,0,0,.08,0,.15.15,0,0,0,.11-.2.12.12,0,0,0-.05-.07.59.59,0,0,0-.14-.06h0a.15.15,0,0,0-.07,0h0C21.45,81,21.33,81,21.4,81.13Z"/><path class="cls-3" d="M78.7,78.87l0,.08a.29.29,0,0,0,.06.11s0,0,0,.06h0a.59.59,0,0,1,.07.36.18.18,0,0,0,.16.25h.06a.17.17,0,0,0,.06.1h0V80l.06,0h0c0,.11,0,.23.12.28a.39.39,0,0,0,0-.51h0l0,0c0-.11,0-.22-.06-.31a.81.81,0,0,1-.12-.14h0l-.06-.08-.16-.33C78.83,78.79,78.76,78.82,78.7,78.87Z"/><path class="cls-3" d="M86.85,99.9l-.15.13s-.19.09,0,.15a.36.36,0,0,0,.29,0h0c.07-.12.14,0,.22,0l0,0v-.06s0,0,0,0a.91.91,0,0,0,0-.33h0l-.3.13Z"/><path class="cls-3" d="M64.78,75.37c0-.09-.09-.1-.16-.1s-.21,0-.23.15,0,.12.11.11A.36.36,0,0,0,64.78,75.37Z"/><path class="cls-3" d="M71,88.76c-.12.06-.07.19-.17.23l-.07.08-.08.05a.1.1,0,0,0,0,.09.19.19,0,0,0,.1.1h.1c.18,0,.1-.18.18-.25h0C71,89,71.08,88.85,71,88.76Z"/><path class="cls-3" d="M62.67,76.57c-.08-.18-.09-.18-.35-.06,0,.13.14.17.17.31C62.54,76.7,62.57,76.61,62.67,76.57Z"/><path class="cls-3" d="M67.48,82.22c0,.08,0,.17-.08.22a2.44,2.44,0,0,0,0,.27h0c0,.08-.06.17.06.21s.16.1.27.07c0-.19,0-.41.14-.57-.14-.07-.22.09-.32,0S67.58,82.28,67.48,82.22Z"/><path class="cls-3" d="M67.93,82c-.06.22.1.42,0,.63.14,0,.12-.1.13-.19s0-.3.06-.43,0-.25-.17-.23S68,81.94,67.93,82Z"/><path class="cls-3" d="M73.85,80.67a.08.08,0,0,0,.1.07c.1,0,.12-.1.12-.18s0,0-.08,0S73.84,80.57,73.85,80.67Z"/><path class="cls-3" d="M84.28,95.13l.07.07c.1-.16.09-.2-.08-.27h0l-.06.07v.06A.46.46,0,0,1,84.28,95.13Z"/><path class="cls-3" d="M73.55,75.81a.84.84,0,0,1,.07.35c0,.11.09.23.25.15s.11-.18,0-.29,0,0,0-.07,0-.1-.07-.13l0,0h0a.55.55,0,0,0,0-.18c0-.05,0-.11,0-.15h0c-.08-.06-.18,0-.26,0s-.16.07-.15.17S73.45,75.78,73.55,75.81Z"/><path class="cls-3" d="M73,88.24c-.11,0-.13.07-.14.16s0,.18-.07.24a2.18,2.18,0,0,0-.21.7l0,.12h0l0,0a.44.44,0,0,0-.07.35c0,.1,0,.19.2.12l.07-.07a1.11,1.11,0,0,1,.09-.4l0,0a.16.16,0,0,0,.07,0,.11.11,0,0,0,0-.13h0a1.68,1.68,0,0,1,0-.5A1.74,1.74,0,0,0,73,88.24Z"/><path class="cls-3" d="M67.33,84.24a.21.21,0,0,1-.07.14c0,.13,0,.14.18,0v0a.14.14,0,0,0,0,.12c.11,0,.16.18.28.22a.07.07,0,0,0,.07,0c0-.11.1-.22,0-.33s-.13-.31-.35-.21C67.36,84.1,67.39,84.23,67.33,84.24Z"/><path class="cls-3" d="M72.29,90.84c-.22.07-.18.28-.24.43s0,.2.07.27a.29.29,0,0,0,.2-.07c0-.08,0-.17,0-.26S72.43,91,72.29,90.84Z"/><path class="cls-3" d="M67.91,88.51l0-.13-.13.06s0,.09,0,.13,0,.29.16.36h0A.58.58,0,0,0,67.91,88.51Z"/><path class="cls-3" d="M70.25,86h0s.11.18.15,0,0-.15-.06-.16S70.26,85.89,70.25,86Z"/><path class="cls-3" d="M66.44,71.65c.07,0,.12,0,.17-.05h0c-.06,0-.07-.13-.16-.07S66.39,71.61,66.44,71.65Z"/><path class="cls-3" d="M67.18,67.19s0,.1,0,.07S67.21,67.2,67.18,67.19Z"/><path class="cls-3" d="M71.11,58.07s.1,0,.15-.06.11-.13,0-.21-.09,0-.13,0l-.06.12S71.05,58,71.11,58.07Z"/><path class="cls-3" d="M67.25,55.81a.29.29,0,0,0,0-.09l0,0,0,.06Z"/><path class="cls-3" d="M39.72,65.19a.07.07,0,0,0,.06,0h.08l0,0,.07,0a.17.17,0,0,0,.1-.06l.08-.06c0-.08,0-.14-.08-.14l-.06,0a.7.7,0,0,1-.29.13Z"/><path class="cls-3" d="M44,63.4l-.16.06h-.13c-.09.11-.27,0-.36.12a.27.27,0,0,1-.07.08h0c0,.06.1.07.16.08a2.63,2.63,0,0,1,.63-.15C44.11,63.51,44.2,63.41,44,63.4Z"/><path class="cls-3" d="M11.89,101.13a.12.12,0,0,0-.14-.06l-.07.07C11.76,101.35,11.82,101.12,11.89,101.13Z"/><polygon class="cls-3" points="93.5 76.3 93.5 76.3 93.5 76.3 93.5 76.3"/><path class="cls-3" d="M93.33,76.07a1.71,1.71,0,0,0-.45-.09.16.16,0,0,0-.16,0c0,.11,0,.19.14.2s.16,0,.22.06h.42C93.59,76.13,93.44,76.11,93.33,76.07Z"/><path class="cls-3" d="M93.7,77.16a0,0,0,0,0,0,0c0,.08.06.08.11.09h0S93.79,77.15,93.7,77.16Z"/><path class="cls-3" d="M92.43,75.94l-.37,0c.11.18.36.06.44.26.1,0,.16,0,.09-.14A1.1,1.1,0,0,0,92.5,76,.08.08,0,0,1,92.43,75.94Z"/><path class="cls-3" d="M91.62,75.93c0,.08.06.14.16.17s0,0,.07.06c.24-.06,0-.14,0-.21S91.68,75.82,91.62,75.93Z"/><path class="cls-3" d="M93.81,75.85c.13.21,0,.33-.16.45h0s.1,0,.14.08a.18.18,0,0,1,.15.06h0a.11.11,0,0,1,.15,0h0a.16.16,0,0,0,.09,0,.11.11,0,0,0,.1,0,.14.14,0,0,0,.1.11h0a9.86,9.86,0,0,0,1.24.11c-.07-.12-.2-.08-.26-.17l-.2-.07a2.14,2.14,0,0,0-.43-.07h-.28a.13.13,0,0,1,0-.06.75.75,0,0,0-.43-.13c-.11-.15,0-.37-.21-.49A.11.11,0,0,0,93.81,75.85Z"/><path class="cls-3" d="M93.51,83s0,.09.09.07,0-.06,0-.09a.06.06,0,0,0,0-.06C93.52,83,93.51,83,93.51,83Z"/><path class="cls-3" d="M17.41,90a.17.17,0,0,1-.15-.07L17,90h0c-.05.05-.06.09,0,.13s.21,0,.28.07a.4.4,0,0,0,.28-.07A.12.12,0,0,0,17.41,90Z"/><path class="cls-3" d="M79.63,59h0a1.8,1.8,0,0,0-.06.22s0,.08.09.1.08,0,.09,0,.26-.33.09-.57C79.75,58.8,79.75,58.94,79.63,59Z"/><path class="cls-3" d="M86.21,62.49l.07.07a.23.23,0,0,0,.29-.13h0l-.07-.07h0C86.23,62.3,86.23,62.3,86.21,62.49Z"/><path class="cls-3" d="M86.5,64.5h0l-.08-.06h-.13s0,0,0,0,0,0,0,0l-.08-.05c0-.07-.12,0-.19,0s-.16,0-.24,0h0a.06.06,0,0,0-.08,0h-.06a.24.24,0,0,1-.23,0H85c-.09,0-.14-.16-.24,0s0,0,0,.06.17,0,.26.07v.07l.12.07.18.07a2.56,2.56,0,0,0,.95.19C86.38,64.7,86.51,64.68,86.5,64.5Z"/><path class="cls-3" d="M82.07,62.72l.07-.08a1,1,0,0,1,0-.17c0-.21-.08-.07-.15,0v.06C82,62.58,81.89,62.7,82.07,62.72Z"/><path class="cls-3" d="M82.85,62.57H83v-.14C82.88,62.42,82.84,62.47,82.85,62.57Z"/><path class="cls-3" d="M84.28,64.08a.18.18,0,0,0-.07,0L84.06,64a1.13,1.13,0,0,0-.27-.13l-.12,0-.07-.05a.21.21,0,0,0-.12,0H83.4a.34.34,0,0,1-.2,0,.24.24,0,0,0-.12,0s-.07.06-.1,0l-.09,0c-.18,0-.15.12-.07.23A.37.37,0,0,0,83,64c.09,0,.18,0,.27,0a2.32,2.32,0,0,1,.38.07,1.37,1.37,0,0,0,.49.13s.1,0,.13.08h0C84.43,64.23,84.36,64.16,84.28,64.08Z"/><path class="cls-3" d="M84.2,63.88h0c.11.06.26,0,.36.14h0a.12.12,0,0,0,.14-.13.49.49,0,0,0-.49-.14S84.16,63.83,84.2,63.88Z"/><path class="cls-3" d="M80.28,61.18c.06,0,.13.1.17,0s.1-.23-.1-.25l-.06.08Z"/><path class="cls-3" d="M88.34,63.06c.18-.13-.08-.19,0-.31s-.1-.1-.17-.12c-.24,0-.24,0-.2.14l.07.06C88.11,62.91,88.14,63.11,88.34,63.06Z"/><path class="cls-3" d="M87.49,62.16c-.11,0-.15,0-.14.13l.08.06C87.63,62.35,87.52,62.24,87.49,62.16Z"/><path class="cls-3" d="M73.4,55.6a.15.15,0,0,1,.14-.07.47.47,0,0,1,.13-.24s.1-.08,0-.14a.13.13,0,0,0-.19,0c-.09.18-.3.24-.41.41,0,0,0,0,0,0s-.17,0-.09.15.11,0,.17,0S73.31,55.66,73.4,55.6Z"/><path class="cls-3" d="M73.62,54.78h0a0,0,0,0,0,0,.06h0l.07.06h.07l.09-.14a.14.14,0,0,1,0-.06C73.72,54.62,73.67,54.7,73.62,54.78Z"/><path class="cls-3" d="M72.55,53.68c0,.06,0,.15.07.17s.12-.06.13-.13,0-.2-.13-.12Z"/><path class="cls-3" d="M29.78,66c.08,0,.06-.12,0-.18a2.12,2.12,0,0,0-.11-.21s-.05,0-.08-.07c-.18.09-.18.09-.06.34a.1.1,0,0,1,.05,0C29.66,66,29.7,66,29.78,66Z"/><path class="cls-3" d="M28.35,71.65c0,.16.25,0,.38,0h.1a.45.45,0,0,0,.3-.09c.11-.2.32-.3.43-.49h0a.09.09,0,0,0,.07,0c0-.09,0-.2-.07-.27,0-.23,0-.23-.22-.15s-.25.27-.42.35l-.22.35C28.54,71.39,28.3,71.46,28.35,71.65Z"/><path class="cls-3" d="M28.27,65.74a.46.46,0,0,1-.07-.07h0a.11.11,0,0,0-.14,0,.34.34,0,0,0,.07.28C28.29,66,28.28,65.84,28.27,65.74Z"/><path class="cls-3" d="M28.42,63.4s.07-.1,0-.15-.11,0-.16,0-.05,0-.08.06a.16.16,0,0,0,.16.15S28.4,63.43,28.42,63.4Z"/><path class="cls-3" d="M27.83,64.94s0,0,0,0,0,.12.1.13l0-.06S27.92,64.94,27.83,64.94Z"/><path class="cls-3" d="M94.12,75.84l.38.19c.08,0,.17,0,.24,0a.26.26,0,0,0-.17-.17C94.44,76,94.28,75.76,94.12,75.84Z"/><path class="cls-3" d="M93.93,71.75h-.14a.66.66,0,0,1,0,.14h.07c.12,0,.26,0,.36-.08h0C94.13,71.74,94,71.82,93.93,71.75Z"/><path class="cls-3" d="M91.29,70.84c-.23-.08-.42.08-.64.07a.18.18,0,0,0-.14,0,.11.11,0,0,0-.06.07.13.13,0,0,0,0,.16c.07.06.14.19.21,0s.44,0,.65-.06h0Z"/><path class="cls-3" d="M88.56,66.3s-.1,0-.14-.07h0a.46.46,0,0,0-.07-.07h0a.06.06,0,0,0-.09,0,.2.2,0,0,0,0,.08,1.82,1.82,0,0,0,.08.52.35.35,0,0,0,0,.08c.05,0,.09,0,.14,0s0-.38.07-.55Z"/><path class="cls-3" d="M92.35,67c-.07,0-.15,0-.2.06s.06.15.17.16S92.35,67.06,92.35,67Z"/><path class="cls-3" d="M93,67.22l-.09,0h0S92.9,67.28,93,67.22Z"/><path class="cls-3" d="M22.38,79s-.06,0-.1,0l-.07.12h.05S22.38,79.06,22.38,79Z"/><path class="cls-3" d="M77.16,76c.09.16.2.21.36.1l-.12-.17c-.06,0-.05-.12-.08-.17s-.2-.17-.33,0C77.05,75.77,77.11,75.86,77.16,76Z"/><path class="cls-3" d="M80.24,102.29a.29.29,0,0,0-.16,0,.26.26,0,0,0-.17.18c0,.07.1.08.16.09s.32,0,.47-.09C80.67,102.14,80.36,102.33,80.24,102.29Z"/><path class="cls-3" d="M80.84,100.85a1.28,1.28,0,0,1-.14.23s0,0,.07.06l0,0s0,0,0,0h0c.06,0,.16,0,.21-.07h0c.19,0,.28-.12.08-.27H81S80.88,100.82,80.84,100.85Z"/><path class="cls-3" d="M83.91,101.27c-.17.11-.45,0-.57.21h0s-.06,0-.08.08H83.2v0l-.16.07-.19,0h-.16l-.08,0-.1,0a.44.44,0,0,1-.16,0,.09.09,0,0,0-.07,0c0,.11,0,.2.14.21a6.12,6.12,0,0,1,.87-.2c.15,0,.25-.17.41-.09a.16.16,0,0,0,.21-.06.68.68,0,0,0,.29-.21l0-.06c0-.07-.08-.15-.19-.15s-.11,0-.15.07Z"/><path class="cls-3" d="M86.31,99.6c0,.08.06.08.11.09h0s0-.12-.09-.11Z"/><path class="cls-3" d="M71.76,93.41v.34h.06a.29.29,0,0,0,.07-.2C71.82,93.53,71.86,93.42,71.76,93.41Z"/><path class="cls-3" d="M66.25,85.13a.52.52,0,0,1-.21.07c-.05,0-.11.09-.15.14s-.1.12,0,.18.11,0,.17,0,.27-.11.29-.28Z"/><path class="cls-3" d="M66.32,83.89s0,0,0,.07h0l.2,0c0-.14,0-.2-.19-.12C66.33,83.85,66.32,83.87,66.32,83.89Z"/><path class="cls-3" d="M67.75,78.71v-.13c0-.07-.05-.15-.12,0S67.62,78.71,67.75,78.71Z"/><path class="cls-3" d="M72,90.23a.32.32,0,0,1-.14.14c0,.15.11.14.21.13a.09.09,0,0,0,.07-.06l.08-.14C72.14,90.2,72.07,90.19,72,90.23Z"/><path class="cls-3" d="M68.32,79.09s0-.1,0-.16-.18-.12-.2.06v.21C68.23,79.26,68.3,79.22,68.32,79.09Z"/><path class="cls-3" d="M68.32,78.71h.06l0-.13c-.05,0,0-.1-.07-.14h0c-.16-.07-.22,0-.29.14a1,1,0,0,0-.07.15c0,.12,0,.13.14.07S68.28,78.8,68.32,78.71Z"/><path class="cls-3" d="M72.26,90.3a.2.2,0,0,0,.21.14c0-.12,0-.24-.06-.33A.21.21,0,0,1,72.26,90.3Z"/><path class="cls-3" d="M73.68,65.4h0c.07,0,.16.11.19,0s-.05-.12-.13-.12S73.67,65.34,73.68,65.4Z"/><path class="cls-3" d="M74.05,57.4h0c-.07.06,0,.16-.07.21h0c0,.09,0,.18,0,.27V58a.44.44,0,0,0,0,.34l0,0a.11.11,0,0,0-.09,0c-.07.15-.14.29,0,.45s-.08.26-.1.41,0,.43-.09.63a2,2,0,0,0-.09.76h.12l.07-.07,0-.09a1.51,1.51,0,0,1,.07-.37A6.35,6.35,0,0,0,74,58.66c0-.11,0-.22,0-.32a.1.1,0,0,0,0-.05H74a2.43,2.43,0,0,0,.08-.47c.06-.06,0-.15.07-.21a1.34,1.34,0,0,1,0-.2c0-.06,0-.12-.09-.15h0S74.09,57.35,74.05,57.4Z"/><path class="cls-3" d="M72.18,56.8s0,0,0,0l0,0s0,0,0,.05S72.16,56.82,72.18,56.8Z"/><path class="cls-3" d="M33,67.77l.11,0,.07,0c.1,0,.1-.14.14-.22a4.94,4.94,0,0,1,.51-.62.13.13,0,0,0,.06-.07h0s-.07-.06-.12-.06h0l-.08,0a.71.71,0,0,0-.15.08c-.08,0-.17.06-.2.15s-.22.23-.3.37a1.13,1.13,0,0,1-.1.13l0,0-.06.06-.06,0-.1.07a.22.22,0,0,0,0,.08.11.11,0,0,0,.07.09h.09l.11,0Z"/><path class="cls-3" d="M34.93,67.54a.15.15,0,0,0-.13-.07.2.2,0,0,1-.16.06c-.2,0-.25.13-.33.24s0,.1.11.11a.62.62,0,0,1,.43-.14A.16.16,0,0,0,34.93,67.54Z"/><path class="cls-3" d="M21.91,96.38v-.07a2.53,2.53,0,0,1,0-.28l0,0,0,0H22A0,0,0,0,0,22,96a.5.5,0,0,1-.08-.27h-.14v.55H21.7c0,.25,0,.28.2.27Z"/><path class="cls-3" d="M21.87,99.29a1.74,1.74,0,0,1,.63-.17l.07-.06c-.05-.15.11,0,.13-.11a.12.12,0,0,0,.06-.06c0-.18-.09-.18-.21-.1a.42.42,0,0,0-.24.12.33.33,0,0,1-.4,0v0a.19.19,0,0,0-.07-.13h0c.28-.06.13-.28.16-.42,0-.3,0-.6,0-.9a1,1,0,0,0,0-.24v0c0-.12-.14-.21-.06-.34s0,0,0-.06a.17.17,0,0,1-.06-.15c-.07,0-.11,0-.1.11s.07.26,0,.38a1.84,1.84,0,0,1-.11.9.2.2,0,0,0,0,.2.78.78,0,0,1,0,.34,1.48,1.48,0,0,1,0,.21c-.07.11,0,.23,0,.34a.31.31,0,0,0-.06.13.34.34,0,0,0,0,.14.13.13,0,0,0,.09.1.12.12,0,0,0,.08-.06A.47.47,0,0,0,21.87,99.29Zm-.09-.67Z"/><path class="cls-3" d="M23.41,90h0a.17.17,0,0,0,.06-.08v-.12a.15.15,0,0,0-.22,0c-.06.08,0,.11.09.16Z"/><path class="cls-3" d="M24,91.33a.17.17,0,0,1,.15-.06V91.2l0,0a.15.15,0,0,0-.17-.06l0,0C23.91,91.2,23.89,91.28,24,91.33Z"/><path class="cls-3" d="M75.13,55.61v.13C75.2,55.7,75.2,55.66,75.13,55.61Z"/><polygon class="cls-3" points="72.97 56.15 72.97 56.15 72.97 56.15 72.97 56.15"/><path class="cls-3" d="M72.54,56a.2.2,0,0,0,0,.25c.06.06.15,0,.22,0a.25.25,0,0,0,.17-.11,1.08,1.08,0,0,1-.3-.46A2.84,2.84,0,0,1,72.54,56Z"/><path class="cls-3" d="M25.88,73.1c-.11,0-.12.08-.19.09h0s-.07.13,0,.12A.18.18,0,0,0,25.88,73.1Z"/><path class="cls-3" d="M30,69h0c.07.12.15,0,.22,0v-.06a0,0,0,0,0-.07,0h-.06S30,69,30,69Z"/><path class="cls-3" d="M27.2,72.57h0c-.06-.07-.13-.11-.18,0s.06.07.11.08h0A.46.46,0,0,0,27.2,72.57Z"/><path class="cls-3" d="M32.86,73.33s0,.1,0,.13c.31-.13.5-.41.79-.55,0-.09.23-.18,0-.27h-.07A3.89,3.89,0,0,0,32.86,73.33Z"/><path class="cls-3" d="M34.13,72.28l-.06,0a.23.23,0,0,0-.07.07h0l-.08.07h0s0,0-.07.06a.6.6,0,0,1,.08.08c.1,0,.22,0,.21-.14S34.13,72.33,34.13,72.28Z"/><polygon class="cls-3" points="33.85 72.5 33.85 72.5 33.85 72.5 33.85 72.5"/><path class="cls-3" d="M31.1,69.51l0,.07v0c.07.07.12,0,.17,0s.05-.1.11-.12h0s.11,0,.13-.08h0a.14.14,0,0,0,.08-.07c.12-.09.13-.27.29-.33a.17.17,0,0,1,.13-.08l.08-.06h0c0-.08.06-.17.11-.24s0-.17-.17-.1-.19.28-.35.34a.59.59,0,0,0-.31.17l0,.09a.4.4,0,0,1-.09.2l0,.07a.31.31,0,0,1-.05.1Z"/><path class="cls-3" d="M30.63,70c0-.11.23-.19.08-.34h0l-.11.06-.11.08h0c-.06.1-.09.19.08.21Z"/><path class="cls-3" d="M30.78,62.56l-.15,0-.07.06c0,.07-.13.07-.2.08a.28.28,0,0,0,.41.05A1.48,1.48,0,0,0,30.78,62.56Z"/><path class="cls-3" d="M93,75.69c-.1,0-.21,0-.13.12C93,75.81,93,75.78,93,75.69Z"/><path class="cls-3" d="M88.49,65.61s0,0,0,.06l.55.08c.17,0,.13-.11.08-.21h-.22C88.78,65.56,88.61,65.47,88.49,65.61Z"/><path class="cls-3" d="M85.29,105.19s0-.07,0-.11,0,0,0,0l-.07.06A.07.07,0,0,0,85.29,105.19Z"/><path class="cls-3" d="M23.62,79.82l-.17,0a.11.11,0,0,0-.15,0c0,.06,0,.1.05.15s.21,0,.28-.07S23.62,79.84,23.62,79.82Z"/><path class="cls-3" d="M26.28,77.91c-.13,0-.24.08-.15.24.07,0,.17,0,.2,0s.29.09.44,0C26.7,78,26.46,78,26.28,77.91Z"/><path class="cls-3" d="M27.93,78c.07.1.15,0,.22,0a1.27,1.27,0,0,0,.35-.27c.23-.22.31-.55.55-.77,0-.1.09-.2,0-.35l-.36.44a.3.3,0,0,1-.1.17,2.43,2.43,0,0,0-.41.44h0l-.07.06a.24.24,0,0,1-.11.13C28,77.84,27.89,77.9,27.93,78Z"/><path class="cls-3" d="M78.33,98.66c-.08,0-.06.13-.06.2C78.46,98.85,78.38,98.75,78.33,98.66Z"/><path class="cls-3" d="M78.62,102.31a1,1,0,0,0-.5.13c0,.09.13.07.21.07S78.68,102.58,78.62,102.31Z"/><path class="cls-3" d="M79.28,102.11s0,.09,0,.13c0,.24,0,.25.25.13,0,0,0,0,.07-.06l0,0s0,0,0,0h.06a.63.63,0,0,1,.22-.21H80c0-.07.07-.13,0-.14S79.5,102.1,79.28,102.11Z"/><path class="cls-3" d="M79.05,102.16l-.14,0-.07,0v.06h.24s.09,0,.08-.08S79.09,102.18,79.05,102.16Z"/><path class="cls-3" d="M78,101.66a.09.09,0,0,0,.11-.07c0-.07,0-.09-.11-.11a.08.08,0,0,0-.1.07A.11.11,0,0,0,78,101.66Z"/><path class="cls-3" d="M82,105.36c-.16,0-.26,0-.26.18a.31.31,0,0,0,.19,0l.07-.06Z"/><path class="cls-3" d="M66.47,85.89c0-.11,0-.23,0-.34s-.13-.08-.18,0a.42.42,0,0,0,.11.46h0a.08.08,0,0,0,0-.11v0s0,0,0,0A.06.06,0,0,0,66.47,85.89Zm-.08,0h0Z"/><path class="cls-3" d="M77.62,69.43s0,.07,0,.07.1,0,.1-.11,0-.08,0-.08S77.63,69.36,77.62,69.43Z"/><path class="cls-3" d="M67,92a.31.31,0,0,0,0-.1.17.17,0,0,0,0-.14.94.94,0,0,0-.23-.16s-.07,0-.09,0a.24.24,0,0,0-.07.18,1.93,1.93,0,0,0,0,.34.94.94,0,0,1,0,.55l0,.13a.14.14,0,0,0,0,.09.12.12,0,0,0,0,.07l0,0c.06,0,.11,0,.09.1a.92.92,0,0,0,0,.37c0,.13.11.13.21.08l.06-.08h0c0-.07,0-.09-.06-.14s0,0,0-.06A2.6,2.6,0,0,1,67,92Z"/><path class="cls-3" d="M69.93,96.17H70V96.1l-.06,0s-.09,0-.11,0S69.89,96.16,69.93,96.17Z"/><path class="cls-3" d="M69.78,96.46a0,0,0,0,0,0,0h0c0-.07,0-.15-.06-.19v.19h0S69.77,96.45,69.78,96.46Z"/><path class="cls-3" d="M69.76,95.4c.11,0,.21,0,.22-.13s-.15,0-.22,0Z"/><path class="cls-3" d="M66.91,87.68c.08,0,0,.25.19.14a.66.66,0,0,1,0-.14C67,87.67,67,87.56,66.91,87.68Z"/><path class="cls-3" d="M61.9,79.34c0,.08,0,.11.12.12s.08-.16.07-.26A.16.16,0,0,0,61.9,79.34Z"/><path class="cls-3" d="M47.37,72.29a.31.31,0,0,0,.29.06.26.26,0,0,0,.09,0,.11.11,0,0,0,0-.14h0c-.18-.06-.31-.2-.49-.28h0a.13.13,0,0,1-.07-.06l-.08-.07L47,71.68h0c-.13,0-.12.14,0,.23s.16.09.19.18h0l.08.06.08.07s0,0,.06.07Z"/><path class="cls-3" d="M55.24,71.27v0h.09C55.33,71.25,55.28,71.27,55.24,71.27Z"/><path class="cls-3" d="M32.34,68.43a.2.2,0,0,1,0-.07s0-.1.07-.13h0a.24.24,0,0,0-.22-.15l-.21.07a.27.27,0,0,1-.07.08h0a.14.14,0,0,0,.14.06s0,0,0,0,0,0,0,0,.07,0,.07,0S32.26,68.42,32.34,68.43Z"/><path class="cls-3" d="M90.85,75.26a.1.1,0,0,0-.15,0s0,.08,0,.12h0c.05,0,.1.07.14,0v-.14Z"/><path class="cls-3" d="M82.77,75.82h0c.06-.07.16,0,.22-.07v-.08h-.35A.23.23,0,0,0,82.77,75.82Z"/><path class="cls-3" d="M23.51,87.9c0-.06-.09-.14-.19-.12s-.05.11-.05.18a.92.92,0,0,0,0,.17l.12-.08C23.44,88,23.57,88,23.51,87.9Z"/><path class="cls-3" d="M80.13,63.26a.36.36,0,0,0,0,.1c0,.06-.06.14,0,.17s.13,0,.17-.08,0-.08,0-.12A.24.24,0,0,0,80.13,63.26Z"/><polygon class="cls-3" points="28.84 77.47 28.84 77.47 28.84 77.47 28.84 77.47"/><path class="cls-3" d="M28.83,77.5v0S28.8,77.5,28.83,77.5Z"/><path class="cls-3" d="M32.85,62.08c0-.09-.05-.13-.14-.13l-.07.07C32.69,62.1,32.77,62.09,32.85,62.08Z"/><path class="cls-3" d="M89.69,71h0s0,0,0,0h0Z"/><path class="cls-3" d="M90.29,71l0,0,0,0Z"/><path class="cls-3" d="M90.75,74.56s-.06,0-.11,0v.13C90.7,74.63,90.77,74.64,90.75,74.56Z"/><path class="cls-3" d="M24.55,78.57c-.05,0-.06-.11-.12-.08s0,.1,0,.14l.11.08h.05S24.57,78.62,24.55,78.57Z"/><path class="cls-3" d="M73.62,102.66s-.12.06-.09.11.1,0,.16,0,0-.09,0-.13Z"/><path class="cls-3" d="M77.62,103.06a.3.3,0,0,0,.29,0c0-.06.07-.14-.06-.15A.21.21,0,0,0,77.62,103.06Z"/><path class="cls-3" d="M78.75,102.53c-.14,0-.27.08-.41,0-.14.13,0,.14.07.21.18,0,.23-.15.35-.21A.09.09,0,0,0,78.75,102.53Z"/><path class="cls-3" d="M74.76,103.06s-.1,0-.14.07h-.14l-.36.21c-.14,0-.25.05-.21.2s.17.12.29.06a3,3,0,0,1,.31-.16c.14-.07.37,0,.39-.24a.13.13,0,0,0-.14-.15Z"/><path class="cls-3" d="M76.88,104s0,0,0-.08l-.28.08c0,.16.12.08.19.1A.1.1,0,0,0,76.88,104Z"/><path class="cls-3" d="M63.32,87.48s0,.11.09.1a0,0,0,0,0,0,0C63.44,87.48,63.37,87.48,63.32,87.48Z"/><path class="cls-3" d="M79.19,75.06s0,0,0,.06c.19,0,.2,0,.14-.14S79.22,75,79.19,75.06Z"/><path class="cls-3" d="M66.63,90.59a.08.08,0,0,0,.06.08s.06,0,.06-.06,0-.07-.06-.07A0,0,0,0,0,66.63,90.59Z"/><path class="cls-3" d="M60.73,82.8h-.12c-.08.08-.1.22-.22.26-.19.26-.17.32.13.34,0-.05,0-.14,0-.15C60.81,83.16,60.75,83,60.73,82.8Z"/><path class="cls-3" d="M61.8,81.9l-.06-.08c-.08,0-.18,0-.18.09a.15.15,0,0,0,.16.17C61.84,82.07,61.81,82,61.8,81.9Z"/><path class="cls-3" d="M56.94,78l-.06-.14c-.1,0-.15,0-.14.14Z"/><path class="cls-3" d="M49.37,73.19c0,.1,0,.16.1.14s.49-.19.73,0l0-.09c-.13-.06,0-.2-.07-.27a.57.57,0,0,1-.36-.14c0,.11-.09.23-.26.2S49.38,73.09,49.37,73.19Z"/><path class="cls-3" d="M88.28,74h.06c.09-.11,0-.15-.07-.2h0C88.1,73.9,88.16,74,88.28,74Z"/><path class="cls-3" d="M83.27,75.2H83.2c-.07.08,0,.19-.06.27l.07.07h.13l.07-.07C83.57,75.27,83.34,75.28,83.27,75.2Z"/><path class="cls-3" d="M84.07,73.52c.05,0,.1,0,.08-.09s-.1,0-.15,0a0,0,0,0,0,0,0Z"/><path class="cls-3" d="M25.48,91s0,0,0,0,0,0,0,0a.07.07,0,0,0,.05,0S25.52,91,25.48,91Z"/><path class="cls-3" d="M38.43,88a.44.44,0,0,0-.15-.35,3.76,3.76,0,0,1-.36-.89c-.09.13,0,.26-.13.34s.18.32.23.51a1.72,1.72,0,0,0,.26.59C38.43,88.17,38.42,88.06,38.43,88Z"/><path class="cls-3" d="M39.13,90.25c-.07-.06-.06-.14-.06-.22a.9.9,0,0,0,0-.28c0-.25-.17-.44-.21-.67a.15.15,0,0,0-.08,0h0l0-.11h-.06s-.1-.07-.15,0a.21.21,0,0,0,0,.31.64.64,0,0,1,.15.49.65.65,0,0,0,.08.26.16.16,0,0,1,.05.08l.08.2a.14.14,0,0,1,.09.13A.2.2,0,0,0,39.13,90.25Z"/><path class="cls-3" d="M37.64,89.27h-.11c-.06,0-.13,0-.14.07s0,.09.09.13.26,0,.37-.07S37.68,89.36,37.64,89.27Z"/><path class="cls-3" d="M36.41,76.73h-.12c0,.11-.06.25.14.27S36.44,76.81,36.41,76.73Z"/><path class="cls-3" d="M27.85,83.47c.09,0,.14,0,.14-.13a.37.37,0,0,0-.29-.14c0,.13.06.2.15.27Z"/><path class="cls-3" d="M70.93,101.75c-.05,0,0,.07,0,.11s.08,0,.13,0v-.07S71,101.74,70.93,101.75Z"/><path class="cls-3" d="M72.88,102.88c.22.06.22.06.24-.09C73,102.81,72.92,102.77,72.88,102.88Z"/><path class="cls-3" d="M74.7,104.94l-.07.07c-.07.1,0,.16.09.12a3,3,0,0,0,.4-.2s.1,0,.14-.07h0c-.05-.08-.13-.06-.21-.07a.22.22,0,0,1-.09.07Z"/><path class="cls-3" d="M61.93,95.45a.14.14,0,0,0,0,.23l.08-.13a.19.19,0,0,1,.06-.07h0C62.05,95.41,62,95.39,61.93,95.45Z"/><path class="cls-3" d="M66.61,92.17c0-.09-.1-.14-.2-.07s0,.1-.07.14S66.57,92.34,66.61,92.17Z"/><path class="cls-3" d="M80.2,67.74c0,.1,0,.14.14.14A.13.13,0,0,0,80.2,67.74Z"/><path class="cls-3" d="M48.26,74.71a.25.25,0,0,0,0,.08.36.36,0,0,0,.07.1l0,0,.14,0c.1,0,.26,0,.28-.15h0c-.14-.09-.38-.09-.34-.35-.07,0-.12,0-.17,0S48.26,74.6,48.26,74.71Z"/><path class="cls-3" d="M49.23,75s0,0,0,0,.06.07.11.09h0S49.31,75,49.23,75Z"/><path class="cls-3" d="M47.26,73.74h.1a.56.56,0,0,0,0-.08s-.09-.06-.12,0S47.21,73.74,47.26,73.74Z"/><path class="cls-3" d="M48.31,73.33c0,.19.17.16.28.2.17-.14,0-.18-.08-.27l-.15-.13a.14.14,0,0,0-.06.13A.15.15,0,0,0,48.31,73.33Z"/><path class="cls-3" d="M22.91,100.85c-.07,0-.16,0-.23.05.1,0,.2.07.28,0Z"/><path class="cls-3" d="M24.55,101.89c.06-.07,0-.16.07-.23v-.32h0c0-.09,0-.19-.12-.19a.91.91,0,0,1,0,.17h0a.06.06,0,0,0,0,.09h0a0,0,0,0,1,0,.07v.13s0,.11-.07.15h0c0,.08,0,.23.14.14Z"/><path class="cls-3" d="M87.71,73.9h-.06l0,0a.06.06,0,0,0,.09,0S87.74,73.91,87.71,73.9Z"/><path class="cls-3" d="M27.48,96.86a1.06,1.06,0,0,0,0-.35c0-.06-.05-.06-.09-.06-.12.16-.07.39-.22.55h0a.14.14,0,0,0,0,.21c.09.06.16,0,.21-.07a.4.4,0,0,0,.07-.24Z"/><path class="cls-3" d="M85.63,70.3a1.14,1.14,0,0,1-.57-.28h0A.2.2,0,0,0,85,70c0-.13-.26,0-.3-.16a.4.4,0,0,1-.06-.22c0-.06,0-.15-.13-.22,0,.22-.07.33-.29.37.19.23.5.19.65.4a4.44,4.44,0,0,0,1,.56c.07,0,.15,0,.2-.06L86,70.58c0-.07-.14-.08-.2-.15A.27.27,0,0,1,85.63,70.3Z"/><path class="cls-3" d="M29.55,89.19l.07-.06c0-.13.15-.2.15-.34s0-.16-.14-.08-.41.21-.28.49h0A.14.14,0,0,0,29.55,89.19Z"/><path class="cls-3" d="M29,91.27l-.15.06a.1.1,0,0,0-.14,0c0,.06,0,.1.08.12H29A.17.17,0,0,0,29,91.27Z"/><path class="cls-3" d="M38.64,88.57s0,0,0,0c-.18-.11-.2-.1-.21.12a.21.21,0,0,1,.07.13C38.6,88.73,38.55,88.61,38.64,88.57Z"/><path class="cls-3" d="M38.28,82.94c-.09,0-.12-.17-.22-.09s0,.16,0,.24v0h.13A.21.21,0,0,0,38.28,82.94Z"/><path class="cls-3" d="M37.39,78.62l0,.06,0,0,0,0S37.4,78.64,37.39,78.62Z"/><path class="cls-3" d="M72,103.68l-.14.08c-.3.1-.3.1-.43-.18,0,0,0,0-.14,0h0a.26.26,0,0,1,0,.28h0s0,0,0,.07h0s0,0,0,0,0,.2.15.14h0l0,0c.24.07.37-.12.54-.23l.12-.08a.13.13,0,0,0,.07-.06s.06-.1,0-.14S72,103.66,72,103.68Z"/><path class="cls-3" d="M71.9,104.93a.18.18,0,0,0,.29,0h.21c0-.05.22-.1,0-.15h-.28C72,104.73,71.91,104.8,71.9,104.93Z"/><path class="cls-3" d="M72.29,103.89h.25l.08-.06a.28.28,0,0,0,.08-.11s0,0-.08,0A.45.45,0,0,0,72.29,103.89Z"/><path class="cls-3" d="M72.47,103.49h-.21c0,.06-.08.14,0,.18s.13,0,.18-.08S72.46,103.52,72.47,103.49Z"/><path class="cls-3" d="M71.53,105.13c-.09-.11-.22,0-.34-.06s.07.15.18.12Z"/><path class="cls-3" d="M48.37,88.68c0,.07,0,.14-.07.18l0,0a.47.47,0,0,0,0,.26c0,.13,0,.29.15.36a.16.16,0,0,0,.09,0c0-.12-.12-.23,0-.35a.73.73,0,0,1,.07-.41.3.3,0,0,0-.07-.11C48.4,88.59,48.38,88.64,48.37,88.68Z"/><path class="cls-3" d="M57.38,93.75c0-.07.11-.14,0-.21h-.13l-.18,0-.08,0a.74.74,0,0,0-.21,0h-.59l.19.13c.14,0,.24,0,.22.2a.12.12,0,0,0,.07.14h.14v-.1l0,0,0,0a.18.18,0,0,1,.09,0c.07,0,0,.07,0,.1s-.09.17,0,.25h.19c.14,0,.34,0,.41-.1S57.37,93.9,57.38,93.75Z"/><path class="cls-3" d="M57.56,91.3l0,.08c0,.05.08.14.15.08s.06-.17,0-.26v-.07h0l-.06-.07a1.08,1.08,0,0,0-.08-.19c-.11.06-.06.17-.07.26S57.54,91.24,57.56,91.3Z"/><path class="cls-3" d="M52.55,93.15c-.14,0,0,.17,0,.25h0l.07.07h0c.08,0,.11,0,.14-.07v-.05C52.63,93.31,52.69,93.1,52.55,93.15Z"/><path class="cls-3" d="M59.59,91.26a.14.14,0,0,0,.11,0,.31.31,0,0,0,.09-.07l0,0c0-.08,0-.16-.07-.21a1.07,1.07,0,0,0-.29.27A.12.12,0,0,0,59.59,91.26Z"/><path class="cls-3" d="M61.84,96.09c0,.09.06.11.12.15h0a.46.46,0,0,1,.07-.07h0c0-.07,0-.13-.12-.13S61.84,96.06,61.84,96.09Z"/><path class="cls-3" d="M61.23,96.71c0,.19.1.05.16,0h0a.16.16,0,0,0-.07-.14h0l-.08.07S61.23,96.69,61.23,96.71Z"/><path class="cls-3" d="M62.19,95.76c0,.15.07.08.13.06A.11.11,0,0,0,62.19,95.76Z"/><path class="cls-3" d="M61.11,96.87s0,.09-.08.12h0a.27.27,0,0,1-.08.07h-.06s-.09.05-.08.1,0,0,.08,0h.28c0-.08,0-.16.08-.21v-.06c0-.12-.06-.12-.14-.07Z"/><path class="cls-3" d="M49.8,80l0,0a0,0,0,0,0-.05,0,.15.15,0,0,0-.15.14.11.11,0,0,0,0,.07s0,0,.05.06l.13,0A.27.27,0,0,0,49.8,80Z"/><path class="cls-3" d="M28.34,86.23a.08.08,0,0,0-.14,0s0,.05,0,.06.1,0,.16,0Z"/><path class="cls-3" d="M24.68,100.78c0-.09,0-.12-.12-.12v.19C24.62,100.85,24.67,100.85,24.68,100.78Z"/><path class="cls-3" d="M27,101.13s0-.09,0-.13a.1.1,0,0,0-.14,0C26.91,101.08,26.94,101.13,27,101.13Z"/><polygon class="cls-3" points="26.91 101 26.91 101 26.91 101 26.91 101"/><path class="cls-3" d="M47.58,95.76h0a3.66,3.66,0,0,0,.21.55v.06c.22.31.22.31.23.48a.33.33,0,0,0,.36.33.21.21,0,0,0,.18-.17.21.21,0,0,0-.09-.23.1.1,0,0,0-.09,0h0a.2.2,0,0,0,.06-.17l0-.09a.27.27,0,0,0-.29-.21h0v-.09s0,0,0,0S48,96,48,96s-.12-.37-.37-.37C47.55,95.63,47.53,95.68,47.58,95.76Z"/><path class="cls-3" d="M40.93,95.09c0,.31,0,.35,0,.36s.06,0,.06,0A.25.25,0,0,0,40.93,95.09Z"/><path class="cls-3" d="M26.73,98.68c-.05.1-.1.2,0,.31l0,0c.07,0,.13,0,.18,0h0s.05,0,.07-.06.29-.06.07-.2-.16.08-.21,0S26.75,98.62,26.73,98.68Z"/><path class="cls-3" d="M41.44,105.68a.1.1,0,0,0,.13-.05C41.51,105.62,41.46,105.63,41.44,105.68Z"/><path class="cls-3" d="M45.36,91.9c.07,0,.24,0,.14-.14s-.29,0-.42-.09a.06.06,0,0,1-.06,0,.1.1,0,0,0-.09,0l-.13,0v0c-.07,0-.15,0-.23,0a.47.47,0,0,0,.23,0,.17.17,0,0,1,.15.07l.07.07h.06a.33.33,0,0,0,.2,0Z"/><path class="cls-3" d="M46.79,93.69l0,0a.35.35,0,0,1-.12-.19l0-.08a.31.31,0,0,0-.26-.24h0a.14.14,0,0,0-.14.06l.22.41c.06.06,0,.15.07.21h0l.08.06C46.75,93.91,46.81,93.83,46.79,93.69Z"/><path class="cls-3" d="M43.09,91.88h0l.07-.07v0l-.06-.08v-.13c.08,0,.16,0,.21-.07a.16.16,0,0,1-.15-.12l-.08,0,0,0c-.08,0-.15-.12-.24,0h0l.06.25.06,0A.41.41,0,0,0,43.09,91.88Z"/><path class="cls-3" d="M41.89,83.25h0c0-.07,0-.14-.07-.19a.2.2,0,0,1-.15-.06c-.11.09-.09.18,0,.27v.06h.06a.13.13,0,0,1,0,.06.49.49,0,0,1,.15.27s0,0,.06.08h0c0,.1,0,.21.14.28a.34.34,0,0,0,.15.14.59.59,0,0,1,.08.32c.05.07,0,.16.06.22h0c0,.05,0,.11.06.16s0,.1.06.16a.06.06,0,0,0,.06,0,.21.21,0,0,1,.29-.1h0v.09a1.65,1.65,0,0,0,.18.32l.07.11,0,.07a.44.44,0,0,0,.18.24c.15,0,.22.11.29.21s.16.09.19,0-.13-.29-.2-.43l-.06-.08c-.13-.14-.17-.33-.29-.48h0l-.06-.07c-.07,0-.13-.1-.22-.09s.07-.12,0-.15c-.21-.21-.34-.49-.61-.64h0a.54.54,0,0,0-.08-.35A.92.92,0,0,0,41.89,83.25Z"/><path class="cls-3" d="M48.26,90.55c.08.09.13,0,.18,0v-.14a.11.11,0,0,1,0-.14V90.1c-.11-.07,0-.22-.15-.28C48.08,90.05,48.23,90.3,48.26,90.55Z"/><path class="cls-3" d="M54.3,95.82l.07-.07c0-.23-.17-.11-.28-.06v.06C54.14,95.84,54.22,95.83,54.3,95.82Z"/><path class="cls-3" d="M58.44,91.93c.07,0,.07-.06.09-.11s-.09-.14-.15-.2-.18,0-.18.11S58.34,91.9,58.44,91.93Z"/><path class="cls-3" d="M58,93.48c0,.07.08.17.17,0l0-.1s0-.11-.06-.15h0C57.94,93.32,58,93.41,58,93.48Z"/><path class="cls-3" d="M58.81,92.1h0s-.05,0-.08-.06-.12,0-.12.09a0,0,0,0,0,0,.06s.08,0,.12-.06Z"/><path class="cls-3" d="M57.51,92.46s0,.05.07,0a.09.09,0,0,0,.08-.1s0-.06-.07,0A.11.11,0,0,0,57.51,92.46Z"/><path class="cls-3" d="M57.74,93.06h0c0,.06.11.1.17,0a.07.07,0,0,0,0-.11C57.81,92.93,57.8,93.05,57.74,93.06Z"/><path class="cls-3" d="M56.82,94.52a.13.13,0,0,1,0,.06h0s0,.1.07.13.07.06.12.06.05-.07,0-.12-.05-.13-.07-.2,0,0,0,0,0,0,0,0S56.83,94.49,56.82,94.52Z"/><path class="cls-3" d="M50.6,105.4a.15.15,0,0,0,0-.13.29.29,0,0,0,0-.09,1.41,1.41,0,0,0-.2-.55c-.06,0-.11-.09-.18,0a.17.17,0,0,0,0,.07.14.14,0,0,0,0,.15,8.57,8.57,0,0,0,.3,1C50.64,105.7,50.56,105.54,50.6,105.4Z"/><path class="cls-3" d="M36.27,102.7c0-.1-.07-.13-.15-.15s-.1,0-.1.09.09.11.18.12A.06.06,0,0,0,36.27,102.7Z"/><path class="cls-3" d="M46.09,91.47h-.15v.06l.07.07.21.14c.05,0,0-.09,0-.14A.32.32,0,0,0,46.09,91.47Z"/><polygon class="cls-3" points="46.22 91.75 46.22 91.75 46.22 91.75 46.22 91.75"/><path class="cls-3" d="M45.15,89.62h0q.23.07.15-.15h0C45.2,89.48,45.15,89.52,45.15,89.62Z"/><path class="cls-3" d="M44.56,88.45c0,.14.16.18.23.27s.13.22.28.29c0-.11-.07-.2-.06-.3a.09.09,0,0,0,0-.13h0c-.17,0-.17-.25-.29-.34h0l-.07-.06h0l-.06-.08S44.54,88,44.5,88s0,.28,0,.41Z"/><path class="cls-3" d="M43.79,88.72h.1l0,0c0-.13-.15-.16-.13-.28l-.08-.07C43.55,88.53,43.76,88.61,43.79,88.72Z"/><path class="cls-3" d="M46.15,91.9l-.21-.11a.13.13,0,0,0-.15,0c0,.06.07.07.09.12S46.11,92.13,46.15,91.9Z"/><path class="cls-3" d="M47.88,94.51a.6.6,0,0,0-.08-.08.09.09,0,1,0,.08.08Z"/><path class="cls-3" d="M48.37,92.58a1.7,1.7,0,0,0,0,.55l.14-.06a1.48,1.48,0,0,1,0-.21C48.39,92.8,48.48,92.64,48.37,92.58Z"/><path class="cls-3" d="M48.51,92.24h-.07c-.11.11,0,.13.07.14S48.57,92.28,48.51,92.24Z"/><path class="cls-3" d="M43.91,86.68s0,0,.05-.07,0-.08-.09-.1-.21-.25-.36-.34c0,.16.07.28.14.41a.23.23,0,0,1,.07.07h0A.19.19,0,0,0,43.91,86.68Z"/><path class="cls-3" d="M41.21,82.52c.07.11.14.23.22.34a.14.14,0,0,0,.08-.15c-.09-.11-.06-.28-.21-.35S41.17,82.43,41.21,82.52Z"/><path class="cls-3" d="M70.54,104.36l-.07,0a.15.15,0,0,0-.14,0l-.43.21-.07.06c-.11.08-.25,0-.36.07h-.21a.12.12,0,0,0-.15.07h0c-.11,0-.17.14-.29.13l-.08.07h-.07a.46.46,0,0,1-.07.07.14.14,0,0,1-.15.06l-.35.07c-.09,0-.21,0-.29.08h0c-.13.18-.42.08-.55.27a.54.54,0,0,0,.56-.07.41.41,0,0,1,.27-.07h0c.07-.06.15,0,.22,0l.08,0c.11,0,.2-.11.33-.07s.18-.06.23-.16.31-.08.44-.19a.2.2,0,0,0,.15-.06.52.52,0,0,0,.34-.09.1.1,0,0,1,.14,0h.07a.55.55,0,0,1,.38,0,1.1,1.1,0,0,0,.54-.19H71c-.1,0-.1-.13-.13-.21h0a.43.43,0,0,1,0-.05c0-.09-.12-.09-.19,0A.24.24,0,0,1,70.54,104.36Z"/><path class="cls-3" d="M57.49,105.75s0,.07.07.08h.1v-.06l-.06,0S57.51,105.69,57.49,105.75Z"/><path class="cls-3" d="M42.57,84.1c.08.09.12.21.27.25,0-.17-.08-.27-.12-.39h-.06C42.59,84,42.58,84,42.57,84.1Z"/><path class="cls-3" d="M51,95.26h0l0,0s0,0,.05,0h.07c.11,0,.25.06.34-.06a.86.86,0,0,0-.14-.13C51.05,95,51.05,95,51,95.26Z"/><path class="cls-3" d="M53,95.22s.07,0,.12,0v-.1c0-.06,0-.14-.1-.12S52.94,95.16,53,95.22Z"/><path class="cls-3" d="M58.1,93.89l.14.07s0,0,0-.06a.36.36,0,0,0-.09-.21C58,93.71,58.12,93.82,58.1,93.89Z"/><path class="cls-3" d="M60.31,97.13a.73.73,0,0,0,.46-.07.35.35,0,0,1-.31-.14h-.07C60.37,97,60.28,97,60.31,97.13Z"/><polygon class="cls-3" points="59.77 94.77 59.79 94.75 59.77 94.75 59.77 94.77"/><path class="cls-3" d="M68.26,101.4c-.06,0-.09.07-.07.13s.09,0,.13,0S68.37,101.4,68.26,101.4Z"/><path class="cls-3" d="M48.57,99.56h-.1c-.06,0-.13,0-.14.07s.06,0,.1.07l.09,0C48.6,99.7,48.58,99.63,48.57,99.56Z"/><path class="cls-3" d="M49.45,105.72c-.13,0-.14.08-.15.18h-.07a.13.13,0,0,0,0,.06c.13.12,0,.25,0,.37s.12-.08.19-.09a.43.43,0,0,0,.08-.27l0-.08C49.51,105.82,49.54,105.73,49.45,105.72Z"/><path class="cls-3" d="M48.86,96.66c-.08-.07,0-.17-.07-.25s-.1-.1-.16,0,0,.08,0,.12a2,2,0,0,1,.14.48l.15-.13C48.87,96.79,48.87,96.72,48.86,96.66Z"/><path class="cls-3" d="M49.32,100.71h0a.46.46,0,0,1,.07.26,2,2,0,0,0,.13.58h0c.12.45.15.91.23,1.37.12.09,0,.26.14.35h0c0,.27.18.48.15.74l.06,0a.13.13,0,0,0,0,.06.11.11,0,0,0,.06-.13l0-.06a.22.22,0,0,0,0-.08c0-.06,0-.11,0-.17a.19.19,0,0,0,0-.08,1.9,1.9,0,0,1-.11-.39.2.2,0,0,0,0-.08l0,0v0a.45.45,0,0,0,0-.2,2.45,2.45,0,0,0-.08-.29,3.1,3.1,0,0,0-.13-.62.82.82,0,0,1-.09-.34.28.28,0,0,0,0-.09.31.31,0,0,0,0-.12.09.09,0,0,0-.07,0h0a.17.17,0,0,0,0-.14,1.63,1.63,0,0,1,0-.44c0-.11,0-.23-.15-.25l0,0c-.07,0,0-.14-.12-.15A.42.42,0,0,0,49.32,100.71Z"/><path class="cls-3" d="M48.49,95.62s.07,0,.09.07a.16.16,0,0,0,.15-.07.3.3,0,0,0,.1-.19s0-.06,0-.08a1.86,1.86,0,0,0-.11-.19l0,0c-.15.11,0,.31-.14.42h0A.09.09,0,0,0,48.49,95.62Z"/><path class="cls-3" d="M48.22,95.82v.07s0,.1.06.1.09,0,.09-.11v-.13H48.3A.1.1,0,0,0,48.22,95.82Z"/><path class="cls-3" d="M48.52,93.54s0,0,0-.06c-.13.15,0,.32,0,.48A1.21,1.21,0,0,0,48.52,93.54Z"/><path class="cls-3" d="M48.94,92.3c-.07,0,0,.09,0,.14s.16,0,.16-.06S49,92.31,48.94,92.3Z"/><path class="cls-3" d="M51.88,98.31h0s-.17,0-.12.11.17.06.27,0h0A.12.12,0,0,0,51.88,98.31Z"/><path class="cls-3" d="M53.11,97.83s0-.11,0-.15a.13.13,0,0,0,0-.06c-.12,0-.18.09-.28.13h0c0,.08,0,.13.05.17a.08.08,0,0,0,.09,0h0S53.09,97.86,53.11,97.83Z"/><path class="cls-3" d="M58.18,94.16l.09.17.1-.17C58.31,94.07,58.24,94.07,58.18,94.16Z"/><path class="cls-3" d="M58.73,95.62c-.1-.1,0-.23-.06-.35a.13.13,0,0,1,0-.06h0a.49.49,0,0,1,0-.12.86.86,0,0,1-.1-.16h0l-.09.08a.18.18,0,0,0,0,.2.13.13,0,0,1,0,.06s0,.11.07.15v.13a4.88,4.88,0,0,1,.21.9v0a.28.28,0,0,0,0,.2l0,0c.08,0,.16,0,.12-.12a.26.26,0,0,1,.09-.36.21.21,0,0,0,.06-.19C58.78,96,58.78,96,58.73,95.62Z"/><path class="cls-3" d="M49.3,94.86V94.8a.15.15,0,0,0,0-.16c-.05-.06-.1-.16-.15,0s0,.11-.07.15a.2.2,0,0,1,0,.07s0,0,0,.07V95C49.26,95.09,49.24,94.92,49.3,94.86Z"/><path class="cls-3" d="M59,99.42a.2.2,0,0,0-.25,0c0,.1.06.17.09.25S59,99.51,59,99.42Z"/><path class="cls-3" d="M57.52,100.74s0,.09.07.09.07,0,.07-.09a.09.09,0,0,0-.08-.1C57.52,100.64,57.52,100.69,57.52,100.74Z"/><path class="cls-3" d="M53.12,98.22s-.09,0-.13,0-.06.06-.06.08,0,0,.07,0,.16,0,.16.14-.08.13,0,.21a.86.86,0,0,0,.31-.38.94.94,0,0,1,0-.16c0-.09,0-.11-.1-.11S53.29,98.28,53.12,98.22Z"/><path class="cls-3" d="M52.94,99.68s0,0,0-.06a.13.13,0,0,1,.07-.06h0a1.59,1.59,0,0,1,.13-.13.2.2,0,0,0-.21,0c-.2.12-.22.37-.39.51l.12.06.2-.15C52.92,99.79,52.9,99.72,52.94,99.68Z"/><path class="cls-3" d="M52.09,104.52c-.1-.11-.19,0-.29,0C52,104.7,52,104.7,52.09,104.52Z"/><path class="cls-3" d="M54.59,104.07v0a.1.1,0,0,0-.14,0h0c0,.11-.16.23,0,.34l0-.05a.56.56,0,0,1,0-.08.17.17,0,0,1,.07-.14Z"/><path class="cls-3" d="M49.11,95.36h0s0,0,0,0,0,0,0,0Z"/></g></g><g id="moreScratches"><path class="cls-4" d="M54,83.43a1.32,1.32,0,0,0-.63-.37,1.29,1.29,0,0,0-.43-.07,1.25,1.25,0,0,0-.78.32,1.52,1.52,0,0,0-.42.65,1.4,1.4,0,0,0-.11.53,1.61,1.61,0,0,0,.07.51,1.56,1.56,0,0,0,.4.72,1.25,1.25,0,0,0,.61.32,1.38,1.38,0,0,0,.41,0,1.38,1.38,0,0,0,.87-.43,1.24,1.24,0,0,0,.36-.78c0-.21-.07-.32-.14-.32s-.11.13-.18.29a2.2,2.2,0,0,1-.28.55.89.89,0,0,1-1,.42,1,1,0,0,1-.58-.34,1.51,1.51,0,0,1-.18-.31,2.35,2.35,0,0,1-.11-.4,1.42,1.42,0,0,1,0-.65,1.24,1.24,0,0,1,.48-.64.47.47,0,0,1,.12-.07l.13-.06.2,0a1,1,0,0,1,.51.08l.11.07.18.14a1.47,1.47,0,0,1,.1.13,2.5,2.5,0,0,1,.28.59c.06.15.12.25.2.25s.11-.14.1-.37A1.24,1.24,0,0,0,54,83.43Z"/><path class="cls-4" d="M52,20.88l-.48.1c-.14,0-.17,0-.3,0H49.78a2.91,2.91,0,0,0-.31,0c-.19,0-.33,0-.52,0s-.32,0-.47,0h-.29l-.66-.11a1,1,0,0,0-.51,0,.29.29,0,0,0-.19.27c0,.1.09.19.22.24a1,1,0,0,0,.48,0l.47-.08c.18,0,.3,0,.48,0a5,5,0,0,1,.54,0,2.64,2.64,0,0,0,.58,0h.48c.19,0,.38,0,.62,0h1.14l.13,0a1.08,1.08,0,0,0,.52,0,.27.27,0,0,0,.18-.27c0-.1-.09-.18-.22-.22A1.25,1.25,0,0,0,52,20.88Z"/><circle class="cls-4" cx="56.51" cy="21.14" r="1.03"/><path class="cls-4" d="M65.1,87.14H40.72a6.38,6.38,0,0,1-6.38-6.38V25.24a6.38,6.38,0,0,1,6.38-6.38H65.1a6.38,6.38,0,0,1,6.38,6.38V80.76A6.38,6.38,0,0,1,65.1,87.14ZM40.72,19.36a5.89,5.89,0,0,0-5.88,5.88V80.76a5.89,5.89,0,0,0,5.88,5.88H65.1A5.89,5.89,0,0,0,71,80.76V25.24a5.89,5.89,0,0,0-5.88-5.88Z"/><path class="cls-4" d="M64.93,82.48H41.29a4.25,4.25,0,0,1-4.24-4.25V27a4.25,4.25,0,0,1,3.12-4.1,4.15,4.15,0,0,1,1.12-.15H64.93A4.25,4.25,0,0,1,69.17,27V78.23A4.25,4.25,0,0,1,64.93,82.48ZM41.29,23c-.33,0-1-.2-1,.12,0,.14.45.9-.17,1-.31.08-.54-.8-.63-.75A4,4,0,0,0,37.3,27V78.23a4,4,0,0,0,4,4H64.93a4,4,0,0,0,4-4V27a4,4,0,0,0-4-4Z"/><path class="cls-4" d="M71,34.69a1.1,1.1,0,0,1,1.1,1.1v5.36A1.1,1.1,0,0,1,71,42.24h0Z"/><path class="cls-4" d="M34.5,32a.59.59,0,0,1-.59-.58V29.06a.59.59,0,0,1,.59-.59h0Z"/><path class="cls-4" d="M34.5,39.1a.59.59,0,0,1-.59-.58V34.27a.59.59,0,0,1,.59-.59h0Z"/><path class="cls-4" d="M34.5,45.4h0a.59.59,0,0,1-.59-.59V40.56A.59.59,0,0,1,34.5,40h0Z"/><path class="cls-5" d="M42.44,44.93l.27-.32a2.83,2.83,0,0,1,.25-.24,1,1,0,0,0,.19-.22,4.29,4.29,0,0,1,.28-.35l0,0c.07-.08.17-.1.25-.19l.11-.12.1-.07a.52.52,0,0,0,.15-.18.73.73,0,0,1,.15-.16,2.76,2.76,0,0,0,.27-.23c.13-.14.22-.31.35-.45a1.53,1.53,0,0,1,.56-.31,2.41,2.41,0,0,0,1.26-1.11c.1-.21.27-.35.29-.58.51-.35.33-.31.66-.63a2,2,0,0,0,.29-.15l.06,0h.14a.79.79,0,0,0,.22,0,.33.33,0,0,0,.15-.11,2.2,2.2,0,0,1,.2-.23h0l.41-.44c.22-.22.49-.37.6-.69,0-.09,0-.2.05-.28.13-.3.4-.33.67-.38a.25.25,0,0,1,.17,0,.93.93,0,0,0,.48-.61c.53-.47.35-.52.48-.81s.36-.33.47-.56a5.62,5.62,0,0,0,.15-.55,1.43,1.43,0,0,0,.14-.2l0,0c.09-.12.23-.16.32-.29a3.31,3.31,0,0,0,.15-.33,1.12,1.12,0,0,1,.13-.24l.12-.1a1,1,0,0,0,.26-.28,1.65,1.65,0,0,0,.45-.57h0c.19-.22.44-.32.7-.6s.21-.41.41-.69a8.41,8.41,0,0,0,.76-1.16c.13-.18.2-.28.33-.49s.32-.55.32-.55-.21.24-.44.47a3.8,3.8,0,0,0-.29.34h0c-.27.27-.09.1-.47.52-.53.61-.86.69-1.28,1.14l-.09.11c-.18.22-.08.2-.24.36a.9.9,0,0,0-.34.26l-.3.22a.61.61,0,0,0-.37.38,1.48,1.48,0,0,1,0,.21c0,.09-.12.13-.17.2a1.4,1.4,0,0,0-.09.17l-.07.08a.5.5,0,0,0-.18.17.84.84,0,0,0-.58.34.81.81,0,0,0-.68.36,1.61,1.61,0,0,0-.23.52l-.12.15a1.58,1.58,0,0,0-.46.28,1.42,1.42,0,0,0-.72.37c-.34.13-.61.32-.85,1a5.41,5.41,0,0,0-.82,1.25,1.2,1.2,0,0,0-.47.48,2.64,2.64,0,0,0-.52.6,5.16,5.16,0,0,0-.4.42,1.28,1.28,0,0,0-.53.51,2.05,2.05,0,0,0-1,1.25c-.28.37-.1.24-.3.57h0a1.39,1.39,0,0,0-.43.47c-.28.31-.09.31-.31.57l-.1.12a1.49,1.49,0,0,0-.21.22l-.24.34a2.4,2.4,0,0,0-.21.38l-.13.2c-.12.17-.19.27-.32.49s-.31.55-.31.55S42.21,45.16,42.44,44.93Z"/><path class="cls-5" d="M48.39,80.74c.12-.24.24-.5.31-.67s.19-.34.28-.52a3,3,0,0,0,.21-.45c.09-.23.19-.47.3-.7l0-.1c.08-.16.19-.27.27-.44l.13-.26a1.63,1.63,0,0,1,.11-.17,1.6,1.6,0,0,0,.15-.37,3.52,3.52,0,0,1,.16-.35,5.54,5.54,0,0,0,.3-.53c.15-.31.24-.61.38-.92a4.31,4.31,0,0,1,.62-.87A6.86,6.86,0,0,0,53,71.84a4.7,4.7,0,0,0,.28-1,8.61,8.61,0,0,0,.7-1.41c.26-.38,0,0,.32-.44l.07-.08.16-.12a1.1,1.1,0,0,0,.25-.19,1.24,1.24,0,0,0,.17-.27,3.9,3.9,0,0,1,.2-.47h0c.12-.26.22-.49.43-.93a5.55,5.55,0,0,0,.62-1.44c0-.14,0-.29,0-.42A1.91,1.91,0,0,1,57,64a.52.52,0,0,1,.2-.19,2.71,2.71,0,0,0,.51-1.22,3.12,3.12,0,0,0,.5-1.48c.11-.4.41-.72.53-1.14s.08-.58.14-.87a3.29,3.29,0,0,0,.17-.39l0-.06c.11-.24.27-.38.37-.64s.12-.38.18-.56a3,3,0,0,1,.15-.45,1.53,1.53,0,0,1,.14-.21,2.46,2.46,0,0,0,.31-.58,4.42,4.42,0,0,0,.55-1.11h0c.23-.44.53-.73.86-1.31s.26-.72.54-1.24.44-.85,1-2.13c.17-.32.27-.51.46-.89l.47-1s-.29.46-.59.91c-.15.23-.31.5-.4.66l0,0c-.37.55-.13.2-.63,1-.7,1.2-1.12,1.51-1.64,2.44l-.12.21c-.22.45-.11.35-.31.7a2.33,2.33,0,0,0-.41.59l-.36.51a1.75,1.75,0,0,0-.46.8c0,.12,0,.2,0,.33a2.14,2.14,0,0,1-.2.4c0,.11-.06.2-.1.3a.89.89,0,0,1-.08.17,2.17,2.17,0,0,0-.22.38,2.12,2.12,0,0,0-.68.89,2.11,2.11,0,0,0-.79,1,3.75,3.75,0,0,0-.24.91,2.88,2.88,0,0,0-.13.31,3.71,3.71,0,0,0-.54.75,3.42,3.42,0,0,0-.82,1.08,3.88,3.88,0,0,0-.9,2.06,15.85,15.85,0,0,0-.83,2.39,3.62,3.62,0,0,0-.49,1,8.74,8.74,0,0,0-.54,1.25c-.14.35-.3.58-.41.91a3.38,3.38,0,0,0-.56,1.13,5.77,5.77,0,0,0-1,2.5,6,6,0,0,0-.29,1h0a4.1,4.1,0,0,0-.46,1c-.3.65-.08.51-.31,1.05l-.11.24a4.93,4.93,0,0,0-.23.46l-.26.67a5.58,5.58,0,0,0-.22.7l-.14.38c-.14.35-.21.54-.36,1-.21.63-.35,1-.35,1Z"/><path class="cls-5" d="M46.12,46.61c.06,0,.12-.12.16-.16a.83.83,0,0,1,.15-.11.26.26,0,0,0,.1-.11l.15-.18,0,0s.12,0,.16-.08l.07-.06.06,0a.25.25,0,0,0,.08-.1.32.32,0,0,1,.08-.09c.05,0,.11,0,.16-.1s.1-.18.17-.25a.67.67,0,0,1,.37-.12.72.72,0,0,0,.7-.57c0-.13.11-.2.07-.36.3-.17.17-.17.34-.35s0,0,.18-.06h0l.11,0,.17,0a.11.11,0,0,0,.09-.05.38.38,0,0,1,.09-.13h0l.19-.25c.1-.13.28-.19.26-.41,0-.06,0-.14,0-.19,0-.2.22-.18.42-.16a.13.13,0,0,1,.12,0c.18-.06.21-.19.2-.36.28-.25.12-.32.15-.51s.2-.16.22-.31a2.43,2.43,0,0,0,0-.38.24.24,0,0,0,.06-.11v0c0-.07.14-.07.18-.15a1.38,1.38,0,0,0,0-.2.38.38,0,0,1,0-.16l.07,0a.27.27,0,0,0,.14-.14.44.44,0,0,0,.22-.31h0c.11-.11.28-.12.43-.26s.07-.25.19-.39a4.16,4.16,0,0,0,.4-.61l.19-.25a3,3,0,0,1,.17-.29l-.27.19a1,1,0,0,0-.18.16h0a1.54,1.54,0,0,0-.29.24c-.32.29-.58.24-.81.48l0,0c-.1.12,0,.13-.12.21a.26.26,0,0,0-.21.11l-.19.08c-.11,0-.21.06-.21.2s.05.11,0,.15-.06.07-.08.11a.45.45,0,0,0,0,.11l0,0a.15.15,0,0,0-.1.09.33.33,0,0,0-.37.13c-.22-.05-.37,0-.44.13s0,.2,0,.34l-.06.09a.5.5,0,0,0-.29.12.57.57,0,0,0-.46.14c-.22,0-.38.12-.38.59a1.75,1.75,0,0,0-.28.77.38.38,0,0,0-.23.27c-.16.13-.15.2-.24.35s-.16.13-.2.24-.2.09-.27.27a.66.66,0,0,0-.43.72c-.13.21,0,.15-.09.36h0a.44.44,0,0,0-.23.25c-.15.16,0,.19-.11.34l0,.06a.41.41,0,0,0-.12.11l-.12.18a2,2,0,0,0-.09.22l-.06.11a3,3,0,0,0-.16.26c-.09.2-.15.31-.15.31A1.18,1.18,0,0,1,46.12,46.61Z"/><path class="cls-5" d="M49.38,59l.19-.1.18,0a.27.27,0,0,0,.12-.06,1.22,1.22,0,0,1,.19-.12h0s.12,0,.17,0l.08,0h.07a.16.16,0,0,0,.09-.07l.1,0a1.21,1.21,0,0,0,.18-.05c.09,0,.14-.12.23-.17a.65.65,0,0,1,.37,0,.67.67,0,0,0,.8-.31c.06-.11.16-.15.17-.31.31-.07.2-.11.4-.22s0,0,.19,0h0l.1,0a.55.55,0,0,0,.15.08.09.09,0,0,0,.09,0l.12-.09h0a2.83,2.83,0,0,0,.25-.17c.13-.09.3-.09.35-.3a1.27,1.27,0,0,1,0-.2c.07-.18.24-.1.42,0a.16.16,0,0,1,.12,0c.18,0,.24-.11.27-.28.32-.15.2-.27.27-.43s.22-.1.28-.24,0-.25.06-.36a.24.24,0,0,0,.08-.09l0,0s.14,0,.19-.08a1.11,1.11,0,0,0,.09-.19s0-.1.07-.13L56,55a.23.23,0,0,0,.17-.1.38.38,0,0,0,.28-.23h0c.12-.07.28,0,.46-.13s.12-.21.26-.31a3,3,0,0,0,.51-.48,1.77,1.77,0,0,0,.23-.19l.22-.23a1.13,1.13,0,0,1-.3.12.62.62,0,0,0-.2.1h0c-.19.06-.07,0-.32.15s-.59.08-.86.23l-.06,0c-.12.09,0,.11-.16.16a.24.24,0,0,0-.22,0l-.19,0c-.11,0-.22,0-.24.12s0,.11,0,.16-.07,0-.1.08,0,.06-.05.09l0,0a.16.16,0,0,0-.11.05.31.31,0,0,0-.38,0c-.19-.1-.33-.13-.43,0s-.09.18-.12.31a.23.23,0,0,0-.07.07.43.43,0,0,0-.3,0,.5.5,0,0,0-.46,0c-.22,0-.39,0-.5.43a1.82,1.82,0,0,0-.46.64.3.3,0,0,0-.27.18c-.18.07-.19.13-.32.25s-.17.07-.24.16a.33.33,0,0,0-.32.17.59.59,0,0,0-.59.52c-.18.16-.06.14-.18.3h0a.38.38,0,0,0-.28.15c-.18.1,0,.19-.19.28l-.07,0a.42.42,0,0,0-.14.06l-.16.13a.75.75,0,0,0-.14.17l-.09.08a1.92,1.92,0,0,0-.23.19,2.71,2.71,0,0,1-.22.23A1.36,1.36,0,0,1,49.38,59Z"/><path class="cls-5" d="M62.72,60.35a1,1,0,0,0,.06-.21,1.19,1.19,0,0,1,.08-.16.74.74,0,0,0,0-.14,1.66,1.66,0,0,1,0-.22v0c0-.05.1-.08.11-.14s0-.06,0-.08,0,0,0,0a.17.17,0,0,0,0-.12.45.45,0,0,1,0-.11.53.53,0,0,0,.08-.17,2.58,2.58,0,0,0,0-.29.55.55,0,0,1,.25-.27.68.68,0,0,0,.31-.81c0-.12,0-.22-.13-.34.17-.28.06-.22.11-.45s0,0,.12-.14l0,0,.1,0a.59.59,0,0,0,.16-.06.1.1,0,0,0,0-.09.76.76,0,0,1,0-.15h0c0-.08,0-.16,0-.3s.13-.29,0-.47-.11-.09-.13-.13.09-.26.26-.34a.15.15,0,0,1,.11-.06c.12-.14.07-.26,0-.4.1-.34-.07-.32-.14-.48s.07-.24,0-.38a3.11,3.11,0,0,0-.23-.28.57.57,0,0,0,0-.13v0c0-.08.09-.13.07-.21a1.42,1.42,0,0,0-.08-.18.44.44,0,0,1,0-.15l0-.07a.25.25,0,0,0,0-.19.44.44,0,0,0,0-.37h0c0-.14.16-.24.21-.43s-.08-.23-.06-.41a3.55,3.55,0,0,0,0-.7,1.45,1.45,0,0,0,0-.3c0-.2,0-.32,0-.32a1.59,1.59,0,0,1-.12.3,1.23,1.23,0,0,0-.06.22h0a1.25,1.25,0,0,0-.1.35c-.1.4-.34.5-.4.8a.2.2,0,0,0,0,.07c0,.15,0,.12,0,.23a.25.25,0,0,0-.11.2l-.11.16c-.08.08-.14.16-.06.27s.09.06.11.11,0,.08,0,.13l0,.09a.13.13,0,0,1,0,.06.21.21,0,0,0,0,.12.32.32,0,0,0-.24.29c-.2.08-.32.17-.29.33s.07.18.15.3a.38.38,0,0,0,0,.1.42.42,0,0,0-.18.24.52.52,0,0,0-.32.35c-.17.14-.25.29,0,.66a1.85,1.85,0,0,0,.18.77.33.33,0,0,0,0,.34c-.07.18,0,.22,0,.4s-.06.18,0,.29a.37.37,0,0,0-.09.36.6.6,0,0,0,0,.79c0,.24.06.14.11.34h0a.34.34,0,0,0-.07.31c-.05.21.1.17.08.34l0,.07a.88.88,0,0,0,0,.15v.21a.78.78,0,0,0,0,.22V60a2.66,2.66,0,0,0,0,.3c0,.2,0,.33,0,.33Z"/></g></svg>