<svg xmlns="http://www.w3.org/2000/svg" xmlns:xlink="http://www.w3.org/1999/xlink" viewBox="0 0 106 106"><defs><style>.cls-1{fill:none;}.cls-2{clip-path:url(#clip-path);}.cls-3{fill:#62bfb3;fill-rule:evenodd;}.cls-4{clip-path:url(#clip-path-2);}.cls-5{fill:#f18b77;}.cls-5,.cls-6,.cls-7,.cls-8{stroke:#1d1d1b;stroke-miterlimit:10;stroke-width:0.16px;}.cls-6{fill:#bbe2f2;}.cls-7{fill:#c5dda8;}.cls-8{fill:#eae7b9;}.cls-9{fill:#1d1d1b;}</style><clipPath id="clip-path"><rect class="cls-1" x="0.52" y="113.81" width="106.08" height="27.76" rx="4.5"/></clipPath><clipPath id="clip-path-2"><path id="SVGID" class="cls-1" d="M65.66,27.41V78.67a4,4,0,0,1-4,4H38a4,4,0,0,1-4-4V27.41a4,4,0,0,1,4-4H61.66A4,4,0,0,1,65.66,27.41Z"/></clipPath></defs><title>webIcons</title><g id="Buttons-2" data-name="Buttons"><g class="cls-2"><path class="cls-3" d="M.42,73.35c0-.06.06-.11,0-.16a.16.16,0,0,0-.19,0,1,1,0,0,1-.52.1,1.53,1.53,0,0,1,.84-.18l0,.08s0,0,0-.09a.36.36,0,0,1,.23-.14,5.12,5.12,0,0,1,1.7-.2.59.59,0,0,0,.32,0s.06,0,.06-.07a.18.18,0,0,0-.09-.13.63.63,0,0,0-.36,0c-.08,0-.06,0,0-.08l.06,0,.14,0,.07,0h0l-.07,0h.06a.13.13,0,0,0,0-.06h.21c.28,0,.59,0,.79-.28h.07c.09,0,.23,0,.21-.15s-.13-.08-.21,0-.49.09-.72.21-.25,0-.35.07h0v.13H2.5a.29.29,0,0,0-.24.07h0c-.13,0-.28,0-.37.15s0,0,0,.06a.74.74,0,0,0-.21,0,.07.07,0,0,0-.06,0c-.1-.07-.23,0-.33-.16s-.28-.08-.43,0-.12.12,0,.2-.06.15-.12.21l-.2.08a.1.1,0,0,0-.05,0H.35l-.07.08h0a3.86,3.86,0,0,0-1,.2v.21c.16.23.41.22.65.21H.07A.27.27,0,0,0,.42,73.35Z"/><path class="cls-3" d="M43.78,34.83c.08.06.16.1.22,0s.09-.21.13-.31h-.36C43.88,34.6,43.78,34.71,43.78,34.83Z"/><path class="cls-3" d="M86.87,41c.09-.09.19-.16.09-.28a.1.1,0,0,0-.15,0C86.73,40.83,86.75,40.93,86.87,41Z"/><path class="cls-3" d="M97.57,62.54a.39.39,0,0,1-.08.1c.06.12.12.22.28.13l0,0a.44.44,0,0,1,0-.1c0-.05,0-.11,0-.14A.13.13,0,0,0,97.57,62.54Z"/><path class="cls-3" d="M50.2,43.6h0c-.08-.13,0-.33-.21-.42l-.07-.07c-.08,0-.23,0-.17.12a1,1,0,0,0,.38.45C50.19,43.72,50.19,43.64,50.2,43.6Z"/><path class="cls-3" d="M104.56,86.71h0a.23.23,0,0,1-.07.07c-.12.1-.26.18-.3.34l-.06,0a.09.09,0,0,0-.06.06h0a.13.13,0,0,0-.06.07,1.49,1.49,0,0,1-.51.42,1.64,1.64,0,0,0-.44.54l-.36.34s0,.05-.07.08h0a.09.09,0,0,0,0,.15h0l.09,0,0,0,.08,0,.07,0c.15-.12.27-.25.41-.38a4.28,4.28,0,0,1,.55-.49,2.06,2.06,0,0,1,.25-.26l.07-.12a.78.78,0,0,0,0-.21c.1,0,.15,0,.22-.09l.11-.09c.14-.13.2-.32.36-.44h0a.29.29,0,0,1,.13-.23.76.76,0,0,0,.25-.31c0-.07,0-.09-.09-.08l-.2.15C104.92,86.32,104.66,86.45,104.56,86.71Z"/><path class="cls-3" d="M49.56,36.15s-.12-.08-.11,0a2,2,0,0,0,.11.32c.1,0,.12.2.26.19s0,0,0,0C49.74,36.49,49.78,36.26,49.56,36.15Z"/><path class="cls-3" d="M106.07,96.72h.06c0-.08-.12-.07-.2-.06A.15.15,0,0,0,106.07,96.72Z"/><path class="cls-3" d="M2.65,77.74h.06c.08,0,.24-.06.1-.21s0-.05,0-.07a.17.17,0,0,0,0-.07h0a.16.16,0,0,0-.09,0,.34.34,0,0,0-.2,0h0c-.06.06,0,.13,0,.19v0a.64.64,0,0,1-.37-.09c-.11-.07-.29.08-.43,0l0,0H1.58l-.17.09c0,.06.13,0,.16.11s.23.09.36.07h.14c.15-.11.32,0,.49-.06S2.62,77.72,2.65,77.74Z"/><path class="cls-3" d="M105,70.36c0,.11.16.12.26.14a.53.53,0,0,1,.22.2.31.31,0,0,0,.31.18l0,0v-.34c-.13,0-.26,0-.34-.11s-.23-.13-.36-.18S104.88,70.23,105,70.36Z"/><polygon class="cls-3" points="105.78 70.85 105.78 70.85 105.78 70.85 105.78 70.85"/><path class="cls-3" d="M105.93,71.05a.23.23,0,0,0,.07.07s.09.07.18,0c-.14-.11-.16-.32-.4-.3C105.74,71,105.87,71,105.93,71.05Z"/><path class="cls-3" d="M105.69,75.93a.19.19,0,0,0,0,.08.8.8,0,0,1,0,.31.19.19,0,0,0,0,.08c-.06.09.25.3-.09.3a.13.13,0,0,1,0-.06.08.08,0,0,0-.07-.07h0V76.5a.37.37,0,0,1-.09-.2c-.09-.07-.07-.19-.14-.28s-.14.06-.15.15a.39.39,0,0,0,0,.21.41.41,0,0,1,0,.22l0,.08c-.16.13-.19.24,0,.31.08-.07.15-.16.27-.14h0c0,.13.06.25.23.27l0,.05a.46.46,0,0,0,.08.32,1.35,1.35,0,0,1,.21.59h0l0-.06a.2.2,0,0,0-.09-.09.08.08,0,0,0-.08,0,.1.1,0,0,0-.05.1s0,0,0,.08l0,.07a.56.56,0,0,0,0,.12s0,.07.06.11a1.09,1.09,0,0,0,.08.15c.06.07.09.2.22.14a.63.63,0,0,0,.12.11c-.1,0-.17,0-.23.09a.15.15,0,0,1,0,.07c.09,0,.16.1.28.08s0-.14,0-.22h0a.41.41,0,0,1,.22.07v-.41h-.07a.2.2,0,0,0-.08-.2h0c0-.14-.09-.28-.13-.42s0-.22-.14-.27a.14.14,0,0,1,0-.06.08.08,0,0,1,0-.09v0a.26.26,0,0,1-.07-.22v-.13c0-.1-.12-.22,0-.29s0-.23,0-.35-.08-.21-.07-.33l-.06-.21C105.82,75.74,105.75,75.81,105.69,75.93Z"/><path class="cls-3" d="M.19,76.37a.06.06,0,0,0-.07,0,.07.07,0,0,0-.07.06s0,0,.08,0A.06.06,0,0,0,.19,76.37Z"/><path class="cls-3" d="M82.56,43.15a.51.51,0,0,1-.48,0l-.09,0-.18,0h0l0,0s-.09.09,0,.16h0c.17.08.35.13.51.21l.07.07c.15,0,.33-.06.43.13.1,0,.21,0,.3.06s.2,0,.27-.09,0-.17-.07-.24h-.06c-.13-.09-.3-.1-.42-.22A.17.17,0,0,0,82.56,43.15Z"/><path class="cls-3" d="M82.82,43.05c0,.14.1.15.2.17a.1.1,0,0,0,.09,0s.15,0,.07-.14-.05,0-.07-.06h0C83,43,82.89,42.94,82.82,43.05Z"/><path class="cls-3" d="M7.23,56.93a.59.59,0,0,0-.08-.43c-.07,0-.14-.06-.15.06a1.62,1.62,0,0,0,.08.49A.14.14,0,0,0,7.23,56.93Z"/><path class="cls-3" d="M7.16,54.22c-.15-.07,0-.24-.15-.38v.52c0,.11.07.09.14.07A1.48,1.48,0,0,0,7.16,54.22Z"/><path class="cls-3" d="M12.32,48.12a.76.76,0,0,0,0-.21.81.81,0,0,0-.15-.37.18.18,0,0,0-.09,0c-.06,0-.07.06-.11.1h0l.21.83C12.36,48.4,12.3,48.24,12.32,48.12Z"/><path class="cls-3" d="M12.53,49.58a.42.42,0,0,0-.08-.47l-.15-.06a1.62,1.62,0,0,0,.08.69s.06.07.07.12S12.5,49.68,12.53,49.58Z"/><path class="cls-3" d="M13.08,55.67h0c-.24,0-.25,0-.15.21l.08.06h0C13.2,55.89,13.12,55.78,13.08,55.67Z"/><path class="cls-3" d="M11,35.23c0,.19,0,.38,0,.56.1-.07.06-.18.06-.27s0-.2.08-.27a.18.18,0,0,0,0-.21C11,35.05,11,35.13,11,35.23Z"/><path class="cls-3" d="M20.67,37.39c0,.09,0,.18,0,.26l.07.07a.2.2,0,0,0,.14-.13h0l-.08-.06h0a.1.1,0,0,1,0-.14c.08,0,.08-.1,0-.14S20.67,37.3,20.67,37.39Z"/><path class="cls-3" d="M19.17,36.41v-.06h0a.1.1,0,0,0-.05,0s0,.09,0,.11S19.16,36.45,19.17,36.41Z"/><path class="cls-3" d="M15.31,38.27c0,.07,0,.13.1.12a.12.12,0,0,0,.11-.14c0-.06,0-.14-.12-.13S15.31,38.21,15.31,38.27Z"/><path class="cls-3" d="M103.14,67.47v.06a.64.64,0,0,1,.21.35.13.13,0,0,0,.14-.13h0a.11.11,0,0,1,0-.15.35.35,0,0,0-.07-.2s-.11,0-.14-.07,0,0-.08,0S103.18,67.43,103.14,67.47Z"/><path class="cls-3" d="M103.64,68.36a.13.13,0,0,0,.14-.07.43.43,0,0,0,0-.05.61.61,0,0,1-.13-.15h0C103.51,68.18,103.6,68.27,103.64,68.36Z"/><path class="cls-3" d="M98.7,65v-.06c-.18-.18-.2-.18-.29,0v0l0,0,.07,0h.1A.46.46,0,0,0,98.7,65Z"/><path class="cls-3" d="M97.34,63.81c0,.06,0,.08.07.08l.23.24s.08.09.15.06,0-.11.06-.18a4.72,4.72,0,0,0-.5-.41C97.25,63.67,97.36,63.74,97.34,63.81Z"/><path class="cls-3" d="M102.13,64.43a.17.17,0,0,1,0,.11h0l-.08,0c-.15,0-.11-.19-.26-.18-.1.17.08.3,0,.45v0a.26.26,0,0,0,0,.11l0,.07a.3.3,0,0,0,.12.13c.3,0,.05-.27.2-.33s.08.08.12.12l0,0s0,0,.07.06a.17.17,0,0,0,.18,0,.11.11,0,0,0,0-.08s0,0,0-.06l0-.07a.17.17,0,0,0-.05-.15.09.09,0,0,1,0,0l0-.07a.28.28,0,0,0-.1-.09c.06,0,.11-.1.07-.19h0s0,0-.06-.07h0C102.26,64.21,102.15,64.25,102.13,64.43Z"/><path class="cls-3" d="M4.51,73.27v.13a.17.17,0,0,0,.21,0h0C4.71,73.26,4.62,73.26,4.51,73.27Z"/><path class="cls-3" d="M12.37,77l0,0a.15.15,0,0,0,.18,0c0-.07,0-.1-.08-.13h0c-.07,0-.17,0-.22,0S12.36,76.94,12.37,77Z"/><path class="cls-3" d="M11.23,76.39s-.05,0-.05,0,0,.06,0,.06,0,0,0,0S11.27,76.4,11.23,76.39Z"/><path class="cls-3" d="M9.93,71.67c.05,0,.13,0,.08-.14-.26-.09-.35-.06-.36.15l.28,0Z"/><path class="cls-3" d="M3.8,77.53a1.67,1.67,0,0,0,.63-.06.72.72,0,0,1,.52,0,.49.49,0,0,0,.21,0,2.47,2.47,0,0,1,.81.07.24.24,0,0,0,.26-.06h.21v-.06H7c.12,0,.08-.07.06-.14a1.22,1.22,0,0,1-.38,0,.86.86,0,0,0-.57,0H5.94l-.15,0H5.65c0-.08,0-.17-.14-.06l-.2.06c-.17,0-.28,0-.3-.2-.08,0-.14-.25-.22,0,.08.13.1.23-.11.24a.86.86,0,0,0-.17,0c-.24-.08-.48,0-.72,0A.14.14,0,0,0,3.8,77.53Z"/><path class="cls-3" d="M54.78,43.53l-.05-.08-.07-.06c-.14,0-.15,0-.08.13h0c.06.09,0,.19,0,.29s-.09.36.06.51.15.1.24,0a.09.09,0,0,1,0-.05c-.06-.12,0-.25-.05-.36a.08.08,0,0,1,0-.07c-.09-.1,0-.24-.08-.34Z"/><path class="cls-3" d="M50.63,38.77c-.11,0-.2-.11-.34-.08a.4.4,0,0,0,.06.35,1.5,1.5,0,0,1,0,.47c0,.07,0,.15.08.17s.15-.06.17-.14A1.67,1.67,0,0,0,50.63,38.77Z"/><path class="cls-3" d="M79.67,38.28c0,.06-.09.12,0,.18a.09.09,0,0,0,.15,0c0-.05.11-.11.06-.18s-.12,0-.18,0Z"/><path class="cls-3" d="M80.47,41.66h.06c.16,0,.34.06.43-.13h0l-.07,0a.09.09,0,0,1-.07,0h0A.33.33,0,0,0,80.47,41.66Z"/><path class="cls-3" d="M82.4,43c.07,0,.16.05.21,0s0-.07-.08-.1S82.3,42.79,82.4,43Z"/><path class="cls-3" d="M6.17,105.82l0-.07a1.19,1.19,0,0,0-.15-.09l-.07,0h0c-.06,0-.06.08-.06.14l.06.07.08.06a.15.15,0,0,0,.21,0A.12.12,0,0,0,6.17,105.82Z"/><path class="cls-3" d="M3.57,104.45h0a.17.17,0,0,0-.21,0h0v.13h0l.08.06C3.59,104.65,3.66,104.6,3.57,104.45Z"/><path class="cls-3" d="M.5,90.44c.09,0,.14,0,.13-.13S.43,90.29.5,90.44Z"/><path class="cls-3" d="M100.5,98c.09,0,.2,0,.2-.13h-.2Z"/><path class="cls-3" d="M100.48,97.26l-.06,0c-.18.11-.18.25-.12.43.17,0,.17-.23.32-.24a.13.13,0,0,0,0-.06c.1-.08.13-.17,0-.25S100.5,97.17,100.48,97.26Z"/><path class="cls-3" d="M103,71.91a.11.11,0,0,0,0,.08l.1.08c.05,0,.08.12.17.1h.15a.58.58,0,0,1-.08-.33l0,0c-.11-.11-.2-.08-.29,0A.32.32,0,0,0,103,71.91Z"/><path class="cls-3" d="M104.71,72.08c.07,0,.14.09.22,0s.22-.06.24.13.11,0,.17,0l.08-.07a.17.17,0,0,1,.14-.06,2.35,2.35,0,0,1,0-.26l-.13,0c-.21-.13-.38,0-.57.07S104.58,71.94,104.71,72.08Z"/><path class="cls-3" d="M103.93,71.67h0a.1.1,0,0,0,.13,0s0-.12.08-.16h0s0-.09,0-.14h-.21A.2.2,0,0,0,103.93,71.67Z"/><path class="cls-3" d="M54.85,36.28a1.48,1.48,0,0,0,0-.21V36c0-.11,0-.23,0-.34A.63.63,0,0,0,54.85,36.28Z"/><path class="cls-3" d="M.36,72.57a.1.1,0,0,0-.06.12C.45,72.72.37,72.63.36,72.57Z"/><path class="cls-3" d="M105.86,78.71c.13,0,.09-.07.06-.13S105.81,78.63,105.86,78.71Z"/><path class="cls-3" d="M95.53,52.49c.13.1.17-.06.25-.11a.1.1,0,0,0,0,0c.1-.16,0-.17-.13-.18a.19.19,0,0,1-.14.07C95.51,52.31,95.41,52.41,95.53,52.49Z"/><path class="cls-3" d="M103.13,68.23h-.07c-.08,0-.07.14-.07.22s0,.22,0,.33.09.18.11.28a.18.18,0,0,0,.09,0c.14,0,.23-.09.15-.24h0a.15.15,0,0,1,0-.21l.07-.07c0-.08,0-.16-.07-.21S103.19,68.29,103.13,68.23Z"/><path class="cls-3" d="M102.06,67.7c-.07-.06-.19-.14-.22,0l.22.28c.13,0,.28.07.29-.15h0A1,1,0,0,1,102.06,67.7Z"/><path class="cls-3" d="M102.06,68.37s0,0,0,.06-.06.22.13.21h0a1.77,1.77,0,0,0,0-.23C102.2,68.3,102.12,68.35,102.06,68.37Z"/><path class="cls-3" d="M100.78,66.77c.17.09.13,0,.13-.12S100.77,66.68,100.78,66.77Z"/><path class="cls-3" d="M98.84,65.33c0,.18.18,0,.22.13s.06-.08.06-.13a.21.21,0,0,0-.28,0Z"/><path class="cls-3" d="M95.77,62.21l.12.1,0,0h0a.1.1,0,0,0,0,0c-.05.16.06.25.19.32l.14.07.06.06s0,.09.08.14a1.2,1.2,0,0,0,.22.23l.16.16.08,0a.2.2,0,0,0,.08,0c.15,0,.16,0,.11-.15a1.39,1.39,0,0,0-.15-.19.47.47,0,0,1-.14-.28.28.28,0,0,1-.22-.14.75.75,0,0,0-.28-.28L96,62.23a.47.47,0,0,0-.2-.22C95.76,62.06,95.77,62.14,95.77,62.21Z"/><path class="cls-3" d="M104.5,69.94h0l.07.07.06.07c.05,0,.07.11.14.07l.08-.07c0-.09-.14-.16-.15-.27l-.07-.07A.17.17,0,0,0,104.5,69.94Z"/><path class="cls-3" d="M104.31,69.74a.3.3,0,0,0-.17-.38C104.14,69.5,104.13,69.64,104.31,69.74Z"/><path class="cls-3" d="M1.16,77.58s0,0-.08,0-.05,0-.08.06h.1S1.16,77.59,1.16,77.58Z"/><path class="cls-3" d="M5.93,72.58a.91.91,0,0,0-.79.19,1.91,1.91,0,0,0,.79-.13S6,72.6,5.93,72.58Z"/><path class="cls-3" d="M7.92,77.2l0-.07a.14.14,0,0,0-.15.06v.14c.08,0,.14,0,.21-.07S7.93,77.22,7.92,77.2Z"/><path class="cls-3" d="M10.33,77.06c.17.07.2-.09.31-.17a.6.6,0,0,0-.34,0h0C10.32,76.92,10.2,77,10.33,77.06Z"/><path class="cls-3" d="M11.53,76.92a.12.12,0,0,0-.12.09.09.09,0,0,0,.09.08.13.13,0,0,0,.12-.1S11.58,76.92,11.53,76.92Z"/><path class="cls-3" d="M10.7,71.24s-.07-.06-.12,0a.89.89,0,0,0-.35.14l.09.08.31,0S10.73,71.3,10.7,71.24Z"/><path class="cls-3" d="M12.2,71.32l.32,0,.14-.15c0-.18-.17,0-.22-.13h-.06C12.39,71.18,12.32,71.25,12.2,71.32Z"/><path class="cls-3" d="M4.65,87.13s0-.08,0-.09-.27-.06-.38.09h0a.41.41,0,0,0,.36,0Z"/><path class="cls-3" d="M7.94,81.82c0,.19-.27.27-.29.48l-.06.07a.13.13,0,0,0,0,.06c.11.1.13-.06.21-.06s.18-.13.24-.21L8.11,82a.08.08,0,0,0,0-.08c0-.08.13-.17,0-.24S8,81.8,7.94,81.82Z"/><path class="cls-3" d="M8.87,80.44h0a.11.11,0,0,1-.15,0H8.65c0,.14.06.29-.06.42a.46.46,0,0,0-.07.07c-.06.08,0,.13.07.14h0l.06,0,0,0a.12.12,0,0,0,.05,0l0,0,.05,0,.05-.06s.1-.09.07-.17v-.2l0,0A.06.06,0,0,0,8.87,80.44Z"/><polygon class="cls-3" points="8.94 80.44 8.94 80.44 8.94 80.44 8.94 80.44"/><path class="cls-3" d="M78.68,42.22l-.12.06c-.07.09-.07.16,0,.21s.39,0,.62,0c-.17,0-.3-.06-.26-.23h0a.14.14,0,0,0-.13,0l-.09,0Z"/><path class="cls-3" d="M77.76,40.58c0,.07,0,.1.1.11s.16,0,.16-.1,0-.1-.15-.1A.11.11,0,0,0,77.76,40.58Z"/><path class="cls-3" d="M79.74,41.63v0l-.14-.08h-.06c0,.11,0,.22.14.21,0,0,0-.05.06-.08Z"/><path class="cls-3" d="M99.78,84.28l.06,0c.06,0,.13,0,.12-.09a.12.12,0,0,0-.14-.08C99.75,84.16,99.78,84.23,99.78,84.28Z"/><path class="cls-3" d="M96.4,88.85l-.13.07a.56.56,0,0,0-.36.07c0,.19,0,.19.21.14l.15-.08.43-.13s.1,0,.14-.07h0C96.69,88.72,96.55,88.81,96.4,88.85Z"/><path class="cls-3" d="M101.71,89.55c.06.17.17.1.28.06v-.2l-.09-.08,0,0C101.85,89.44,101.75,89.47,101.71,89.55Z"/><path class="cls-3" d="M100.05,91a.4.4,0,0,1-.27.18c-.09.18-.34.12-.43.28a1.2,1.2,0,0,0-.44.48l-.78.62c-.06.08,0,.13,0,.17s.26-.1.35-.2a1.71,1.71,0,0,1,.6-.4,1.32,1.32,0,0,0,.25-.28c.08-.09.2-.13.28-.23a.43.43,0,0,1,.09-.1.9.9,0,0,0,.38-.34,1.21,1.21,0,0,0,.37-.41c0-.07,0-.1-.08-.08A1.34,1.34,0,0,0,100.05,91Z"/><path class="cls-3" d="M99.51,95.42c0,.06,0,.14-.1.16a.15.15,0,0,0-.11.12.19.19,0,0,0,0,.08,1.42,1.42,0,0,1,0,.16.2.2,0,0,0,0,.08.3.3,0,0,0,0,.08c.08.12.09.29.27.34a.19.19,0,0,0,.07-.14c0-.18-.15-.36,0-.55a.38.38,0,0,1-.06-.28s0,0,0-.06h0C99.63,95.31,99.56,95.29,99.51,95.42Z"/><path class="cls-3" d="M99.84,94.16V94C99.77,94.08,99.76,94.12,99.84,94.16Z"/><path class="cls-3" d="M100.06,98h0a.15.15,0,0,0-.23,0C99.9,98.05,100,98,100.06,98Z"/><path class="cls-3" d="M103.34,69.47h.08s0-.14,0-.15.11.05.15.09,0,0,0,.06.12-.11.2-.14v-.07l0-.06c-.14-.09-.29-.18-.44,0A.34.34,0,0,0,103.34,69.47Z"/><path class="cls-3" d="M104.35,70.78h.07l.08-.06s.07-.09,0-.14-.15,0-.2.05S104.22,70.76,104.35,70.78Z"/><path class="cls-3" d="M104,70.11s.05,0,.06,0,0-.16,0-.24A.15.15,0,0,0,104,70.11Z"/><path class="cls-3" d="M104.2,73.13a.79.79,0,0,0,.36.48c.07,0,.15.21.22,0a3.85,3.85,0,0,0-.43-.83c-.12-.08-.23,0-.35,0C103.94,73,104.12,73,104.2,73.13Z"/><path class="cls-3" d="M68.58,38.47l-.12.12v0c-.08.09-.16,0-.25,0a.17.17,0,0,0-.24.11.46.46,0,0,1,.07.07.23.23,0,0,0,.2,0,.17.17,0,0,1,.22,0,.2.2,0,0,0,.27,0h0c.05.16.2.11.31.12s.21,0,.29.07-.1.09-.11.16a.16.16,0,0,0,0,.07c.07,0,.15,0,.21,0h0c.22.1.17-.16.29-.19v0l.08-.07h0c.15-.08.28.13.44,0l0,0a.22.22,0,0,0,.21.05h.59c-.14-.18-.35-.07-.47-.19h0c-.08-.1-.2,0-.3-.07s-.18-.1-.23-.2-.07,0-.1,0l0,.07c0,.07-.09,0-.15,0l-.09,0a.88.88,0,0,1-.28-.06,1.27,1.27,0,0,0-.54-.11.11.11,0,0,0,0,0c-.09-.06-.1-.18-.21-.22A.14.14,0,0,0,68.58,38.47Z"/><path class="cls-3" d="M10.22,70.23h0c-.06-.08-.28-.13-.06-.27h0s-.05,0-.07-.08a.13.13,0,0,0,0-.06.49.49,0,0,0-.26-.1.16.16,0,0,0-.09,0c-.09,0-.14.05-.14.14s.3.07.29.27.06.12.13.15S10.17,70.3,10.22,70.23Z"/><path class="cls-3" d="M104.77,75.34c.09,0,.08-.13.08-.21s-.14.05-.15.14Z"/><path class="cls-3" d="M104.85,74.79a.15.15,0,0,0,.07-.15s-.09,0-.12,0S104.79,74.74,104.85,74.79Z"/><path class="cls-3" d="M105,75.18c.05.1.12.19.18.29h0a.05.05,0,0,0,0-.08v-.13c-.06-.06,0-.16-.07-.21h-.07C105,75.07,104.91,75.08,105,75.18Z"/><path class="cls-3" d="M105.65,77.73c.1,0,.13,0,.13-.12l-.07-.11s0-.07-.07-.07-.06.06-.07.1S105.63,77.66,105.65,77.73Z"/><path class="cls-3" d="M95.77,53.94h.07c.2.05.14-.13.21-.21v0C95.78,53.68,95.78,53.68,95.77,53.94Z"/><path class="cls-3" d="M17.81,53.8h0c-.13,0-.12.06-.07.14h0c0,.05,0,.11.06.15l.23.47c.06,0,.06.09.07.14l.14.07a.57.57,0,0,0,0,.13c.07,0,.06-.09,0-.13v-.2a6,6,0,0,1-.28-.7S17.85,53.85,17.81,53.8Z"/><path class="cls-3" d="M32.56,51.93c0,.06,0,.08.1.07a.06.06,0,0,0,.07-.07s0-.07-.09-.09S32.55,51.88,32.56,51.93Z"/><path class="cls-3" d="M46.33,40.85l-.07-.14c-.16-.1-.15.07-.21.12s-.12.17,0,.18S46.33,41,46.33,40.85Z"/><path class="cls-3" d="M100.63,68.92a.17.17,0,0,0,.07-.14h0a.24.24,0,0,1-.06-.08l-.08-.13c-.11-.18-.33-.11-.49-.2s-.07.08-.08.13.31.1.43.21h0a.11.11,0,0,0,0,.09h0l0,0s.11,0,.14.08Z"/><path class="cls-3" d="M100.38,69.09a.06.06,0,0,0,.07-.06.09.09,0,0,0-.07-.1c-.06,0-.1,0-.09.07S100.33,69.08,100.38,69.09Z"/><path class="cls-3" d="M99.7,68.23a.38.38,0,0,0,.1,0,.06.06,0,0,0,0-.09s0-.06-.08,0,0,.06,0,.09S99.7,68.21,99.7,68.23Z"/><path class="cls-3" d="M93.09,104.9a.09.09,0,0,0,.09.08.05.05,0,0,0,.07,0c0-.07,0-.11-.1-.09S93.11,104.88,93.09,104.9Z"/><path class="cls-3" d="M92,105.61H92c0-.06.09-.11.07-.19S92,105.5,92,105.61Z"/><path class="cls-3" d="M7.3,68.5l-.08-.06a.28.28,0,0,0-.14-.1.06.06,0,0,0-.07,0v.14s0,0,0,.06l.13.08C7.24,68.64,7.38,68.67,7.3,68.5Z"/><path class="cls-3" d="M20.65,72.9a.11.11,0,0,0,0-.2c-.06,0-.16,0-.21-.06h0a.38.38,0,0,0,0,.48.23.23,0,0,0,.07-.07C20.53,73,20.58,72.94,20.65,72.9Z"/><path class="cls-3" d="M15.37,70.85h0s.1,0,.15-.07h.21a.73.73,0,0,0,.64-.33c.12-.19,0-.15-.13-.15-.33.11-.72-.07-1,.21a1.51,1.51,0,0,1-.35.14,1.33,1.33,0,0,0-.21.09l0,0a.34.34,0,0,0,.39,0A.38.38,0,0,1,15.37,70.85Z"/><path class="cls-3" d="M49.35,49.54c0,.17.15.22.33.25a.93.93,0,0,0-.17-.33.1.1,0,0,0-.12,0A.11.11,0,0,0,49.35,49.54Z"/><path class="cls-3" d="M57.31,41.69a.11.11,0,0,0-.17,0c-.11.12,0,.14.08.21h0C57.29,41.82,57.38,41.79,57.31,41.69Z"/><path class="cls-3" d="M57,41.18c-.11-.08,0-.24-.14-.4v.41c0,.05,0,.12.1.1S57,41.23,57,41.18Z"/><path class="cls-3" d="M56.93,40.15v-.08s-.11,0-.12,0a.15.15,0,0,0,0,.22h0S56.89,40.18,56.93,40.15Z"/><path class="cls-3" d="M49.65,56.48c.06.08.12.11.21,0s.08-.18.15-.17.18-.13.26-.19c-.07-.11-.18,0-.27-.06h0l-.08.06a1.88,1.88,0,0,0-.24.14A.14.14,0,0,0,49.65,56.48Z"/><path class="cls-3" d="M49.34,50.91c-.05-.1-.14,0-.2,0l.07.13C49.3,51,49.38,51,49.34,50.91Z"/><path class="cls-3" d="M45.43,46.53c-.15,0-.14.08-.16.17a2.73,2.73,0,0,0-.56.15.16.16,0,0,1-.14.06c-.15.1-.3,0-.44,0s-.06.13-.08.2l.09.09.42-.16h.07c.16.08.32,0,.49,0,0,0,0,0,0-.06a3,3,0,0,1,.68-.13c.17-.05.34-.2.29-.28s-.22,0-.34,0S45.54,46.55,45.43,46.53Z"/><path class="cls-3" d="M45.56,46.21l-.14,0C45.48,46.3,45.52,46.28,45.56,46.21Z"/><path class="cls-3" d="M42.2,47.32l-.07.08c-.13,0-.31.13-.4-.09l-.1.08a.18.18,0,0,0,0,.14.1.1,0,0,0,0,.13h.28a.23.23,0,0,1,.21-.13h.22a.36.36,0,0,0,0-.09c0-.07,0-.13,0-.17S42.24,47.28,42.2,47.32Z"/><path class="cls-3" d="M43,46.77h0a0,0,0,0,0,0,.07c.09.07.18,0,.28,0C43.22,46.61,43.09,46.73,43,46.77Z"/><path class="cls-3" d="M44.31,46.7s0,0,0,0l0,0s0,.05,0,.05S44.32,46.74,44.31,46.7Z"/><path class="cls-3" d="M47.92,42.62c.09,0,.07-.11.06-.18C47.77,42.45,47.89,42.55,47.92,42.62Z"/><path class="cls-3" d="M44.55,44.14V44h-.19c-.05,0-.11,0-.11.12a.07.07,0,0,0,0,.07h0A.19.19,0,0,0,44.55,44.14Z"/><path class="cls-3" d="M42.56,46a.38.38,0,0,0,.07.27l0,0a.37.37,0,0,0,.17-.05l.07,0h0c.07-.08.19-.15.07-.27a1.51,1.51,0,0,0-.22.11C42.66,46.08,42.62,46,42.56,46Z"/><path class="cls-3" d="M46.45,41.33c-.07-.11-.16,0-.25,0s0,.23.14.27S46.52,41.45,46.45,41.33Z"/><path class="cls-3" d="M61,41.17c.08.06,0,.17.13.21l0-.06c-.06-.08,0-.17-.06-.26A.14.14,0,0,0,61,41.17Z"/><path class="cls-3" d="M76.1,41.32s-.1.06-.1.13a.21.21,0,0,0,.1.14c.13.06.2-.13.23-.1.18.12.14-.06.2-.1h0c-.09-.07-.2,0-.29-.06H76.1Z"/><path class="cls-3" d="M76.17,40.15s.11,0,.11-.07,0-.12-.1-.12a1.51,1.51,0,0,0-.28,0A.31.31,0,0,0,76.17,40.15Z"/><path class="cls-3" d="M6.09,103.38l-.09-.1c-.1.07,0,.18-.07.27h0a.1.1,0,0,1,0,.07.25.25,0,0,0,0,.07H6C6.28,103.57,6.28,103.55,6.09,103.38Z"/><path class="cls-3" d="M97.06,87.9v0c0,.08.1.15.21.07h0C97.27,87.88,97.18,87.87,97.06,87.9Z"/><path class="cls-3" d="M98.5,91.83c.15-.2.36-.36.41-.62a1.44,1.44,0,0,0-.49.34C98.4,91.65,98.32,91.78,98.5,91.83Z"/><path class="cls-3" d="M95.19,89.4l.08-.06V89.2h-.15C95.09,89.28,95,89.39,95.19,89.4Z"/><path class="cls-3" d="M97.69,87.55a.33.33,0,0,0-.27.07c0,.19.12.1.21.07Z"/><path class="cls-3" d="M94.83,84.92a.13.13,0,0,0-.07-.14c-.09,0-.16.15-.28.14s0,.09.07.14S94.76,85,94.83,84.92Z"/><path class="cls-3" d="M98.35,101.68h0a.08.08,0,0,0,.13,0l.07-.06c0-.14,0-.22-.2-.13Z"/><path class="cls-3" d="M74,40.2c0,.08.08.09.11.14a.13.13,0,0,0,.2,0c.1-.11,0-.14-.07-.2h-.06C74.1,40.16,74,40.12,74,40.2Z"/><path class="cls-3" d="M69.29,38.7l.08.07c.11,0,.22,0,.22-.14a.47.47,0,0,0-.28-.07A.1.1,0,0,0,69.29,38.7Z"/><path class="cls-3" d="M74.46,40.43c.08.26.13,0,.2,0v-.06c0-.08,0-.14-.11-.06A.64.64,0,0,0,74.46,40.43Z"/><path class="cls-3" d="M103.06,71.19c0,.15.12.14.22.14h0a.11.11,0,0,0,0-.14l-.09-.06C103.12,71.09,103.09,71.13,103.06,71.19Z"/><path class="cls-3" d="M102.8,71.22c-.18,0-.37,0-.31.25h0c.09.07.2,0,.29.06h0a.23.23,0,0,0,.07.07h0l.13,0s.15.06.14-.06-.06-.09-.12-.09-.15-.05-.15-.14Z"/><path class="cls-3" d="M102.93,72.15a.18.18,0,0,0-.15-.06s0,.06-.08,0,0,0,0-.08a.34.34,0,0,0,0-.1s0,0-.07-.06-.12-.14-.18-.2-.09-.09-.14,0a.1.1,0,0,0,0,.15.64.64,0,0,1,.2.49h0s.06,0,.1,0,.07.07.1.11,0-.2.21-.17S103,72.19,102.93,72.15Z"/><path class="cls-3" d="M71.66,40.93s0-.07-.07-.07-.11.06-.14.12a.09.09,0,0,0,0,.05,0,0,0,0,0,0,0s0,0,0,0S71.66,41,71.66,40.93Z"/><path class="cls-3" d="M10.23,68.67a.07.07,0,0,0-.07.06c0,.09.06.1.13.11s0,0,0,0S10.3,68.68,10.23,68.67Z"/><path class="cls-3" d="M105.07,76.5l-.15-.13-.07-.07c-.08,0-.07.13-.07.21l.07.13h.3s0,0,0-.06Z"/><path class="cls-3" d="M81.88,56.85c.05.09.1.17.23.13a.14.14,0,0,0,.13-.06,1.85,1.85,0,0,0-.14-.14H82C81.89,56.76,81.87,56.8,81.88,56.85Z"/><path class="cls-3" d="M86.47,57.94c0,.11.11.14.21.07s-.1-.13-.2-.13S86.44,57.92,86.47,57.94Z"/><path class="cls-3" d="M76.38,47.59l.08-.06c0-.08.12-.19-.07-.2S76.26,47.5,76.38,47.59Z"/><path class="cls-3" d="M16.66,64.78l-.14-.21c-.18,0-.18.14-.28.28C16.41,64.81,16.56,65,16.66,64.78Z"/><path class="cls-3" d="M16.71,65.25c0-.06-.05-.1-.12-.11s-.1.09-.1.15,0,.16.11.14A.15.15,0,0,0,16.71,65.25Z"/><path class="cls-3" d="M18.31,66.51a.21.21,0,0,0-.18-.22c-.05,0-.09,0-.1.08s.12.25.21.24S18.3,66.55,18.31,66.51Z"/><path class="cls-3" d="M14.08,60.78c.05.07.09,0,.14,0S14.12,60.71,14.08,60.78Z"/><path class="cls-3" d="M15.43,58.16h0c0-.07,0-.14,0-.21s-.14-.16-.15-.27a.34.34,0,0,1-.14-.15s-.05,0-.06-.07h0a.2.2,0,0,0,0-.07.16.16,0,0,0-.12,0s0,0-.06,0h0c0-.12-.07-.11-.15-.07l-.06,0a1,1,0,0,0,.41.61h0l0,.06h0l.08.09s0,0,0,0l.08.13C15.35,58.29,15.44,58.3,15.43,58.16Zm-.55-.69h0Z"/><path class="cls-3" d="M11.09,62.37h0s.05.08.09,0Z"/><path class="cls-3" d="M18.44,58.56v-.4c-.22.16-.24.28-.07.47h0a.46.46,0,0,0,.07-.07Z"/><path class="cls-3" d="M31.37,48.9a.74.74,0,0,0-.69.21l-.28.07c-.08,0-.11,0-.15.07a1.75,1.75,0,0,1-.64.14.18.18,0,0,1-.09.06h-.05l-.08.07h0c-.13,0-.29,0-.38.11.1.07.22,0,.32,0l.07-.06.14,0a.18.18,0,0,0,.16-.05h0l.13,0a.13.13,0,0,0,.14-.06c.14,0,.28-.07.42,0s.18-.16.32-.17a3.58,3.58,0,0,0,.45-.09,1,1,0,0,0,.38-.08C31.62,48.94,31.48,48.92,31.37,48.9Z"/><path class="cls-3" d="M36.75,47.87c.21-.22,0-.23-.15-.24s-.24,0-.33.12-.28.15-.43.2-.14.21.07.17.47-.12.71-.18h0Z"/><path class="cls-3" d="M33.68,48.14c0,.1-.4,0-.14.22h.07a1,1,0,0,1,.39-.21c.11,0,.19-.08.18-.2a.08.08,0,0,0-.13,0,.39.39,0,0,1-.29.13Z"/><path class="cls-3" d="M35.47,47.19h-.06s-.07,0-.08.06.1.1.16,0S35.48,47.23,35.47,47.19Z"/><path class="cls-3" d="M40.34,47.12a.78.78,0,0,1-.42.14,2.32,2.32,0,0,1-.58.13.07.07,0,0,0,0,.06l0,0c0,.07-.06,0-.07.07-.21.14-.49.17-.67.37h-.07s-.07,0-.07.07l.08.08c.1,0,.21-.05.26.08s.1.06.15,0a.38.38,0,0,0,.15-.18l0,0a0,0,0,0,1,0,0c.19-.12.41,0,.61-.06s.11-.41.39-.41l.07,0a.3.3,0,0,0,.19-.14h.06a.46.46,0,0,0,.07-.07h0C40.54,47.11,40.5,47.06,40.34,47.12Z"/><path class="cls-3" d="M40.42,48.08c0,.05,0,.09,0,.14s.13.07.21.06a1.87,1.87,0,0,0,0-.41.17.17,0,0,0-.14.07C40.42,48,40.45,48,40.42,48.08Z"/><path class="cls-3" d="M45.49,42.42v-.14l-.07-.07c-.18,0-.13.11-.08.21h0c.06,0,0,.18.14.15h0s0,0,0,.06.13.27.2,0C45.62,42.57,45.61,42.45,45.49,42.42Z"/><path class="cls-3" d="M99.91,71.51s0,.07.08.1a.06.06,0,0,0,.06,0,.12.12,0,0,0,.15,0c.12-.1,0-.13-.06-.15h-.09S99.92,71.43,99.91,71.51Z"/><path class="cls-3" d="M96.12,68.64a4.43,4.43,0,0,0,.8.27.17.17,0,0,0,.19,0,.18.18,0,0,1-.13-.08l-.07-.06c-.14-.07-.32,0-.43-.15l-.07-.06h-.07a.15.15,0,0,0-.21,0h0A.09.09,0,0,0,96.12,68.64Z"/><path class="cls-3" d="M99.46,71.55c-.15,0-.28,0-.37.12C99.23,71.66,99.34,71.72,99.46,71.55Z"/><path class="cls-3" d="M99.2,71.33a.12.12,0,0,0,.07-.13c-.14,0-.15,0-.14.06s.05,0,.07.07Z"/><path class="cls-3" d="M101.27,71.19c-.11,0-.23-.14-.29.07s0,.15.08.21c-.11,0-.22,0-.27.12l.06,0,.14.06.07-.06v-.14c.12.14.24.09.35,0s.12,0,.18-.1l-.17-.1A.16.16,0,0,1,101.27,71.19Z"/><path class="cls-3" d="M99.8,70.38s0,0,0,0,.08-.06.09-.11S99.79,70.3,99.8,70.38Z"/><path class="cls-3" d="M94.05,66.36h0s0,0,0,0l0,0h0a.23.23,0,0,0,.07-.07v-.06C94.09,66.22,94,66.2,94.05,66.36Z"/><path class="cls-3" d="M94.61,67.3v0h0s0,0,.06.07.06,0,.09,0h0s0,0,0,0,0,0,0,0,.11,0,.11-.06-.18-.2-.33-.19S94.6,67.27,94.61,67.3Z"/><path class="cls-3" d="M93.34,103.86c-.26-.08-.22.1-.22.24s.25-.08.38-.07.22-.12.18-.27S93.48,103.9,93.34,103.86Z"/><path class="cls-3" d="M20.53,71.54v.07c.07,0,.09.15.21.13S20.69,71.52,20.53,71.54Z"/><path class="cls-3" d="M12.94,69.74c0,.1,0,.2.15.21s0,0,.07,0a.31.31,0,0,0,.07-.09h.07c.08-.1,0-.15-.07-.2h-.14s-.1,0-.15.06Z"/><path class="cls-3" d="M13.52,70.64h0a.38.38,0,0,0-.36,0A1.45,1.45,0,0,0,13.52,70.64Z"/><path class="cls-3" d="M13.66,70.5c0,.07.08.07.14.07A.13.13,0,0,0,13.66,70.5Z"/><path class="cls-3" d="M59.65,56.15a.1.1,0,0,0-.12,0l-.13.24a.14.14,0,0,0,0,.09c.07.11.15.12.24,0l.08-.13C59.71,56.33,59.76,56.22,59.65,56.15Z"/><path class="cls-3" d="M54.14,52.43s0-.1-.07-.14h0a.1.1,0,0,0-.14,0h0a.46.46,0,0,0-.08.28c.15.12.25,0,.36-.07Z"/><path class="cls-3" d="M51.73,53.29c.08-.08,0-.17.05-.24C51.57,53.1,51.62,53.18,51.73,53.29Z"/><path class="cls-3" d="M58.59,41.73c.1.05.14.19.3.18s0-.26-.1-.38C58.58,41.49,58.57,41.5,58.59,41.73Z"/><path class="cls-3" d="M48.22,58.19a.11.11,0,0,0,.11.14c.13,0,.07-.11.08-.17h0C48.35,58.18,48.25,58.05,48.22,58.19Z"/><path class="cls-3" d="M49.21,59.44l0,.09c0,.07.12.09.18.14h0a.46.46,0,0,1,.07.07c.08,0,.11.08.15.13s.14,0,.14-.13l-.29-.34c0-.1-.15-.09-.21-.15h0a.15.15,0,0,0-.07.14Z"/><path class="cls-3" d="M97.19,94.94c-.09,0-.16,0-.12.11.16.22,0,.26-.16.29l-.07.07c0,.07-.1.09-.09.18a1.6,1.6,0,0,0,.54-.23C97.39,95.27,97.32,95,97.19,94.94Z"/><path class="cls-3" d="M98,94.93h0a.11.11,0,0,1,0,.15h0a.08.08,0,0,0,0,.13h0c.11,0,.2.08.16-.1a.1.1,0,0,1,0-.11c0-.1,0-.21-.07-.32C97.93,94.64,97.92,94.66,98,94.93Z"/><path class="cls-3" d="M96.63,94.17c0,.06,0,.12.09.12s.11-.06.12-.12S96.7,94.15,96.63,94.17Z"/><path class="cls-3" d="M97.76,92.92l.09.14h.06s0-.09,0-.13,0-.11-.06-.1S97.79,92.89,97.76,92.92Z"/><path class="cls-3" d="M98.38,91.94l0,0S98.39,91.92,98.38,91.94Z"/><path class="cls-3" d="M94,94.85v0c-.1,0-.2,0-.19.12s.12.16.15,0C93.93,94.88,94,94.87,94,94.85Z"/><path class="cls-3" d="M93.73,94.19s0,0,0-.06,0-.06-.05,0,0,0,0,0Z"/><path class="cls-3" d="M94.12,84.85h0c0-.06-.07-.13-.14-.16a.11.11,0,0,0-.08,0,.18.18,0,0,0-.07.28h.54C94.27,84.9,94.16,84.94,94.12,84.85Z"/><path class="cls-3" d="M98.12,93.41a.37.37,0,0,0,.09.19.14.14,0,0,0,0-.23S98.15,93.37,98.12,93.41Z"/><path class="cls-3" d="M72.8,40.84l.22.07c.08-.08.17-.17-.06-.16,0,0,0,0-.08,0S72.78,40.77,72.8,40.84Z"/><path class="cls-3" d="M102.69,70.61c-.06.13.11.08.14.14s0,0,0,0h0c.08-.06.11-.13,0-.19S102.71,70.56,102.69,70.61Z"/><path class="cls-3" d="M102.06,71.47s.11,0,.15.07h0c.07-.07.1-.15,0-.19s-.14,0-.15.12Z"/><path class="cls-3" d="M103.77,73.33c-.09-.06-.14,0-.15.08s0,0,0,.06,0,.06,0,.08-.07.21.08.25.21,0,.22-.19A.39.39,0,0,1,103.77,73.33Z"/><path class="cls-3" d="M69.56,50.66a.63.63,0,0,0,0,.58l0,0a.11.11,0,0,0,.12,0,.13.13,0,0,0,0-.12s-.08-.06,0-.08l.09,0c.21-.39.2-.53-.06-.66h0a.09.09,0,0,0-.13,0C69.59,50.46,69.61,50.59,69.56,50.66Z"/><path class="cls-3" d="M68.91,49.94s-.07.05-.11.07a.23.23,0,0,1-.07.07c0,.06,0,.16.11.1a.48.48,0,0,0,.1-.17S69,49.93,68.91,49.94Z"/><path class="cls-3" d="M68.59,49.53a.13.13,0,0,1,0,.06l.06.08.14-.08s0,0,0-.06h0l-.07-.07h0C68.65,49.42,68.62,49.48,68.59,49.53Z"/><path class="cls-3" d="M104,74.17h0c0-.08,0-.18-.12-.23C103.84,74.05,103.84,74.14,104,74.17Z"/><path class="cls-3" d="M82,55.17a.09.09,0,0,0,0,.06.14.14,0,0,0,0,.07l0,0h.14l.07-.08v-.13H82S82,55.15,82,55.17Z"/><path class="cls-3" d="M84.5,57.21h0s0-.05,0,0v0S84.49,57.21,84.5,57.21Z"/><path class="cls-3" d="M85,61.09a.14.14,0,0,0,0,.09l.06.07.12.08c.23.12.47.22.69.35l.3.17c.08.06.17.1.25,0a.15.15,0,0,0,0-.26h0a.56.56,0,0,0-.2-.11.61.61,0,0,0-.23,0l-.28-.21c-.05,0-.11,0-.15-.06h0a.34.34,0,0,0-.42-.15Z"/><path class="cls-3" d="M75,51.73c0-.08,0-.15-.07-.2S74.86,51.68,75,51.73Z"/><path class="cls-3" d="M79.54,50.64v.06s.1.08.16,0,0-.12,0-.18l-.06,0A.13.13,0,0,0,79.54,50.64Z"/><path class="cls-3" d="M23.79,66.86c.06-.16,0-.21-.25-.21h0a.23.23,0,0,0,.14.27S23.78,66.91,23.79,66.86Z"/><path class="cls-3" d="M21,69.11a2,2,0,0,1,.26-.1c.11,0,.21-.07.15-.21s-.16-.06-.25,0-.25.12-.37.2C20.68,69.23,20.87,69.09,21,69.11Z"/><path class="cls-3" d="M15.85,70.1h-.26C15.65,70.17,15.73,70.18,15.85,70.1Z"/><path class="cls-3" d="M15.23,70.3v-.14h-.08C15.12,70.24,15.07,70.31,15.23,70.3Z"/><path class="cls-3" d="M20.39,69.27c.05.08.14,0,.21.07l.06,0C20.59,69.23,20.48,69.27,20.39,69.27Z"/><path class="cls-3" d="M20.08,56.77a0,0,0,0,0,0,0h0a0,0,0,0,0,0,0S20.08,56.8,20.08,56.77Z"/><path class="cls-3" d="M35.06,48.91l-.08,0-.07.06v0a.56.56,0,0,0,.62,0c.15-.08,0-.11-.05-.16h-.13A.88.88,0,0,1,35.06,48.91Z"/><path class="cls-3" d="M33.17,48.33a.61.61,0,0,1-.13,0H33l-.08,0c-.09,0-.2,0-.28.07h-.06a1,1,0,0,0-.66.27l-.12.07a.18.18,0,0,0-.07,0s-.05,0-.07.06l0,0,.15.13h.07a.45.45,0,0,1,.43-.21l.43-.2h0l.06,0a.2.2,0,0,0,.22,0h0c.15,0,.31,0,.44-.06S33.37,48.25,33.17,48.33Z"/><path class="cls-3" d="M34.57,48.19c0-.06-.11,0-.16,0a1.43,1.43,0,0,1-.45.12c-.12,0-.08.08-.06.14H34c.09-.07.21,0,.29-.07h0a.2.2,0,0,1,.15-.07S34.58,48.23,34.57,48.19Z"/><path class="cls-3" d="M31.76,48.51c-.06.06-.14,0-.22.06l-.07.13h0a.17.17,0,0,0,.21,0C31.69,48.63,31.88,48.63,31.76,48.51Z"/><path class="cls-3" d="M34.76,53a.26.26,0,0,1,.14.13.23.23,0,0,0,.06.12l.1.09c.08.08.2.11.28.19l-.18,0a.23.23,0,0,0-.11,0l0,0A.26.26,0,0,0,35,53.4h0a.44.44,0,0,0-.12.19c-.09.17,0,.15.13.14h.08a9.75,9.75,0,0,0,1.43,0c.06,0,.21,0,.14.12s0,.22-.14.29l-.07.07h0a.26.26,0,0,1-.14.2c0,.09.13.07.2.06s.06-.28.21-.34l0,0a.25.25,0,0,0,0-.07v0a.27.27,0,0,1,.09-.21l.07,0a.23.23,0,0,0,.15-.15c0-.12-.06-.17-.18-.12a2.43,2.43,0,0,1-.85-.06V53.4a.13.13,0,0,0-.09-.07h-.12c-.14,0-.31,0-.37-.13s-.18-.06-.27-.09l-.07-.06h0S35,53,35,53h0l-.07-.07h0a.12.12,0,0,0-.15,0Z"/><path class="cls-3" d="M33.77,53.87h.15a0,0,0,0,0,0,0l.08,0c.17,0,.34,0,.49-.08-.13-.13-.29-.05-.43-.07a2.43,2.43,0,0,0-.27,0C33.67,53.68,33.69,53.77,33.77,53.87Z"/><path class="cls-3" d="M32.47,53.8v.08h0a.29.29,0,0,1,.14.13h0c.25.08.17-.12.21-.22s-.16-.13-.28-.06,0,0-.07.06Z"/><path class="cls-3" d="M38.19,47.66c0-.08,0-.13-.14-.13s0,.15.06.2l.08-.06Z"/><path class="cls-3" d="M40.12,47.67h0l.16-.12C40.1,47.55,40.1,47.55,40.12,47.67Z"/><path class="cls-3" d="M101.8,70.68s-.06,0-.06.07a.14.14,0,0,0,.14.09h0s0,0,0-.06S101.87,70.68,101.8,70.68Z"/><path class="cls-3" d="M93.81,68.22a.18.18,0,0,0,.07,0,1.31,1.31,0,0,1,.21.08l.16.08a.52.52,0,0,1,.3.24l.09,0c.27,0,.14.21.24.3a.43.43,0,0,0,.24.17c.19,0,.25-.06.23-.2h0l.13.06c.1,0,.15.16.28.17h0c0,.22.17.23.33.25a.05.05,0,0,0,0,0l0,0v0l.06,0,.07,0h0v0h.17a.13.13,0,0,0,0,.08.11.11,0,0,0,.14,0h0s0,0,0,0c0,.26.28.34.48.45s.28.33.55.27h.2c.09-.05.24,0,.3-.11a.3.3,0,0,0-.28-.09.44.44,0,0,1-.45-.2.44.44,0,0,0-.14-.13l-.09-.08,0-.06a1.1,1.1,0,0,1,0-.18s0,0,0-.07a.25.25,0,0,0-.22,0,.85.85,0,0,1-.17.06c0-.06-.05-.1-.09-.14.13-.1.18-.21.07-.35h-.06c-.1-.11-.19-.24-.38-.11,0,0-.11,0-.17,0a2,2,0,0,1-.53-.15l-.14-.07a.14.14,0,0,1-.09-.12c-.21-.11-.29-.32-.42-.49s-.13-.2-.22-.27l-.06,0c-.18,0-.14.13-.13.24s.11.12.17.19a2.22,2.22,0,0,1-.48-.27c-.15-.07-.21-.22-.33-.31l-.09,0a.44.44,0,0,0-.2,0,.16.16,0,0,0-.08.06.21.21,0,0,0,0,.13c0,.08.09.12.15.17A.33.33,0,0,1,93.81,68.22Z"/><path class="cls-3" d="M89,63.66a.32.32,0,0,0,.16.36,5.3,5.3,0,0,0,1,.46.15.15,0,0,0,.13-.07.28.28,0,0,0,0-.09.23.23,0,0,0-.07-.07c-.11-.07-.08-.21-.16-.3s-.2-.1-.3-.05-.25,0-.33-.16-.1-.18-.22-.19a.25.25,0,0,0-.19,0A.09.09,0,0,0,89,63.66Z"/><path class="cls-3" d="M90.7,64a.12.12,0,0,0,.13-.13l-.07-.07a.15.15,0,0,0-.14.07s0,.1.08.13Z"/><path class="cls-3" d="M92.62,65.88a1.24,1.24,0,0,1,.29.27c.09.06.21.07.29.14h.14v-.06a.23.23,0,0,0-.07-.07h0a2.57,2.57,0,0,0-.57-.35C92.63,65.79,92.61,65.82,92.62,65.88Z"/><path class="cls-3" d="M88.08,98.65l0,0-.08,0-.06.06c-.11,0-.11.07-.07.15h0a.45.45,0,0,1,.1.14.38.38,0,0,0,.06.14.23.23,0,0,0-.14.08.49.49,0,0,0,0,.12c.07.21.07.21.25.1a.25.25,0,0,1,.09,0l.09-.06c0-.08,0-.1-.08-.14h0l-.1,0a.65.65,0,0,0,.11-.15h0a.13.13,0,0,1,.07-.06.48.48,0,0,1,.35-.08v-.14a.13.13,0,0,0-.12-.05C88.34,98.76,88.24,98.59,88.08,98.65Z"/><path class="cls-3" d="M88.34,99.41s.09,0,.09-.09-.05,0-.09,0S88.29,99.36,88.34,99.41Z"/><path class="cls-3" d="M23.53,72.23a.14.14,0,0,0-.14.06h0s0,0,.07.07l.07.07c.09,0,.22,0,.15-.15l0,0a.19.19,0,0,0-.08,0Z"/><path class="cls-3" d="M21,76.51c.07-.07.16,0,.25,0a.12.12,0,0,0,.07,0h0s0,0,0-.06v0a.1.1,0,0,1,0-.09l.07-.06c.09-.09.23-.16.22-.32a.15.15,0,0,0-.15-.08h0s-.11,0-.14.07h0a.16.16,0,0,0-.07.07.55.55,0,0,0-.24.18.28.28,0,0,1-.33.1.14.14,0,0,1,0,.06.2.2,0,0,1-.13.21.33.33,0,0,0,0,.41C20.72,76.79,20.79,76.59,21,76.51Z"/><path class="cls-3" d="M20.24,77.47l.07-.14c-.07-.09-.18-.06-.28-.06l0,0C20.07,77.39,20.05,77.57,20.24,77.47Z"/><polygon class="cls-3" points="20.52 76.85 20.53 76.85 20.53 76.85 20.52 76.85 20.52 76.85"/><path class="cls-3" d="M20.51,76.87v0S20.49,76.87,20.51,76.87Z"/><path class="cls-3" d="M23.56,74.33c0-.09.09-.23-.11-.25h-.06a.46.46,0,0,1-.07.07h0c0,.09,0,.2.07.28h0C23.43,74.38,23.54,74.42,23.56,74.33Z"/><path class="cls-3" d="M8.88,83.5a.24.24,0,0,0-.29,0,.38.38,0,0,0,.28.15h0C8.88,83.62,9,83.55,8.88,83.5Z"/><path class="cls-3" d="M64.77,63.92v0c.12-.18,0-.37.06-.56a.41.41,0,0,1,0-.08h0s0,0,0-.08,0-.12,0-.17h0c-.11-.09-.22-.16-.35-.06a.87.87,0,0,0,.07.39.2.2,0,0,1,0,.22.13.13,0,0,1,0,.06c-.06.13-.08.25.06.34a.19.19,0,0,0,.09.05h.1S64.8,64,64.77,63.92Z"/><path class="cls-3" d="M53,60.91h0c0,.08.13.07.21.06v-.12h-.07S53,60.88,53,60.91Z"/><path class="cls-3" d="M66.05,65c0-.08-.14-.06-.22-.05a.18.18,0,0,0-.15.11s0,.08,0,.08a.35.35,0,0,0,.3-.05A.1.1,0,0,0,66.05,65Z"/><path class="cls-3" d="M66,57.11c.1.07,0,.2.09.3.06-.08,0-.18.11-.22s0,0,0-.06S66.09,57,66,57,66,57.06,66,57.11Z"/><path class="cls-3" d="M53.78,60.77h-.07c.07.09.18.06.28.06C53.94,60.75,53.85,60.79,53.78,60.77Z"/><path class="cls-3" d="M50.14,60.56s.09.1.12.1.08-.09.08-.15l-.07-.15c-.1-.06-.13,0-.14.08Z"/><path class="cls-3" d="M38.74,56.54a.51.51,0,0,1,.24,0H39c.08-.21-.11-.16-.21-.2s-.13,0-.19,0a.42.42,0,0,0-.14.09l0,0C38.54,56.54,38.62,56.59,38.74,56.54Z"/><path class="cls-3" d="M42,53.14c-.09-.12-.18,0-.31,0,.13.08.21.12.31,0A.08.08,0,0,0,42,53.14Z"/><path class="cls-3" d="M42.36,52.43c-.11,0-.29,0-.29-.07s-.11-.12-.2-.13a.26.26,0,0,1-.11-.07c-.07,0-.14-.1-.22,0a.18.18,0,0,0,0,.22,1.54,1.54,0,0,0,.13.12c.13,0,.2.12.29.18a.42.42,0,0,0,.5,0,.14.14,0,0,0,0-.15A.11.11,0,0,0,42.36,52.43Z"/><path class="cls-3" d="M14.08,86.72a.14.14,0,0,1-.06-.14c0-.1-.06-.13-.14-.13s-.25,0-.12.17l.12.16C14,86.78,14,86.8,14.08,86.72Z"/><path class="cls-3" d="M9.45,102.26c-.1-.05-.14,0-.15.11h.14S9.53,102.29,9.45,102.26Z"/><path class="cls-3" d="M98.13,76.87a2.25,2.25,0,0,1-.52-.07.44.44,0,0,0-.2,0c-.06.11-.48.06-.18.35l.1,0a.42.42,0,0,1,.2.1.32.32,0,0,0,.38,0c.28,0,.52-.17.8-.14.06-.1.19-.14.2-.27h0a.28.28,0,0,0-.28,0c-.13,0-.27,0-.41,0Z"/><path class="cls-3" d="M84.91,97.2l.08,0c.17.1.18.09.2-.09a.18.18,0,0,0,0-.1h-.06C84.94,97,84.91,97,84.91,97.2Z"/><path class="cls-3" d="M86.33,97.71c0-.06,0-.11-.1-.12s0,0,0,.07,0,.11.1.12S86.33,97.74,86.33,97.71Z"/><path class="cls-3" d="M93.07,96.27c-.07-.13-.22,0-.31-.1s-.11-.26-.28-.28-.18,0-.2.09.06.11.13.13a.27.27,0,0,1,.18.23c0,.21.13.17.25.18a1.85,1.85,0,0,0,.14-.14S93.07,96.33,93.07,96.27Z"/><path class="cls-3" d="M94.39,95.75v-.13a.07.07,0,0,0-.06-.07c-.06-.06-.11-.11-.21-.07h0c-.11.07-.08.14,0,.21a.15.15,0,0,1,0,.07h.07a.13.13,0,0,0,0,.06h.2A.15.15,0,0,0,94.39,95.75Z"/><path class="cls-3" d="M92.26,90h.14l.16-.12c0-.05,0-.11,0-.13S92.26,89.85,92.26,90Z"/><path class="cls-3" d="M93.24,89.08s0,0,0,0l0,0,0,0S93.22,89.09,93.24,89.08Z"/><path class="cls-3" d="M91.76,82.79c.14,0,.16.16.16.3l.16-.21,0-.17C92,82.73,91.84,82.68,91.76,82.79Z"/><path class="cls-3" d="M91.41,85.5a.07.07,0,0,0,.07.08l0,0a.08.08,0,0,0,0-.11l-.08,0h0A.38.38,0,0,0,91.41,85.5Z"/><path class="cls-3" d="M20.53,93.34a.28.28,0,0,0,.21-.21h0a.08.08,0,0,0,0-.09c-.12-.16-.22-.1-.3,0l-.09,0-.08.07-.06.07c-.06.16,0,.19.15.15Z"/><path class="cls-3" d="M15.09,91.75l.15.13.34-.07C15.43,91.7,15.25,91.77,15.09,91.75Z"/><path class="cls-3" d="M12.87,89.2c-.1,0-.14,0-.14.14S12.88,89.29,12.87,89.2Z"/><path class="cls-3" d="M71.1,45.32l.07.06.13.14h0l.08-.07h0c.09-.16,0-.21-.14-.28l-.32,0C71,45.25,71.06,45.25,71.1,45.32Z"/><path class="cls-3" d="M69.8,50.15c.1,0,.16,0,.15-.09s0-.19-.15-.12Z"/><path class="cls-3" d="M68.52,53.32c.07,0,.15,0,.2-.06l-.06-.07C68.57,53.19,68.43,53.15,68.52,53.32Z"/><path class="cls-3" d="M82.07,55.69a.14.14,0,0,0,0-.22C82,55.54,82,55.61,82.07,55.69Z"/><polygon class="cls-3" points="82.04 55.47 82.04 55.46 82.04 55.47 82.04 55.47"/><path class="cls-3" d="M86.68,61.88v0l.06.06.07,0,.11,0,0,0,.07,0a.08.08,0,0,0,.07,0v0a.58.58,0,0,0,.4.24,2.66,2.66,0,0,0,.39.16.36.36,0,0,0,.23,0c.07,0,.16,0,.21-.06s0,0-.07-.07l-.15-.07a.38.38,0,0,0-.21-.07c-.08-.06-.2-.1-.24-.18s-.29-.2-.49-.18l-.13,0c-.06-.06-.16,0-.22-.07h0C86.76,61.82,86.71,61.82,86.68,61.88Z"/><path class="cls-3" d="M87.78,62a.08.08,0,0,0,.09.07c.07,0,.09-.06.1-.12s0-.08-.09-.06A.11.11,0,0,0,87.78,62Z"/><path class="cls-3" d="M84.36,60.59a.39.39,0,0,0,.39.26c.06,0,.12,0,.15-.08l-.07-.07-.08-.06h-.06a.16.16,0,0,1-.08-.06h-.06a.16.16,0,0,1-.08-.06h0l0,0s0,0-.06,0A.15.15,0,0,0,84.36,60.59Z"/><path class="cls-3" d="M83.84,59.8l.2.09a.19.19,0,0,1,.07.06h0a.46.46,0,0,0,.07.07h0a.11.11,0,0,0,.09,0s0,0,0,0l0,0a.19.19,0,0,0,.06.07c.06,0,.12.12.18.18h0a1.43,1.43,0,0,1,.36.06l.06,0c.08,0,.14,0,.09-.13l-.15-.22L84.76,60v-.13h0v0a.15.15,0,0,0-.17-.07h-.05a.39.39,0,0,0-.31-.11C84.05,59.68,83.9,59.63,83.84,59.8Z"/><path class="cls-3" d="M75.34,46.86a.09.09,0,0,0,.08.09.08.08,0,0,0,.1-.06.09.09,0,0,0-.1-.11S75.33,46.81,75.34,46.86Z"/><path class="cls-3" d="M79.35,52.32l0,0h0Z"/><path class="cls-3" d="M25.18,66.3c.07-.07.18,0,.26-.08a.28.28,0,0,0,.1-.09s0,0,0,0h.05a.08.08,0,0,0,.08,0l.12-.07c.11-.09.28-.12.31-.29h0l0,0c.14-.19.14-.19-.07-.21L26,65.6h0a1,1,0,0,0-.42.22l-.08.06h0s0,0,0,.06-.05,0-.07,0h-.08V66h0c-.12,0-.19.08-.27.14a.46.46,0,0,1-.07.07.14.14,0,0,0,.14.07Z"/><path class="cls-3" d="M19.67,59.61h0s0,0,0,0,0,0,0,0l0,0a.19.19,0,0,0,0-.18h0c-.08,0-.1-.15-.22-.13a.13.13,0,0,0,0,.06c.09.08.06.24.21.28h0a.33.33,0,0,0,.07.27C19.81,59.78,19.7,59.69,19.67,59.61Z"/><path class="cls-3" d="M21,59.67a.47.47,0,0,1-.15-.13h-.07a.05.05,0,0,0-.08,0,.23.23,0,0,0,0,.14c0,.12.15.16.25.22h0L21,60h0s0,.1.07.13h0c.09.08,0,.25.22.27s.13.12.14.21,0,.26.25.26c0-.13,0-.26-.05-.38A6.61,6.61,0,0,0,21,59.67Z"/><path class="cls-3" d="M37.63,52.64l.06-.08a.15.15,0,0,0-.07-.14l-.28.22c-.09.18.07.12.14.14A.41.41,0,0,0,37.63,52.64Z"/><path class="cls-3" d="M38.85,47.48l-.09,0h0l.07,0Z"/><path class="cls-3" d="M95.26,71.82a.61.61,0,0,0-.22-.13,2.43,2.43,0,0,0-.66,0,.16.16,0,0,0-.07.07.12.12,0,0,0,0,.1c.09.11.24.09.36.13s.18,0,.23.08S95.14,71.89,95.26,71.82Z"/><polygon class="cls-3" points="94.27 70.85 94.27 70.85 94.27 70.85 94.27 70.85"/><path class="cls-3" d="M94.36,70.87l-.09,0S94.31,70.94,94.36,70.87Z"/><path class="cls-3" d="M95.13,69.74s0-.08-.06-.09a.08.08,0,0,0-.08,0l-.08.13C95,69.93,95.09,69.89,95.13,69.74Z"/><polygon class="cls-3" points="93.83 70.78 93.84 70.78 93.84 70.78 93.83 70.78"/><path class="cls-3" d="M93.69,70.57v.06s0,.06,0,.09a.25.25,0,0,0,.15.06h0c0,.1-.21,0-.27.16A.84.84,0,0,0,94,71c0-.06.14-.06.16-.13-.16,0-.12-.21-.23-.26S93.79,70.57,93.69,70.57Z"/><path class="cls-3" d="M95.19,70.23l.08.07s0,0,.07,0h.07v-.14h-.06a.15.15,0,0,0-.16,0h0A.06.06,0,0,0,95.19,70.23Z"/><path class="cls-3" d="M95.86,69.48a.78.78,0,0,0-.41-.24.49.49,0,0,1,0,.09h0c.09.06,0,.21.14.24a.13.13,0,0,0,.08,0h.13S95.89,69.51,95.86,69.48Z"/><path class="cls-3" d="M91.19,66a1.88,1.88,0,0,0,.56.25s.06.06.09.09.25.08.2-.13S92,66,91.84,66h0a.39.39,0,0,0-.1-.08c-.17-.08-.33-.22-.55-.16S91.09,66,91.19,66Z"/><path class="cls-3" d="M86.4,105.42h.06c0-.06,0-.13-.08-.1S86.35,105.39,86.4,105.42Z"/><path class="cls-3" d="M87.26,97.89l-.08-.2h0L87,97.55s0,0-.06,0-.07.13-.06.2h0c.08,0,0,.13.05.19l.06.07.09,0a.14.14,0,0,0,.09,0A.1.1,0,0,0,87.26,97.89Z"/><path class="cls-3" d="M21.86,76.16c-.08-.09-.16,0-.22.08l-.05.05h-.06c-.1.1-.22.19-.22.34a.52.52,0,0,0-.21.07l-.06,0s-.08.06-.06.11.09,0,.13,0h.07l.06,0,.07,0s0,0,0-.06a.11.11,0,0,0,0-.08l0,0s0,0,.07,0l.06,0a1.2,1.2,0,0,1,.29-.26C21.81,76.31,22,76.27,21.86,76.16Z"/><path class="cls-3" d="M24.69,73.76l0,0,0-.08a.47.47,0,0,0,0-.17.13.13,0,0,0,0-.08h0s0,0-.05,0H24.6v.07l-.06.07-.09.12h0c-.29.18-.23.53-.48.78l.27-.08h0a.27.27,0,0,0,.08-.07,1.07,1.07,0,0,1,.29-.27.76.76,0,0,0,0-.21s0,0,0-.06A.06.06,0,0,0,24.69,73.76Z"/><path class="cls-3" d="M23.89,73.68a.46.46,0,0,0-.07.07l-.07.06c0,.18.11.12.2.07S24,73.73,23.89,73.68Z"/><path class="cls-3" d="M82.89,97.41h-.06a.16.16,0,0,1-.08-.06h0c-.06,0-.07.08-.08.14s.12.2.26.18S82.89,97.49,82.89,97.41Z"/><path class="cls-3" d="M66.13,66.93c.17.06.29,0,.38.13a.28.28,0,0,0,.15-.15.52.52,0,0,1,.07-.27c.1-.18.07-.26-.14-.4,0,.13,0,.26-.08.4S66.47,66.91,66.13,66.93Z"/><path class="cls-3" d="M72.53,65.82v-.67l-.15.11c0,.16,0,.32,0,.48s-.06.34.09.49A.26.26,0,0,0,72.53,65.82Z"/><path class="cls-3" d="M68.65,68.49a2.45,2.45,0,0,0,0-.27h0c-.09,0-.11,0-.15.08a.44.44,0,0,1-.07.27C68.56,68.63,68.63,68.61,68.65,68.49Z"/><path class="cls-3" d="M61.87,68.84c.06,0,.13,0,.11.09s.07.13.1.19h.21c.08-.11,0-.2-.06-.28a.67.67,0,0,1-.16-.25C61.77,68.57,61.75,68.6,61.87,68.84Z"/><polygon class="cls-3" points="40.98 56.78 40.98 56.77 40.98 56.78 40.98 56.78"/><path class="cls-3" d="M40.61,56.37h0c-.07,0-.06.08,0,.12h0s0,0,.07.08h0l.2.15s.11,0,.15.07l.08-.08s0,0,0-.06C41,56.45,40.76,56.45,40.61,56.37Z"/><path class="cls-3" d="M14.37,87.28l-.14.13s0,0,0,.06C14.45,87.46,14.46,87.45,14.37,87.28Z"/><path class="cls-3" d="M15.94,88.79h0c-.08-.13-.2,0-.3,0h-.07a.57.57,0,0,0,0,.13.33.33,0,0,0,.31.11C16,89,16,88.91,15.94,88.79Z"/><path class="cls-3" d="M10.58,102l-.05,0c-.06,0,0,.09-.08.12s0,.05,0,.07a.15.15,0,0,0,.14.07h0c.05,0,0-.1.08-.14A.17.17,0,0,0,10.58,102Z"/><path class="cls-3" d="M10.3,102.51a.13.13,0,0,0,.14.14c0-.06,0-.13,0-.2S10.32,102.42,10.3,102.51Z"/><path class="cls-3" d="M93.18,78.2s0-.07-.05-.08-.07,0,0,.09a.36.36,0,0,0,0,.09h0A.1.1,0,0,0,93.18,78.2Z"/><path class="cls-3" d="M94.77,80.92h0c.1-.15,0-.23-.11-.31C94.58,80.77,94.74,80.82,94.77,80.92Z"/><path class="cls-3" d="M95.9,95.48h0l-.09-.06c-.06,0-.12-.12-.2,0a.13.13,0,0,0,0,.21c.07.06.11.18.25.18S95.9,95.58,95.9,95.48Z"/><path class="cls-3" d="M83.21,95.68c.09,0,.1-.07.12-.14a.21.21,0,0,0-.21-.12.51.51,0,0,0,0,.13C83.1,95.62,83.12,95.68,83.21,95.68Z"/><path class="cls-3" d="M21.62,93.32s0,.1.07.11.1,0,.12-.09,0-.15,0-.2c.1-.25,0-.47,0-.71,0-.05-.05-.1-.12-.09s-.07.06-.07.11v.34A.8.8,0,0,1,21.62,93.32Z"/><path class="cls-3" d="M23,91.22a.16.16,0,0,0-.09-.11c-.12,0-.22-.14-.35,0h0s0,0,0,.06a.08.08,0,0,0,0,.07l.07.14h.08a.21.21,0,0,0,.19,0C22.94,91.34,23,91.29,23,91.22Z"/><path class="cls-3" d="M70.09,52.15c0,.07-.13.14,0,.21s.12-.06.19-.08.11-.06.09-.13-.09-.07-.15-.06A.52.52,0,0,0,70.09,52.15Z"/><path class="cls-3" d="M84.32,60.49c0-.13-.07-.19-.14-.27s-.05.14-.07.2a.14.14,0,0,0,.08.07h0A.08.08,0,0,0,84.32,60.49Z"/><path class="cls-3" d="M24.85,72.19s0-.08-.08-.08-.08,0-.09.07,0,.09.07.09S24.83,72.25,24.85,72.19Z"/><path class="cls-3" d="M28.09,70.09c.07.08.12,0,.17,0l.06,0c0-.16-.12-.11-.2-.08A.11.11,0,0,0,28.09,70.09Z"/><polygon class="cls-3" points="28.32 70.02 28.32 70.02 28.32 70.02 28.32 70.02"/><path class="cls-3" d="M28.4,69.76c.05.24.18.07.28,0h.07c.11.08.16-.06.24-.08a.42.42,0,0,0,.15-.12.13.13,0,0,0,0-.13A.13.13,0,0,1,29,69.4a.56.56,0,0,0-.43.27h0A.22.22,0,0,1,28.4,69.76Z"/><path class="cls-3" d="M27.89,70.34c-.05,0,0,.08,0,.11l.07-.08S27.93,70.31,27.89,70.34Z"/><path class="cls-3" d="M27.09,63.84a.05.05,0,0,0-.05-.07.1.1,0,0,0-.12.09s0,.07.06.07S27.09,63.91,27.09,63.84Z"/><path class="cls-3" d="M26.82,62c-.1,0,0-.2-.18-.22s0,.26-.1.36,0,.22,0,.31,0-.12.12-.14,0,.22.2.17A1.15,1.15,0,0,1,26.82,62Z"/><path class="cls-3" d="M37.47,53.6v-.13h-.13C37.25,53.64,37.39,53.59,37.47,53.6Z"/><path class="cls-3" d="M91.19,70.44h0c-.08.17-.32.1-.46.27h.39c.1,0,.19-.07.3,0s.06,0,.07-.09l-.08-.06C91.35,70.44,91.25,70.5,91.19,70.44Z"/><path class="cls-3" d="M92.9,67.4c0,.19,0,.21.22.27,0,0,.14,0,.08-.09s-.08-.17.09-.16,0,0,0-.08l-.06-.07C93.13,67.28,92.94,67.14,92.9,67.4Z"/><path class="cls-3" d="M92.62,67h0l0,0v0c.1.15.2.19.32,0s.07-.06.1-.09,0-.15-.13-.09A.74.74,0,0,1,92.62,67Z"/><path class="cls-3" d="M88.41,63.32h0c.1,0,.19.14.34.1C88.63,63.31,88.56,63.18,88.41,63.32Z"/><path class="cls-3" d="M18.58,81.26l.09.14a.26.26,0,0,0,.28.17c.05,0,.11,0,.14,0h0A.42.42,0,0,0,18.58,81.26Z"/><path class="cls-3" d="M19.67,81.26c.21-.05,0-.13,0-.2s-.21,0-.2.12S19.6,81.28,19.67,81.26Z"/><path class="cls-3" d="M20.74,81.13a.14.14,0,0,1,0,.06l.13.07s.1,0,.13.1a.14.14,0,0,0,.09,0c.11,0,.12-.11.11-.2a.18.18,0,0,0,0-.07A.94.94,0,0,0,21,81h0l-.07,0h0C20.79,81,20.66,81,20.74,81.13Z"/><path class="cls-3" d="M78,78.87s0,0,0,.08,0,.08.06.11a.15.15,0,0,0,0,.06h0a.52.52,0,0,1,.06.36c0,.14,0,.22.17.25h0a.14.14,0,0,0,.07.1h0V80l.06,0h0c0,.11,0,.23.12.28a.39.39,0,0,0,0-.51h0l0,0c0-.11,0-.22-.07-.31a.49.49,0,0,1-.11-.14h0l-.07-.08-.15-.33C78.16,78.79,78.1,78.82,78,78.87Z"/><path class="cls-3" d="M86.19,99.9,86,100s-.18.09,0,.15a.37.37,0,0,0,.29,0h0c.06-.12.14,0,.21,0l0,0v-.06a.06.06,0,0,1,0,0,.62.62,0,0,0,0-.33h0l-.29.13Z"/><path class="cls-3" d="M64.11,75.37c0-.09-.09-.1-.16-.1s-.21,0-.22.15a.09.09,0,0,0,.1.11A.34.34,0,0,0,64.11,75.37Z"/><path class="cls-3" d="M70.33,88.76c-.11.06-.07.19-.17.23l-.07.08-.08.05a.1.1,0,0,0,0,.09.27.27,0,0,0,.11.1h.1c.18,0,.09-.18.17-.25h0C70.37,89,70.42,88.85,70.33,88.76Z"/><path class="cls-3" d="M62,76.57c-.08-.18-.08-.18-.35-.06,0,.13.14.17.18.31C61.88,76.7,61.91,76.61,62,76.57Z"/><path class="cls-3" d="M66.82,82.22c0,.08,0,.17-.09.22s0,.18,0,.27h0c0,.08,0,.17.06.21s.17.1.27.07c.05-.19,0-.41.14-.57-.13-.07-.21.09-.32,0S66.91,82.28,66.82,82.22Z"/><path class="cls-3" d="M67.27,82c-.07.22.09.42,0,.63.14,0,.12-.1.13-.19s0-.3.07-.43,0-.25-.17-.23S67.29,81.94,67.27,82Z"/><path class="cls-3" d="M73.18,80.67a.08.08,0,0,0,.1.07.16.16,0,0,0,.13-.18s0,0-.08,0S73.18,80.57,73.18,80.67Z"/><path class="cls-3" d="M83.61,95.13l.07.07c.11-.16.1-.2-.07-.27h0a.46.46,0,0,0-.07.07.13.13,0,0,0,0,.06Z"/><path class="cls-3" d="M72.88,75.81a1.05,1.05,0,0,1,.08.35c0,.11.09.23.24.15s.12-.18,0-.29V76s0-.1-.07-.13l0,0h0c0-.06,0-.12,0-.18s0-.11,0-.15h0c-.08-.06-.18,0-.27,0s-.15.07-.15.17S72.78,75.78,72.88,75.81Z"/><path class="cls-3" d="M72.31,88.24c-.11,0-.14.07-.14.16s0,.18-.08.24a2.16,2.16,0,0,0-.2.7l0,.12h0l0,0a.49.49,0,0,0-.07.35c0,.1.06.19.2.12a.23.23,0,0,0,.07-.07,1.12,1.12,0,0,1,.1-.4l0,0s0,0,.07,0a.11.11,0,0,0,0-.13h0a1.41,1.41,0,0,1,0-.5A2.43,2.43,0,0,0,72.31,88.24Z"/><path class="cls-3" d="M66.67,84.24a.27.27,0,0,1-.07.14c0,.13.05.14.17,0s0,0,0,0a.14.14,0,0,0,0,.12c.11,0,.16.18.29.22a.08.08,0,0,0,.07,0c0-.11.1-.22,0-.33s-.13-.31-.36-.21C66.7,84.1,66.73,84.23,66.67,84.24Z"/><path class="cls-3" d="M71.62,90.84c-.22.07-.18.28-.23.43a.26.26,0,0,0,.06.27.33.33,0,0,0,.21-.07c0-.08,0-.17,0-.26S71.76,91,71.62,90.84Z"/><path class="cls-3" d="M67.24,88.51v-.13l-.14.06s0,.09,0,.13,0,.29.15.36h0A.53.53,0,0,0,67.24,88.51Z"/><path class="cls-3" d="M69.58,86h0s.11.18.14,0,0-.15,0-.16S69.6,85.89,69.58,86Z"/><path class="cls-3" d="M65.77,71.65c.07,0,.13,0,.18-.05h0c-.07,0-.08-.13-.17-.07A.08.08,0,0,0,65.77,71.65Z"/><path class="cls-3" d="M66.51,67.19s0,.1.06.07S66.54,67.2,66.51,67.19Z"/><path class="cls-3" d="M70.44,58.07c.06,0,.1,0,.15-.06s.11-.13,0-.21-.08,0-.13,0,0,.08-.05.12S70.39,58,70.44,58.07Z"/><path class="cls-3" d="M66.59,55.81a.29.29,0,0,1,0-.09l0,0,.06.06Z"/><path class="cls-3" d="M39.05,65.19a.1.1,0,0,0,.07,0h.08l0,0,.07,0a.27.27,0,0,0,.1-.06l.07-.06c0-.08,0-.14-.07-.14l-.07,0a.7.7,0,0,1-.29.13Z"/><path class="cls-3" d="M43.35,63.4l-.16.06h-.13c-.1.11-.27,0-.37.12s0,.06-.07.08h0a.21.21,0,0,0,.16.08,2.75,2.75,0,0,1,.63-.15C43.45,63.51,43.54,63.41,43.35,63.4Z"/><path class="cls-3" d="M11.22,101.13a.11.11,0,0,0-.13-.06l-.07.07C11.09,101.35,11.15,101.12,11.22,101.13Z"/><polygon class="cls-3" points="92.83 76.3 92.83 76.3 92.83 76.3 92.83 76.3"/><path class="cls-3" d="M92.67,76.07a1.8,1.8,0,0,0-.45-.09.16.16,0,0,0-.16,0c0,.11,0,.19.13.2a.38.38,0,0,1,.23.06h.41C92.92,76.13,92.77,76.11,92.67,76.07Z"/><path class="cls-3" d="M93,77.16s0,0,0,0,.06.08.12.09h0S93.12,77.15,93,77.16Z"/><path class="cls-3" d="M91.76,75.94l-.37,0c.11.18.37.06.45.26.1,0,.15,0,.09-.14l-.1-.14S91.79,76,91.76,75.94Z"/><path class="cls-3" d="M91,75.93c0,.08.06.14.15.17s0,0,.08.06c.24-.06,0-.14,0-.21S91,75.82,91,75.93Z"/><path class="cls-3" d="M93.14,75.85c.13.21,0,.33-.16.45h0s.1,0,.14.08a.17.17,0,0,1,.15.06h.06a.11.11,0,0,1,.15,0h0a.2.2,0,0,0,.18,0,.15.15,0,0,0,.11.11h0a10,10,0,0,0,1.25.11c-.08-.12-.21-.08-.26-.17l-.21-.07a2,2,0,0,0-.43-.07h-.28s0,0,0-.06a.73.73,0,0,0-.43-.13c-.11-.15,0-.37-.21-.49A.12.12,0,0,0,93.14,75.85Z"/><path class="cls-3" d="M92.84,83s0,.09.09.07S93,83,93,83a0,0,0,0,0,0-.06C92.86,83,92.84,83,92.84,83Z"/><path class="cls-3" d="M16.75,90a.19.19,0,0,1-.16-.07l-.28.07h0c0,.05,0,.09,0,.13s.21,0,.29.07a.37.37,0,0,0,.27-.07C16.87,90,16.84,90,16.75,90Z"/><path class="cls-3" d="M79,59h0a1.8,1.8,0,0,0-.06.22s0,.08.09.1.08,0,.08,0,.26-.33.09-.57C79.08,58.8,79.09,58.94,79,59Z"/><path class="cls-3" d="M85.55,62.49l.06.07c.13,0,.24,0,.29-.13h0a.23.23,0,0,1-.07-.07h0C85.56,62.3,85.56,62.3,85.55,62.49Z"/><path class="cls-3" d="M85.83,64.5h0l-.08-.06h-.14s0,0,0,0,0,0,0,0l-.08-.05c0-.07-.12,0-.18,0s-.17,0-.24,0h0a.06.06,0,0,0-.08,0h0c-.09,0-.17,0-.23,0h-.36c-.08,0-.13-.16-.24,0s0,0,0,.06.17,0,.25.07v.07l.13.07.17.07a2.6,2.6,0,0,0,.95.19C85.71,64.7,85.84,64.68,85.83,64.5Z"/><path class="cls-3" d="M81.4,62.72l.07-.08a1,1,0,0,1,0-.17c0-.21-.09-.07-.15,0s0,0,0,.06S81.22,62.7,81.4,62.72Z"/><path class="cls-3" d="M82.18,62.57h.14v-.14C82.22,62.42,82.17,62.47,82.18,62.57Z"/><path class="cls-3" d="M83.61,64.08l-.06,0A.53.53,0,0,1,83.4,64a1.43,1.43,0,0,0-.28-.13l-.11,0-.07-.05-.12,0h-.08a.34.34,0,0,1-.2,0,.29.29,0,0,0-.13,0s-.06.06-.1,0l-.08,0c-.18,0-.16.12-.07.23a.34.34,0,0,0,.17.08c.09,0,.19,0,.28,0a2.41,2.41,0,0,1,.37.07,1.43,1.43,0,0,0,.49.13s.11,0,.14.08h0C83.77,64.23,83.69,64.16,83.61,64.08Z"/><path class="cls-3" d="M83.54,63.88h0c.11.06.25,0,.35.14h0c.09,0,.14,0,.14-.13a.49.49,0,0,0-.49-.14C83.49,63.79,83.5,63.83,83.54,63.88Z"/><path class="cls-3" d="M79.62,61.18s.13.1.16,0,.11-.23-.1-.25l-.05.08Z"/><path class="cls-3" d="M87.68,63.06c.17-.13-.08-.19-.05-.31s-.1-.1-.17-.12c-.24,0-.24,0-.19.14l.06.06C87.45,62.91,87.47,63.11,87.68,63.06Z"/><path class="cls-3" d="M86.82,62.16c-.1,0-.14,0-.14.13l.08.06C87,62.35,86.86,62.24,86.82,62.16Z"/><path class="cls-3" d="M72.74,55.6a.14.14,0,0,1,.13-.07.49.49,0,0,1,.14-.24s.09-.08,0-.14a.12.12,0,0,0-.18,0c-.1.18-.31.24-.41.41l0,0c-.07,0-.16,0-.09.15s.11,0,.18,0S72.64,55.66,72.74,55.6Z"/><path class="cls-3" d="M73,54.78h0s0,0,0,.06h0s0,0,.07.06h.06l.09-.14a.14.14,0,0,1,0-.06C73.05,54.62,73,54.7,73,54.78Z"/><path class="cls-3" d="M71.89,53.68c0,.06,0,.15.06.17s.12-.06.14-.13,0-.2-.14-.12Z"/><path class="cls-3" d="M29.12,66c.08,0,.06-.12,0-.18L29,65.61s0,0-.07-.07c-.19.09-.19.09-.06.34a.1.1,0,0,1,.05,0C29,66,29,66,29.12,66Z"/><path class="cls-3" d="M27.69,71.65c0,.16.24,0,.37,0h.11a.44.44,0,0,0,.29-.09c.11-.2.32-.3.43-.49h0a.08.08,0,0,0,.07,0c0-.09,0-.2-.06-.27,0-.23,0-.23-.23-.15s-.25.27-.42.35l-.22.35C27.87,71.39,27.63,71.46,27.69,71.65Z"/><path class="cls-3" d="M27.61,65.74a.23.23,0,0,1-.07-.07h0a.12.12,0,0,0-.15,0,.32.32,0,0,0,.08.28C27.63,66,27.61,65.84,27.61,65.74Z"/><path class="cls-3" d="M27.75,63.4s.07-.1,0-.15-.11,0-.16,0a.24.24,0,0,0-.08.06q0,.13.15.15S27.74,63.43,27.75,63.4Z"/><path class="cls-3" d="M27.16,64.94s0,0,0,0,0,.12.11.13l0-.06S27.25,64.94,27.16,64.94Z"/><path class="cls-3" d="M93.46,75.84l.37.19a.55.55,0,0,0,.25,0,.28.28,0,0,0-.17-.17C93.77,76,93.61,75.76,93.46,75.84Z"/><path class="cls-3" d="M93.26,71.75h-.13a.66.66,0,0,0,0,.14h.06c.12,0,.27,0,.37-.08h0C93.47,71.74,93.35,71.82,93.26,71.75Z"/><path class="cls-3" d="M90.62,70.84c-.22-.08-.42.08-.64.07a.15.15,0,0,0-.13,0,.11.11,0,0,0-.06.07.14.14,0,0,0,0,.16c.07.06.14.19.22,0s.43,0,.64-.06h0C90.67,71,90.65,70.91,90.62,70.84Z"/><path class="cls-3" d="M87.9,66.3s-.11,0-.14-.07h0l-.08-.07h0a.05.05,0,0,0-.08,0,.22.22,0,0,0,0,.08,3,3,0,0,0,.08.52l.06.08a.12.12,0,0,0,.14,0c0-.18,0-.38.07-.55Z"/><path class="cls-3" d="M91.69,67c-.08,0-.16,0-.2.06s.06.15.16.16S91.68,67.06,91.69,67Z"/><path class="cls-3" d="M92.29,67.22l-.1,0h0S92.23,67.28,92.29,67.22Z"/><path class="cls-3" d="M21.71,79s-.05,0-.1,0l-.07.12h.05C21.64,79.05,21.72,79.06,21.71,79Z"/><path class="cls-3" d="M76.5,76a.22.22,0,0,0,.36.1l-.12-.17c-.07,0,0-.12-.09-.17s-.2-.17-.33,0Z"/><path class="cls-3" d="M79.57,102.29a.32.32,0,0,0-.16,0,.28.28,0,0,0-.17.18.19.19,0,0,0,.16.09c.15-.09.32,0,.48-.09C80,102.14,79.7,102.33,79.57,102.29Z"/><path class="cls-3" d="M80.17,100.85a.68.68,0,0,1-.14.23s0,0,.07.06l0,0s0,0,0,0h0c.06,0,.16,0,.22-.07h0c.18,0,.28-.12.07-.27h-.14S80.22,100.82,80.17,100.85Z"/><path class="cls-3" d="M83.25,101.27c-.18.11-.46,0-.57.21h0a.2.2,0,0,0-.08.08h-.07v0l-.15.07-.2,0H82l-.07,0-.11,0a.39.39,0,0,1-.15,0,.11.11,0,0,0-.08,0c0,.11,0,.2.14.21a6.45,6.45,0,0,1,.87-.2c.16,0,.25-.17.42-.09a.16.16,0,0,0,.21-.06.68.68,0,0,0,.29-.21l0-.06c0-.07-.09-.15-.2-.15s-.1,0-.14.07Z"/><path class="cls-3" d="M85.64,99.6c0,.08.06.08.12.09h0s0-.12-.09-.11Z"/><path class="cls-3" d="M71.1,93.41v.34h.06a.29.29,0,0,0,.07-.2C71.16,93.53,71.2,93.42,71.1,93.41Z"/><path class="cls-3" d="M65.58,85.13a.48.48,0,0,1-.21.07s-.1.09-.14.14-.1.12,0,.18.11,0,.16,0,.28-.11.29-.28Z"/><path class="cls-3" d="M65.65,83.89s0,0,0,.07h0l.2,0c0-.14,0-.2-.2-.12A.15.15,0,0,1,65.65,83.89Z"/><path class="cls-3" d="M67.09,78.71v-.13c0-.07-.06-.15-.13,0S67,78.71,67.09,78.71Z"/><path class="cls-3" d="M71.3,90.23a.29.29,0,0,1-.13.14c0,.15.1.14.21.13a.13.13,0,0,0,.07-.06l.08-.14C71.48,90.2,71.4,90.19,71.3,90.23Z"/><path class="cls-3" d="M67.65,79.09a.45.45,0,0,0,0-.16c-.07,0-.18-.12-.2.06v.21C67.57,79.26,67.64,79.22,67.65,79.09Z"/><path class="cls-3" d="M67.66,78.71h.06l0-.13c-.06,0,0-.1-.08-.14h0c-.16-.07-.22,0-.29.14l-.06.15c0,.12,0,.13.13.07S67.61,78.8,67.66,78.71Z"/><path class="cls-3" d="M71.59,90.3a.2.2,0,0,0,.21.14c0-.12,0-.24,0-.33A.24.24,0,0,1,71.59,90.3Z"/><path class="cls-3" d="M73,65.4h0c.06,0,.15.11.19,0s-.06-.12-.13-.12S73,65.34,73,65.4Z"/><path class="cls-3" d="M73.39,57.4h0c-.06.06,0,.16-.07.21h0a2.44,2.44,0,0,1,0,.27.08.08,0,0,1,0,.07.41.41,0,0,0,0,.34l0,0a.11.11,0,0,0-.09,0c-.07.15-.15.29,0,.45a2.75,2.75,0,0,0-.11.41c0,.21,0,.43-.09.63a2.17,2.17,0,0,0-.08.76H73a.23.23,0,0,0,.07-.07l0-.09a1.51,1.51,0,0,1,.07-.37,6.34,6.34,0,0,0,.17-1.37c0-.11,0-.22,0-.32a.1.1,0,0,0,0-.05h.06c0-.16.11-.3.09-.47s0-.15.06-.21,0-.13,0-.2,0-.12-.08-.15h0S73.42,57.35,73.39,57.4Z"/><path class="cls-3" d="M71.52,56.8l0,0-.06,0,0,.05S71.49,56.82,71.52,56.8Z"/><path class="cls-3" d="M32.35,67.77l.11,0a.2.2,0,0,0,.08,0c.1,0,.1-.14.14-.22a5.9,5.9,0,0,1,.5-.62l.07-.07h0a.14.14,0,0,0-.13-.06h0l-.08,0-.15.08c-.07,0-.16.06-.2.15s-.21.23-.29.37a1.13,1.13,0,0,1-.1.13l0,0-.06.06-.06,0a.31.31,0,0,0-.09.07.24.24,0,0,0,0,.08.12.12,0,0,0,.08.09h.08l.12,0Z"/><path class="cls-3" d="M34.26,67.54a.13.13,0,0,0-.13-.07.19.19,0,0,1-.16.06c-.19,0-.25.13-.32.24s0,.1.11.11a.59.59,0,0,1,.43-.14A.15.15,0,0,0,34.26,67.54Z"/><path class="cls-3" d="M21.25,96.38v-.07c0-.1,0-.19,0-.28l0,0,0,0h.06a0,0,0,0,0,0-.07.5.5,0,0,1-.07-.27H21.1v.55H21c0,.25,0,.28.2.27Z"/><path class="cls-3" d="M21.21,99.29a1.74,1.74,0,0,1,.63-.17l.06-.06c0-.15.11,0,.14-.11l.06-.06c0-.18-.09-.18-.22-.1a.42.42,0,0,0-.24.12.32.32,0,0,1-.39,0v0a.24.24,0,0,0-.07-.13h0c.28-.06.12-.28.16-.42a5.43,5.43,0,0,1,0-.9,1,1,0,0,0,0-.24v0c0-.12-.15-.21-.07-.34s0,0,0-.06a.18.18,0,0,1-.07-.15c-.06,0-.1,0-.09.11s.06.26,0,.38A1.73,1.73,0,0,1,21,98a.23.23,0,0,0,0,.2.66.66,0,0,1,0,.34v.21c-.06.11.06.23,0,.34a.29.29,0,0,0-.05.13.33.33,0,0,0,0,.14.17.17,0,0,0,.1.1.16.16,0,0,0,.08-.06Zm-.1-.67Z"/><path class="cls-3" d="M22.74,90h0a.28.28,0,0,0,.06-.08v-.12a.15.15,0,0,0-.22,0c-.05.08.05.11.09.16Z"/><path class="cls-3" d="M23.31,91.33a.16.16,0,0,1,.14-.06V91.2l0,0a.14.14,0,0,0-.17-.06l0,0C23.24,91.2,23.22,91.28,23.31,91.33Z"/><path class="cls-3" d="M74.46,55.61v.13C74.53,55.7,74.54,55.66,74.46,55.61Z"/><polygon class="cls-3" points="72.31 56.15 72.31 56.15 72.31 56.15 72.31 56.15"/><path class="cls-3" d="M71.87,56a.2.2,0,0,0,0,.25c.06.06.15,0,.23,0a.27.27,0,0,0,.17-.11,1.11,1.11,0,0,1-.31-.46A1.81,1.81,0,0,1,71.87,56Z"/><path class="cls-3" d="M25.22,73.1c-.11,0-.12.08-.19.09h0s-.06.13,0,.12A.2.2,0,0,0,25.22,73.1Z"/><path class="cls-3" d="M29.32,69h0c.07.12.14,0,.22,0v-.06a0,0,0,0,0-.07,0H29.4S29.35,69,29.32,69Z"/><path class="cls-3" d="M26.53,72.57h0c-.06-.07-.13-.11-.18,0s.06.07.11.08h0A.23.23,0,0,0,26.53,72.57Z"/><path class="cls-3" d="M32.19,73.33s0,.1.06.13c.3-.13.49-.41.79-.55,0-.09.23-.18,0-.27H33A3.69,3.69,0,0,0,32.19,73.33Z"/><path class="cls-3" d="M33.47,72.28l-.07,0s0,0-.06.07h0a.23.23,0,0,0-.07.07h0s0,0-.08.06l.09.08c.1,0,.22,0,.2-.14Z"/><polygon class="cls-3" points="33.18 72.5 33.18 72.5 33.18 72.5 33.18 72.5"/><path class="cls-3" d="M30.44,69.51l0,.07v0c.07.07.13,0,.17,0s.05-.1.11-.12h0s.11,0,.14-.08h0a.18.18,0,0,0,.08-.07c.11-.09.13-.27.28-.33a.18.18,0,0,1,.14-.08l.08-.06h0c.05-.08.06-.17.11-.24s0-.17-.16-.1-.19.28-.36.34a.56.56,0,0,0-.3.17.16.16,0,0,0,0,.09.72.72,0,0,1-.09.2l0,.07a.93.93,0,0,0-.05.1Z"/><path class="cls-3" d="M30,70c.05-.11.24-.19.08-.34h0a.6.6,0,0,1-.11.06l-.1.08h0c-.06.1-.1.19.07.21Z"/><path class="cls-3" d="M30.12,62.56l-.15,0-.07.06c0,.07-.13.07-.2.08a.28.28,0,0,0,.41.05A1.48,1.48,0,0,1,30.12,62.56Z"/><path class="cls-3" d="M92.32,75.69c-.1,0-.21,0-.13.12C92.28,75.81,92.34,75.78,92.32,75.69Z"/><path class="cls-3" d="M87.82,65.61s0,0,0,.06l.55.08c.18,0,.14-.11.08-.21h-.21C88.11,65.56,88,65.47,87.82,65.61Z"/><path class="cls-3" d="M84.62,105.19c.06,0,0-.07,0-.11s0,0,0,0l-.08.06S84.59,105.2,84.62,105.19Z"/><path class="cls-3" d="M23,79.82l-.16,0c-.06,0-.12,0-.15,0s0,.1,0,.15.21,0,.28-.07A.13.13,0,0,0,23,79.82Z"/><path class="cls-3" d="M25.61,77.91c-.13,0-.23.08-.14.24.07,0,.17,0,.2,0s.28.09.43,0C26,78,25.79,78,25.61,77.91Z"/><path class="cls-3" d="M27.27,78c.06.1.14,0,.21,0a1,1,0,0,0,.35-.27c.24-.22.31-.55.56-.77,0-.1.09-.2,0-.35l-.35.44a.39.39,0,0,1-.11.17,2.38,2.38,0,0,0-.4.44h0l-.08.06a.24.24,0,0,1-.11.13C27.28,77.84,27.23,77.9,27.27,78Z"/><path class="cls-3" d="M77.67,98.66c-.09,0-.06.13-.07.2C77.79,98.85,77.72,98.75,77.67,98.66Z"/><path class="cls-3" d="M78,102.31a1,1,0,0,0-.5.13c0,.09.14.07.22.07S78,102.58,78,102.31Z"/><path class="cls-3" d="M78.61,102.11a.59.59,0,0,1,0,.13c0,.24,0,.25.26.13l.07-.06,0,0,0,0H79a.56.56,0,0,1,.22-.21h.06c0-.07.07-.13-.06-.14S78.84,102.1,78.61,102.11Z"/><path class="cls-3" d="M78.38,102.16l-.13,0-.07,0a.06.06,0,0,0,0,.06h.23s.1,0,.08-.08S78.43,102.18,78.38,102.16Z"/><path class="cls-3" d="M77.31,101.66a.08.08,0,0,0,.1-.07c0-.07,0-.09-.1-.11a.09.09,0,0,0-.11.07C77.2,101.61,77.24,101.65,77.31,101.66Z"/><path class="cls-3" d="M81.31,105.36c-.16,0-.26,0-.26.18a.28.28,0,0,0,.18,0l.08-.06Z"/><path class="cls-3" d="M65.8,85.89c0-.11,0-.23,0-.34s-.12-.08-.17,0a.4.4,0,0,0,.1.46h0a.09.09,0,0,0,0-.11s0,0,0,0,0,0,0,0A0,0,0,0,0,65.8,85.89Zm-.08,0h0Z"/><path class="cls-3" d="M77,69.43s0,.07.05.07.09,0,.09-.11,0-.08,0-.08S77,69.36,77,69.43Z"/><path class="cls-3" d="M66.37,92a.3.3,0,0,0,0-.1.22.22,0,0,0,0-.14,1.25,1.25,0,0,0-.24-.16.15.15,0,0,0-.09,0,.29.29,0,0,0-.07.18c0,.11,0,.23,0,.34a1,1,0,0,1-.06.55l0,.13a.14.14,0,0,0,0,.09A.18.18,0,0,0,66,93l0,0c.07,0,.12,0,.1.1a.77.77,0,0,0,0,.37c0,.13.1.13.2.08l.07-.08h0c0-.07,0-.09-.06-.14s0,0,0-.06A2.61,2.61,0,0,1,66.37,92Z"/><path class="cls-3" d="M69.27,96.17h.1V96.1l-.06,0s-.09,0-.12,0S69.22,96.16,69.27,96.17Z"/><path class="cls-3" d="M69.11,96.46a.06.06,0,0,0,0,0h0c0-.07,0-.15-.06-.19a1.21,1.21,0,0,1,0,.19h0S69.1,96.45,69.11,96.46Z"/><path class="cls-3" d="M69.1,95.4c.11,0,.2,0,.21-.13s-.15,0-.22,0Z"/><path class="cls-3" d="M66.24,87.68c.09,0,0,.25.19.14a.66.66,0,0,0,0-.14C66.37,87.67,66.31,87.56,66.24,87.68Z"/><path class="cls-3" d="M61.23,79.34c0,.08,0,.11.12.12s.09-.16.08-.26A.17.17,0,0,0,61.23,79.34Z"/><path class="cls-3" d="M46.71,72.29a.3.3,0,0,0,.29.06l.08,0a.12.12,0,0,0,0-.14h0a3.9,3.9,0,0,1-.49-.28h0a.12.12,0,0,1-.08-.06.46.46,0,0,1-.07-.07l-.07-.06h0c-.14,0-.13.14-.05.23s.16.09.18.18h0l.08.06.07.07a.23.23,0,0,0,.07.07Z"/><path class="cls-3" d="M54.58,71.27v0h.08C54.66,71.25,54.61,71.27,54.58,71.27Z"/><path class="cls-3" d="M31.67,68.43a.15.15,0,0,0,0-.07c.05,0,0-.1.08-.13h0a.24.24,0,0,0-.23-.15l-.21.07a.27.27,0,0,1-.07.08h0a.16.16,0,0,0,.15.06s0,0,0,0,0,0,0,0,.06,0,.07,0S31.59,68.42,31.67,68.43Z"/><path class="cls-3" d="M90.19,75.26c-.06,0-.11,0-.15,0s0,.08,0,.12h0s.09.07.14,0v-.14Z"/><path class="cls-3" d="M82.11,75.82h0c0-.07.15,0,.21-.07v-.08H82A.22.22,0,0,0,82.11,75.82Z"/><path class="cls-3" d="M22.84,87.9c0-.06-.09-.14-.18-.12s-.05.11-.06.18v.17l.12-.08C22.78,88,22.91,88,22.84,87.9Z"/><path class="cls-3" d="M79.46,63.26s0,.07,0,.1-.06.14,0,.17a.14.14,0,0,0,.17-.08.42.42,0,0,0,0-.12A.26.26,0,0,0,79.46,63.26Z"/><polygon class="cls-3" points="28.18 77.47 28.18 77.47 28.18 77.47 28.18 77.47"/><path class="cls-3" d="M28.16,77.5l0,0S28.14,77.5,28.16,77.5Z"/><path class="cls-3" d="M32.18,62.08c0-.09,0-.13-.14-.13L32,62C32,62.1,32.1,62.09,32.18,62.08Z"/><path class="cls-3" d="M89,71h0s0,0,0,0h0S89,71,89,71Z"/><path class="cls-3" d="M89.62,71l0,0s0,0,0,0Z"/><path class="cls-3" d="M90.09,74.56s-.07,0-.11,0v.13S90.1,74.64,90.09,74.56Z"/><path class="cls-3" d="M23.89,78.57c-.05,0-.07-.11-.12-.08s0,.1,0,.14l.11.08h0S23.9,78.62,23.89,78.57Z"/><path class="cls-3" d="M73,102.66s-.12.06-.09.11.1,0,.15,0v-.13Z"/><path class="cls-3" d="M77,103.06a.31.31,0,0,0,.29,0c0-.06.07-.14-.06-.15A.2.2,0,0,0,77,103.06Z"/><path class="cls-3" d="M78.09,102.53c-.15,0-.27.08-.42,0-.14.13.06.14.08.21.17,0,.22-.15.34-.21Z"/><path class="cls-3" d="M74.09,103.06s-.1,0-.14.07h-.14l-.36.21c-.13,0-.25.05-.21.2s.17.12.29.06a3.18,3.18,0,0,1,.32-.16c.14-.07.37,0,.39-.24s-.06-.14-.15-.15Z"/><path class="cls-3" d="M76.22,104s0,0,0-.08l-.28.08c0,.16.13.08.19.1S76.21,104.05,76.22,104Z"/><path class="cls-3" d="M62.65,87.48s0,.11.09.1l0,0C62.77,87.48,62.71,87.48,62.65,87.48Z"/><path class="cls-3" d="M78.52,75.06a.14.14,0,0,1,0,.06c.2,0,.2,0,.14-.14S78.56,75,78.52,75.06Z"/><path class="cls-3" d="M66,90.59a.08.08,0,0,0,0,.08s.06,0,.06-.06,0-.07,0-.07A0,0,0,0,0,66,90.59Z"/><path class="cls-3" d="M60.06,82.8H60c-.08.08-.1.22-.23.26-.18.26-.16.32.14.34,0-.05,0-.14,0-.15C60.15,83.16,60.08,83,60.06,82.8Z"/><path class="cls-3" d="M61.14,81.9l-.06-.08c-.08,0-.19,0-.18.09s0,.18.16.17S61.14,82,61.14,81.9Z"/><path class="cls-3" d="M56.28,78l-.06-.14c-.1,0-.16,0-.14.14Z"/><path class="cls-3" d="M48.71,73.19c-.05.1,0,.16.09.14s.49-.19.73,0l0-.09c-.14-.06,0-.2-.08-.27a.57.57,0,0,1-.35-.14c0,.11-.09.23-.26.2S48.72,73.09,48.71,73.19Z"/><path class="cls-3" d="M87.61,74h.07c.09-.11,0-.15-.07-.2h0C87.44,73.9,87.49,74,87.61,74Z"/><path class="cls-3" d="M82.6,75.2h-.06c-.07.08,0,.19-.06.27l.06.07h.13l.07-.07C82.91,75.27,82.68,75.28,82.6,75.2Z"/><path class="cls-3" d="M83.41,73.52s.1,0,.08-.09-.1,0-.16,0v0Z"/><path class="cls-3" d="M24.82,91s0,0-.05,0l0,0a.07.07,0,0,0,.06,0A0,0,0,0,0,24.82,91Z"/><path class="cls-3" d="M37.77,88a.44.44,0,0,0-.16-.35,3.75,3.75,0,0,1-.35-.89c-.1.13,0,.26-.14.34s.18.32.23.51a1.75,1.75,0,0,0,.27.59C37.77,88.17,37.75,88.06,37.77,88Z"/><path class="cls-3" d="M38.46,90.25c-.06-.06-.05-.14-.05-.22a1.34,1.34,0,0,0,0-.28c0-.25-.17-.44-.2-.67a.2.2,0,0,0-.08,0h0v-.11h-.07a.09.09,0,0,0-.15,0,.21.21,0,0,0,0,.31.73.73,0,0,1,.15.49.51.51,0,0,0,.07.26.12.12,0,0,1,.06.08l.08.2a.12.12,0,0,1,.08.13A.18.18,0,0,0,38.46,90.25Z"/><path class="cls-3" d="M37,89.27h-.1c-.06,0-.13,0-.15.07s.05.09.1.13.25,0,.37-.07C37.15,89.31,37,89.36,37,89.27Z"/><path class="cls-3" d="M35.75,76.73h-.13c0,.11,0,.25.14.27A.27.27,0,0,0,35.75,76.73Z"/><path class="cls-3" d="M27.18,83.47c.09,0,.14,0,.14-.13A.35.35,0,0,0,27,83.2c0,.13.06.2.14.27Z"/><path class="cls-3" d="M70.27,101.75s0,.07,0,.11.08,0,.13,0v-.07S70.29,101.74,70.27,101.75Z"/><path class="cls-3" d="M72.21,102.88c.23.06.23.06.24-.09C72.37,102.81,72.26,102.77,72.21,102.88Z"/><path class="cls-3" d="M74,104.94,74,105c-.06.1,0,.16.09.12a3,3,0,0,0,.4-.2s.11,0,.15-.07h0c0-.08-.14-.06-.22-.07a.27.27,0,0,1-.08.07Z"/><path class="cls-3" d="M61.26,95.45a.15.15,0,0,0,0,.23.57.57,0,0,0,.08-.13l.06-.07h0C61.38,95.41,61.32,95.39,61.26,95.45Z"/><path class="cls-3" d="M66,92.17c0-.09-.1-.14-.21-.07a.61.61,0,0,1-.07.14C65.8,92.34,65.9,92.34,66,92.17Z"/><path class="cls-3" d="M79.53,67.74a.12.12,0,0,0,.14.14A.12.12,0,0,0,79.53,67.74Z"/><path class="cls-3" d="M47.59,74.71a.31.31,0,0,0,0,.08.17.17,0,0,0,.07.1l0,0,.14,0c.11,0,.26,0,.28-.15h0c-.13-.09-.38-.09-.34-.35-.07,0-.12,0-.17,0S47.6,74.6,47.59,74.71Z"/><path class="cls-3" d="M48.57,75s0,0,0,0,.07.07.12.09h0S48.65,75,48.57,75Z"/><path class="cls-3" d="M46.59,73.74h.11l-.06-.08s-.08-.06-.11,0S46.54,73.74,46.59,73.74Z"/><path class="cls-3" d="M47.64,73.33c0,.19.17.16.28.2.18-.14,0-.18-.08-.27l-.14-.13c-.06,0-.06.08-.07.13A.2.2,0,0,1,47.64,73.33Z"/><path class="cls-3" d="M22.25,100.85c-.08,0-.16,0-.24.05.11,0,.21.07.29,0Z"/><path class="cls-3" d="M23.88,101.89c.06-.07,0-.16.08-.23v-.32h0c0-.09,0-.19-.12-.19a1,1,0,0,0,0,.17h0a.06.06,0,0,0,0,.09h0a0,0,0,0,1,0,.07v.13s0,.11-.07.15h0c0,.08,0,.23.14.14Z"/><path class="cls-3" d="M87.05,73.9H87l0,0a.06.06,0,0,0,.09,0S87.08,73.91,87.05,73.9Z"/><path class="cls-3" d="M26.82,96.86a.84.84,0,0,0,0-.35c0-.06,0-.06-.09-.06-.12.16-.06.39-.22.55h0c0,.07-.06.15,0,.21s.15,0,.2-.07a.34.34,0,0,0,.07-.24Z"/><path class="cls-3" d="M85,70.3A1.06,1.06,0,0,1,84.4,70h0l-.09,0c0-.13-.26,0-.3-.16s0-.14-.05-.22,0-.15-.13-.22c0,.22-.07.33-.3.37.19.23.51.19.65.4a4.92,4.92,0,0,0,1,.56c.07,0,.16,0,.2-.06l-.06-.07c0-.07-.15-.08-.2-.15A.24.24,0,0,1,85,70.3Z"/><path class="cls-3" d="M28.89,89.19l.07-.06c0-.13.15-.2.14-.34s0-.16-.14-.08-.41.21-.28.49h0A.15.15,0,0,0,28.89,89.19Z"/><path class="cls-3" d="M28.32,91.27l-.14.06c-.06,0-.12,0-.14,0s0,.1.07.12h.21A.17.17,0,0,0,28.32,91.27Z"/><path class="cls-3" d="M38,88.57s0,0,0,0c-.19-.11-.2-.1-.22.12a.18.18,0,0,1,.08.13C37.94,88.73,37.89,88.61,38,88.57Z"/><path class="cls-3" d="M37.61,82.94c-.08,0-.11-.17-.22-.09s0,.16,0,.24v0h.14A.23.23,0,0,0,37.61,82.94Z"/><path class="cls-3" d="M36.73,78.62l0,.06,0,0,0,0S36.74,78.64,36.73,78.62Z"/><path class="cls-3" d="M71.3,103.68l-.14.08c-.3.1-.3.1-.43-.18,0,0,0,0-.13,0h0a.28.28,0,0,1,0,.28h0s0,0,0,.07h0l0,0c0,.14,0,.2.15.14h0s0,0,0,0c.25.07.38-.12.54-.23l.12-.08a.16.16,0,0,0,.08-.06s0-.1,0-.14S71.34,103.66,71.3,103.68Z"/><path class="cls-3" d="M71.24,104.93a.17.17,0,0,0,.28,0h.21c0-.05.22-.1,0-.15h-.28C71.3,104.73,71.25,104.8,71.24,104.93Z"/><path class="cls-3" d="M71.62,103.89h.26l.08-.06s.07-.07.07-.11,0,0-.08,0A.49.49,0,0,0,71.62,103.89Z"/><path class="cls-3" d="M71.8,103.49h-.21c0,.06-.07.14,0,.18s.12,0,.17-.08S71.79,103.52,71.8,103.49Z"/><path class="cls-3" d="M70.87,105.13c-.1-.11-.23,0-.34-.06s.06.15.18.12Z"/><path class="cls-3" d="M47.7,88.68c0,.07,0,.14-.06.18l0,0a.58.58,0,0,0-.06.26c0,.13,0,.29.15.36a.17.17,0,0,0,.1,0c0-.12-.13-.23,0-.35a1,1,0,0,1,.07-.41s0-.09-.06-.11S47.71,88.64,47.7,88.68Z"/><path class="cls-3" d="M56.72,93.75c0-.07.11-.14,0-.21h-.13l-.17,0-.09,0a.74.74,0,0,0-.21,0h-.59l.2.13c.13,0,.23,0,.21.2A.13.13,0,0,0,56,94h.13v-.1l0,0,0,0a.13.13,0,0,1,.09,0c.07,0,0,.07,0,.1s-.09.17,0,.25h.2c.14,0,.33,0,.4-.1S56.7,93.9,56.72,93.75Z"/><path class="cls-3" d="M56.89,91.3a.59.59,0,0,0,0,.08c0,.05.07.14.15.08s.05-.17,0-.26v-.07h0L57,91.06c0-.07-.06-.13-.08-.19s-.07.17-.07.26S56.87,91.24,56.89,91.3Z"/><path class="cls-3" d="M51.88,93.15c-.13,0,0,.17,0,.25h0l.07.07h0c.08,0,.1,0,.13-.07v-.05C52,93.31,52,93.1,51.88,93.15Z"/><path class="cls-3" d="M58.93,91.26s.07,0,.11,0l.09-.07,0,0c0-.08,0-.16-.08-.21a1.48,1.48,0,0,0-.29.27A.13.13,0,0,0,58.93,91.26Z"/><path class="cls-3" d="M61.17,96.09c0,.09.06.11.12.15h0l.07-.07h0c0-.07,0-.13-.11-.13A.08.08,0,0,0,61.17,96.09Z"/><path class="cls-3" d="M60.56,96.71c0,.19.11.05.17,0h0a.17.17,0,0,0-.08-.14h0a.46.46,0,0,1-.07.07S60.57,96.69,60.56,96.71Z"/><path class="cls-3" d="M61.52,95.76c0,.15.07.08.13.06S61.58,95.75,61.52,95.76Z"/><path class="cls-3" d="M60.44,96.87s0,.09-.08.12h0a.19.19,0,0,1-.08.07h-.06a.12.12,0,0,0-.08.1s0,0,.08,0h.28c0-.08,0-.16.08-.21v-.06c0-.12,0-.12-.14-.07Z"/><path class="cls-3" d="M49.14,80s0,0,0,0,0,0,0,0a.14.14,0,0,0-.14.14.09.09,0,0,0,0,.07.1.1,0,0,0,0,.06l.14,0A.32.32,0,0,0,49.14,80Z"/><path class="cls-3" d="M27.68,86.23s-.09-.07-.14,0,0,.05,0,.06.11,0,.16,0Z"/><path class="cls-3" d="M24,100.78c0-.09-.05-.12-.12-.12l0,.06v.13C24,100.85,24,100.85,24,100.78Z"/><path class="cls-3" d="M26.37,101.13s0-.09,0-.13a.1.1,0,0,0-.14,0C26.25,101.08,26.27,101.13,26.37,101.13Z"/><polygon class="cls-3" points="26.25 101 26.25 101 26.25 101 26.25 101"/><path class="cls-3" d="M46.91,95.76h0c.05.19.15.37.21.55v.06c.22.31.22.31.23.48s.13.33.36.33A.24.24,0,0,0,47.9,97a.24.24,0,0,0-.09-.23.12.12,0,0,0-.1,0h0a.17.17,0,0,0,0-.17.16.16,0,0,0,0-.09.26.26,0,0,0-.28-.21h0v-.09s0,0,0,0,0-.14-.09-.21-.12-.37-.38-.37C46.89,95.63,46.86,95.68,46.91,95.76Z"/><path class="cls-3" d="M40.27,95.09c0,.31,0,.35,0,.36a.08.08,0,0,0,.07,0A.26.26,0,0,0,40.27,95.09Z"/><path class="cls-3" d="M26.06,98.68c0,.1-.09.2,0,.31l0,0c.06,0,.12,0,.17,0h0s.05,0,.08-.06.28-.06.06-.2c-.06,0-.16.08-.2,0S26.09,98.62,26.06,98.68Z"/><path class="cls-3" d="M40.77,105.68c.06,0,.11,0,.13-.05A.11.11,0,0,0,40.77,105.68Z"/><path class="cls-3" d="M44.69,91.9c.07,0,.24,0,.15-.14s-.3,0-.42-.09a.09.09,0,0,1-.07,0,.08.08,0,0,0-.08,0l-.14,0v0c-.08,0-.16,0-.23,0a.45.45,0,0,0,.23,0,.15.15,0,0,1,.14.07l.08.07h.06a.31.31,0,0,0,.19,0Z"/><path class="cls-3" d="M46.13,93.69l0,0a.29.29,0,0,1-.11-.19l0-.08a.31.31,0,0,0-.26-.24h0a.14.14,0,0,0-.14.06l.22.41c.06.06,0,.15.07.21h0l.07.06C46.09,93.91,46.14,93.83,46.13,93.69Z"/><path class="cls-3" d="M42.42,91.88h.06l.06-.07v0l0-.08s0-.09,0-.13.16,0,.21-.07-.13,0-.14-.12l-.08,0,0,0c-.07,0-.15-.12-.24,0h0l.06.25.07,0A.37.37,0,0,0,42.42,91.88Z"/><path class="cls-3" d="M41.22,83.25h0c0-.07,0-.14-.07-.19A.18.18,0,0,1,41,83c-.11.09-.09.18,0,.27a.13.13,0,0,0,0,.06h.06v.06a.43.43,0,0,1,.15.27l.07.08h0a.49.49,0,0,0,.13.28.41.41,0,0,0,.15.14.59.59,0,0,1,.08.32c.06.07,0,.16.07.22h0c0,.05,0,.11.06.16a.18.18,0,0,1,.05.16.08.08,0,0,0,.07,0,.21.21,0,0,1,.29-.1h0a.22.22,0,0,0,0,.09,1.23,1.23,0,0,0,.17.32.41.41,0,0,1,.07.11l0,.07a.36.36,0,0,0,.18.24c.15,0,.21.11.28.21s.17.09.2,0a1,1,0,0,0-.21-.43.35.35,0,0,0,0-.08c-.14-.14-.18-.33-.3-.48h0l-.06-.07c-.07,0-.12-.1-.22-.09s.08-.12,0-.15c-.22-.21-.35-.49-.62-.64h0a.69.69,0,0,0-.08-.35A1,1,0,0,0,41.22,83.25Z"/><path class="cls-3" d="M47.59,90.55c.09.09.13,0,.18,0v-.14a.1.1,0,0,1,0-.14V90.1c-.11-.07,0-.22-.14-.28C47.41,90.05,47.56,90.3,47.59,90.55Z"/><path class="cls-3" d="M53.64,95.82l.06-.07c0-.23-.16-.11-.27-.06a.13.13,0,0,1,0,.06C53.47,95.84,53.56,95.83,53.64,95.82Z"/><path class="cls-3" d="M57.77,91.93c.07,0,.08-.06.09-.11s-.09-.14-.14-.2-.19,0-.19.11S57.67,91.9,57.77,91.93Z"/><path class="cls-3" d="M57.29,93.48c0,.07.08.17.17,0l0-.1s0-.11-.07-.15h0C57.27,93.32,57.29,93.41,57.29,93.48Z"/><path class="cls-3" d="M58.14,92.1h0a.24.24,0,0,0-.08-.06c-.07,0-.12,0-.12.09a.11.11,0,0,0,0,.06c.06,0,.09,0,.12-.06Z"/><path class="cls-3" d="M56.84,92.46a.06.06,0,0,0,.08,0c.06,0,.07,0,.07-.1s0-.06-.07,0A.14.14,0,0,0,56.84,92.46Z"/><path class="cls-3" d="M57.08,93.06h0c0,.06.1.1.17,0a.07.07,0,0,0,0-.11C57.15,92.93,57.14,93.05,57.08,93.06Z"/><path class="cls-3" d="M56.15,94.52v.06h0s0,.1.07.13.07.06.13.06,0-.07,0-.12,0-.13-.08-.2,0,0,0,0,0,0,0,0Z"/><path class="cls-3" d="M49.93,105.4a.16.16,0,0,0,0-.13l0-.09c-.06-.18,0-.39-.2-.55s-.11-.09-.18,0v.07a.12.12,0,0,0,0,.15,8.54,8.54,0,0,0,.29,1C50,105.7,49.89,105.54,49.93,105.4Z"/><path class="cls-3" d="M35.6,102.7c0-.1-.07-.13-.15-.15s-.09,0-.09.09.09.11.17.12A.06.06,0,0,0,35.6,102.7Z"/><path class="cls-3" d="M45.43,91.47h-.15v.06l.06.07.22.14a.11.11,0,0,0,0-.14A.32.32,0,0,0,45.43,91.47Z"/><polygon class="cls-3" points="45.56 91.75 45.56 91.75 45.56 91.75 45.56 91.75"/><path class="cls-3" d="M44.48,89.62h0c.14,0,.2,0,.14-.15h0C44.54,89.48,44.48,89.52,44.48,89.62Z"/><path class="cls-3" d="M43.9,88.45c0,.14.15.18.23.27s.13.22.27.29c0-.11-.07-.2,0-.3a.09.09,0,0,0,0-.13h0c-.17,0-.16-.25-.29-.34h0L44,88.17h0a.24.24,0,0,0-.06-.08s0-.06-.08-.06,0,.28,0,.41Z"/><path class="cls-3" d="M43.13,88.72h.09l.05,0c0-.13-.16-.16-.14-.28l-.07-.07C42.88,88.53,43.1,88.61,43.13,88.72Z"/><path class="cls-3" d="M45.48,91.9l-.21-.11a.13.13,0,0,0-.15,0c0,.06.07.07.1.12S45.45,92.13,45.48,91.9Z"/><path class="cls-3" d="M47.22,94.51l-.08-.08a.16.16,0,0,0-.08.15C47.13,94.58,47.19,94.57,47.22,94.51Z"/><path class="cls-3" d="M47.7,92.58a2.54,2.54,0,0,0,0,.55l.14-.06a1.48,1.48,0,0,0,0-.21C47.73,92.8,47.82,92.64,47.7,92.58Z"/><path class="cls-3" d="M47.85,92.24h-.07c-.11.11,0,.13.06.14S47.91,92.28,47.85,92.24Z"/><path class="cls-3" d="M43.24,86.68a.11.11,0,0,0,.06-.07.14.14,0,0,0-.1-.1c-.15-.08-.21-.25-.35-.34a.61.61,0,0,0,.13.41l.08.07h0A.17.17,0,0,0,43.24,86.68Z"/><path class="cls-3" d="M40.54,82.52l.22.34c.07,0,.08-.09.09-.15s-.06-.28-.21-.35S40.51,82.43,40.54,82.52Z"/><path class="cls-3" d="M69.88,104.36l-.08,0a.12.12,0,0,0-.13,0l-.44.21-.07.06c-.11.08-.25,0-.36.07h-.2c-.07,0-.12,0-.15.07h0c-.1,0-.17.14-.29.13l-.07.07H68a.46.46,0,0,0-.07.07.15.15,0,0,1-.15.06l-.36.07c-.09,0-.21,0-.28.08h0c-.13.18-.41.08-.55.27a.54.54,0,0,0,.56-.07.44.44,0,0,1,.27-.07h0c.07-.06.15,0,.22,0l.09,0c.1,0,.2-.11.32-.07s.18-.06.23-.16.32-.08.44-.19a.2.2,0,0,0,.15-.06.52.52,0,0,0,.34-.09.11.11,0,0,1,.15,0h.07a.52.52,0,0,1,.37,0,1.14,1.14,0,0,0,.55-.19h-.06c-.11,0-.11-.13-.14-.21h0s0,0,0-.05-.12-.09-.19,0A.3.3,0,0,1,69.88,104.36Z"/><path class="cls-3" d="M56.82,105.75s0,.07.08.08H57v-.06l-.06,0S56.84,105.69,56.82,105.75Z"/><path class="cls-3" d="M41.9,84.1c.08.09.12.21.27.25,0-.17-.07-.27-.12-.39H42A.19.19,0,0,0,41.9,84.1Z"/><path class="cls-3" d="M50.36,95.26h0s0,0,0,0a0,0,0,0,0,0,0h.07c.12,0,.25.06.35-.06l-.14-.13C50.38,95,50.38,95,50.36,95.26Z"/><path class="cls-3" d="M52.3,95.22s.08,0,.12,0a.34.34,0,0,0,0-.1c0-.06,0-.14-.09-.12S52.27,95.16,52.3,95.22Z"/><path class="cls-3" d="M57.43,93.89l.14.07s0,0,0-.06a.43.43,0,0,0-.09-.21C57.31,93.71,57.45,93.82,57.43,93.89Z"/><path class="cls-3" d="M59.64,97.13c.14,0,.28.05.46-.07a.35.35,0,0,1-.31-.14h-.06C59.71,97,59.61,97,59.64,97.13Z"/><polygon class="cls-3" points="59.11 94.77 59.12 94.75 59.1 94.75 59.11 94.77"/><path class="cls-3" d="M67.59,101.4c-.06,0-.09.07-.07.13s.09,0,.14,0S67.71,101.4,67.59,101.4Z"/><path class="cls-3" d="M47.91,99.56H47.8s-.13,0-.13.07,0,0,.09.07.06,0,.09,0S47.92,99.63,47.91,99.56Z"/><path class="cls-3" d="M48.79,105.72c-.13,0-.15.08-.15.18h-.07V106c.14.12,0,.25,0,.37s.12-.08.19-.09a.5.5,0,0,0,.07-.27v-.08C48.84,105.82,48.87,105.73,48.79,105.72Z"/><path class="cls-3" d="M48.2,96.66c-.08-.07-.05-.17-.08-.25s-.1-.1-.16,0a.42.42,0,0,0,0,.12,2.06,2.06,0,0,1,.15.48l.14-.13C48.21,96.79,48.2,96.72,48.2,96.66Z"/><path class="cls-3" d="M48.66,100.71h0a.57.57,0,0,1,.08.26,1.48,1.48,0,0,0,.13.58h0c.12.45.14.91.23,1.37.12.09,0,.26.13.35h0c0,.27.18.48.16.74l.06,0a.13.13,0,0,0,0,.06.15.15,0,0,0,.06-.13l0-.06s0,0,0-.08v-.17a.19.19,0,0,0,0-.08,1.15,1.15,0,0,1-.11-.39.22.22,0,0,0,0-.08l0,0v0a.46.46,0,0,0,0-.2,2.46,2.46,0,0,0-.09-.29,4,4,0,0,0-.12-.62.69.69,0,0,1-.09-.34v-.09a.16.16,0,0,0,0-.12.08.08,0,0,0-.07,0h0a.18.18,0,0,0,0-.14,1.63,1.63,0,0,1,0-.44c0-.11,0-.23-.16-.25l0,0c-.07,0,0-.14-.12-.15A.5.5,0,0,0,48.66,100.71Z"/><path class="cls-3" d="M47.83,95.62s.06,0,.09.07a.18.18,0,0,0,.15-.07c0-.06.1-.11.09-.19a.19.19,0,0,0,0-.08L48,95.16l0,0c-.15.11,0,.31-.14.42h0A.06.06,0,0,0,47.83,95.62Z"/><path class="cls-3" d="M47.56,95.82a.17.17,0,0,1,0,.07s0,.1.07.1.08,0,.08-.11a.57.57,0,0,0,0-.13h-.07A.08.08,0,0,0,47.56,95.82Z"/><path class="cls-3" d="M47.85,93.54a.13.13,0,0,0,0-.06c-.12.15-.05.32,0,.48C47.88,93.82,47.83,93.68,47.85,93.54Z"/><path class="cls-3" d="M48.27,92.3c-.06,0,0,.09,0,.14s.15,0,.15-.06S48.34,92.31,48.27,92.3Z"/><path class="cls-3" d="M51.21,98.31h0s-.18,0-.13.11.18.06.27,0h0C51.35,98.35,51.31,98.31,51.21,98.31Z"/><path class="cls-3" d="M52.45,97.83s0-.11,0-.15,0,0,0-.06-.19.09-.28.13h0c-.06.08,0,.13,0,.17a.09.09,0,0,0,.1,0h0A.53.53,0,0,0,52.45,97.83Z"/><path class="cls-3" d="M57.51,94.16l.1.17.1-.17C57.64,94.07,57.58,94.07,57.51,94.16Z"/><path class="cls-3" d="M58.07,95.62c-.11-.1,0-.23-.07-.35s0,0,0-.06h0a.49.49,0,0,0,0-.12s-.07-.1-.1-.16h0a.6.6,0,0,1-.08.08.18.18,0,0,0,0,.2.13.13,0,0,1,0,.06s0,.11.06.15v.13a4.88,4.88,0,0,1,.21.9v0a.35.35,0,0,0,0,.2l0,0c.08,0,.16,0,.12-.12a.27.27,0,0,1,.09-.36.22.22,0,0,0,.07-.19C58.11,96,58.11,96,58.07,95.62Z"/><path class="cls-3" d="M48.63,94.86V94.8a.13.13,0,0,0,0-.16c0-.06-.1-.16-.15,0s0,.11-.07.15v.07s0,0,0,.07V95C48.59,95.09,48.57,94.92,48.63,94.86Z"/><path class="cls-3" d="M58.37,99.42a.19.19,0,0,0-.24,0c0,.1.06.17.09.25S58.36,99.51,58.37,99.42Z"/><path class="cls-3" d="M56.85,100.74s0,.09.08.09.07,0,.07-.09,0-.09-.08-.1S56.85,100.69,56.85,100.74Z"/><path class="cls-3" d="M52.46,98.22a.17.17,0,0,0-.14,0s0,.06,0,.08,0,0,.07,0,.16,0,.15.14-.08.13,0,.21a.86.86,0,0,0,.31-.38s0-.11,0-.16,0-.11-.1-.11S52.63,98.28,52.46,98.22Z"/><path class="cls-3" d="M52.28,99.68a.13.13,0,0,1,0-.06.13.13,0,0,1,.07-.06h0a1.59,1.59,0,0,0,.13-.13c-.06-.06-.13,0-.2,0s-.22.37-.39.51L52,100l.2-.15C52.26,99.79,52.24,99.72,52.28,99.68Z"/><path class="cls-3" d="M51.42,104.52c-.09-.11-.19,0-.28,0C51.29,104.7,51.33,104.7,51.42,104.52Z"/><path class="cls-3" d="M53.92,104.07v0c0-.05-.09,0-.14,0h0c0,.11-.15.23,0,.34v-.05l.06-.08a.17.17,0,0,1,.07-.14Z"/><path class="cls-3" d="M48.44,95.36h0s0,0,0,0,0,0,0,0Z"/></g></g><g id="visLines"><g class="cls-4"><rect class="cls-5" x="45.47" y="23.16" width="0.51" height="59.5"/><rect class="cls-6" x="45.98" y="23.16" width="0.51" height="59.5"/><rect class="cls-7" x="46.49" y="23.16" width="0.51" height="59.5"/><rect class="cls-8" x="47" y="23.16" width="0.51" height="59.5"/></g><path class="cls-9" d="M50.72,83.86a1.29,1.29,0,0,0-.62-.37,1.12,1.12,0,0,0-.44-.06,1.17,1.17,0,0,0-.77.31,1.68,1.68,0,0,0-.43.66,1.56,1.56,0,0,0-.1.53,1.9,1.9,0,0,0,.06.5,1.62,1.62,0,0,0,.41.72,1.21,1.21,0,0,0,.61.32,1.1,1.1,0,0,0,.41,0,1.19,1.19,0,0,0,.44-.11,1.25,1.25,0,0,0,.43-.31,1.21,1.21,0,0,0,.35-.78c0-.22-.06-.33-.14-.32s-.11.12-.17.29a3.18,3.18,0,0,1-.28.55,1.26,1.26,0,0,1-.43.38,1,1,0,0,1-.57,0,1,1,0,0,1-.58-.34,1,1,0,0,1-.18-.31,1.68,1.68,0,0,1-.11-.4,1.29,1.29,0,0,1,0-.65,1.26,1.26,0,0,1,.47-.64l.13-.07.13,0,.19-.06a1,1,0,0,1,.52.09.6.6,0,0,1,.11.06,1.19,1.19,0,0,1,.18.15l.1.13a2.33,2.33,0,0,1,.28.59c.06.15.11.24.19.25s.12-.15.1-.38A1.13,1.13,0,0,0,50.72,83.86Z"/><path class="cls-9" d="M48.71,21.32a4.16,4.16,0,0,0-.48.09c-.14,0-.17,0-.31,0H46.84l-.33,0H46.2c-.18,0-.33,0-.52,0l-.47,0h-.28l-.66-.11a.94.94,0,0,0-.51,0,.29.29,0,0,0-.19.27c0,.1.09.19.22.24a1,1,0,0,0,.48,0l.47-.08c.18,0,.3,0,.47,0a5.21,5.21,0,0,1,.55,0,3.37,3.37,0,0,0,.58,0l.48,0,.62,0h1.14l.13,0a1,1,0,0,0,.51,0,.27.27,0,0,0,.19-.27c0-.09-.09-.18-.22-.22A1.09,1.09,0,0,0,48.71,21.32Z"/><circle class="cls-9" cx="53.25" cy="21.57" r="1.03"/><path class="cls-9" d="M61.84,87.58H37.46a6.39,6.39,0,0,1-6.38-6.39V25.67a6.38,6.38,0,0,1,6.38-6.38H61.84a6.38,6.38,0,0,1,6.38,6.38V81.19A6.39,6.39,0,0,1,61.84,87.58ZM37.46,19.79a5.89,5.89,0,0,0-5.88,5.88V81.19a5.89,5.89,0,0,0,5.88,5.89H61.84a5.89,5.89,0,0,0,5.88-5.89V25.67a5.89,5.89,0,0,0-5.88-5.88Z"/><path class="cls-9" d="M61.66,82.91H38a4.26,4.26,0,0,1-4.25-4.25V27.41A4.26,4.26,0,0,1,38,23.16H61.66a4.25,4.25,0,0,1,4.25,4.25V78.66A4.25,4.25,0,0,1,61.66,82.91ZM38,23.41a4,4,0,0,0-4,4V78.66a4,4,0,0,0,4,4H61.66a4,4,0,0,0,4-4V27.41a4,4,0,0,0-4-4Z"/><path class="cls-9" d="M67.72,35.12a1.1,1.1,0,0,1,1.1,1.1v5.36a1.1,1.1,0,0,1-1.1,1.1h0"/><path class="cls-9" d="M31.23,32.43a.58.58,0,0,1-.58-.59V29.49a.58.58,0,0,1,.58-.58h0"/><path class="cls-9" d="M31.23,39.54a.59.59,0,0,1-.58-.59V34.7a.59.59,0,0,1,.58-.59h0"/><path class="cls-9" d="M31.23,45.83h0a.58.58,0,0,1-.58-.58V41a.58.58,0,0,1,.58-.58h0"/></g></svg>