<svg xmlns="http://www.w3.org/2000/svg" xmlns:xlink="http://www.w3.org/1999/xlink" viewBox="0 0 106 106"><defs><style>.cls-1{fill:none;}.cls-2{fill:#1d1d1b;}.cls-3{fill:#fff;}.cls-4,.cls-6{fill:#62bfb3;}.cls-5{clip-path:url(#clip-path);}.cls-6{fill-rule:evenodd;}</style><clipPath id="clip-path"><rect class="cls-1" x="0.2" y="109.85" width="106.08" height="27.76" rx="4.5"/></clipPath></defs><title>webIcons</title><g id="Icon_Cam_1" data-name="Icon Cam 1"><path class="cls-2" d="M50.72,83.86a1.29,1.29,0,0,0-.62-.37,1.12,1.12,0,0,0-.44-.06,1.17,1.17,0,0,0-.77.31,1.68,1.68,0,0,0-.43.66,1.56,1.56,0,0,0-.1.53,1.9,1.9,0,0,0,.06.5,1.62,1.62,0,0,0,.41.72,1.21,1.21,0,0,0,.61.32,1.1,1.1,0,0,0,.41,0,1.19,1.19,0,0,0,.44-.11,1.25,1.25,0,0,0,.43-.31,1.21,1.21,0,0,0,.35-.78c0-.22-.06-.33-.14-.32s-.11.12-.17.29a3.18,3.18,0,0,1-.28.55,1.26,1.26,0,0,1-.43.38,1,1,0,0,1-.57,0,1,1,0,0,1-.58-.34,1,1,0,0,1-.18-.31,1.68,1.68,0,0,1-.11-.4,1.29,1.29,0,0,1,0-.65,1.26,1.26,0,0,1,.47-.64l.13-.07.13,0,.19-.06a1,1,0,0,1,.52.09.6.6,0,0,1,.11.06,1.19,1.19,0,0,1,.18.15l.1.13a2.33,2.33,0,0,1,.28.59c.06.15.11.24.19.25s.12-.15.1-.38A1.13,1.13,0,0,0,50.72,83.86Z"/><path class="cls-2" d="M48.71,21.32a4.16,4.16,0,0,0-.48.09c-.14,0-.17,0-.31,0H46.84l-.33,0H46.2c-.18,0-.33,0-.52,0l-.47,0h-.28l-.66-.11a.94.94,0,0,0-.51,0,.29.29,0,0,0-.19.27c0,.1.09.19.22.24a1,1,0,0,0,.48,0l.47-.08c.18,0,.3,0,.47,0a5.21,5.21,0,0,1,.55,0,3.37,3.37,0,0,0,.58,0l.48,0,.62,0h1.14l.13,0a1,1,0,0,0,.51,0,.27.27,0,0,0,.19-.27c0-.09-.09-.18-.22-.22A1.09,1.09,0,0,0,48.71,21.32Z"/><circle class="cls-2" cx="53.25" cy="21.57" r="1.03"/><path class="cls-2" d="M61.84,87.58H37.46a6.39,6.39,0,0,1-6.38-6.39V25.67a6.38,6.38,0,0,1,6.38-6.38H61.84a6.38,6.38,0,0,1,6.38,6.38V81.19A6.39,6.39,0,0,1,61.84,87.58ZM37.46,19.79a5.89,5.89,0,0,0-5.88,5.88V81.19a5.89,5.89,0,0,0,5.88,5.89H61.84a5.89,5.89,0,0,0,5.88-5.89V25.67a5.89,5.89,0,0,0-5.88-5.88Z"/><path class="cls-2" d="M61.66,82.91H38a4.26,4.26,0,0,1-4.25-4.25V27.41A4.26,4.26,0,0,1,38,23.16H61.66a4.25,4.25,0,0,1,4.25,4.25V78.66A4.25,4.25,0,0,1,61.66,82.91ZM38,23.41a4,4,0,0,0-4,4V78.66a4,4,0,0,0,4,4H61.66a4,4,0,0,0,4-4V27.41a4,4,0,0,0-4-4Z"/><path class="cls-2" d="M67.72,35.12a1.1,1.1,0,0,1,1.1,1.1v5.36a1.1,1.1,0,0,1-1.1,1.1h0"/><path class="cls-2" d="M31.23,32.43a.58.58,0,0,1-.58-.59V29.49a.58.58,0,0,1,.58-.58h0"/><path class="cls-2" d="M31.23,39.54a.59.59,0,0,1-.58-.59V34.7a.59.59,0,0,1,.58-.59h0"/><path class="cls-2" d="M31.23,45.83h0a.58.58,0,0,1-.58-.58V41a.58.58,0,0,1,.58-.58h0"/><polygon class="cls-3" points="68.53 56.53 65.05 56.53 65.05 80.62 59.56 82.87 59.56 87.55 68.26 87.55 68.53 56.53"/><path class="cls-3" d="M53.33,77.69l9.2,8.75H48.2a3.41,3.41,0,0,1-3.5-3.3v-17a3.41,3.41,0,0,1,3.5-3.3h6.28l1.19-3.53,7.2,7-9.58,10a1,1,0,0,0,0,1.37Z"/><path class="cls-2" d="M63,87.61H48.2a4.57,4.57,0,0,1-4.67-4.47v-17a4.57,4.57,0,0,1,4.67-4.47h5.44l1-3a1,1,0,0,1,.71-.64,1,1,0,0,1,.94.25l7.54,7.3a1,1,0,0,1,0,1.36L54.28,77l9.42,9A1,1,0,0,1,63.94,87,1,1,0,0,1,63,87.61ZM48.2,62.84a3.41,3.41,0,0,0-3.5,3.3v17a3.41,3.41,0,0,0,3.5,3.3H62.53l-9.2-8.75a1,1,0,0,1,0-1.37l9.58-10-7.2-7-1.19,3.53Z"/><path class="cls-3" d="M82.29,67V82.3a4.42,4.42,0,0,1-4.42,4.42h-6L62.33,76.9l9.42-9.63a1,1,0,0,0,0-1.38L63.3,57.55c1.06,0,2.66,0,4.77,0A4.42,4.42,0,0,1,72.52,62v.58h5.35A4.43,4.43,0,0,1,82.29,67Z"/><path class="cls-2" d="M77.87,87.9h-6.1a1,1,0,0,1-.7-.3l-9.72-10a1,1,0,0,1,0-1.37l9.42-9.62-8.64-8.54a1,1,0,0,1,.68-1.68h0c1,0,2.78,0,5.24,0a5.6,5.6,0,0,1,5.59,5h4.21a5.6,5.6,0,0,1,5.6,5.6V82.3A5.6,5.6,0,0,1,77.87,87.9Zm-6-1.18h6a4.42,4.42,0,0,0,4.42-4.42V67a4.43,4.43,0,0,0-4.42-4.43H72.52V62a4.42,4.42,0,0,0-4.45-4.43c-2.11,0-3.71,0-4.77,0l8.44,8.34a1,1,0,0,1,0,1.38L62.33,76.9Zm-9.66-10h0ZM63,57.21Z"/><path class="cls-2" d="M54.18,75.68a9.3,9.3,0,0,1,8.36-11.37l.09,1.16a8.13,8.13,0,0,0-7.3,9.94Z"/><path class="cls-2" d="M66.54,82.24l-.42-1.09a8.18,8.18,0,0,0,5.22-7.59,8,8,0,0,0-1.72-5l.92-.72a9.16,9.16,0,0,1,2,5.71A9.34,9.34,0,0,1,66.54,82.24Z"/><path class="cls-4" d="M49.51,35.46,40,51.36a.86.86,0,0,0,.73,1.3H60a.85.85,0,0,0,.73-1.3L51,35.46A.85.85,0,0,0,49.51,35.46Z"/><path class="cls-2" d="M49.67,48l-.92-5.27c-.29-1.58.35-2,1.59-2s1.88.43,1.6,2L51,48Z"/><circle class="cls-2" cx="50.31" cy="49.98" r="1.37"/></g><g id="Button"><g class="cls-5"><path class="cls-6" d="M.1,69.38s.06-.1,0-.16a.17.17,0,0,0-.19,0,1,1,0,0,1-.52.1,1.53,1.53,0,0,1,.84-.18l0,.08s0-.05,0-.09A.36.36,0,0,1,.55,69a5.15,5.15,0,0,1,1.7-.2c.11.06.22,0,.33,0a.06.06,0,0,0,0-.08.18.18,0,0,0-.09-.12.74.74,0,0,0-.36,0c-.08,0-.06,0-.05-.07l.06,0,.14,0a.18.18,0,0,0,.07,0h0l-.07,0h.06a.14.14,0,0,0,0-.06h.2c.29,0,.59,0,.79-.27h.07c.09,0,.23,0,.21-.15s-.13-.08-.21-.05a6.52,6.52,0,0,0-.72.21c-.1.09-.25,0-.35.07h0v.13H2.18a.26.26,0,0,0-.24.07h0c-.13,0-.27,0-.37.15a.43.43,0,0,1,0,.05.44.44,0,0,0-.2,0l-.07,0c-.1-.06-.23,0-.32-.15s-.29-.08-.44,0-.12.12,0,.2-.06.15-.12.21l-.2.08a.1.1,0,0,0-.05,0H0L0,69H0a4.14,4.14,0,0,0-1,.21v.21c.16.23.4.22.64.2h.14A.27.27,0,0,0,.1,69.38Z"/><path class="cls-6" d="M105.75,81.1a.1.1,0,0,0,0,.15c.09,0,.15,0,.2-.08l.29-.42v-.13C106,80.71,106,81,105.75,81.1Z"/><path class="cls-6" d="M43.46,30.87c.08.05.16.1.22,0s.09-.21.13-.31h-.36C43.56,30.64,43.46,30.75,43.46,30.87Z"/><path class="cls-6" d="M86.55,37.07c.09-.09.19-.16.1-.29a.11.11,0,0,0-.16,0C86.41,36.87,86.44,37,86.55,37.07Z"/><path class="cls-6" d="M97.25,58.58l-.08.1c.06.11.12.22.28.13l0-.05a.29.29,0,0,1,0-.09c0-.05,0-.11,0-.14S97.3,58.5,97.25,58.58Z"/><path class="cls-6" d="M49.88,39.64h0c-.08-.13,0-.34-.2-.42l-.08-.07c-.08,0-.23,0-.16.12a1,1,0,0,0,.37.45C49.87,39.75,49.87,39.68,49.88,39.64Z"/><path class="cls-6" d="M104.24,82.75h0a.13.13,0,0,1-.07.06.79.79,0,0,0-.3.35l-.05,0a.09.09,0,0,0-.07.06h0l-.06.06a1.3,1.3,0,0,1-.51.42,1.75,1.75,0,0,0-.44.54l-.36.34s0,.06-.06.09h0c-.06,0,0,.1,0,.15h0l.09,0,0,0,.08-.05.07,0c.15-.12.27-.26.41-.38a5.07,5.07,0,0,1,.55-.49,3.2,3.2,0,0,1,.25-.27.35.35,0,0,0,.07-.12.65.65,0,0,0,0-.2c.1,0,.16,0,.22-.09a.52.52,0,0,0,.11-.1c.14-.12.21-.31.36-.43h0a.24.24,0,0,1,.12-.23.69.69,0,0,0,.25-.31c0-.07,0-.1-.09-.08l-.2.15C104.6,82.36,104.34,82.49,104.24,82.75Z"/><path class="cls-6" d="M49.24,32.18s-.12-.08-.11,0a2.83,2.83,0,0,0,.11.31c.1.06.12.2.27.2,0,0,0,0,0,0C49.43,32.52,49.46,32.29,49.24,32.18Z"/><path class="cls-6" d="M105.76,92.76h0c0-.08-.12-.06-.2,0S105.7,92.75,105.76,92.76Z"/><path class="cls-6" d="M2.33,73.78h.06c.08-.05.24-.06.1-.21s0,0,0-.08a.13.13,0,0,0,0-.06h0a.12.12,0,0,0-.09,0c-.07,0-.14,0-.2,0h0c-.06,0,0,.12,0,.19v0a.59.59,0,0,1-.36-.09c-.12-.07-.3.08-.44,0l0,0H1.26l-.17.09s.14,0,.16.11.24.08.36.07h.14c.15-.11.32-.06.49-.06C2.26,73.75,2.3,73.76,2.33,73.78Z"/><path class="cls-6" d="M104.63,66.4c.05.1.16.11.26.14a.53.53,0,0,1,.22.2.33.33,0,0,0,.31.18l0,0v-.34c-.12,0-.26,0-.34-.11s-.23-.13-.35-.18S104.57,66.27,104.63,66.4Z"/><polygon class="cls-6" points="105.46 66.89 105.47 66.89 105.46 66.89 105.46 66.89"/><path class="cls-6" d="M105.61,67.09a.46.46,0,0,0,.07.07s.09.07.18,0c-.13-.11-.16-.33-.4-.3C105.42,67,105.55,67,105.61,67.09Z"/><path class="cls-6" d="M105.37,72a.28.28,0,0,0,0,.09.78.78,0,0,1,0,.3.29.29,0,0,0,0,.09c-.06.09.26.3-.09.3,0,0,0,0,0-.06a.08.08,0,0,0-.07-.07h0v-.07a.4.4,0,0,1-.09-.2c-.09-.07-.07-.19-.14-.28a.13.13,0,0,0-.15.14.41.41,0,0,0,0,.22.41.41,0,0,1,0,.22l0,.08c-.15.13-.19.24,0,.31.08-.07.15-.16.27-.14h0c0,.13.06.25.23.26l0,0a.54.54,0,0,0,.08.33,1.35,1.35,0,0,1,.21.59h0l0-.07a.24.24,0,0,0-.09-.08.11.11,0,0,0-.08,0,.13.13,0,0,0,0,.11.24.24,0,0,0,0,.08l0,.07a.36.36,0,0,0,0,.11l.06.11.09.16c0,.07.08.2.21.14l.12.1c-.09,0-.17,0-.23.1V75c.08,0,.15.1.27.08a1.62,1.62,0,0,0,0-.22h0a.34.34,0,0,1,.22.07v-.42h-.06c0-.07,0-.15-.09-.2h0c0-.14-.09-.28-.13-.42s0-.22-.14-.28a.08.08,0,0,1,0-.06.06.06,0,0,1,0-.08v0a.26.26,0,0,1-.07-.22V73.1c0-.11-.12-.22,0-.29s0-.23,0-.35-.08-.21-.07-.33l-.06-.21C105.5,71.78,105.43,71.85,105.37,72Z"/><path class="cls-6" d="M105.91,73.07l.06.09c.06,0,.06-.08.07-.14s-.06-.11-.13-.08S105.89,73,105.91,73.07Z"/><path class="cls-6" d="M82.24,39.18a.48.48,0,0,1-.48,0l-.08,0-.18,0h0l0,0s-.1.08,0,.15h0c.16.08.34.12.5.21l.07.07c.15,0,.34-.06.43.13.1,0,.21,0,.3,0s.2,0,.27-.09,0-.16-.07-.23H82.8c-.13-.09-.3-.11-.42-.22A.22.22,0,0,0,82.24,39.18Z"/><path class="cls-6" d="M82.5,39.09c0,.13.1.15.2.17a.13.13,0,0,0,.09,0s.16,0,.07-.14,0,0-.07-.07h0C82.69,39,82.57,39,82.5,39.09Z"/><path class="cls-6" d="M6.91,53a.59.59,0,0,0-.08-.43c-.07,0-.14-.06-.15.06a1.62,1.62,0,0,0,.08.49A.15.15,0,0,0,6.91,53Z"/><path class="cls-6" d="M6.84,50.26c-.15-.07,0-.24-.15-.38v.52c0,.11.08.09.15.07Z"/><path class="cls-6" d="M12,44.16a1.5,1.5,0,0,0,0-.22c-.05-.12-.05-.26-.16-.37a.14.14,0,0,0-.09,0c-.06,0-.07.06-.1.1h0l.21.83C12,44.44,12,44.28,12,44.16Z"/><path class="cls-6" d="M12.21,45.62a.42.42,0,0,0-.08-.47L12,45.08a1.62,1.62,0,0,0,.08.69.17.17,0,0,1,.07.13C12.24,45.83,12.18,45.71,12.21,45.62Z"/><path class="cls-6" d="M12.77,51.71h0c-.24,0-.25,0-.15.21l.08.06h0C12.88,51.93,12.8,51.81,12.77,51.71Z"/><path class="cls-6" d="M10.7,31.27v.56c.1-.07.06-.18.07-.27s0-.2.07-.27a.18.18,0,0,0,0-.21C10.71,31.09,10.69,31.17,10.7,31.27Z"/><path class="cls-6" d="M20.35,33.43a2.26,2.26,0,0,1,0,.26l.07.07a.23.23,0,0,0,.14-.13h0s-.05-.05-.08-.06h0a.08.08,0,0,1,0-.13c.07,0,.07-.1,0-.14A.12.12,0,0,0,20.35,33.43Z"/><path class="cls-6" d="M18.85,32.45s0,0,0-.06h0a.1.1,0,0,0-.05,0s0,.09,0,.11S18.84,32.48,18.85,32.45Z"/><path class="cls-6" d="M15,34.31c0,.07,0,.13.09.12a.12.12,0,0,0,.11-.14c0-.07,0-.14-.12-.13S15,34.25,15,34.31Z"/><path class="cls-6" d="M102.82,63.51v.06a.61.61,0,0,1,.21.35.12.12,0,0,0,.14-.13h0a.1.1,0,0,1,0-.14.35.35,0,0,0-.07-.2s-.1,0-.14-.07a.08.08,0,0,0-.08,0S102.86,63.47,102.82,63.51Z"/><path class="cls-6" d="M103.32,64.4a.18.18,0,0,0,.15-.07s0,0,0-.06a.49.49,0,0,1-.13-.15h0C103.19,64.21,103.28,64.31,103.32,64.4Z"/><path class="cls-6" d="M98.38,61V61c-.18-.17-.2-.17-.29,0v0a.12.12,0,0,0,.05,0,.09.09,0,0,0,.06,0l.06,0h0Z"/><path class="cls-6" d="M97,59.85c0,.06,0,.08.07.08l.23.24s.09.09.15.06,0-.12.06-.18a3.89,3.89,0,0,0-.5-.41C96.94,59.71,97.05,59.78,97,59.85Z"/><path class="cls-6" d="M101.82,60.47a.3.3,0,0,1,0,.1h0a.09.09,0,0,0-.08,0c-.15,0-.11-.2-.25-.18s.07.29,0,.45v0a.27.27,0,0,0,0,.12l0,.07a.3.3,0,0,0,.12.13c.31,0,0-.27.2-.33s.08.08.12.12l0,0,.08.06a.15.15,0,0,0,.17,0,.11.11,0,0,0,0-.08s0,0,0-.06l0-.07a.17.17,0,0,0,0-.15.11.11,0,0,1,0-.05l0-.07a.21.21,0,0,0-.1-.09c.06-.05.11-.1.07-.19h0a.16.16,0,0,0-.06-.08h0C101.94,60.25,101.83,60.29,101.82,60.47Z"/><path class="cls-6" d="M100.68,104.9l-.12.07c-.14.09-.14.11,0,.21a.57.57,0,0,1,.28-.08c.21-.11.08-.22,0-.33h-.06A.86.86,0,0,1,100.68,104.9Z"/><path class="cls-6" d="M4.19,69.31v.13a.15.15,0,0,0,.21,0h0C4.39,69.3,4.3,69.29,4.19,69.31Z"/><path class="cls-6" d="M12.05,73l0,0c.07,0,.14,0,.18,0s0-.09-.07-.12h0c-.07,0-.17,0-.22,0S12,73,12.05,73Z"/><path class="cls-6" d="M10.91,72.43s-.05,0-.05,0,0,.07,0,.07a.07.07,0,0,0,.06,0S11,72.44,10.91,72.43Z"/><path class="cls-6" d="M9.61,67.71c.05,0,.13,0,.08-.14-.26-.1-.35-.06-.35.14h.27Z"/><path class="cls-6" d="M3.48,73.57a1.9,1.9,0,0,0,.63-.06.72.72,0,0,1,.52,0c.06,0,.14,0,.21,0a2.77,2.77,0,0,1,.81.06.22.22,0,0,0,.26-.06h.21a.13.13,0,0,1,0-.06h.5c.12,0,.08-.08.06-.14a1.54,1.54,0,0,1-.37,0,.8.8,0,0,0-.57,0H5.62l-.15,0H5.34c0-.09,0-.18-.15-.07a1.52,1.52,0,0,1-.2.06c-.17,0-.28,0-.3-.19-.07,0-.14-.26-.22,0,.08.14.1.24-.11.25a1,1,0,0,0-.17,0c-.24-.08-.48,0-.72,0A.17.17,0,0,0,3.48,73.57Z"/><path class="cls-6" d="M54.46,39.57l-.05-.08-.07-.06c-.14,0-.15,0-.08.13h0c.06.09,0,.19,0,.29s-.09.35.06.51.15.1.24,0a.07.07,0,0,1,0,0c-.06-.12,0-.25-.05-.36a.09.09,0,0,1,0-.07c-.09-.1,0-.24-.08-.34Z"/><path class="cls-6" d="M50.31,34.81c-.11,0-.2-.12-.34-.09a.42.42,0,0,0,.07.36,1.83,1.83,0,0,1,0,.47c0,.07,0,.15.08.17s.15-.07.17-.14A1.67,1.67,0,0,0,50.31,34.81Z"/><path class="cls-6" d="M79.35,34.32c0,.06-.09.11,0,.18a.09.09,0,0,0,.15,0c0-.05.1-.12.06-.18s-.13,0-.19,0Z"/><path class="cls-6" d="M80.15,37.7h.06c.16,0,.34.06.43-.13h0l-.07,0a.09.09,0,0,1-.07,0h0A.33.33,0,0,0,80.15,37.7Z"/><path class="cls-6" d="M82.08,39c.07,0,.16,0,.22,0l-.09-.1C82.13,38.89,82,38.83,82.08,39Z"/><path class="cls-6" d="M6,104.93c0-.12-.14,0-.2,0v.26C5.93,105.17,6,105.07,6,104.93Z"/><path class="cls-6" d="M5.85,101.85l0-.07-.15-.08a.15.15,0,0,0-.07,0h0a.14.14,0,0,0-.06.13l.07.08.07.06a.17.17,0,0,0,.21,0A.15.15,0,0,0,5.85,101.85Z"/><path class="cls-6" d="M3.25,100.49h0a.15.15,0,0,0-.21,0h0v.12H3s0,0,.08.06S3.34,100.64,3.25,100.49Z"/><path class="cls-6" d="M.18,86.48c.09,0,.15,0,.13-.13S.11,86.33.18,86.48Z"/><path class="cls-6" d="M100.18,94c.09,0,.2,0,.2-.13h-.2Z"/><path class="cls-6" d="M100.16,93.3h-.06a.31.31,0,0,0-.12.43c.17,0,.17-.22.32-.23a.07.07,0,0,0,0-.06c.1-.08.14-.18,0-.25S100.18,93.21,100.16,93.3Z"/><path class="cls-6" d="M102.65,68a.13.13,0,0,0,0,.08l.1.08s.08.12.18.1h.14a.68.68,0,0,1-.08-.34l0,0c-.1-.11-.2-.08-.28,0A.36.36,0,0,0,102.65,68Z"/><path class="cls-6" d="M104.39,68.12c.07,0,.14.08.22,0s.23,0,.25.14.1,0,.16,0l.08-.07a.17.17,0,0,1,.14-.07c0-.08,0-.17,0-.25l-.13,0c-.21-.13-.38,0-.57.07S104.27,68,104.39,68.12Z"/><path class="cls-6" d="M103.61,67.71h0a.13.13,0,0,0,.13,0c.05,0,0-.12.08-.16h0a.66.66,0,0,0,0-.14h-.21A.2.2,0,0,0,103.61,67.71Z"/><path class="cls-6" d="M54.53,32.31c0-.07,0-.13,0-.2v-.06c0-.12,0-.23,0-.35A.61.61,0,0,0,54.53,32.31Z"/><path class="cls-6" d="M0,68.61a.1.1,0,0,0-.06.12C.14,68.75.05,68.67,0,68.61Z"/><path class="cls-6" d="M105.54,74.74c.13,0,.09-.06.06-.13S105.5,74.67,105.54,74.74Z"/><path class="cls-6" d="M95.21,48.53c.13.1.17-.07.25-.11l.05,0c.11-.16,0-.17-.13-.18a.18.18,0,0,1-.14.06C95.19,48.35,95.1,48.45,95.21,48.53Z"/><path class="cls-6" d="M102.81,64.27h-.06c-.09,0-.07.14-.08.21s0,.23,0,.34.1.18.11.28a.18.18,0,0,0,.09,0c.14,0,.23-.09.15-.24h0a.15.15,0,0,1,0-.21l.07-.07c0-.08,0-.16-.07-.21S102.87,64.33,102.81,64.27Z"/><path class="cls-6" d="M101.74,63.74c-.07-.06-.19-.14-.22,0s.15.19.22.28.28.08.29-.14h0A1.08,1.08,0,0,1,101.74,63.74Z"/><path class="cls-6" d="M101.75,64.4v.07c.08,0-.06.22.13.21h0a1.77,1.77,0,0,0,0-.23C101.88,64.34,101.81,64.38,101.75,64.4Z"/><path class="cls-6" d="M100.46,62.81c.17.09.14,0,.13-.12S100.45,62.71,100.46,62.81Z"/><path class="cls-6" d="M98.53,61.37c0,.18.17,0,.21.13a.11.11,0,0,0,.06-.13.2.2,0,0,0-.27,0Z"/><path class="cls-6" d="M95.45,58.25l.12.1,0,0h0s0,0,0,0,.06.24.19.32a.61.61,0,0,1,.14.07l.06.06s0,.09.08.14a1.58,1.58,0,0,0,.22.23l.16.16.08,0,.08,0c.15,0,.17,0,.11-.16s-.1-.12-.15-.18a.47.47,0,0,1-.14-.28.31.31,0,0,1-.22-.15.81.81,0,0,0-.28-.27l-.16-.13a.41.41,0,0,0-.19-.22C95.44,58.09,95.45,58.17,95.45,58.25Z"/><path class="cls-6" d="M104.18,66h0l.07.08.07.07s.06.11.14.07l.07-.07c0-.09-.14-.16-.15-.27l-.07-.07A.18.18,0,0,0,104.18,66Z"/><path class="cls-6" d="M104,65.77a.29.29,0,0,0-.17-.37C103.83,65.54,103.82,65.68,104,65.77Z"/><path class="cls-6" d="M.84,73.62s0,0-.08,0-.05,0-.07,0a.14.14,0,0,0,.09,0Z"/><path class="cls-6" d="M5.61,68.61a1,1,0,0,0-.79.2,1.91,1.91,0,0,0,.79-.13S5.65,68.64,5.61,68.61Z"/><path class="cls-6" d="M7.61,73.23l-.06-.06a.14.14,0,0,0-.15.06v.13a.39.39,0,0,0,.21-.06S7.61,73.26,7.61,73.23Z"/><path class="cls-6" d="M10,73.1c.17.07.2-.09.32-.17a.61.61,0,0,0-.34,0h0C10,73,9.89,73.05,10,73.1Z"/><path class="cls-6" d="M11.22,73a.11.11,0,0,0-.13.09s0,.08.09.07a.12.12,0,0,0,.13-.09S11.26,73,11.22,73Z"/><path class="cls-6" d="M10.38,67.27s-.07,0-.12,0a.89.89,0,0,0-.35.14l.09.08.31,0A.1.1,0,0,0,10.38,67.27Z"/><path class="cls-6" d="M11.88,67.36l.32,0,.14-.15c0-.19-.17,0-.22-.13h-.06C12.07,67.22,12,67.28,11.88,67.36Z"/><path class="cls-6" d="M4.33,83.17s0-.08,0-.09a.25.25,0,0,0-.37.08H4a.5.5,0,0,0,.36,0Z"/><path class="cls-6" d="M7.62,77.85c0,.2-.27.28-.29.49l-.06.07a.13.13,0,0,0,0,.06c.11.09.14-.06.21-.06s.18-.13.24-.22a.44.44,0,0,0,.08-.11.08.08,0,0,0,0-.08c0-.08.12-.18,0-.24S7.68,77.83,7.62,77.85Z"/><path class="cls-6" d="M8.55,76.48h0a.1.1,0,0,1-.14,0H8.33c0,.14.06.29-.06.42A.46.46,0,0,0,8.2,77c-.06.08,0,.13.07.13h0l.06,0,0,0,0,0,0,0,0,0,.05-.06s.11-.09.07-.17v-.2s0,0,0,0A.06.06,0,0,0,8.55,76.48Z"/><polygon class="cls-6" points="8.62 76.47 8.62 76.48 8.62 76.48 8.62 76.47"/><path class="cls-6" d="M78.36,38.26l-.11.06c-.08.09-.08.16,0,.2s.38.06.61,0c-.17,0-.29-.07-.26-.23h0a.15.15,0,0,0-.13,0,.12.12,0,0,0-.08,0Z"/><path class="cls-6" d="M77.45,36.61c0,.08,0,.11.09.12s.16,0,.16-.1,0-.1-.14-.1A.1.1,0,0,0,77.45,36.61Z"/><path class="cls-6" d="M79.43,37.67v0l-.14-.08h-.06c0,.11,0,.22.14.2l.06-.07Z"/><path class="cls-6" d="M4.15,105.89c-.06-.1-.15-.13-.25,0h0a.13.13,0,0,1,.06.07L4,106C4.1,106,4.2,106,4.15,105.89Z"/><path class="cls-6" d="M99.46,80.32l.06,0c.06,0,.14,0,.12-.09a.11.11,0,0,0-.14-.08C99.43,80.19,99.46,80.27,99.46,80.32Z"/><path class="cls-6" d="M96.08,84.88,96,85a.56.56,0,0,0-.36.07c0,.19,0,.19.22.14l.14-.08.43-.13s.1,0,.14-.07h0C96.37,84.76,96.23,84.84,96.08,84.88Z"/><path class="cls-6" d="M101.39,85.59c.06.17.17.1.28.06v-.2l-.08-.08-.06,0C101.53,85.48,101.43,85.51,101.39,85.59Z"/><path class="cls-6" d="M99.73,87.06a.38.38,0,0,1-.27.18c-.09.18-.33.12-.43.28a1.24,1.24,0,0,0-.44.47l-.78.63a.09.09,0,0,0,0,.16c.17,0,.26-.09.35-.19a1.82,1.82,0,0,1,.61-.41,2.16,2.16,0,0,0,.25-.27c.07-.09.19-.14.27-.23a.43.43,0,0,1,.09-.1.94.94,0,0,0,.39-.35,1,1,0,0,0,.36-.41c0-.06,0-.09-.08-.07A1.19,1.19,0,0,0,99.73,87.06Z"/><path class="cls-6" d="M99.19,91.46c0,.06,0,.13-.1.16a.13.13,0,0,0-.11.12s0,.05,0,.08l.06.16,0,.08a.3.3,0,0,0,0,.08c.08.12.1.28.27.34s.06-.09.07-.14-.15-.36,0-.55a.4.4,0,0,1-.06-.28s0,0,0-.06h0C99.31,91.35,99.24,91.33,99.19,91.46Z"/><path class="cls-6" d="M99.52,90.2v-.13C99.45,90.11,99.45,90.16,99.52,90.2Z"/><path class="cls-6" d="M99.74,94.07h0a.15.15,0,0,0-.23,0C99.59,94.09,99.67,94.05,99.74,94.07Z"/><path class="cls-6" d="M103,65.51h.07c0-.06,0-.14,0-.15s.11,0,.15.09l0,0c.12,0,.12-.11.2-.14v-.07l-.05-.05c-.14-.09-.29-.18-.44,0A.33.33,0,0,0,103,65.51Z"/><path class="cls-6" d="M104,66.82h.06l.08-.06s.07-.1,0-.14-.15,0-.2,0S103.9,66.8,104,66.82Z"/><path class="cls-6" d="M103.64,66.15s0,0,.06,0,0-.16,0-.24A.15.15,0,0,0,103.64,66.15Z"/><path class="cls-6" d="M103.88,69.17a.83.83,0,0,0,.36.48c.07,0,.15.21.22,0-.16-.27-.2-.6-.43-.83-.12-.08-.23,0-.35,0C103.63,69,103.8,69.06,103.88,69.17Z"/><path class="cls-6" d="M68.26,34.51a.41.41,0,0,0-.11.12l0,0c-.07.09-.16,0-.25,0a.17.17,0,0,0-.24.1l.07.07a.18.18,0,0,0,.2,0,.19.19,0,0,1,.22.06.19.19,0,0,0,.27,0h0c0,.16.19.11.3.12s.21,0,.29.06-.1.1-.1.17a.09.09,0,0,0,0,.07c.07,0,.15,0,.21,0h0c.21.1.17-.16.28-.2v.06l.08-.07h0c.15-.08.29.13.44,0l0,0a.23.23,0,0,0,.21.05h.59c-.14-.19-.35-.07-.47-.2h0c-.08-.1-.2-.06-.3-.07s-.18-.1-.22-.2-.08,0-.11,0l0,.08c0,.07-.09,0-.15,0l-.09,0a1.27,1.27,0,0,1-.28-.06c-.18,0-.34-.15-.54-.11a0,0,0,0,0,0-.05c-.1-.06-.11-.18-.22-.23Z"/><path class="cls-6" d="M9.91,66.26h0c-.07-.08-.29-.13-.07-.28h0a.11.11,0,0,1-.06-.07s0,0,0-.06a.46.46,0,0,0-.26-.1.16.16,0,0,0-.09,0c-.09,0-.14,0-.14.13s.3.07.29.28.07.12.13.15S9.85,66.34,9.91,66.26Z"/><path class="cls-6" d="M104.45,71.38c.1,0,.08-.14.08-.22a.13.13,0,0,0-.15.14Z"/><path class="cls-6" d="M104.53,70.82a.13.13,0,0,0,.07-.14s-.09-.05-.12,0S104.47,70.78,104.53,70.82Z"/><path class="cls-6" d="M104.64,71.22c0,.1.12.19.18.29h.05a.07.07,0,0,0,0-.08V71.3c-.07,0,0-.15-.08-.2h-.06C104.68,71.11,104.59,71.12,104.64,71.22Z"/><path class="cls-6" d="M105.33,73.77c.1,0,.13,0,.13-.12l-.07-.11s0-.07-.07-.07-.06.06-.06.1S105.31,73.7,105.33,73.77Z"/><path class="cls-6" d="M95.45,50h.07c.2.05.15-.14.21-.21v-.05C95.46,49.71,95.46,49.71,95.45,50Z"/><path class="cls-6" d="M17.49,49.84h0c-.12,0-.12.06-.07.14h0s0,.11.06.15l.24.47a.14.14,0,0,1,.06.14l.14.07s0,.08,0,.13.06-.09,0-.13V50.6a5.24,5.24,0,0,1-.28-.69S17.53,49.89,17.49,49.84Z"/><path class="cls-6" d="M32.24,48c0,.06,0,.07.1.07s.07,0,.07-.07,0-.08-.09-.09A.09.09,0,0,0,32.24,48Z"/><path class="cls-6" d="M46,36.88l-.07-.14c-.16-.09-.14.07-.21.13s-.12.17,0,.18S46,37.05,46,36.88Z"/><path class="cls-6" d="M100.31,65a.17.17,0,0,0,.07-.14h0l-.06-.08-.08-.13c-.11-.18-.33-.12-.49-.2s-.07.07-.08.13c.14.09.31.1.43.21h0a.11.11,0,0,0,.05.09h0s0,0,0,0,.1,0,.13.08Z"/><path class="cls-6" d="M100.06,65.13a.06.06,0,0,0,.07-.06.09.09,0,0,0-.07-.1c-.06,0-.1,0-.09.07S100,65.12,100.06,65.13Z"/><path class="cls-6" d="M99.38,64.27a.38.38,0,0,0,.1,0,.06.06,0,0,0,0-.09s0-.06-.08,0,0,.06,0,.09Z"/><path class="cls-6" d="M92.77,100.93c0,.06,0,.09.1.09a0,0,0,0,0,.06,0,.08.08,0,0,0-.1-.1S92.79,100.92,92.77,100.93Z"/><path class="cls-6" d="M91.67,101.64h0a.21.21,0,0,0,.07-.19C91.65,101.46,91.64,101.54,91.67,101.64Z"/><path class="cls-6" d="M7,64.54l-.08-.07-.13-.1a.11.11,0,0,0-.08,0v.14s0,0,0,.06l.13.08C6.92,64.67,7.06,64.71,7,64.54Z"/><path class="cls-6" d="M20.33,68.94a.11.11,0,0,0,0-.2c-.06,0-.16,0-.21-.06h0a.38.38,0,0,0,0,.48l.06-.07C20.21,69,20.26,69,20.33,68.94Z"/><path class="cls-6" d="M15.06,66.88h0s.1,0,.15-.06h.21a.75.75,0,0,0,.65-.33c.11-.19,0-.15-.14-.15-.33.11-.71-.07-1,.21a2.13,2.13,0,0,1-.35.14,1.33,1.33,0,0,0-.21.09l0,0a.34.34,0,0,0,.39,0A.44.44,0,0,1,15.06,66.88Z"/><path class="cls-6" d="M49,45.58c0,.16.15.21.33.25a.85.85,0,0,0-.17-.33.1.1,0,0,0-.12,0S49,45.53,49,45.58Z"/><path class="cls-6" d="M57,37.73a.12.12,0,0,0-.18,0c-.11.11.06.13.08.2h0C57,37.86,57.07,37.83,57,37.73Z"/><path class="cls-6" d="M56.68,37.22c-.12-.08,0-.24-.15-.4v.41c0,.05,0,.12.11.1S56.68,37.26,56.68,37.22Z"/><path class="cls-6" d="M56.61,36.19v-.08s-.12,0-.13,0a.16.16,0,0,0,0,.23h0S56.57,36.22,56.61,36.19Z"/><path class="cls-6" d="M49.34,52.51c0,.08.12.11.2,0s.08-.17.15-.16.18-.13.26-.19c-.07-.12-.18,0-.27-.06h0s0,0-.08.06a1.16,1.16,0,0,0-.24.14A.12.12,0,0,0,49.34,52.51Z"/><path class="cls-6" d="M49,47c-.05-.1-.13,0-.2,0l.07.13C49,47.08,49.06,47.05,49,47Z"/><path class="cls-6" d="M45.11,42.57c-.15,0-.14.08-.16.17a2.91,2.91,0,0,0-.56.15.16.16,0,0,1-.14.06c-.15.1-.29,0-.44,0s-.06.13-.07.2l.08.08.42-.15h.07c.16.08.33,0,.49,0s0,0,0-.06a3,3,0,0,1,.68-.14c.17,0,.34-.19.3-.27s-.23,0-.34,0S45.22,42.59,45.11,42.57Z"/><path class="cls-6" d="M45.24,42.25H45.1C45.16,42.33,45.2,42.32,45.24,42.25Z"/><path class="cls-6" d="M41.88,43.36l-.07.08c-.13,0-.31.13-.4-.09l-.1.08a.18.18,0,0,0,0,.14.1.1,0,0,0,0,.13h.28c0-.1.12-.12.22-.13H42l0-.09c0-.07,0-.13,0-.17S41.92,43.31,41.88,43.36Z"/><path class="cls-6" d="M42.66,42.81h0s0,0,0,.06.18,0,.28,0C42.91,42.65,42.77,42.77,42.66,42.81Z"/><path class="cls-6" d="M44,42.74s0,0,0,0l0,0s0,.05,0,.05S44,42.77,44,42.74Z"/><path class="cls-6" d="M47.6,38.66c.09,0,.08-.11.06-.19C47.46,38.49,47.57,38.58,47.6,38.66Z"/><path class="cls-6" d="M44.23,40.18V40H44c-.05,0-.11,0-.11.12a.08.08,0,0,0,0,.07h0A.19.19,0,0,0,44.23,40.18Z"/><path class="cls-6" d="M42.24,42a.39.39,0,0,0,.07.26l0,0a.34.34,0,0,0,.17-.05l.07,0h0c.06-.08.19-.15.06-.27a.65.65,0,0,0-.22.11C42.34,42.12,42.31,42,42.24,42Z"/><path class="cls-6" d="M46.13,37.37c-.07-.11-.16,0-.25,0s0,.23.14.27S46.2,37.49,46.13,37.37Z"/><path class="cls-6" d="M60.7,37.21c.08.06,0,.17.13.21l0-.06c-.06-.08,0-.17,0-.26A.14.14,0,0,0,60.7,37.21Z"/><path class="cls-6" d="M75.78,37.36s-.1.06-.1.13a.22.22,0,0,0,.11.14c.12.06.19-.13.23-.1s.14-.06.19-.11h0c-.09-.06-.2,0-.29-.06h-.14Z"/><path class="cls-6" d="M75.86,36.19s.1,0,.1-.08a.1.1,0,0,0-.1-.11c-.09,0-.18,0-.28,0A.31.31,0,0,0,75.86,36.19Z"/><path class="cls-6" d="M5.77,99.42l-.09-.1c-.09.07,0,.18-.07.27h0a.08.08,0,0,1,0,.07.25.25,0,0,0,0,.07h0C6,99.61,6,99.59,5.77,99.42Z"/><path class="cls-6" d="M96.74,83.93a.13.13,0,0,0,0,.06c0,.08.09.15.2.07h0C97,83.92,96.86,83.9,96.74,83.93Z"/><path class="cls-6" d="M98.18,87.87a1.7,1.7,0,0,0,.42-.63,1.5,1.5,0,0,0-.5.35C98.09,87.69,98,87.81,98.18,87.87Z"/><path class="cls-6" d="M94.87,85.44l.08-.06v-.15H94.8C94.77,85.32,94.68,85.43,94.87,85.44Z"/><path class="cls-6" d="M97.37,83.59a.32.32,0,0,0-.27.06c0,.2.12.1.21.07Z"/><path class="cls-6" d="M94.51,81a.14.14,0,0,0-.06-.13c-.1.05-.17.14-.29.14l.07.14C94.37,81.13,94.44,81,94.51,81Z"/><path class="cls-6" d="M98,97.72h0a.08.08,0,0,0,.13,0l.08-.07c0-.13,0-.21-.21-.12Z"/><path class="cls-6" d="M73.67,36.24c0,.08.08.09.11.14a.13.13,0,0,0,.2,0c.1-.11,0-.14-.06-.2h-.07C73.79,36.2,73.7,36.16,73.67,36.24Z"/><path class="cls-6" d="M69,34.74l.09.07c.1,0,.21,0,.21-.14A.47.47,0,0,0,69,34.6.1.1,0,0,0,69,34.74Z"/><path class="cls-6" d="M74.14,36.47c.09.26.14,0,.2,0v-.06c0-.07,0-.14-.11,0A.45.45,0,0,0,74.14,36.47Z"/><path class="cls-6" d="M102.74,67.23c0,.15.12.13.22.14h0a.12.12,0,0,0,0-.15l-.09,0C102.81,67.13,102.77,67.17,102.74,67.23Z"/><path class="cls-6" d="M102.49,67.26c-.19,0-.37,0-.32.25h0c.09.07.2,0,.29.06h0l.07.07h0l.13,0s.15.06.15-.06-.07-.09-.13-.09a.14.14,0,0,1-.15-.14Z"/><path class="cls-6" d="M102.61,68.19a.21.21,0,0,0-.15-.07s0,.07-.08,0,0,0,0-.08,0-.07,0-.1,0,0-.08-.06-.12-.14-.18-.21-.08-.08-.14,0a.11.11,0,0,0,0,.16.64.64,0,0,1,.2.49h0a.12.12,0,0,0,.1,0c.07,0,.07.07.11.1s0-.2.2-.17S102.65,68.23,102.61,68.19Z"/><path class="cls-6" d="M71.34,37s0-.07-.06-.07-.12.05-.15.12a.43.43,0,0,1,0,0s0,0,0,0,0,0,0,0S71.34,37.06,71.34,37Z"/><path class="cls-6" d="M9.91,64.71a.05.05,0,0,0-.06.06c0,.09.05.1.12.11l0,0S10,64.71,9.91,64.71Z"/><path class="cls-6" d="M104.75,72.54l-.15-.14-.07-.06c-.08,0-.07.13-.07.2l.08.14h.29a.64.64,0,0,1,0-.07Z"/><path class="cls-6" d="M81.56,52.89c0,.09.1.17.23.13a.14.14,0,0,0,.13-.06l-.14-.15h-.14C81.57,52.8,81.55,52.84,81.56,52.89Z"/><path class="cls-6" d="M86.15,54c0,.11.11.13.21.07s-.1-.14-.2-.13S86.13,54,86.15,54Z"/><path class="cls-6" d="M76.07,43.63l.07-.06c0-.09.12-.19-.07-.2S75.94,43.54,76.07,43.63Z"/><path class="cls-6" d="M16.34,60.82l-.14-.21c-.17,0-.18.14-.28.28C16.09,60.85,16.24,61.06,16.34,60.82Z"/><path class="cls-6" d="M16.4,61.28a.14.14,0,0,0-.13-.1c-.09,0-.1.09-.1.15s0,.16.11.14S16.4,61.37,16.4,61.28Z"/><path class="cls-6" d="M18,62.55a.2.2,0,0,0-.18-.22s-.09,0-.1.08.12.25.21.24S18,62.59,18,62.55Z"/><path class="cls-6" d="M13.76,56.81c.05.08.1,0,.14,0S13.8,56.75,13.76,56.81Z"/><path class="cls-6" d="M15.11,54.2h0c0-.07,0-.14,0-.21s-.14-.16-.15-.27a.34.34,0,0,1-.14-.15s-.05,0-.06-.07h0a.13.13,0,0,0,0-.06.17.17,0,0,0-.12,0s0,0-.05,0h0c0-.12-.07-.11-.15-.07l-.06,0a1,1,0,0,0,.41.61h0l0,.06h0l.08.1s0,0,0,0l.09.13C15,54.33,15.12,54.34,15.11,54.2Zm-.55-.69h0Z"/><path class="cls-6" d="M10.78,58.4h0s.05.08.09,0Z"/><path class="cls-6" d="M18.13,54.6c0-.13,0-.27,0-.4-.22.16-.24.28-.06.47h0l.07-.07Z"/><path class="cls-6" d="M31.05,44.94a.74.74,0,0,0-.69.21l-.28.07c-.08,0-.11,0-.14.07a1.85,1.85,0,0,1-.65.14.15.15,0,0,1-.09.06h-.05s0,0-.08.06h0c-.13,0-.28,0-.38.11.11.07.22,0,.32,0l.07-.06.14,0a.22.22,0,0,0,.16-.05h0l.13,0a.13.13,0,0,0,.14-.06c.14,0,.28-.07.42,0s.18-.16.33-.17a3.43,3.43,0,0,0,.44-.09,1.23,1.23,0,0,0,.38-.08C31.3,45,31.16,45,31.05,44.94Z"/><path class="cls-6" d="M36.43,43.91c.21-.22,0-.24-.14-.24s-.25,0-.34.12-.28.15-.43.2-.13.21.07.17.47-.12.71-.18h0Z"/><path class="cls-6" d="M33.36,44.18c0,.1-.4,0-.13.22h.07a1,1,0,0,1,.38-.2c.11,0,.19-.09.19-.21a.1.1,0,0,0-.14,0,.37.37,0,0,1-.29.14Z"/><path class="cls-6" d="M35.15,43.23h-.06s-.07,0-.08.06.1.1.16.05S35.17,43.26,35.15,43.23Z"/><path class="cls-6" d="M40,43.15a.89.89,0,0,1-.42.15,2.32,2.32,0,0,1-.58.13.06.06,0,0,0,0,.06.1.1,0,0,0,0,0c0,.08,0,0-.07.07-.21.15-.49.18-.67.37h-.07s-.06,0-.07.07l.08.08c.1,0,.22-.06.27.08s.09.06.15,0a.44.44,0,0,0,.15-.18l0,0v0c.19-.11.41,0,.62-.05s.1-.41.38-.42h.07a.41.41,0,0,0,.2-.14h.05a.46.46,0,0,1,.07-.07h0C40.22,43.15,40.18,43.09,40,43.15Z"/><path class="cls-6" d="M40.1,44.12c0,.05,0,.09,0,.14s.13.07.21.06a1.87,1.87,0,0,0,0-.41.16.16,0,0,0-.14.07S40.13,44.08,40.1,44.12Z"/><path class="cls-6" d="M45.17,38.46v-.14l-.07-.08c-.18,0-.13.12-.08.22h0c.07,0,0,.17.14.14h0a.13.13,0,0,1,0,.06c.07,0,.13.27.21,0C45.3,38.61,45.29,38.49,45.17,38.46Z"/><path class="cls-6" d="M99.59,67.55s0,.07.08.1h.06a.11.11,0,0,0,.15,0c.12-.09.05-.13,0-.14h-.1S99.6,67.47,99.59,67.55Z"/><path class="cls-6" d="M95.8,64.68a4.43,4.43,0,0,0,.8.27.17.17,0,0,0,.19,0,.18.18,0,0,1-.13-.08l-.07-.07c-.14-.06-.32,0-.43-.14l-.07-.06H96a.15.15,0,0,0-.21,0h0S95.76,64.63,95.8,64.68Z"/><path class="cls-6" d="M99.14,67.59c-.15,0-.28,0-.37.12C98.91,67.7,99,67.75,99.14,67.59Z"/><path class="cls-6" d="M98.88,67.37a.13.13,0,0,0,.07-.13c-.14,0-.14,0-.14.06a.46.46,0,0,1,.07.07Z"/><path class="cls-6" d="M101,67.23c-.12,0-.24-.14-.3.06s0,.15.08.22c-.11,0-.22,0-.26.12h0l.14.07.07-.06v-.14c.12.14.24.09.35,0s.12,0,.18-.11l-.17-.09A.13.13,0,0,1,101,67.23Z"/><path class="cls-6" d="M99.48,66.42s0,0,0,0,.08,0,.08-.1S99.47,66.34,99.48,66.42Z"/><path class="cls-6" d="M93.73,62.4h0s0,0,0,0h0a.46.46,0,0,0,.07-.07v-.06C93.77,62.26,93.65,62.24,93.73,62.4Z"/><path class="cls-6" d="M94.29,63.34v0h0s0,.06.06.08l.09,0h0l0,0s0,0,0,0,.11,0,.11-.06-.18-.21-.33-.19S94.28,63.31,94.29,63.34Z"/><path class="cls-6" d="M93,99.9c-.26-.08-.21.1-.22.24.14,0,.25-.08.38-.08s.22-.11.18-.26S93.16,99.94,93,99.9Z"/><path class="cls-6" d="M20.21,67.58v.06c.07,0,.09.16.21.14S20.38,67.56,20.21,67.58Z"/><path class="cls-6" d="M12.62,65.78c0,.1,0,.2.15.21a.06.06,0,0,0,.07,0,.31.31,0,0,0,.07-.09H13c.08-.1,0-.15-.07-.2h-.14s-.1,0-.15.06Z"/><path class="cls-6" d="M13.2,66.68h0a.36.36,0,0,0-.35,0A1.37,1.37,0,0,0,13.2,66.68Z"/><path class="cls-6" d="M13.34,66.54c0,.07.08.07.14.07A.13.13,0,0,0,13.34,66.54Z"/><path class="cls-6" d="M59.33,52.19a.11.11,0,0,0-.12,0l-.13.24a.14.14,0,0,0,0,.09c.07.11.15.12.25,0l.07-.12C59.39,52.37,59.44,52.26,59.33,52.19Z"/><path class="cls-6" d="M53.83,48.46s0-.1-.08-.13h0s-.09,0-.14,0h0c0,.09-.1.17-.08.27s.26,0,.36-.06Z"/><path class="cls-6" d="M51.42,49.33c.07-.09,0-.17,0-.24C51.25,49.13,51.3,49.22,51.42,49.33Z"/><path class="cls-6" d="M58.27,37.77c.1,0,.14.18.3.18,0-.15,0-.26-.1-.38C58.26,37.53,58.26,37.54,58.27,37.77Z"/><path class="cls-6" d="M47.9,54.23a.11.11,0,0,0,.11.14c.14,0,.07-.11.09-.17h0C48,54.22,47.93,54.09,47.9,54.23Z"/><path class="cls-6" d="M48.89,55.48l0,.08c0,.08.12.1.18.15h0l.08.07a.32.32,0,0,1,.15.13c.09,0,.13,0,.13-.13l-.29-.34c0-.1-.15-.09-.21-.15h0a.15.15,0,0,0-.07.14Z"/><path class="cls-6" d="M96.87,91c-.09,0-.16.06-.12.12.17.22,0,.26-.16.29l-.07.07c0,.06-.1.09-.09.17A1.42,1.42,0,0,0,97,91.4.32.32,0,0,0,96.87,91Z"/><path class="cls-6" d="M97.67,91h0a.11.11,0,0,1,0,.15h0a.08.08,0,0,0,0,.14h0c.11.05.2.08.16-.1a.09.09,0,0,1,0-.11c0-.11,0-.22-.08-.33C97.61,90.68,97.6,90.7,97.67,91Z"/><path class="cls-6" d="M96.31,90.21c0,.06,0,.11.09.12s.11-.06.12-.13S96.38,90.19,96.31,90.21Z"/><path class="cls-6" d="M97.44,89l.09.13.06,0a.66.66,0,0,0,0-.14s0-.1-.06-.09S97.48,88.93,97.44,89Z"/><path class="cls-6" d="M98.07,88l0,0S98.07,88,98.07,88Z"/><path class="cls-6" d="M93.66,90.89v-.06c-.1,0-.2,0-.19.13s.12.16.15,0Z"/><path class="cls-6" d="M93.41,90.22a.09.09,0,0,0,0,0s0-.06,0,0,0,0,0,.05Z"/><path class="cls-6" d="M93.81,80.89h0c0-.06-.07-.13-.14-.16a.08.08,0,0,0-.08,0,.19.19,0,0,0-.07.28h.54C94,80.94,93.85,81,93.81,80.89Z"/><path class="cls-6" d="M97.8,89.45a.48.48,0,0,0,.09.19.14.14,0,0,0,0-.23S97.83,89.41,97.8,89.45Z"/><path class="cls-6" d="M72.49,36.88l.21.07c.08-.09.17-.17-.06-.16,0,0,0,0-.08,0S72.46,36.81,72.49,36.88Z"/><path class="cls-6" d="M102.37,66.65c-.06.12.11.08.14.14l0,0h0c.07-.06.1-.13,0-.19S102.4,66.59,102.37,66.65Z"/><path class="cls-6" d="M101.74,67.51s.11,0,.15.06h0c.07-.06.1-.14,0-.19s-.14,0-.15.13Z"/><path class="cls-6" d="M103.45,69.37c-.09-.06-.14,0-.14.08a.13.13,0,0,0,0,.06.18.18,0,0,1,.05.08c0,.1-.07.21.08.24s.21,0,.22-.18A.39.39,0,0,1,103.45,69.37Z"/><path class="cls-6" d="M69.24,46.7a.66.66,0,0,0,0,.58l0,0a.13.13,0,0,0,.13,0,.19.19,0,0,0,0-.13s-.08,0,0-.07l.08,0c.21-.38.2-.52-.06-.65h0a.08.08,0,0,0-.13,0C69.27,46.5,69.3,46.62,69.24,46.7Z"/><path class="cls-6" d="M68.59,46s-.07.05-.1.08l-.08.07c0,.06,0,.16.11.09s.07-.11.1-.17S68.63,46,68.59,46Z"/><path class="cls-6" d="M68.28,45.57v.06l.06.08.14-.08s0,0,0-.06h0a.27.27,0,0,1-.07-.08h0C68.33,45.46,68.3,45.51,68.28,45.57Z"/><path class="cls-6" d="M103.68,70.2h0c0-.08,0-.18-.12-.24C103.52,70.09,103.52,70.18,103.68,70.2Z"/><path class="cls-6" d="M81.63,51.21s0,0,0,.06a.14.14,0,0,0,0,.07l0,0h.14l.07-.07v-.13h-.18A.12.12,0,0,0,81.63,51.21Z"/><path class="cls-6" d="M84.18,53.25h0s0-.05,0,0l0,0S84.17,53.25,84.18,53.25Z"/><path class="cls-6" d="M84.65,57.13a.08.08,0,0,0,0,.08.22.22,0,0,0,.05.08l.12.08c.23.12.47.22.69.35l.3.17c.08,0,.17.09.25,0s.09-.19,0-.26h0a.44.44,0,0,0-.2-.11.46.46,0,0,0-.23,0l-.28-.21s-.11,0-.15-.07h0a.34.34,0,0,0-.42-.14Z"/><path class="cls-6" d="M74.63,47.77c0-.08,0-.16-.06-.2S74.55,47.72,74.63,47.77Z"/><path class="cls-6" d="M79.22,46.68v.06s.1.08.16,0,0-.12,0-.19l-.07,0A.16.16,0,0,0,79.22,46.68Z"/><path class="cls-6" d="M23.48,62.89c.05-.15,0-.2-.26-.2h0a.21.21,0,0,0,.14.26C23.41,62.94,23.46,63,23.48,62.89Z"/><path class="cls-6" d="M20.63,65.15l.26-.11c.11,0,.21-.07.16-.2s-.17-.06-.26,0-.25.12-.37.19C20.36,65.26,20.55,65.13,20.63,65.15Z"/><path class="cls-6" d="M15.53,66.14l-.26,0h0C15.33,66.21,15.41,66.22,15.53,66.14Z"/><path class="cls-6" d="M14.91,66.33v-.14h-.08C14.8,66.27,14.75,66.35,14.91,66.33Z"/><path class="cls-6" d="M20.07,65.31c.05.08.14,0,.21.06h.06C20.27,65.27,20.17,65.3,20.07,65.31Z"/><path class="cls-6" d="M19.76,52.81s0,0,0,0l0,0a0,0,0,0,0,0,0S19.76,52.84,19.76,52.81Z"/><path class="cls-6" d="M34.75,45l-.09,0-.07.06v0a.56.56,0,0,0,.62,0c.15-.09,0-.11-.05-.17H35A.9.9,0,0,1,34.75,45Z"/><path class="cls-6" d="M32.86,44.36l-.14,0h-.06l-.08,0c-.1,0-.21,0-.29.07h-.06a1.06,1.06,0,0,0-.66.27l-.12.07-.07,0-.06,0,0,0,.14.13h.07a.47.47,0,0,1,.43-.2l.43-.21h.06a.23.23,0,0,0,.23,0h0c.15,0,.31,0,.44-.06S33.05,44.28,32.86,44.36Z"/><path class="cls-6" d="M34.25,44.23c0-.06-.1,0-.16,0a1.76,1.76,0,0,1-.45.12c-.12,0-.08.08-.06.14h.14c.09-.07.21,0,.29-.07h0a.2.2,0,0,1,.15-.07C34.21,44.3,34.26,44.27,34.25,44.23Z"/><path class="cls-6" d="M31.44,44.55c-.06.06-.14,0-.22.06l-.07.13h0a.15.15,0,0,0,.21,0C31.37,44.67,31.56,44.67,31.44,44.55Z"/><path class="cls-6" d="M34.44,49a.27.27,0,0,1,.15.13.17.17,0,0,0,0,.12l.11.09c.08.08.2.11.27.19h-.18l-.11,0h0a.27.27,0,0,0-.06-.17h0a.39.39,0,0,0-.12.19c-.09.17,0,.15.14.14h.07a11.37,11.37,0,0,0,1.43,0c.06,0,.21,0,.14.11s0,.23-.13.3l-.08.07h0a.28.28,0,0,1-.13.21c0,.09.12.06.19.05s.06-.27.22-.34h0l0-.07v0a.31.31,0,0,1,.09-.21l.07,0a.23.23,0,0,0,.15-.15c0-.12,0-.17-.18-.12a2.43,2.43,0,0,1-.85-.06v-.07a.15.15,0,0,0-.09-.06h-.12c-.14,0-.31,0-.37-.13s-.18-.06-.27-.09l-.07-.06h0c0-.05-.11,0-.14-.08h0a.16.16,0,0,1-.07-.07h0a.12.12,0,0,0-.15,0Z"/><path class="cls-6" d="M33.45,49.9l.13,0h0s0,0,0,0l.08-.06a.91.91,0,0,0,.49-.08c-.12-.13-.28,0-.43-.06h-.27C33.35,49.72,33.37,49.81,33.45,49.9Z"/><path class="cls-6" d="M32.15,49.84v.07h0a.38.38,0,0,1,.14.14h0c.25.08.17-.12.21-.22s-.16-.13-.28-.06,0,0-.07.06Z"/><path class="cls-6" d="M37.87,43.7a.12.12,0,0,0-.13-.13c0,.08,0,.15,0,.2l.08-.06Z"/><path class="cls-6" d="M39.81,43.71h0l.16-.12C39.78,43.59,39.78,43.59,39.81,43.71Z"/><path class="cls-6" d="M101.49,66.72a.06.06,0,0,0-.06.07c0,.06.07.08.13.09h0s0,0,0-.06S101.55,66.72,101.49,66.72Z"/><path class="cls-6" d="M93.49,64.26a.18.18,0,0,0,.07,0c.07,0,.15,0,.21.07l.16.09c.15,0,.22.13.3.24l.09,0c.27,0,.15.21.24.31a.43.43,0,0,0,.24.17c.19,0,.25-.06.23-.21h0l.12.07c.1,0,.16.16.28.17h0c0,.21.17.23.33.25l0,0,0,0v0l.06,0,.07,0h0v0h.17a.32.32,0,0,0,0,.09.12.12,0,0,0,.14,0h0s0,0,0,0c0,.26.28.34.49.45s.28.33.54.27h.2c.09,0,.24.05.3-.1a.29.29,0,0,0-.28-.09.46.46,0,0,1-.45-.2.29.29,0,0,0-.14-.13l-.09-.08,0-.06a1.1,1.1,0,0,1,0-.18.1.1,0,0,0,0-.07.26.26,0,0,0-.23,0l-.17.06c0-.06,0-.1-.09-.14.13-.1.18-.21.07-.35h-.06c-.1-.11-.19-.24-.38-.11,0,0-.11,0-.17,0a2,2,0,0,1-.53-.15l-.14-.08c-.06,0-.07-.06-.09-.11-.21-.11-.29-.32-.42-.49s-.13-.2-.22-.28h-.06c-.17,0-.14.13-.13.23s.11.13.17.2a2.48,2.48,0,0,1-.48-.27c-.15-.07-.21-.22-.33-.32l-.09,0a.34.34,0,0,0-.2,0l-.08,0a.24.24,0,0,0,0,.14c0,.08.09.12.16.17A.32.32,0,0,1,93.49,64.26Z"/><path class="cls-6" d="M88.71,59.7a.32.32,0,0,0,.16.35,5,5,0,0,0,1,.47.15.15,0,0,0,.13-.07.14.14,0,0,0,0-.09.23.23,0,0,0-.07-.07c-.11-.07-.08-.21-.16-.3s-.2-.1-.3-.05-.25,0-.33-.17-.1-.17-.22-.18a.22.22,0,0,0-.19,0A.1.1,0,0,0,88.71,59.7Z"/><path class="cls-6" d="M90.38,60.05a.13.13,0,0,0,.14-.13l-.08-.07a.16.16,0,0,0-.14.07s0,.1.08.13Z"/><path class="cls-6" d="M92.3,61.92a1.29,1.29,0,0,1,.3.27c.08.06.2.07.28.14H93v-.06L93,62.19h0a2.57,2.57,0,0,0-.57-.35C92.31,61.82,92.29,61.85,92.3,61.92Z"/><path class="cls-6" d="M87.76,94.69l0,0a.18.18,0,0,0-.07.05l-.07.06c-.11,0-.11.07-.07.15h0a.34.34,0,0,1,.09.14.3.3,0,0,0,.07.14.34.34,0,0,0-.15.07c0,.05,0,.09,0,.13.08.21.08.21.25.09l.09,0,.1-.06c0-.08,0-.1-.08-.14h0l-.1,0a.65.65,0,0,0,.1-.15h0a.23.23,0,0,1,.07-.07A.64.64,0,0,1,88.3,95v-.13a.13.13,0,0,0-.12,0C88,94.8,87.92,94.63,87.76,94.69Z"/><path class="cls-6" d="M88,95.44s.09,0,.09-.08,0,0-.08,0S88,95.4,88,95.44Z"/><path class="cls-6" d="M23.21,68.27a.14.14,0,0,0-.14.06h0s0,0,.07.07l.07.07c.09,0,.23,0,.15-.14l0,0a.11.11,0,0,0-.08,0Z"/><path class="cls-6" d="M20.64,72.54c.07-.06.17,0,.25,0a.12.12,0,0,0,.07-.05v0h0a.13.13,0,0,0,0-.06v0a.17.17,0,0,1,0-.1.18.18,0,0,0,.07,0c.09-.1.23-.16.22-.33s-.08-.07-.15-.07h0s-.11,0-.14.07h0a.16.16,0,0,0-.07.07.55.55,0,0,0-.24.18.28.28,0,0,1-.33.1.14.14,0,0,1,0,.06.18.18,0,0,1-.13.2.35.35,0,0,0,0,.42C20.4,72.83,20.47,72.63,20.64,72.54Z"/><path class="cls-6" d="M19.92,73.5l.08-.13c-.08-.1-.19-.06-.29-.06l0,0C19.75,73.43,19.73,73.61,19.92,73.5Z"/><polygon class="cls-6" points="20.2 72.89 20.21 72.89 20.21 72.89 20.21 72.89 20.2 72.89"/><path class="cls-6" d="M20.19,72.91v0S20.17,72.91,20.19,72.91Z"/><path class="cls-6" d="M23.24,70.36c0-.08.09-.23-.1-.24h-.07L23,70.2h0c0,.09,0,.2.07.27h0S23.22,70.46,23.24,70.36Z"/><path class="cls-6" d="M8.56,79.54a.25.25,0,0,0-.29,0,.38.38,0,0,0,.28.15h0C8.56,79.66,8.64,79.59,8.56,79.54Z"/><path class="cls-6" d="M64.45,60v0c.12-.18,0-.38.06-.56l0-.09h0a.07.07,0,0,1,0-.08c0-.06,0-.12,0-.17h0c-.11-.08-.21-.16-.35-.05s.05.26.07.39a.2.2,0,0,1,0,.22.13.13,0,0,1,0,.06c-.06.13-.08.25.06.34l.09,0h.1S64.48,60,64.45,60Z"/><path class="cls-6" d="M52.68,57h0c0,.08.13.07.21.06v-.12h-.07S52.72,56.91,52.68,57Z"/><path class="cls-6" d="M65.73,61.08c0-.08-.14-.06-.22,0a.16.16,0,0,0-.15.11.08.08,0,0,0,.06.08.34.34,0,0,0,.29-.06A.08.08,0,0,0,65.73,61.08Z"/><path class="cls-6" d="M65.63,53.15c.1.07,0,.2.1.3,0-.08,0-.18.1-.23s0,0,0-.06a.16.16,0,0,0-.18-.16C65.6,53,65.63,53.1,65.63,53.15Z"/><path class="cls-6" d="M53.46,56.81h-.07c.08.1.18.07.28.06C53.62,56.79,53.53,56.82,53.46,56.81Z"/><path class="cls-6" d="M49.82,56.6s.09.1.12.1.08-.09.08-.16S50,56.45,50,56.4s-.13,0-.14.08Z"/><path class="cls-6" d="M38.42,52.58a.51.51,0,0,1,.24,0h.07c.08-.21-.12-.16-.21-.21s-.14,0-.2,0a.42.42,0,0,0-.14.09l0,0C38.22,52.58,38.3,52.63,38.42,52.58Z"/><path class="cls-6" d="M41.7,49.18c-.09-.12-.18,0-.31,0,.13.08.21.12.31,0A.06.06,0,0,0,41.7,49.18Z"/><path class="cls-6" d="M42,48.47c-.11,0-.29,0-.29-.08s-.11-.11-.19-.13a.15.15,0,0,1-.12-.07c-.07,0-.14-.1-.22,0a.17.17,0,0,0,0,.22.68.68,0,0,0,.12.12c.13,0,.2.12.3.19a.4.4,0,0,0,.49,0,.16.16,0,0,0,0-.16A.11.11,0,0,0,42,48.47Z"/><path class="cls-6" d="M13.76,82.76a.2.2,0,0,1-.06-.14c0-.1-.06-.13-.14-.14s-.25,0-.12.18l.12.16C13.63,82.82,13.71,82.84,13.76,82.76Z"/><path class="cls-6" d="M9.13,98.29c-.1,0-.14,0-.15.12h.14S9.22,98.33,9.13,98.29Z"/><path class="cls-6" d="M97.81,72.91a3,3,0,0,1-.52-.07.28.28,0,0,0-.2,0c-.06.11-.48.06-.18.34l.1,0a.3.3,0,0,1,.2.1.34.34,0,0,0,.38,0c.28,0,.52-.17.8-.14.06-.1.2-.14.2-.28h0a.28.28,0,0,0-.28,0c-.13,0-.27,0-.4,0Z"/><path class="cls-6" d="M84.59,93.23s0,0,.08.06.19.09.2-.09a.17.17,0,0,0,0-.1H84.8C84.62,93,84.6,93,84.59,93.23Z"/><path class="cls-6" d="M86,93.75c0-.06,0-.12-.1-.12s0,0,0,.07,0,.11.1.12S86,93.78,86,93.75Z"/><path class="cls-6" d="M92.75,92.31c-.07-.13-.22,0-.31-.1s-.11-.26-.28-.28-.18,0-.2.09.06.11.13.13a.25.25,0,0,1,.18.23c0,.2.13.16.25.18l.15-.14S92.75,92.37,92.75,92.31Z"/><path class="cls-6" d="M94.07,91.78v-.12a.07.07,0,0,0-.06-.07.17.17,0,0,0-.21-.07h0c-.11.06-.08.14,0,.21a.13.13,0,0,1,0,.06h.07s0,0,0,.07h.2A.22.22,0,0,0,94.07,91.78Z"/><path class="cls-6" d="M91.94,86.07h.14l.16-.13c.05-.05.05-.1,0-.12S91.94,85.89,91.94,86.07Z"/><path class="cls-6" d="M92.92,85.12a0,0,0,0,0,0,0l0,0s0,0,0,0S92.9,85.13,92.92,85.12Z"/><path class="cls-6" d="M91.44,78.82c.14,0,.16.17.16.31l.16-.21,0-.17C91.63,78.76,91.52,78.72,91.44,78.82Z"/><path class="cls-6" d="M91.09,81.53s0,.09.07.09,0,0,0,0,0-.08,0-.11l-.08,0h0A.28.28,0,0,0,91.09,81.53Z"/><path class="cls-6" d="M20.21,89.38a.28.28,0,0,0,.21-.21h0a.08.08,0,0,0,0-.09c-.12-.16-.21-.1-.3,0l-.08,0-.09.07-.06.07c-.06.15,0,.18.15.15Z"/><path class="cls-6" d="M14.77,87.79l.15.13.34-.07C15.11,87.74,14.93,87.81,14.77,87.79Z"/><path class="cls-6" d="M12.55,85.24c-.1,0-.14,0-.14.13S12.56,85.33,12.55,85.24Z"/><path class="cls-6" d="M70.78,41.36l.07.06.13.14h0l.07-.06h0c.09-.16,0-.2-.14-.28l-.32,0C70.64,41.29,70.74,41.28,70.78,41.36Z"/><path class="cls-6" d="M69.48,46.19c.1,0,.16,0,.16-.09s0-.19-.15-.12A1.48,1.48,0,0,1,69.48,46.19Z"/><path class="cls-6" d="M68.2,49.36c.07,0,.15,0,.2-.06l-.06-.07C68.25,49.23,68.11,49.18,68.2,49.36Z"/><path class="cls-6" d="M81.75,51.73a.15.15,0,0,0,0-.23C81.72,51.58,81.69,51.65,81.75,51.73Z"/><polygon class="cls-6" points="81.72 51.5 81.72 51.5 81.72 51.5 81.72 51.5"/><path class="cls-6" d="M86.36,57.92v0l.06,0,.07,0,.11,0,0,0,.07,0a.12.12,0,0,0,.08,0,.08.08,0,0,0,0,0,.56.56,0,0,0,.4.25c.13,0,.25.12.39.16a.36.36,0,0,0,.23,0c.08,0,.16,0,.21-.06s-.05,0-.07-.07l-.14-.08a.43.43,0,0,0-.22-.06c-.08-.06-.2-.1-.24-.18s-.29-.2-.48-.18l-.14,0c-.06-.06-.15,0-.22-.07h0S86.39,57.86,86.36,57.92Z"/><path class="cls-6" d="M87.46,58s.05.08.09.07a.11.11,0,0,0,.1-.12c0-.05,0-.08-.08-.06S87.46,57.94,87.46,58Z"/><path class="cls-6" d="M84,56.63a.37.37,0,0,0,.39.25.15.15,0,0,0,.15-.07l-.07-.07-.08-.06h-.06l-.08-.06h-.06a.18.18,0,0,1-.08-.07h0a.07.07,0,0,0-.06,0A.18.18,0,0,0,84,56.63Z"/><path class="cls-6" d="M83.52,55.84l.2.08.07.06h0a.27.27,0,0,0,.08.07h0s0,0,.09,0v0l0,0,.06.08.18.18h0a.88.88,0,0,1,.36.06h.06c.08,0,.14,0,.09-.12l-.15-.23-.14-.07v-.14s0,0,0,0v0a.15.15,0,0,0-.17-.07h0a.36.36,0,0,0-.31-.11C83.73,55.72,83.58,55.67,83.52,55.84Z"/><path class="cls-6" d="M75,42.9a.11.11,0,0,0,.08.09c.06,0,.09,0,.1-.06a.09.09,0,0,0-.1-.11A.06.06,0,0,0,75,42.9Z"/><path class="cls-6" d="M79,48.36l0,0h0Z"/><path class="cls-6" d="M24.86,62.34c.07-.08.18,0,.26-.08a.28.28,0,0,0,.1-.09l0,0h.05a.08.08,0,0,0,.08,0l.12-.07c.11-.09.28-.12.31-.29h0l0,0c.13-.19.13-.19-.08-.21l-.07.07h0a.85.85,0,0,0-.42.22l-.08.06h0s0,0,0,0h-.07v0s0,0-.06,0h0s0,0,0,.06h0c-.13,0-.19.09-.28.15l-.07.07a.14.14,0,0,0,.14.07Z"/><path class="cls-6" d="M19.35,55.64h0l0,0s0,0,0,0l0,0a.17.17,0,0,0,0-.17h0c-.07,0-.1-.16-.22-.14a.15.15,0,0,0,0,.07c.09.08.06.24.21.28h0a.33.33,0,0,0,.07.27C19.49,55.82,19.38,55.73,19.35,55.64Z"/><path class="cls-6" d="M20.71,55.7a.42.42,0,0,1-.15-.12H20.5a.06.06,0,0,0-.09,0,.23.23,0,0,0,0,.14c0,.12.15.15.24.21h0l.08.06h0s0,.11.08.14h0c.08.08,0,.25.21.27s.13.12.14.21,0,.26.25.26c0-.13,0-.26-.05-.39A6.43,6.43,0,0,0,20.71,55.7Z"/><path class="cls-6" d="M37.31,48.68l.06-.08a.13.13,0,0,0-.07-.14l-.28.22c-.09.17.07.12.15.14A.38.38,0,0,0,37.31,48.68Z"/><path class="cls-6" d="M38.53,43.52l-.09,0h0a.18.18,0,0,1,.07,0Z"/><path class="cls-6" d="M94.94,67.85a1.48,1.48,0,0,0-.21-.13,2.14,2.14,0,0,0-.67,0,.12.12,0,0,0-.07.07.1.1,0,0,0,0,.09c.09.12.24.1.36.13s.18,0,.23.09S94.82,67.93,94.94,67.85Z"/><polygon class="cls-6" points="93.95 66.89 93.95 66.89 93.95 66.89 93.95 66.89"/><path class="cls-6" d="M94,66.91l-.09,0S94,67,94,66.91Z"/><path class="cls-6" d="M94.81,65.78c0-.06,0-.08-.06-.1a.09.09,0,0,0-.08,0l-.08.13C94.71,66,94.78,65.93,94.81,65.78Z"/><polygon class="cls-6" points="93.52 66.82 93.52 66.82 93.52 66.82 93.52 66.82"/><path class="cls-6" d="M93.38,66.61a.13.13,0,0,0,0,.06s0,.06,0,.08a.21.21,0,0,0,.15.07h0c0,.1-.21,0-.27.16a.88.88,0,0,0,.48,0c0-.06.13-.06.15-.14-.16,0-.12-.2-.22-.26S93.47,66.61,93.38,66.61Z"/><path class="cls-6" d="M94.87,66.27l.08.07a0,0,0,0,0,.07,0h.07v-.14H95a.15.15,0,0,0-.16,0h0A.06.06,0,0,0,94.87,66.27Z"/><path class="cls-6" d="M95.54,65.52a.72.72,0,0,0-.41-.24l0,.08h0c.08.07,0,.21.13.25a.13.13,0,0,0,.08,0h.13S95.57,65.55,95.54,65.52Z"/><path class="cls-6" d="M90.87,62.06a2.18,2.18,0,0,0,.56.25s.06.06.09.09.25.08.21-.13-.06-.22-.21-.21h0a.39.39,0,0,0-.1-.08c-.17-.08-.33-.22-.54-.16S90.77,62,90.87,62.06Z"/><path class="cls-6" d="M84.55,105.77l0,.06-.07.09-.06.1a1.05,1.05,0,0,0,0,.19.11.11,0,0,0,0,.07c.11.09.14,0,.2-.07s.05-.25.15-.35.12-.19-.07-.2l0,0A.31.31,0,0,0,84.55,105.77Z"/><path class="cls-6" d="M86.08,101.46l.06,0s0-.12-.07-.1S86,101.42,86.08,101.46Z"/><path class="cls-6" d="M86.94,93.93c0-.07,0-.14-.08-.2h0l-.15-.14h-.06c-.08,0-.07.12-.06.2h0c.08,0,0,.13,0,.19a.17.17,0,0,0,.06.06l.09,0h.09A.1.1,0,0,0,86.94,93.93Z"/><path class="cls-6" d="M21.54,72.19c-.08-.08-.16,0-.22.09l0,0h-.07c-.1.1-.22.18-.21.34a.41.41,0,0,0-.22.07l-.06,0s-.08.07,0,.11.08,0,.12,0h.07l.06,0,.07,0,.05-.06a.19.19,0,0,0,0-.08l0,0a0,0,0,0,0,.07,0l.06,0a1.2,1.2,0,0,1,.29-.26C21.5,72.35,21.64,72.31,21.54,72.19Z"/><path class="cls-6" d="M24.37,69.8l0,0a.19.19,0,0,0,0-.08.47.47,0,0,0,0-.17.11.11,0,0,0,0-.08s0,0,0,0a0,0,0,0,0-.05,0h-.07a.15.15,0,0,0,0,.07l-.06.07-.09.12h0c-.28.18-.23.52-.48.77l.27-.07h0a.27.27,0,0,0,.08-.07,1.07,1.07,0,0,1,.29-.27.51.51,0,0,0,0-.21.14.14,0,0,0,0-.06A.08.08,0,0,0,24.37,69.8Z"/><path class="cls-6" d="M23.57,69.71l-.07.08-.07.06c0,.18.11.11.2.07S23.65,69.76,23.57,69.71Z"/><path class="cls-6" d="M82.57,93.45h-.06a.24.24,0,0,1-.08-.06h0a.15.15,0,0,0-.08.15c.06.09.11.19.25.18S82.57,93.53,82.57,93.45Z"/><path class="cls-6" d="M65.82,63c.16.06.29,0,.37.13a.39.39,0,0,0,.16-.15.51.51,0,0,1,.06-.27c.1-.18.07-.27-.14-.4,0,.13,0,.26-.07.4S66.15,63,65.82,63Z"/><path class="cls-6" d="M72.21,61.86v-.67l-.15.11v.47c0,.17-.07.35.08.5A.26.26,0,0,0,72.21,61.86Z"/><path class="cls-6" d="M68.33,64.53a2.45,2.45,0,0,0,0-.27h0c-.09,0-.11,0-.15.08a.46.46,0,0,1-.07.27C68.24,64.67,68.31,64.65,68.33,64.53Z"/><path class="cls-6" d="M61.55,64.88c.06,0,.13,0,.12.09s.06.13.09.19a.81.81,0,0,0,.22,0c.07-.11,0-.2-.07-.28a.63.63,0,0,1-.16-.26C61.45,64.61,61.43,64.64,61.55,64.88Z"/><polygon class="cls-6" points="40.66 52.81 40.66 52.81 40.66 52.81 40.66 52.81"/><path class="cls-6" d="M40.29,52.41h0c-.06,0-.06.09,0,.13h0a.16.16,0,0,0,.07.07h0l.2.15s.12,0,.15.06l.09-.08s0,0,0-.06C40.65,52.48,40.44,52.49,40.29,52.41Z"/><path class="cls-6" d="M14.05,83.32l-.13.13s0,0,0,0C14.13,83.5,14.14,83.49,14.05,83.32Z"/><path class="cls-6" d="M15.62,84.83l0,0c-.08-.12-.2,0-.3,0l-.07,0s0,.09,0,.14a.33.33,0,0,0,.31.11C15.63,85,15.7,85,15.62,84.83Z"/><path class="cls-6" d="M10.27,98h-.06c-.06,0,0,.1-.08.13a.17.17,0,0,1,0,.07.15.15,0,0,0,.14.06h0c.05,0,0-.11.08-.14A.19.19,0,0,0,10.27,98Z"/><path class="cls-6" d="M10,98.55a.13.13,0,0,0,.14.14,1.34,1.34,0,0,0,0-.2C10,98.37,10,98.46,10,98.55Z"/><path class="cls-6" d="M11.77,106.07l-.21-.55-.15.07s0,0,0,.06,0,0-.06.08h-.06c0,.05,0,.11.05.11s.17.05.12.17,0,.08,0,.12h.07a.4.4,0,0,0,.28.07A.14.14,0,0,0,11.77,106.07Z"/><path class="cls-6" d="M92.87,74.23s0-.07-.06-.07-.07,0,0,.09l0,.09h0A.12.12,0,0,0,92.87,74.23Z"/><path class="cls-6" d="M94.45,77h0c.1-.15,0-.23-.11-.31C94.26,76.81,94.42,76.86,94.45,77Z"/><path class="cls-6" d="M95.58,91.52h0l-.09-.06c-.06,0-.12-.12-.2,0s0,.15,0,.21.11.18.25.18S95.58,91.62,95.58,91.52Z"/><path class="cls-6" d="M82.89,91.71c.09,0,.1-.06.12-.13a.23.23,0,0,0-.21-.13.69.69,0,0,0,0,.13C82.78,91.66,82.8,91.71,82.89,91.71Z"/><path class="cls-6" d="M21.3,89.36s0,.1.07.11.1,0,.13-.09a.49.49,0,0,1,0-.21c.11-.24,0-.46,0-.7a.11.11,0,0,0-.13-.09c-.06,0-.06.06-.07.1v.35A.69.69,0,0,1,21.3,89.36Z"/><path class="cls-6" d="M22.65,87.26a.14.14,0,0,0-.09-.11c-.11,0-.21-.14-.34,0h0a.08.08,0,0,0,0,.07s0,0,0,.07.05.09.07.14h.08a.21.21,0,0,0,.19,0C22.62,87.38,22.66,87.33,22.65,87.26Z"/><path class="cls-6" d="M69.77,48.19c0,.07-.13.14,0,.21a.25.25,0,0,1,.19-.08c.07,0,.11-.07.09-.13s-.09-.07-.15-.06Z"/><path class="cls-6" d="M84,56.53c0-.13-.07-.19-.14-.27s0,.13-.06.2a.1.1,0,0,0,.07.07h0A.08.08,0,0,0,84,56.53Z"/><path class="cls-6" d="M24.53,68.23s0-.08-.08-.09-.08,0-.08.07,0,.09.06.1A.1.1,0,0,0,24.53,68.23Z"/><path class="cls-6" d="M27.77,66.13c.07.08.12,0,.17,0l.06,0c0-.15-.12-.11-.19-.07A.1.1,0,0,0,27.77,66.13Z"/><polygon class="cls-6" points="28 66.05 28 66.05 28 66.06 28 66.05"/><path class="cls-6" d="M28.08,65.8c.05.23.18.07.28,0h.07c.11.07.16-.06.24-.08a.44.44,0,0,0,.15-.12.11.11,0,0,0,0-.13.17.17,0,0,1-.14-.07.53.53,0,0,0-.43.27h0A.22.22,0,0,1,28.08,65.8Z"/><path class="cls-6" d="M27.57,66.38c-.05,0,0,.08,0,.11l.08-.08S27.61,66.35,27.57,66.38Z"/><path class="cls-6" d="M26.78,59.88s0-.07-.06-.07a.1.1,0,0,0-.12.09c0,.05,0,.07.06.07S26.77,60,26.78,59.88Z"/><path class="cls-6" d="M26.5,58c-.1,0,0-.19-.18-.22s0,.27-.1.36,0,.22,0,.32,0-.12.12-.15,0,.23.2.18A1.35,1.35,0,0,1,26.5,58Z"/><path class="cls-6" d="M37.16,49.63V49.5H37C36.93,49.68,37.07,49.63,37.16,49.63Z"/><path class="cls-6" d="M90.87,66.48h0c-.08.17-.32.09-.45.27h.38c.1,0,.19-.08.3,0s.06,0,.07-.09l-.08-.06C91,66.47,90.93,66.54,90.87,66.48Z"/><path class="cls-6" d="M92.58,63.43c0,.19,0,.22.22.28,0,0,.14,0,.08-.09s-.07-.17.09-.16,0-.05,0-.08l-.06-.08C92.81,63.32,92.62,63.18,92.58,63.43Z"/><path class="cls-6" d="M92.3,63h0l0,0v0c.1.15.21.19.32,0s.07-.06.1-.09,0-.15-.12-.1S92.39,63,92.3,63Z"/><path class="cls-6" d="M88.09,59.36h0c.1,0,.18.13.33.1C88.31,59.35,88.24,59.21,88.09,59.36Z"/><path class="cls-6" d="M84.81,105.46c0,.05,0,.1.08.09s0-.07,0-.11l0-.06h0S84.81,105.43,84.81,105.46Z"/><path class="cls-6" d="M18.26,77.3l.09.14a.29.29,0,0,0,.29.17c.05,0,.1,0,.13,0h0A.42.42,0,0,0,18.26,77.3Z"/><path class="cls-6" d="M19.35,77.3c.21-.06,0-.13,0-.2s-.21,0-.2.11S19.28,77.32,19.35,77.3Z"/><path class="cls-6" d="M20.42,77.17a.14.14,0,0,1,0,.06l.13.07s.1,0,.14.1a.11.11,0,0,0,.08,0,.15.15,0,0,0,.11-.2.18.18,0,0,0,0-.07.94.94,0,0,0-.15-.06h0l-.07,0h0C20.47,77,20.34,77,20.42,77.17Z"/><path class="cls-6" d="M77.72,74.91a.12.12,0,0,0,0,.08s0,.07.06.11l.05.06h0a.51.51,0,0,1,.06.36c0,.14,0,.22.17.24h0a.13.13,0,0,0,.07.09h0V76l.06,0h0c0,.1,0,.23.12.28a.39.39,0,0,0,0-.51h0l0,0c0-.11,0-.22-.07-.31a.42.42,0,0,1-.11-.15h0s0,0-.06-.07S78,75,77.92,74.9,77.78,74.86,77.72,74.91Z"/><path class="cls-6" d="M85.87,95.94l-.15.13s-.19.09,0,.15a.37.37,0,0,0,.29,0h0c.07-.12.14,0,.21,0l0,0v-.06s0,0,0-.05a.62.62,0,0,0,0-.33h0l-.29.13Z"/><path class="cls-6" d="M63.8,71.41c0-.09-.1-.1-.17-.11s-.21,0-.22.16a.09.09,0,0,0,.1.11A.36.36,0,0,0,63.8,71.41Z"/><path class="cls-6" d="M70,84.8c-.11.06-.07.19-.17.23l-.06.07-.09.06a.13.13,0,0,0,0,.09.27.27,0,0,0,.11.1h.1c.18,0,.09-.19.17-.26h0C70.05,85,70.1,84.89,70,84.8Z"/><path class="cls-6" d="M61.68,72.61c-.07-.18-.08-.18-.35-.06,0,.13.15.17.18.31C61.56,72.73,61.59,72.65,61.68,72.61Z"/><path class="cls-6" d="M66.5,78.26c0,.08,0,.17-.09.22a2.44,2.44,0,0,1,0,.27h0c0,.08,0,.17.06.21s.17.1.27.07c0-.2,0-.41.14-.57-.13-.07-.21.09-.31,0S66.59,78.32,66.5,78.26Z"/><path class="cls-6" d="M67,78.05c-.07.22.09.41,0,.63.14,0,.12-.11.14-.2s-.06-.29.06-.42,0-.25-.17-.23S67,78,67,78.05Z"/><path class="cls-6" d="M72.87,76.71a.08.08,0,0,0,.1.07c.1,0,.12-.1.12-.18s0,0-.08-.06S72.86,76.61,72.87,76.71Z"/><path class="cls-6" d="M83.3,91.17l.06.07c.11-.17.1-.21-.07-.28h0l-.07.08a.13.13,0,0,0,0,.06Z"/><path class="cls-6" d="M72.57,71.85a1,1,0,0,1,.07.35c0,.11.09.23.24.15s.12-.18,0-.29V72s0-.1-.07-.14l0,0s0,0,0,0a.55.55,0,0,0,0-.18s0-.11,0-.15h0c-.08-.06-.18,0-.27,0s-.15.07-.15.17S72.46,71.81,72.57,71.85Z"/><path class="cls-6" d="M72,84.27c-.11,0-.13.07-.14.16s0,.19-.08.25a2.44,2.44,0,0,0-.2.7l0,.12h0l-.05,0a.47.47,0,0,0-.07.35c0,.1.06.19.2.12l.08-.07a.93.93,0,0,1,.09-.4l0,0h.06a.13.13,0,0,0,0-.14h0a1.35,1.35,0,0,1,0-.49A2.43,2.43,0,0,0,72,84.27Z"/><path class="cls-6" d="M66.35,80.28a.21.21,0,0,1-.07.13c0,.14,0,.14.17,0s0,0,0,0a.27.27,0,0,0,0,.12c.12.05.17.18.29.21a.07.07,0,0,0,.07,0c0-.11.1-.22,0-.33s-.13-.31-.36-.21C66.38,80.13,66.41,80.27,66.35,80.28Z"/><path class="cls-6" d="M71.3,86.88c-.22.07-.18.28-.23.43a.26.26,0,0,0,.06.27c.08,0,.14,0,.21-.07a2.26,2.26,0,0,0,0-.26C71.37,87.12,71.44,87,71.3,86.88Z"/><path class="cls-6" d="M66.92,84.54v-.12l-.14.06s0,.09,0,.13,0,.28.15.35h0A.56.56,0,0,0,66.92,84.54Z"/><path class="cls-6" d="M69.27,82h0s.11.17.14,0,0-.16,0-.16S69.28,81.93,69.27,82Z"/><path class="cls-6" d="M65.45,67.68c.07.06.13,0,.18,0h0c-.07,0-.08-.13-.17-.07A.07.07,0,0,0,65.45,67.68Z"/><path class="cls-6" d="M66.19,63.23s0,.1.06.06S66.22,63.24,66.19,63.23Z"/><path class="cls-6" d="M70.13,54.1c.05,0,.09,0,.14-.05s.11-.13,0-.22-.08,0-.12,0l-.06.12S70.07,54.06,70.13,54.1Z"/><path class="cls-6" d="M66.27,51.85s0-.06,0-.09l0,0,.06.07Z"/><path class="cls-6" d="M38.73,61.23a.1.1,0,0,0,.07,0h.12l.07,0a.27.27,0,0,0,.1-.06l.07-.06c0-.08,0-.14-.07-.14L39,61a.67.67,0,0,1-.29.12Z"/><path class="cls-6" d="M43,59.44l-.16.05h-.13c-.1.11-.27,0-.37.13a.16.16,0,0,1-.06.08h0a.21.21,0,0,0,.16.08,3.42,3.42,0,0,1,.63-.16C43.13,59.55,43.22,59.45,43,59.44Z"/><path class="cls-6" d="M10.9,97.17c0-.06-.07-.07-.13-.06l-.07.07C10.78,97.39,10.84,97.16,10.9,97.17Z"/><polygon class="cls-6" points="92.52 72.33 92.52 72.33 92.52 72.34 92.52 72.33"/><path class="cls-6" d="M92.35,72.1A3.26,3.26,0,0,0,91.9,72a.19.19,0,0,0-.16.06c0,.11,0,.19.13.2a.32.32,0,0,1,.23,0l.06,0h.36C92.6,72.16,92.45,72.14,92.35,72.1Z"/><path class="cls-6" d="M92.72,73.19s0,0,0,0,.06.08.12.09h0C92.8,73.25,92.8,73.19,92.72,73.19Z"/><path class="cls-6" d="M91.45,72l-.38,0c.11.19.37.07.45.26.1,0,.15,0,.09-.14l-.1-.13Z"/><path class="cls-6" d="M90.64,72c0,.08.06.14.16.17l.07.06c.24-.07,0-.14,0-.21S90.69,71.86,90.64,72Z"/><path class="cls-6" d="M92.83,71.89c.12.21,0,.33-.17.44h0s.11,0,.14.07a.2.2,0,0,1,.15.07H93a.11.11,0,0,1,.15,0h0a.19.19,0,0,0,.08,0,.2.2,0,0,0,.11,0s0,.08.1.11h0a10,10,0,0,0,1.25.11c-.08-.12-.21-.08-.26-.17l-.21-.08a2,2,0,0,0-.43-.06h-.28s0,0,0-.06a.65.65,0,0,0-.43-.13c-.1-.15,0-.37-.21-.5A.12.12,0,0,0,92.83,71.89Z"/><path class="cls-6" d="M92.53,79.07c0,.05,0,.08.08.07a.13.13,0,0,0,0-.09A.06.06,0,0,0,92.6,79C92.54,79,92.52,79,92.53,79.07Z"/><path class="cls-6" d="M16.43,86a.2.2,0,0,1-.16-.07L16,86h0a.08.08,0,0,0,0,.13c.1,0,.2,0,.28.07a.37.37,0,0,0,.27-.07C16.55,86.05,16.52,86,16.43,86Z"/><path class="cls-6" d="M78.65,55h0a2,2,0,0,0-.06.23s0,.08.09.1.08,0,.09,0,.25-.33.08-.57C78.76,54.84,78.77,55,78.65,55Z"/><path class="cls-6" d="M85.23,58.53l.07.07a.23.23,0,0,0,.28-.13h0a.23.23,0,0,1-.07-.07h0C85.24,58.34,85.24,58.34,85.23,58.53Z"/><path class="cls-6" d="M85.51,60.54h0s-.05,0-.08-.06H85.3l0,0a.06.06,0,0,1,0,0l-.07-.06c-.05-.06-.13,0-.19,0s-.17,0-.24,0h0a.06.06,0,0,0-.08,0h0a.24.24,0,0,1-.23,0H84c-.08,0-.13-.15-.24,0a.06.06,0,0,0,0,.06c.06.11.17,0,.25.06v.07a.36.36,0,0,0,.12.08.67.67,0,0,1,.18.07,3,3,0,0,0,.94.19C85.39,60.73,85.52,60.72,85.51,60.54Z"/><path class="cls-6" d="M81.08,58.75l.07-.07v-.17c0-.21-.09-.07-.15,0s0,0,0,.06S80.9,58.73,81.08,58.75Z"/><path class="cls-6" d="M81.86,58.6H82v-.14C81.9,58.46,81.85,58.51,81.86,58.6Z"/><path class="cls-6" d="M83.29,60.12l-.06,0L83.08,60a1.66,1.66,0,0,0-.27-.13l-.12,0-.07,0-.12,0h-.08a.34.34,0,0,1-.2,0,.28.28,0,0,0-.13,0s-.06,0-.1,0l-.08,0c-.18,0-.16.11-.07.22A.28.28,0,0,0,82,60c.09,0,.19-.06.28,0a2.79,2.79,0,0,1,.38.07,1.37,1.37,0,0,0,.48.13c0,.05.11,0,.14.08h0C83.45,60.27,83.37,60.2,83.29,60.12Z"/><path class="cls-6" d="M83.22,59.92h0c.11.06.26,0,.35.14h0c.09,0,.14,0,.14-.13a.48.48,0,0,0-.48-.14C83.17,59.83,83.18,59.87,83.22,59.92Z"/><path class="cls-6" d="M79.3,57.22c.06,0,.13.09.16,0s.11-.23-.09-.25l-.06.08Z"/><path class="cls-6" d="M87.36,59.1c.17-.13-.08-.2,0-.31s-.09-.1-.17-.12c-.24,0-.24,0-.19.14l.07.06C87.13,59,87.16,59.15,87.36,59.1Z"/><path class="cls-6" d="M86.5,58.2c-.1,0-.14,0-.13.13l.07.06C86.65,58.39,86.54,58.28,86.5,58.2Z"/><path class="cls-6" d="M72.42,51.64a.13.13,0,0,1,.13-.07.45.45,0,0,1,.14-.24s.1-.09,0-.14a.12.12,0,0,0-.18,0c-.1.17-.31.24-.41.41l0,0c-.08,0-.17,0-.1.15s.11,0,.18,0S72.32,51.7,72.42,51.64Z"/><path class="cls-6" d="M72.64,50.81h0s0,0,0,.06h0l.07.06a.06.06,0,0,0,.06,0l.09-.13s0,0,0-.06S72.69,50.74,72.64,50.81Z"/><path class="cls-6" d="M71.57,49.72c0,.06,0,.15.06.17s.13-.06.14-.13,0-.21-.13-.12Z"/><path class="cls-6" d="M28.8,62c.08,0,.06-.12,0-.18l-.11-.22s0,0-.08-.06-.18.09-.06.33c0,0,0,0,.05.05S28.72,62.08,28.8,62Z"/><path class="cls-6" d="M27.37,67.68c.05.17.24,0,.37,0h.11a.44.44,0,0,0,.3-.1c.1-.19.31-.29.43-.48h.07c0-.1,0-.2-.07-.27,0-.23,0-.24-.22-.15s-.25.27-.43.35a4,4,0,0,1-.22.34C27.55,67.43,27.31,67.49,27.37,67.68Z"/><path class="cls-6" d="M27.29,61.78l-.07-.07h0a.1.1,0,0,0-.14,0,.33.33,0,0,0,.07.27C27.31,62,27.29,61.88,27.29,61.78Z"/><path class="cls-6" d="M27.44,59.44s.06-.1,0-.15-.11,0-.16,0a.27.27,0,0,0-.08.07.15.15,0,0,0,.15.15Z"/><path class="cls-6" d="M26.85,61s0,0-.05,0,0,.13.11.14l0-.06C26.92,61.05,26.93,61,26.85,61Z"/><path class="cls-6" d="M93.14,71.88l.38.19c.08,0,.17,0,.24,0a.33.33,0,0,0-.17-.18C93.45,72,93.29,71.8,93.14,71.88Z"/><path class="cls-6" d="M92.94,67.79h-.13s0,.09,0,.13h.07c.12,0,.26,0,.36-.08h0C93.15,67.78,93,67.86,92.94,67.79Z"/><path class="cls-6" d="M90.3,66.88c-.22-.08-.42.08-.64.07a.15.15,0,0,0-.13,0,.09.09,0,0,0-.06.06.15.15,0,0,0,0,.17c.07.06.14.18.22,0s.44,0,.65-.06h0C90.35,67,90.33,67,90.3,66.88Z"/><path class="cls-6" d="M87.58,62.34c0-.05-.1,0-.14-.08h0l-.08-.06h0a.05.05,0,0,0-.08,0,.22.22,0,0,0,0,.08,2.85,2.85,0,0,0,.08.51l.06.08a.12.12,0,0,0,.14,0c0-.18-.05-.37.07-.54Z"/><path class="cls-6" d="M91.37,63c-.08,0-.16,0-.2.06s.06.15.17.16S91.36,63.1,91.37,63Z"/><path class="cls-6" d="M92,63.26l-.1,0h0S91.92,63.32,92,63.26Z"/><path class="cls-6" d="M21.4,75s-.06,0-.11,0l-.07.12h.06S21.4,75.1,21.4,75Z"/><path class="cls-6" d="M76.18,72a.22.22,0,0,0,.36.1l-.12-.17c-.07,0,0-.12-.09-.17a.19.19,0,0,0-.33-.05Z"/><path class="cls-6" d="M79.25,98.32l-.16,0a.32.32,0,0,0-.17.19c0,.07.1.07.17.08s.31,0,.47-.09C79.69,98.17,79.38,98.36,79.25,98.32Z"/><path class="cls-6" d="M79.86,96.89a1.07,1.07,0,0,1-.15.22c0,.06,0,0,.08.06s0,0,0,0,0,0,0,0h0c.06-.06.16,0,.22-.07h0c.18,0,.28-.13.07-.27H80C80,96.87,79.9,96.85,79.86,96.89Z"/><path class="cls-6" d="M82.93,97.31c-.18.11-.45,0-.57.21h0a.2.2,0,0,0-.08.08h-.06v0l-.15.07-.2,0H81.7s0,0-.07,0a.31.31,0,0,0-.1,0,.47.47,0,0,1-.16,0,.11.11,0,0,0-.08,0c0,.11,0,.19.14.2a6.77,6.77,0,0,1,.87-.19c.16,0,.26-.17.42-.09a.16.16,0,0,0,.21-.07c.13,0,.2-.13.29-.2l0-.07c0-.06-.09-.15-.2-.14s-.1,0-.14.07Z"/><path class="cls-6" d="M85.33,95.64c0,.08.06.07.11.09h0c0-.06,0-.12-.09-.12S85.33,95.63,85.33,95.64Z"/><path class="cls-6" d="M70.78,89.45v.34h.06a.31.31,0,0,0,.07-.2C70.84,89.57,70.88,89.45,70.78,89.45Z"/><path class="cls-6" d="M65.27,81.16a.46.46,0,0,1-.21.08c0,.05-.11.09-.15.14s-.1.12,0,.17.11,0,.16,0,.28-.11.3-.28Z"/><path class="cls-6" d="M65.34,79.92s0,0,0,.07h.2c0-.15-.05-.2-.19-.12A.13.13,0,0,0,65.34,79.92Z"/><path class="cls-6" d="M66.77,74.75v-.13c0-.07,0-.16-.12-.05S66.64,74.75,66.77,74.75Z"/><path class="cls-6" d="M71,86.27a.38.38,0,0,1-.14.14c0,.15.1.14.21.13a.11.11,0,0,0,.07-.06l.08-.14A.14.14,0,0,0,71,86.27Z"/><path class="cls-6" d="M67.33,75.13a.86.86,0,0,0,0-.16c-.08,0-.19-.12-.21.06a1.41,1.41,0,0,1,0,.2C67.25,75.3,67.32,75.26,67.33,75.13Z"/><path class="cls-6" d="M67.34,74.75h.06l0-.13c-.06,0,0-.1-.08-.14h0c-.16-.08-.22,0-.29.14l-.06.15c0,.12,0,.13.13.07S67.29,74.84,67.34,74.75Z"/><path class="cls-6" d="M71.27,86.34a.2.2,0,0,0,.21.13c0-.11.06-.23,0-.32A.22.22,0,0,1,71.27,86.34Z"/><path class="cls-6" d="M72.7,61.44h0c.07,0,.15.12.19,0s-.06-.11-.13-.11S72.69,61.38,72.7,61.44Z"/><path class="cls-6" d="M73.07,53.43h0c-.06.06,0,.15-.07.21h0a2.62,2.62,0,0,0,0,.28V54a.37.37,0,0,0,0,.34h0a.11.11,0,0,0-.09,0c-.07.15-.14.29,0,.45a2.45,2.45,0,0,0-.11.41,1.36,1.36,0,0,1-.08.63,2,2,0,0,0-.09.76h.07l.05,0s0,0,.07-.06l0-.09a1.69,1.69,0,0,1,.07-.38A6.27,6.27,0,0,0,73,54.69c0-.1,0-.21,0-.31a.09.09,0,0,0,0-.05h.06c0-.16.1-.3.08-.47s0-.15.06-.21a1.34,1.34,0,0,0,0-.2c0-.06,0-.12-.08-.15h0S73.1,53.39,73.07,53.43Z"/><path class="cls-6" d="M71.2,52.84l0-.05s0,0-.06,0a.08.08,0,0,0,0,0S71.18,52.86,71.2,52.84Z"/><path class="cls-6" d="M32,63.81l.11-.05a.2.2,0,0,0,.08,0c.1,0,.1-.14.14-.22a4.31,4.31,0,0,1,.51-.62l.06-.07h0a.12.12,0,0,0-.12-.06h-.05l-.08,0-.15.08c-.07,0-.16.06-.2.15s-.21.23-.29.36a.71.71,0,0,1-.1.14l0,0-.05.06-.07,0a.73.73,0,0,0-.09.08.24.24,0,0,0,0,.08.14.14,0,0,0,.08.09h.08l.12,0Z"/><path class="cls-6" d="M34,63.58a.15.15,0,0,0-.14-.07.18.18,0,0,1-.15.06c-.2,0-.26.13-.33.24s0,.1.11.11a.59.59,0,0,1,.43-.14A.16.16,0,0,0,34,63.58Z"/><path class="cls-6" d="M20.93,92.41v-.07a2.44,2.44,0,0,0,0-.27l0,0,0,0H21s0,0,0-.07a.68.68,0,0,1-.07-.27h-.14v.55h-.06c0,.25,0,.28.2.27Z"/><path class="cls-6" d="M20.89,95.32a2.26,2.26,0,0,1,.63-.17.18.18,0,0,0,.07-.05c-.05-.15.11,0,.13-.11l.06-.07c0-.17-.09-.17-.22-.1a.56.56,0,0,0-.24.13.34.34,0,0,1-.39,0v0a.21.21,0,0,0-.07-.13h0c.28-.06.12-.28.16-.43a6.63,6.63,0,0,1,0-.89,1.93,1.93,0,0,0,0-.24v0c0-.12-.15-.21-.06-.35s0,0,0-.06a.15.15,0,0,1-.07-.14c-.06,0-.1,0-.09.1s.07.27,0,.39a1.63,1.63,0,0,1-.11.9.2.2,0,0,0,0,.2.77.77,0,0,1,0,.34,1.48,1.48,0,0,0,0,.21c-.07.11.05.22,0,.34a.31.31,0,0,0-.06.13.34.34,0,0,0,0,.14.13.13,0,0,0,.1.09.1.1,0,0,0,.08,0A.76.76,0,0,0,20.89,95.32Zm-.1-.67h0Z"/><path class="cls-6" d="M22.43,86h0s.05,0,.06-.08v-.13a.14.14,0,0,0-.22,0c-.05.08.05.11.1.15S22.41,86,22.43,86Z"/><path class="cls-6" d="M23,87.36a.25.25,0,0,1,.14-.06v-.06l0,0a.15.15,0,0,0-.17,0l0,0C22.92,87.24,22.91,87.32,23,87.36Z"/><path class="cls-6" d="M74.14,51.65v.13C74.21,51.74,74.22,51.69,74.14,51.65Z"/><polygon class="cls-6" points="71.99 52.19 71.99 52.19 71.99 52.19 71.99 52.19"/><path class="cls-6" d="M71.55,52.08a.21.21,0,0,0,0,.25c.06.06.15,0,.23,0a.27.27,0,0,0,.17-.11,1.21,1.21,0,0,1-.31-.46A1.81,1.81,0,0,1,71.55,52.08Z"/><path class="cls-6" d="M24.9,69.13c-.11,0-.12.08-.19.09h0s-.07.13,0,.11A.18.18,0,0,0,24.9,69.13Z"/><path class="cls-6" d="M29,65h0c.07.12.14,0,.22,0V65a0,0,0,0,0-.07,0h-.07Z"/><path class="cls-6" d="M26.21,68.61h0c-.05-.07-.13-.11-.17,0s.05.07.11.08h0Z"/><path class="cls-6" d="M31.87,69.37a.14.14,0,0,0,.06.13c.3-.13.5-.41.79-.55,0-.09.23-.18,0-.27h-.06A4.35,4.35,0,0,0,31.87,69.37Z"/><path class="cls-6" d="M33.15,68.32l-.07,0-.06.07h0l-.07.06h0s0,0-.07.07l.08.08c.1,0,.22,0,.2-.15Z"/><polygon class="cls-6" points="32.87 68.54 32.87 68.54 32.87 68.54 32.87 68.54"/><path class="cls-6" d="M30.12,65.55a.16.16,0,0,0,0,.07v0c.07.08.13,0,.17,0s.05-.1.11-.13h0s.11,0,.14-.07h0a.27.27,0,0,0,.08-.07c.11-.09.13-.27.29-.33A.12.12,0,0,1,31,65a.27.27,0,0,0,.08-.07h0a2.4,2.4,0,0,1,.11-.23c0-.11-.05-.17-.17-.1s-.19.28-.36.34a.56.56,0,0,0-.3.17.16.16,0,0,0,0,.08.5.5,0,0,1-.09.21l0,.07-.05.1Z"/><path class="cls-6" d="M29.64,66c.05-.1.24-.18.08-.33h0l-.11.06-.1.08h0c-.06.1-.1.18.07.21Z"/><path class="cls-6" d="M29.8,58.6l-.15,0-.07.06c0,.07-.13.06-.2.08a.29.29,0,0,0,.41.05C29.79,58.74,29.8,58.67,29.8,58.6Z"/><path class="cls-6" d="M92,71.73c-.09,0-.21,0-.12.12C92,71.85,92,71.82,92,71.73Z"/><path class="cls-6" d="M87.5,61.65s0,0,0,.05l.55.09c.18,0,.14-.12.08-.22h-.21C87.8,61.6,87.63,61.51,87.5,61.65Z"/><path class="cls-6" d="M80.18,102.94c-.06.1,0,.19.1.23l.21-.29v0s-.06-.1-.09-.1S80.22,102.85,80.18,102.94Z"/><path class="cls-6" d="M84.3,101.23c.06,0,0-.07,0-.11h0l-.07.07S84.27,101.24,84.3,101.23Z"/><path class="cls-6" d="M22.64,75.86l-.17,0c-.06,0-.12,0-.15,0s0,.1,0,.15.21,0,.28-.07Z"/><path class="cls-6" d="M25.29,74c-.13,0-.23.08-.14.24s.17,0,.2,0,.28.08.43,0C25.71,74,25.47,74,25.29,74Z"/><path class="cls-6" d="M27,74c.06.1.15,0,.21,0a1,1,0,0,0,.35-.27c.24-.22.31-.56.56-.77,0-.11.09-.2,0-.35l-.36.43a.42.42,0,0,1-.11.18,2.1,2.1,0,0,0-.4.44h0l-.08.06a.24.24,0,0,1-.11.13C27,73.87,26.91,73.93,27,74Z"/><path class="cls-6" d="M77.35,94.7c-.09,0-.06.13-.07.2C77.48,94.88,77.4,94.79,77.35,94.7Z"/><path class="cls-6" d="M77.64,98.35a1,1,0,0,0-.51.13c.05.08.14.07.22.07S77.69,98.62,77.64,98.35Z"/><path class="cls-6" d="M78.3,98.15s0,.09,0,.13c0,.24,0,.24.26.13l.07-.06,0,0s0,0,0,0h.07a.61.61,0,0,1,.22-.2H79c0-.06.07-.12-.06-.13S78.52,98.14,78.3,98.15Z"/><path class="cls-6" d="M78.07,98.2l-.14,0-.07,0v.06h.24s.09,0,.08-.07S78.11,98.22,78.07,98.2Z"/><path class="cls-6" d="M77,97.7a.09.09,0,0,0,.11-.07c0-.07,0-.09-.11-.11a.08.08,0,0,0-.1.06A.11.11,0,0,0,77,97.7Z"/><path class="cls-6" d="M81,101.4c-.16,0-.26,0-.26.18a.28.28,0,0,0,.18,0l.08-.06Z"/><path class="cls-6" d="M65.48,81.93c0-.12,0-.23,0-.34s-.12-.08-.17,0a.41.41,0,0,0,.1.47h0a.08.08,0,0,0,0-.11s0,0,0,0l0,0Zm-.08,0h0Z"/><path class="cls-6" d="M76.64,65.47s0,.07,0,.07.1-.05.09-.11,0-.09,0-.08S76.65,65.4,76.64,65.47Z"/><path class="cls-6" d="M66.05,88a.3.3,0,0,0,0-.1.26.26,0,0,0,0-.15,1.2,1.2,0,0,0-.24-.15.1.1,0,0,0-.09,0,.36.36,0,0,0-.07.18c0,.11,0,.22,0,.34a1.14,1.14,0,0,1,0,.55.65.65,0,0,0,0,.13V89a.18.18,0,0,0,.05.07h0c.07,0,.12,0,.1.11a.77.77,0,0,0,0,.37c0,.12.11.12.21.08s0,0,.06-.08h0c0-.07,0-.1-.06-.14s0,0,0-.06A2.6,2.6,0,0,1,66.05,88Z"/><path class="cls-6" d="M69,92.2h.1v-.06l-.06,0s-.09,0-.11,0S68.9,92.2,69,92.2Z"/><path class="cls-6" d="M68.8,92.49s0,0,0,0h0c0-.07,0-.15-.06-.19v.19h0Z"/><path class="cls-6" d="M68.78,91.44c.11,0,.2,0,.21-.13s-.14,0-.22,0Z"/><path class="cls-6" d="M65.92,83.71c.09,0,0,.25.2.15v-.14C66.06,83.71,66,83.6,65.92,83.71Z"/><path class="cls-6" d="M60.91,75.38c0,.08,0,.11.12.11a.53.53,0,0,0,.08-.25A.16.16,0,0,0,60.91,75.38Z"/><path class="cls-6" d="M46.39,68.33a.3.3,0,0,0,.29.06.16.16,0,0,0,.08-.06.09.09,0,0,0,0-.13h0a4.85,4.85,0,0,1-.49-.29h0a.12.12,0,0,1-.08-.06l-.07-.07a.23.23,0,0,1-.07-.07h0c-.14.06-.13.15-.05.24s.16.09.19.18h0l.08.06.07.07a.23.23,0,0,0,.07.07Z"/><path class="cls-6" d="M54.26,67.31v0l.08,0C54.34,67.28,54.29,67.31,54.26,67.31Z"/><path class="cls-6" d="M31.35,64.47s0,0,0-.07,0-.1.07-.13h0a.24.24,0,0,0-.22-.15l-.22.07s0,0-.06.07h0a.15.15,0,0,0,.15.07s0,0,0,0a.06.06,0,0,0,0,0s.06,0,.07,0A.13.13,0,0,0,31.35,64.47Z"/><path class="cls-6" d="M89.87,71.3a.09.09,0,0,0-.15,0,.08.08,0,0,0,0,.11h0s.09.07.14,0V71.3Z"/><path class="cls-6" d="M81.79,71.85h0c0-.07.16,0,.21-.06v-.08h-.36A.2.2,0,0,0,81.79,71.85Z"/><path class="cls-6" d="M22.52,83.94a.16.16,0,0,0-.18-.12c-.08,0-.05.11-.06.17v.18l.12-.08C22.46,84.05,22.59,84.06,22.52,83.94Z"/><path class="cls-6" d="M79.14,59.3s0,.06,0,.1-.06.14,0,.17a.13.13,0,0,0,.17-.08.42.42,0,0,0,0-.13A.29.29,0,0,0,79.14,59.3Z"/><polygon class="cls-6" points="27.86 73.51 27.86 73.51 27.86 73.51 27.86 73.51"/><path class="cls-6" d="M27.84,73.54l0,0S27.82,73.53,27.84,73.54Z"/><path class="cls-6" d="M31.86,58.12c0-.09-.05-.13-.13-.13l-.08.07C31.7,58.14,31.78,58.13,31.86,58.12Z"/><path class="cls-6" d="M88.7,67.07h0s0,0,0,0h0S88.71,67.06,88.7,67.07Z"/><path class="cls-6" d="M89.3,67l0,0,.05,0Z"/><path class="cls-6" d="M89.77,70.6s-.07,0-.11,0v.12S89.78,70.67,89.77,70.6Z"/><path class="cls-6" d="M81,104.3c.07.07.13,0,.18,0a.11.11,0,0,0,0,0c-.06,0-.11-.1-.18,0A.08.08,0,0,0,81,104.3Z"/><path class="cls-6" d="M77.85,104.21c0,.07,0,.2.12.14s.24,0,.24-.2h0a.46.46,0,0,0-.07-.07s0,0-.07,0l-.08.06Z"/><path class="cls-6" d="M23.57,74.61c-.05,0-.07-.11-.12-.09s0,.11,0,.15l.11.08h0Z"/><path class="cls-6" d="M72.64,98.69s-.12.07-.09.12.1,0,.16,0a.57.57,0,0,1,0-.13Z"/><path class="cls-6" d="M76.64,99.1a.3.3,0,0,0,.29,0c0-.06.07-.14-.06-.15S76.65,99,76.64,99.1Z"/><path class="cls-6" d="M77.77,98.57c-.15,0-.27.08-.42.05s.06.14.08.2.22-.14.34-.2Z"/><path class="cls-6" d="M73.77,99.1c0,.05-.1,0-.14.07h-.14l-.35.21c-.14,0-.26,0-.22.19s.17.13.29.07a1.91,1.91,0,0,1,.32-.16c.14-.07.37,0,.39-.25,0-.09,0-.13-.15-.14Z"/><path class="cls-6" d="M79.51,103.37h0s.09-.08.06-.14-.05,0-.08,0S79.46,103.32,79.51,103.37Z"/><path class="cls-6" d="M74.4,105a.26.26,0,0,0-.27,0A4.61,4.61,0,0,0,73,105a.31.31,0,0,1-.33-.07c-.13,0-.08.11-.15.13a.62.62,0,0,1-.35.08c-.26,0-.51.09-.77.07,0,.25.19.19.33.2s.38.08.49-.12l.07,0a9.54,9.54,0,0,0,1.51-.06,1.17,1.17,0,0,0,.6-.16S74.47,105,74.4,105Z"/><path class="cls-6" d="M75.9,100s0-.05-.05-.08l-.27.07c0,.17.12.09.18.11A.11.11,0,0,0,75.9,100Z"/><path class="cls-6" d="M62.34,83.51s0,.12.08.11,0,0,0,0S62.39,83.52,62.34,83.51Z"/><path class="cls-6" d="M78.21,71.1s0,0,0,.05c.2,0,.21,0,.14-.13A.14.14,0,0,0,78.21,71.1Z"/><path class="cls-6" d="M65.65,86.63s0,.07,0,.07.06,0,.06,0,0-.07-.05-.07S65.65,86.59,65.65,86.63Z"/><path class="cls-6" d="M59.74,78.84h-.11c-.08.08-.1.21-.23.26-.18.26-.16.32.14.34,0-.06,0-.15,0-.16C59.83,79.19,59.76,79,59.74,78.84Z"/><path class="cls-6" d="M60.82,77.93l-.06-.07c-.08,0-.19,0-.18.08s0,.19.16.18S60.83,78,60.82,77.93Z"/><path class="cls-6" d="M56,74l-.06-.13c-.1,0-.15,0-.14.14Z"/><path class="cls-6" d="M48.39,69.23c0,.1,0,.16.09.14s.49-.19.73,0l0-.09c-.13-.06,0-.21-.08-.27a.57.57,0,0,1-.35-.14c0,.11-.09.23-.26.2S48.4,69.13,48.39,69.23Z"/><path class="cls-6" d="M87.3,70.06h.06c.09-.1,0-.14-.07-.19h0C87.12,69.93,87.18,70,87.3,70.06Z"/><path class="cls-6" d="M82.29,71.24h-.07c-.07.08,0,.19-.06.27l.07.07h.13l.06-.07C82.59,71.31,82.36,71.32,82.29,71.24Z"/><path class="cls-6" d="M83.09,69.56s.1,0,.08-.09-.1,0-.16,0a.11.11,0,0,0,0,0Z"/><path class="cls-6" d="M24.5,87.06s0,0-.05,0,0,0,0,0a0,0,0,0,0,.06,0S24.54,87.06,24.5,87.06Z"/><path class="cls-6" d="M37.45,84a.47.47,0,0,0-.15-.35,3.53,3.53,0,0,1-.36-.89c-.09.12,0,.26-.14.33,0,.22.18.33.23.52a1.62,1.62,0,0,0,.27.58C37.45,84.21,37.43,84.1,37.45,84Z"/><path class="cls-6" d="M38.14,86.29a.3.3,0,0,1,0-.22,1.41,1.41,0,0,0,0-.29c0-.24-.16-.43-.2-.66a.12.12,0,0,0-.08,0h0V85h-.07c0-.06-.09-.07-.14,0a.2.2,0,0,0,0,.31.67.67,0,0,1,.15.48.52.52,0,0,0,.07.27.13.13,0,0,1,.06.07l.08.21a.12.12,0,0,1,.08.12A.14.14,0,0,0,38.14,86.29Z"/><path class="cls-6" d="M36.65,85.31h-.1c-.06,0-.13,0-.15.06s.05.1.1.13.26,0,.37-.06S36.7,85.39,36.65,85.31Z"/><path class="cls-6" d="M35.43,72.76h-.12c0,.12-.06.26.13.28S35.46,72.85,35.43,72.76Z"/><path class="cls-6" d="M26.86,79.51a.13.13,0,0,0,.14-.14.36.36,0,0,0-.28-.13c0,.13.06.2.14.27Z"/><path class="cls-6" d="M70,97.79s0,.07,0,.11.08,0,.13,0v-.07S70,97.78,70,97.79Z"/><path class="cls-6" d="M71.89,98.92c.23.06.23.06.24-.09C72.05,98.84,71.94,98.81,71.89,98.92Z"/><path class="cls-6" d="M69.51,102.33c0,.13-.13.18-.24.22l-.08.14c0,.09,0,.1.11.11h.09l.09,0c.12-.06.28-.06.36-.2l-.14-.13a.15.15,0,0,0-.07-.14S69.52,102.29,69.51,102.33Z"/><path class="cls-6" d="M73.71,101l-.07.06c-.06.11,0,.17.1.13s.26-.14.4-.2.1,0,.14-.07h0c0-.08-.14-.07-.22-.07a.16.16,0,0,1-.08.06Z"/><path class="cls-6" d="M75.26,105.21s0,.07.08.09l.08-.06C75.38,105.18,75.31,105.14,75.26,105.21Z"/><path class="cls-6" d="M60.94,91.49c-.07.07,0,.16,0,.23l.08-.13.06-.08h0C61.06,91.45,61,91.42,60.94,91.49Z"/><path class="cls-6" d="M65.63,88.21c0-.1-.1-.15-.21-.07l-.06.14C65.48,88.38,65.58,88.38,65.63,88.21Z"/><path class="cls-6" d="M79.21,63.78c0,.1.05.14.15.14A.13.13,0,0,0,79.21,63.78Z"/><path class="cls-6" d="M47.27,70.74s0,.06,0,.09a.36.36,0,0,0,.07.1l0,0,.14-.06c.11,0,.26,0,.28-.14h0c-.14-.1-.39-.09-.35-.35-.07,0-.12,0-.17,0S47.28,70.64,47.27,70.74Z"/><path class="cls-6" d="M48.25,71.05a0,0,0,0,0,0,0c0,.08.06.07.11.09h0S48.33,71.05,48.25,71.05Z"/><path class="cls-6" d="M46.28,69.78h.1l-.06-.08s-.08-.06-.11,0S46.22,69.77,46.28,69.78Z"/><path class="cls-6" d="M47.32,69.37c0,.19.17.16.28.2.18-.14,0-.18-.07-.27l-.15-.13c-.06,0-.06.08-.07.13A.17.17,0,0,1,47.32,69.37Z"/><path class="cls-6" d="M21.93,96.89c-.08,0-.16,0-.24,0,.11,0,.21.06.29,0Z"/><path class="cls-6" d="M23.56,97.93c.06-.07.05-.16.08-.23v-.32h0c0-.09,0-.19-.12-.19a1,1,0,0,0,0,.17h0a.06.06,0,0,0,0,.09h0a0,0,0,0,1,0,.07v.13s0,.11-.07.14h0c0,.08,0,.22.15.14Z"/><path class="cls-6" d="M86.73,69.94h-.06s0,0,0,0a.08.08,0,0,0,.08,0S86.76,70,86.73,69.94Z"/><path class="cls-6" d="M26.5,92.89a1,1,0,0,0,0-.34c0-.06-.05-.06-.1-.07-.12.17-.06.4-.21.55h0c0,.08-.07.16,0,.22s.15,0,.21-.07a.39.39,0,0,0,.06-.24Z"/><path class="cls-6" d="M84.65,66.34a1.06,1.06,0,0,1-.57-.28h0L84,66c0-.13-.26,0-.3-.16a.51.51,0,0,1,0-.22c0-.06,0-.15-.13-.23,0,.23-.07.34-.3.38.19.23.51.19.65.4a4.92,4.92,0,0,0,1,.56c.07,0,.16,0,.2-.06L85,66.62c0-.07-.15-.08-.2-.15A.32.32,0,0,1,84.65,66.34Z"/><path class="cls-6" d="M28.57,85.23l.07-.06c0-.13.15-.21.14-.34s0-.16-.14-.08-.4.21-.28.49h0A.17.17,0,0,0,28.57,85.23Z"/><path class="cls-6" d="M28,87.31l-.14.06c-.06,0-.11,0-.14,0s0,.09.07.12H28A.15.15,0,0,0,28,87.31Z"/><path class="cls-6" d="M37.65,84.61s0,0,0,0c-.19-.11-.2-.1-.22.11a.2.2,0,0,1,.08.14C37.62,84.77,37.57,84.65,37.65,84.61Z"/><path class="cls-6" d="M37.29,79c-.08,0-.11-.16-.22-.09s0,.16,0,.24v0h.14A.21.21,0,0,0,37.29,79Z"/><path class="cls-6" d="M36.41,74.66l0,.06,0,0s0,0,0-.06Z"/><path class="cls-6" d="M71,99.72l-.15.07c-.3.11-.3.11-.43-.18,0,0,0,0-.13,0h0a.3.3,0,0,1,0,.29h0a0,0,0,0,0,0,.07h0s0,0,0,0,0,.19.16.14h0l0,0c.24.07.37-.12.53-.23l.13-.08.07-.06s.06-.1,0-.14S71,99.7,71,99.72Z"/><path class="cls-6" d="M70.92,101a.18.18,0,0,0,.29,0h.2s.22-.09,0-.14h-.28C71,100.76,70.93,100.84,70.92,101Z"/><path class="cls-6" d="M71.31,99.93h.25l.08-.06s.07-.07.07-.11,0,0-.08,0A.42.42,0,0,0,71.31,99.93Z"/><path class="cls-6" d="M71.48,99.53h-.21c0,.06-.07.14,0,.18s.13,0,.17-.08S71.47,99.56,71.48,99.53Z"/><path class="cls-6" d="M67.63,102.28c-.16-.07-.31,0-.46,0a.39.39,0,0,0-.14.08.11.11,0,0,0,0,.14.08.08,0,0,0,.07,0s.1,0,.14-.06h.21c.09-.07.21,0,.29-.06l.42-.08c-.11-.19-.28-.07-.42-.06Z"/><path class="cls-6" d="M70.55,101.17c-.1-.11-.23,0-.34-.06s.07.15.18.11Z"/><path class="cls-6" d="M70.34,105.79c-.2,0-.34.12-.35.34s0,.15.15.12l.13,0a.55.55,0,0,1,.43-.21.06.06,0,0,0,0-.07c.09,0,.21,0,.25-.09s-.09-.12-.13-.18h-.06a.29.29,0,0,1-.22.06h0l-.08.06h0s0,0-.07,0Z"/><path class="cls-6" d="M47.39,84.72c0,.06,0,.13-.07.18l0,0a.47.47,0,0,0-.05.26c0,.13,0,.29.14.36a.17.17,0,0,0,.1,0c0-.12-.12-.23,0-.35a.93.93,0,0,1,.07-.41s0-.09-.06-.11S47.39,84.67,47.39,84.72Z"/><path class="cls-6" d="M56.4,89.79c0-.07.11-.14,0-.21h0a.11.11,0,0,0-.08,0,.57.57,0,0,1-.18,0l-.09,0-.21,0H55.2l.2.13c.13,0,.24,0,.22.2a.11.11,0,0,0,.07.14h.14v-.1l0,0,0,0a.13.13,0,0,1,.09,0c.07,0,0,.07,0,.11s-.09.17,0,.25h.2c.14,0,.33,0,.4-.11S56.38,89.94,56.4,89.79Z"/><path class="cls-6" d="M56.57,87.33l0,.09s.07.13.15.08.05-.17,0-.26v-.07h0l-.06-.08c0-.06,0-.12-.08-.19s-.07.18-.07.27S56.55,87.28,56.57,87.33Z"/><path class="cls-6" d="M51.56,89.19c-.13,0,0,.17,0,.25h0l.07.07h0c.08,0,.1,0,.13-.07s0,0,0-.06S51.71,89.14,51.56,89.19Z"/><path class="cls-6" d="M58.61,87.3a.14.14,0,0,0,.11,0l.09-.07,0,0c0-.08,0-.16-.08-.21a1.48,1.48,0,0,0-.29.27A.13.13,0,0,0,58.61,87.3Z"/><path class="cls-6" d="M60.86,92.13c0,.08,0,.11.11.14h0l.08-.06h0c0-.06,0-.13-.12-.12S60.86,92.1,60.86,92.13Z"/><path class="cls-6" d="M60.25,92.75c0,.18.1,0,.16,0h0a.17.17,0,0,0-.08-.14h0a.23.23,0,0,1-.07.07A.13.13,0,0,0,60.25,92.75Z"/><path class="cls-6" d="M61.2,91.8c0,.15.07.08.14.06A.12.12,0,0,0,61.2,91.8Z"/><path class="cls-6" d="M60.12,92.9s0,.1-.08.13h0a.13.13,0,0,1-.07.06H59.9a.11.11,0,0,0-.07.11s0,.05.07,0h.29c0-.08,0-.16.07-.21V93c0-.12-.06-.12-.15-.07Z"/><path class="cls-6" d="M48.82,76l0,0a.06.06,0,0,0,0,0,.13.13,0,0,0-.14.14.09.09,0,0,0,0,.07.07.07,0,0,0,0,.06l.14,0A.3.3,0,0,0,48.82,76Z"/><path class="cls-6" d="M27.36,82.27s-.09-.07-.14,0,0,0,0,.06.1,0,.15,0Z"/><path class="cls-6" d="M23.7,96.81c0-.08-.05-.11-.12-.11v.19C23.63,96.89,23.69,96.89,23.7,96.81Z"/><path class="cls-6" d="M26.05,97.17a.69.69,0,0,0,0-.13.1.1,0,0,0-.14,0C25.93,97.12,26,97.17,26.05,97.17Z"/><polygon class="cls-6" points="25.93 97.04 25.93 97.04 25.93 97.04 25.93 97.04"/><path class="cls-6" d="M46.6,91.79h0a3.78,3.78,0,0,0,.21.56v.06c.22.31.22.31.22.48s.13.33.36.33a.24.24,0,0,0,.19-.17.23.23,0,0,0-.09-.23.09.09,0,0,0-.1,0h0a.17.17,0,0,0,0-.17.29.29,0,0,0,0-.09.27.27,0,0,0-.29-.21h0v-.1s0,0,0,0,0-.15-.09-.21-.12-.37-.38-.37C46.57,91.67,46.55,91.72,46.6,91.79Z"/><path class="cls-6" d="M42,102.21a.17.17,0,0,1-.15-.06h-.06a.46.46,0,0,0-.07.07h0a.46.46,0,0,0,.07.07h.16C42,102.28,42,102.27,42,102.21Z"/><path class="cls-6" d="M40,91.13c0,.31,0,.35,0,.36s.06,0,.06,0A.25.25,0,0,0,40,91.13Z"/><path class="cls-6" d="M25.74,94.72c0,.1-.09.2,0,.31l0,0c.06,0,.13,0,.17,0h0A.19.19,0,0,0,26,95c0-.06.28,0,.06-.19-.06,0-.16.08-.2,0S25.77,94.66,25.74,94.72Z"/><path class="cls-6" d="M40.45,101.72c.06,0,.11,0,.13-.06S40.48,101.66,40.45,101.72Z"/><path class="cls-6" d="M44.38,87.94c.06,0,.23,0,.14-.14s-.3,0-.42-.09h-.29v0c-.08,0-.16,0-.23,0a.46.46,0,0,0,.23,0,.13.13,0,0,1,.14.07l.08.06h.06a.22.22,0,0,0,.19,0Z"/><path class="cls-6" d="M45.81,89.72l0,0a.26.26,0,0,1-.12-.19l0-.09a.34.34,0,0,0-.26-.24h0a.15.15,0,0,0-.14.07l.22.41c.06.06,0,.15.07.21h0l.07.06C45.77,90,45.82,89.87,45.81,89.72Z"/><path class="cls-6" d="M42.1,87.92h.06l.07-.07v0l-.06-.08a.66.66,0,0,0,0-.14.23.23,0,0,0,.22-.06c-.08,0-.14,0-.15-.12l-.08,0,0,0c-.07,0-.15-.11-.23,0h0c0,.09,0,.17.07.26a.09.09,0,0,0,.06,0A.38.38,0,0,0,42.1,87.92Z"/><path class="cls-6" d="M40.9,79.29h0c0-.07,0-.15-.07-.19a.25.25,0,0,1-.14-.06c-.11.09-.09.18,0,.26s0,0,0,.07h.06v.06a.44.44,0,0,1,.15.26.31.31,0,0,0,.07.09h0c0,.09,0,.21.14.28a.26.26,0,0,0,.14.13.64.64,0,0,1,.08.33c.06.07,0,.16.07.22h0s0,.11.06.16a.18.18,0,0,1,.05.16s0,.05.07.05a.21.21,0,0,1,.29-.1h0a.28.28,0,0,0,0,.09,2,2,0,0,0,.17.32.41.41,0,0,1,.07.11.25.25,0,0,1,0,.07.36.36,0,0,0,.18.24c.15,0,.21.11.28.21s.17.09.2,0a1,1,0,0,0-.21-.43.22.22,0,0,0,0-.08c-.14-.14-.18-.33-.3-.48h0a.17.17,0,0,0-.06-.06c-.07,0-.12-.1-.21-.09s.07-.12,0-.15c-.22-.21-.34-.49-.62-.64h0a.54.54,0,0,0-.08-.35C41.19,79.56,41.1,79.37,40.9,79.29Z"/><path class="cls-6" d="M66.55,104.62c0-.16-.1-.14-.21-.13S66.45,104.62,66.55,104.62Z"/><path class="cls-6" d="M47.27,86.59c.09.09.13,0,.18,0v-.14a.1.1,0,0,1,0-.14.71.71,0,0,0,0-.14c-.11-.06,0-.22-.14-.27C47.09,86.09,47.24,86.34,47.27,86.59Z"/><path class="cls-6" d="M53.32,91.86l.07-.07c0-.23-.17-.11-.28-.07a.15.15,0,0,1,0,.07C53.16,91.88,53.24,91.86,53.32,91.86Z"/><path class="cls-6" d="M57.45,88c.07,0,.08-.06.1-.11s-.1-.14-.15-.21-.19,0-.18.12S57.35,87.93,57.45,88Z"/><path class="cls-6" d="M57,89.52c0,.07.08.16.17,0l0-.09s0-.11-.06-.15h0C57,89.36,57,89.44,57,89.52Z"/><path class="cls-6" d="M57.83,88.13h0s-.06,0-.09,0-.11,0-.12.09,0,0,0,0,.09,0,.13,0Z"/><path class="cls-6" d="M56.52,88.49c0,.05,0,.05.08.05a.08.08,0,0,0,.07-.1s0-.06-.06,0A.12.12,0,0,0,56.52,88.49Z"/><path class="cls-6" d="M56.76,89.1h0c0,.06.1.1.17,0a.07.07,0,0,0,0-.11C56.83,89,56.82,89.09,56.76,89.1Z"/><path class="cls-6" d="M55.83,90.56v.06h0s0,.1.07.13a.14.14,0,0,0,.13.06s0-.07,0-.12,0-.14-.07-.21h0s0,0,0,0Z"/><path class="cls-6" d="M49.61,101.44a.16.16,0,0,0,0-.13s0-.06,0-.09c-.07-.19-.06-.4-.21-.56s-.1-.08-.18,0v.07a.14.14,0,0,0,0,.15c.09.34.17.69.29,1C49.66,101.74,49.57,101.58,49.61,101.44Z"/><path class="cls-6" d="M44,103s0,0-.06-.06-.13,0-.13.09,0,.05.07,0S44,103,44,103Z"/><path class="cls-6" d="M35.28,98.74c0-.1-.06-.13-.14-.15s-.1,0-.1.08.09.12.17.13A.06.06,0,0,0,35.28,98.74Z"/><path class="cls-6" d="M45.11,87.51H45v.07l.07.07.21.14a.11.11,0,0,0,0-.14A.32.32,0,0,0,45.11,87.51Z"/><polygon class="cls-6" points="45.24 87.79 45.24 87.79 45.24 87.79 45.24 87.79"/><path class="cls-6" d="M44.16,85.65h0c.15,0,.2,0,.14-.14h0A.15.15,0,0,0,44.16,85.65Z"/><path class="cls-6" d="M43.58,84.49c0,.14.15.18.23.26s.13.23.27.3c0-.12-.06-.2,0-.3a.09.09,0,0,0,0-.13h0c-.17-.06-.16-.25-.29-.34h0l-.08-.07h0a.41.41,0,0,0,0-.09s0-.05-.09-.05,0,.27,0,.41Z"/><path class="cls-6" d="M42.81,84.76h.09a0,0,0,0,0,.05,0c0-.12-.16-.15-.14-.27l-.07-.07C42.56,84.56,42.78,84.64,42.81,84.76Z"/><path class="cls-6" d="M45.17,87.93l-.22-.1c-.06,0-.13,0-.14,0s.06.07.09.12S45.13,88.17,45.17,87.93Z"/><path class="cls-6" d="M46.9,90.54l-.08-.07a.16.16,0,0,0-.08.15C46.81,90.62,46.87,90.61,46.9,90.54Z"/><path class="cls-6" d="M47.38,88.61a2.52,2.52,0,0,0,0,.55l.14-.06a1.48,1.48,0,0,0,0-.21C47.41,88.83,47.5,88.68,47.38,88.61Z"/><path class="cls-6" d="M47.53,88.27a.09.09,0,0,1-.07,0c-.11.11,0,.13.07.14S47.59,88.32,47.53,88.27Z"/><path class="cls-6" d="M42.92,82.72a.11.11,0,0,0,.06-.07.15.15,0,0,0-.09-.1c-.16-.08-.22-.25-.36-.34,0,.16.07.28.14.41l.07.06h0A.17.17,0,0,0,42.92,82.72Z"/><path class="cls-6" d="M40.22,78.56l.23.34c.06,0,.07-.09.08-.16s-.06-.27-.21-.34S40.19,78.47,40.22,78.56Z"/><path class="cls-6" d="M52.11,105.11a.16.16,0,0,0-.08-.06l-.24-.07c-.13,0-.25-.12-.39,0s-.14,0-.16,0,.07.07.08.12a1.61,1.61,0,0,0,.49.07C51.91,105.16,52,105.21,52.11,105.11Z"/><path class="cls-6" d="M55.33,105.86c0,.06.08.07.14.08h0s0-.07.07-.07h.14l.08.06h0c.08-.05.06-.13.06-.2l-.28-.08c-.15-.07-.3-.19-.49-.08,0,0,0,0,0,0v0l0,0h0s-.09,0-.12,0,0,.14,0,.21H55A.27.27,0,0,1,55.33,105.86Z"/><path class="cls-6" d="M56.33,105.8v.13h.2a.15.15,0,0,0,.16,0h0a.93.93,0,0,0,.14-.14h0a.46.46,0,0,1,.07-.07h0c0-.07,0-.1-.09-.08S56.46,105.66,56.33,105.8Z"/><path class="cls-6" d="M56.91,106a1.68,1.68,0,0,0,.63.07c.05-.08,0-.1-.07-.14h-.2c-.05,0-.11,0-.16-.06H57C57,105.93,56.86,105.86,56.91,106Z"/><path class="cls-6" d="M69.56,100.4l-.08,0a.13.13,0,0,0-.13,0l-.44.2-.07.07c-.11.08-.25,0-.36.06h-.2c-.07,0-.12,0-.15.06h0c-.1,0-.16.14-.29.13l-.07.07H67.7l-.07.07a.15.15,0,0,1-.15.06l-.36.07c-.08.05-.21,0-.28.07h0c-.13.19-.41.09-.55.28a.56.56,0,0,0,.57-.07.41.41,0,0,1,.27-.07h0c.06-.06.14,0,.21,0l.09,0c.1-.05.2-.12.32-.07s.18-.07.23-.16.32-.09.45-.2a.16.16,0,0,0,.14-.06.51.51,0,0,0,.34-.08.11.11,0,0,1,.15,0h.07a.52.52,0,0,1,.37,0,1.14,1.14,0,0,0,.55-.19H70c-.11,0-.11-.13-.14-.21h0s0,0,0-.06-.12-.08-.19,0A.24.24,0,0,1,69.56,100.4Z"/><path class="cls-6" d="M56,105.8h0a.18.18,0,0,0,.29,0l-.07-.07s0,0,0,0,0,0,0,0H56A.46.46,0,0,1,56,105.8Z"/><path class="cls-6" d="M56.5,101.79s0,.07.08.08h.1v-.06l-.06,0S56.52,101.73,56.5,101.79Z"/><path class="cls-6" d="M58,106s-.1-.06-.16,0v.07h.07c.08,0,.16,0,.21-.06Z"/><path class="cls-6" d="M41.59,80.14c.07.08.11.21.27.24,0-.17-.08-.27-.13-.38h-.06A.16.16,0,0,0,41.59,80.14Z"/><path class="cls-6" d="M50,91.3h0s0,0,0,0,0,0,0,0a.16.16,0,0,1,.07,0c.12,0,.25,0,.35-.06l-.14-.13C50.06,91.08,50.06,91.08,50,91.3Z"/><path class="cls-6" d="M52,91.26s.08,0,.12,0a.33.33,0,0,0,0-.1c0-.06,0-.14-.09-.12S52,91.2,52,91.26Z"/><path class="cls-6" d="M57.11,89.93a.61.61,0,0,1,.14.07s0,0,0-.06a.4.4,0,0,0-.09-.21C57,89.74,57.13,89.86,57.11,89.93Z"/><path class="cls-6" d="M59.32,93.16c.14,0,.28.06.46-.07a.35.35,0,0,1-.31-.13h-.06C59.39,93,59.29,93.06,59.32,93.16Z"/><polygon class="cls-6" points="58.79 90.81 58.8 90.79 58.78 90.79 58.79 90.81"/><path class="cls-6" d="M67.27,97.44c-.06,0-.08.07-.07.13s.09,0,.14,0S67.39,97.43,67.27,97.44Z"/><path class="cls-6" d="M44.17,105v.06c.15.14.14.34.22.5a.3.3,0,0,0,.13.2c.11-.08.07-.19.09-.29a1.34,1.34,0,0,1-.07-.53c0-.11-.1-.19-.16-.28h-.07C44.31,104.83,44.33,105,44.17,105Z"/><path class="cls-6" d="M47.59,95.6h-.1c-.06,0-.14,0-.14.06s0,.06.1.08l.08,0C47.62,95.74,47.6,95.67,47.59,95.6Z"/><path class="cls-6" d="M45.45,103.46l-.28-.08C45.24,103.54,45.28,103.55,45.45,103.46Z"/><path class="cls-6" d="M48.47,101.76c-.13,0-.15.08-.15.17h-.07V102c.14.11,0,.25,0,.37s.12-.08.19-.09a.44.44,0,0,0,.07-.27v-.09C48.53,101.86,48.56,101.77,48.47,101.76Z"/><path class="cls-6" d="M47.88,92.69c-.08-.06-.05-.16-.07-.24s-.11-.1-.17,0,0,.09,0,.13a1.58,1.58,0,0,1,.15.48l.14-.13C47.89,92.83,47.88,92.76,47.88,92.69Z"/><path class="cls-6" d="M48.34,96.75h0a.71.71,0,0,1,.07.26,1.68,1.68,0,0,0,.13.58h0c.12.44.14.91.23,1.36.12.1,0,.27.13.36h0c0,.26.18.48.16.74l.06,0a.09.09,0,1,0,.07-.07l0-.06a.25.25,0,0,0,0-.08,1,1,0,0,1,0-.17s0-.06,0-.09a1.66,1.66,0,0,1-.11-.38.22.22,0,0,0-.05-.08l0,0v0a.69.69,0,0,0,0-.2c0-.1-.06-.2-.08-.3a4.13,4.13,0,0,0-.13-.61.69.69,0,0,1-.09-.34.27.27,0,0,0,0-.09.15.15,0,0,0,0-.12h-.07a.19.19,0,0,0,0-.15,1.54,1.54,0,0,1,0-.43c0-.11,0-.23-.16-.25v0c-.08,0,0-.14-.13-.15A.5.5,0,0,0,48.34,96.75Z"/><path class="cls-6" d="M47.51,91.65s.06,0,.09.07a.14.14,0,0,0,.15-.06.3.3,0,0,0,.1-.19l0-.09-.11-.18,0,0c-.15.11,0,.31-.13.42h0A0,0,0,0,0,47.51,91.65Z"/><path class="cls-6" d="M47.24,91.86a.13.13,0,0,1,0,.06s0,.11.07.11.08-.06.08-.11a.57.57,0,0,0,0-.13h-.08A.08.08,0,0,0,47.24,91.86Z"/><path class="cls-6" d="M47.54,89.58a.13.13,0,0,1,0-.06c-.13.15-.06.31,0,.48C47.56,89.86,47.51,89.72,47.54,89.58Z"/><path class="cls-6" d="M48,88.34c-.06,0,0,.09,0,.14s.15,0,.15-.06S48,88.35,48,88.34Z"/><path class="cls-6" d="M50.53,104.91h0c.06,0,0,.1.09.12h0c.14-.06.22-.14.06-.26h0a.26.26,0,0,0-.09-.05.14.14,0,0,0-.12.06Z"/><path class="cls-6" d="M50.89,94.35h0c0,.05-.17,0-.13.11s.18.06.27,0h0C51,94.39,51,94.34,50.89,94.35Z"/><path class="cls-6" d="M52.13,93.86s0-.1,0-.14,0,0,0-.06-.18.09-.28.13h0c0,.07,0,.13,0,.17a.09.09,0,0,0,.09,0h0Z"/><path class="cls-6" d="M57.19,90.2l.1.16.1-.16C57.32,90.11,57.26,90.11,57.19,90.2Z"/><path class="cls-6" d="M57.75,91.66c-.11-.1,0-.23-.07-.35v-.06h0a.49.49,0,0,0,0-.12c0-.05-.07-.1-.1-.16h0a.3.3,0,0,1-.08.08.18.18,0,0,0,0,.2.13.13,0,0,1,0,.06s0,.11.06.15v.13a4.7,4.7,0,0,1,.21.9v0a.38.38,0,0,0,0,.21l0,0c.07,0,.15,0,.12-.12a.26.26,0,0,1,.08-.36.2.2,0,0,0,.07-.19C57.8,92,57.8,92,57.75,91.66Z"/><path class="cls-6" d="M48.31,90.89l0-.06a.12.12,0,0,0,0-.15c0-.06-.09-.16-.15,0a.22.22,0,0,1-.06.15s0,0,0,.06,0,0,0,.07V91C48.27,91.13,48.26,91,48.31,90.89Z"/><path class="cls-6" d="M58.05,95.45a.17.17,0,0,0-.24,0c0,.1.06.16.09.24S58,95.55,58.05,95.45Z"/><path class="cls-6" d="M56.54,96.77s0,.1.07.1.07-.05.07-.1a.09.09,0,0,0-.08-.09C56.53,96.68,56.54,96.73,56.54,96.77Z"/><path class="cls-6" d="M52.14,94.26s-.1,0-.13,0-.06,0-.06.08,0,0,.07,0,.16,0,.15.13-.08.13,0,.22a.86.86,0,0,0,.3-.39l0-.15c0-.09,0-.11-.1-.12S52.31,94.31,52.14,94.26Z"/><path class="cls-6" d="M52,95.72a.13.13,0,0,1,0-.06.23.23,0,0,1,.07-.07h0l.12-.13c-.06-.07-.13,0-.2,0s-.22.37-.39.51l.12.06.19-.15C51.94,95.83,51.92,95.76,52,95.72Z"/><path class="cls-6" d="M51.11,100.55c-.1-.1-.2,0-.29,0C51,100.74,51,100.74,51.11,100.55Z"/><path class="cls-6" d="M53.6,100.11v0a.1.1,0,0,0-.14,0h0c0,.11-.15.23,0,.34v-.06l.06-.08a.17.17,0,0,1,.07-.13Z"/><path class="cls-6" d="M48.12,91.4h0s0,0,0,0h0Z"/></g></g></svg>