<svg xmlns="http://www.w3.org/2000/svg" xmlns:xlink="http://www.w3.org/1999/xlink" viewBox="0 0 106 106"><defs><style>.cls-1{fill:none;}.cls-2{isolation:isolate;}.cls-16,.cls-3,.cls-4{fill:#fff;}.cls-16,.cls-17,.cls-3,.cls-5{stroke:#1d1d1b;stroke-miterlimit:10;}.cls-3{stroke-width:0.5px;}.cls-5{stroke-width:0.25px;fill:url(#linear-gradient);}.cls-6{fill:#040304;}.cls-7{fill:#010101;}.cls-8{fill:#3c3c3c;}.cls-9{fill:#1d1d1b;}.cls-10{fill:url(#radial-gradient);}.cls-11{clip-path:url(#clip-path);}.cls-12,.cls-13,.cls-20,.cls-21{opacity:0.15;mix-blend-mode:screen;}.cls-12{fill:url(#Degradado_sin_nombre_1349);}.cls-13{fill:url(#Degradado_sin_nombre_1350);}.cls-14{fill:url(#linear-gradient-2);}.cls-15{clip-path:url(#clip-path-2);}.cls-16{stroke-width:0.67px;}.cls-17{stroke-width:0.34px;fill:url(#linear-gradient-3);}.cls-18{fill:url(#radial-gradient-2);}.cls-19{clip-path:url(#clip-path-3);}.cls-20{fill:url(#Degradado_sin_nombre_1349-2);}.cls-21{fill:url(#Degradado_sin_nombre_1350-2);}</style><linearGradient id="linear-gradient" x1="71.9" y1="99.72" x2="71.9" y2="5.88" gradientUnits="userSpaceOnUse"><stop offset="0" stop-color="#776cab"/><stop offset="0.03" stop-color="#6f8aae"/><stop offset="0.05" stop-color="#69a1b0"/><stop offset="0.08" stop-color="#65b2b2"/><stop offset="0.11" stop-color="#63bcb3"/><stop offset="0.16" stop-color="#62bfb3"/><stop offset="0.51" stop-color="#62bfb3"/><stop offset="0.86" stop-color="#62bfb3"/><stop offset="0.9" stop-color="#fdeeeb"/><stop offset="0.95" stop-color="#62bfb3"/><stop offset="1" stop-color="#62bfb3"/></linearGradient><radialGradient id="radial-gradient" cx="52.78" cy="73.75" r="0.33" gradientUnits="userSpaceOnUse"><stop offset="0" stop-color="#3b3b3b"/><stop offset="0.1" stop-color="#313131"/><stop offset="0.44" stop-color="#171717"/><stop offset="0.73" stop-color="#070707"/><stop offset="0.96" stop-color="#010101"/></radialGradient><clipPath id="clip-path"><path id="SVGID" class="cls-1" d="M90,8.49a3.39,3.39,0,0,1,3.83,3.61L93.66,90a4.75,4.75,0,0,1-3.85,4.68L59.1,99a3.39,3.39,0,0,1-3.83-3.61l.13-77.94a4.76,4.76,0,0,1,3.84-4.68Z"/></clipPath><linearGradient id="Degradado_sin_nombre_1349" x1="-1304.6" y1="-2289.93" x2="-1252" y2="-2298.08" gradientTransform="matrix(1.45, 0, 0, 1, 1931.17, 2332.25)" gradientUnits="userSpaceOnUse"><stop offset="0" stop-color="#fff"/><stop offset="0.01" stop-color="#fff" stop-opacity="0.97"/><stop offset="0.13" stop-color="#fff" stop-opacity="0.72"/><stop offset="0.24" stop-color="#fff" stop-opacity="0.5"/><stop offset="0.34" stop-color="#fff" stop-opacity="0.32"/><stop offset="0.45" stop-color="#fff" stop-opacity="0.18"/><stop offset="0.54" stop-color="#fff" stop-opacity="0.08"/><stop offset="0.63" stop-color="#fff" stop-opacity="0.02"/><stop offset="0.7" stop-color="#fff" stop-opacity="0"/></linearGradient><linearGradient id="Degradado_sin_nombre_1350" x1="-1301.67" y1="-6125.72" x2="-1249.07" y2="-6133.87" gradientTransform="matrix(1.45, 0, 0, 0.33, 1922.87, 2047.88)" gradientUnits="userSpaceOnUse"><stop offset="0" stop-color="#fff"/><stop offset="0.1" stop-color="#fff" stop-opacity="0.75"/><stop offset="0.2" stop-color="#fff" stop-opacity="0.53"/><stop offset="0.3" stop-color="#fff" stop-opacity="0.34"/><stop offset="0.39" stop-color="#fff" stop-opacity="0.19"/><stop offset="0.48" stop-color="#fff" stop-opacity="0.09"/><stop offset="0.56" stop-color="#fff" stop-opacity="0.02"/><stop offset="0.62" stop-color="#fff" stop-opacity="0"/></linearGradient><linearGradient id="linear-gradient-2" x1="32.24" y1="74.76" x2="50.52" y2="74.76" gradientUnits="userSpaceOnUse"><stop offset="0" stop-color="#fff"/><stop offset="1"/></linearGradient><clipPath id="clip-path-2"><path class="cls-1" d="M37.37,75.82A12.87,12.87,0,1,1,24.5,63,12.88,12.88,0,0,1,37.37,75.82Z"/></clipPath><linearGradient id="linear-gradient-3" x1="47.58" y1="114.06" x2="47.58" y2="-12.44" xlink:href="#linear-gradient"/><radialGradient id="radial-gradient-2" cx="21.81" cy="79.05" r="0.44" xlink:href="#radial-gradient"/><clipPath id="clip-path-3"><path id="SVGID-2" data-name="SVGID" class="cls-1" d="M71.92-8.91c2.86-.41,5.18,1.77,5.17,4.85L76.92,101a6.43,6.43,0,0,1-5.19,6.31l-41.41,5.82c-2.86.4-5.17-1.77-5.16-4.86L25.33,3.22A6.44,6.44,0,0,1,30.52-3.1Z"/></clipPath><linearGradient id="Degradado_sin_nombre_1349-2" x1="-1328.33" y1="-2277.89" x2="-1257.42" y2="-2288.88" gradientTransform="matrix(1.45, 0, 0, 1, 1929.74, 2314.54)" xlink:href="#Degradado_sin_nombre_1349"/><linearGradient id="Degradado_sin_nombre_1350-2" x1="-1324.44" y1="-6081.66" x2="-1253.52" y2="-6092.65" gradientTransform="matrix(1.45, 0, 0, 0.33, 1918.76, 2030.22)" xlink:href="#Degradado_sin_nombre_1350"/></defs><title>webIcons</title><g class="cls-2"><g id="simCard_Tray" data-name="simCard Tray"><path class="cls-3" d="M90.38,7.6a3.51,3.51,0,0,1,4,3.74l-.13,79.4a5,5,0,0,1-4,4.86l-31.87,4.48a3.52,3.52,0,0,1-4-3.74l.14-79.4a4.94,4.94,0,0,1,4-4.86Z"/><path class="cls-4" d="M90,8.49a3.39,3.39,0,0,1,3.83,3.61L93.66,90a4.75,4.75,0,0,1-3.85,4.68L59.1,99a3.39,3.39,0,0,1-3.83-3.61l.13-77.94a4.76,4.76,0,0,1,3.84-4.68Z"/><path class="cls-5" d="M89.42,6.28l-.12-.06,0,0-.2-.09-.08,0a1.71,1.71,0,0,0-.3-.09h0l-.26-.06h-.1l-.21,0h-.44l-.33,0L55.42,10.39l-.37.08-.11,0a2,2,0,0,0-.26.09l-.1,0-.33.13h0l-.09.05-.26.14-.12.07-.17.11-.05,0-.09.06-.22.18-.08.07,0,0-.06.06c-.1.09-.19.19-.29.29l-.05.06,0,.05-.28.36,0,0v0l0,0a2.61,2.61,0,0,0-.17.28l-.06.09a.41.41,0,0,1,0,.09s-.05.1-.07.16a.75.75,0,0,0-.07.12l-.12.3,0,.08h0a1.87,1.87,0,0,0-.07.22L51.6,14a2.21,2.21,0,0,0-.05.25,1,1,0,0,0,0,.17,2.89,2.89,0,0,0,0,.29l0,.14c0,.15,0,.3,0,.44l-.13,79.41A3.71,3.71,0,0,0,53.14,98l3.09,1.69a3.75,3.75,0,0,1-1.85-3.38l.14-79.4c0-.15,0-.3,0-.44a.77.77,0,0,1,0-.15,2.7,2.7,0,0,1,0-.28c0-.06,0-.12,0-.18l.06-.25a1.27,1.27,0,0,1,.06-.18c0-.07,0-.15.07-.23l0-.08a2.55,2.55,0,0,1,.13-.29l.06-.13c0-.08.08-.16.13-.24l0-.1.18-.27,0-.06.05-.06c.09-.12.18-.24.28-.35l.1-.12.28-.28.11-.1a.46.46,0,0,0,.07-.07l.23-.18.09-.06.21-.14a.57.57,0,0,1,.13-.08l.26-.14.08-.05.34-.14.1,0,.27-.08.1,0,.37-.07L90.38,7.6l.33,0h.11a.81.81,0,0,1,.22,0h.11l.21,0,.11,0,.25,0h0l.29.09a.2.2,0,0,1,.08,0l.21.08.16.08Z"/><path class="cls-6" d="M90.52,8.53h0a3,3,0,0,1,2.13.88,3.56,3.56,0,0,1,1,2.54L93.5,90.16a4.55,4.55,0,0,1-3.66,4.47L59,99l-.47,0a3,3,0,0,1-2.13-.87,3.54,3.54,0,0,1-1-2.55l.13-78.21a4.54,4.54,0,0,1,3.66-4.47L90.05,8.57a3.73,3.73,0,0,1,.47,0m0-.23a2.81,2.81,0,0,0-.5,0L59.18,12.67a4.79,4.79,0,0,0-3.86,4.7l-.13,78.21a3.43,3.43,0,0,0,3.35,3.65l.5,0,30.83-4.33a4.78,4.78,0,0,0,3.86-4.71L93.86,12A3.41,3.41,0,0,0,90.52,8.3Z"/><g class="cls-2"><path class="cls-7" d="M65.67,11.88,83.35,9.4l-.56,2.47a3.45,3.45,0,0,1-2.74,2.67L68.9,16.11a2.42,2.42,0,0,1-2.74-2Z"/></g><g class="cls-2"><path class="cls-8" d="M78.84,11.55a.51.51,0,0,1,.58.54.72.72,0,0,1-.58.7.51.51,0,0,1-.58-.54A.71.71,0,0,1,78.84,11.55Z"/></g><path class="cls-8" d="M77,11.88a.45.45,0,0,1,.51.48A.63.63,0,0,1,77,13l-6,.85a.45.45,0,0,1-.51-.48.64.64,0,0,1,.51-.63Z"/><path class="cls-9" d="M53,38.42h0a.52.52,0,0,1-.52-.52V27.39a.52.52,0,0,1,.52-.52h0a.52.52,0,0,1,.52.52V37.9A.52.52,0,0,1,53,38.42Z"/><path class="cls-9" d="M53,25.26h0a.52.52,0,0,1-.52-.52V21.86a.52.52,0,0,1,.52-.52h0a.52.52,0,0,1,.52.52v2.88A.52.52,0,0,1,53,25.26Z"/><path class="cls-9" d="M53,51.16h0a.52.52,0,0,1-.52-.53V40.13a.52.52,0,0,1,.52-.52h0a.52.52,0,0,1,.52.52v10.5A.52.52,0,0,1,53,51.16Z"/><path class="cls-10" d="M52.45,73.75a.33.33,0,0,0,.66,0,.33.33,0,0,0-.66,0Z"/><g class="cls-11"><rect class="cls-12" x="39.04" y="32.84" width="75.75" height="10.59" transform="translate(48.22 -42.78) rotate(44.1)"/><rect class="cls-13" x="35.33" y="46" width="75.75" height="3.46" transform="translate(53.85 -37.49) rotate(44.1)"/></g><path class="cls-14" d="M32.24,65.55l18.28,8.31L34.44,84S42.18,75,32.24,65.55Z"/><g class="cls-15"><path class="cls-16" d="M72.5-10.12c3-.42,5.37,1.84,5.36,5l-.18,107a6.69,6.69,0,0,1-5.38,6.56l-43,6c-3,.41-5.37-1.85-5.36-5l.18-107a6.65,6.65,0,0,1,5.38-6.55Z"/><path class="cls-4" d="M71.92-8.91c2.86-.41,5.18,1.77,5.17,4.85L76.92,101a6.43,6.43,0,0,1-5.19,6.31l-41.41,5.82c-2.86.4-5.17-1.77-5.16-4.86L25.33,3.22A6.44,6.44,0,0,1,30.52-3.1Z"/><path class="cls-17" d="M71.2-11.9,71-12,71-12l-.27-.12-.11,0a2.64,2.64,0,0,0-.4-.12h-.06l-.34-.07-.14,0-.29,0h-.59a3.27,3.27,0,0,0-.44,0l-43,6a4.37,4.37,0,0,0-.5.09l-.14,0-.36.11-.13,0-.44.19h0l-.12.06-.35.19-.17.1-.22.14a.18.18,0,0,1-.07,0l-.11.09L22.42-5l-.1.09-.05,0-.09.08a4.68,4.68,0,0,0-.38.39.6.6,0,0,0-.08.08l-.06.07-.38.48-.05.06v0l0,.07-.23.37-.08.13L20.8-3l-.11.21a.89.89,0,0,1-.08.17c-.06.13-.12.26-.17.4s0,.07,0,.11h0c0,.1-.06.2-.09.3a2.25,2.25,0,0,0-.08.24c0,.11,0,.23-.08.34a1.89,1.89,0,0,0-.05.23c0,.13,0,.26-.06.39a1.23,1.23,0,0,0,0,.2A5.68,5.68,0,0,0,20,.2l-.18,107a5,5,0,0,0,2.49,4.55l4.17,2.27A5,5,0,0,1,24,109.51l.18-107a5.68,5.68,0,0,1,0-.59c0-.07,0-.14,0-.2l.06-.39c0-.08,0-.15,0-.23s.05-.23.08-.34a2.25,2.25,0,0,1,.08-.24c0-.1.06-.21.1-.31a.37.37,0,0,1,.05-.11c.05-.14.1-.27.16-.4l.09-.17c.05-.11.11-.22.17-.33s.05-.08.07-.13.15-.25.24-.37a.43.43,0,0,0,0-.07l.07-.08A5.58,5.58,0,0,1,25.83-2L26-2.12a4.68,4.68,0,0,1,.38-.39l.14-.13.11-.09L26.9-3,27-3.06l.29-.19.16-.1.36-.19L28-3.6a4.43,4.43,0,0,1,.45-.2l.13,0,.37-.11L29-4a3.86,3.86,0,0,1,.49-.09l43-6a3.42,3.42,0,0,1,.44,0h.6l.28,0,.14,0,.34.07h.07l.39.13.11,0,.27.12.23.11Z"/><path class="cls-6" d="M72.68-8.86h0a4,4,0,0,1,2.87,1.18,4.71,4.71,0,0,1,1.32,3.43L76.7,101.18a6.14,6.14,0,0,1-4.94,6L30.2,113.05a4.58,4.58,0,0,1-.63,0,4,4,0,0,1-2.87-1.18,4.79,4.79,0,0,1-1.33-3.43L25.55,3.05a6.12,6.12,0,0,1,4.93-6L72.05-8.82a4.44,4.44,0,0,1,.63,0m0-.32a5.31,5.31,0,0,0-.68,0L30.44-3.29a6.46,6.46,0,0,0-5.21,6.34l-.17,105.44a4.61,4.61,0,0,0,4.51,4.92,3.85,3.85,0,0,0,.67,0l41.57-5.84A6.45,6.45,0,0,0,77,101.18L77.19-4.25a4.61,4.61,0,0,0-4.51-4.93Z"/><g class="cls-2"><path class="cls-7" d="M39.18-4.35,63-7.7l-.76,3.33a4.67,4.67,0,0,1-3.7,3.61l-15,2.11a3.26,3.26,0,0,1-3.7-2.66Z"/></g><path class="cls-9" d="M22.07,31.43h0a.71.71,0,0,1-.7-.71V16.56a.7.7,0,0,1,.7-.7h0a.7.7,0,0,1,.71.7V30.72A.71.71,0,0,1,22.07,31.43Z"/><path class="cls-9" d="M22.09,13.68h0a.7.7,0,0,1-.7-.7V9.1a.7.7,0,0,1,.7-.7h0a.7.7,0,0,1,.7.7V13A.7.7,0,0,1,22.09,13.68Z"/><path class="cls-9" d="M22.07,48.6h0a.71.71,0,0,1-.7-.7V33.74a.71.71,0,0,1,.7-.71h0a.71.71,0,0,1,.71.71V47.9A.71.71,0,0,1,22.07,48.6Z"/><path class="cls-18" d="M21.36,79.05a.45.45,0,1,0,.45-.44A.45.45,0,0,0,21.36,79.05Z"/><g class="cls-19"><rect class="cls-20" x="3.28" y="23.91" width="102.12" height="14.28" transform="translate(36.92 -29.07) rotate(44.1)"/><rect class="cls-21" x="-1.72" y="41.65" width="102.12" height="4.66" transform="translate(44.51 -21.94) rotate(44.1)"/></g></g><path class="cls-9" d="M24.5,88.68A12.87,12.87,0,1,1,37.37,75.82,12.88,12.88,0,0,1,24.5,88.68Zm0-25.18A12.32,12.32,0,1,0,36.82,75.82,12.33,12.33,0,0,0,24.5,63.5Z"/></g></g></svg>