<svg xmlns="http://www.w3.org/2000/svg" xmlns:xlink="http://www.w3.org/1999/xlink" viewBox="0 0 106 106"><defs><style>.cls-1,.cls-7{fill:none;}.cls-2{clip-path:url(#clip-path);}.cls-3,.cls-5{fill:#62bfb3;}.cls-3{fill-rule:evenodd;}.cls-4{fill:#1d1d1b;}.cls-6{fill:#fff;}.cls-7{stroke:#000;stroke-miterlimit:10;stroke-width:0.5px;}</style><clipPath id="clip-path"><rect class="cls-1" x="0.34" y="109.85" width="106.08" height="27.76" rx="4.5"/></clipPath></defs><title>webIcons</title><g id="BUTTONS-3" data-name="BUTTONS"><g class="cls-2"><path class="cls-3" d="M.25,69.38s0-.1,0-.16-.11-.06-.19,0a1,1,0,0,1-.51.1,1.49,1.49,0,0,1,.83-.18l0,.08s0-.05,0-.09A.43.43,0,0,1,.69,69a5.21,5.21,0,0,1,1.71-.2c.1.06.21,0,.32,0a.07.07,0,0,0,.06-.08.22.22,0,0,0-.09-.12.78.78,0,0,0-.37,0c-.08,0,0,0,0-.07l.06,0,.14,0,.08,0h0l-.08,0h.07a.13.13,0,0,0,0-.06h.21c.28,0,.58,0,.79-.27h.06c.09,0,.23,0,.22-.15s-.13-.08-.21-.05a5.94,5.94,0,0,0-.72.21c-.11.09-.25,0-.36.07h0v.13H2.33a.25.25,0,0,0-.24.07h0c-.14,0-.28,0-.37.15s0,0,0,.05a.44.44,0,0,0-.2,0l-.07,0c-.09-.06-.22,0-.32-.15s-.28-.08-.43,0-.12.12,0,.2-.06.15-.12.21l-.2.08-.05,0H.18L.11,69h0a4.24,4.24,0,0,0-1,.21v.21c.16.23.4.22.64.2H-.1A.27.27,0,0,0,.25,69.38Z"/><path class="cls-3" d="M105.9,81.1a.09.09,0,0,0,0,.15c.09,0,.15,0,.19-.08l.29-.42v-.13C106.16,80.71,106.11,81,105.9,81.1Z"/><path class="cls-3" d="M43.61,30.87c.08.05.16.1.22,0l.12-.31H43.6C43.7,30.64,43.61,30.75,43.61,30.87Z"/><path class="cls-3" d="M86.7,37.07c.08-.09.18-.16.09-.29s-.12-.06-.15,0S86.58,37,86.7,37.07Z"/><path class="cls-3" d="M97.4,58.58l-.09.1c.06.11.13.22.28.13l0-.05s0-.06,0-.09,0-.11,0-.14S97.44,58.5,97.4,58.58Z"/><path class="cls-3" d="M50,39.64h0c-.09-.13,0-.34-.21-.42l-.07-.07c-.09,0-.23,0-.17.12a1,1,0,0,0,.37.45C50,39.75,50,39.68,50,39.64Z"/><path class="cls-3" d="M104.39,82.75h0a.12.12,0,0,1-.06.06.81.81,0,0,0-.31.35l-.05,0s-.06,0-.06.06h0l-.06.06a1.2,1.2,0,0,1-.5.42,1.78,1.78,0,0,0-.45.54l-.36.34a.18.18,0,0,1-.06.09h0c-.06,0,0,.1,0,.15h0a.2.2,0,0,0,.08,0l0,0,.08-.05.08,0,.41-.38a4.19,4.19,0,0,1,.54-.49c.08-.1.17-.18.25-.27a.52.52,0,0,0,.11-.32c.1,0,.16,0,.23-.09a.47.47,0,0,0,.1-.1c.14-.12.21-.31.36-.43h0a.24.24,0,0,1,.12-.23.63.63,0,0,0,.25-.31c0-.07,0-.1-.08-.08l-.2.15C104.75,82.36,104.48,82.49,104.39,82.75Z"/><path class="cls-3" d="M49.39,32.18s-.13-.08-.11,0a1.63,1.63,0,0,0,.11.31c.09.06.12.2.26.2a0,0,0,0,1,0,0C49.57,32.52,49.6,32.29,49.39,32.18Z"/><path class="cls-3" d="M105.9,92.76H106c0-.08-.13-.06-.2,0S105.84,92.75,105.9,92.76Z"/><path class="cls-3" d="M2.47,73.78h.07c.08-.05.24-.06.09-.21a.45.45,0,0,1,.05-.08v-.06h0a.17.17,0,0,0-.1,0c-.06,0-.13,0-.19,0h0c-.06,0,0,.12,0,.19v0A.61.61,0,0,1,2,73.56c-.12-.07-.29.08-.44,0l0,0H1.41l-.18.09c.05,0,.14,0,.17.11s.23.08.36.07H1.9c.15-.11.32-.06.48-.06A.47.47,0,0,0,2.47,73.78Z"/><path class="cls-3" d="M104.77,66.4c.06.1.17.11.27.14a.51.51,0,0,1,.21.2.35.35,0,0,0,.32.18l0,0v-.34c-.13,0-.27,0-.35-.11s-.23-.13-.35-.18S104.71,66.27,104.77,66.4Z"/><polygon class="cls-3" points="105.61 66.89 105.61 66.89 105.61 66.89 105.61 66.89"/><path class="cls-3" d="M105.75,67.09a.46.46,0,0,1,.07.07c.06,0,.09.07.19,0-.14-.11-.16-.33-.4-.3C105.56,67,105.69,67,105.75,67.09Z"/><path class="cls-3" d="M105.52,72a.14.14,0,0,0,0,.09,1.54,1.54,0,0,1,0,.3.28.28,0,0,0,0,.09c-.06.09.26.3-.09.3a.13.13,0,0,0,0-.06.07.07,0,0,0-.06-.07h0v-.07a.52.52,0,0,1-.09-.2c-.08-.07-.07-.19-.13-.28a.13.13,0,0,0-.15.14.33.33,0,0,0,0,.22.41.41,0,0,1,0,.22.13.13,0,0,1,0,.08c-.15.13-.19.24.06.31.08-.07.14-.16.26-.14h0c0,.13.06.25.23.26,0,0,0,0,0,0a.48.48,0,0,0,.08.33,1.66,1.66,0,0,1,.21.59h0l0-.07a.39.39,0,0,0-.1-.08.11.11,0,0,0-.08,0,.16.16,0,0,0,0,.11.24.24,0,0,0,0,.08l0,.07,0,.11.06.11.09.16c.06.07.08.2.21.14l.13.1a.16.16,0,0,0-.23.1s0,.05,0,.07.16.1.28.08a1.62,1.62,0,0,1,0-.22h0a.31.31,0,0,1,.21.07v-.42h-.06c0-.07,0-.15-.08-.2h0l-.14-.42c-.07-.08,0-.22-.14-.28s0,0,0-.06a.06.06,0,0,1,0-.08v0a.3.3,0,0,1-.08-.22s0-.09,0-.13-.12-.22,0-.29,0-.23,0-.35-.09-.21-.07-.33,0-.14-.07-.21S105.58,71.85,105.52,72Z"/><path class="cls-3" d="M0,72.41s0,0-.07,0-.06,0-.06.06,0,0,.07,0S0,72.45,0,72.41Z"/><path class="cls-3" d="M82.38,39.18c-.15.12-.31.06-.47,0l-.09,0-.18,0h0l0,0s-.09.08,0,.15h0c.16.08.34.12.5.21l.07.07c.15,0,.34-.06.44.13.1,0,.2,0,.29,0s.2,0,.28-.09,0-.16-.07-.23h-.07c-.12-.09-.3-.11-.41-.22A.26.26,0,0,0,82.38,39.18Z"/><path class="cls-3" d="M82.64,39.09c0,.13.11.15.21.17a.18.18,0,0,0,.09,0s.15,0,.06-.14,0,0-.07-.07h0C82.83,39,82.72,39,82.64,39.09Z"/><path class="cls-3" d="M7.05,53A.55.55,0,0,0,7,52.54c-.06,0-.13-.06-.14.06a1.36,1.36,0,0,0,.08.49C7,53.08,7,53.05,7.05,53Z"/><path class="cls-3" d="M7,50.26c-.14-.07,0-.24-.15-.38v.52c0,.11.08.09.15.07Z"/><path class="cls-3" d="M12.15,44.16a.78.78,0,0,0,0-.22,1.07,1.07,0,0,0-.15-.37.17.17,0,0,0-.1,0s-.07.06-.1.1h0l.21.83C12.18,44.44,12.13,44.28,12.15,44.16Z"/><path class="cls-3" d="M12.35,45.62a.4.4,0,0,0-.08-.47l-.14-.07a1.48,1.48,0,0,0,.08.69.17.17,0,0,1,.07.13C12.38,45.83,12.33,45.71,12.35,45.62Z"/><path class="cls-3" d="M12.91,51.71h0c-.24,0-.25,0-.15.21l.08.06h0C13,51.93,13,51.81,12.91,51.71Z"/><path class="cls-3" d="M10.84,31.27c0,.19,0,.37,0,.56.09-.07.05-.18.06-.27s0-.2.07-.27a.17.17,0,0,0,0-.21C10.86,31.09,10.84,31.17,10.84,31.27Z"/><path class="cls-3" d="M20.5,33.43a2.26,2.26,0,0,0,0,.26l.06.07a.2.2,0,0,0,.14-.13h0l-.07-.06h0a.09.09,0,0,1,0-.13c.07,0,.07-.1,0-.14S20.49,33.33,20.5,33.43Z"/><path class="cls-3" d="M19,32.45v-.06h0a.1.1,0,0,0-.05,0s-.05.09,0,.11S19,32.48,19,32.45Z"/><path class="cls-3" d="M15.14,34.31c0,.07,0,.13.09.12a.11.11,0,0,0,.11-.14c0-.07,0-.14-.11-.13S15.14,34.25,15.14,34.31Z"/><path class="cls-3" d="M103,63.51v.06a.73.73,0,0,1,.21.35.12.12,0,0,0,.13-.13h0s0-.09,0-.14a.34.34,0,0,0-.06-.2s-.11,0-.15-.07a.07.07,0,0,0-.07,0S103,63.47,103,63.51Z"/><path class="cls-3" d="M103.46,64.4a.16.16,0,0,0,.15-.07.13.13,0,0,1,0-.06.41.41,0,0,1-.14-.15h0C103.34,64.21,103.42,64.31,103.46,64.4Z"/><path class="cls-3" d="M98.53,61s0,0,0-.07c-.18-.17-.19-.17-.28,0v0s0,0,.05,0l.06,0,.07,0h0Z"/><path class="cls-3" d="M97.17,59.85c0,.06,0,.08.06.08l.23.24s.09.09.15.06,0-.12.07-.18a4,4,0,0,0-.51-.41C97.08,59.71,97.19,59.78,97.17,59.85Z"/><path class="cls-3" d="M102,60.47a.18.18,0,0,1,0,.1h0a.11.11,0,0,0-.09,0c-.15,0-.11-.2-.25-.18s.07.29,0,.45v0a.5.5,0,0,0,0,.12.25.25,0,0,0,0,.07.35.35,0,0,0,.11.13c.31,0,0-.27.2-.33s.08.08.12.12l0,0,.08.06a.15.15,0,0,0,.17,0,.11.11,0,0,0,0-.08,0,0,0,0,1,0-.06.11.11,0,0,0,0-.07.17.17,0,0,0,0-.15.43.43,0,0,0,0-.05.18.18,0,0,0,0-.07.15.15,0,0,0-.1-.09c.07-.05.12-.1.08-.19h0a.27.27,0,0,0-.07-.08h0C102.09,60.25,102,60.29,102,60.47Z"/><path class="cls-3" d="M100.82,104.9l-.12.07c-.14.09-.13.11,0,.21a.5.5,0,0,1,.27-.08c.22-.11.08-.22,0-.33h0Z"/><path class="cls-3" d="M4.34,69.31s0,.08,0,.13a.15.15,0,0,0,.21,0h0C4.53,69.3,4.44,69.29,4.34,69.31Z"/><path class="cls-3" d="M12.2,73l0,0c.07,0,.14,0,.17,0s0-.09-.07-.12h0c-.08,0-.17,0-.22,0S12.19,73,12.2,73Z"/><path class="cls-3" d="M11.06,72.43l-.06,0a.05.05,0,0,0,.05.07s0,0,0,0S11.09,72.44,11.06,72.43Z"/><path class="cls-3" d="M9.76,67.71c.05,0,.13,0,.08-.14-.26-.1-.35-.06-.36.14h.28Z"/><path class="cls-3" d="M3.62,73.57a2,2,0,0,0,.64-.06.69.69,0,0,1,.51,0c.06,0,.14,0,.22,0a2.68,2.68,0,0,1,.8.06.22.22,0,0,0,.26-.06h.21s0,0,0-.06h.51c.11,0,.08-.08.06-.14a1.63,1.63,0,0,1-.38,0,.8.8,0,0,0-.57,0H5.77l-.15,0H5.48c0-.09,0-.18-.15-.07a1.17,1.17,0,0,1-.2.06c-.16,0-.28,0-.3-.19-.07,0-.14-.26-.21,0,.08.14.1.24-.12.25l-.17,0c-.24-.08-.47,0-.71,0A.15.15,0,0,0,3.62,73.57Z"/><path class="cls-3" d="M54.61,39.57a.35.35,0,0,1,0-.08l-.08-.06c-.13,0-.14,0-.08.13h0c.06.09,0,.19,0,.29s-.08.35.06.51.15.1.24,0a.08.08,0,0,1,0,0c-.06-.12,0-.25-.06-.36a.17.17,0,0,1,0-.07c-.08-.1,0-.24-.07-.34Z"/><path class="cls-3" d="M50.46,34.81c-.12,0-.21-.12-.34-.09a.42.42,0,0,0,.06.36,1.23,1.23,0,0,1,0,.47c0,.07,0,.15.09.17s.15-.07.16-.14A1.54,1.54,0,0,0,50.46,34.81Z"/><path class="cls-3" d="M79.5,34.32c0,.06-.09.11,0,.18a.09.09,0,0,0,.15,0c0-.05.1-.12.06-.18s-.12,0-.18,0Z"/><path class="cls-3" d="M80.3,37.7h.06c.15,0,.33.06.42-.13h0l-.07,0a.11.11,0,0,1-.08,0h0A.31.31,0,0,0,80.3,37.7Z"/><path class="cls-3" d="M82.22,39c.08,0,.16,0,.22,0s0-.07-.08-.1S82.13,38.83,82.22,39Z"/><path class="cls-3" d="M6.11,104.93c0-.12-.13,0-.2,0v.26C6.07,105.17,6.15,105.07,6.11,104.93Z"/><path class="cls-3" d="M6,101.85l0-.07-.14-.08-.07,0h0a.13.13,0,0,0-.07.13l.07.08.07.06a.18.18,0,0,0,.22,0A.14.14,0,0,0,6,101.85Z"/><path class="cls-3" d="M3.4,100.49h0a.15.15,0,0,0-.21,0h0l0,.12h0l.07.06C3.41,100.69,3.49,100.64,3.4,100.49Z"/><path class="cls-3" d="M.33,86.48c.08,0,.14,0,.13-.13S.25,86.33.33,86.48Z"/><path class="cls-3" d="M100.32,94c.1,0,.2,0,.2-.13h-.2Z"/><path class="cls-3" d="M100.31,93.3h-.06a.31.31,0,0,0-.12.43c.17,0,.17-.22.32-.23a.13.13,0,0,0,0-.06c.09-.08.13-.18,0-.25S100.33,93.21,100.31,93.3Z"/><path class="cls-3" d="M102.79,68a.1.1,0,0,0,0,.08l.1.08s.08.12.17.1h.14a.67.67,0,0,1-.07-.34l-.06,0c-.1-.11-.19-.08-.28,0A.36.36,0,0,0,102.79,68Z"/><path class="cls-3" d="M104.54,68.12c.07,0,.13.08.21,0s.23,0,.25.14.11,0,.17,0l.07-.07a.19.19,0,0,1,.14-.07v-.25l-.13,0c-.21-.13-.39,0-.57.07S104.41,68,104.54,68.12Z"/><path class="cls-3" d="M103.76,67.71h0s.07,0,.12,0,0-.12.09-.16h0s0-.09,0-.14h-.21A.2.2,0,0,0,103.76,67.71Z"/><path class="cls-3" d="M54.68,32.31c0-.07,0-.13,0-.2v-.06c0-.12,0-.23,0-.35A.63.63,0,0,0,54.68,32.31Z"/><path class="cls-3" d="M.18,68.61s-.06.07-.06.12C.28,68.75.2,68.67.18,68.61Z"/><path class="cls-3" d="M105.69,74.74c.13,0,.08-.06.06-.13S105.64,74.67,105.69,74.74Z"/><path class="cls-3" d="M95.36,48.53c.13.1.17-.07.25-.11l0,0c.1-.16,0-.17-.13-.18a.2.2,0,0,1-.15.06C95.34,48.35,95.24,48.45,95.36,48.53Z"/><path class="cls-3" d="M103,64.27h-.06c-.09,0-.07.14-.07.21s0,.23,0,.34.1.18.12.28a.13.13,0,0,0,.09,0c.13,0,.22-.09.14-.24h0a.17.17,0,0,1,0-.21l.06-.07c0-.08,0-.16-.06-.21S103,64.33,103,64.27Z"/><path class="cls-3" d="M101.89,63.74c-.08-.06-.19-.14-.22,0l.21.28c.13,0,.29.08.29-.14h0A.9.9,0,0,1,101.89,63.74Z"/><path class="cls-3" d="M101.89,64.4a.15.15,0,0,0,0,.07c.08,0-.06.22.13.21h0a1.77,1.77,0,0,0,0-.23C102,64.34,102,64.38,101.89,64.4Z"/><path class="cls-3" d="M100.6,62.81c.18.09.14,0,.14-.12S100.6,62.71,100.6,62.81Z"/><path class="cls-3" d="M98.67,61.37c0,.18.17,0,.22.13s.06-.08.06-.13a.21.21,0,0,0-.28,0Z"/><path class="cls-3" d="M95.6,58.25l.12.1,0,0h0s0,0,0,0,.06.24.18.32l.15.07,0,.06.09.14a1.19,1.19,0,0,0,.22.23l.16.16.07,0,.09,0c.15,0,.16,0,.1-.16a1.19,1.19,0,0,0-.15-.18.62.62,0,0,1-.14-.28.27.27,0,0,1-.21-.15A.84.84,0,0,0,96,58.4l-.15-.13c0-.11-.12-.16-.2-.22S95.6,58.17,95.6,58.25Z"/><path class="cls-3" d="M104.33,66h0s0,0,.06.08a.46.46,0,0,1,.07.07s.06.11.14.07l.07-.07c0-.09-.13-.16-.14-.27l-.07-.07A.17.17,0,0,0,104.33,66Z"/><path class="cls-3" d="M104.13,65.77a.28.28,0,0,0-.16-.37C104,65.54,104,65.68,104.13,65.77Z"/><path class="cls-3" d="M1,73.62s0,0-.07,0l-.08,0a.17.17,0,0,0,.1,0Z"/><path class="cls-3" d="M5.76,68.61a1,1,0,0,0-.8.2,2,2,0,0,0,.8-.13S5.79,68.64,5.76,68.61Z"/><path class="cls-3" d="M7.75,73.23l-.06-.06a.15.15,0,0,0-.15.06l0,.13a.34.34,0,0,0,.2-.06A.2.2,0,0,0,7.75,73.23Z"/><path class="cls-3" d="M10.15,73.1c.18.07.2-.09.32-.17a.61.61,0,0,0-.34,0h0C10.15,73,10,73.05,10.15,73.1Z"/><path class="cls-3" d="M11.36,73c-.06,0-.1,0-.12.09a.07.07,0,0,0,.09.07.12.12,0,0,0,.12-.09S11.41,73,11.36,73Z"/><path class="cls-3" d="M10.53,67.27a.1.1,0,0,0-.12,0,.93.93,0,0,0-.36.14l.09.08.31,0A.11.11,0,0,0,10.53,67.27Z"/><path class="cls-3" d="M12,67.36l.33,0,.13-.15c0-.19-.17,0-.21-.13h-.06C12.22,67.22,12.14,67.28,12,67.36Z"/><path class="cls-3" d="M4.48,83.17s0-.08,0-.09-.26-.06-.37.08h0a.5.5,0,0,0,.36,0Z"/><path class="cls-3" d="M7.76,77.85c0,.2-.26.28-.28.49a.13.13,0,0,0-.06.07.14.14,0,0,0,0,.06c.11.09.14-.06.22-.06s.17-.13.24-.22a.41.41,0,0,0,.07-.11.08.08,0,0,0,0-.08c0-.08.13-.18,0-.24S7.83,77.83,7.76,77.85Z"/><path class="cls-3" d="M8.7,76.48h0a.11.11,0,0,1-.15,0H8.48c0,.14.06.29-.06.42L8.34,77c-.05.08,0,.13.07.13h0a.1.1,0,0,0,.05,0l0,0,.05,0,0,0,.05,0,.05-.06s.1-.09.06-.17v-.2s0,0,0,0A0,0,0,0,0,8.7,76.48Z"/><polygon class="cls-3" points="8.76 76.47 8.76 76.48 8.77 76.48 8.76 76.47"/><path class="cls-3" d="M78.51,38.26l-.12.06c-.08.09-.07.16,0,.2s.38.06.61,0c-.16,0-.29-.07-.26-.23h0a.17.17,0,0,0-.14,0,.12.12,0,0,0-.08,0Z"/><path class="cls-3" d="M77.59,36.61c0,.08,0,.11.1.12s.15,0,.15-.1,0-.1-.14-.1A.1.1,0,0,0,77.59,36.61Z"/><path class="cls-3" d="M79.57,37.67v0l-.15-.08h0c0,.11-.05.22.13.2l.07-.07Z"/><path class="cls-3" d="M4.29,105.89c0-.1-.15-.13-.25,0h0l.06.07a.46.46,0,0,0,.07.07C4.24,106,4.34,106,4.29,105.89Z"/><path class="cls-3" d="M99.61,80.32l.06,0s.13,0,.11-.09a.1.1,0,0,0-.13-.08C99.57,80.19,99.6,80.27,99.61,80.32Z"/><path class="cls-3" d="M96.23,84.88l-.14.08a.59.59,0,0,0-.36.07c0,.19,0,.19.22.14l.14-.08.43-.13s.11,0,.14-.07h0C96.52,84.76,96.37,84.84,96.23,84.88Z"/><path class="cls-3" d="M101.54,85.59c0,.17.17.1.27.06l0-.2-.09-.08-.06,0C101.67,85.48,101.57,85.51,101.54,85.59Z"/><path class="cls-3" d="M99.88,87.06a.42.42,0,0,1-.27.18c-.09.18-.34.12-.44.28a1.21,1.21,0,0,0-.43.47l-.78.63c-.07.07,0,.13,0,.16a.41.41,0,0,0,.35-.19,1.78,1.78,0,0,1,.6-.41c.11-.07.16-.18.25-.27s.2-.14.27-.23a.47.47,0,0,1,.1-.1.86.86,0,0,0,.38-.35,1,1,0,0,0,.36-.41c0-.06,0-.09-.08-.07A1.28,1.28,0,0,0,99.88,87.06Z"/><path class="cls-3" d="M99.33,91.46c0,.06,0,.13-.09.16a.12.12,0,0,0-.11.12.22.22,0,0,0,0,.08c0,.06,0,.11,0,.16l0,.08,0,.08c.08.12.1.28.27.34a.17.17,0,0,0,.08-.14c0-.18-.16-.36,0-.55a.47.47,0,0,1-.07-.28,0,0,0,0,0,0-.06h0C99.46,91.35,99.39,91.33,99.33,91.46Z"/><path class="cls-3" d="M99.67,90.2v-.13C99.59,90.11,99.59,90.16,99.67,90.2Z"/><path class="cls-3" d="M99.89,94.07h0a.16.16,0,0,0-.24,0C99.73,94.09,99.81,94.05,99.89,94.07Z"/><path class="cls-3" d="M103.17,65.51h.08c0-.06,0-.14,0-.15s.1,0,.15.09l0,0c.13,0,.12-.11.21-.14v-.07l0-.05c-.15-.09-.29-.18-.44,0A.37.37,0,0,0,103.17,65.51Z"/><path class="cls-3" d="M104.18,66.82h.06l.08-.06c.06,0,.07-.1,0-.14s-.14,0-.19,0S104.05,66.8,104.18,66.82Z"/><path class="cls-3" d="M103.79,66.15s0,0,0,0,0-.16,0-.24A.15.15,0,0,0,103.79,66.15Z"/><path class="cls-3" d="M104,69.17a.79.79,0,0,0,.36.48c.07,0,.15.21.21,0-.16-.27-.2-.6-.43-.83-.11-.08-.23,0-.34,0C103.77,69,104,69.06,104,69.17Z"/><path class="cls-3" d="M68.4,34.51a.63.63,0,0,0-.11.12l0,0c-.07.09-.15,0-.24,0s-.2,0-.24.1l.06.07a.18.18,0,0,0,.2,0,.2.2,0,0,1,.23.06.18.18,0,0,0,.26,0h0c0,.16.19.11.3.12s.22,0,.3.06-.11.1-.11.17a.08.08,0,0,0,0,.07c.06,0,.15,0,.2,0h0c.21.1.17-.16.29-.2v.06l.07-.07h0c.15-.08.28.13.43,0l0,0a.25.25,0,0,0,.22.05h.58c-.13-.19-.35-.07-.46-.2h0c-.08-.1-.19-.06-.29-.07s-.19-.1-.23-.2-.08,0-.1,0a.13.13,0,0,0,0,.08c0,.07-.1,0-.15,0l-.1,0a1.4,1.4,0,0,1-.28-.06c-.18,0-.34-.15-.53-.11a.11.11,0,0,0,0-.05c-.09-.06-.11-.18-.22-.23Z"/><path class="cls-3" d="M10.05,66.26h0c-.06-.08-.28-.13-.06-.28h0a.1.1,0,0,1-.07-.07s0,0,0-.06a.49.49,0,0,0-.26-.1.12.12,0,0,0-.09,0c-.09,0-.15,0-.15.13.15,0,.31.07.3.28s.06.12.13.15S10,66.34,10.05,66.26Z"/><path class="cls-3" d="M104.6,71.38c.09,0,.07-.14.08-.22s-.15,0-.15.14A.27.27,0,0,0,104.6,71.38Z"/><path class="cls-3" d="M104.67,70.82a.14.14,0,0,0,.08-.14s-.09-.05-.12,0S104.62,70.78,104.67,70.82Z"/><path class="cls-3" d="M104.79,71.22c0,.1.11.19.17.29H105a.05.05,0,0,0,0-.08V71.3c-.07,0,0-.15-.07-.2h-.07C104.82,71.11,104.74,71.12,104.79,71.22Z"/><path class="cls-3" d="M105.48,73.77c.09,0,.12,0,.13-.12a.76.76,0,0,1-.08-.11s0-.07-.07-.07-.06.06-.06.1S105.46,73.7,105.48,73.77Z"/><path class="cls-3" d="M95.6,50h.06c.2.05.15-.14.21-.21v-.05C95.6,49.71,95.6,49.71,95.6,50Z"/><path class="cls-3" d="M17.64,49.84h0c-.13,0-.12.06-.08.14h0c.05,0,0,.11.07.15s.15.31.23.47a.17.17,0,0,1,.07.14l.13.07a.53.53,0,0,1,0,.13c.08,0,.06-.09,0-.13V50.6a5.24,5.24,0,0,1-.28-.69S17.67,49.89,17.64,49.84Z"/><path class="cls-3" d="M32.38,48c0,.06.06.07.11.07s.07,0,.07-.07,0-.08-.09-.09S32.38,47.92,32.38,48Z"/><path class="cls-3" d="M46.16,36.88l-.07-.14c-.16-.09-.15.07-.21.13s-.13.17,0,.18S46.15,37.05,46.16,36.88Z"/><path class="cls-3" d="M100.45,65a.13.13,0,0,0,.07-.14h0l-.06-.08-.07-.13c-.12-.18-.34-.12-.5-.2s-.07.07-.07.13.3.1.42.21h0a.1.1,0,0,0,.06.09h0l0,0c0,.05.11,0,.13.08Z"/><path class="cls-3" d="M100.21,65.13s.06,0,.07-.06,0-.09-.08-.1-.09,0-.09.07A.12.12,0,0,0,100.21,65.13Z"/><path class="cls-3" d="M99.52,64.27a.29.29,0,0,0,.1,0s0-.06,0-.09,0-.06-.08,0,0,.06,0,.09Z"/><path class="cls-3" d="M92.91,100.93c0,.06,0,.09.1.09a.05.05,0,0,0,.07,0c0-.07,0-.11-.1-.1S92.93,100.92,92.91,100.93Z"/><path class="cls-3" d="M91.82,101.64h0a.25.25,0,0,0,.08-.19C91.79,101.46,91.79,101.54,91.82,101.64Z"/><path class="cls-3" d="M7.12,64.54l-.07-.07a.71.71,0,0,0-.14-.1.11.11,0,0,0-.08,0v.14a.13.13,0,0,1,0,.06l.14.08C7.07,64.67,7.2,64.71,7.12,64.54Z"/><path class="cls-3" d="M20.47,68.94c.09,0,.11-.12,0-.2s-.16,0-.22-.06h0a.38.38,0,0,0,0,.48.46.46,0,0,0,.07-.07C20.35,69,20.41,69,20.47,68.94Z"/><path class="cls-3" d="M15.2,66.88h0s.11,0,.15-.06h.21a.74.74,0,0,0,.65-.33c.12-.19,0-.15-.14-.15-.32.11-.71-.07-1,.21a2,2,0,0,1-.34.14,1.45,1.45,0,0,0-.22.09l0,0c.11.13.26.09.39,0A.42.42,0,0,1,15.2,66.88Z"/><path class="cls-3" d="M49.18,45.58c0,.16.14.21.33.25a.85.85,0,0,0-.17-.33.1.1,0,0,0-.12,0A.11.11,0,0,0,49.18,45.58Z"/><path class="cls-3" d="M57.14,37.73a.12.12,0,0,0-.18,0c-.11.11.06.13.09.2h0C57.12,37.86,57.21,37.83,57.14,37.73Z"/><path class="cls-3" d="M56.82,37.22c-.12-.08,0-.24-.14-.4v.41c0,.05,0,.12.1.1S56.83,37.26,56.82,37.22Z"/><path class="cls-3" d="M56.76,36.19v-.08s-.11,0-.12,0a.16.16,0,0,0,0,.23h0S56.71,36.22,56.76,36.19Z"/><path class="cls-3" d="M49.48,52.51c.05.08.12.11.2,0s.08-.17.15-.16.18-.13.27-.19c-.07-.12-.18,0-.27-.06h0l-.07.06a1.16,1.16,0,0,0-.24.14A.13.13,0,0,0,49.48,52.51Z"/><path class="cls-3" d="M49.16,47c0-.1-.13,0-.2,0l.07.13C49.12,47.08,49.21,47.05,49.16,47Z"/><path class="cls-3" d="M45.25,42.57c-.14,0-.14.08-.15.17a2.82,2.82,0,0,0-.57.15.14.14,0,0,1-.14.06c-.15.1-.29,0-.44,0s-.05.13-.07.2l.09.08.42-.15h.06c.17.08.33,0,.49,0A.14.14,0,0,0,45,43a3.29,3.29,0,0,1,.68-.14c.18,0,.35-.19.3-.27s-.22,0-.34,0Z"/><path class="cls-3" d="M45.39,42.25h-.14C45.3,42.33,45.35,42.32,45.39,42.25Z"/><path class="cls-3" d="M42,43.36l-.06.08c-.13,0-.31.13-.4-.09l-.11.08s0,.09,0,.14a.12.12,0,0,0,0,.13h.28a.23.23,0,0,1,.22-.13h.22l0-.09c0-.07,0-.13,0-.17A.12.12,0,0,0,42,43.36Z"/><path class="cls-3" d="M42.81,42.81h0a0,0,0,0,0,0,.06c.1.08.19,0,.28,0C43.05,42.65,42.92,42.77,42.81,42.81Z"/><path class="cls-3" d="M44.14,42.74s0,0,0,0l-.05,0s0,.05,0,.05A0,0,0,0,0,44.14,42.74Z"/><path class="cls-3" d="M47.75,38.66c.08,0,.07-.11,0-.19C47.6,38.49,47.71,38.58,47.75,38.66Z"/><path class="cls-3" d="M44.38,40.18V40h-.2c-.05,0-.1,0-.11.12a.16.16,0,0,0,0,.07h0A.2.2,0,0,0,44.38,40.18Z"/><path class="cls-3" d="M42.39,42a.39.39,0,0,0,.06.26l0,0a.31.31,0,0,0,.17-.05.2.2,0,0,0,.08,0h0c.07-.08.19-.15.07-.27a.51.51,0,0,0-.22.11C42.49,42.12,42.45,42,42.39,42Z"/><path class="cls-3" d="M46.27,37.37c-.06-.11-.16,0-.24,0s0,.23.14.27S46.34,37.49,46.27,37.37Z"/><path class="cls-3" d="M60.85,37.21c.07.06,0,.17.12.21l.05-.06c-.06-.08,0-.17-.06-.26A.12.12,0,0,0,60.85,37.21Z"/><path class="cls-3" d="M75.93,37.36c-.05,0-.11.06-.1.13a.18.18,0,0,0,.1.14c.12.06.19-.13.23-.1s.14-.06.2-.11h0c-.09-.06-.21,0-.3-.06h-.13Z"/><path class="cls-3" d="M76,36.19s.1,0,.11-.08A.1.1,0,0,0,76,36c-.09,0-.18,0-.28,0A.3.3,0,0,0,76,36.19Z"/><path class="cls-3" d="M5.91,99.42l-.09-.1c-.09.07-.05.18-.06.27h0a.16.16,0,0,1,0,.07.21.21,0,0,0,0,.07h0C6.1,99.61,6.11,99.59,5.91,99.42Z"/><path class="cls-3" d="M96.89,83.93V84c0,.08.1.15.2.07h0C97.09,83.92,97,83.9,96.89,83.93Z"/><path class="cls-3" d="M98.32,87.87c.15-.2.37-.36.42-.63a1.61,1.61,0,0,0-.5.35C98.23,87.69,98.15,87.81,98.32,87.87Z"/><path class="cls-3" d="M95,85.44l.07-.06v-.15H95C94.91,85.32,94.82,85.43,95,85.44Z"/><path class="cls-3" d="M97.51,83.59a.32.32,0,0,0-.27.06c0,.2.12.1.21.07Z"/><path class="cls-3" d="M94.65,81a.11.11,0,0,0-.06-.13c-.09.05-.16.14-.28.14a.91.91,0,0,0,.07.14C94.51,81.13,94.58,81,94.65,81Z"/><path class="cls-3" d="M98.17,97.72h0a.08.08,0,0,0,.14,0l.07-.07c0-.13,0-.21-.2-.12A1.21,1.21,0,0,1,98.17,97.72Z"/><path class="cls-3" d="M73.81,36.24c0,.08.09.09.11.14a.14.14,0,0,0,.21,0c.09-.11,0-.14-.07-.2H74C73.93,36.2,73.84,36.16,73.81,36.24Z"/><path class="cls-3" d="M69.12,34.74l.08.07c.1,0,.22,0,.21-.14a.45.45,0,0,0-.28-.07A.11.11,0,0,0,69.12,34.74Z"/><path class="cls-3" d="M74.29,36.47c.08.26.13,0,.2,0v-.06c0-.07,0-.14-.12,0A.43.43,0,0,0,74.29,36.47Z"/><path class="cls-3" d="M102.89,67.23c0,.15.11.13.21.14h0a.12.12,0,0,0,0-.15l-.08,0C103,67.13,102.92,67.17,102.89,67.23Z"/><path class="cls-3" d="M102.63,67.26c-.18,0-.37,0-.31.25h0c.08.07.2,0,.29.06h0a.23.23,0,0,0,.07.07h0l.12,0c.06,0,.15.06.15-.06s-.06-.09-.12-.09-.15,0-.15-.14Z"/><path class="cls-3" d="M102.76,68.19a.24.24,0,0,0-.16-.07s0,.07-.07,0,0,0,0-.08a.36.36,0,0,0,0-.1s0,0-.08-.06-.11-.14-.17-.21-.09-.08-.15,0a.11.11,0,0,0,0,.16.63.63,0,0,1,.19.49h0a.15.15,0,0,0,.11,0c.06,0,.07.07.1.1s0-.2.21-.17S102.79,68.23,102.76,68.19Z"/><path class="cls-3" d="M71.48,37s0-.07-.06-.07-.12.05-.15.12a.07.07,0,0,1,0,0l0,0s0,0,0,0S71.49,37.06,71.48,37Z"/><path class="cls-3" d="M10.05,64.71a.06.06,0,0,0-.06.06c0,.09,0,.1.12.11l0,0S10.13,64.71,10.05,64.71Z"/><path class="cls-3" d="M104.89,72.54a1.85,1.85,0,0,0-.14-.14l-.07-.06c-.09,0-.07.13-.08.2l.08.14H105s0,0,0-.07S104.92,72.56,104.89,72.54Z"/><path class="cls-3" d="M81.7,52.89c0,.09.11.17.23.13a.15.15,0,0,0,.14-.06l-.15-.15h-.14C81.72,52.8,81.7,52.84,81.7,52.89Z"/><path class="cls-3" d="M86.29,54c0,.11.12.13.22.07s-.1-.14-.21-.13S86.27,54,86.29,54Z"/><path class="cls-3" d="M76.21,43.63l.07-.06c0-.09.13-.19-.06-.2S76.08,43.54,76.21,43.63Z"/><path class="cls-3" d="M16.49,60.82l-.14-.21c-.18,0-.18.14-.28.28C16.23,60.85,16.38,61.06,16.49,60.82Z"/><path class="cls-3" d="M16.54,61.28c0-.05-.05-.09-.12-.1s-.1.09-.1.15,0,.16.1.14S16.54,61.37,16.54,61.28Z"/><path class="cls-3" d="M18.13,62.55a.19.19,0,0,0-.17-.22c-.05,0-.1,0-.1.08s.11.25.2.24S18.13,62.59,18.13,62.55Z"/><path class="cls-3" d="M13.91,56.81c.05.08.09,0,.14,0S14,56.75,13.91,56.81Z"/><path class="cls-3" d="M15.26,54.2h0c0-.07,0-.14,0-.21s-.13-.16-.15-.27a.32.32,0,0,1-.13-.15.23.23,0,0,1-.07-.07h0v-.06a.2.2,0,0,0-.13,0l0,0h0c0-.12-.06-.11-.14-.07l-.07,0a1,1,0,0,0,.42.61h0a.09.09,0,0,0,0,.06h0l.08.1s0,0,0,0l.09.13C15.18,54.33,15.26,54.34,15.26,54.2Zm-.55-.69h0Z"/><path class="cls-3" d="M10.92,58.4h0s0,.08.09,0Z"/><path class="cls-3" d="M18.27,54.6c0-.13,0-.27,0-.4-.22.16-.23.28-.06.47h0l.08-.07Z"/><path class="cls-3" d="M31.2,44.94a.75.75,0,0,0-.7.21l-.28.07c-.08,0-.1,0-.14.07a1.8,1.8,0,0,1-.64.14l-.09.06h-.06s0,0-.07.06h0c-.14,0-.29,0-.39.11.11.07.22,0,.32,0l.07-.06.15,0a.24.24,0,0,0,.16-.05h0l.12,0a.15.15,0,0,0,.15-.06c.14,0,.28-.07.42,0s.17-.16.32-.17a3.58,3.58,0,0,0,.45-.09,1.17,1.17,0,0,0,.37-.08C31.44,45,31.31,45,31.2,44.94Z"/><path class="cls-3" d="M36.58,43.91c.2-.22,0-.24-.15-.24s-.25,0-.34.12-.27.15-.42.2-.14.21.07.17.47-.12.7-.18h0Z"/><path class="cls-3" d="M33.5,44.18c0,.1-.39,0-.13.22h.07a1.11,1.11,0,0,1,.39-.2A.21.21,0,0,0,34,44a.1.1,0,0,0-.14,0,.36.36,0,0,1-.29.14Z"/><path class="cls-3" d="M35.29,43.23h0s-.07,0-.08.06a.1.1,0,0,0,.16.05S35.31,43.26,35.29,43.23Z"/><path class="cls-3" d="M40.17,43.15a1,1,0,0,1-.43.15,2.24,2.24,0,0,1-.57.13,0,0,0,0,0,0,.06.08.08,0,0,0,0,0c0,.08,0,0-.07.07-.21.15-.48.18-.66.37h-.07s-.07,0-.08.07l.09.08c.09,0,.21-.06.26.08s.1.06.15,0a.44.44,0,0,0,.15-.18l0,0s0,0,0,0c.2-.11.41,0,.62-.05s.1-.41.39-.42H40a.41.41,0,0,0,.2-.14h.06a.23.23,0,0,1,.07-.07h0C40.36,43.15,40.32,43.09,40.17,43.15Z"/><path class="cls-3" d="M40.25,44.12c0,.05,0,.09,0,.14s.13.07.21.06.05-.27,0-.41a.15.15,0,0,0-.14.07C40.25,44,40.28,44.08,40.25,44.12Z"/><path class="cls-3" d="M45.31,38.46a.71.71,0,0,0,0-.14l-.07-.08c-.18,0-.14.12-.08.22h0c.06,0,0,.17.13.14h0s0,0,0,.06.12.27.2,0C45.45,38.61,45.43,38.49,45.31,38.46Z"/><path class="cls-3" d="M99.74,67.55s.05.07.07.1h.06c.06,0,.11,0,.16,0s0-.13-.06-.14h-.1S99.75,67.47,99.74,67.55Z"/><path class="cls-3" d="M96,64.68a4.33,4.33,0,0,0,.79.27.19.19,0,0,0,.2,0,.15.15,0,0,1-.13-.08l-.08-.07c-.13-.06-.32,0-.42-.14l-.08-.06h-.06a.17.17,0,0,0-.22,0h0A.1.1,0,0,0,96,64.68Z"/><path class="cls-3" d="M99.29,67.59c-.16,0-.28,0-.38.12C99.05,67.7,99.17,67.75,99.29,67.59Z"/><path class="cls-3" d="M99,67.37a.15.15,0,0,0,.07-.13c-.15,0-.15,0-.15.06a.27.27,0,0,1,.08.07Z"/><path class="cls-3" d="M101.1,67.23c-.11,0-.24-.14-.29.06s0,.15.07.22c-.11,0-.22,0-.26.12h0l.14.07.08-.06v-.14c.12.14.23.09.35,0s.11,0,.18-.11l-.18-.09A.13.13,0,0,1,101.1,67.23Z"/><path class="cls-3" d="M99.63,66.42a0,0,0,0,0,0,0c.09,0,.08,0,.09-.1S99.62,66.34,99.63,66.42Z"/><path class="cls-3" d="M93.88,62.4h0s0,0,0,0h0a.46.46,0,0,0,.07-.07v-.06C93.91,62.26,93.8,62.24,93.88,62.4Z"/><path class="cls-3" d="M94.44,63.34v0h0s0,.06.07.08l.09,0h0s0,0,0,0,0,0,0,0,.12,0,.11-.06-.17-.21-.32-.19S94.43,63.31,94.44,63.34Z"/><path class="cls-3" d="M93.17,99.9c-.26-.08-.22.1-.22.24s.24-.08.38-.08.21-.11.18-.26S93.31,99.94,93.17,99.9Z"/><path class="cls-3" d="M20.36,67.58s0,0,0,.06.1.16.21.14S20.52,67.56,20.36,67.58Z"/><path class="cls-3" d="M12.77,65.78c0,.1,0,.2.15.21A.06.06,0,0,0,13,66s0-.06.07-.09h.06c.09-.1,0-.15-.07-.2h-.13c-.05,0-.11,0-.15.06Z"/><path class="cls-3" d="M13.35,66.68h0a.38.38,0,0,0-.36,0A1.45,1.45,0,0,0,13.35,66.68Z"/><path class="cls-3" d="M13.49,66.54c0,.07.07.07.13.07A.12.12,0,0,0,13.49,66.54Z"/><path class="cls-3" d="M59.47,52.19s-.08,0-.11,0-.1.16-.13.24a.14.14,0,0,0,0,.09q.09.16.24,0l.08-.12C59.54,52.37,59.58,52.26,59.47,52.19Z"/><path class="cls-3" d="M54,48.46s0-.1-.08-.13h0a.08.08,0,0,0-.13,0h0a.45.45,0,0,0-.08.27c.15.13.25,0,.36-.06Z"/><path class="cls-3" d="M51.56,49.33c.08-.09,0-.17,0-.24C51.39,49.13,51.45,49.22,51.56,49.33Z"/><path class="cls-3" d="M58.41,37.77c.1,0,.14.18.3.18,0-.15-.05-.26-.1-.38C58.41,37.53,58.4,37.54,58.41,37.77Z"/><path class="cls-3" d="M48,54.23a.11.11,0,0,0,.11.14c.14,0,.08-.11.09-.17h0C48.18,54.22,48.08,54.09,48,54.23Z"/><path class="cls-3" d="M49,55.48a.11.11,0,0,0,0,.08c0,.08.12.1.17.15h0l.07.07a.32.32,0,0,1,.15.13c.09,0,.13,0,.13-.13s-.19-.23-.29-.34-.14-.09-.2-.15h0c-.06,0-.07.08-.08.14Z"/><path class="cls-3" d="M97,91c-.09,0-.17.06-.12.12.16.22,0,.26-.16.29l-.07.07c0,.06-.11.09-.09.17a1.44,1.44,0,0,0,.53-.22A.32.32,0,0,0,97,91Z"/><path class="cls-3" d="M97.82,91h0a.11.11,0,0,1,0,.15h0a.09.09,0,0,0,0,.14h0c.1.05.19.08.16-.1A.1.1,0,0,1,98,91c0-.11,0-.22-.07-.33C97.76,90.68,97.75,90.7,97.82,91Z"/><path class="cls-3" d="M96.45,90.21c0,.06,0,.11.1.12s.1-.06.12-.13S96.52,90.19,96.45,90.21Z"/><path class="cls-3" d="M97.59,89l.08.13.07,0a.66.66,0,0,0,0-.14s0-.1-.06-.09S97.62,88.93,97.59,89Z"/><path class="cls-3" d="M98.21,88l0,0S98.22,88,98.21,88Z"/><path class="cls-3" d="M93.8,90.89v-.06c-.1,0-.2,0-.2.13s.12.16.16,0C93.76,90.92,93.79,90.91,93.8,90.89Z"/><path class="cls-3" d="M93.56,90.22a.09.09,0,0,0,0,0s0-.06,0,0,0,0,0,.05Z"/><path class="cls-3" d="M94,80.89h0c0-.06-.06-.13-.13-.16a.08.08,0,0,0-.08,0,.19.19,0,0,0-.08.28h.54C94.1,80.94,94,81,94,80.89Z"/><path class="cls-3" d="M97.94,89.45a.48.48,0,0,0,.09.19.15.15,0,0,0,0-.23S98,89.41,97.94,89.45Z"/><path class="cls-3" d="M72.63,36.88l.22.07c.08-.09.17-.17-.06-.16,0,0-.06,0-.09,0S72.6,36.81,72.63,36.88Z"/><path class="cls-3" d="M102.51,66.65c-.06.12.11.08.14.14l0,0h0c.07-.06.11-.13,0-.19S102.54,66.59,102.51,66.65Z"/><path class="cls-3" d="M101.89,67.51s.1,0,.14.06h0c.08-.06.11-.14,0-.19s-.15,0-.15.13Z"/><path class="cls-3" d="M103.6,69.37c-.1-.06-.14,0-.15.08a.13.13,0,0,1,0,.06s.06.06.05.08-.06.21.08.24.22,0,.23-.18S103.61,69.51,103.6,69.37Z"/><path class="cls-3" d="M69.39,46.7a.66.66,0,0,0,0,.58l0,0a.13.13,0,0,0,.13,0,.15.15,0,0,0,0-.13s-.07,0,0-.07a.2.2,0,0,0,.08,0c.21-.38.2-.52,0-.65h0s-.09,0-.13,0A.73.73,0,0,1,69.39,46.7Z"/><path class="cls-3" d="M68.73,46a.35.35,0,0,0-.1.08l-.07.07c0,.06,0,.16.11.09s.07-.11.09-.17S68.78,46,68.73,46Z"/><path class="cls-3" d="M68.42,45.57v.06l.07.08.14-.08s0,0,0-.06h0a.24.24,0,0,1-.06-.08h0C68.48,45.46,68.45,45.51,68.42,45.57Z"/><path class="cls-3" d="M103.82,70.2h0c0-.08,0-.18-.12-.24C103.66,70.09,103.66,70.18,103.82,70.2Z"/><path class="cls-3" d="M81.77,51.21a.14.14,0,0,0,0,.06.15.15,0,0,0,0,.07l0,0h.14l.07-.07v-.13h-.18Z"/><path class="cls-3" d="M84.32,53.25h0s0-.05,0,0,0,0,0,0Z"/><path class="cls-3" d="M84.8,57.13a.11.11,0,0,0,0,.08.16.16,0,0,0,.06.08.36.36,0,0,0,.12.08c.22.12.46.22.68.35l.3.17c.08,0,.17.09.25,0s.09-.19,0-.26h0a.36.36,0,0,0-.2-.11.45.45,0,0,0-.23,0l-.28-.21s-.11,0-.14-.07h0a.35.35,0,0,0-.42-.14Z"/><path class="cls-3" d="M74.78,47.77c0-.08,0-.16-.07-.2S74.69,47.72,74.78,47.77Z"/><path class="cls-3" d="M79.37,46.68a.06.06,0,0,0,0,.06s.1.08.15,0,0-.12,0-.19l-.06,0A.1.1,0,0,0,79.37,46.68Z"/><path class="cls-3" d="M23.62,62.89c.05-.15,0-.2-.25-.2h0a.21.21,0,0,0,.15.26S23.6,63,23.62,62.89Z"/><path class="cls-3" d="M20.77,65.15,21,65c.12,0,.22-.07.16-.2s-.17-.06-.25,0-.26.12-.37.19C20.5,65.26,20.69,65.13,20.77,65.15Z"/><path class="cls-3" d="M15.67,66.14l-.26,0h0C15.48,66.21,15.55,66.22,15.67,66.14Z"/><path class="cls-3" d="M15.06,66.33v-.14H15C14.94,66.27,14.9,66.35,15.06,66.33Z"/><path class="cls-3" d="M20.22,65.31c.05.08.13,0,.21.06h.05C20.41,65.27,20.31,65.3,20.22,65.31Z"/><path class="cls-3" d="M19.91,52.81s0,0,0,0l0,0s0,0,0,0S19.91,52.84,19.91,52.81Z"/><path class="cls-3" d="M34.89,45l-.09,0-.06.06v0a.56.56,0,0,0,.62,0c.14-.09,0-.11-.05-.17h-.14A.83.83,0,0,1,34.89,45Z"/><path class="cls-3" d="M33,44.36l-.14,0H32.8l-.08,0c-.1,0-.21,0-.28.07h-.07a1.08,1.08,0,0,0-.66.27l-.12.07-.07,0-.06,0,0,0,.14.13h.07a.47.47,0,0,1,.43-.2l.44-.21h.06a.22.22,0,0,0,.22,0h0c.14,0,.3,0,.44-.06C33.23,44.39,33.19,44.28,33,44.36Z"/><path class="cls-3" d="M34.39,44.23c0-.06-.1,0-.16,0a1.66,1.66,0,0,1-.45.12c-.11,0-.07.08-.05.14h.14c.08-.07.2,0,.28-.07h0a.23.23,0,0,1,.15-.07C34.35,44.3,34.41,44.27,34.39,44.23Z"/><path class="cls-3" d="M31.59,44.55c-.06.06-.15,0-.22.06l-.07.13h0a.15.15,0,0,0,.21,0C31.52,44.67,31.71,44.67,31.59,44.55Z"/><path class="cls-3" d="M34.59,49a.25.25,0,0,1,.14.13.14.14,0,0,0,.06.12l.1.09c.08.08.2.11.28.19H35l-.1,0h0c0-.06,0-.12-.07-.17h0a.5.5,0,0,0-.13.19c-.09.17,0,.15.14.14h.08a11.21,11.21,0,0,0,1.42,0c.07,0,.22,0,.14.11s0,.23-.13.3l-.08.07h0a.29.29,0,0,1-.14.21c0,.09.12.06.19.05s.06-.27.22-.34h0l0-.07v0a.28.28,0,0,1,.1-.21l.06,0a.22.22,0,0,0,.16-.15c0-.12-.06-.17-.19-.12a2.39,2.39,0,0,1-.84-.06v-.07a.17.17,0,0,0-.1-.06h-.11c-.14,0-.31,0-.38-.13s-.17-.06-.26-.09l-.08-.06h0c0-.05-.1,0-.14-.08h0a.16.16,0,0,1-.07-.07h0a.12.12,0,0,0-.15,0Z"/><path class="cls-3" d="M33.59,49.9l.13,0h0s0,0,0,0l.08-.06a.93.93,0,0,0,.49-.08c-.13-.13-.29,0-.43-.06h-.28C33.5,49.72,33.52,49.81,33.59,49.9Z"/><path class="cls-3" d="M32.29,49.84a.15.15,0,0,0,0,.07h0a.38.38,0,0,1,.14.14h0c.24.08.17-.12.21-.22s-.17-.13-.28-.06,0,0-.07.06Z"/><path class="cls-3" d="M38,43.7a.12.12,0,0,0-.14-.13c0,.08,0,.15.06.2l.08-.06Z"/><path class="cls-3" d="M40,43.71h0l.16-.12C39.92,43.59,39.92,43.59,40,43.71Z"/><path class="cls-3" d="M101.63,66.72a.06.06,0,0,0-.06.07.14.14,0,0,0,.13.09h0s0,0,0-.06S101.7,66.72,101.63,66.72Z"/><path class="cls-3" d="M93.64,64.26a.13.13,0,0,0,.07,0l.21.07a.83.83,0,0,0,.16.09.48.48,0,0,1,.3.24.19.19,0,0,0,.08,0c.27,0,.15.21.24.31a.46.46,0,0,0,.24.17c.2,0,.26-.06.24-.21h0l.13.07c.1,0,.15.16.27.17h0c0,.21.17.23.34.25l0,0,0,0a0,0,0,0,0,0,0,.1.1,0,0,0,.06,0l.07,0h0v0h.18a.29.29,0,0,0,0,.09.14.14,0,0,0,.15,0h0l0,0c.06.26.29.34.49.45s.28.33.54.27h.21c.09,0,.24.05.29-.1a.29.29,0,0,0-.28-.09.47.47,0,0,1-.45-.2.33.33,0,0,0-.13-.13.24.24,0,0,1-.09-.08.21.21,0,0,1,0-.06.55.55,0,0,1,0-.18.12.12,0,0,0,0-.07.25.25,0,0,0-.22,0l-.17.06a.26.26,0,0,0-.09-.14c.13-.1.18-.21.07-.35h-.07c-.1-.11-.19-.24-.37-.11s-.11,0-.17,0a2,2,0,0,1-.54-.15l-.14-.08c-.06,0-.07-.06-.09-.11a1.38,1.38,0,0,1-.41-.49.56.56,0,0,0-.22-.28h-.06c-.18,0-.14.13-.14.23s.12.13.18.2a2.22,2.22,0,0,1-.48-.27c-.15-.07-.22-.22-.34-.32l-.09,0a.35.35,0,0,0-.2,0l-.08,0a.23.23,0,0,0,0,.14c0,.08.08.12.15.17A.33.33,0,0,1,93.64,64.26Z"/><path class="cls-3" d="M88.85,59.7a.32.32,0,0,0,.16.35,4.87,4.87,0,0,0,1,.47.13.13,0,0,0,.12-.07.1.1,0,0,0,0-.09l-.06-.07c-.12-.07-.08-.21-.16-.3s-.21-.1-.3-.05-.26,0-.33-.17-.11-.17-.22-.18a.24.24,0,0,0-.2,0A.15.15,0,0,0,88.85,59.7Z"/><path class="cls-3" d="M90.52,60.05a.12.12,0,0,0,.14-.13l-.07-.07a.18.18,0,0,0-.15.07s0,.1.08.13Z"/><path class="cls-3" d="M92.45,61.92a1.48,1.48,0,0,1,.29.27c.09.06.2.07.28.14h.14v-.06l-.07-.08h0a2.36,2.36,0,0,0-.57-.35C92.45,61.82,92.43,61.85,92.45,61.92Z"/><path class="cls-3" d="M87.91,94.69l0,0-.08.05-.06.06c-.12,0-.12.07-.08.15h0a.26.26,0,0,1,.09.14.88.88,0,0,0,.07.14.34.34,0,0,0-.15.07v.13c.07.21.07.21.24.09l.1,0,.09-.06c0-.08,0-.1-.08-.14h0l-.1,0a.44.44,0,0,0,.1-.15h0a.23.23,0,0,1,.07-.07.6.6,0,0,1,.35-.08v-.13a.15.15,0,0,0-.13,0C88.16,94.8,88.06,94.63,87.91,94.69Z"/><path class="cls-3" d="M88.16,95.44s.1,0,.09-.08,0,0-.08,0S88.11,95.4,88.16,95.44Z"/><path class="cls-3" d="M23.36,68.27a.14.14,0,0,0-.14.06h0l.06.07.07.07c.1,0,.23,0,.15-.14l0,0a.13.13,0,0,0-.08,0Z"/><path class="cls-3" d="M20.78,72.54c.08-.06.17,0,.25,0s.06,0,.07-.05v0h0s0,0,0-.06,0,0,0,0a.13.13,0,0,1,0-.1l.06,0c.09-.1.23-.16.23-.33a.15.15,0,0,0-.15-.07h0c-.05,0-.11,0-.15.07h0a.46.46,0,0,0-.07.07.58.58,0,0,0-.23.18.28.28,0,0,1-.33.1s0,0,0,.06a.18.18,0,0,1-.13.2.38.38,0,0,0,0,.42C20.55,72.83,20.61,72.63,20.78,72.54Z"/><path class="cls-3" d="M20.06,73.5l.08-.13c-.08-.1-.18-.06-.28-.06l0,0C19.89,73.43,19.87,73.61,20.06,73.5Z"/><polygon class="cls-3" points="20.35 72.89 20.35 72.89 20.35 72.89 20.35 72.89 20.35 72.89"/><path class="cls-3" d="M20.34,72.91v0S20.32,72.91,20.34,72.91Z"/><path class="cls-3" d="M23.39,70.36c0-.08.09-.23-.11-.24h-.07a.46.46,0,0,1-.07.07h0c0,.09,0,.2.07.27h0C23.26,70.42,23.37,70.46,23.39,70.36Z"/><path class="cls-3" d="M8.71,79.54a.26.26,0,0,0-.3,0,.41.41,0,0,0,.28.15h0C8.71,79.66,8.79,79.59,8.71,79.54Z"/><path class="cls-3" d="M64.59,60v0c.11-.18,0-.38.06-.56l0-.09h0a.07.07,0,0,1,0-.08c0-.06,0-.12,0-.17h0c-.1-.08-.21-.16-.35-.05s0,.26.07.39a.18.18,0,0,1,0,.22s0,0,0,.06-.08.25,0,.34l.09,0h.1S64.63,60,64.59,60Z"/><path class="cls-3" d="M52.82,57h0c0,.08.13.07.21.06v-.12H53S52.86,56.91,52.82,57Z"/><path class="cls-3" d="M65.88,61.08c-.06-.08-.14-.06-.22,0a.15.15,0,0,0-.15.11.08.08,0,0,0,0,.08.33.33,0,0,0,.29-.06S65.89,61.09,65.88,61.08Z"/><path class="cls-3" d="M65.77,53.15c.1.07,0,.2.1.3.06-.08,0-.18.11-.23s0,0,0-.06a.16.16,0,0,0-.18-.16C65.75,53,65.77,53.1,65.77,53.15Z"/><path class="cls-3" d="M53.61,56.81h-.07c.07.1.18.07.27.06S53.68,56.82,53.61,56.81Z"/><path class="cls-3" d="M50,56.6s.08.1.12.1.08-.09.08-.16-.05-.09-.08-.14-.13,0-.14.08Z"/><path class="cls-3" d="M38.57,52.58a.49.49,0,0,1,.24,0h.06c.08-.21-.12-.16-.21-.21s-.13,0-.2,0a.51.51,0,0,0-.13.09l0,0A.18.18,0,0,0,38.57,52.58Z"/><path class="cls-3" d="M41.85,49.18c-.09-.12-.18,0-.32,0,.13.08.22.12.32,0A.06.06,0,0,0,41.85,49.18Z"/><path class="cls-3" d="M42.19,48.47c-.11,0-.29,0-.29-.08s-.12-.11-.2-.13a.15.15,0,0,1-.12-.07c-.07,0-.14-.1-.22,0a.17.17,0,0,0,0,.22.68.68,0,0,0,.12.12c.13,0,.2.12.3.19a.4.4,0,0,0,.49,0,.17.17,0,0,0,.06-.16A.12.12,0,0,0,42.19,48.47Z"/><path class="cls-3" d="M13.9,82.76a.2.2,0,0,1-.06-.14c0-.1-.05-.13-.14-.14s-.25,0-.12.18l.12.16C13.78,82.82,13.86,82.84,13.9,82.76Z"/><path class="cls-3" d="M9.28,98.29c-.11,0-.15,0-.15.12h.13C9.31,98.38,9.36,98.33,9.28,98.29Z"/><path class="cls-3" d="M98,72.91a3.24,3.24,0,0,1-.52-.07.28.28,0,0,0-.2,0c-.06.11-.47.06-.17.34l.09,0a.35.35,0,0,1,.21.1c.11.12.24.09.38,0s.52-.17.8-.14c0-.1.19-.14.19-.28h0a.28.28,0,0,0-.28,0c-.13,0-.28,0-.41,0Z"/><path class="cls-3" d="M84.73,93.23l.09.06c.16.1.18.09.2-.09s0-.07,0-.1h-.07C84.76,93,84.74,93,84.73,93.23Z"/><path class="cls-3" d="M86.16,93.75c0-.06,0-.12-.1-.12s-.06,0,0,.07a.11.11,0,0,0,.09.12S86.15,93.78,86.16,93.75Z"/><path class="cls-3" d="M92.89,92.31c-.06-.13-.22,0-.3-.1s-.12-.26-.29-.28-.17,0-.2.09.07.11.13.13a.23.23,0,0,1,.18.23c0,.2.14.16.26.18a.93.93,0,0,1,.14-.14S92.9,92.37,92.89,92.31Z"/><path class="cls-3" d="M94.22,91.78v-.12a.07.07,0,0,0-.06-.07c-.06-.06-.12-.11-.21-.07h0c-.11.06-.09.14,0,.21a.13.13,0,0,0,0,.06H94v.07h.21S94.22,91.81,94.22,91.78Z"/><path class="cls-3" d="M92.09,86.07h.13a1.09,1.09,0,0,0,.17-.13c0-.05,0-.1,0-.12S92.08,85.89,92.09,86.07Z"/><path class="cls-3" d="M93.07,85.12a0,0,0,0,1,0,0l0,0s0,0,0,0S93,85.13,93.07,85.12Z"/><path class="cls-3" d="M91.58,78.82c.15,0,.16.17.17.31a2.26,2.26,0,0,1,.16-.21l0-.17C91.78,78.76,91.66,78.72,91.58,78.82Z"/><path class="cls-3" d="M91.23,81.53s0,.09.08.09l0,0a.09.09,0,0,0,0-.11l-.08,0h0A.28.28,0,0,1,91.23,81.53Z"/><path class="cls-3" d="M20.35,89.38a.31.31,0,0,0,.22-.21h0a.12.12,0,0,0,0-.09c-.13-.16-.22-.1-.3,0l-.09,0-.08.07-.06.07c-.06.15,0,.18.15.15Z"/><path class="cls-3" d="M14.92,87.79l.15.13.33-.07C15.25,87.74,15.08,87.81,14.92,87.79Z"/><path class="cls-3" d="M12.7,85.24c-.1,0-.15,0-.14.13S12.7,85.33,12.7,85.24Z"/><path class="cls-3" d="M70.92,41.36l.07.06.14.14h0l.07-.06h0c.1-.16,0-.2-.14-.28l-.31,0C70.78,41.29,70.89,41.28,70.92,41.36Z"/><path class="cls-3" d="M69.63,46.19c.09,0,.16,0,.15-.09s0-.19-.15-.12Z"/><path class="cls-3" d="M68.35,49.36c.07,0,.15,0,.19-.06l-.06-.07C68.4,49.23,68.25,49.18,68.35,49.36Z"/><path class="cls-3" d="M81.89,51.73a.15.15,0,0,0,0-.23C81.87,51.58,81.83,51.65,81.89,51.73Z"/><polygon class="cls-3" points="81.86 51.5 81.86 51.5 81.86 51.5 81.86 51.5"/><path class="cls-3" d="M86.51,57.92v0l0,0,.07,0,.11,0,0,0,.07,0a.1.1,0,0,0,.07,0,.08.08,0,0,0,0,0,.58.58,0,0,0,.4.25c.14,0,.26.12.39.16a.37.37,0,0,0,.23,0c.08,0,.16,0,.22-.06s0,0-.07-.07l-.15-.08a.37.37,0,0,0-.21-.06c-.09-.06-.21-.1-.25-.18S87.19,58,87,58l-.13,0c-.06-.06-.16,0-.22-.07h0C86.59,57.86,86.53,57.86,86.51,57.92Z"/><path class="cls-3" d="M87.6,58s.05.08.1.07a.11.11,0,0,0,.09-.12c0-.05,0-.08-.08-.06A.12.12,0,0,0,87.6,58Z"/><path class="cls-3" d="M84.18,56.63a.38.38,0,0,0,.4.25.13.13,0,0,0,.14-.07l-.07-.07-.07-.06h-.06l-.08-.06h-.06s-.06,0-.09-.07h0s0,0-.07,0A.36.36,0,0,0,84.18,56.63Z"/><path class="cls-3" d="M83.66,55.84l.2.08.08.06h0a.23.23,0,0,0,.07.07h0a.11.11,0,0,0,.09,0v0l0,0,.06.08c.07.05.12.12.19.18h0a.91.91,0,0,1,.36.06h.06c.08,0,.13,0,.08-.12s-.1-.15-.15-.23l-.14-.07v-.14s0,0,0,0a0,0,0,0,0,0,0c0-.07-.1-.08-.17-.07h0a.37.37,0,0,0-.32-.11C83.88,55.72,83.72,55.67,83.66,55.84Z"/><path class="cls-3" d="M75.16,42.9a.12.12,0,0,0,.09.09.08.08,0,0,0,.1-.06c0-.07,0-.11-.1-.11A.07.07,0,0,0,75.16,42.9Z"/><path class="cls-3" d="M79.17,48.36l0,0h0Z"/><path class="cls-3" d="M25,62.34c.08-.08.19,0,.26-.08a.22.22,0,0,0,.1-.09l0,0h0a.1.1,0,0,0,.09,0l.12-.07c.1-.09.28-.12.3-.29h0l0,0c.13-.19.13-.19-.07-.21l-.07.07h0a.93.93,0,0,0-.43.22l-.07.06h0s0,0,0,0h-.06l0,0s0,0-.06,0h0a.13.13,0,0,1,0,.06h0c-.13,0-.19.09-.27.15l-.07.07c0,.06.08.07.14.07Z"/><path class="cls-3" d="M19.49,55.64h0l0,0s0,0,0,0l0,0a.17.17,0,0,0,0-.17h0c-.08,0-.11-.16-.23-.14a.2.2,0,0,1,0,.07c.1.08.07.24.21.28h0a.38.38,0,0,0,.08.27C19.64,55.82,19.52,55.73,19.49,55.64Z"/><path class="cls-3" d="M20.86,55.7a.38.38,0,0,1-.16-.12h-.06a.05.05,0,0,0-.08,0,.18.18,0,0,0,0,.14c0,.12.15.15.24.21h0l.07.06h0s0,.11.08.14h0c.09.08,0,.25.22.27s.13.12.14.21,0,.26.25.26c0-.13,0-.26-.05-.39A9.2,9.2,0,0,0,20.86,55.7Z"/><path class="cls-3" d="M37.45,48.68l.06-.08a.12.12,0,0,0-.07-.14l-.28.22c-.08.17.07.12.15.14A.38.38,0,0,0,37.45,48.68Z"/><path class="cls-3" d="M38.68,43.52l-.09,0h0l.07,0Z"/><path class="cls-3" d="M95.09,67.85l-.22-.13a2.16,2.16,0,0,0-.67,0,.16.16,0,0,0-.07.07.28.28,0,0,0,0,.09c.1.12.24.1.37.13s.18,0,.23.09S95,67.93,95.09,67.85Z"/><polygon class="cls-3" points="94.09 66.89 94.09 66.89 94.09 66.89 94.09 66.89"/><path class="cls-3" d="M94.19,66.91l-.1,0S94.14,67,94.19,66.91Z"/><path class="cls-3" d="M95,65.78c0-.06,0-.08-.07-.1a.09.09,0,0,0-.08,0l-.08.13C94.85,66,94.92,65.93,95,65.78Z"/><polygon class="cls-3" points="93.66 66.82 93.66 66.82 93.66 66.82 93.66 66.82"/><path class="cls-3" d="M93.52,66.61v.06s0,.06,0,.08a.19.19,0,0,0,.14.07h0c0,.1-.21,0-.26.16a.84.84,0,0,0,.47,0c0-.06.13-.06.16-.14-.16,0-.12-.2-.23-.26S93.61,66.61,93.52,66.61Z"/><path class="cls-3" d="M95,66.27l.07.07s0,0,.07,0h.07v-.14h-.07a.14.14,0,0,0-.15,0h0A.06.06,0,0,0,95,66.27Z"/><path class="cls-3" d="M95.68,65.52a.69.69,0,0,0-.4-.24s0,0,0,.08h0c.09.07,0,.21.13.25a.11.11,0,0,0,.08,0h.14S95.71,65.55,95.68,65.52Z"/><path class="cls-3" d="M91,62.06a2.11,2.11,0,0,0,.55.25s.07.06.1.09.25.08.2-.13-.05-.22-.21-.21h0L91.53,62c-.18-.08-.33-.22-.55-.16S90.91,62,91,62.06Z"/><path class="cls-3" d="M84.7,105.77l0,.06-.06.09a.33.33,0,0,0-.06.1.6.6,0,0,0-.06.19.11.11,0,0,0,0,.07c.11.09.14,0,.21-.07s0-.25.14-.35.12-.19-.07-.2l0,0A.7.7,0,0,0,84.7,105.77Z"/><path class="cls-3" d="M86.23,101.46l.06,0s0-.12-.08-.1S86.18,101.42,86.23,101.46Z"/><path class="cls-3" d="M87.09,93.93l-.09-.2h0l-.14-.14h-.07c-.07,0-.06.12-.06.2h0c.08,0,0,.13.06.19a.09.09,0,0,0,.06.06l.08,0h.09A.1.1,0,0,0,87.09,93.93Z"/><path class="cls-3" d="M21.68,72.19c-.08-.08-.15,0-.21.09l0,0h-.06c-.11.1-.22.18-.22.34a.44.44,0,0,0-.22.07l-.05,0s-.08.07-.06.11.08,0,.13,0H21l.06,0,.07,0a.13.13,0,0,0,.05-.06.19.19,0,0,0,0-.08l0,0a.06.06,0,0,0,.08,0l.05,0a1.25,1.25,0,0,1,.3-.26C21.64,72.35,21.79,72.31,21.68,72.19Z"/><path class="cls-3" d="M24.51,69.8l0,0a.2.2,0,0,0,0-.08.47.47,0,0,0,0-.17.2.2,0,0,0,0-.08s0,0,0,0,0,0-.05,0h-.07v.07s-.05,0-.06.07l-.09.12h0c-.29.18-.24.52-.48.77l.26-.07h0a.46.46,0,0,0,.07-.07c.1-.09.16-.21.29-.27a.51.51,0,0,0,0-.21s0,0,0-.06A.07.07,0,0,0,24.51,69.8Z"/><path class="cls-3" d="M23.71,69.71l-.06.08-.08.06c0,.18.12.11.21.07S23.8,69.76,23.71,69.71Z"/><path class="cls-3" d="M82.71,93.45h0a.17.17,0,0,1-.08-.06h0a.19.19,0,0,0-.08.15c.07.09.12.19.26.18S82.71,93.53,82.71,93.45Z"/><path class="cls-3" d="M66,63c.16.06.29,0,.37.13a.3.3,0,0,0,.16-.15.44.44,0,0,1,.07-.27c.1-.18.07-.27-.14-.4,0,.13-.06.26-.08.4S66.3,63,66,63Z"/><path class="cls-3" d="M72.36,61.86v-.67l-.16.11v.47c0,.17-.06.35.08.5A.25.25,0,0,0,72.36,61.86Z"/><path class="cls-3" d="M68.48,64.53a2.44,2.44,0,0,0,0-.27h0c-.08,0-.11,0-.14.08a.54.54,0,0,1-.07.27C68.38,64.67,68.46,64.65,68.48,64.53Z"/><path class="cls-3" d="M61.7,64.88c.06,0,.13,0,.11.09s.07.13.1.19a.74.74,0,0,0,.21,0c.07-.11,0-.2-.07-.28a.74.74,0,0,1-.15-.26C61.6,64.61,61.58,64.64,61.7,64.88Z"/><polygon class="cls-3" points="40.81 52.81 40.81 52.81 40.81 52.81 40.81 52.81"/><path class="cls-3" d="M40.43,52.41h0c-.06,0,0,.09,0,.13h0a.46.46,0,0,0,.07.07h0l.21.15s.11,0,.15.06l.08-.08a.13.13,0,0,1,0-.06C40.79,52.48,40.58,52.49,40.43,52.41Z"/><path class="cls-3" d="M14.2,83.32l-.14.13a.07.07,0,0,0,0,0C14.27,83.5,14.28,83.49,14.2,83.32Z"/><path class="cls-3" d="M15.76,84.83l0,0c-.09-.12-.21,0-.31,0l-.06,0v.14a.34.34,0,0,0,.31.11C15.77,85,15.84,85,15.76,84.83Z"/><path class="cls-3" d="M10.41,98h-.06c-.06,0,0,.1-.08.13v.07a.14.14,0,0,0,.14.06h0s0-.11.07-.14A.14.14,0,0,0,10.41,98Z"/><path class="cls-3" d="M10.12,98.55a.13.13,0,0,0,.15.14,1.34,1.34,0,0,1,0-.2C10.17,98.37,10.14,98.46,10.12,98.55Z"/><path class="cls-3" d="M11.92,106.07c-.08-.18-.15-.37-.22-.55l-.14.07a.13.13,0,0,0,0,.06s0,0-.07.08h-.05c0,.05,0,.11.05.11s.16.05.12.17,0,.08,0,.12h.07a.42.42,0,0,0,.29.07A.16.16,0,0,0,11.92,106.07Z"/><path class="cls-3" d="M93,74.23s0-.07-.05-.07-.07,0-.06.09a.36.36,0,0,1,0,.09h0A.12.12,0,0,0,93,74.23Z"/><path class="cls-3" d="M94.59,77h0c.1-.15,0-.23-.11-.31C94.4,76.81,94.57,76.86,94.59,77Z"/><path class="cls-3" d="M95.73,91.52h0l-.08-.06c-.06,0-.12-.12-.21,0s0,.15,0,.21.11.18.24.18S95.73,91.62,95.73,91.52Z"/><path class="cls-3" d="M83,91.71c.09,0,.1-.06.11-.13a.21.21,0,0,0-.21-.13s0,.09,0,.13S83,91.71,83,91.71Z"/><path class="cls-3" d="M21.45,89.36a.08.08,0,0,0,.06.11c.07,0,.1,0,.13-.09a.72.72,0,0,1,0-.21c.11-.24,0-.46,0-.7a.1.1,0,0,0-.12-.09c-.06,0-.07.06-.07.1s0,.23,0,.35A.75.75,0,0,1,21.45,89.36Z"/><path class="cls-3" d="M22.8,87.26a.2.2,0,0,0-.09-.11c-.12,0-.22-.14-.35,0h0a.16.16,0,0,0,0,.07.09.09,0,0,0,0,.07s0,.09.08.14h.07a.24.24,0,0,0,.2,0A.19.19,0,0,0,22.8,87.26Z"/><path class="cls-3" d="M69.92,48.19c0,.07-.13.14,0,.21s.12-.07.19-.08a.1.1,0,0,0,.08-.13c0-.07-.09-.07-.14-.06A.52.52,0,0,0,69.92,48.19Z"/><path class="cls-3" d="M84.14,56.53c0-.13-.06-.19-.13-.27s-.05.13-.07.2a.16.16,0,0,0,.07.07h0A.08.08,0,0,0,84.14,56.53Z"/><path class="cls-3" d="M24.67,68.23a.09.09,0,0,0-.07-.09c-.05,0-.09,0-.09.07s0,.09.07.1A.09.09,0,0,0,24.67,68.23Z"/><path class="cls-3" d="M27.92,66.13c.07.08.12,0,.17,0a.1.1,0,0,0,.05,0c0-.15-.11-.11-.19-.07A.1.1,0,0,0,27.92,66.13Z"/><polygon class="cls-3" points="28.14 66.05 28.14 66.05 28.14 66.06 28.14 66.05"/><path class="cls-3" d="M28.23,65.8c.05.23.18.07.28,0h.06c.12.07.16-.06.25-.08a.41.41,0,0,0,.14-.12.1.1,0,0,0,0-.13.2.2,0,0,1-.15-.07.55.55,0,0,0-.43.27h0A.2.2,0,0,1,28.23,65.8Z"/><path class="cls-3" d="M27.72,66.38c-.06,0,0,.08,0,.11l.07-.08S27.75,66.35,27.72,66.38Z"/><path class="cls-3" d="M26.92,59.88s0-.07-.06-.07-.1,0-.12.09a.06.06,0,0,0,.07.07C26.88,60,26.92,60,26.92,59.88Z"/><path class="cls-3" d="M26.65,58c-.11,0,0-.19-.18-.22s0,.27-.1.36a.58.58,0,0,0,0,.32c.13,0,0-.12.11-.15s0,.23.21.18A1.17,1.17,0,0,1,26.65,58Z"/><path class="cls-3" d="M37.3,49.63V49.5h-.13C37.07,49.68,37.22,49.63,37.3,49.63Z"/><path class="cls-3" d="M91,66.48h0c-.09.17-.33.09-.46.27h.39c.1,0,.18-.08.3,0s.06,0,.06-.09l-.07-.06C91.17,66.47,91.07,66.54,91,66.48Z"/><path class="cls-3" d="M92.73,63.43c0,.19,0,.22.22.28,0,0,.14,0,.08-.09s-.08-.17.08-.16,0-.05,0-.08l-.06-.08C93,63.32,92.77,63.18,92.73,63.43Z"/><path class="cls-3" d="M92.45,63h0l0,0v0c.1.15.2.19.31,0A.48.48,0,0,1,92.8,63c0-.08,0-.15-.13-.1A.44.44,0,0,1,92.45,63Z"/><path class="cls-3" d="M88.23,59.36h0c.1,0,.18.13.33.1C88.45,59.35,88.39,59.21,88.23,59.36Z"/><path class="cls-3" d="M85,105.46c0,.05,0,.1.07.09s0-.07,0-.11l0-.06h0S85,105.43,85,105.46Z"/><path class="cls-3" d="M18.4,77.3l.1.14a.28.28,0,0,0,.28.17s.1,0,.14,0h0A.42.42,0,0,0,18.4,77.3Z"/><path class="cls-3" d="M19.49,77.3c.22-.06,0-.13,0-.2s-.21,0-.19.11S19.42,77.32,19.49,77.3Z"/><path class="cls-3" d="M20.56,77.17l0,.06.12.07s.1,0,.14.1a.11.11,0,0,0,.08,0,.15.15,0,0,0,.11-.2.16.16,0,0,0,0-.07.94.94,0,0,0-.15-.06h0l-.07,0h0C20.62,77,20.49,77,20.56,77.17Z"/><path class="cls-3" d="M77.86,74.91a.11.11,0,0,0,0,.08s0,.07,0,.11l.05.06h0a.57.57,0,0,1,.07.36c0,.14,0,.22.17.24h0a.15.15,0,0,0,.06.09h0V76l0,0h0c0,.1,0,.23.12.28a.39.39,0,0,0,0-.51h0l0,0c0-.11,0-.22-.06-.31a.61.61,0,0,1-.12-.15h0l-.06-.07-.16-.33C78,74.82,77.92,74.86,77.86,74.91Z"/><path class="cls-3" d="M86,95.94l-.15.13s-.18.09,0,.15a.36.36,0,0,0,.29,0h0c.07-.12.14,0,.22,0l0,0v-.06a.09.09,0,0,1,0-.05.92.92,0,0,0,0-.33h-.05l-.3.13Z"/><path class="cls-3" d="M63.94,71.41c0-.09-.09-.1-.16-.11s-.21,0-.23.16,0,.12.11.11A.36.36,0,0,0,63.94,71.41Z"/><path class="cls-3" d="M70.16,84.8c-.12.06-.07.19-.17.23l-.07.07-.08.06a.09.09,0,0,0,0,.09.24.24,0,0,0,.1.1H70c.18,0,.1-.19.18-.26h0C70.19,85,70.25,84.89,70.16,84.8Z"/><path class="cls-3" d="M61.83,72.61c-.08-.18-.09-.18-.35-.06,0,.13.14.17.18.31C61.7,72.73,61.73,72.65,61.83,72.61Z"/><path class="cls-3" d="M66.65,78.26c0,.08,0,.17-.09.22a2.44,2.44,0,0,0,0,.27h0c0,.08-.06.17.06.21s.16.1.27.07c0-.2-.05-.41.14-.57-.14-.07-.22.09-.32,0S66.74,78.32,66.65,78.26Z"/><path class="cls-3" d="M67.09,78.05c-.06.22.1.41,0,.63.14,0,.12-.11.13-.2s0-.29.07-.42,0-.25-.18-.23S67.12,78,67.09,78.05Z"/><path class="cls-3" d="M73,76.71a.08.08,0,0,0,.1.07c.1,0,.12-.1.12-.18s0,0-.08-.06S73,76.61,73,76.71Z"/><path class="cls-3" d="M83.44,91.17l.07.07c.1-.17.09-.21-.07-.28h0l-.07.08v.06A.46.46,0,0,1,83.44,91.17Z"/><path class="cls-3" d="M72.71,71.85a.84.84,0,0,1,.07.35c0,.11.1.23.25.15s.11-.18,0-.29,0,0,0-.07,0-.1-.07-.14l0,0s0,0,0,0a1.1,1.1,0,0,0,0-.18s0-.11,0-.15h0c-.09-.06-.19,0-.27,0s-.16.07-.15.17S72.61,71.81,72.71,71.85Z"/><path class="cls-3" d="M72.13,84.27c-.1,0-.13.07-.14.16s0,.19-.07.25a2.18,2.18,0,0,0-.21.7l0,.12h0l0,0a.43.43,0,0,0-.07.35c0,.1.05.19.2.12l.07-.07a1.11,1.11,0,0,1,.09-.4l0,0h.07a.13.13,0,0,0,0-.14h0a1.36,1.36,0,0,1,0-.49A2,2,0,0,0,72.13,84.27Z"/><path class="cls-3" d="M66.49,80.28a.17.17,0,0,1-.07.13c0,.14,0,.14.18,0s0,0,0,0a.14.14,0,0,0,0,.12c.11.05.16.18.28.21s.06,0,.07,0,.11-.22,0-.33-.14-.31-.36-.21C66.53,80.13,66.55,80.27,66.49,80.28Z"/><path class="cls-3" d="M71.45,86.88c-.22.07-.18.28-.24.43s0,.2.07.27.14,0,.21-.07a2.26,2.26,0,0,1,0-.26C71.52,87.12,71.59,87,71.45,86.88Z"/><path class="cls-3" d="M67.07,84.54l0-.12-.13.06s0,.09,0,.13,0,.28.16.35h0A.61.61,0,0,0,67.07,84.54Z"/><path class="cls-3" d="M69.41,82h0s.12.17.15,0,0-.16-.06-.16S69.42,81.93,69.41,82Z"/><path class="cls-3" d="M65.6,67.68c.07.06.12,0,.17,0h0c-.06,0-.07-.13-.16-.07A.07.07,0,0,0,65.6,67.68Z"/><path class="cls-3" d="M66.34,63.23s0,.1,0,.06S66.37,63.24,66.34,63.23Z"/><path class="cls-3" d="M70.27,54.1s.1,0,.15-.05.11-.13,0-.22-.09,0-.13,0a.61.61,0,0,0,0,.12S70.21,54.06,70.27,54.1Z"/><path class="cls-3" d="M66.42,51.85l0-.09,0,0,0,.07Z"/><path class="cls-3" d="M38.88,61.23a.08.08,0,0,0,.06,0h.12l.07,0a.17.17,0,0,0,.1-.06l.08-.06c0-.08,0-.14-.08-.14l-.06,0a.58.58,0,0,1-.29.12Z"/><path class="cls-3" d="M43.17,59.44l-.16.05h-.13c-.09.11-.27,0-.36.13a.27.27,0,0,1-.07.08h0c0,.06.1.07.16.08a3.23,3.23,0,0,1,.63-.16C43.27,59.55,43.37,59.45,43.17,59.44Z"/><path class="cls-3" d="M11.05,97.17a.12.12,0,0,0-.14-.06l-.07.07C10.92,97.39,11,97.16,11.05,97.17Z"/><polygon class="cls-3" points="92.66 72.33 92.66 72.33 92.66 72.34 92.66 72.33"/><path class="cls-3" d="M92.5,72.1A3.73,3.73,0,0,0,92,72a.2.2,0,0,0-.16.06c0,.11,0,.19.14.2s.16,0,.22,0l.06,0h.36C92.75,72.16,92.6,72.14,92.5,72.1Z"/><path class="cls-3" d="M92.86,73.19s0,0,0,0,.06.08.11.09h0C92.94,73.25,93,73.19,92.86,73.19Z"/><path class="cls-3" d="M91.59,72l-.37,0c.11.19.37.07.44.26.1,0,.16,0,.09-.14s-.06-.08-.09-.13Z"/><path class="cls-3" d="M90.78,72c0,.08.06.14.16.17s0,0,.07.06c.24-.07,0-.14,0-.21S90.84,71.86,90.78,72Z"/><path class="cls-3" d="M93,71.89c.13.21,0,.33-.16.44h0s.1,0,.14.07a.23.23,0,0,1,.15.07h.05a.11.11,0,0,1,.15,0h0a.32.32,0,0,0,.09,0,.16.16,0,0,0,.1,0,.15.15,0,0,0,.1.11h0a10,10,0,0,0,1.24.11c-.07-.12-.2-.08-.26-.17l-.2-.08a2.12,2.12,0,0,0-.43-.06h-.28a.13.13,0,0,1,0-.06.68.68,0,0,0-.43-.13c-.11-.15,0-.37-.21-.5A.13.13,0,0,0,93,71.89Z"/><path class="cls-3" d="M92.67,79.07c0,.05,0,.08.09.07s0-.06,0-.09a.06.06,0,0,0-.05-.06C92.68,79,92.67,79,92.67,79.07Z"/><path class="cls-3" d="M16.57,86a.18.18,0,0,1-.15-.07l-.29.07h0c-.05,0-.06.09,0,.13s.21,0,.29.07a.38.38,0,0,0,.27-.07A.12.12,0,0,0,16.57,86Z"/><path class="cls-3" d="M78.79,55h0a1,1,0,0,0-.05.23s0,.08.08.1.08,0,.09,0,.26-.33.09-.57C78.91,54.84,78.91,55,78.79,55Z"/><path class="cls-3" d="M85.37,58.53l.07.07a.24.24,0,0,0,.29-.13h0a.46.46,0,0,1-.07-.07h0C85.39,58.34,85.39,58.34,85.37,58.53Z"/><path class="cls-3" d="M85.66,60.54h0l-.07-.06h-.14l0,0a0,0,0,0,1,0,0l-.08-.06c-.05-.06-.12,0-.19,0s-.16,0-.23,0h0a.06.06,0,0,0-.08,0h-.06a.24.24,0,0,1-.23,0h-.35c-.08,0-.14-.15-.24,0s0,0,0,.06.17,0,.26.06v.07l.12.08a.56.56,0,0,1,.18.07,3.09,3.09,0,0,0,1,.19C85.54,60.73,85.67,60.72,85.66,60.54Z"/><path class="cls-3" d="M81.23,58.75l.07-.07c0-.06,0-.11,0-.17s-.08-.07-.14,0a.13.13,0,0,0,0,.06C81.12,58.62,81.05,58.73,81.23,58.75Z"/><path class="cls-3" d="M82,58.6h.14v-.14C82.05,58.46,82,58.51,82,58.6Z"/><path class="cls-3" d="M83.44,60.12a.18.18,0,0,0-.07,0L83.22,60a1.13,1.13,0,0,0-.27-.13l-.12,0-.07,0a.34.34,0,0,0-.12,0h-.08a.34.34,0,0,1-.2,0,.24.24,0,0,0-.12,0s-.07,0-.1,0l-.08,0c-.19,0-.16.11-.08.22a.31.31,0,0,0,.18.09c.09,0,.19-.06.27,0a2.32,2.32,0,0,1,.38.07,1.37,1.37,0,0,0,.49.13c0,.05.1,0,.13.08h0C83.59,60.27,83.52,60.2,83.44,60.12Z"/><path class="cls-3" d="M83.36,59.92h0c.11.06.26,0,.36.14h0c.08,0,.14,0,.14-.13a.49.49,0,0,0-.49-.14C83.32,59.83,83.32,59.87,83.36,59.92Z"/><path class="cls-3" d="M79.44,57.22c.06,0,.13.09.17,0s.1-.23-.1-.25l-.06.08Z"/><path class="cls-3" d="M87.5,59.1c.18-.13-.08-.2,0-.31s-.1-.1-.17-.12c-.24,0-.24,0-.2.14l.07.06C87.27,59,87.3,59.15,87.5,59.1Z"/><path class="cls-3" d="M86.65,58.2c-.11,0-.15,0-.14.13l.08.06C86.79,58.39,86.69,58.28,86.65,58.2Z"/><path class="cls-3" d="M72.56,51.64a.13.13,0,0,1,.14-.07.51.51,0,0,1,.13-.24s.1-.09,0-.14a.12.12,0,0,0-.18,0c-.1.17-.31.24-.42.41,0,0,0,0,0,0s-.17,0-.09.15.11,0,.18,0S72.47,51.7,72.56,51.64Z"/><path class="cls-3" d="M72.78,50.81h0a0,0,0,0,0,0,.06h0l.08.06a.06.06,0,0,0,.06,0l.09-.13a.14.14,0,0,1,0-.06C72.88,50.66,72.83,50.74,72.78,50.81Z"/><path class="cls-3" d="M71.72,49.72c0,.06,0,.15.06.17s.12-.06.13-.13,0-.21-.13-.12Z"/><path class="cls-3" d="M28.94,62c.08,0,.06-.12,0-.18a1.51,1.51,0,0,0-.11-.22s-.05,0-.08-.06c-.18.08-.18.09-.06.33l.06.05C28.82,62,28.86,62.08,28.94,62Z"/><path class="cls-3" d="M27.51,67.68c0,.17.25,0,.38,0H28a.41.41,0,0,0,.3-.1c.11-.19.32-.29.43-.48h.07c0-.1,0-.2-.07-.27,0-.23,0-.24-.22-.15s-.25.27-.42.35l-.22.34C27.7,67.43,27.46,67.49,27.51,67.68Z"/><path class="cls-3" d="M27.43,61.78l-.07-.07h0a.1.1,0,0,0-.14,0,.33.33,0,0,0,.07.27C27.45,62,27.44,61.88,27.43,61.78Z"/><path class="cls-3" d="M27.58,59.44s.07-.1,0-.15-.11,0-.16,0l-.08.07a.16.16,0,0,0,.16.15Z"/><path class="cls-3" d="M27,61s0,0,0,0,0,.13.1.14a.09.09,0,0,0,0-.06C27.07,61.05,27.08,61,27,61Z"/><path class="cls-3" d="M93.28,71.88l.38.19c.08,0,.17,0,.24,0a.3.3,0,0,0-.17-.18C93.6,72,93.44,71.8,93.28,71.88Z"/><path class="cls-3" d="M93.09,67.79H93v.13H93c.12,0,.26,0,.37-.08h0C93.29,67.78,93.17,67.86,93.09,67.79Z"/><path class="cls-3" d="M90.45,66.88c-.23-.08-.42.08-.64.07a.17.17,0,0,0-.14,0,.09.09,0,0,0-.06.06.14.14,0,0,0,0,.17c.07.06.14.18.21,0s.44,0,.65-.06h0Z"/><path class="cls-3" d="M87.72,62.34c0-.05-.1,0-.14-.08h0l-.07-.06h0a.06.06,0,0,0-.09,0,.2.2,0,0,0,0,.08,1.75,1.75,0,0,0,.08.51.16.16,0,0,0,.06.08.11.11,0,0,0,.13,0c.06-.18,0-.37.07-.54Z"/><path class="cls-3" d="M91.51,63c-.07,0-.15,0-.2.06s.06.15.17.16S91.51,63.1,91.51,63Z"/><path class="cls-3" d="M92.11,63.26l-.09,0h0S92.06,63.32,92.11,63.26Z"/><path class="cls-3" d="M21.54,75s-.06,0-.1,0l-.07.12h.05S21.54,75.1,21.54,75Z"/><path class="cls-3" d="M76.32,72c.09.16.2.2.36.1l-.11-.17c-.07,0-.06-.12-.09-.17s-.2-.17-.33-.05C76.21,71.81,76.27,71.9,76.32,72Z"/><path class="cls-3" d="M79.4,98.32l-.16,0a.29.29,0,0,0-.17.19c0,.07.1.07.16.08s.32,0,.47-.09C79.83,98.17,79.53,98.36,79.4,98.32Z"/><path class="cls-3" d="M80,96.89a1.64,1.64,0,0,1-.14.22c0,.06,0,0,.07.06s0,0,0,0,0,0,0,0h0c.06-.06.16,0,.21-.07h0c.19,0,.28-.13.08-.27h-.14S80,96.85,80,96.89Z"/><path class="cls-3" d="M83.07,97.31c-.17.11-.45,0-.57.21h0s-.06,0-.08.08h-.06v0l-.16.07-.19,0h-.16l-.08,0-.1,0a.44.44,0,0,1-.16,0,.09.09,0,0,0-.07,0c0,.11,0,.19.14.2a6.11,6.11,0,0,1,.87-.19c.15,0,.25-.17.42-.09s.15,0,.21-.07.19-.13.28-.2l0-.07c0-.06-.08-.15-.19-.14s-.11,0-.15.07Z"/><path class="cls-3" d="M85.47,95.64c0,.08.06.07.11.09h0c0-.06,0-.12-.1-.12S85.47,95.63,85.47,95.64Z"/><path class="cls-3" d="M70.92,89.45v.34H71a.36.36,0,0,0,.06-.2C71,89.57,71,89.45,70.92,89.45Z"/><path class="cls-3" d="M65.41,81.16a.42.42,0,0,1-.21.08c0,.05-.11.09-.15.14s-.09.12,0,.17.1,0,.16,0,.27-.11.29-.28Z"/><path class="cls-3" d="M65.48,79.92s0,0,0,.07h.2c0-.15,0-.2-.19-.12C65.49,79.88,65.48,79.9,65.48,79.92Z"/><path class="cls-3" d="M66.91,74.75v-.13c0-.07,0-.16-.12-.05S66.78,74.75,66.91,74.75Z"/><path class="cls-3" d="M71.13,86.27a.32.32,0,0,1-.14.14c0,.15.11.14.21.13a.09.09,0,0,0,.07-.06l.08-.14A.14.14,0,0,0,71.13,86.27Z"/><path class="cls-3" d="M67.48,75.13s0-.11,0-.16-.18-.12-.2.06v.2C67.39,75.3,67.46,75.26,67.48,75.13Z"/><path class="cls-3" d="M67.48,74.75h.07v-.13s0-.1-.07-.14h0c-.16-.08-.22,0-.29.14l-.06.15c0,.12,0,.13.13.07S67.44,74.84,67.48,74.75Z"/><path class="cls-3" d="M71.42,86.34a.19.19,0,0,0,.21.13c0-.11.05-.23-.06-.32A.21.21,0,0,1,71.42,86.34Z"/><path class="cls-3" d="M72.84,61.44h0c.07,0,.16.12.19,0s0-.11-.12-.11S72.83,61.38,72.84,61.44Z"/><path class="cls-3" d="M73.21,53.43h0c-.06.06,0,.15-.07.21h0c0,.09,0,.19,0,.28V54a.44.44,0,0,0,0,.34h0a.11.11,0,0,0-.09,0c-.07.15-.14.29,0,.45a4.11,4.11,0,0,0-.1.41c0,.21,0,.43-.09.63a1.78,1.78,0,0,0-.08.76h.07l0,0s.05,0,.07-.06a.16.16,0,0,0,0-.09,1.69,1.69,0,0,1,.07-.38,6.27,6.27,0,0,0,.18-1.37c0-.1,0-.21,0-.31a.1.1,0,0,0,0-.05h.06a2.43,2.43,0,0,0,.08-.47c.06-.06,0-.15.07-.21a1.34,1.34,0,0,1,0-.2c0-.06,0-.12-.08-.15h0S73.25,53.39,73.21,53.43Z"/><path class="cls-3" d="M71.34,52.84s0,0,0-.05,0,0-.05,0,0,0,0,0S71.32,52.86,71.34,52.84Z"/><path class="cls-3" d="M32.18,63.81l.11-.05.08,0c.09,0,.1-.14.13-.22a4.31,4.31,0,0,1,.51-.62.13.13,0,0,0,.06-.07h0a.14.14,0,0,0-.13-.06h0l-.08,0a.71.71,0,0,0-.15.08c-.08,0-.17.06-.2.15s-.22.23-.3.36l-.09.14,0,0-.06.06-.06,0-.1.08a.22.22,0,0,0,0,.08.13.13,0,0,0,.07.09H32l.11,0Z"/><path class="cls-3" d="M34.09,63.58a.15.15,0,0,0-.13-.07.2.2,0,0,1-.16.06c-.19,0-.25.13-.33.24s.05.1.11.11a.62.62,0,0,1,.43-.14A.15.15,0,0,0,34.09,63.58Z"/><path class="cls-3" d="M21.07,92.41v-.07a2.44,2.44,0,0,1,0-.27l0,0s0,0,0,0h.06s0,0,0-.07a.56.56,0,0,1-.08-.27h-.13c0,.19,0,.37,0,.55h-.06c0,.25,0,.28.21.27Z"/><path class="cls-3" d="M21,95.32a2.36,2.36,0,0,1,.63-.17.18.18,0,0,0,.07-.05c-.05-.15.11,0,.13-.11a.13.13,0,0,0,.06-.07c0-.17-.09-.17-.21-.1a.51.51,0,0,0-.24.13.35.35,0,0,1-.4,0v0a.2.2,0,0,0-.06-.13h0c.27-.06.12-.28.15-.43a8.83,8.83,0,0,1,0-.89,1,1,0,0,0,0-.24v0c0-.12-.14-.21-.06-.35s0,0,0-.06a.14.14,0,0,1-.06-.14c-.07,0-.11,0-.1.1a.39.39,0,0,1,0,.39,1.84,1.84,0,0,1-.11.9.2.2,0,0,0,0,.2.78.78,0,0,1,0,.34v.21c-.06.11,0,.22,0,.34a.31.31,0,0,0-.06.13.36.36,0,0,0,0,.14.11.11,0,0,0,.1.09s.05,0,.07,0A.44.44,0,0,0,21,95.32Zm-.09-.67h0Z"/><path class="cls-3" d="M22.57,86h0s.05,0,.06-.08v-.13a.14.14,0,0,0-.22,0c-.06.08,0,.11.09.15S22.55,86,22.57,86Z"/><path class="cls-3" d="M23.14,87.36a.2.2,0,0,1,.14-.06v-.06l0,0a.16.16,0,0,0-.17,0l0,0C23.07,87.24,23.05,87.32,23.14,87.36Z"/><path class="cls-3" d="M74.29,51.65v.13C74.36,51.74,74.36,51.69,74.29,51.65Z"/><polygon class="cls-3" points="72.13 52.19 72.13 52.19 72.13 52.19 72.13 52.19"/><path class="cls-3" d="M71.7,52.08a.2.2,0,0,0,0,.25c.06.06.15,0,.22,0a.25.25,0,0,0,.17-.11,1.19,1.19,0,0,1-.3-.46A2.84,2.84,0,0,1,71.7,52.08Z"/><path class="cls-3" d="M25,69.13c-.11,0-.12.08-.19.09h0s-.07.13,0,.11A.17.17,0,0,0,25,69.13Z"/><path class="cls-3" d="M29.15,65h0c.08.12.15,0,.22,0V65s0,0-.07,0h-.06Z"/><path class="cls-3" d="M26.36,68.61h0c-.06-.07-.13-.11-.18,0s.06.07.11.08h0Z"/><path class="cls-3" d="M32,69.37s0,.1,0,.13c.31-.13.5-.41.8-.55,0-.09.22-.18,0-.27H32.8A4.28,4.28,0,0,0,32,69.37Z"/><path class="cls-3" d="M33.29,68.32l-.06,0a.23.23,0,0,0-.07.07h0l-.08.06h0l-.07.07a.6.6,0,0,1,.08.08c.11,0,.22,0,.21-.15A.76.76,0,0,0,33.29,68.32Z"/><polygon class="cls-3" points="33.01 68.54 33.01 68.54 33.01 68.54 33.01 68.54"/><path class="cls-3" d="M30.26,65.55l0,.07v0c.07.08.12,0,.17,0s.05-.1.11-.13h0s.11,0,.13-.07h0a.23.23,0,0,0,.07-.07c.12-.09.13-.27.29-.33a.14.14,0,0,1,.13-.08.27.27,0,0,0,.08-.07h0c.05-.07.06-.16.11-.23s0-.17-.17-.1-.19.28-.35.34a.59.59,0,0,0-.31.17l0,.08a.4.4,0,0,1-.09.21l-.05.07a.47.47,0,0,1,0,.1Z"/><path class="cls-3" d="M29.79,66c0-.1.23-.18.08-.33h0l-.11.06-.11.08h0c-.06.1-.09.18.08.21Z"/><path class="cls-3" d="M29.94,58.6l-.15,0-.07.06c0,.07-.12.06-.2.08a.29.29,0,0,0,.41.05A1.48,1.48,0,0,0,29.94,58.6Z"/><path class="cls-3" d="M92.15,71.73c-.1,0-.21,0-.13.12C92.11,71.85,92.16,71.82,92.15,71.73Z"/><path class="cls-3" d="M87.65,61.65s0,0,0,.05l.55.09c.17,0,.13-.12.08-.22h-.21C87.94,61.6,87.77,61.51,87.65,61.65Z"/><path class="cls-3" d="M80.32,102.94c0,.1,0,.19.11.23s.14-.19.2-.29v0s0-.1-.08-.1S80.37,102.85,80.32,102.94Z"/><path class="cls-3" d="M84.45,101.23s0-.07,0-.11h0a.46.46,0,0,1-.07.07S84.41,101.24,84.45,101.23Z"/><path class="cls-3" d="M22.78,75.86l-.16,0c-.06,0-.12,0-.16,0s0,.1.05.15.21,0,.28-.07S22.78,75.88,22.78,75.86Z"/><path class="cls-3" d="M25.44,74c-.13,0-.24.08-.15.24s.17,0,.2,0,.29.08.44,0C25.86,74,25.62,74,25.44,74Z"/><path class="cls-3" d="M27.09,74c.07.1.15,0,.22,0a1.14,1.14,0,0,0,.35-.27c.23-.22.31-.56.55-.77,0-.11.09-.2,0-.35-.13.16-.24.3-.36.43a.32.32,0,0,1-.1.18,2.14,2.14,0,0,0-.41.44h0l-.07.06a.24.24,0,0,1-.11.13C27.11,73.87,27.05,73.93,27.09,74Z"/><path class="cls-3" d="M77.49,94.7c-.08,0-.06.13-.06.2C77.62,94.88,77.55,94.79,77.49,94.7Z"/><path class="cls-3" d="M77.78,98.35a1,1,0,0,0-.5.13c0,.08.13.07.21.07S77.84,98.62,77.78,98.35Z"/><path class="cls-3" d="M78.44,98.15a.59.59,0,0,1,0,.13c0,.24,0,.24.25.13,0,0,.05,0,.07-.06v0h.08a.7.7,0,0,1,.22-.2h.06c0-.06.07-.12,0-.13S78.66,98.14,78.44,98.15Z"/><path class="cls-3" d="M78.21,98.2l-.14,0-.07,0v.06h.24c.05,0,.09,0,.08-.07S78.25,98.22,78.21,98.2Z"/><path class="cls-3" d="M77.13,97.7a.09.09,0,0,0,.11-.07c0-.07,0-.09-.11-.11a.08.08,0,0,0-.1.06A.11.11,0,0,0,77.13,97.7Z"/><path class="cls-3" d="M81.13,101.4c-.16,0-.26,0-.26.18a.31.31,0,0,0,.19,0l.07-.06Z"/><path class="cls-3" d="M65.63,81.93c0-.12,0-.23,0-.34s-.13-.08-.18,0a.44.44,0,0,0,.11.47h0a.09.09,0,0,0,0-.11l0,0,0,0Zm-.08,0h0Z"/><path class="cls-3" d="M76.78,65.47s0,.07,0,.07.1-.05.1-.11,0-.09,0-.08S76.8,65.4,76.78,65.47Z"/><path class="cls-3" d="M66.19,88a.31.31,0,0,0,0-.1.2.2,0,0,0,0-.15.91.91,0,0,0-.23-.15.09.09,0,0,0-.09,0,.29.29,0,0,0-.07.18,1.3,1.3,0,0,0,0,.34,1,1,0,0,1-.06.55l0,.13a.14.14,0,0,0,0,.09.18.18,0,0,0,0,.07h0c.06,0,.11,0,.09.11a1.14,1.14,0,0,0,0,.37c0,.12.11.12.21.08s.05,0,.06-.08h0c0-.07,0-.1-.06-.14s0,0,0-.06A2.6,2.6,0,0,1,66.19,88Z"/><path class="cls-3" d="M69.1,92.2h.1v-.06l-.06,0s-.09,0-.11,0S69.05,92.2,69.1,92.2Z"/><path class="cls-3" d="M68.94,92.49s0,0,0,0h0c0-.07,0-.15,0-.19a1.15,1.15,0,0,0,0,.19h0Z"/><path class="cls-3" d="M68.92,91.44c.11,0,.21,0,.22-.13s-.15,0-.22,0Z"/><path class="cls-3" d="M66.07,83.71c.09,0,0,.25.19.15a.66.66,0,0,1,0-.14C66.2,83.71,66.14,83.6,66.07,83.71Z"/><path class="cls-3" d="M61.06,75.38c0,.08,0,.11.12.11s.09-.15.07-.25A.16.16,0,0,0,61.06,75.38Z"/><path class="cls-3" d="M46.53,68.33a.31.31,0,0,0,.29.06.15.15,0,0,0,.09-.06.1.1,0,0,0,0-.13h0a5,5,0,0,1-.5-.29h0a.13.13,0,0,1-.07-.06l-.08-.07a.46.46,0,0,1-.07-.07h0c-.13.06-.12.15-.05.24s.16.09.19.18h0l.08.06.08.07s0,0,.06.07Z"/><path class="cls-3" d="M54.4,67.31v0l.09,0C54.49,67.28,54.44,67.31,54.4,67.31Z"/><path class="cls-3" d="M31.5,64.47s0,0,0-.07,0-.1.08-.13h0a.24.24,0,0,0-.22-.15l-.21.07a.23.23,0,0,1-.07.07h0a.13.13,0,0,0,.14.07s0,0,0,0a.06.06,0,0,0,.05,0s.06,0,.06,0S31.42,64.46,31.5,64.47Z"/><path class="cls-3" d="M90,71.3a.1.1,0,0,0-.15,0,.07.07,0,0,0,0,.11h0s.1.07.14,0V71.3Z"/><path class="cls-3" d="M81.93,71.85h0c.06-.07.16,0,.22-.06v-.08H81.8A.19.19,0,0,0,81.93,71.85Z"/><path class="cls-3" d="M22.67,83.94c0-.07-.09-.14-.19-.12s-.05.11-.05.17a1.05,1.05,0,0,0,0,.18l.12-.08C22.6,84.05,22.73,84.06,22.67,83.94Z"/><path class="cls-3" d="M79.29,59.3a.3.3,0,0,0,0,.1c0,.06-.06.14,0,.17s.13,0,.17-.08,0-.08,0-.13A.26.26,0,0,0,79.29,59.3Z"/><polygon class="cls-3" points="28 73.51 28 73.51 28 73.51 28 73.51"/><path class="cls-3" d="M28,73.54v0S28,73.53,28,73.54Z"/><path class="cls-3" d="M32,58.12c0-.09,0-.13-.14-.13a.46.46,0,0,0-.07.07C31.85,58.14,31.93,58.13,32,58.12Z"/><path class="cls-3" d="M88.85,67.07h0s0,0,0,0h0Z"/><path class="cls-3" d="M89.45,67l0,0,0,0Z"/><path class="cls-3" d="M89.91,70.6s-.06,0-.11,0v.12C89.86,70.67,89.93,70.67,89.91,70.6Z"/><path class="cls-3" d="M81.1,104.3c.07.07.12,0,.18,0v0s-.1-.1-.18,0A.08.08,0,0,0,81.1,104.3Z"/><path class="cls-3" d="M78,104.21c0,.07,0,.2.11.14s.24,0,.24-.2h0a.23.23,0,0,0-.07-.07s0,0-.06,0l-.08.06Z"/><path class="cls-3" d="M23.72,74.61c-.06,0-.07-.11-.13-.09s0,.11,0,.15l.11.08h.05A.65.65,0,0,1,23.72,74.61Z"/><path class="cls-3" d="M72.78,98.69s-.11.07-.09.12.11,0,.16,0,0-.09,0-.13Z"/><path class="cls-3" d="M76.79,99.1a.28.28,0,0,0,.28,0c0-.06.07-.14-.06-.15A.19.19,0,0,0,76.79,99.1Z"/><path class="cls-3" d="M77.91,98.57c-.14,0-.27.08-.41.05s0,.14.07.2c.18,0,.23-.14.35-.2A.07.07,0,0,0,77.91,98.57Z"/><path class="cls-3" d="M73.92,99.1c0,.05-.1,0-.14.07h-.14l-.36.21c-.13,0-.25,0-.21.19s.17.13.29.07a1.82,1.82,0,0,1,.31-.16c.14-.07.37,0,.4-.25a.15.15,0,0,0-.15-.14Z"/><path class="cls-3" d="M79.65,103.37h.06s.08-.08.06-.14-.06,0-.09,0S79.61,103.32,79.65,103.37Z"/><path class="cls-3" d="M74.54,105a.26.26,0,0,0-.27,0,4.5,4.5,0,0,0-1.16.07.31.31,0,0,1-.33-.07c-.14,0-.08.11-.15.13a.62.62,0,0,1-.35.08c-.27,0-.52.09-.78.07,0,.25.19.19.34.2s.38.08.49-.12l.06,0a9.49,9.49,0,0,0,1.51-.06,1.18,1.18,0,0,0,.61-.16S74.61,105,74.54,105Z"/><path class="cls-3" d="M76.05,100s0-.05,0-.08l-.28.07c0,.17.12.09.19.11A.11.11,0,0,0,76.05,100Z"/><path class="cls-3" d="M62.48,83.51s0,.12.09.11a0,0,0,0,0,0,0C62.6,83.52,62.53,83.52,62.48,83.51Z"/><path class="cls-3" d="M78.35,71.1l0,.05c.19,0,.2,0,.14-.13A.15.15,0,0,0,78.35,71.1Z"/><path class="cls-3" d="M65.79,86.63a.07.07,0,0,0,.06.07,0,0,0,0,0,.06,0s0-.07-.06-.07S65.79,86.59,65.79,86.63Z"/><path class="cls-3" d="M59.89,78.84h-.11c-.09.08-.11.21-.23.26-.19.26-.16.32.13.34,0-.06,0-.15,0-.16C60,79.19,59.91,79,59.89,78.84Z"/><path class="cls-3" d="M61,77.93l-.07-.07c-.08,0-.18,0-.18.08s.05.19.17.18S61,78,61,77.93Z"/><path class="cls-3" d="M56.1,74,56,73.85c-.1,0-.15,0-.14.14Z"/><path class="cls-3" d="M48.53,69.23c0,.1,0,.16.1.14s.49-.19.73,0l0-.09c-.13-.06,0-.21-.07-.27a.57.57,0,0,1-.36-.14c0,.11-.08.23-.25.2S48.54,69.13,48.53,69.23Z"/><path class="cls-3" d="M87.44,70.06h.06c.1-.1,0-.14-.06-.19h0C87.27,69.93,87.32,70,87.44,70.06Z"/><path class="cls-3" d="M82.43,71.24h-.07c-.07.08,0,.19-.06.27l.07.07h.13l.07-.07C82.74,71.31,82.5,71.32,82.43,71.24Z"/><path class="cls-3" d="M83.23,69.56s.11,0,.08-.09-.1,0-.15,0v0Z"/><path class="cls-3" d="M24.64,87.06s0,0,0,0,0,0,0,0,.05,0,.05,0S24.68,87.06,24.64,87.06Z"/><path class="cls-3" d="M37.6,84a.48.48,0,0,0-.16-.35,3.94,3.94,0,0,1-.36-.89c-.09.12,0,.26-.13.33-.05.22.18.33.23.52a1.46,1.46,0,0,0,.27.58C37.59,84.21,37.58,84.1,37.6,84Z"/><path class="cls-3" d="M38.29,86.29a.31.31,0,0,1-.06-.22,1,1,0,0,0,0-.29c0-.24-.17-.43-.21-.66a.1.1,0,0,0-.07,0h0l0-.11h-.06c-.05-.06-.1-.07-.15,0a.21.21,0,0,0,0,.31.63.63,0,0,1,.15.48A.65.65,0,0,0,38,86s0,0,0,.07l.09.21a.15.15,0,0,1,.08.12A.15.15,0,0,0,38.29,86.29Z"/><path class="cls-3" d="M36.8,85.31h-.11s-.13,0-.14.06.05.1.09.13.26,0,.37-.06S36.84,85.39,36.8,85.31Z"/><path class="cls-3" d="M35.57,72.76h-.12c0,.12-.06.26.14.28S35.6,72.85,35.57,72.76Z"/><path class="cls-3" d="M27,79.51a.13.13,0,0,0,.14-.14.39.39,0,0,0-.29-.13c0,.13.06.2.15.27Z"/><path class="cls-3" d="M70.09,97.79s0,.07,0,.11.09,0,.14,0v-.07S70.12,97.78,70.09,97.79Z"/><path class="cls-3" d="M72,98.92c.22.06.22.06.24-.09C72.19,98.84,72.09,98.81,72,98.92Z"/><path class="cls-3" d="M69.66,102.33c0,.13-.14.18-.24.22l-.08.14c0,.09,0,.1.1.11h.1l.08,0c.13-.06.29-.06.36-.2l-.14-.13a.14.14,0,0,0-.06-.14S69.67,102.29,69.66,102.33Z"/><path class="cls-3" d="M73.86,101l-.07.06c-.07.11,0,.17.09.13s.27-.14.4-.2.1,0,.15-.07h0c-.06-.08-.14-.07-.22-.07a.15.15,0,0,1-.09.06Z"/><path class="cls-3" d="M75.4,105.21s0,.07.09.09l.07-.06C75.52,105.18,75.46,105.14,75.4,105.21Z"/><path class="cls-3" d="M61.09,91.49a.14.14,0,0,0,0,.23l.08-.13a.42.42,0,0,1,.06-.08h0C61.21,91.45,61.14,91.42,61.09,91.49Z"/><path class="cls-3" d="M65.77,88.21c0-.1-.1-.15-.2-.07s0,.09-.07.14S65.73,88.38,65.77,88.21Z"/><path class="cls-3" d="M79.36,63.78c0,.1,0,.14.14.14A.13.13,0,0,0,79.36,63.78Z"/><path class="cls-3" d="M47.42,70.74s0,.06,0,.09a.36.36,0,0,0,.07.1l0,0,.14-.06c.1,0,.26,0,.28-.14h0c-.14-.1-.38-.09-.34-.35-.07,0-.12,0-.17,0S47.42,70.64,47.42,70.74Z"/><path class="cls-3" d="M48.39,71.05s0,0,0,0,.06.07.11.09h0S48.47,71.05,48.39,71.05Z"/><path class="cls-3" d="M46.42,69.78h.1a.56.56,0,0,0-.05-.08s-.09-.06-.12,0S46.37,69.77,46.42,69.78Z"/><path class="cls-3" d="M47.47,69.37c0,.19.17.16.28.2.17-.14,0-.18-.08-.27l-.15-.13a.14.14,0,0,0-.06.13A.17.17,0,0,0,47.47,69.37Z"/><path class="cls-3" d="M22.07,96.89c-.07,0-.16,0-.23,0,.11,0,.2.06.29,0Z"/><path class="cls-3" d="M23.71,97.93c.06-.07,0-.16.08-.23v-.32h0c0-.09,0-.19-.12-.19a1,1,0,0,1,0,.17h0a.06.06,0,0,0,0,.09h0a0,0,0,0,1,0,.07v.13s0,.11-.07.14h0c0,.08,0,.22.14.14Z"/><path class="cls-3" d="M86.87,69.94h-.06s0,0,0,0a.1.1,0,0,0,.09,0S86.9,70,86.87,69.94Z"/><path class="cls-3" d="M26.64,92.89a1,1,0,0,0,0-.34c0-.06-.05-.06-.09-.07-.12.17-.07.4-.22.55h0c-.05.08-.06.16,0,.22s.15,0,.2-.07a.4.4,0,0,0,.07-.24Z"/><path class="cls-3" d="M84.79,66.34a1.14,1.14,0,0,1-.57-.28h0l-.08,0c0-.13-.26,0-.3-.16a.4.4,0,0,1-.06-.22c0-.06,0-.15-.13-.23,0,.23-.07.34-.29.38.19.23.5.19.65.4a4.44,4.44,0,0,0,1,.56c.07,0,.15,0,.2-.06l-.07-.07c0-.07-.14-.08-.2-.15A.47.47,0,0,1,84.79,66.34Z"/><path class="cls-3" d="M28.71,85.23l.07-.06c0-.13.15-.21.15-.34s0-.16-.14-.08-.41.21-.28.49h0A.15.15,0,0,0,28.71,85.23Z"/><path class="cls-3" d="M28.15,87.31l-.15.06a.09.09,0,0,0-.14,0c0,.06,0,.09.08.12h.21A.15.15,0,0,0,28.15,87.31Z"/><path class="cls-3" d="M37.8,84.61s0,0,0,0c-.18-.11-.2-.1-.21.11a.23.23,0,0,1,.07.14C37.76,84.77,37.71,84.65,37.8,84.61Z"/><path class="cls-3" d="M37.44,79c-.08,0-.12-.16-.22-.09s0,.16,0,.24v0h.13A.19.19,0,0,0,37.44,79Z"/><path class="cls-3" d="M36.55,74.66l0,.06,0,0a.09.09,0,0,0,0-.06Z"/><path class="cls-3" d="M71.13,99.72l-.14.07c-.3.11-.3.11-.43-.18,0,0,0,0-.14,0h0a.28.28,0,0,1,0,.29h0s0,0,0,.07h0a.17.17,0,0,1,0,0c0,.14,0,.19.15.14h0l0,0c.25.07.37-.12.54-.23l.12-.08.07-.06s.06-.1,0-.14S71.17,99.7,71.13,99.72Z"/><path class="cls-3" d="M71.06,101a.18.18,0,0,0,.29,0h.21s.22-.09,0-.14h-.28C71.12,100.76,71.08,100.84,71.06,101Z"/><path class="cls-3" d="M71.45,99.93h.25l.08-.06s.07-.07.08-.11,0,0-.08,0S71.56,99.81,71.45,99.93Z"/><path class="cls-3" d="M71.63,99.53h-.21c0,.06-.07.14,0,.18s.13,0,.18-.08S71.62,99.56,71.63,99.53Z"/><path class="cls-3" d="M67.77,102.28c-.16-.07-.31,0-.46,0a.35.35,0,0,0-.13.08.12.12,0,0,0,0,.14.09.09,0,0,0,.07,0s.11,0,.15-.06h.21c.08-.07.2,0,.29-.06l.42-.08c-.11-.19-.28-.07-.43-.06Z"/><path class="cls-3" d="M70.69,101.17c-.09-.11-.22,0-.34-.06s.07.15.18.11Z"/><path class="cls-3" d="M70.48,105.79c-.2,0-.34.12-.34.34s0,.15.14.12l.14,0a.53.53,0,0,1,.42-.21s0,0,0-.07.21,0,.25-.09-.08-.12-.13-.18h0a.3.3,0,0,1-.23.06h0l-.08.06h0s0,0-.06,0Z"/><path class="cls-3" d="M47.53,84.72c0,.06,0,.13-.07.18l0,0a.47.47,0,0,0-.05.26c0,.13,0,.29.15.36a.16.16,0,0,0,.09,0c0-.12-.12-.23,0-.35s0-.29.07-.41,0-.09-.07-.11S47.54,84.67,47.53,84.72Z"/><path class="cls-3" d="M56.54,89.79c0-.07.11-.14,0-.21h0a.14.14,0,0,0-.09,0,.57.57,0,0,1-.18,0l-.08,0-.21,0h-.59l.19.13c.14,0,.24,0,.22.2a.12.12,0,0,0,.07.14H56v-.1l0,0,0,0a.2.2,0,0,1,.09,0c.07,0,0,.07,0,.11s-.09.17,0,.25h.19c.14,0,.34,0,.41-.11S56.53,89.94,56.54,89.79Z"/><path class="cls-3" d="M56.72,87.33l0,.09s.08.13.15.08.06-.17,0-.26v-.07h0l-.06-.08c0-.06,0-.12-.08-.19s-.06.18-.06.27S56.7,87.28,56.72,87.33Z"/><path class="cls-3" d="M51.71,89.19c-.14,0,0,.17,0,.25h0l.07.07h0c.08,0,.11,0,.14-.07v-.06C51.79,89.34,51.85,89.14,51.71,89.19Z"/><path class="cls-3" d="M58.75,87.3a.13.13,0,0,0,.11,0A.31.31,0,0,0,59,87.2l0,0c0-.08,0-.16-.07-.21a1.07,1.07,0,0,0-.29.27A.12.12,0,0,0,58.75,87.3Z"/><path class="cls-3" d="M61,92.13c0,.08.06.11.12.14h0l.07-.06h0c0-.06,0-.13-.12-.12S61,92.1,61,92.13Z"/><path class="cls-3" d="M60.39,92.75c0,.18.11,0,.16,0h0a.14.14,0,0,0-.07-.14h0a.27.27,0,0,1-.08.07S60.39,92.73,60.39,92.75Z"/><path class="cls-3" d="M61.35,91.8c0,.15.07.08.13.06A.1.1,0,0,0,61.35,91.8Z"/><path class="cls-3" d="M60.27,92.9c-.05,0,0,.1-.08.13h0a.16.16,0,0,1-.08.06h-.06s-.09.06-.08.11,0,.05.08,0h.28c0-.08,0-.16.08-.21V93c0-.12,0-.12-.14-.07Z"/><path class="cls-3" d="M49,76l0,0a.06.06,0,0,0,0,0,.13.13,0,0,0-.15.14.09.09,0,0,0,0,.07s0,0,0,.06l.13,0A.28.28,0,0,0,49,76Z"/><path class="cls-3" d="M27.51,82.27a.09.09,0,0,0-.15,0s0,0,0,.06.1,0,.16,0Z"/><path class="cls-3" d="M23.85,96.81c0-.08-.05-.11-.13-.11v.19C23.78,96.89,23.84,96.89,23.85,96.81Z"/><path class="cls-3" d="M26.2,97.17a.51.51,0,0,1,0-.13.11.11,0,0,0-.15,0C26.07,97.12,26.1,97.17,26.2,97.17Z"/><polygon class="cls-3" points="26.07 97.04 26.07 97.04 26.07 97.04 26.07 97.04"/><path class="cls-3" d="M46.74,91.79h0a3.78,3.78,0,0,0,.21.56v.06c.22.31.22.31.23.48a.34.34,0,0,0,.36.33.21.21,0,0,0,.18-.17.21.21,0,0,0-.09-.23.07.07,0,0,0-.09,0h0a.18.18,0,0,0,.06-.17l0-.09a.26.26,0,0,0-.29-.21h0v-.1s0,0,0,0-.06-.15-.1-.21-.12-.37-.37-.37C46.71,91.67,46.69,91.72,46.74,91.79Z"/><path class="cls-3" d="M42.1,102.21a.17.17,0,0,1-.15-.06h-.07l-.07.07h0l.07.07h.17S42.14,102.27,42.1,102.21Z"/><path class="cls-3" d="M40.09,91.13c0,.31,0,.35,0,.36s.06,0,.06,0A.25.25,0,0,0,40.09,91.13Z"/><path class="cls-3" d="M25.89,94.72c-.05.1-.1.2,0,.31l0,0c.07,0,.13,0,.18,0h0a.23.23,0,0,0,.07-.07c0-.06.29,0,.07-.19s-.16.08-.21,0S25.91,94.66,25.89,94.72Z"/><path class="cls-3" d="M40.6,101.72a.11.11,0,0,0,.13-.06C40.67,101.66,40.62,101.66,40.6,101.72Z"/><path class="cls-3" d="M44.52,87.94c.07,0,.24,0,.14-.14s-.29,0-.42-.09H44v0c-.07,0-.15,0-.23,0a.5.5,0,0,0,.24,0,.14.14,0,0,1,.14.07l.07.06h.06a.24.24,0,0,0,.2,0Z"/><path class="cls-3" d="M46,89.72l0,0a.35.35,0,0,1-.12-.19.32.32,0,0,0,0-.09.32.32,0,0,0-.25-.24h0a.16.16,0,0,0-.14.07l.22.41c.06.06,0,.15.07.21h0l.08.06C45.91,90,46,89.87,46,89.72Z"/><path class="cls-3" d="M42.25,87.92h0l.07-.07v0l-.06-.08v-.14a.2.2,0,0,0,.21-.06c-.07,0-.13,0-.15-.12l-.08,0,0,0c-.08,0-.15-.11-.24,0h0l.06.26.06,0A.43.43,0,0,0,42.25,87.92Z"/><path class="cls-3" d="M41.05,79.29h0c0-.07,0-.15-.07-.19A.25.25,0,0,1,40.8,79c-.11.09-.09.18,0,.26v.07h.07v.06a.5.5,0,0,1,.15.26s0,.06.06.09h0c0,.09,0,.21.14.28s.07.11.15.13a.64.64,0,0,1,.08.33c0,.07,0,.16.06.22h0s0,.11.06.16.05.1.06.16a.07.07,0,0,0,.07.05A.21.21,0,0,1,42,81h0a.28.28,0,0,0,0,.09,1.41,1.41,0,0,0,.17.32l.07.11a.25.25,0,0,0,0,.07.38.38,0,0,0,.17.24c.15,0,.22.11.29.21s.16.09.19,0-.13-.29-.2-.43l-.06-.08c-.13-.14-.17-.33-.29-.48h0L42.32,81c-.07,0-.13-.1-.22-.09s.07-.12,0-.15c-.21-.21-.34-.49-.61-.64h0a.54.54,0,0,0-.08-.35A.88.88,0,0,0,41.05,79.29Z"/><path class="cls-3" d="M66.7,104.62c0-.16-.1-.14-.21-.13S66.6,104.62,66.7,104.62Z"/><path class="cls-3" d="M47.42,86.59c.08.09.13,0,.18,0v-.14a.11.11,0,0,1,0-.14v-.14c-.11-.06,0-.22-.14-.27C47.24,86.09,47.39,86.34,47.42,86.59Z"/><path class="cls-3" d="M53.47,91.86l.06-.07c0-.23-.17-.11-.28-.07a.16.16,0,0,1,0,.07C53.3,91.88,53.38,91.86,53.47,91.86Z"/><path class="cls-3" d="M57.6,88c.07,0,.07-.06.09-.11s-.09-.14-.15-.21-.18,0-.18.12S57.5,87.93,57.6,88Z"/><path class="cls-3" d="M57.11,89.52c0,.07.08.16.17,0l0-.09s0-.11-.06-.15h0C57.1,89.36,57.12,89.44,57.11,89.52Z"/><path class="cls-3" d="M58,88.13h0s0,0-.08,0-.12,0-.12.09,0,0,0,0,.08,0,.12,0Z"/><path class="cls-3" d="M56.67,88.49c0,.05,0,.05.07.05s.08-.05.08-.1,0-.06-.07,0A.11.11,0,0,0,56.67,88.49Z"/><path class="cls-3" d="M56.9,89.1h0c.05.06.11.1.17,0a.07.07,0,0,0,0-.11C57,89,57,89.09,56.9,89.1Z"/><path class="cls-3" d="M56,90.56a.13.13,0,0,1,0,.06h0s0,.1.07.13.07.06.12.06,0-.07,0-.12,0-.14-.07-.21h0s0,0-.05,0S56,90.53,56,90.56Z"/><path class="cls-3" d="M49.76,101.44a.15.15,0,0,0,0-.13.29.29,0,0,0,0-.09,1.4,1.4,0,0,0-.2-.56c-.06,0-.11-.08-.18,0a.08.08,0,0,0,0,.07.12.12,0,0,0,0,.15c.09.34.18.69.3,1C49.8,101.74,49.72,101.58,49.76,101.44Z"/><path class="cls-3" d="M44.13,103s0,0-.06-.06-.13,0-.13.09,0,.05.07,0S44.14,103,44.13,103Z"/><path class="cls-3" d="M35.43,98.74c0-.1-.07-.13-.15-.15s-.1,0-.1.08.09.12.18.13A.06.06,0,0,0,35.43,98.74Z"/><path class="cls-3" d="M45.25,87.51H45.1v.07a.46.46,0,0,1,.07.07l.21.14a.1.1,0,0,0,0-.14A.27.27,0,0,0,45.25,87.51Z"/><polygon class="cls-3" points="45.38 87.79 45.38 87.79 45.38 87.79 45.38 87.79"/><path class="cls-3" d="M44.31,85.65h0c.15,0,.21,0,.15-.14h0C44.36,85.52,44.31,85.56,44.31,85.65Z"/><path class="cls-3" d="M43.73,84.49c0,.14.15.18.22.26s.14.23.28.3c0-.12-.07-.2-.06-.3a.09.09,0,0,0,0-.13h0c-.17-.06-.17-.25-.29-.34h0a.46.46,0,0,1-.07-.07h0a.47.47,0,0,0-.06-.09.13.13,0,0,0-.09-.05c-.16.14,0,.27,0,.41Z"/><path class="cls-3" d="M43,84.76h.1s0,0,.05,0-.16-.15-.14-.27l-.08-.07C42.71,84.56,42.92,84.64,43,84.76Z"/><path class="cls-3" d="M45.31,87.93l-.21-.1a.13.13,0,0,0-.15,0c0,.06.07.07.09.12S45.28,88.17,45.31,87.93Z"/><path class="cls-3" d="M47,90.54,47,90.47a.09.09,0,1,0,.07.07Z"/><path class="cls-3" d="M47.53,88.61a2.52,2.52,0,0,0,0,.55l.14-.06a1.48,1.48,0,0,1,0-.21C47.55,88.83,47.64,88.68,47.53,88.61Z"/><path class="cls-3" d="M47.67,88.27a.06.06,0,0,1-.06,0c-.12.11,0,.13.06.14S47.73,88.32,47.67,88.27Z"/><path class="cls-3" d="M43.07,82.72a.08.08,0,0,0,0-.07c0-.05,0-.08-.09-.1s-.21-.25-.36-.34c0,.16.07.28.14.41l.07.06h0A.19.19,0,0,0,43.07,82.72Z"/><path class="cls-3" d="M40.37,78.56c.07.11.15.22.22.34.07,0,.08-.09.09-.16s-.07-.27-.22-.34S40.33,78.47,40.37,78.56Z"/><path class="cls-3" d="M52.25,105.11a.12.12,0,0,0-.08-.06l-.23-.07c-.13,0-.26-.12-.39,0s-.14,0-.16,0,.06.07.07.12a1.73,1.73,0,0,0,.5.07C52.06,105.16,52.17,105.21,52.25,105.11Z"/><path class="cls-3" d="M55.47,105.86c0,.06.09.07.15.08h0s0-.07.07-.07h.13l.08.06h0c.08-.05.07-.13.07-.2l-.28-.08c-.16-.07-.31-.19-.5-.08v0l0,0h0s-.09,0-.12,0,0,.14,0,.21h.14A.26.26,0,0,1,55.47,105.86Z"/><path class="cls-3" d="M56.47,105.8v.13h.2a.15.15,0,0,0,.16,0h0a1,1,0,0,0,.15-.14h0l.08-.07h0c0-.07,0-.1-.09-.08S56.61,105.66,56.47,105.8Z"/><path class="cls-3" d="M57.05,106a1.71,1.71,0,0,0,.64.07c0-.08,0-.1-.07-.14h-.21s-.11,0-.15-.06h-.07C57.16,105.93,57,105.86,57.05,106Z"/><path class="cls-3" d="M69.7,100.4l-.07,0a.15.15,0,0,0-.14,0l-.43.2-.07.07c-.11.08-.25,0-.36.06h-.21c-.06,0-.12,0-.14.06h0c-.11,0-.17.14-.29.13l-.08.07h-.07l-.07.07a.14.14,0,0,1-.15.06l-.35.07c-.09.05-.21,0-.28.07h0c-.13.19-.42.09-.55.28a.54.54,0,0,0,.56-.07.41.41,0,0,1,.27-.07h0c.07-.06.15,0,.22,0l.09,0c.1-.05.19-.12.32-.07s.18-.07.23-.16.31-.09.44-.2a.17.17,0,0,0,.15-.06.51.51,0,0,0,.34-.08.11.11,0,0,1,.15,0h.06a.55.55,0,0,1,.38,0,1.17,1.17,0,0,0,.55-.19h-.07c-.1,0-.1-.13-.13-.21h0s0,0,0-.06-.12-.08-.19,0A.24.24,0,0,1,69.7,100.4Z"/><path class="cls-3" d="M56.11,105.8h0a.18.18,0,0,0,.29,0,.23.23,0,0,0-.07-.07,0,0,0,0,0,0,0,0,0,0,0,0-.05,0h-.07Z"/><path class="cls-3" d="M56.65,101.79s0,.07.07.08h.1v-.06l-.06,0S56.67,101.73,56.65,101.79Z"/><path class="cls-3" d="M58.13,106c-.06,0-.11-.06-.16,0v.07H58c.08,0,.17,0,.22-.06Z"/><path class="cls-3" d="M41.73,80.14c.08.08.12.21.27.24,0-.17-.07-.27-.12-.38h-.06C41.75,80,41.74,80.08,41.73,80.14Z"/><path class="cls-3" d="M50.18,91.3h0a0,0,0,0,0,0,0s0,0,0,0,0,0,.07,0,.25,0,.34-.06a.86.86,0,0,0-.14-.13C50.21,91.08,50.21,91.08,50.18,91.3Z"/><path class="cls-3" d="M52.13,91.26s.07,0,.12,0v-.1c0-.06,0-.14-.09-.12S52.1,91.2,52.13,91.26Z"/><path class="cls-3" d="M57.26,89.93l.14.07s0,0,0-.06a.33.33,0,0,0-.09-.21C57.14,89.74,57.28,89.86,57.26,89.93Z"/><path class="cls-3" d="M59.47,93.16a.62.62,0,0,0,.46-.07.35.35,0,0,1-.31-.13h-.07C59.53,93,59.44,93.06,59.47,93.16Z"/><polygon class="cls-3" points="58.94 90.81 58.95 90.79 58.93 90.79 58.94 90.81"/><path class="cls-3" d="M67.42,97.44c-.06,0-.09.07-.07.13s.09,0,.14,0S67.53,97.43,67.42,97.44Z"/><path class="cls-3" d="M44.32,105s0,0,0,.06.14.34.21.5a.35.35,0,0,0,.14.2c.1-.08.06-.19.08-.29a1.83,1.83,0,0,1-.07-.53c0-.11-.1-.19-.16-.28h-.06C44.45,104.83,44.47,105,44.32,105Z"/><path class="cls-3" d="M47.74,95.6h-.11c-.06,0-.13,0-.14.06s.06.06.1.08l.09,0C47.76,95.74,47.75,95.67,47.74,95.6Z"/><path class="cls-3" d="M45.59,103.46l-.28-.08C45.38,103.54,45.42,103.55,45.59,103.46Z"/><path class="cls-3" d="M48.61,101.76c-.12,0-.14.08-.15.17H48.4a.06.06,0,0,0,0,.06c.13.11,0,.25,0,.37s.11-.08.18-.09a.45.45,0,0,0,.08-.27l0-.09C48.67,101.86,48.7,101.77,48.61,101.76Z"/><path class="cls-3" d="M48,92.69c-.08-.06-.05-.16-.07-.24s-.1-.1-.16,0a.33.33,0,0,0,0,.13,1.56,1.56,0,0,1,.14.48L48,92.9C48,92.83,48,92.76,48,92.69Z"/><path class="cls-3" d="M48.48,96.75h0a.46.46,0,0,1,.07.26,2,2,0,0,0,.13.58h0c.12.44.15.91.23,1.36.13.1,0,.27.14.36h0c0,.26.18.48.15.74l.06,0s0,0,0,.06a.11.11,0,0,0,.06-.13l0-.06a.31.31,0,0,0,0-.08,1,1,0,0,1,0-.17.29.29,0,0,0,0-.09,1.66,1.66,0,0,1-.11-.38.2.2,0,0,0,0-.08l0,0v0a.46.46,0,0,0,0-.2c0-.1-.05-.2-.08-.3A3.15,3.15,0,0,0,49,98a.82.82,0,0,1-.09-.34.28.28,0,0,0,0-.09.18.18,0,0,0-.05-.12h-.07a.19.19,0,0,0,0-.15,1.54,1.54,0,0,1,0-.43c0-.11,0-.23-.15-.25l0,0c-.07,0,0-.14-.12-.15A.5.5,0,0,0,48.48,96.75Z"/><path class="cls-3" d="M47.65,91.65s.07,0,.09.07a.16.16,0,0,0,.16-.06.28.28,0,0,0,.09-.19.16.16,0,0,0,0-.09,1.74,1.74,0,0,0-.11-.18l0,0c-.15.11,0,.31-.14.42h0A.07.07,0,0,0,47.65,91.65Z"/><path class="cls-3" d="M47.38,91.86v.06s0,.11.06.11.09-.06.09-.11v-.13h-.07A.1.1,0,0,0,47.38,91.86Z"/><path class="cls-3" d="M47.68,89.58a.13.13,0,0,0,0-.06c-.13.15-.05.31,0,.48A1.21,1.21,0,0,0,47.68,89.58Z"/><path class="cls-3" d="M48.1,88.34c-.07,0,0,.09,0,.14s.16,0,.16-.06S48.16,88.35,48.1,88.34Z"/><path class="cls-3" d="M50.67,104.91h0c.06,0,0,.1.09.12h0c.14-.06.21-.14.06-.26h0l-.08-.05a.16.16,0,0,0-.13.06Z"/><path class="cls-3" d="M51,94.35h0c0,.05-.18,0-.13.11s.17.06.27,0h0A.12.12,0,0,0,51,94.35Z"/><path class="cls-3" d="M52.27,93.86s0-.1,0-.14v-.06c-.13,0-.19.09-.29.13h0c-.05.07,0,.13,0,.17a.1.1,0,0,0,.1,0h0A.26.26,0,0,0,52.27,93.86Z"/><path class="cls-3" d="M57.34,90.2a.86.86,0,0,0,.1.16l.09-.16C57.47,90.11,57.4,90.11,57.34,90.2Z"/><path class="cls-3" d="M57.89,91.66c-.1-.1,0-.23-.06-.35a.13.13,0,0,1,0-.06h0s0-.08,0-.12a.86.86,0,0,1-.1-.16h0L57.6,91a.18.18,0,0,0,0,.2.13.13,0,0,1,0,.06s0,.11.07.15v.13a4.05,4.05,0,0,1,.21.9v0a.31.31,0,0,0,0,.21l0,0c.08,0,.16,0,.12-.12a.26.26,0,0,1,.09-.36.22.22,0,0,0,.06-.19C57.94,92,57.94,92,57.89,91.66Z"/><path class="cls-3" d="M48.46,90.89v-.06a.14.14,0,0,0,0-.15c0-.06-.1-.16-.15,0s0,.11-.07.15a.13.13,0,0,1,0,.06s0,0,0,.07V91C48.42,91.13,48.4,91,48.46,90.89Z"/><path class="cls-3" d="M58.2,95.45a.19.19,0,0,0-.25,0c0,.1.06.16.09.24S58.18,95.55,58.2,95.45Z"/><path class="cls-3" d="M56.68,96.77s0,.1.07.1.07-.05.07-.1a.09.09,0,0,0-.08-.09C56.68,96.68,56.68,96.73,56.68,96.77Z"/><path class="cls-3" d="M52.28,94.26c-.05,0-.09,0-.13,0a.24.24,0,0,0-.06.08c0,.05,0,0,.07,0s.16,0,.16.13-.08.13,0,.22a.88.88,0,0,0,.31-.39.83.83,0,0,1,0-.15c0-.09,0-.11-.1-.12S52.45,94.31,52.28,94.26Z"/><path class="cls-3" d="M52.1,95.72s0,0,0-.06a.46.46,0,0,1,.07-.07h0a.8.8,0,0,1,.13-.13c-.06-.07-.14,0-.21,0s-.21.37-.39.51l.12.06.2-.15S52.07,95.76,52.1,95.72Z"/><path class="cls-3" d="M51.25,100.55c-.1-.1-.19,0-.29,0C51.12,100.74,51.16,100.74,51.25,100.55Z"/><path class="cls-3" d="M53.75,100.11v0a.1.1,0,0,0-.14,0h0c0,.11-.16.23,0,.34v-.06l.06-.08a.14.14,0,0,1,.06-.13Z"/><path class="cls-3" d="M48.27,91.4h0s0,0,0,0,0,0,0,0Z"/></g></g><g id="Audio_Receiver" data-name="Audio Receiver"><path class="cls-4" d="M50.72,83.86a1.29,1.29,0,0,0-.62-.37,1.12,1.12,0,0,0-.44-.06,1.17,1.17,0,0,0-.77.31,1.68,1.68,0,0,0-.43.66,1.56,1.56,0,0,0-.1.53,1.9,1.9,0,0,0,.06.5,1.62,1.62,0,0,0,.41.72,1.21,1.21,0,0,0,.61.32,1.1,1.1,0,0,0,.41,0,1.19,1.19,0,0,0,.44-.11,1.25,1.25,0,0,0,.43-.31,1.21,1.21,0,0,0,.35-.78c0-.22-.06-.33-.14-.32s-.11.12-.17.29a3.18,3.18,0,0,1-.28.55,1.26,1.26,0,0,1-.43.38,1,1,0,0,1-.57,0,1,1,0,0,1-.58-.34,1,1,0,0,1-.18-.31,1.68,1.68,0,0,1-.11-.4,1.29,1.29,0,0,1,0-.65,1.26,1.26,0,0,1,.47-.64l.13-.07.13,0,.19-.06a1,1,0,0,1,.52.09.6.6,0,0,1,.11.06,1.19,1.19,0,0,1,.18.15l.1.13a2.33,2.33,0,0,1,.28.59c.06.15.11.24.19.25s.12-.15.1-.38A1.13,1.13,0,0,0,50.72,83.86Z"/><path class="cls-4" d="M48.71,21.32a4.16,4.16,0,0,0-.48.09c-.14,0-.17,0-.31,0H46.84l-.33,0H46.2c-.18,0-.33,0-.52,0l-.47,0h-.28l-.66-.11a.94.94,0,0,0-.51,0,.29.29,0,0,0-.19.27c0,.1.09.19.22.24a1,1,0,0,0,.48,0l.47-.08c.18,0,.3,0,.47,0a5.21,5.21,0,0,1,.55,0,3.37,3.37,0,0,0,.58,0l.48,0,.62,0h1.14l.13,0a1,1,0,0,0,.51,0,.27.27,0,0,0,.19-.27c0-.09-.09-.18-.22-.22A1.09,1.09,0,0,0,48.71,21.32Z"/><circle class="cls-4" cx="53.25" cy="21.57" r="1.03"/><path class="cls-4" d="M61.84,87.58H37.46a6.39,6.39,0,0,1-6.38-6.39V25.67a6.38,6.38,0,0,1,6.38-6.38H61.84a6.38,6.38,0,0,1,6.38,6.38V81.19A6.39,6.39,0,0,1,61.84,87.58ZM37.46,19.79a5.89,5.89,0,0,0-5.88,5.88V81.19a5.89,5.89,0,0,0,5.88,5.89H61.84a5.89,5.89,0,0,0,5.88-5.89V25.67a5.89,5.89,0,0,0-5.88-5.88Z"/><path class="cls-4" d="M61.66,82.91H38a4.26,4.26,0,0,1-4.25-4.25V27.41A4.26,4.26,0,0,1,38,23.16H61.66a4.25,4.25,0,0,1,4.25,4.25V78.66A4.25,4.25,0,0,1,61.66,82.91ZM38,23.41a4,4,0,0,0-4,4V78.66a4,4,0,0,0,4,4H61.66a4,4,0,0,0,4-4V27.41a4,4,0,0,0-4-4Z"/><path class="cls-4" d="M67.72,35.12a1.1,1.1,0,0,1,1.1,1.1v5.36a1.1,1.1,0,0,1-1.1,1.1h0"/><path class="cls-4" d="M31.23,32.43a.58.58,0,0,1-.58-.59V29.49a.58.58,0,0,1,.58-.58h0"/><path class="cls-4" d="M31.23,39.54a.59.59,0,0,1-.58-.59V34.7a.59.59,0,0,1,.58-.59h0"/><path class="cls-4" d="M31.23,45.83h0a.58.58,0,0,1-.58-.58V41a.58.58,0,0,1,.58-.58h0"/><path class="cls-5" d="M49.51,35.46,40,51.36a.86.86,0,0,0,.73,1.3H60a.85.85,0,0,0,.73-1.3L51,35.46A.85.85,0,0,0,49.51,35.46Z"/><path class="cls-4" d="M49.67,48l-.92-5.27c-.29-1.58.35-2,1.59-2s1.88.43,1.6,2L51,48Z"/><circle class="cls-4" cx="50.31" cy="49.98" r="1.37"/><circle class="cls-6" cx="63.73" cy="71.47" r="15.66"/><path class="cls-4" d="M63.73,87.47a16,16,0,1,1,16-16A16,16,0,0,1,63.73,87.47Zm0-31.32A15.32,15.32,0,1,0,79.05,71.47,15.33,15.33,0,0,0,63.73,56.15Z"/><rect x="51.63" y="69.5" width="24.2" height="3.94" rx="1.97"/><circle class="cls-6" cx="54.88" cy="71.5" r="0.63"/><circle class="cls-6" cx="56.38" cy="71.5" r="0.63"/><circle class="cls-6" cx="57.88" cy="71.5" r="0.63"/><circle class="cls-6" cx="59.38" cy="71.5" r="0.63"/><circle class="cls-6" cx="60.89" cy="71.5" r="0.63"/><circle class="cls-6" cx="62.39" cy="71.5" r="0.63"/><circle class="cls-6" cx="63.89" cy="71.5" r="0.63"/><circle class="cls-6" cx="65.39" cy="71.5" r="0.63"/><line class="cls-7" x1="72.38" y1="58.46" x2="55.25" y2="84.75"/></g></svg>