<svg xmlns="http://www.w3.org/2000/svg" xmlns:xlink="http://www.w3.org/1999/xlink" viewBox="0 0 106 106"><defs><style>.cls-1,.cls-7{fill:none;}.cls-2{fill:#fff;}.cls-2,.cls-3{stroke:#1d1d1b;stroke-width:0.75px;}.cls-2,.cls-3,.cls-7{stroke-miterlimit:10;}.cls-3,.cls-5{fill:#1d1d1b;}.cls-4,.cls-9{fill:#62bfb3;}.cls-6{clip-path:url(#clip-path);}.cls-7{stroke:#000;stroke-width:0.5px;}.cls-8{clip-path:url(#clip-path-2);}.cls-9{fill-rule:evenodd;}</style><clipPath id="clip-path"><circle class="cls-1" cx="56.34" cy="41.97" r="15.66"/></clipPath><clipPath id="clip-path-2"><rect class="cls-1" x="-0.16" y="109.85" width="106.08" height="27.76" rx="4.5"/></clipPath></defs><title>webIcons</title><g id="Icon_Buttons" data-name="Icon Buttons"><rect class="cls-2" x="53.97" y="18.79" width="4.49" height="68.51" rx="2.24"/><rect class="cls-3" x="55.46" y="32.67" width="1.37" height="7.51" rx="0.69"/><rect class="cls-3" x="55.39" y="41.89" width="1.37" height="7.51" rx="0.69"/><path class="cls-4" d="M81.16,35.46l-9.54,15.9a.85.85,0,0,0,.73,1.3H91.63a.85.85,0,0,0,.73-1.3l-9.74-15.9A.85.85,0,0,0,81.16,35.46Z"/><path class="cls-5" d="M81.32,48l-.93-5.27c-.28-1.58.36-2,1.6-2s1.88.43,1.6,2L82.66,48Z"/><circle class="cls-5" cx="81.95" cy="49.98" r="1.37"/><g class="cls-6"><rect class="cls-2" x="53.26" y="11.48" width="5.86" height="89.42" rx="2.24"/><rect class="cls-3" x="55.2" y="29.59" width="1.79" height="9.8" rx="0.69"/><rect class="cls-3" x="55.11" y="41.62" width="1.79" height="9.8" rx="0.69"/></g><path class="cls-5" d="M56.21,58a16,16,0,1,1,16-16A16,16,0,0,1,56.21,58Zm0-31.32A15.32,15.32,0,1,0,71.53,42,15.33,15.33,0,0,0,56.21,26.65Z"/><line class="cls-7" x1="64.23" y1="28.6" x2="47.1" y2="54.89"/></g><g id="Buttons"><g class="cls-8"><path class="cls-9" d="M-.25,69.38s0-.1,0-.16a.16.16,0,0,0-.19,0,1,1,0,0,1-.51.1,1.48,1.48,0,0,1,.83-.18l0,.08s0-.05,0-.09A.39.39,0,0,1,.19,69a5.18,5.18,0,0,1,1.71-.2c.1.06.21,0,.32,0a.07.07,0,0,0,.06-.08.27.27,0,0,0-.09-.12.78.78,0,0,0-.37,0c-.08,0-.06,0-.05-.07l.06,0,.14,0,.08,0h0l-.08,0H2s0,0,0-.06h.21c.28,0,.58,0,.78-.27h.07c.09,0,.23,0,.21-.15s-.12-.08-.21-.05a5.79,5.79,0,0,0-.71.21c-.11.09-.25,0-.36.07H2v.13H1.83a.25.25,0,0,0-.24.07H1.54c-.13,0-.27,0-.36.15s0,0,0,.05a.44.44,0,0,0-.2,0l-.07,0c-.1-.06-.23,0-.32-.15s-.29-.08-.44,0-.11.12,0,.2S0,68.7,0,68.76l-.2.08-.05,0h0L-.39,69h0a4.24,4.24,0,0,0-1,.21v.21c.16.23.4.22.64.2H-.6A.27.27,0,0,0-.25,69.38Z"/><path class="cls-9" d="M105.39,81.1a.1.1,0,0,0,0,.15c.1,0,.16,0,.2-.08l.29-.42v-.13C105.65,80.71,105.6,81,105.39,81.1Z"/><path class="cls-9" d="M43.1,30.87c.08.05.17.1.22,0s.09-.21.13-.31h-.36C43.2,30.64,43.11,30.75,43.1,30.87Z"/><path class="cls-9" d="M86.2,37.07c.08-.09.18-.16.09-.29s-.12-.06-.15,0S86.08,37,86.2,37.07Z"/><path class="cls-9" d="M96.89,58.58l-.08.1c.06.11.13.22.28.13l0-.05a.29.29,0,0,1,0-.09c0-.05,0-.11,0-.14A.13.13,0,0,0,96.89,58.58Z"/><path class="cls-9" d="M49.53,39.64h0c-.09-.13,0-.34-.21-.42l-.07-.07c-.09,0-.24,0-.17.12a1,1,0,0,0,.37.45C49.51,39.75,49.52,39.68,49.53,39.64Z"/><path class="cls-9" d="M103.88,82.75h0a.11.11,0,0,1-.07.06.79.79,0,0,0-.3.35l-.05,0a.09.09,0,0,0-.07.06h0l-.06.06a1.23,1.23,0,0,1-.51.42,1.9,1.9,0,0,0-.44.54l-.36.34s0,.06-.06.09h0c-.06,0,0,.1,0,.15h0l.09,0,0,0,.08-.05.08,0c.14-.12.27-.26.4-.38a5.07,5.07,0,0,1,.55-.49c.08-.1.17-.18.25-.27a.35.35,0,0,0,.07-.12.65.65,0,0,0,0-.2c.1,0,.16,0,.23-.09l.1-.1c.14-.12.21-.31.36-.43h0a.24.24,0,0,1,.12-.23.63.63,0,0,0,.25-.31c0-.07,0-.1-.09-.08l-.2.15C104.24,82.36,104,82.49,103.88,82.75Z"/><path class="cls-9" d="M48.89,32.18s-.13-.08-.11,0a1.6,1.6,0,0,0,.1.31c.1.06.12.2.27.2a0,0,0,0,1,0,0C49.07,32.52,49.1,32.29,48.89,32.18Z"/><path class="cls-9" d="M105.4,92.76h.06c0-.08-.13-.06-.21,0S105.34,92.75,105.4,92.76Z"/><path class="cls-9" d="M2,73.78H2c.08-.05.23-.06.09-.21a.45.45,0,0,1,.05-.08v-.06h0a.12.12,0,0,0-.09,0c-.06,0-.13,0-.19,0h0c-.06,0,0,.12,0,.19v0a.61.61,0,0,1-.36-.09c-.12-.07-.29.08-.44,0l0,0H.91l-.18.09c.05,0,.14,0,.17.11s.23.08.36.07h.13c.15-.11.33-.06.49-.06S1.94,73.76,2,73.78Z"/><path class="cls-9" d="M104.27,66.4c0,.1.16.11.26.14a.48.48,0,0,1,.22.2.34.34,0,0,0,.31.18l0,0v-.34c-.12,0-.26,0-.34-.11s-.23-.13-.35-.18S104.21,66.27,104.27,66.4Z"/><polygon class="cls-9" points="105.11 66.89 105.11 66.89 105.1 66.89 105.11 66.89"/><path class="cls-9" d="M105.25,67.09l.07.07c.05,0,.09.07.19,0-.14-.11-.17-.33-.4-.3C105.06,67,105.19,67,105.25,67.09Z"/><path class="cls-9" d="M105,72a.14.14,0,0,0,0,.09,1,1,0,0,1,0,.3s0,.06,0,.09.26.3-.09.3c0,0,0,0,0-.06a.07.07,0,0,0-.06-.07h0v-.07a.4.4,0,0,1-.09-.2c-.08-.07-.07-.19-.14-.28a.13.13,0,0,0-.14.14.33.33,0,0,0,0,.22.33.33,0,0,1,0,.22.13.13,0,0,1,0,.08c-.15.13-.19.24,0,.31.08-.07.15-.16.27-.14h0c0,.13.06.25.22.26,0,0,0,0,0,0a.43.43,0,0,0,.08.33,1.48,1.48,0,0,1,.2.59h0l0-.07a.24.24,0,0,0-.09-.08.11.11,0,0,0-.08,0,.16.16,0,0,0,0,.11.24.24,0,0,0,0,.08l0,.07a.76.76,0,0,1,0,.11l.06.11.09.16c0,.07.08.2.21.14l.12.1c-.09,0-.17,0-.22.1a.17.17,0,0,0,0,.07c.08,0,.16.1.27.08s0-.15,0-.22h0a.33.33,0,0,1,.21.07v-.42h-.06c0-.07,0-.15-.08-.2h0c0-.14-.09-.28-.13-.42s0-.22-.14-.28,0,0,0-.06a.06.06,0,0,1,0-.08v0a.27.27,0,0,1-.08-.22.53.53,0,0,1,0-.13c0-.11-.12-.22,0-.29s0-.23,0-.35-.09-.21-.07-.33a1.72,1.72,0,0,1-.07-.21C105.14,71.78,105.07,71.85,105,72Z"/><path class="cls-9" d="M105.56,73.07a.41.41,0,0,0,0,.09.13.13,0,0,0,.07-.14s-.06-.11-.12-.08S105.53,73,105.56,73.07Z"/><polygon class="cls-9" points="105.68 74.89 105.68 74.89 105.68 74.89 105.68 74.89"/><path class="cls-9" d="M105.75,70.8s0,0,0,0,0,0,0,0h0S105.72,70.8,105.75,70.8Z"/><path class="cls-9" d="M81.88,39.18a.47.47,0,0,1-.47,0l-.09,0-.18,0h0l0,0s-.09.08,0,.15h0c.16.08.34.12.5.21l.07.07c.15,0,.34-.06.43.13.1,0,.21,0,.3,0s.2,0,.28-.09,0-.16-.07-.23h-.07c-.13-.09-.3-.11-.42-.22A.22.22,0,0,0,81.88,39.18Z"/><path class="cls-9" d="M82.14,39.09c0,.13.1.15.2.17a.18.18,0,0,0,.1,0s.15,0,.06-.14,0,0-.07-.07h0C82.33,39,82.21,39,82.14,39.09Z"/><path class="cls-9" d="M6.55,53a.55.55,0,0,0-.08-.43c-.06,0-.13-.06-.14.06a1.18,1.18,0,0,0,.08.49C6.49,53.08,6.54,53.05,6.55,53Z"/><path class="cls-9" d="M6.48,50.26c-.14-.07,0-.24-.15-.38v.52c0,.11.08.09.15.07Z"/><path class="cls-9" d="M11.65,44.16a.78.78,0,0,0,0-.22,1.07,1.07,0,0,0-.15-.37.17.17,0,0,0-.1,0c-.06,0-.07.06-.1.1h0l.21.83C11.68,44.44,11.63,44.28,11.65,44.16Z"/><path class="cls-9" d="M11.85,45.62a.4.4,0,0,0-.08-.47l-.15-.07a1.48,1.48,0,0,0,.09.69.21.21,0,0,1,.07.13C11.88,45.83,11.83,45.71,11.85,45.62Z"/><path class="cls-9" d="M12.41,51.71h0c-.23,0-.24,0-.14.21l.07.06h0C12.53,51.93,12.45,51.81,12.41,51.71Z"/><path class="cls-9" d="M10.34,31.27v.56c.1-.07.06-.18.07-.27s0-.2.07-.27a.17.17,0,0,0,0-.21C10.35,31.09,10.34,31.17,10.34,31.27Z"/><path class="cls-9" d="M20,33.43a2.26,2.26,0,0,1,0,.26l.07.07a.2.2,0,0,0,.14-.13h0s-.05-.05-.08-.06h0a.08.08,0,0,1,0-.13c.07,0,.07-.1,0-.14S20,33.33,20,33.43Z"/><path class="cls-9" d="M18.49,32.45s0,0,0-.06h0l0,0s0,.09,0,.11S18.49,32.48,18.49,32.45Z"/><path class="cls-9" d="M14.64,34.31c0,.07,0,.13.09.12a.12.12,0,0,0,.11-.14c0-.07,0-.14-.12-.13S14.64,34.25,14.64,34.31Z"/><path class="cls-9" d="M102.46,63.51v.06a.68.68,0,0,1,.22.35.12.12,0,0,0,.13-.13h0a.1.1,0,0,1,0-.14.35.35,0,0,0-.07-.2s-.1,0-.14-.07a.08.08,0,0,0-.08,0S102.5,63.47,102.46,63.51Z"/><path class="cls-9" d="M103,64.4a.17.17,0,0,0,.15-.07s0,0,0-.06a.49.49,0,0,1-.13-.15h0C102.83,64.21,102.92,64.31,103,64.4Z"/><path class="cls-9" d="M98,61V61c-.18-.17-.19-.17-.29,0v0a.12.12,0,0,0,.05,0l.06,0,.07,0h0Z"/><path class="cls-9" d="M96.67,59.85c0,.06,0,.08.06.08l.23.24s.09.09.15.06,0-.12.06-.18a3.31,3.31,0,0,0-.5-.41C96.58,59.71,96.69,59.78,96.67,59.85Z"/><path class="cls-9" d="M101.46,60.47a.18.18,0,0,1,0,.1h0a.09.09,0,0,0-.08,0c-.15,0-.11-.2-.25-.18s.07.29,0,.45v0l0,.12a.25.25,0,0,0,0,.07.28.28,0,0,0,.11.13c.31,0,0-.27.2-.33s.08.08.12.12l0,0,.08.06a.15.15,0,0,0,.17,0,.08.08,0,0,0,0-.08,0,0,0,0,1,0-.06l0-.07a.17.17,0,0,0,0-.15.43.43,0,0,0,0-.05l0-.07a.15.15,0,0,0-.1-.09c.06-.05.11-.1.07-.19h0a.27.27,0,0,0-.07-.08h0C101.58,60.25,101.47,60.29,101.46,60.47Z"/><path class="cls-9" d="M100.32,104.9l-.12.07c-.14.09-.13.11,0,.21a.57.57,0,0,1,.28-.08c.21-.11.08-.22,0-.33h0Z"/><path class="cls-9" d="M3.84,69.31a.53.53,0,0,0,0,.13.15.15,0,0,0,.21,0H4C4,69.3,3.94,69.29,3.84,69.31Z"/><path class="cls-9" d="M11.7,73l0,0a.13.13,0,0,0,.17,0c0-.06,0-.09-.07-.12h0c-.08,0-.17,0-.22,0S11.68,73,11.7,73Z"/><path class="cls-9" d="M10.55,72.43l-.05,0a.05.05,0,0,0,.05.07.07.07,0,0,0,0,0S10.59,72.44,10.55,72.43Z"/><path class="cls-9" d="M9.26,67.71c.05,0,.12,0,.07-.14-.25-.1-.34-.06-.35.14h.28Z"/><path class="cls-9" d="M3.12,73.57a2,2,0,0,0,.64-.06.69.69,0,0,1,.51,0c.06,0,.14,0,.21,0a2.75,2.75,0,0,1,.81.06.22.22,0,0,0,.26-.06h.21a.13.13,0,0,1,0-.06h.5c.12,0,.08-.08.06-.14a1.58,1.58,0,0,1-.37,0,.8.8,0,0,0-.57,0H5.26l-.14,0H5c0-.09,0-.18-.15-.07a1.52,1.52,0,0,1-.2.06c-.17,0-.28,0-.3-.19-.07,0-.14-.26-.21,0,.08.14.1.24-.12.25l-.17,0c-.24-.08-.48,0-.72,0A.17.17,0,0,0,3.12,73.57Z"/><path class="cls-9" d="M54.1,39.57s0,0,0-.08L54,39.43c-.13,0-.15,0-.08.13h0c.06.09,0,.19,0,.29s-.08.35.06.51.15.1.24,0a.43.43,0,0,1,0,0c-.05-.12,0-.25-.05-.36a.17.17,0,0,1,0-.07c-.09-.1,0-.24-.07-.34Z"/><path class="cls-9" d="M50,34.81c-.11,0-.2-.12-.34-.09a.46.46,0,0,0,.07.36,1.23,1.23,0,0,1,0,.47c0,.07,0,.15.08.17s.15-.07.17-.14A1.55,1.55,0,0,0,50,34.81Z"/><path class="cls-9" d="M79,34.32c0,.06-.09.11,0,.18a.09.09,0,0,0,.15,0c0-.05.1-.12.06-.18s-.12,0-.18,0Z"/><path class="cls-9" d="M79.8,37.7h.06c.15,0,.33.06.42-.13h0l-.07,0a.11.11,0,0,1-.07,0h0A.31.31,0,0,0,79.8,37.7Z"/><path class="cls-9" d="M81.72,39c.07,0,.16,0,.22,0s0-.07-.08-.1S81.63,38.83,81.72,39Z"/><path class="cls-9" d="M5.61,104.93c0-.12-.13,0-.2,0v.26C5.57,105.17,5.65,105.07,5.61,104.93Z"/><path class="cls-9" d="M5.49,101.85l0-.07-.14-.08s0,0-.08,0h0a.14.14,0,0,0-.06.13l.07.08.07.06a.17.17,0,0,0,.21,0A.1.1,0,0,0,5.49,101.85Z"/><path class="cls-9" d="M2.89,100.49h0a.15.15,0,0,0-.21,0h0v.12h0s0,0,.08.06S3,100.64,2.89,100.49Z"/><path class="cls-9" d="M99.82,94c.1,0,.2,0,.2-.13h-.2Z"/><path class="cls-9" d="M99.81,93.3h-.07a.31.31,0,0,0-.12.43c.17,0,.17-.22.32-.23a.14.14,0,0,0,0-.06c.09-.08.13-.18,0-.25S99.83,93.21,99.81,93.3Z"/><path class="cls-9" d="M102.29,68a.13.13,0,0,0,0,.08l.1.08c.06,0,.09.12.18.1h.14a.68.68,0,0,1-.08-.34l0,0c-.1-.11-.19-.08-.28,0A.36.36,0,0,0,102.29,68Z"/><path class="cls-9" d="M104,68.12c.08,0,.14.08.22,0s.23,0,.25.14.11,0,.16,0l.08-.07a.17.17,0,0,1,.14-.07,2.09,2.09,0,0,0,0-.25l-.12,0c-.21-.13-.39,0-.58.07S103.91,68,104,68.12Z"/><path class="cls-9" d="M103.25,67.71h0s.07,0,.12,0,0-.12.09-.16h0s0-.09,0-.14h-.2A.2.2,0,0,0,103.25,67.71Z"/><path class="cls-9" d="M54.18,32.31a1.34,1.34,0,0,1,0-.2v-.06c0-.12,0-.23,0-.35A.63.63,0,0,0,54.18,32.31Z"/><path class="cls-9" d="M105.18,74.74c.14,0,.09-.06.07-.13S105.14,74.67,105.18,74.74Z"/><path class="cls-9" d="M94.85,48.53c.13.1.17-.07.26-.11l0,0c.11-.16,0-.17-.12-.18a.2.2,0,0,1-.15.06C94.83,48.35,94.74,48.45,94.85,48.53Z"/><path class="cls-9" d="M102.45,64.27h-.06c-.09,0-.07.14-.08.21s0,.23,0,.34.1.18.12.28a.12.12,0,0,0,.08,0c.14,0,.23-.09.15-.24h0a.15.15,0,0,1,0-.21l.06-.07c0-.08,0-.16-.07-.21S102.52,64.33,102.45,64.27Z"/><path class="cls-9" d="M101.38,63.74c-.07-.06-.18-.14-.22,0l.22.28c.13,0,.29.08.29-.14h0A1.08,1.08,0,0,1,101.38,63.74Z"/><path class="cls-9" d="M101.39,64.4a.15.15,0,0,0,0,.07c.07,0-.06.22.13.21h0v-.23C101.52,64.34,101.45,64.38,101.39,64.4Z"/><path class="cls-9" d="M100.1,62.81c.17.09.14,0,.14-.12S100.09,62.71,100.1,62.81Z"/><path class="cls-9" d="M98.17,61.37c0,.18.17,0,.22.13a.14.14,0,0,0,.06-.13.21.21,0,0,0-.28,0Z"/><path class="cls-9" d="M95.1,58.25l.11.1,0,0h0s0,0-.06,0,.06.24.19.32l.15.07,0,.06s0,.09.09.14a1.19,1.19,0,0,0,.22.23l.16.16.07,0,.08,0c.15,0,.17,0,.11-.16s-.1-.12-.15-.18a.53.53,0,0,1-.14-.28.27.27,0,0,1-.21-.15.84.84,0,0,0-.29-.27l-.15-.13c0-.11-.12-.16-.2-.22S95.09,58.17,95.1,58.25Z"/><path class="cls-9" d="M103.83,66h0l.07.08.07.07s.06.11.14.07l.07-.07c0-.09-.14-.16-.15-.27l-.07-.07A.18.18,0,0,0,103.83,66Z"/><path class="cls-9" d="M103.63,65.77a.29.29,0,0,0-.17-.37C103.47,65.54,103.46,65.68,103.63,65.77Z"/><path class="cls-9" d="M.48,73.62s0,0-.08,0-.05,0-.07,0a.17.17,0,0,0,.1,0Z"/><path class="cls-9" d="M5.26,68.61a1,1,0,0,0-.8.2,2,2,0,0,0,.8-.13S5.29,68.64,5.26,68.61Z"/><path class="cls-9" d="M7.25,73.23l-.06-.06a.15.15,0,0,0-.15.06l0,.13a.36.36,0,0,0,.2-.06S7.25,73.26,7.25,73.23Z"/><path class="cls-9" d="M9.65,73.1c.18.07.2-.09.32-.17a.61.61,0,0,0-.34,0h0C9.64,73,9.53,73.05,9.65,73.1Z"/><path class="cls-9" d="M10.86,73a.11.11,0,0,0-.13.09s0,.08.09.07A.12.12,0,0,0,11,73S10.9,73,10.86,73Z"/><path class="cls-9" d="M10,67.27a.11.11,0,0,0-.12,0,.93.93,0,0,0-.36.14l.09.08.31,0A.11.11,0,0,0,10,67.27Z"/><path class="cls-9" d="M11.52,67.36l.32,0,.14-.15c0-.19-.17,0-.21-.13h-.06C11.72,67.22,11.64,67.28,11.52,67.36Z"/><path class="cls-9" d="M4,83.17s0-.08,0-.09a.25.25,0,0,0-.37.08h0a.47.47,0,0,0,.35,0Z"/><path class="cls-9" d="M7.26,77.85c0,.2-.27.28-.28.49a.23.23,0,0,0-.07.07s0,0,0,.06.14-.06.22-.06.17-.13.24-.22l.07-.11a.08.08,0,0,0,0-.08c0-.08.12-.18,0-.24S7.33,77.83,7.26,77.85Z"/><path class="cls-9" d="M8.19,76.48h0a.11.11,0,0,1-.15,0H8c0,.14,0,.29-.07.42a.46.46,0,0,0-.07.07c-.06.08,0,.13.07.13H8a.1.1,0,0,0,0,0l0,0,.05,0,0,0,.06,0,0-.06s.11-.09.07-.17v-.2s0,0,0,0A.06.06,0,0,0,8.19,76.48Z"/><polygon class="cls-9" points="8.26 76.47 8.26 76.48 8.26 76.48 8.26 76.47"/><path class="cls-9" d="M78,38.26l-.11.06c-.08.09-.08.16,0,.2s.38.06.61,0c-.16,0-.29-.07-.26-.23h0a.15.15,0,0,0-.13,0,.12.12,0,0,0-.08,0Z"/><path class="cls-9" d="M77.09,36.61c0,.08,0,.11.1.12s.15,0,.15-.1,0-.1-.14-.1A.1.1,0,0,0,77.09,36.61Z"/><path class="cls-9" d="M79.07,37.67v0l-.14-.08h-.06c0,.11,0,.22.14.2l.07-.07Z"/><path class="cls-9" d="M3.79,105.89c-.06-.1-.15-.13-.25,0h0a.23.23,0,0,1,.07.07.23.23,0,0,0,.07.07C3.74,106,3.84,106,3.79,105.89Z"/><path class="cls-9" d="M99.11,80.32l.06,0s.13,0,.11-.09a.11.11,0,0,0-.14-.08C99.07,80.19,99.1,80.27,99.11,80.32Z"/><path class="cls-9" d="M95.72,84.88a.57.57,0,0,1-.13.08.56.56,0,0,0-.36.07c0,.19,0,.19.22.14l.14-.08L96,85s.11,0,.14-.07h0C96,84.76,95.87,84.84,95.72,84.88Z"/><path class="cls-9" d="M101,85.59c.06.17.17.1.28.06l0-.2-.09-.08-.06,0C101.17,85.48,101.07,85.51,101,85.59Z"/><path class="cls-9" d="M99.38,87.06a.42.42,0,0,1-.27.18c-.09.18-.34.12-.44.28a1.21,1.21,0,0,0-.43.47l-.79.63c-.06.07,0,.13,0,.16s.25-.09.35-.19a1.78,1.78,0,0,1,.6-.41,2.16,2.16,0,0,0,.25-.27c.08-.09.2-.14.27-.23a.32.32,0,0,1,.1-.1.86.86,0,0,0,.38-.35,1,1,0,0,0,.36-.41c0-.06,0-.09-.08-.07A1.28,1.28,0,0,0,99.38,87.06Z"/><path class="cls-9" d="M98.83,91.46c0,.06,0,.13-.09.16a.13.13,0,0,0-.12.12.24.24,0,0,0,0,.08.75.75,0,0,0,0,.16l0,.08,0,.08c.08.12.1.28.27.34a.17.17,0,0,0,.08-.14c0-.18-.16-.36,0-.55a.41.41,0,0,1-.07-.28s0,0,0-.06h0C99,91.35,98.89,91.33,98.83,91.46Z"/><path class="cls-9" d="M99.17,90.2v-.13C99.09,90.11,99.09,90.16,99.17,90.2Z"/><path class="cls-9" d="M99.39,94.07h0a.16.16,0,0,0-.24,0C99.23,94.09,99.31,94.05,99.39,94.07Z"/><path class="cls-9" d="M102.67,65.51h.07c0-.06,0-.14,0-.15s.1,0,.14.09l0,0c.12,0,.12-.11.2-.14v-.07l-.05-.05c-.14-.09-.28-.18-.43,0A.3.3,0,0,0,102.67,65.51Z"/><path class="cls-9" d="M103.68,66.82h.06l.08-.06c.06,0,.07-.1,0-.14s-.14,0-.19,0S103.54,66.8,103.68,66.82Z"/><path class="cls-9" d="M103.28,66.15s0,0,.06,0,0-.16,0-.24A.15.15,0,0,0,103.28,66.15Z"/><path class="cls-9" d="M103.52,69.17a.83.83,0,0,0,.36.48c.08,0,.16.21.22,0-.16-.27-.2-.6-.43-.83-.12-.08-.23,0-.35,0C103.27,69,103.45,69.06,103.52,69.17Z"/><path class="cls-9" d="M67.9,34.51a.63.63,0,0,0-.11.12l0,0c-.07.09-.16,0-.24,0s-.2,0-.24.1l.06.07a.18.18,0,0,0,.2,0,.19.19,0,0,1,.22.06A.19.19,0,0,0,68,35h0c0,.16.19.11.3.12s.21,0,.29.06-.1.1-.1.17a.08.08,0,0,0,0,.07c.06,0,.14,0,.2,0h0c.21.1.17-.16.29-.2v.06l.07-.07h0c.16-.08.29.13.44,0l0,0a.24.24,0,0,0,.22.05h.58c-.14-.19-.35-.07-.46-.2h0c-.08-.1-.2-.06-.3-.07s-.18-.1-.22-.2-.08,0-.11,0l0,.08c0,.07-.09,0-.15,0l-.09,0a1.27,1.27,0,0,1-.28-.06c-.18,0-.34-.15-.54-.11a0,0,0,0,0,0-.05c-.09-.06-.11-.18-.22-.23Z"/><path class="cls-9" d="M9.55,66.26h0c-.07-.08-.28-.13-.06-.28h0a.11.11,0,0,1-.06-.07.13.13,0,0,1,0-.06.49.49,0,0,0-.27-.1.16.16,0,0,0-.09,0,.12.12,0,0,0-.14.13c.15,0,.3.07.29.28s.07.12.13.15S9.5,66.34,9.55,66.26Z"/><path class="cls-9" d="M104.09,71.38c.1,0,.08-.14.08-.22a.12.12,0,0,0-.14.14Z"/><path class="cls-9" d="M104.17,70.82a.12.12,0,0,0,.07-.14s-.08-.05-.11,0S104.12,70.78,104.17,70.82Z"/><path class="cls-9" d="M104.28,71.22l.18.29h.05a.06.06,0,0,0,0-.08V71.3c-.07,0,0-.15-.08-.2h-.06C104.32,71.11,104.23,71.12,104.28,71.22Z"/><path class="cls-9" d="M105,73.77c.09,0,.12,0,.12-.12l-.07-.11s0-.07-.07-.07-.06.06-.06.1S105,73.7,105,73.77Z"/><path class="cls-9" d="M95.1,50h.06c.2.05.15-.14.21-.21v-.05C95.1,49.71,95.1,49.71,95.1,50Z"/><path class="cls-9" d="M17.14,49.84h0c-.13,0-.13.06-.08.14h0c.05,0,0,.11.06.15l.24.47a.14.14,0,0,1,.06.14l.14.07s0,.08,0,.13.06-.09,0-.13V50.6a5.24,5.24,0,0,1-.28-.69S17.17,49.89,17.14,49.84Z"/><path class="cls-9" d="M31.88,48c0,.06.05.07.11.07s.07,0,.06-.07a.09.09,0,0,0-.08-.09S31.88,47.92,31.88,48Z"/><path class="cls-9" d="M45.66,36.88l-.07-.14c-.16-.09-.15.07-.21.13s-.13.17,0,.18S45.65,37.05,45.66,36.88Z"/><path class="cls-9" d="M100,65a.15.15,0,0,0,.07-.14h0l-.06-.08-.07-.13c-.12-.18-.34-.12-.5-.2s-.07.07-.07.13.3.1.42.21h0a.1.1,0,0,0,.06.09h0l0,0c0,.05.1,0,.13.08Z"/><path class="cls-9" d="M99.71,65.13s.06,0,.07-.06,0-.09-.08-.1-.1,0-.09.07A.12.12,0,0,0,99.71,65.13Z"/><path class="cls-9" d="M99,64.27a.38.38,0,0,0,.1,0,.08.08,0,0,0,0-.09s0-.06-.08,0,0,.06,0,.09Z"/><path class="cls-9" d="M92.41,100.93c0,.06,0,.09.1.09s.06,0,.07,0a.09.09,0,0,0-.11-.1S92.43,100.92,92.41,100.93Z"/><path class="cls-9" d="M91.31,101.64h0a.25.25,0,0,0,.08-.19C91.29,101.46,91.29,101.54,91.31,101.64Z"/><path class="cls-9" d="M6.62,64.54l-.08-.07a.45.45,0,0,0-.13-.1.11.11,0,0,0-.08,0v.14a.13.13,0,0,1,0,.06l.13.08C6.57,64.67,6.7,64.71,6.62,64.54Z"/><path class="cls-9" d="M20,68.94c.08,0,.11-.12,0-.2s-.16,0-.22-.06h0a.38.38,0,0,0,0,.48l.07-.07C19.85,69,19.91,69,20,68.94Z"/><path class="cls-9" d="M14.7,66.88h0s.11,0,.15-.06h.21a.75.75,0,0,0,.65-.33c.12-.19,0-.15-.14-.15-.32.11-.71-.07-1,.21a2.13,2.13,0,0,1-.35.14,1.89,1.89,0,0,0-.21.09l0,0c.11.13.26.09.39,0A.42.42,0,0,1,14.7,66.88Z"/><path class="cls-9" d="M48.68,45.58c0,.16.14.21.32.25a.85.85,0,0,0-.16-.33.1.1,0,0,0-.12,0S48.67,45.53,48.68,45.58Z"/><path class="cls-9" d="M56.64,37.73a.12.12,0,0,0-.18,0c-.11.11.06.13.09.2h0C56.61,37.86,56.71,37.83,56.64,37.73Z"/><path class="cls-9" d="M56.32,37.22c-.12-.08,0-.24-.14-.4v.41c0,.05,0,.12.1.1S56.32,37.26,56.32,37.22Z"/><path class="cls-9" d="M56.26,36.19v-.08h-.12a.16.16,0,0,0,0,.23h0S56.21,36.22,56.26,36.19Z"/><path class="cls-9" d="M49,52.51c.05.08.12.11.2,0s.08-.17.15-.16.18-.13.26-.19-.17,0-.27-.06h0s0,0-.07.06a1.23,1.23,0,0,0-.25.14A.13.13,0,0,0,49,52.51Z"/><path class="cls-9" d="M48.66,47c0-.1-.13,0-.2,0l.07.13C48.62,47.08,48.7,47.05,48.66,47Z"/><path class="cls-9" d="M44.75,42.57c-.14,0-.14.08-.15.17a2.82,2.82,0,0,0-.57.15.15.15,0,0,1-.14.06c-.15.1-.29,0-.44,0s-.06.13-.07.2l.08.08.42-.15H44c.17.08.33,0,.49,0a.14.14,0,0,0,0-.06,3.16,3.16,0,0,1,.68-.14c.18,0,.35-.19.3-.27s-.23,0-.34,0Z"/><path class="cls-9" d="M44.89,42.25h-.14C44.8,42.33,44.85,42.32,44.89,42.25Z"/><path class="cls-9" d="M41.52,43.36l-.07.08c-.13,0-.31.13-.4-.09l-.1.08s0,.09,0,.14a.12.12,0,0,0,0,.13h.28a.23.23,0,0,1,.22-.13h.22l0-.09c0-.07,0-.13,0-.17S41.56,43.31,41.52,43.36Z"/><path class="cls-9" d="M42.31,42.81h0a0,0,0,0,0,0,.06c.09.08.19,0,.28,0C42.55,42.65,42.42,42.77,42.31,42.81Z"/><path class="cls-9" d="M43.64,42.74s0,0,0,0l-.05,0s0,.05,0,.05A0,0,0,0,0,43.64,42.74Z"/><path class="cls-9" d="M47.25,38.66c.08,0,.07-.11,0-.19C47.1,38.49,47.21,38.58,47.25,38.66Z"/><path class="cls-9" d="M43.87,40.18V40h-.2c-.05,0-.11,0-.11.12a.1.1,0,0,0,0,.07h0A.19.19,0,0,0,43.87,40.18Z"/><path class="cls-9" d="M41.89,42a.39.39,0,0,0,.06.26l0,0a.34.34,0,0,0,.17-.05l.08,0h0c.07-.08.19-.15.06-.27a.53.53,0,0,0-.21.11C42,42.12,42,42,41.89,42Z"/><path class="cls-9" d="M45.77,37.37c-.07-.11-.16,0-.24,0s0,.23.13.27S45.84,37.49,45.77,37.37Z"/><path class="cls-9" d="M60.35,37.21c.07.06,0,.17.12.21l0-.06c0-.08,0-.17,0-.26A.12.12,0,0,0,60.35,37.21Z"/><path class="cls-9" d="M75.42,37.36s-.1.06-.1.13a.22.22,0,0,0,.11.14c.12.06.19-.13.23-.1s.14-.06.2-.11h0c-.08-.06-.2,0-.29-.06h-.14Z"/><path class="cls-9" d="M75.5,36.19s.1,0,.1-.08a.09.09,0,0,0-.1-.11c-.09,0-.17,0-.27,0A.3.3,0,0,0,75.5,36.19Z"/><path class="cls-9" d="M5.41,99.42l-.09-.1c-.09.07-.05.18-.07.27h0a.16.16,0,0,1,0,.07.11.11,0,0,0,0,.07h0C5.6,99.61,5.61,99.59,5.41,99.42Z"/><path class="cls-9" d="M96.39,83.93V84c0,.08.09.15.2.07h0C96.59,83.92,96.5,83.9,96.39,83.93Z"/><path class="cls-9" d="M97.82,87.87c.15-.2.37-.36.42-.63a1.61,1.61,0,0,0-.5.35C97.73,87.69,97.65,87.81,97.82,87.87Z"/><path class="cls-9" d="M94.52,85.44l.07-.06v-.15h-.15C94.41,85.32,94.32,85.43,94.52,85.44Z"/><path class="cls-9" d="M97,83.59a.32.32,0,0,0-.27.06c0,.2.12.1.21.07Z"/><path class="cls-9" d="M94.15,81a.12.12,0,0,0-.06-.13c-.09.05-.16.14-.29.14l.07.14C94,81.13,94.08,81,94.15,81Z"/><path class="cls-9" d="M97.67,97.72h0s.09,0,.13,0l.08-.07c0-.13,0-.21-.2-.12S97.67,97.66,97.67,97.72Z"/><path class="cls-9" d="M73.31,36.24c0,.08.08.09.11.14a.14.14,0,0,0,.21,0c.09-.11,0-.14-.07-.2h-.07C73.43,36.2,73.34,36.16,73.31,36.24Z"/><path class="cls-9" d="M68.61,34.74l.09.07c.1,0,.21,0,.21-.14a.47.47,0,0,0-.28-.07S68.59,34.69,68.61,34.74Z"/><path class="cls-9" d="M73.78,36.47c.09.26.14,0,.2,0l0-.06c0-.07,0-.14-.12,0A.73.73,0,0,0,73.78,36.47Z"/><path class="cls-9" d="M102.39,67.23c0,.15.11.13.21.14h0a.12.12,0,0,0,0-.15l-.08,0C102.45,67.13,102.41,67.17,102.39,67.23Z"/><path class="cls-9" d="M102.13,67.26c-.18,0-.37,0-.32.25h0c.09.07.21,0,.29.06h0l.06.07h0l.13,0s.15.06.15-.06-.06-.09-.12-.09a.14.14,0,0,1-.16-.14Z"/><path class="cls-9" d="M102.25,68.19a.2.2,0,0,0-.15-.07s0,.07-.08,0,0,0,0-.08,0-.07,0-.1,0,0-.08-.06-.12-.14-.17-.21-.09-.08-.15,0a.12.12,0,0,0,0,.16.64.64,0,0,1,.2.49h0a.14.14,0,0,0,.11,0c.06,0,.07.07.1.1s0-.2.21-.17S102.29,68.23,102.25,68.19Z"/><path class="cls-9" d="M71,37s0-.07-.06-.07-.12.05-.15.12a.43.43,0,0,1,0,0l0,0s0,0,0,0S71,37.06,71,37Z"/><path class="cls-9" d="M9.55,64.71a.06.06,0,0,0-.06.06c0,.09,0,.1.12.11l0,0S9.63,64.71,9.55,64.71Z"/><path class="cls-9" d="M104.39,72.54l-.14-.14-.08-.06c-.08,0-.06.13-.07.2l.08.14h.29s0,0,0-.07Z"/><path class="cls-9" d="M81.2,52.89c0,.09.11.17.23.13s.11,0,.13-.06l-.14-.15h-.14C81.21,52.8,81.19,52.84,81.2,52.89Z"/><path class="cls-9" d="M85.79,54c0,.11.11.13.21.07s-.1-.14-.2-.13S85.77,54,85.79,54Z"/><path class="cls-9" d="M75.71,43.63l.07-.06c0-.09.12-.19-.07-.2S75.58,43.54,75.71,43.63Z"/><path class="cls-9" d="M16,60.82l-.13-.21c-.18,0-.19.14-.29.28C15.73,60.85,15.88,61.06,16,60.82Z"/><path class="cls-9" d="M16,61.28c0-.05-.06-.09-.12-.1s-.11.09-.11.15,0,.16.11.14S16,61.37,16,61.28Z"/><path class="cls-9" d="M17.63,62.55a.19.19,0,0,0-.18-.22s-.09,0-.09.08.11.25.2.24S17.63,62.59,17.63,62.55Z"/><path class="cls-9" d="M13.4,56.81c.06.08.1,0,.14,0S13.45,56.75,13.4,56.81Z"/><path class="cls-9" d="M14.75,54.2h0c0-.07,0-.14,0-.21s-.14-.16-.15-.27a.32.32,0,0,1-.13-.15.23.23,0,0,1-.07-.07h0a.13.13,0,0,0,0-.06.17.17,0,0,0-.12,0s0,0,0,0h0c0-.12-.06-.11-.15-.07l-.06,0a1,1,0,0,0,.42.61h0a.14.14,0,0,0,0,.06h0l.08.1,0,0,.09.13C14.67,54.33,14.76,54.34,14.75,54.2Zm-.55-.69h0Z"/><path class="cls-9" d="M10.42,58.4h0s0,.08.08,0Z"/><path class="cls-9" d="M17.77,54.6c0-.13,0-.27,0-.4-.22.16-.23.28-.06.47h0l.07-.07Z"/><path class="cls-9" d="M30.7,44.94a.75.75,0,0,0-.7.21l-.28.07c-.08,0-.1,0-.14.07a1.8,1.8,0,0,1-.65.14.16.16,0,0,1-.08.06h-.06a.17.17,0,0,1-.08.06h0c-.13,0-.28,0-.38.11.11.07.22,0,.32,0l.07-.06.14,0a.25.25,0,0,0,.17-.05h0l.12,0a.15.15,0,0,0,.15-.06c.14,0,.27-.07.41,0s.18-.16.33-.17a3.58,3.58,0,0,0,.45-.09,1.17,1.17,0,0,0,.37-.08C30.94,45,30.81,45,30.7,44.94Z"/><path class="cls-9" d="M36.07,43.91c.21-.22,0-.24-.14-.24s-.25,0-.34.12-.27.15-.43.2-.13.21.08.17.47-.12.7-.18h0Z"/><path class="cls-9" d="M33,44.18c0,.1-.4,0-.13.22h.07a1.11,1.11,0,0,1,.39-.2.21.21,0,0,0,.18-.21.1.1,0,0,0-.14,0,.37.37,0,0,1-.29.14Z"/><path class="cls-9" d="M34.79,43.23h0s-.08,0-.08.06.09.1.15.05S34.81,43.26,34.79,43.23Z"/><path class="cls-9" d="M39.66,43.15a.89.89,0,0,1-.42.15,2.32,2.32,0,0,1-.58.13,0,0,0,0,0,0,.06.08.08,0,0,0,0,0c0,.08,0,0-.07.07-.21.15-.48.18-.67.37h-.07s-.06,0-.07.07l.08.08c.1,0,.22-.06.27.08s.09.06.15,0a.44.44,0,0,0,.15-.18l0,0v0c.2-.11.41,0,.62-.05s.1-.41.38-.42h.07a.41.41,0,0,0,.2-.14h.06a.16.16,0,0,1,.07-.07h0C39.86,43.15,39.82,43.09,39.66,43.15Z"/><path class="cls-9" d="M39.75,44.12c0,.05,0,.09,0,.14s.13.07.21.06.05-.27,0-.41a.15.15,0,0,0-.14.07C39.75,44,39.77,44.08,39.75,44.12Z"/><path class="cls-9" d="M44.81,38.46c0-.05,0-.1,0-.14l-.08-.08c-.17,0-.13.12-.07.22h0c.06,0,0,.17.13.14h0a.13.13,0,0,1,0,.06c.07,0,.13.27.21,0C45,38.61,44.93,38.49,44.81,38.46Z"/><path class="cls-9" d="M99.24,67.55s0,.07.07.1h.06a.11.11,0,0,0,.15,0c.12-.09.06-.13,0-.14h-.1C99.32,67.52,99.25,67.47,99.24,67.55Z"/><path class="cls-9" d="M95.44,64.68a4.71,4.71,0,0,0,.8.27.19.19,0,0,0,.2,0,.15.15,0,0,1-.13-.08l-.08-.07c-.13-.06-.32,0-.43-.14l-.07-.06h-.07a.15.15,0,0,0-.21,0h0A.11.11,0,0,0,95.44,64.68Z"/><path class="cls-9" d="M98.79,67.59c-.16,0-.28,0-.38.12C98.55,67.7,98.67,67.75,98.79,67.59Z"/><path class="cls-9" d="M98.53,67.37a.17.17,0,0,0,.07-.13c-.15,0-.15,0-.15.06a.23.23,0,0,1,.07.07Z"/><path class="cls-9" d="M100.6,67.23c-.12,0-.24-.14-.29.06s0,.15.07.22c-.11,0-.22,0-.26.12h0l.14.07.07-.06a.61.61,0,0,1,0-.14c.12.14.23.09.35,0s.11,0,.18-.11l-.18-.09A.13.13,0,0,1,100.6,67.23Z"/><path class="cls-9" d="M99.12,66.42s0,0,0,0,.08,0,.09-.1S99.12,66.34,99.12,66.42Z"/><path class="cls-9" d="M93.38,62.4h0s0,0,0,0h0a.46.46,0,0,0,.07-.07v-.06C93.41,62.26,93.3,62.24,93.38,62.4Z"/><path class="cls-9" d="M93.93,63.34v0h0s0,.06.07.08l.08,0h0l0,0s0,0,0,0,.11,0,.11-.06-.18-.21-.32-.19S93.93,63.31,93.93,63.34Z"/><path class="cls-9" d="M92.67,99.9c-.27-.08-.22.1-.22.24s.24-.08.38-.08S93,100,93,99.8,92.8,99.94,92.67,99.9Z"/><path class="cls-9" d="M19.86,67.58a.13.13,0,0,0,0,.06c.07,0,.1.16.21.14S20,67.56,19.86,67.58Z"/><path class="cls-9" d="M12.27,65.78c0,.1,0,.2.14.21a.07.07,0,0,0,.07,0s0-.06.07-.09h.07c.09-.1,0-.15-.07-.2h-.14s-.1,0-.14.06Z"/><path class="cls-9" d="M12.84,66.68h0a.36.36,0,0,0-.35,0A1.4,1.4,0,0,0,12.84,66.68Z"/><path class="cls-9" d="M13,66.54c0,.07.08.07.14.07S13,66.54,13,66.54Z"/><path class="cls-9" d="M59,52.19s-.08,0-.11,0-.1.16-.14.24v.09c.07.11.15.12.25,0l.07-.12C59,52.37,59.08,52.26,59,52.19Z"/><path class="cls-9" d="M53.47,48.46s0-.1-.08-.13h0s-.09,0-.14,0h0c0,.09-.09.17-.07.27s.25,0,.35-.06Z"/><path class="cls-9" d="M51.06,49.33a.31.31,0,0,0,0-.24C50.89,49.13,51,49.22,51.06,49.33Z"/><path class="cls-9" d="M57.91,37.77c.1,0,.14.18.3.18,0-.15-.05-.26-.1-.38C57.91,37.53,57.9,37.54,57.91,37.77Z"/><path class="cls-9" d="M47.54,54.23a.11.11,0,0,0,.11.14c.14,0,.07-.11.09-.17h0C47.67,54.22,47.58,54.09,47.54,54.23Z"/><path class="cls-9" d="M48.53,55.48l0,.08c0,.08.13.1.18.15h0a.27.27,0,0,1,.08.07.32.32,0,0,1,.15.13c.09,0,.13,0,.13-.13s-.19-.23-.29-.34-.14-.09-.2-.15h0a.14.14,0,0,0-.08.14Z"/><path class="cls-9" d="M96.51,91c-.08,0-.16.06-.12.12.17.22,0,.26-.15.29l-.08.07c0,.06-.1.09-.08.17a1.44,1.44,0,0,0,.53-.22A.31.31,0,0,0,96.51,91Z"/><path class="cls-9" d="M97.31,91h0a.11.11,0,0,1,0,.15h0a.1.1,0,0,0,0,.14h0c.11.05.2.08.17-.1a.09.09,0,0,1,0-.11c0-.11,0-.22-.07-.33C97.26,90.68,97.24,90.7,97.31,91Z"/><path class="cls-9" d="M96,90.21c0,.06,0,.11.09.12s.11-.06.12-.13S96,90.19,96,90.21Z"/><path class="cls-9" d="M97.09,89a.57.57,0,0,0,.08.13l.07,0V89s0-.1-.06-.09S97.12,88.93,97.09,89Z"/><path class="cls-9" d="M97.71,88l0,0S97.71,88,97.71,88Z"/><path class="cls-9" d="M93.3,90.89v-.06c-.1,0-.19,0-.19.13s.12.16.15,0Z"/><path class="cls-9" d="M93.06,90.22a.08.08,0,0,0,0,0s0-.06,0,0,0,0,0,.05Z"/><path class="cls-9" d="M93.45,80.89h0c0-.06-.06-.13-.14-.16a.08.08,0,0,0-.08,0,.2.2,0,0,0-.07.28h.54C93.6,80.94,93.49,81,93.45,80.89Z"/><path class="cls-9" d="M97.44,89.45a.48.48,0,0,0,.09.19.14.14,0,0,0,0-.23S97.47,89.41,97.44,89.45Z"/><path class="cls-9" d="M72.13,36.88l.21.07c.08-.09.17-.17,0-.16,0,0-.06,0-.09,0S72.1,36.81,72.13,36.88Z"/><path class="cls-9" d="M102,66.65c-.06.12.11.08.14.14l0,0h0c.07-.06.1-.13,0-.19S102,66.59,102,66.65Z"/><path class="cls-9" d="M101.38,67.51s.11,0,.15.06h0c.07-.06.11-.14,0-.19s-.14,0-.15.13Z"/><path class="cls-9" d="M103.1,69.37c-.1-.06-.15,0-.15.08s0,0,0,.06.06.06.05.08-.06.21.08.24.22,0,.22-.18A.36.36,0,0,1,103.1,69.37Z"/><path class="cls-9" d="M68.89,46.7a.66.66,0,0,0,0,.58l0,0a.13.13,0,0,0,.13,0,.19.19,0,0,0,0-.13s-.07,0,0-.07a.2.2,0,0,0,.08,0c.21-.38.2-.52,0-.65h0s-.09,0-.14,0S68.94,46.62,68.89,46.7Z"/><path class="cls-9" d="M68.23,46s-.07.05-.1.08l-.07.07c0,.06,0,.16.11.09s.06-.11.09-.17S68.27,46,68.23,46Z"/><path class="cls-9" d="M67.92,45.57v.06l.06.08.14-.08s0,0,0-.06h0a.27.27,0,0,1-.07-.08h0C68,45.46,68,45.51,67.92,45.57Z"/><path class="cls-9" d="M103.32,70.2h0c0-.08,0-.18-.12-.24C103.16,70.09,103.16,70.18,103.32,70.2Z"/><path class="cls-9" d="M81.27,51.21a.14.14,0,0,0,0,.06.08.08,0,0,0,0,.07l0,0h.14l.07-.07v-.13h-.18Z"/><path class="cls-9" d="M83.82,53.25h0s0-.05,0,0,0,0,0,0S83.81,53.25,83.82,53.25Z"/><path class="cls-9" d="M84.3,57.13a.11.11,0,0,0,0,.08.22.22,0,0,0,0,.08l.12.08c.23.12.47.22.69.35l.3.17c.08,0,.17.09.25,0s.09-.19,0-.26h0a.36.36,0,0,0-.2-.11.45.45,0,0,0-.23,0l-.28-.21s-.11,0-.15-.07h0a.35.35,0,0,0-.42-.14Z"/><path class="cls-9" d="M74.27,47.77c0-.08,0-.16-.06-.2S74.19,47.72,74.27,47.77Z"/><path class="cls-9" d="M78.87,46.68a.13.13,0,0,0,0,.06s.11.08.16,0,0-.12,0-.19l-.06,0A.1.1,0,0,0,78.87,46.68Z"/><path class="cls-9" d="M23.12,62.89c.05-.15,0-.2-.25-.2h0a.21.21,0,0,0,.14.26C23.05,62.94,23.1,63,23.12,62.89Z"/><path class="cls-9" d="M20.27,65.15l.26-.11c.11,0,.22-.07.16-.2s-.17-.06-.26,0-.25.12-.36.19C20,65.26,20.19,65.13,20.27,65.15Z"/><path class="cls-9" d="M15.17,66.14l-.26,0h0C15,66.21,15.05,66.22,15.17,66.14Z"/><path class="cls-9" d="M14.56,66.33v-.14h-.07C14.44,66.27,14.4,66.35,14.56,66.33Z"/><path class="cls-9" d="M19.71,65.31c.05.08.14,0,.22.06H20C19.91,65.27,19.81,65.3,19.71,65.31Z"/><path class="cls-9" d="M19.41,52.81s0,0,0,0l0,0a0,0,0,0,0,0,0S19.4,52.84,19.41,52.81Z"/><path class="cls-9" d="M34.39,45l-.09,0-.06.06,0,0a.58.58,0,0,0,.63,0c.14-.09,0-.11-.06-.17h-.13A.9.9,0,0,1,34.39,45Z"/><path class="cls-9" d="M32.5,44.36l-.14,0H32.3l-.08,0c-.1,0-.21,0-.28.07h-.07a1.08,1.08,0,0,0-.66.27l-.12.07-.07,0-.06,0,0,0,.14.13h.07a.47.47,0,0,1,.43-.2l.43-.21h.07a.22.22,0,0,0,.22,0h0c.14,0,.3,0,.43-.06S32.69,44.28,32.5,44.36Z"/><path class="cls-9" d="M33.89,44.23c0-.06-.1,0-.16,0a1.76,1.76,0,0,1-.45.12c-.12,0-.07.08-.05.14h.13c.09-.07.21,0,.29-.07h0a.21.21,0,0,1,.15-.07C33.85,44.3,33.91,44.27,33.89,44.23Z"/><path class="cls-9" d="M31.09,44.55c-.07.06-.15,0-.22.06l-.07.13h0a.15.15,0,0,0,.21,0C31,44.67,31.21,44.67,31.09,44.55Z"/><path class="cls-9" d="M34.09,49a.25.25,0,0,1,.14.13.17.17,0,0,0,.05.12l.11.09c.08.08.2.11.27.19h-.18l-.1,0h0a.36.36,0,0,0-.07-.17h0c-.08.05-.09.12-.13.19s0,.15.14.14h.07a11.37,11.37,0,0,0,1.43,0c.06,0,.21,0,.14.11s0,.23-.13.3l-.08.07h0a.25.25,0,0,1-.13.21c0,.09.12.06.19.05s.06-.27.22-.34h0l.05-.07v0a.31.31,0,0,1,.09-.21l.07,0a.26.26,0,0,0,.16-.15c0-.12-.06-.17-.19-.12a2.37,2.37,0,0,1-.84-.06v-.07a.17.17,0,0,0-.1-.06h-.12c-.13,0-.3,0-.37-.13s-.18-.06-.26-.09l-.08-.06h0c0-.05-.11,0-.14-.08h0a.16.16,0,0,1-.07-.07h0a.12.12,0,0,0-.15,0Z"/><path class="cls-9" d="M33.09,49.9l.13,0h0s0,0,0,0l.08-.06a1,1,0,0,0,.5-.08c-.13-.13-.29,0-.44-.06h-.27C33,49.72,33,49.81,33.09,49.9Z"/><path class="cls-9" d="M31.79,49.84v.07h0a.41.41,0,0,1,.15.14h0c.24.08.17-.12.21-.22s-.17-.13-.29-.06,0,0-.07.06Z"/><path class="cls-9" d="M37.51,43.7a.12.12,0,0,0-.13-.13c0,.08,0,.15,0,.2l.09-.06Z"/><path class="cls-9" d="M39.45,43.71h0l.16-.12C39.42,43.59,39.42,43.59,39.45,43.71Z"/><path class="cls-9" d="M101.13,66.72a.06.06,0,0,0-.06.07c0,.06.07.08.13.09h0s0,0,0-.06S101.2,66.72,101.13,66.72Z"/><path class="cls-9" d="M93.13,64.26l.07,0,.22.07a.83.83,0,0,0,.16.09.44.44,0,0,1,.29.24l.09,0c.27,0,.15.21.24.31a.46.46,0,0,0,.24.17c.19,0,.26-.06.23-.21h0l.13.07c.09,0,.15.16.27.17h0c0,.21.17.23.34.25l0,0,0,0v0l.06,0,.08,0h0v0h.18a.29.29,0,0,0,0,.09.12.12,0,0,0,.14,0h0s0,0,0,0c.06.26.29.34.49.45s.28.33.54.27h.2c.1,0,.24.05.3-.1a.29.29,0,0,0-.28-.09.47.47,0,0,1-.45-.2.29.29,0,0,0-.14-.13l-.09-.08,0-.06c0-.06,0-.12,0-.18a.08.08,0,0,0,0-.07.26.26,0,0,0-.23,0l-.16.06a.23.23,0,0,0-.1-.14c.13-.1.19-.21.07-.35H96c-.1-.11-.19-.24-.37-.11s-.12,0-.17,0a2,2,0,0,1-.54-.15l-.14-.08c-.06,0-.07-.06-.09-.11a1.52,1.52,0,0,1-.42-.49c0-.13-.12-.2-.22-.28H94c-.17,0-.13.13-.13.23s.12.13.17.2a2.82,2.82,0,0,1-.48-.27c-.15-.07-.21-.22-.33-.32l-.09,0a.35.35,0,0,0-.2,0l-.08,0a.18.18,0,0,0,0,.14c0,.08.08.12.15.17A.28.28,0,0,1,93.13,64.26Z"/><path class="cls-9" d="M88.35,59.7a.32.32,0,0,0,.16.35,5,5,0,0,0,1,.47.14.14,0,0,0,.13-.07.14.14,0,0,0,0-.09l-.06-.07c-.12-.07-.08-.21-.16-.3s-.21-.1-.31-.05-.25,0-.33-.17-.1-.17-.21-.18a.24.24,0,0,0-.2,0A.1.1,0,0,0,88.35,59.7Z"/><path class="cls-9" d="M90,60.05a.13.13,0,0,0,.14-.13l-.07-.07a.17.17,0,0,0-.15.07s0,.1.08.13Z"/><path class="cls-9" d="M92,61.92a1.48,1.48,0,0,1,.29.27c.08.06.2.07.28.14h.14v-.06l-.06-.08h0a2.36,2.36,0,0,0-.57-.35C92,61.82,91.93,61.85,92,61.92Z"/><path class="cls-9" d="M87.41,94.69l0,0-.07.05-.06.06c-.12,0-.12.07-.08.15h0a.34.34,0,0,1,.09.14.45.45,0,0,0,.07.14.34.34,0,0,0-.15.07.53.53,0,0,1,0,.13c.08.21.08.21.25.09l.1,0,.09-.06c0-.08,0-.1-.08-.14h0l-.1,0a.65.65,0,0,0,.1-.15h0a.46.46,0,0,1,.07-.07.64.64,0,0,1,.36-.08v-.13a.17.17,0,0,0-.13,0C87.66,94.8,87.56,94.63,87.41,94.69Z"/><path class="cls-9" d="M87.66,95.44s.09,0,.09-.08,0,0-.08,0S87.61,95.4,87.66,95.44Z"/><path class="cls-9" d="M22.85,68.27a.15.15,0,0,0-.14.06h0a.46.46,0,0,1,.07.07l.07.07c.09,0,.23,0,.15-.14l0,0a.11.11,0,0,0-.07,0Z"/><path class="cls-9" d="M20.28,72.54c.08-.06.17,0,.25,0a.12.12,0,0,0,.07-.05v0h0a.13.13,0,0,0,0-.06v0a.13.13,0,0,1,0-.1l.06,0c.09-.1.23-.16.23-.33a.16.16,0,0,0-.15-.07h0s-.1,0-.14.07h0a.23.23,0,0,0-.07.07.61.61,0,0,0-.24.18.27.27,0,0,1-.32.1l0,.06a.18.18,0,0,1-.13.2.36.36,0,0,0,0,.42C20,72.83,20.11,72.63,20.28,72.54Z"/><path class="cls-9" d="M19.56,73.5l.08-.13c-.08-.1-.19-.06-.29-.06l0,0C19.39,73.43,19.37,73.61,19.56,73.5Z"/><polygon class="cls-9" points="19.85 72.89 19.85 72.89 19.85 72.89 19.85 72.89 19.85 72.89"/><path class="cls-9" d="M19.83,72.91l0,0S19.81,72.91,19.83,72.91Z"/><path class="cls-9" d="M22.89,70.36c0-.08.09-.23-.11-.24h-.07l-.07.07h0c0,.09,0,.2.07.27h0C22.76,70.42,22.86,70.46,22.89,70.36Z"/><path class="cls-9" d="M8.2,79.54a.25.25,0,0,0-.29,0,.38.38,0,0,0,.28.15h0C8.21,79.66,8.28,79.59,8.2,79.54Z"/><path class="cls-9" d="M64.09,60v0c.12-.18,0-.38.07-.56l0-.09h0a.06.06,0,0,1,0-.08c0-.06,0-.12,0-.17h0c-.11-.08-.21-.16-.35-.05s0,.26.07.39a.2.2,0,0,1,0,.22v.06c-.06.13-.09.25,0,.34L64,60h.1S64.12,60,64.09,60Z"/><path class="cls-9" d="M52.32,57h0c0,.08.13.07.21.06v-.12h-.06S52.36,56.91,52.32,57Z"/><path class="cls-9" d="M65.38,61.08c-.06-.08-.15-.06-.22,0a.14.14,0,0,0-.15.11.07.07,0,0,0,0,.08.33.33,0,0,0,.29-.06S65.39,61.09,65.38,61.08Z"/><path class="cls-9" d="M65.27,53.15c.1.07,0,.2.1.3.06-.08,0-.18.11-.23s0,0,0-.06a.16.16,0,0,0-.18-.16C65.25,53,65.27,53.1,65.27,53.15Z"/><path class="cls-9" d="M53.1,56.81H53c.07.1.17.07.27.06C53.26,56.79,53.17,56.82,53.1,56.81Z"/><path class="cls-9" d="M49.47,56.6s.08.1.11.1.09-.09.08-.16l-.07-.14c-.1-.06-.13,0-.14.08Z"/><path class="cls-9" d="M38.07,52.58a.47.47,0,0,1,.24,0h.06c.08-.21-.12-.16-.21-.21s-.13,0-.2,0a.38.38,0,0,0-.13.09l0,0A.18.18,0,0,0,38.07,52.58Z"/><path class="cls-9" d="M41.35,49.18c-.09-.12-.18,0-.32,0,.13.08.22.12.31,0S41.36,49.19,41.35,49.18Z"/><path class="cls-9" d="M41.69,48.47c-.11,0-.3,0-.3-.08s-.11-.11-.19-.13a.15.15,0,0,1-.12-.07c-.07,0-.14-.1-.22,0a.17.17,0,0,0,0,.22.68.68,0,0,0,.12.12c.13,0,.2.12.3.19a.4.4,0,0,0,.49,0,.16.16,0,0,0,0-.16A.1.1,0,0,0,41.69,48.47Z"/><path class="cls-9" d="M13.4,82.76a.2.2,0,0,1-.06-.14c0-.1-.05-.13-.14-.14s-.25,0-.12.18l.12.16C13.27,82.82,13.35,82.84,13.4,82.76Z"/><path class="cls-9" d="M8.78,98.29c-.11,0-.15,0-.15.12h.13S8.86,98.33,8.78,98.29Z"/><path class="cls-9" d="M97.45,72.91a3,3,0,0,1-.52-.07.28.28,0,0,0-.2,0c-.06.11-.47.06-.17.34l.09,0a.35.35,0,0,1,.21.1c.11.12.24.09.38,0s.51-.17.79-.14c.06-.1.2-.14.2-.28h0A.28.28,0,0,0,98,73c-.14,0-.28,0-.41,0Z"/><path class="cls-9" d="M84.23,93.23s0,0,.08.06.19.09.21-.09,0-.07,0-.1h-.07C84.26,93,84.24,93,84.23,93.23Z"/><path class="cls-9" d="M85.66,93.75c0-.06,0-.12-.1-.12s-.06,0-.06.07,0,.11.1.12S85.65,93.78,85.66,93.75Z"/><path class="cls-9" d="M92.39,92.31c-.07-.13-.22,0-.3-.1S92,92,91.8,91.93s-.18,0-.2.09.06.11.13.13a.24.24,0,0,1,.18.23c0,.2.14.16.25.18l.15-.14S92.4,92.37,92.39,92.31Z"/><path class="cls-9" d="M93.72,91.78v-.12a.09.09,0,0,0-.06-.07c-.06-.06-.12-.11-.21-.07h0c-.12.06-.09.14,0,.21v.06h.07a.2.2,0,0,1,0,.07h.21A.22.22,0,0,1,93.72,91.78Z"/><path class="cls-9" d="M91.59,86.07h.13a1,1,0,0,0,.16-.13c.06-.05.05-.1,0-.12S91.58,85.89,91.59,86.07Z"/><path class="cls-9" d="M92.56,85.12a0,0,0,0,0,0,0l0,0s0,0,0,0S92.54,85.13,92.56,85.12Z"/><path class="cls-9" d="M91.08,78.82c.15,0,.16.17.16.31l.17-.21a1.36,1.36,0,0,0,0-.17C91.27,78.76,91.16,78.72,91.08,78.82Z"/><path class="cls-9" d="M90.73,81.53s0,.09.08.09a0,0,0,0,0,0,0,.08.08,0,0,0,0-.11l-.09,0h0A.28.28,0,0,1,90.73,81.53Z"/><path class="cls-9" d="M19.85,89.38a.31.31,0,0,0,.22-.21h0a.12.12,0,0,0,0-.09c-.13-.16-.22-.1-.31,0l-.08,0-.08.07-.06.07c-.07.15,0,.18.14.15Z"/><path class="cls-9" d="M14.42,87.79l.14.13.34-.07C14.75,87.74,14.58,87.81,14.42,87.79Z"/><path class="cls-9" d="M12.2,85.24c-.1,0-.15,0-.14.13S12.2,85.33,12.2,85.24Z"/><path class="cls-9" d="M70.42,41.36l.07.06.14.14h0l.07-.06h0c.1-.16,0-.2-.14-.28l-.31,0C70.28,41.29,70.39,41.28,70.42,41.36Z"/><path class="cls-9" d="M69.13,46.19c.09,0,.15,0,.15-.09s0-.19-.15-.12Z"/><path class="cls-9" d="M67.85,49.36c.07,0,.15,0,.19-.06L68,49.23C67.89,49.23,67.75,49.18,67.85,49.36Z"/><path class="cls-9" d="M81.39,51.73a.15.15,0,0,0,0-.23C81.36,51.58,81.33,51.65,81.39,51.73Z"/><polygon class="cls-9" points="81.36 51.5 81.36 51.5 81.36 51.5 81.36 51.5"/><path class="cls-9" d="M86,57.92v0l.06,0,.07,0,.11,0,0,0,.07,0a.12.12,0,0,0,.08,0,.08.08,0,0,0,0,0,.56.56,0,0,0,.4.25c.13,0,.25.12.39.16a.37.37,0,0,0,.23,0c.08,0,.16,0,.21-.06s-.05,0-.06-.07l-.15-.08a.42.42,0,0,0-.21-.06c-.09-.06-.21-.1-.25-.18s-.29-.2-.48-.18l-.13,0c-.06-.06-.16,0-.22-.07h0S86,57.86,86,57.92Z"/><path class="cls-9" d="M87.1,58s.05.08.1.07a.11.11,0,0,0,.09-.12c0-.05,0-.08-.08-.06S87.1,57.94,87.1,58Z"/><path class="cls-9" d="M83.68,56.63a.38.38,0,0,0,.39.25.15.15,0,0,0,.15-.07l-.07-.07-.07-.06H84l-.09-.06h-.05a.16.16,0,0,1-.09-.07h0a.07.07,0,0,0-.06,0A.36.36,0,0,0,83.68,56.63Z"/><path class="cls-9" d="M83.16,55.84l.2.08.08.06h0a.23.23,0,0,0,.07.07h0a.11.11,0,0,0,.09,0v0l0,0,.06.08a1.53,1.53,0,0,1,.18.18h0a1,1,0,0,1,.37.06h.06c.08,0,.13,0,.08-.12l-.15-.23-.14-.07v-.14s0,0,0,0a0,0,0,0,0,0,0,.15.15,0,0,0-.17-.07h0a.36.36,0,0,0-.31-.11C83.38,55.72,83.22,55.67,83.16,55.84Z"/><path class="cls-9" d="M74.66,42.9a.12.12,0,0,0,.09.09s.09,0,.09-.06a.09.09,0,0,0-.09-.11A.07.07,0,0,0,74.66,42.9Z"/><path class="cls-9" d="M78.67,48.36l0,0h0Z"/><path class="cls-9" d="M24.5,62.34c.07-.08.19,0,.26-.08a.28.28,0,0,0,.1-.09l0,0h.05a.08.08,0,0,0,.08,0,.35.35,0,0,0,.12-.07c.11-.09.28-.12.31-.29h0l0,0c.13-.19.13-.19-.07-.21l-.08.07h0c-.17,0-.28.13-.42.22l-.08.06h0s0,0,0,0h-.06l0,0s0,0-.06,0h0a.13.13,0,0,1,0,.06h0c-.13,0-.19.09-.28.15l-.07.07a.15.15,0,0,0,.15.07Z"/><path class="cls-9" d="M19,55.64h0l0,0s0,0,0,0l0,0a.15.15,0,0,0,0-.17h0c-.07,0-.1-.16-.22-.14s0,.05,0,.07.07.24.21.28h0a.34.34,0,0,0,.08.27C19.14,55.82,19,55.73,19,55.64Z"/><path class="cls-9" d="M20.35,55.7a.42.42,0,0,1-.15-.12h-.06a.06.06,0,0,0-.09,0,.23.23,0,0,0,0,.14c0,.12.15.15.24.21h0l.07.06h0s0,.11.08.14h0c.09.08,0,.25.22.27s.12.12.14.21,0,.26.25.26c0-.13,0-.26-.05-.39A7.68,7.68,0,0,0,20.35,55.7Z"/><path class="cls-9" d="M37,48.68,37,48.6a.13.13,0,0,0-.07-.14l-.28.22c-.08.17.07.12.15.14A.38.38,0,0,0,37,48.68Z"/><path class="cls-9" d="M38.18,43.52l-.09,0h0a.18.18,0,0,1,.07,0Z"/><path class="cls-9" d="M94.59,67.85l-.22-.13a2.15,2.15,0,0,0-.67,0,.16.16,0,0,0-.07.07.14.14,0,0,0,0,.09c.09.12.24.1.37.13s.18,0,.22.09S94.46,67.93,94.59,67.85Z"/><polygon class="cls-9" points="93.59 66.89 93.59 66.89 93.59 66.89 93.59 66.89"/><path class="cls-9" d="M93.68,66.91l-.09,0S93.63,67,93.68,66.91Z"/><path class="cls-9" d="M94.45,65.78c0-.06,0-.08-.06-.1a.09.09,0,0,0-.08,0l-.08.13C94.35,66,94.42,65.93,94.45,65.78Z"/><polygon class="cls-9" points="93.16 66.82 93.16 66.82 93.16 66.82 93.16 66.82"/><path class="cls-9" d="M93,66.61s0,0,0,.06,0,.06,0,.08a.23.23,0,0,0,.15.07h0c0,.1-.21,0-.27.16a.88.88,0,0,0,.48,0c0-.06.13-.06.15-.14-.16,0-.11-.2-.22-.26S93.11,66.61,93,66.61Z"/><path class="cls-9" d="M94.51,66.27l.08.07a0,0,0,0,0,.07,0h.07v-.14h-.07a.14.14,0,0,0-.15,0h0A.05.05,0,0,0,94.51,66.27Z"/><path class="cls-9" d="M95.18,65.52a.69.69,0,0,0-.4-.24s0,0,0,.08h0c.08.07,0,.21.13.25a.11.11,0,0,0,.08,0h.14S95.21,65.55,95.18,65.52Z"/><path class="cls-9" d="M90.51,62.06a2.18,2.18,0,0,0,.56.25s.06.06.09.09.26.08.21-.13-.05-.22-.21-.21h0A.39.39,0,0,0,91,62c-.17-.08-.32-.22-.54-.16S90.41,62,90.51,62.06Z"/><path class="cls-9" d="M84.2,105.77l0,.06-.06.09a.36.36,0,0,0-.07.1,1.05,1.05,0,0,0,0,.19.11.11,0,0,0,0,.07c.11.09.14,0,.2-.07s.05-.25.15-.35.12-.19-.07-.2l0,0S84.22,105.74,84.2,105.77Z"/><path class="cls-9" d="M85.72,101.46l.07,0s0-.12-.08-.1S85.68,101.42,85.72,101.46Z"/><path class="cls-9" d="M86.58,93.93a1.19,1.19,0,0,0-.08-.2h0l-.15-.14h-.06c-.08,0-.06.12-.06.2h0c.08,0,0,.13.06.19a.09.09,0,0,0,.06.06l.08,0h.09A.1.1,0,0,0,86.58,93.93Z"/><path class="cls-9" d="M21.18,72.19c-.08-.08-.16,0-.22.09l0,0h-.07c-.1.1-.22.18-.21.34a.44.44,0,0,0-.22.07l-.06,0s-.08.07-.05.11.08,0,.12,0h.07l.06,0,.07,0a.13.13,0,0,0,.05-.06.19.19,0,0,0,0-.08l0,0a.06.06,0,0,0,.08,0l.05,0a1.08,1.08,0,0,1,.3-.26C21.14,72.35,21.29,72.31,21.18,72.19Z"/><path class="cls-9" d="M24,69.8l0,0a.2.2,0,0,0,0-.08.47.47,0,0,0,0-.17.11.11,0,0,0,0-.08s0,0,0,0,0,0-.05,0h-.07v.07a.23.23,0,0,0-.07.07l-.08.12h0c-.29.18-.24.52-.49.77l.27-.07h0a.27.27,0,0,0,.08-.07,1.07,1.07,0,0,1,.29-.27.51.51,0,0,0,0-.21.14.14,0,0,0,0-.06A.09.09,0,0,0,24,69.8Z"/><path class="cls-9" d="M23.21,69.71l-.07.08-.07.06c0,.18.11.11.21.07S23.3,69.76,23.21,69.71Z"/><path class="cls-9" d="M82.21,93.45h-.06s-.06,0-.07-.06h0a.17.17,0,0,0-.08.15c.06.09.12.19.26.18S82.21,93.53,82.21,93.45Z"/><path class="cls-9" d="M65.46,63c.16.06.29,0,.37.13A.3.3,0,0,0,66,63a.44.44,0,0,1,.07-.27c.09-.18.06-.27-.14-.4,0,.13-.06.26-.08.4S65.8,63,65.46,63Z"/><path class="cls-9" d="M71.86,61.86v-.67l-.16.11v.47c0,.17-.07.35.08.5A.25.25,0,0,0,71.86,61.86Z"/><path class="cls-9" d="M68,64.53a2.44,2.44,0,0,0,0-.27h0c-.09,0-.11,0-.14.08a.54.54,0,0,1-.07.27C67.88,64.67,68,64.65,68,64.53Z"/><path class="cls-9" d="M61.2,64.88s.13,0,.11.09.07.13.09.19a.81.81,0,0,0,.22,0c.07-.11,0-.2-.07-.28a.61.61,0,0,1-.15-.26C61.09,64.61,61.07,64.64,61.2,64.88Z"/><polygon class="cls-9" points="40.3 52.81 40.3 52.81 40.3 52.81 40.3 52.81"/><path class="cls-9" d="M39.93,52.41h0a.08.08,0,0,0,0,.13h0a.16.16,0,0,0,.07.07h0l.21.15s.11,0,.14.06l.09-.08a.13.13,0,0,1,0-.06C40.29,52.48,40.08,52.49,39.93,52.41Z"/><path class="cls-9" d="M13.69,83.32l-.13.13a.07.07,0,0,0,0,0C13.77,83.5,13.78,83.49,13.69,83.32Z"/><path class="cls-9" d="M15.26,84.83l0,0c-.09-.12-.21,0-.31,0l-.07,0a.66.66,0,0,1,0,.14.34.34,0,0,0,.31.11C15.27,85,15.34,85,15.26,84.83Z"/><path class="cls-9" d="M9.91,98H9.85c-.06,0,0,.1-.08.13a.17.17,0,0,1,0,.07.17.17,0,0,0,.15.06h0s0-.11.07-.14A.14.14,0,0,0,9.91,98Z"/><path class="cls-9" d="M9.62,98.55a.13.13,0,0,0,.14.14c0-.07,0-.13,0-.2S9.64,98.46,9.62,98.55Z"/><path class="cls-9" d="M11.42,106.07c-.08-.18-.15-.37-.22-.55l-.15.07s0,0,0,.06a.21.21,0,0,1-.06.08h-.06c0,.05,0,.11.05.11s.17.05.12.17,0,.08,0,.12h.07a.41.41,0,0,0,.28.07A.15.15,0,0,0,11.42,106.07Z"/><path class="cls-9" d="M92.51,74.23s0-.07-.05-.07-.07,0-.06.09l0,.09h0A.12.12,0,0,0,92.51,74.23Z"/><path class="cls-9" d="M94.09,77h0c.1-.15,0-.23-.11-.31C93.9,76.81,94.07,76.86,94.09,77Z"/><path class="cls-9" d="M95.23,91.52h0l-.08-.06c-.06,0-.13-.12-.21,0s0,.15,0,.21.1.18.24.18S95.22,91.62,95.23,91.52Z"/><path class="cls-9" d="M82.53,91.71c.1,0,.11-.06.12-.13a.21.21,0,0,0-.21-.13s0,.09,0,.13S82.45,91.71,82.53,91.71Z"/><path class="cls-9" d="M20.94,89.36a.1.1,0,0,0,.07.11c.07,0,.1,0,.13-.09a.49.49,0,0,1,0-.21c.11-.24,0-.46,0-.7a.1.1,0,0,0-.13-.09c-.06,0-.06.06-.06.1s0,.23,0,.35A.69.69,0,0,1,20.94,89.36Z"/><path class="cls-9" d="M22.3,87.26a.18.18,0,0,0-.1-.11c-.11,0-.21-.14-.34,0h0a.1.1,0,0,0,0,.07.09.09,0,0,0,0,.07l.07.14H22a.24.24,0,0,0,.2,0A.19.19,0,0,0,22.3,87.26Z"/><path class="cls-9" d="M69.41,48.19c0,.07-.13.14,0,.21s.13-.07.2-.08a.1.1,0,0,0,.08-.13c0-.07-.09-.07-.15-.06Z"/><path class="cls-9" d="M83.64,56.53c0-.13-.06-.19-.14-.27s0,.13-.06.2a.1.1,0,0,0,.07.07h0A.08.08,0,0,0,83.64,56.53Z"/><path class="cls-9" d="M24.17,68.23a.09.09,0,0,0-.07-.09c-.06,0-.09,0-.09.07a.08.08,0,0,0,.06.1A.1.1,0,0,0,24.17,68.23Z"/><path class="cls-9" d="M27.41,66.13c.07.08.12,0,.18,0l.05,0c0-.15-.12-.11-.19-.07A.11.11,0,0,0,27.41,66.13Z"/><polygon class="cls-9" points="27.64 66.05 27.64 66.05 27.64 66.06 27.64 66.05"/><path class="cls-9" d="M27.72,65.8c.05.23.18.07.28,0h.07c.12.07.16-.06.24-.08a.36.36,0,0,0,.15-.12.1.1,0,0,0,0-.13.2.2,0,0,1-.15-.07.53.53,0,0,0-.43.27h0A.19.19,0,0,1,27.72,65.8Z"/><path class="cls-9" d="M27.21,66.38c-.05,0,0,.08,0,.11l.07-.08S27.25,66.35,27.21,66.38Z"/><path class="cls-9" d="M26.42,59.88s0-.07-.06-.07-.1,0-.12.09,0,.07.06.07S26.41,60,26.42,59.88Z"/><path class="cls-9" d="M26.14,58c-.1,0,0-.19-.17-.22s0,.27-.1.36,0,.22,0,.32,0-.12.11-.15,0,.23.2.18A1.35,1.35,0,0,1,26.14,58Z"/><path class="cls-9" d="M36.8,49.63V49.5h-.14C36.57,49.68,36.71,49.63,36.8,49.63Z"/><path class="cls-9" d="M90.51,66.48h0c-.09.17-.33.09-.46.27h.38c.11,0,.19-.08.3,0s.07,0,.07-.09l-.07-.06C90.67,66.47,90.57,66.54,90.51,66.48Z"/><path class="cls-9" d="M92.23,63.43c0,.19,0,.22.21.28.06,0,.14,0,.08-.09s-.07-.17.09-.16,0-.05,0-.08l-.07-.08C92.45,63.32,92.26,63.18,92.23,63.43Z"/><path class="cls-9" d="M91.94,63h0l0,0v0c.1.15.2.19.31,0s.07-.06.11-.09,0-.15-.13-.1A.48.48,0,0,1,91.94,63Z"/><path class="cls-9" d="M87.73,59.36h0c.1,0,.18.13.33.1C88,59.35,87.88,59.21,87.73,59.36Z"/><path class="cls-9" d="M84.45,105.46c0,.05,0,.1.08.09s0-.07,0-.11l0-.06h0S84.46,105.43,84.45,105.46Z"/><path class="cls-9" d="M17.9,77.3l.1.14a.28.28,0,0,0,.28.17s.1,0,.14,0h0A.42.42,0,0,0,17.9,77.3Z"/><path class="cls-9" d="M19,77.3c.22-.06,0-.13,0-.2s-.21,0-.19.11S18.92,77.32,19,77.3Z"/><path class="cls-9" d="M20.06,77.17a.14.14,0,0,1,0,.06l.13.07s.1,0,.14.1a.11.11,0,0,0,.08,0,.15.15,0,0,0,.11-.2.12.12,0,0,0-.05-.07.67.67,0,0,0-.15-.06h0l-.07,0h0C20.11,77,20,77,20.06,77.17Z"/><path class="cls-9" d="M77.36,74.91a.2.2,0,0,0,0,.08s0,.07.06.11l.05.06h0a.51.51,0,0,1,.06.36c0,.14,0,.22.17.24h.06a.11.11,0,0,0,.06.09h0V76l.06,0h0c0,.1,0,.23.12.28a.39.39,0,0,0,0-.51h0l0,0c0-.11,0-.22-.06-.31a.61.61,0,0,1-.12-.15h0s0,0-.06-.07l-.16-.33C77.49,74.82,77.42,74.86,77.36,74.91Z"/><path class="cls-9" d="M85.51,95.94l-.15.13s-.19.09,0,.15a.36.36,0,0,0,.29,0h0c.07-.12.14,0,.21,0l0,0v-.06s0,0,0-.05a.92.92,0,0,0,0-.33h-.05l-.3.13Z"/><path class="cls-9" d="M63.44,71.41c0-.09-.09-.1-.16-.11s-.22,0-.23.16a.09.09,0,0,0,.11.11A.36.36,0,0,0,63.44,71.41Z"/><path class="cls-9" d="M69.66,84.8c-.12.06-.08.19-.17.23l-.07.07-.08.06a.09.09,0,0,0,0,.09.19.19,0,0,0,.1.1h.1c.18,0,.09-.19.18-.26h0C69.69,85,69.74,84.89,69.66,84.8Z"/><path class="cls-9" d="M61.33,72.61c-.08-.18-.09-.18-.35-.06,0,.13.14.17.17.31C61.2,72.73,61.23,72.65,61.33,72.61Z"/><path class="cls-9" d="M66.14,78.26c0,.08,0,.17-.08.22v.27h0c0,.08,0,.17.06.21s.17.1.28.07c0-.2-.05-.41.14-.57-.14-.07-.22.09-.32,0S66.23,78.32,66.14,78.26Z"/><path class="cls-9" d="M66.59,78.05c-.07.22.09.41,0,.63.14,0,.13-.11.14-.2s-.06-.29.06-.42,0-.25-.17-.23S66.61,78,66.59,78.05Z"/><path class="cls-9" d="M72.51,76.71a.08.08,0,0,0,.1.07c.1,0,.12-.1.12-.18s0,0-.08-.06S72.5,76.61,72.51,76.71Z"/><path class="cls-9" d="M82.94,91.17l.07.07c.1-.17.09-.21-.08-.28h0s-.05.05-.06.08v.06A.46.46,0,0,1,82.94,91.17Z"/><path class="cls-9" d="M72.21,71.85a.84.84,0,0,1,.07.35c0,.11.09.23.25.15s.11-.18,0-.29a.17.17,0,0,1,0-.07s0-.1-.07-.14l0,0s0,0,0,0a.55.55,0,0,0,0-.18s0-.11,0-.15h0c-.08-.06-.18,0-.27,0s-.15.07-.14.17S72.1,71.81,72.21,71.85Z"/><path class="cls-9" d="M71.63,84.27c-.11,0-.13.07-.14.16s0,.19-.08.25a2.44,2.44,0,0,0-.2.7l0,.12h0l0,0a.43.43,0,0,0-.07.35c0,.1.05.19.19.12l.08-.07a.93.93,0,0,1,.09-.4l0,0h.07a.13.13,0,0,0,0-.14h0a1.62,1.62,0,0,1,0-.49A2,2,0,0,0,71.63,84.27Z"/><path class="cls-9" d="M66,80.28a.21.21,0,0,1-.07.13c0,.14,0,.14.18,0s0,0,0,0a.14.14,0,0,0,0,.12c.11.05.16.18.28.21s.06,0,.07,0,.1-.22,0-.33-.13-.31-.35-.21C66,80.13,66.05,80.27,66,80.28Z"/><path class="cls-9" d="M71,86.88c-.23.07-.18.28-.24.43a.29.29,0,0,0,.06.27.35.35,0,0,0,.21-.07c0-.09,0-.17,0-.26S71.08,87,71,86.88Z"/><path class="cls-9" d="M66.56,84.54v-.12l-.14.06a.57.57,0,0,1,0,.13c0,.13,0,.28.16.35h0A.56.56,0,0,0,66.56,84.54Z"/><path class="cls-9" d="M68.91,82h0s.11.17.15,0,0-.16-.06-.16S68.92,81.93,68.91,82Z"/><path class="cls-9" d="M65.09,67.68c.07.06.13,0,.18,0h0c-.06,0-.07-.13-.16-.07S65.05,67.65,65.09,67.68Z"/><path class="cls-9" d="M65.84,63.23s0,.1,0,.06S65.87,63.24,65.84,63.23Z"/><path class="cls-9" d="M69.77,54.1s.1,0,.14-.05.11-.13,0-.22-.08,0-.12,0l-.06.12S69.71,54.06,69.77,54.1Z"/><path class="cls-9" d="M65.91,51.85a.29.29,0,0,0,0-.09l0,0,0,.07Z"/><path class="cls-9" d="M38.37,61.23a.1.1,0,0,0,.07,0h.12l.07,0a.21.21,0,0,0,.1-.06l.07-.06c0-.08.05-.14-.07-.14l-.06,0a.62.62,0,0,1-.29.12Z"/><path class="cls-9" d="M42.67,59.44l-.16.05h-.13c-.1.11-.27,0-.37.13a.16.16,0,0,1-.06.08h0c0,.06.09.07.16.08a3.23,3.23,0,0,1,.63-.16C42.77,59.55,42.86,59.45,42.67,59.44Z"/><path class="cls-9" d="M10.55,97.17a.12.12,0,0,0-.14-.06l-.07.07C10.42,97.39,10.48,97.16,10.55,97.17Z"/><polygon class="cls-9" points="92.16 72.33 92.16 72.33 92.16 72.34 92.16 72.33"/><path class="cls-9" d="M92,72.1a3.26,3.26,0,0,0-.45-.09.19.19,0,0,0-.16.06c0,.11,0,.19.14.2a.29.29,0,0,1,.22,0l.06,0h.36C92.25,72.16,92.1,72.14,92,72.1Z"/><path class="cls-9" d="M92.36,73.19s0,0,0,0,.06.08.12.09h0C92.44,73.25,92.44,73.19,92.36,73.19Z"/><path class="cls-9" d="M91.09,72l-.38,0c.11.19.37.07.45.26.1,0,.15,0,.09-.14l-.1-.13Z"/><path class="cls-9" d="M90.28,72c0,.08.06.14.16.17s0,0,.07.06c.24-.07,0-.14,0-.21S90.34,71.86,90.28,72Z"/><path class="cls-9" d="M92.47,71.89c.12.21,0,.33-.16.44h0s.11,0,.15.07a.23.23,0,0,1,.15.07h.05a.11.11,0,0,1,.15,0h0a.32.32,0,0,0,.09,0,.17.17,0,0,0,.1,0,.15.15,0,0,0,.1.11h0a10,10,0,0,0,1.25.11c-.08-.12-.2-.08-.26-.17l-.2-.08a2.12,2.12,0,0,0-.43-.06h-.28a.13.13,0,0,1,0-.06.68.68,0,0,0-.43-.13c-.11-.15,0-.37-.21-.5A.13.13,0,0,0,92.47,71.89Z"/><path class="cls-9" d="M92.17,79.07c0,.05,0,.08.08.07a.13.13,0,0,0,0-.09.06.06,0,0,0-.05-.06C92.18,79,92.17,79,92.17,79.07Z"/><path class="cls-9" d="M16.07,86a.17.17,0,0,1-.15-.07l-.29.07h0a.08.08,0,0,0,0,.13c.1,0,.21,0,.28.07a.4.4,0,0,0,.28-.07A.12.12,0,0,0,16.07,86Z"/><path class="cls-9" d="M78.29,55h0a2,2,0,0,0-.06.23s0,.08.09.1.08,0,.09,0,.25-.33.09-.57C78.4,54.84,78.41,55,78.29,55Z"/><path class="cls-9" d="M84.87,58.53l.07.07a.23.23,0,0,0,.28-.13h0a.46.46,0,0,1-.07-.07h0C84.89,58.34,84.89,58.34,84.87,58.53Z"/><path class="cls-9" d="M85.16,60.54h0s-.05,0-.08-.06h-.13l0,0a0,0,0,0,1,0,0l-.08-.06c-.05-.06-.12,0-.19,0s-.17,0-.24,0h0a.06.06,0,0,0-.08,0h0a.24.24,0,0,1-.23,0h-.35c-.09,0-.14-.15-.24,0a0,0,0,0,0,0,.06c.06.11.17,0,.26.06v.07a.36.36,0,0,0,.12.08.67.67,0,0,1,.18.07,3,3,0,0,0,1,.19C85,60.73,85.16,60.72,85.16,60.54Z"/><path class="cls-9" d="M80.72,58.75l.07-.07v-.17c0-.21-.08-.07-.15,0v.06C80.62,58.62,80.54,58.73,80.72,58.75Z"/><path class="cls-9" d="M81.5,58.6h.14v-.14C81.54,58.46,81.5,58.51,81.5,58.6Z"/><path class="cls-9" d="M82.93,60.12a.1.1,0,0,0-.06,0L82.72,60a1.13,1.13,0,0,0-.27-.13l-.12,0-.07,0-.12,0h-.08a.34.34,0,0,1-.2,0,.24.24,0,0,0-.12,0s-.07,0-.1,0l-.09,0c-.18,0-.16.11-.07.22a.28.28,0,0,0,.17.09c.1,0,.19-.06.28,0a2.32,2.32,0,0,1,.38.07,1.37,1.37,0,0,0,.48.13c0,.05.11,0,.14.08h0C83.09,60.27,83,60.2,82.93,60.12Z"/><path class="cls-9" d="M82.86,59.92h0c.11.06.26,0,.36.14h0c.08,0,.14,0,.14-.13a.5.5,0,0,0-.49-.14C82.82,59.83,82.82,59.87,82.86,59.92Z"/><path class="cls-9" d="M78.94,57.22c.06,0,.13.09.16,0S79.21,57,79,57L79,57Z"/><path class="cls-9" d="M87,59.1c.17-.13-.08-.2,0-.31s-.09-.1-.16-.12c-.24,0-.24,0-.2.14l.07.06C86.77,59,86.8,59.15,87,59.1Z"/><path class="cls-9" d="M86.15,58.2c-.11,0-.15,0-.14.13l.07.06C86.29,58.39,86.18,58.28,86.15,58.2Z"/><path class="cls-9" d="M72.06,51.64a.13.13,0,0,1,.14-.07.38.38,0,0,1,.13-.24s.1-.09,0-.14a.13.13,0,0,0-.19,0c-.09.17-.31.24-.41.41,0,0,0,0,0,0s-.17,0-.1.15.12,0,.18,0S72,51.7,72.06,51.64Z"/><path class="cls-9" d="M72.28,50.81h0a0,0,0,0,0,0,.06h0l.07.06a.08.08,0,0,0,.07,0l.08-.13a.14.14,0,0,0,0-.06C72.38,50.66,72.33,50.74,72.28,50.81Z"/><path class="cls-9" d="M71.21,49.72c0,.06,0,.15.06.17s.13-.06.14-.13,0-.21-.13-.12Z"/><path class="cls-9" d="M28.44,62c.08,0,.06-.12,0-.18a1.51,1.51,0,0,0-.11-.22s-.05,0-.08-.06c-.18.08-.18.09-.06.33,0,0,0,0,.05.05S28.36,62.08,28.44,62Z"/><path class="cls-9" d="M27,67.68c0,.17.25,0,.38,0h.1a.41.41,0,0,0,.3-.1c.1-.19.31-.29.43-.48h.07c0-.1,0-.2-.07-.27,0-.23,0-.24-.22-.15s-.25.27-.43.35l-.21.34C27.2,67.43,27,67.49,27,67.68Z"/><path class="cls-9" d="M26.93,61.78l-.07-.07h0a.1.1,0,0,0-.14,0,.33.33,0,0,0,.07.27C27,62,26.94,61.88,26.93,61.78Z"/><path class="cls-9" d="M27.08,59.44s.07-.1,0-.15-.11,0-.16,0l-.08.07a.15.15,0,0,0,.15.15Z"/><path class="cls-9" d="M26.49,61s0,0,0,0,0,.13.11.14l0-.06C26.56,61.05,26.58,61,26.49,61Z"/><path class="cls-9" d="M92.78,71.88l.38.19c.08,0,.17,0,.24,0a.3.3,0,0,0-.17-.18C93.09,72,92.94,71.8,92.78,71.88Z"/><path class="cls-9" d="M92.59,67.79h-.14a.57.57,0,0,1,0,.13h.07c.12,0,.26,0,.36-.08h0C92.79,67.78,92.67,67.86,92.59,67.79Z"/><path class="cls-9" d="M90,66.88c-.23-.08-.43.08-.64.07a.18.18,0,0,0-.14,0,.09.09,0,0,0-.06.06.14.14,0,0,0,0,.17c.07.06.14.18.21,0s.44,0,.65-.06h0Z"/><path class="cls-9" d="M87.22,62.34c0-.05-.1,0-.14-.08h0L87,62.2h0a.06.06,0,0,0-.09,0,.12.12,0,0,0,0,.08,1.75,1.75,0,0,0,.08.51.22.22,0,0,0,.05.08s.09,0,.14,0c0-.18-.05-.37.07-.54Z"/><path class="cls-9" d="M91,63c-.07,0-.15,0-.2.06s.06.15.17.16S91,63.1,91,63Z"/><path class="cls-9" d="M91.61,63.26l-.09,0h0S91.56,63.32,91.61,63.26Z"/><path class="cls-9" d="M21,75s-.06,0-.1,0l-.07.12h.05S21,75.1,21,75Z"/><path class="cls-9" d="M75.82,72a.22.22,0,0,0,.36.1l-.12-.17c-.07,0,0-.12-.08-.17s-.2-.17-.33-.05C75.7,71.81,75.77,71.9,75.82,72Z"/><path class="cls-9" d="M78.89,98.32l-.15,0a.27.27,0,0,0-.17.19c0,.07.1.07.16.08s.32,0,.47-.09C79.33,98.17,79,98.36,78.89,98.32Z"/><path class="cls-9" d="M79.5,96.89a1.07,1.07,0,0,1-.15.22c0,.06.05,0,.08.06s0,0,0,0,0,0,0,0h0c.07-.06.16,0,.22-.07h0c.18,0,.28-.13.08-.27h-.14S79.54,96.85,79.5,96.89Z"/><path class="cls-9" d="M82.57,97.31c-.17.11-.45,0-.57.21h0a.2.2,0,0,0-.08.08h-.06v0l-.15.07-.19,0h-.16l-.08,0-.1,0a.44.44,0,0,1-.16,0,.09.09,0,0,0-.07,0c0,.11,0,.19.14.2a6.28,6.28,0,0,1,.86-.19c.16,0,.26-.17.42-.09a.16.16,0,0,0,.21-.07c.13,0,.2-.13.29-.2l0-.07c0-.06-.09-.15-.19-.14s-.11,0-.15.07Z"/><path class="cls-9" d="M85,95.64c0,.08.06.07.11.09h0c0-.06,0-.12-.09-.12S85,95.63,85,95.64Z"/><path class="cls-9" d="M70.42,89.45v.34h.06a.31.31,0,0,0,.07-.2C70.48,89.57,70.52,89.45,70.42,89.45Z"/><path class="cls-9" d="M64.91,81.16a.42.42,0,0,1-.21.08c0,.05-.11.09-.15.14s-.1.12,0,.17.11,0,.17,0,.27-.11.29-.28Z"/><path class="cls-9" d="M65,79.92s0,0,0,.07h.2c0-.15,0-.2-.19-.12A.13.13,0,0,0,65,79.92Z"/><path class="cls-9" d="M66.41,74.75v-.13c0-.07,0-.16-.12-.05S66.28,74.75,66.41,74.75Z"/><path class="cls-9" d="M70.63,86.27a.32.32,0,0,1-.14.14c0,.15.11.14.21.13a.11.11,0,0,0,.07-.06l.08-.14A.14.14,0,0,0,70.63,86.27Z"/><path class="cls-9" d="M67,75.13S67,75,67,75s-.18-.12-.2.06v.2C66.89,75.3,67,75.26,67,75.13Z"/><path class="cls-9" d="M67,74.75H67l0-.13s0-.1-.07-.14h0c-.16-.08-.23,0-.3.14l-.06.15c0,.12.05.13.14.07S66.93,74.84,67,74.75Z"/><path class="cls-9" d="M70.92,86.34a.19.19,0,0,0,.21.13c0-.11.05-.23-.06-.32A.23.23,0,0,1,70.92,86.34Z"/><path class="cls-9" d="M72.34,61.44h0c.07,0,.16.12.19,0s0-.11-.13-.11S72.33,61.38,72.34,61.44Z"/><path class="cls-9" d="M72.71,53.43h0c-.06.06,0,.15-.06.21h0a2.62,2.62,0,0,0,0,.28V54a.44.44,0,0,0,0,.34h0a.11.11,0,0,0-.09,0c-.07.15-.14.29,0,.45a2.46,2.46,0,0,0-.1.41c0,.21,0,.43-.09.63a2,2,0,0,0-.09.76h.08l0,0s.05,0,.07-.06l0-.09a1.69,1.69,0,0,1,.07-.38,6.27,6.27,0,0,0,.18-1.37c0-.1,0-.21,0-.31l0-.05h.06c0-.16.1-.3.08-.47s0-.15.06-.21a1.34,1.34,0,0,0,0-.2.14.14,0,0,0-.08-.15h0S72.75,53.39,72.71,53.43Z"/><path class="cls-9" d="M70.84,52.84s0,0,0-.05,0,0-.05,0,0,0,0,0S70.82,52.86,70.84,52.84Z"/><path class="cls-9" d="M31.67,63.81l.12-.05.07,0c.1,0,.1-.14.14-.22a4.31,4.31,0,0,1,.51-.62.13.13,0,0,0,.06-.07h0c0-.05-.07-.06-.12-.06h0l-.09,0-.14.08c-.08,0-.17.06-.2.15s-.22.23-.3.36a.71.71,0,0,1-.1.14l0,0-.06.06-.07,0-.09.08a.11.11,0,0,0,0,.08.13.13,0,0,0,.07.09h.09l.11,0Z"/><path class="cls-9" d="M33.59,63.58a.15.15,0,0,0-.14-.07.17.17,0,0,1-.15.06c-.2,0-.25.13-.33.24s0,.1.11.11a.62.62,0,0,1,.43-.14A.16.16,0,0,0,33.59,63.58Z"/><path class="cls-9" d="M20.57,92.41v-.07a2.44,2.44,0,0,0,0-.27l0,0,0,0h.06s0,0,0-.07a.56.56,0,0,1-.08-.27h-.14v.55h-.06c0,.25,0,.28.2.27Z"/><path class="cls-9" d="M20.53,95.32a2.26,2.26,0,0,1,.63-.17.18.18,0,0,0,.07-.05c-.05-.15.11,0,.13-.11a.13.13,0,0,0,.06-.07c0-.17-.09-.17-.22-.1A.53.53,0,0,0,21,95a.35.35,0,0,1-.4,0v0a.21.21,0,0,0-.07-.13h0c.28-.06.13-.28.16-.43a8.83,8.83,0,0,1,0-.89,1,1,0,0,0,0-.24v0c0-.12-.15-.21-.06-.35s0,0,0-.06a.17.17,0,0,1-.07-.14c-.06,0-.1,0-.09.1s.07.27,0,.39a1.73,1.73,0,0,1-.12.9.23.23,0,0,0,0,.2.77.77,0,0,1,0,.34,1.48,1.48,0,0,1,0,.21c-.07.11,0,.22,0,.34a.31.31,0,0,0-.06.13.71.71,0,0,0,0,.14.13.13,0,0,0,.1.09.09.09,0,0,0,.08,0A.76.76,0,0,0,20.53,95.32Zm-.09-.67h0Z"/><path class="cls-9" d="M22.07,86h0s.05,0,.06-.08v-.13a.13.13,0,0,0-.21,0c-.06.08,0,.11.09.15S22.05,86,22.07,86Z"/><path class="cls-9" d="M22.63,87.36a.25.25,0,0,1,.15-.06v-.11a.17.17,0,0,0-.18,0l0,0C22.56,87.24,22.55,87.32,22.63,87.36Z"/><path class="cls-9" d="M73.78,51.65v.13C73.86,51.74,73.86,51.69,73.78,51.65Z"/><polygon class="cls-9" points="71.63 52.19 71.63 52.19 71.63 52.19 71.63 52.19"/><path class="cls-9" d="M71.2,52.08a.19.19,0,0,0,0,.25c.06.06.16,0,.23,0a.25.25,0,0,0,.17-.11,1.08,1.08,0,0,1-.3-.46A2.84,2.84,0,0,1,71.2,52.08Z"/><path class="cls-9" d="M24.54,69.13c-.11,0-.12.08-.19.09h0s-.07.13,0,.11A.18.18,0,0,0,24.54,69.13Z"/><path class="cls-9" d="M28.65,65h0c.07.12.15,0,.22,0V65s0,0-.07,0h-.07Z"/><path class="cls-9" d="M25.86,68.61h0c-.05-.07-.12-.11-.17,0s.06.07.11.08h0A.46.46,0,0,1,25.86,68.61Z"/><path class="cls-9" d="M31.52,69.37s0,.1.05.13c.3-.13.5-.41.79-.55,0-.09.23-.18,0-.27H32.3A4.28,4.28,0,0,0,31.52,69.37Z"/><path class="cls-9" d="M32.79,68.32l-.07,0-.06.07h0l-.08.06h0l-.07.07.08.08c.1,0,.22,0,.21-.15A.76.76,0,0,1,32.79,68.32Z"/><polygon class="cls-9" points="32.51 68.54 32.51 68.54 32.51 68.54 32.51 68.54"/><path class="cls-9" d="M29.76,65.55l0,.07v0c.06.08.12,0,.17,0s0-.1.1-.13h0s.11,0,.14-.07h0a.27.27,0,0,0,.08-.07c.12-.09.13-.27.29-.33a.13.13,0,0,1,.13-.08.27.27,0,0,0,.08-.07h0c.05-.07.06-.16.11-.23s0-.17-.17-.1-.19.28-.36.34a.56.56,0,0,0-.3.17.16.16,0,0,0,0,.08.5.5,0,0,1-.09.21l-.05.07s0,.07,0,.1Z"/><path class="cls-9" d="M29.29,66c0-.1.23-.18.07-.33h0l-.1.06-.11.08h0c-.06.1-.09.18.07.21Z"/><path class="cls-9" d="M29.44,58.6l-.15,0-.07.06c0,.07-.13.06-.2.08a.29.29,0,0,0,.41.05A1.48,1.48,0,0,0,29.44,58.6Z"/><path class="cls-9" d="M91.65,71.73c-.1,0-.21,0-.13.12C91.61,71.85,91.66,71.82,91.65,71.73Z"/><path class="cls-9" d="M87.15,61.65s0,0,0,.05l.56.09c.17,0,.13-.12.07-.22h-.21C87.44,61.6,87.27,61.51,87.15,61.65Z"/><path class="cls-9" d="M79.82,102.94c-.06.1,0,.19.11.23s.13-.19.2-.29v0s-.06-.1-.08-.1S79.87,102.85,79.82,102.94Z"/><path class="cls-9" d="M84,101.23s0-.07,0-.11h0a.46.46,0,0,1-.07.07A.07.07,0,0,0,84,101.23Z"/><path class="cls-9" d="M22.28,75.86l-.17,0c-.05,0-.12,0-.15,0s0,.1.05.15.2,0,.28-.07A.13.13,0,0,1,22.28,75.86Z"/><path class="cls-9" d="M24.94,74c-.13,0-.24.08-.15.24s.17,0,.2,0,.29.08.44,0C25.36,74,25.12,74,24.94,74Z"/><path class="cls-9" d="M26.59,74c.06.1.15,0,.22,0a1.27,1.27,0,0,0,.35-.27c.23-.22.31-.56.55-.77,0-.11.09-.2,0-.35l-.36.43a.34.34,0,0,1-.11.18,2.41,2.41,0,0,0-.4.44h0l-.07.06a.25.25,0,0,1-.12.13C26.61,73.87,26.55,73.93,26.59,74Z"/><path class="cls-9" d="M77,94.7c-.08,0-.06.13-.06.2C77.12,94.88,77,94.79,77,94.7Z"/><path class="cls-9" d="M77.28,98.35a1,1,0,0,0-.5.13c0,.08.13.07.21.07S77.34,98.62,77.28,98.35Z"/><path class="cls-9" d="M77.94,98.15a.59.59,0,0,0,0,.13c0,.24,0,.24.25.13,0,0,.05,0,.07-.06l0,0s0,0,0,0h.06a.7.7,0,0,1,.22-.2h.06c0-.06.07-.12-.06-.13S78.16,98.14,77.94,98.15Z"/><path class="cls-9" d="M77.71,98.2l-.14,0-.07,0v.06h.24c.05,0,.09,0,.08-.07S77.75,98.22,77.71,98.2Z"/><path class="cls-9" d="M76.63,97.7a.09.09,0,0,0,.11-.07c0-.07,0-.09-.11-.11a.08.08,0,0,0-.1.06A.11.11,0,0,0,76.63,97.7Z"/><path class="cls-9" d="M80.63,101.4c-.16,0-.26,0-.26.18a.31.31,0,0,0,.19,0l.07-.06Z"/><path class="cls-9" d="M65.12,81.93v-.34c-.06,0-.13-.08-.18,0a.4.4,0,0,0,.11.47h0a.08.08,0,0,0,0-.11s0,0,0,0l0,0Zm-.08,0h0Z"/><path class="cls-9" d="M76.28,65.47s0,.07,0,.07.1-.05.1-.11,0-.09,0-.08S76.29,65.4,76.28,65.47Z"/><path class="cls-9" d="M65.69,88a.18.18,0,0,0,0-.1.16.16,0,0,0,0-.15,1.14,1.14,0,0,0-.23-.15.09.09,0,0,0-.09,0,.24.24,0,0,0-.07.18,1.93,1.93,0,0,0,0,.34,1.14,1.14,0,0,1,0,.55l0,.13V89a.2.2,0,0,0,.06.07h0c.06,0,.11,0,.09.11a.92.92,0,0,0,0,.37c0,.12.11.12.21.08s0,0,.06-.08h0c0-.07,0-.1-.06-.14s0,0,0-.06A2.6,2.6,0,0,1,65.69,88Z"/><path class="cls-9" d="M68.59,92.2h.1v-.06l-.06,0s-.09,0-.11,0S68.54,92.2,68.59,92.2Z"/><path class="cls-9" d="M68.44,92.49s0,0,0,0h0c0-.07,0-.15-.06-.19v.19h0Z"/><path class="cls-9" d="M68.42,91.44c.11,0,.2,0,.21-.13s-.14,0-.21,0Z"/><path class="cls-9" d="M65.56,83.71c.09,0,0,.25.2.15v-.14C65.7,83.71,65.64,83.6,65.56,83.71Z"/><path class="cls-9" d="M60.56,75.38c0,.08,0,.11.11.11a.53.53,0,0,0,.08-.25A.16.16,0,0,0,60.56,75.38Z"/><path class="cls-9" d="M46,68.33a.31.31,0,0,0,.29.06.18.18,0,0,0,.09-.06.1.1,0,0,0,0-.13h0a4.85,4.85,0,0,1-.49-.29h0a.16.16,0,0,1-.08-.06.46.46,0,0,0-.07-.07.46.46,0,0,1-.07-.07h0c-.13.06-.13.15-.05.24s.16.09.19.18h0l.08.06a.46.46,0,0,1,.07.07.23.23,0,0,0,.07.07Z"/><path class="cls-9" d="M53.9,67.31v0l.08,0C54,67.28,53.94,67.31,53.9,67.31Z"/><path class="cls-9" d="M31,64.47s0,0,0-.07,0-.1.07-.13h0a.24.24,0,0,0-.22-.15l-.21.07a.23.23,0,0,1-.07.07h0a.13.13,0,0,0,.14.07s0,0,0,0,0,0,.05,0,.06,0,.07,0A.13.13,0,0,0,31,64.47Z"/><path class="cls-9" d="M89.51,71.3a.1.1,0,0,0-.15,0,.07.07,0,0,0,0,.11h0s.09.07.14,0V71.3Z"/><path class="cls-9" d="M81.43,71.85h0c.06-.07.16,0,.22-.06v-.08H81.3A.19.19,0,0,0,81.43,71.85Z"/><path class="cls-9" d="M22.17,83.94c0-.07-.09-.14-.19-.12s-.05.11-.05.17a.87.87,0,0,0,0,.18l.12-.08C22.1,84.05,22.23,84.06,22.17,83.94Z"/><path class="cls-9" d="M78.79,59.3a.3.3,0,0,0,0,.1c0,.06-.06.14,0,.17a.15.15,0,0,0,.18-.08s0-.08,0-.13A.26.26,0,0,0,78.79,59.3Z"/><polygon class="cls-9" points="27.5 73.51 27.5 73.51 27.5 73.51 27.5 73.51"/><path class="cls-9" d="M27.48,73.54l0,0S27.46,73.53,27.48,73.54Z"/><path class="cls-9" d="M31.51,58.12c0-.09-.05-.13-.14-.13a.23.23,0,0,0-.07.07C31.35,58.14,31.43,58.13,31.51,58.12Z"/><path class="cls-9" d="M88.35,67.07h0s0,0,0,0h0Z"/><path class="cls-9" d="M89,67l0,0,0,0Z"/><path class="cls-9" d="M89.41,70.6s-.06,0-.11,0v.12C89.36,70.67,89.43,70.67,89.41,70.6Z"/><path class="cls-9" d="M80.6,104.3c.07.07.12,0,.18,0v0c-.06,0-.11-.1-.18,0A.07.07,0,0,0,80.6,104.3Z"/><path class="cls-9" d="M77.5,104.21c0,.07,0,.2.11.14s.24,0,.24-.2h0a.23.23,0,0,0-.07-.07.16.16,0,0,0-.07,0l-.08.06Z"/><path class="cls-9" d="M23.21,74.61c-.05,0-.07-.11-.12-.09s0,.11,0,.15l.11.08h0A.65.65,0,0,0,23.21,74.61Z"/><path class="cls-9" d="M72.28,98.69s-.12.07-.09.12.1,0,.16,0,0-.09,0-.13Z"/><path class="cls-9" d="M76.28,99.1a.3.3,0,0,0,.29,0c0-.06.07-.14-.06-.15S76.29,99,76.28,99.1Z"/><path class="cls-9" d="M77.41,98.57c-.15,0-.27.08-.41.05s0,.14.07.2c.17,0,.23-.14.35-.2A.43.43,0,0,0,77.41,98.57Z"/><path class="cls-9" d="M73.42,99.1c0,.05-.11,0-.14.07h-.14l-.36.21c-.14,0-.25,0-.22.19s.18.13.3.07a1.51,1.51,0,0,1,.31-.16c.14-.07.37,0,.39-.25,0-.09,0-.13-.14-.14Z"/><path class="cls-9" d="M79.15,103.37h0s.09-.08.06-.14-.05,0-.08,0S79.11,103.32,79.15,103.37Z"/><path class="cls-9" d="M74,105a.26.26,0,0,0-.27,0,4.5,4.5,0,0,0-1.16.07.33.33,0,0,1-.34-.07c-.13,0-.08.11-.15.13a.59.59,0,0,1-.35.08c-.26,0-.51.09-.77.07,0,.25.19.19.33.2s.38.08.5-.12l.06,0a9.49,9.49,0,0,0,1.51-.06,1.17,1.17,0,0,0,.6-.16S74.11,105,74,105Z"/><path class="cls-9" d="M75.54,100s0-.05,0-.08l-.28.07c0,.17.12.09.18.11A.1.1,0,0,0,75.54,100Z"/><path class="cls-9" d="M62,83.51s0,.12.09.11a0,0,0,0,0,0,0C62.1,83.52,62,83.52,62,83.51Z"/><path class="cls-9" d="M77.85,71.1s0,0,0,.05c.2,0,.21,0,.15-.13S77.88,71,77.85,71.1Z"/><path class="cls-9" d="M65.29,86.63s0,.07.06.07.06,0,.05,0,0-.07-.05-.07S65.29,86.59,65.29,86.63Z"/><path class="cls-9" d="M59.38,78.84h-.11c-.08.08-.1.21-.23.26-.18.26-.16.32.14.34,0-.06,0-.15,0-.16C59.47,79.19,59.4,79,59.38,78.84Z"/><path class="cls-9" d="M60.46,77.93l-.06-.07c-.08,0-.18,0-.18.08s0,.19.16.18S60.47,78,60.46,77.93Z"/><path class="cls-9" d="M55.6,74l-.06-.13c-.1,0-.15,0-.14.14Z"/><path class="cls-9" d="M48,69.23c0,.1,0,.16.1.14s.49-.19.72,0l0-.09c-.13-.06,0-.21-.08-.27a.57.57,0,0,1-.35-.14c-.05.11-.09.23-.26.2S48,69.13,48,69.23Z"/><path class="cls-9" d="M86.94,70.06H87c.09-.1,0-.14-.07-.19h0C86.76,69.93,86.82,70,86.94,70.06Z"/><path class="cls-9" d="M81.93,71.24h-.07c-.07.08,0,.19-.06.27l.07.07H82l.07-.07C82.23,71.31,82,71.32,81.93,71.24Z"/><path class="cls-9" d="M82.73,69.56s.1,0,.08-.09-.1,0-.15,0a0,0,0,0,0,0,0Z"/><path class="cls-9" d="M24.14,87.06s0,0-.05,0,0,0,0,0,0,0,.05,0S24.18,87.06,24.14,87.06Z"/><path class="cls-9" d="M37.09,84a.44.44,0,0,0-.15-.35,3.94,3.94,0,0,1-.36-.89c-.09.12,0,.26-.13.33-.05.22.17.33.22.52a1.81,1.81,0,0,0,.27.58C37.09,84.21,37.08,84.1,37.09,84Z"/><path class="cls-9" d="M37.78,86.29a.3.3,0,0,1-.05-.22.71.71,0,0,0,0-.29c0-.24-.16-.43-.2-.66a.12.12,0,0,0-.08,0h0V85h-.06c-.05-.06-.1-.07-.15,0a.21.21,0,0,0,0,.31.67.67,0,0,1,.15.48.64.64,0,0,0,.07.27.13.13,0,0,1,.06.07l.08.21a.12.12,0,0,1,.08.12A.14.14,0,0,0,37.78,86.29Z"/><path class="cls-9" d="M36.3,85.31h-.11c-.06,0-.13,0-.14.06s0,.1.09.13.26,0,.37-.06S36.34,85.39,36.3,85.31Z"/><path class="cls-9" d="M35.07,72.76H35c0,.12-.06.26.14.28S35.1,72.85,35.07,72.76Z"/><path class="cls-9" d="M26.5,79.51a.12.12,0,0,0,.14-.14.36.36,0,0,0-.28-.13c0,.13.06.2.14.27Z"/><path class="cls-9" d="M69.59,97.79s0,.07,0,.11.08,0,.13,0v-.07S69.62,97.78,69.59,97.79Z"/><path class="cls-9" d="M71.53,98.92c.23.06.23.06.25-.09C71.69,98.84,71.58,98.81,71.53,98.92Z"/><path class="cls-9" d="M69.16,102.33c0,.13-.14.18-.25.22l-.07.14c0,.09,0,.1.1.11H69l.09,0c.12-.06.28-.06.36-.2l-.14-.13a.15.15,0,0,0-.07-.14S69.17,102.29,69.16,102.33Z"/><path class="cls-9" d="M73.35,101l-.07.06c-.06.11,0,.17.1.13s.27-.14.4-.2.1,0,.14-.07h0c0-.08-.14-.07-.22-.07a.12.12,0,0,1-.08.06Z"/><path class="cls-9" d="M74.9,105.21s0,.07.08.09l.08-.06C75,105.18,75,105.14,74.9,105.21Z"/><path class="cls-9" d="M60.58,91.49a.15.15,0,0,0,0,.23l.09-.13a.21.21,0,0,1,.06-.08h0C60.71,91.45,60.64,91.42,60.58,91.49Z"/><path class="cls-9" d="M65.27,88.21c0-.1-.1-.15-.2-.07a.91.91,0,0,0-.07.14C65.13,88.38,65.22,88.38,65.27,88.21Z"/><path class="cls-9" d="M78.86,63.78c0,.1,0,.14.14.14A.13.13,0,0,0,78.86,63.78Z"/><path class="cls-9" d="M46.92,70.74a.28.28,0,0,0,0,.09.36.36,0,0,0,.07.1l0,0,.13-.06c.11,0,.27,0,.28-.14h0c-.14-.1-.38-.09-.35-.35-.07,0-.12,0-.16,0S46.92,70.64,46.92,70.74Z"/><path class="cls-9" d="M47.89,71.05s0,0,0,0,.06.07.11.09h0S48,71.05,47.89,71.05Z"/><path class="cls-9" d="M45.92,69.78H46A.24.24,0,0,0,46,69.7s-.08-.06-.11,0S45.87,69.77,45.92,69.78Z"/><path class="cls-9" d="M47,69.37c0,.19.17.16.28.2.17-.14,0-.18-.08-.27L47,69.17a.14.14,0,0,0-.06.13A.17.17,0,0,0,47,69.37Z"/><path class="cls-9" d="M21.57,96.89c-.07,0-.16,0-.23,0,.1,0,.2.06.28,0Z"/><path class="cls-9" d="M23.21,97.93c.06-.07,0-.16.07-.23v-.32h0c0-.09,0-.19-.12-.19s0,.11,0,.17h0a.06.06,0,0,0,0,.09h0a0,0,0,0,1,0,.07v.13s0,.11-.06.14h0c0,.08-.05.22.14.14Z"/><path class="cls-9" d="M86.37,69.94h-.06s0,0,0,0a.1.1,0,0,0,.09,0S86.4,70,86.37,69.94Z"/><path class="cls-9" d="M26.14,92.89a1,1,0,0,0,0-.34c0-.06-.05-.06-.09-.07-.12.17-.07.4-.22.55h0c-.05.08-.07.16,0,.22s.15,0,.21-.07a.34.34,0,0,0,.06-.24Z"/><path class="cls-9" d="M84.29,66.34a1.14,1.14,0,0,1-.57-.28h0l-.08,0c0-.13-.27,0-.3-.16a.4.4,0,0,1-.06-.22c0-.06,0-.15-.13-.23,0,.23-.07.34-.29.38.19.23.5.19.65.4a4.44,4.44,0,0,0,1,.56c.07,0,.15,0,.19-.06l-.06-.07c0-.07-.15-.08-.2-.15A.38.38,0,0,1,84.29,66.34Z"/><path class="cls-9" d="M28.21,85.23l.07-.06c0-.13.15-.21.15-.34s0-.16-.14-.08-.41.21-.29.49h0A.17.17,0,0,0,28.21,85.23Z"/><path class="cls-9" d="M27.64,87.31l-.14.06a.09.09,0,0,0-.14,0c0,.06,0,.09.08.12h.21A.15.15,0,0,0,27.64,87.31Z"/><path class="cls-9" d="M37.3,84.61s0,0,0,0c-.18-.11-.2-.1-.21.11a.23.23,0,0,1,.07.14C37.26,84.77,37.21,84.65,37.3,84.61Z"/><path class="cls-9" d="M36.94,79c-.09,0-.12-.16-.22-.09s0,.16,0,.24v0h.13A.19.19,0,0,0,36.94,79Z"/><path class="cls-9" d="M36.05,74.66l0,.06,0,0s0,0,0-.06Z"/><path class="cls-9" d="M70.63,99.72l-.14.07c-.31.11-.31.11-.44-.18,0,0,0,0-.13,0h0a.28.28,0,0,1,0,.29h0s0,0,0,.07h0a.17.17,0,0,1,0,0c0,.14,0,.19.15.14h0l0,0c.24.07.37-.12.53-.23l.13-.08.07-.06s.06-.1,0-.14S70.67,99.7,70.63,99.72Z"/><path class="cls-9" d="M70.56,101a.18.18,0,0,0,.29,0h.2s.22-.09,0-.14h-.28C70.62,100.76,70.57,100.84,70.56,101Z"/><path class="cls-9" d="M71,99.93h.25l.08-.06s.07-.07.08-.11,0,0-.08,0A.42.42,0,0,0,71,99.93Z"/><path class="cls-9" d="M71.12,99.53h-.2c0,.06-.08.14,0,.18s.13,0,.17-.08S71.11,99.56,71.12,99.53Z"/><path class="cls-9" d="M67.27,102.28c-.16-.07-.31,0-.46,0a.29.29,0,0,0-.13.08.11.11,0,0,0,0,.14.08.08,0,0,0,.07,0s.1,0,.15-.06h.21c.08-.07.2,0,.29-.06l.42-.08c-.12-.19-.28-.07-.43-.06Z"/><path class="cls-9" d="M70.19,101.17c-.09-.11-.22,0-.34-.06s.07.15.18.11Z"/><path class="cls-9" d="M70,105.79c-.2,0-.34.12-.34.34s0,.15.14.12l.13,0a.56.56,0,0,1,.43-.21s0,0,0-.07.21,0,.25-.09-.08-.12-.13-.18h0a.31.31,0,0,1-.23.06h0l-.08.06h0a.16.16,0,0,0-.07,0Z"/><path class="cls-9" d="M47,84.72c0,.06,0,.13-.07.18l0,0a.47.47,0,0,0-.05.26c0,.13,0,.29.14.36a.17.17,0,0,0,.1,0c0-.12-.12-.23,0-.35s0-.29.08-.41a.3.3,0,0,0-.07-.11S47,84.67,47,84.72Z"/><path class="cls-9" d="M56,89.79c0-.07.11-.14,0-.21h0a.11.11,0,0,0-.08,0,.57.57,0,0,1-.18,0l-.09,0-.2,0h-.59l.19.13c.14,0,.24,0,.22.2a.11.11,0,0,0,.07.14h.14v-.1l0,0,0,0a.2.2,0,0,1,.09,0c.07,0,0,.07,0,.11s-.09.17,0,.25h.19c.14,0,.33,0,.41-.11S56,89.94,56,89.79Z"/><path class="cls-9" d="M56.22,87.33l0,.09s.08.13.15.08.06-.17,0-.26v-.07h0l-.06-.08c0-.06,0-.12-.08-.19s-.06.18-.07.27S56.2,87.28,56.22,87.33Z"/><path class="cls-9" d="M51.21,89.19c-.14,0,0,.17,0,.25h0l.07.07h0c.08,0,.11,0,.14-.07v-.06C51.29,89.34,51.35,89.14,51.21,89.19Z"/><path class="cls-9" d="M58.25,87.3a.14.14,0,0,0,.11,0l.09-.07,0,0c0-.08,0-.16-.08-.21a1.2,1.2,0,0,0-.28.27A.12.12,0,0,0,58.25,87.3Z"/><path class="cls-9" d="M60.5,92.13c0,.08.06.11.12.14h0l.07-.06h0c0-.06,0-.13-.12-.12S60.5,92.1,60.5,92.13Z"/><path class="cls-9" d="M59.89,92.75c0,.18.1,0,.16,0h0a.16.16,0,0,0-.07-.14h0l-.08.07S59.89,92.73,59.89,92.75Z"/><path class="cls-9" d="M60.84,91.8c0,.15.08.08.14.06A.12.12,0,0,0,60.84,91.8Z"/><path class="cls-9" d="M59.76,92.9s0,.1-.08.13h0a.11.11,0,0,1-.07.06h-.07a.11.11,0,0,0-.07.11s0,.05.07,0h.29c0-.08,0-.16.08-.21V93c0-.12-.06-.12-.14-.07Z"/><path class="cls-9" d="M48.46,76l0,0s0,0,0,0a.13.13,0,0,0-.15.14.09.09,0,0,0,0,.07.06.06,0,0,0,0,.06l.13,0A.3.3,0,0,0,48.46,76Z"/><path class="cls-9" d="M27,82.27s-.08-.07-.14,0,0,0,0,.06.1,0,.16,0Z"/><path class="cls-9" d="M23.34,96.81c0-.08,0-.11-.12-.11v.19C23.27,96.89,23.33,96.89,23.34,96.81Z"/><path class="cls-9" d="M25.7,97.17s0-.09,0-.13a.1.1,0,0,0-.14,0C25.57,97.12,25.6,97.17,25.7,97.17Z"/><polygon class="cls-9" points="25.57 97.04 25.57 97.04 25.57 97.04 25.57 97.04"/><path class="cls-9" d="M46.24,91.79h0a3.78,3.78,0,0,0,.21.56v.06c.22.31.22.31.23.48a.33.33,0,0,0,.36.33.23.23,0,0,0,.18-.17.21.21,0,0,0-.09-.23.09.09,0,0,0-.1,0h0a.2.2,0,0,0,.06-.17l0-.09a.27.27,0,0,0-.29-.21h0v-.1s0,0,0,0-.06-.15-.1-.21-.12-.37-.37-.37C46.21,91.67,46.19,91.72,46.24,91.79Z"/><path class="cls-9" d="M41.6,102.21a.16.16,0,0,1-.15-.06h-.07a.46.46,0,0,0-.07.07h0a.46.46,0,0,0,.07.07h.17S41.64,102.27,41.6,102.21Z"/><path class="cls-9" d="M39.59,91.13c0,.31,0,.35,0,.36s.06,0,.06,0A.25.25,0,0,0,39.59,91.13Z"/><path class="cls-9" d="M25.39,94.72c-.05.1-.1.2,0,.31l0,0a.23.23,0,0,0,.18,0h0a.23.23,0,0,0,.07-.07c0-.06.29,0,.07-.19s-.16.08-.21,0S25.41,94.66,25.39,94.72Z"/><path class="cls-9" d="M40.1,101.72a.09.09,0,0,0,.12-.06S40.12,101.66,40.1,101.72Z"/><path class="cls-9" d="M44,87.94c.06,0,.23,0,.14-.14s-.29,0-.42-.09h-.28v0c-.07,0-.15,0-.23,0a.47.47,0,0,0,.23,0,.16.16,0,0,1,.15.07l.07.06h.06a.22.22,0,0,0,.19,0Z"/><path class="cls-9" d="M45.45,89.72l0,0a.35.35,0,0,1-.12-.19l0-.09a.34.34,0,0,0-.26-.24h0a.15.15,0,0,0-.14.07l.22.41c.06.06,0,.15.07.21h0l.08.06C45.41,90,45.46,89.87,45.45,89.72Z"/><path class="cls-9" d="M41.74,87.92h.06l.07-.07v0l-.06-.08v-.14a.2.2,0,0,0,.21-.06c-.08,0-.13,0-.15-.12l-.08,0,0,0c-.08,0-.15-.11-.24,0h0l.06.26s0,0,.06,0A.42.42,0,0,0,41.74,87.92Z"/><path class="cls-9" d="M40.54,79.29h0c0-.07,0-.15-.08-.19A.25.25,0,0,1,40.3,79c-.11.09-.09.18,0,.26v.07h.06a.13.13,0,0,1,0,.06.57.57,0,0,1,.15.26s0,.06.06.09h0c0,.09,0,.21.14.28s.07.11.15.13a.64.64,0,0,1,.08.33c0,.07,0,.16.06.22h0s0,.11.06.16a.18.18,0,0,1,.05.16s0,.05.07.05a.21.21,0,0,1,.29-.1h0a.27.27,0,0,0,0,.09,2,2,0,0,0,.18.32l.07.11,0,.07a.4.4,0,0,0,.18.24c.15,0,.21.11.28.21s.17.09.2,0a1.13,1.13,0,0,0-.2-.43l-.06-.08c-.13-.14-.17-.33-.3-.48h0L41.82,81c-.07,0-.13-.1-.22-.09s.07-.12,0-.15c-.21-.21-.34-.49-.61-.64h0a.54.54,0,0,0-.08-.35A.86.86,0,0,0,40.54,79.29Z"/><path class="cls-9" d="M66.19,104.62c0-.16-.1-.14-.2-.13S66.1,104.62,66.19,104.62Z"/><path class="cls-9" d="M46.91,86.59c.09.09.14,0,.19,0v-.14a.11.11,0,0,1,0-.14v-.14c-.12-.06,0-.22-.15-.27C46.74,86.09,46.89,86.34,46.91,86.59Z"/><path class="cls-9" d="M53,91.86l.07-.07c0-.23-.17-.11-.28-.07v.07C52.8,91.88,52.88,91.86,53,91.86Z"/><path class="cls-9" d="M57.1,88c.07,0,.07-.06.09-.11s-.09-.14-.15-.21-.19,0-.18.12S57,87.93,57.1,88Z"/><path class="cls-9" d="M56.61,89.52c0,.07.08.16.17,0l0-.09s0-.11-.06-.15h0C56.59,89.36,56.62,89.44,56.61,89.52Z"/><path class="cls-9" d="M57.47,88.13h0s-.06,0-.09,0-.11,0-.12.09,0,0,0,0,.08,0,.12,0Z"/><path class="cls-9" d="M56.16,88.49c0,.05.05.05.08.05a.09.09,0,0,0,.08-.1s0-.06-.07,0A.12.12,0,0,0,56.16,88.49Z"/><path class="cls-9" d="M56.4,89.1h0c.05.06.1.1.17,0a.07.07,0,0,0,0-.11C56.47,89,56.46,89.09,56.4,89.1Z"/><path class="cls-9" d="M55.48,90.56a.13.13,0,0,1,0,.06h0s0,.1.07.13.07.06.12.06,0-.07,0-.12,0-.14-.07-.21h0s0,0-.05,0S55.49,90.53,55.48,90.56Z"/><path class="cls-9" d="M49.26,101.44a.15.15,0,0,0,0-.13s0-.06,0-.09a1.28,1.28,0,0,0-.21-.56c-.05,0-.1-.08-.17,0a.15.15,0,0,0,0,.07.14.14,0,0,0,0,.15,9.15,9.15,0,0,0,.3,1C49.3,101.74,49.22,101.58,49.26,101.44Z"/><path class="cls-9" d="M43.63,103s0,0-.06-.06-.13,0-.13.09,0,.05.07,0S43.64,103,43.63,103Z"/><path class="cls-9" d="M34.93,98.74c0-.1-.07-.13-.15-.15s-.1,0-.1.08.09.12.18.13S34.92,98.78,34.93,98.74Z"/><path class="cls-9" d="M44.75,87.51H44.6v.07l.07.07.21.14a.1.1,0,0,0,0-.14A.32.32,0,0,0,44.75,87.51Z"/><polygon class="cls-9" points="44.88 87.79 44.88 87.79 44.88 87.79 44.88 87.79"/><path class="cls-9" d="M43.81,85.65h0c.15,0,.2,0,.14-.14h0C43.86,85.52,43.81,85.56,43.81,85.65Z"/><path class="cls-9" d="M43.22,84.49c0,.14.16.18.23.26s.13.23.28.3c0-.12-.07-.2-.06-.3a.09.09,0,0,0,0-.13h0c-.17-.06-.17-.25-.3-.34h0a.46.46,0,0,1-.07-.07h0l-.06-.09s0-.05-.09-.05,0,.27,0,.41Z"/><path class="cls-9" d="M42.45,84.76h.1s0,0,0,0-.15-.15-.14-.27l-.07-.07C42.21,84.56,42.42,84.64,42.45,84.76Z"/><path class="cls-9" d="M44.81,87.93l-.22-.1a.12.12,0,0,0-.14,0c0,.06.07.07.09.12S44.77,88.17,44.81,87.93Z"/><path class="cls-9" d="M46.54,90.54l-.08-.07a.16.16,0,0,0-.08.15C46.45,90.62,46.51,90.61,46.54,90.54Z"/><path class="cls-9" d="M47,88.61a2,2,0,0,0,0,.55l.14-.06a1.48,1.48,0,0,1,0-.21C47.05,88.83,47.14,88.68,47,88.61Z"/><path class="cls-9" d="M47.17,88.27a.08.08,0,0,1-.07,0c-.11.11,0,.13.07.14S47.23,88.32,47.17,88.27Z"/><path class="cls-9" d="M42.56,82.72a.11.11,0,0,0,.06-.07.15.15,0,0,0-.09-.1c-.15-.08-.21-.25-.36-.34,0,.16.07.28.14.41l.07.06h0A.17.17,0,0,0,42.56,82.72Z"/><path class="cls-9" d="M39.86,78.56l.23.34c.07,0,.07-.09.08-.16s-.06-.27-.21-.34S39.83,78.47,39.86,78.56Z"/><path class="cls-9" d="M51.75,105.11a.16.16,0,0,0-.08-.06l-.23-.07c-.13,0-.26-.12-.4,0s-.13,0-.15,0,.06.07.07.12a1.68,1.68,0,0,0,.5.07C51.55,105.16,51.67,105.21,51.75,105.11Z"/><path class="cls-9" d="M55,105.86c0,.06.09.07.15.08h0s0-.07.06-.07h.14l.08.06h0c.08-.05.07-.13.07-.2l-.28-.08c-.16-.07-.31-.19-.5-.08,0,0,0,0,0,0v0l0,0h0s-.09,0-.12,0,0,.14,0,.21h.14A.26.26,0,0,1,55,105.86Z"/><path class="cls-9" d="M56,105.8v.13h.2a.15.15,0,0,0,.16,0h0a.93.93,0,0,0,.14-.14h0a.29.29,0,0,1,.08-.07h0c0-.07,0-.1-.09-.08S56.1,105.66,56,105.8Z"/><path class="cls-9" d="M56.55,106a1.68,1.68,0,0,0,.63.07c0-.08,0-.1-.07-.14h-.2s-.11,0-.15-.06h-.08C56.65,105.93,56.51,105.86,56.55,106Z"/><path class="cls-9" d="M69.2,100.4l-.07,0a.14.14,0,0,0-.14,0l-.43.2-.07.07c-.11.08-.25,0-.37.06h-.2a.13.13,0,0,0-.15.06h0c-.1,0-.16.14-.29.13l-.07.07h-.07l-.07.07a.14.14,0,0,1-.15.06l-.35.07c-.09.05-.21,0-.29.07h0c-.13.19-.41.09-.54.28a.54.54,0,0,0,.56-.07.41.41,0,0,1,.27-.07h0c.06-.06.14,0,.21,0l.09,0c.1-.05.2-.12.32-.07s.19-.07.24-.16.31-.09.44-.2a.14.14,0,0,0,.14-.06.54.54,0,0,0,.35-.08s.09,0,.14,0h.07a.55.55,0,0,1,.38,0,1.1,1.1,0,0,0,.54-.19h-.06c-.1,0-.1-.13-.13-.21h0s0,0,0-.06-.12-.08-.19,0A.24.24,0,0,1,69.2,100.4Z"/><path class="cls-9" d="M55.61,105.8h0a.18.18,0,0,0,.29,0,.46.46,0,0,0-.07-.07,0,0,0,0,0,0,0s0,0-.06,0h-.06Z"/><path class="cls-9" d="M56.15,101.79s0,.07.07.08h.1v-.06l-.06,0S56.17,101.73,56.15,101.79Z"/><path class="cls-9" d="M57.62,106s-.1-.06-.15,0v.07h.07c.08,0,.16,0,.21-.06Z"/><path class="cls-9" d="M41.23,80.14c.08.08.12.21.27.24,0-.17-.08-.27-.12-.38h-.06A.15.15,0,0,0,41.23,80.14Z"/><path class="cls-9" d="M49.68,91.3h0a0,0,0,0,0,0,0s0,0,0,0,0,0,.07,0,.25,0,.34-.06a.86.86,0,0,0-.14-.13C49.71,91.08,49.71,91.08,49.68,91.3Z"/><path class="cls-9" d="M51.63,91.26s.07,0,.12,0v-.1c0-.06,0-.14-.1-.12S51.6,91.2,51.63,91.26Z"/><path class="cls-9" d="M56.76,89.93l.14.07s0,0,0-.06a.33.33,0,0,0-.09-.21C56.64,89.74,56.78,89.86,56.76,89.93Z"/><path class="cls-9" d="M59,93.16a.62.62,0,0,0,.46-.07.37.37,0,0,1-.32-.13h-.06C59,93,58.94,93.06,59,93.16Z"/><polygon class="cls-9" points="58.43 90.81 58.45 90.79 58.43 90.79 58.43 90.81"/><path class="cls-9" d="M66.92,97.44c-.06,0-.09.07-.07.13s.08,0,.13,0S67,97.43,66.92,97.44Z"/><path class="cls-9" d="M43.81,105a.13.13,0,0,0,0,.06c.14.14.13.34.21.5a.35.35,0,0,0,.14.2c.1-.08.06-.19.08-.29a1.34,1.34,0,0,1-.07-.53c0-.11-.1-.19-.16-.28H44C44,104.83,44,105,43.81,105Z"/><path class="cls-9" d="M47.23,95.6h-.1c-.06,0-.13,0-.14.06s.06.06.1.08l.09,0C47.26,95.74,47.24,95.67,47.23,95.6Z"/><path class="cls-9" d="M45.09,103.46l-.28-.08C44.88,103.54,44.92,103.55,45.09,103.46Z"/><path class="cls-9" d="M48.11,101.76c-.13,0-.14.08-.15.17h-.07a.13.13,0,0,0,0,.06c.13.11,0,.25,0,.37s.12-.08.19-.09a.45.45,0,0,0,.08-.27l0-.09C48.17,101.86,48.2,101.77,48.11,101.76Z"/><path class="cls-9" d="M47.52,92.69c-.08-.06-.05-.16-.07-.24s-.1-.1-.17,0a.61.61,0,0,0,0,.13,1.9,1.9,0,0,1,.14.48l.14-.13A1.48,1.48,0,0,0,47.52,92.69Z"/><path class="cls-9" d="M48,96.75h0A.56.56,0,0,1,48,97a2,2,0,0,0,.13.58h0c.12.44.14.91.23,1.36.12.1,0,.27.14.36h0c-.05.26.17.48.15.74l.06,0a.13.13,0,0,0,0,.06.11.11,0,0,0,.06-.13l0-.06a.25.25,0,0,0,0-.08c0-.06,0-.11,0-.17a.29.29,0,0,0,0-.09,1.66,1.66,0,0,1-.11-.38.2.2,0,0,0,0-.08l0,0v0a.46.46,0,0,0,0-.2c0-.1-.05-.2-.08-.3a3.15,3.15,0,0,0-.13-.61.82.82,0,0,1-.09-.34.28.28,0,0,0,0-.09.26.26,0,0,0-.05-.12h-.07a.19.19,0,0,0,0-.15,1.54,1.54,0,0,1,0-.43c0-.11,0-.23-.15-.25l0,0c-.07,0,0-.14-.13-.15A.5.5,0,0,0,48,96.75Z"/><path class="cls-9" d="M47.15,91.65s.07,0,.09.07a.14.14,0,0,0,.15-.06.3.3,0,0,0,.1-.19l0-.09-.11-.18,0,0c-.14.11,0,.31-.13.42h0S47.15,91.63,47.15,91.65Z"/><path class="cls-9" d="M46.88,91.86v.06s0,.11.06.11S47,92,47,91.92v-.13H47A.1.1,0,0,0,46.88,91.86Z"/><path class="cls-9" d="M47.18,89.58s0,0,0-.06c-.13.15-.06.31,0,.48A1.21,1.21,0,0,0,47.18,89.58Z"/><path class="cls-9" d="M47.6,88.34c-.07,0,0,.09,0,.14s.16,0,.16-.06S47.66,88.35,47.6,88.34Z"/><path class="cls-9" d="M50.17,104.91h0s0,.1.08.12h0c.14-.06.22-.14.06-.26h0l-.08-.05a.15.15,0,0,0-.13.06Z"/><path class="cls-9" d="M50.53,94.35h0c0,.05-.17,0-.13.11s.18.06.28,0h0C50.68,94.39,50.63,94.34,50.53,94.35Z"/><path class="cls-9" d="M51.77,93.86s0-.1,0-.14a.13.13,0,0,0,0-.06c-.12,0-.18.09-.28.13h0c-.05.07,0,.13,0,.17a.08.08,0,0,0,.09,0h0Z"/><path class="cls-9" d="M56.84,90.2l.09.16a1.4,1.4,0,0,0,.1-.16C57,90.11,56.9,90.11,56.84,90.2Z"/><path class="cls-9" d="M57.39,91.66c-.1-.1,0-.23-.06-.35a.13.13,0,0,1,0-.06h0a.49.49,0,0,1,0-.12.86.86,0,0,1-.1-.16h0L57.1,91a.18.18,0,0,0,0,.2.13.13,0,0,1,0,.06s0,.11.07.15v.13a4.7,4.7,0,0,1,.21.9v0a.38.38,0,0,0,0,.21l0,0c.08,0,.16,0,.12-.12a.26.26,0,0,1,.09-.36.22.22,0,0,0,.06-.19C57.44,92,57.44,92,57.39,91.66Z"/><path class="cls-9" d="M48,90.89v-.06a.12.12,0,0,0,0-.15c0-.06-.09-.16-.14,0s0,.11-.07.15a.13.13,0,0,1,0,.06s0,0,0,.07V91C47.92,91.13,47.9,91,48,90.89Z"/><path class="cls-9" d="M57.7,95.45a.19.19,0,0,0-.25,0c0,.1.06.16.09.24S57.68,95.55,57.7,95.45Z"/><path class="cls-9" d="M56.18,96.77s0,.1.07.1.07-.05.07-.1a.09.09,0,0,0-.08-.09C56.17,96.68,56.18,96.73,56.18,96.77Z"/><path class="cls-9" d="M51.78,94.26c-.05,0-.09,0-.13,0s-.06,0-.06.08,0,0,.07,0,.16,0,.15.13-.08.13,0,.22a.88.88,0,0,0,.31-.39.83.83,0,0,1,0-.15c0-.09,0-.11-.1-.12S52,94.31,51.78,94.26Z"/><path class="cls-9" d="M51.6,95.72s0,0,0-.06a.23.23,0,0,1,.07-.07h0a.8.8,0,0,1,.13-.13c-.07-.07-.14,0-.21,0s-.22.37-.39.51l.12.06.19-.15C51.58,95.83,51.56,95.76,51.6,95.72Z"/><path class="cls-9" d="M50.75,100.55c-.1-.1-.19,0-.29,0C50.62,100.74,50.66,100.74,50.75,100.55Z"/><path class="cls-9" d="M53.25,100.11v0a.1.1,0,0,0-.14,0h0c0,.11-.15.23,0,.34v-.06l.06-.08a.17.17,0,0,1,.07-.13Z"/><path class="cls-9" d="M47.77,91.4h0s0,0,0,0,0,0,0,0Z"/></g></g></svg>