<svg xmlns="http://www.w3.org/2000/svg" xmlns:xlink="http://www.w3.org/1999/xlink" viewBox="0 0 106 106"><defs><style>.cls-1{fill:none;}.cls-2{clip-path:url(#clip-path);}.cls-3,.cls-6{fill:#62bfb3;}.cls-3{fill-rule:evenodd;}.cls-4{fill:#1d1d1b;}.cls-5{fill:#fff;}</style><clipPath id="clip-path"><rect class="cls-1" x="-0.03" y="119.27" width="106.08" height="27.76" rx="4.5"/></clipPath></defs><title>webIcons</title><g id="BUTTONS-3" data-name="BUTTONS"><g class="cls-2"><path class="cls-3" d="M-.13,78.8s.06-.11,0-.16a.17.17,0,0,0-.19,0,1.05,1.05,0,0,1-.52.1A1.53,1.53,0,0,1,0,78.52l0,.08s0-.06,0-.09a.36.36,0,0,1,.23-.14,5.12,5.12,0,0,1,1.7-.2c.1.06.22,0,.32,0a.08.08,0,0,0,.06-.08A.18.18,0,0,0,2.31,78,.74.74,0,0,0,2,78c-.08,0-.06,0-.05-.07l.06,0,.14,0,.07,0h0l-.07,0h.06a.13.13,0,0,0,0-.06h.21c.28,0,.59,0,.79-.27h.06c.1,0,.24,0,.22-.16s-.13-.07-.21,0a5.9,5.9,0,0,0-.72.2c-.1.09-.25,0-.35.08h0v.12l-.21,0a.26.26,0,0,0-.24.07h0c-.13,0-.28,0-.37.15a.08.08,0,0,1,0,0,.47.47,0,0,0-.2,0L1,78c-.09-.07-.22,0-.32-.15s-.28-.08-.43,0-.12.12,0,.2-.06.15-.12.2a1.21,1.21,0,0,1-.2.09.1.1,0,0,0-.05,0H-.2l-.07.08h0a3.88,3.88,0,0,0-1,.21v.21a.64.64,0,0,0,.65.2h.14A.28.28,0,0,0-.13,78.8Z"/><path class="cls-3" d="M105.52,90.52s0,.11,0,.14.15,0,.2-.08l.29-.41V90C105.78,90.13,105.73,90.4,105.52,90.52Z"/><path class="cls-3" d="M43.23,40.28c.08.06.16.11.22,0l.13-.31h-.36C43.33,40.06,43.23,40.17,43.23,40.28Z"/><path class="cls-3" d="M86.32,46.48c.09-.08.19-.15.09-.28a.1.1,0,0,0-.15,0A.19.19,0,0,0,86.32,46.48Z"/><path class="cls-3" d="M97,68a.76.76,0,0,1-.08.11c.06.11.12.21.28.12l0,0a.29.29,0,0,1,0-.09c0-.06,0-.11,0-.14S97.06,67.92,97,68Z"/><path class="cls-3" d="M49.65,49.06h0c-.08-.13,0-.34-.21-.42l-.07-.07c-.08,0-.23,0-.17.12a.9.9,0,0,0,.38.44C49.64,49.17,49.64,49.1,49.65,49.06Z"/><path class="cls-3" d="M104,92.17h0a.13.13,0,0,1-.07.06c-.12.1-.26.19-.3.35l-.06,0s0,0-.06.06h0l-.06.06a1.3,1.3,0,0,1-.51.42,1.64,1.64,0,0,0-.44.54l-.36.34a.14.14,0,0,1-.07.08h0a.1.1,0,0,0,0,.16h.05a.16.16,0,0,0,.09,0l0,0,.07,0,.08,0c.15-.12.27-.26.41-.38a5.27,5.27,0,0,1,.55-.5,3,3,0,0,1,.25-.26,1.27,1.27,0,0,0,.07-.12.65.65,0,0,0,0-.2c.1,0,.15-.05.22-.09l.11-.1c.14-.13.2-.31.36-.43h0a.26.26,0,0,1,.13-.22.76.76,0,0,0,.25-.31c0-.07,0-.1-.09-.08l-.2.14C104.37,91.77,104.1,91.9,104,92.17Z"/><path class="cls-3" d="M49,41.6s-.12-.08-.11,0A1.92,1.92,0,0,0,49,42c.09.06.12.2.26.2v0C49.19,41.94,49.23,41.71,49,41.6Z"/><path class="cls-3" d="M105.52,102.18h.06c0-.08-.12-.07-.2,0S105.47,102.17,105.52,102.18Z"/><path class="cls-3" d="M2.1,83.2h.06c.08,0,.24-.06.1-.21s0,0,0-.08,0,0,0-.06h0a.09.09,0,0,0-.09,0c-.07,0-.14,0-.2,0H2c-.06,0,0,.12,0,.19H2A.62.62,0,0,1,1.62,83c-.11-.08-.29.08-.43,0l0,0H1L.86,83s.13,0,.16.1.23.09.36.08h.14c.15-.11.32-.06.49-.07A.31.31,0,0,0,2.1,83.2Z"/><path class="cls-3" d="M104.4,75.82c0,.1.16.11.26.13a.56.56,0,0,1,.22.21.34.34,0,0,0,.31.18l0,0V76c-.13,0-.26,0-.34-.12s-.23-.12-.36-.18S104.33,75.69,104.4,75.82Z"/><polygon class="cls-3" points="105.23 76.31 105.23 76.3 105.23 76.31 105.23 76.31"/><path class="cls-3" d="M105.38,76.51l.07.07s.09.07.18,0c-.14-.1-.16-.32-.4-.29C105.19,76.43,105.32,76.45,105.38,76.51Z"/><path class="cls-3" d="M105.14,81.38a.28.28,0,0,0,0,.09,1,1,0,0,1,0,.3.29.29,0,0,0,0,.09c-.06.09.25.3-.09.29a.07.07,0,0,1,0-.05A.11.11,0,0,0,105,82h0V82a.5.5,0,0,1-.08-.2c-.09-.08-.07-.2-.14-.28a.13.13,0,0,0-.15.14.36.36,0,0,0,0,.21.46.46,0,0,1,0,.23l0,.08c-.16.13-.19.24,0,.3.08-.06.15-.15.27-.13h0c0,.13.06.25.23.26l0,0a.46.46,0,0,0,.08.32,1.44,1.44,0,0,1,.21.6h0l0-.07a.24.24,0,0,0-.09-.08.11.11,0,0,0-.08,0,.12.12,0,0,0,0,.11.17.17,0,0,0,0,.07l0,.08a.36.36,0,0,0,0,.11.39.39,0,0,0,.06.11.8.8,0,0,0,.08.16c.06.07.09.2.22.14a.58.58,0,0,0,.12.1c-.1,0-.17,0-.23.1a.2.2,0,0,1,0,.07c.09,0,.16.09.28.08s0-.15,0-.22h0c.09,0,.15,0,.22.07V84H106c0-.08,0-.16-.08-.2h0l-.13-.43c-.08-.07,0-.21-.14-.27a.14.14,0,0,1,0-.06.06.06,0,0,1,0-.08v-.06c-.07,0-.07-.13-.07-.21v-.14c0-.1-.12-.21,0-.29s0-.23,0-.34-.08-.21-.07-.33a1.72,1.72,0,0,0-.07-.21C105.27,81.2,105.2,81.27,105.14,81.38Z"/><path class="cls-3" d="M105.68,82.49l.06.09a.19.19,0,0,0,.07-.14s-.06-.11-.13-.08S105.66,82.44,105.68,82.49Z"/><polygon class="cls-3" points="105.81 84.31 105.8 84.31 105.8 84.31 105.81 84.31"/><path class="cls-3" d="M105.87,80.22h0s0,0,0,0h0S105.84,80.21,105.87,80.22Z"/><path class="cls-3" d="M82,48.6a.48.48,0,0,1-.48,0l-.09,0-.18,0h0l0,0s-.09.08,0,.15h0c.17.08.35.12.51.21l.07.07c.15,0,.33-.06.43.13.1,0,.21,0,.3.05s.2,0,.27-.09,0-.16-.07-.24h-.06c-.13-.1-.3-.11-.42-.22A.23.23,0,0,0,82,48.6Z"/><path class="cls-3" d="M82.27,48.5c0,.14.1.16.2.18a.13.13,0,0,0,.09,0s.15,0,.07-.14a.46.46,0,0,0-.07-.07h0C82.45,48.44,82.34,48.39,82.27,48.5Z"/><path class="cls-3" d="M6.67,62.38A.52.52,0,0,0,6.6,62c-.07,0-.14-.06-.15.06a1.61,1.61,0,0,0,.08.48A.12.12,0,0,0,6.67,62.38Z"/><path class="cls-3" d="M6.61,59.67c-.15-.07,0-.24-.15-.37v.52c0,.11.07.08.14.06A1.48,1.48,0,0,0,6.61,59.67Z"/><path class="cls-3" d="M11.77,53.58a.78.78,0,0,0,0-.22.91.91,0,0,0-.15-.37.16.16,0,0,0-.09,0c-.06,0-.07.06-.11.09h0l.21.84C11.8,53.86,11.75,53.7,11.77,53.58Z"/><path class="cls-3" d="M12,55a.41.41,0,0,0-.08-.47l-.15-.07a1.62,1.62,0,0,0,.08.69.17.17,0,0,1,.07.13C12,55.25,12,55.13,12,55Z"/><path class="cls-3" d="M12.53,61.13h0c-.24,0-.25,0-.15.22l.08.06h0C12.65,61.34,12.57,61.23,12.53,61.13Z"/><path class="cls-3" d="M10.46,40.69c0,.18,0,.37,0,.56.1-.07.06-.18.06-.27s0-.2.08-.28a.17.17,0,0,0,0-.2C10.48,40.51,10.46,40.59,10.46,40.69Z"/><path class="cls-3" d="M20.12,42.85c0,.09,0,.17,0,.26l.07.07a.23.23,0,0,0,.14-.13h0L20.26,43h0a.1.1,0,0,1,0-.14c.08,0,.08-.09,0-.13A.12.12,0,0,0,20.12,42.85Z"/><path class="cls-3" d="M18.62,41.87v-.06h0s0,0-.05.05,0,.09,0,.1S18.61,41.9,18.62,41.87Z"/><path class="cls-3" d="M14.76,43.72c0,.08,0,.14.09.13a.12.12,0,0,0,.12-.14c0-.07,0-.14-.12-.13S14.76,43.67,14.76,43.72Z"/><path class="cls-3" d="M102.59,72.93V73a.61.61,0,0,1,.21.34c.09,0,.13,0,.14-.13h0a.1.1,0,0,1,0-.14c0-.08,0-.14-.07-.21s-.11,0-.14-.06a.07.07,0,0,0-.08,0S102.63,72.88,102.59,72.93Z"/><path class="cls-3" d="M103.09,73.82a.15.15,0,0,0,.14-.07s0,0,0-.06-.11-.08-.13-.15h0C103,73.63,103.05,73.72,103.09,73.82Z"/><path class="cls-3" d="M98.15,70.44v-.07c-.18-.17-.2-.17-.29,0v0l0,0,.07,0,.06,0h0Z"/><path class="cls-3" d="M96.79,69.26c0,.07,0,.08.07.09l.23.24s.08.08.15.06.05-.12.06-.18a4.72,4.72,0,0,0-.5-.41C96.7,69.12,96.81,69.2,96.79,69.26Z"/><path class="cls-3" d="M101.58,69.88a.14.14,0,0,1,0,.11h0a.11.11,0,0,0-.08,0c-.15,0-.12-.19-.26-.17s.08.29,0,.44v0a.2.2,0,0,0,0,.11l0,.08a.28.28,0,0,0,.12.12c.3,0,0-.26.19-.32a.23.23,0,0,1,.12.12l0,0,.07.06a.19.19,0,0,0,.18,0,.12.12,0,0,0,0-.08s0,0,0-.06l0-.07a.17.17,0,0,0,0-.15.13.13,0,0,1,0-.06L102,70a.21.21,0,0,0-.1-.09c.06,0,.11-.11.07-.19h0l-.06-.07h0C101.71,69.67,101.59,69.71,101.58,69.88Z"/><path class="cls-3" d="M4,78.73v.12a.15.15,0,0,0,.21,0h0C4.16,78.72,4.07,78.71,4,78.73Z"/><path class="cls-3" d="M11.82,82.44l0,0c.07,0,.14,0,.18,0s0-.09-.08-.12h0c-.07,0-.17,0-.22,0S11.81,82.39,11.82,82.44Z"/><path class="cls-3" d="M10.68,81.85s0,0,0,0,0,.07,0,.07.05,0,.05,0S10.72,81.85,10.68,81.85Z"/><path class="cls-3" d="M9.38,77.12s.13,0,.08-.13c-.26-.1-.35-.06-.36.14Z"/><path class="cls-3" d="M3.24,83a2,2,0,0,0,.64-.07.77.77,0,0,1,.52,0,1.41,1.41,0,0,0,.21,0,2.77,2.77,0,0,1,.81.06.22.22,0,0,0,.26-.06h.21v-.06H6.4c.11,0,.08-.08.06-.14a1.63,1.63,0,0,1-.38,0,.8.8,0,0,0-.57,0H5.1c0-.09,0-.18-.14-.07l-.2.06c-.17,0-.28,0-.3-.2-.08,0-.14-.25-.22,0,.08.14.1.24-.11.24a.47.47,0,0,0-.17,0c-.24-.08-.48,0-.72,0A.15.15,0,0,0,3.24,83Z"/><path class="cls-3" d="M54.23,49a.56.56,0,0,0,0-.08.19.19,0,0,0-.07-.06c-.14,0-.15,0-.08.13h0c0,.09,0,.19,0,.29s-.09.35.06.51.15.1.24,0a.13.13,0,0,1,0-.06c-.06-.11,0-.24-.06-.36s0,0,0-.06,0-.24-.07-.35Z"/><path class="cls-3" d="M50.08,44.23c-.11,0-.2-.12-.34-.09a.42.42,0,0,0,.06.36,1.47,1.47,0,0,1,0,.47c0,.07,0,.15.08.17s.15-.07.16-.14A1.54,1.54,0,0,0,50.08,44.23Z"/><path class="cls-3" d="M79.12,43.74c0,.06-.09.11,0,.18a.1.1,0,0,0,.15,0c0-.06.1-.12.06-.18s-.12,0-.18,0Z"/><path class="cls-3" d="M79.92,47.11H80c.16,0,.34.06.43-.13h0a.1.1,0,0,0-.07,0l-.07,0h0A.34.34,0,0,0,79.92,47.11Z"/><path class="cls-3" d="M81.85,48.43c.07,0,.16,0,.21,0s0-.06-.08-.09S81.75,48.25,81.85,48.43Z"/><path class="cls-3" d="M0,95.9c.09,0,.14,0,.13-.13S-.12,95.75,0,95.9Z"/><path class="cls-3" d="M100,103.41c.09,0,.2,0,.2-.12H100Z"/><path class="cls-3" d="M99.93,102.72h-.06a.31.31,0,0,0-.12.43c.17,0,.17-.22.32-.24a.07.07,0,0,0,0,0c.1-.08.13-.18,0-.25S100,102.63,99.93,102.72Z"/><path class="cls-3" d="M102.42,77.36a.16.16,0,0,0,0,.09l.1.08s.08.12.17.09h.15a.54.54,0,0,1-.08-.33l-.05,0c-.11-.11-.2-.08-.29,0S102.42,77.33,102.42,77.36Z"/><path class="cls-3" d="M104.16,77.54c.07,0,.14.08.21,0s.23,0,.25.14.11,0,.17,0l.08-.06a.15.15,0,0,1,.14-.07,2.09,2.09,0,0,1,0-.25l-.13,0c-.21-.13-.38,0-.57.07S104,77.4,104.16,77.54Z"/><path class="cls-3" d="M103.38,77.12h0a.11.11,0,0,0,.13,0s0-.13.08-.16h0s0-.09,0-.14h-.21A.19.19,0,0,0,103.38,77.12Z"/><path class="cls-3" d="M54.3,41.73a1.41,1.41,0,0,0,0-.2v-.06c0-.12,0-.23,0-.35A.63.63,0,0,0,54.3,41.73Z"/><path class="cls-3" d="M105.31,84.16c.13,0,.09-.06.06-.13S105.26,84.09,105.31,84.16Z"/><path class="cls-3" d="M95,58c.13.09.17-.07.25-.11l0-.05c.1-.15,0-.16-.13-.17a.18.18,0,0,1-.14.06C95,57.77,94.86,57.86,95,58Z"/><path class="cls-3" d="M102.58,73.69h-.07c-.08,0-.07.13-.07.21s0,.23,0,.34.09.18.11.28l.09,0c.14,0,.23-.09.15-.24h0a.15.15,0,0,1,0-.21.46.46,0,0,1,.07-.07c0-.08,0-.16-.07-.21S102.64,73.75,102.58,73.69Z"/><path class="cls-3" d="M101.51,73.16c-.07-.07-.19-.15-.22,0l.21.28c.13,0,.29.08.3-.14h0A1,1,0,0,1,101.51,73.16Z"/><path class="cls-3" d="M101.51,73.82s0,.05,0,.07-.06.22.13.2h0a1.62,1.62,0,0,0,0-.22C101.65,73.75,101.57,73.8,101.51,73.82Z"/><path class="cls-3" d="M100.23,72.23c.17.08.13,0,.13-.13S100.22,72.13,100.23,72.23Z"/><path class="cls-3" d="M98.29,70.79c0,.18.18,0,.22.13s.06-.08.06-.13a.21.21,0,0,0-.28,0Z"/><path class="cls-3" d="M95.22,67.67l.12.09,0,0h0a.1.1,0,0,0-.05,0c0,.17.06.25.19.32l.14.08.06,0s.05.1.08.14a1.26,1.26,0,0,0,.22.24c.06,0,.1.11.16.15l.08.06.08,0c.15,0,.16-.06.11-.16a1.3,1.3,0,0,0-.15-.18.47.47,0,0,1-.14-.28.29.29,0,0,1-.22-.15.73.73,0,0,0-.28-.27l-.16-.13c0-.11-.12-.16-.2-.22S95.22,67.59,95.22,67.67Z"/><path class="cls-3" d="M104,75.4h0a.23.23,0,0,0,.07.07l.06.08s.07.11.14.07l.08-.07c0-.09-.14-.16-.15-.27l-.07-.07A.17.17,0,0,0,104,75.4Z"/><path class="cls-3" d="M103.76,75.19a.29.29,0,0,0-.17-.37C103.59,75,103.58,75.1,103.76,75.19Z"/><path class="cls-3" d="M.61,83a.05.05,0,0,0-.08,0l-.08,0h.1Z"/><path class="cls-3" d="M5.38,78a.94.94,0,0,0-.79.19,1.63,1.63,0,0,0,.79-.13S5.42,78.05,5.38,78Z"/><path class="cls-3" d="M7.37,82.65l0-.07a.14.14,0,0,0-.15.07v.13a.39.39,0,0,0,.21-.06S7.38,82.67,7.37,82.65Z"/><path class="cls-3" d="M9.78,82.52c.17.07.2-.1.31-.18a.69.69,0,0,0-.34,0h0C9.77,82.38,9.65,82.47,9.78,82.52Z"/><path class="cls-3" d="M11,82.37a.13.13,0,0,0-.12.1s0,.08.09.07a.11.11,0,0,0,.12-.09C11.08,82.39,11,82.38,11,82.37Z"/><path class="cls-3" d="M10.15,76.69s-.07,0-.12,0a.89.89,0,0,0-.35.14l.09.08c.1,0,.2,0,.31-.05A.09.09,0,0,0,10.15,76.69Z"/><path class="cls-3" d="M11.65,76.78l.32,0,.14-.15c0-.19-.17-.05-.22-.13h-.06C11.84,76.63,11.77,76.7,11.65,76.78Z"/><path class="cls-3" d="M4.1,92.59s0-.08,0-.09-.27-.06-.38.08h0a.45.45,0,0,0,.36,0Z"/><path class="cls-3" d="M7.39,87.27c0,.2-.27.28-.29.48L7,87.83a.13.13,0,0,0,0,.06c.11.09.13-.06.21-.06s.18-.13.24-.22a.26.26,0,0,0,.07-.11.08.08,0,0,0,0-.09c0-.08.13-.17,0-.24S7.45,87.25,7.39,87.27Z"/><path class="cls-3" d="M8.32,85.9h0a.11.11,0,0,1-.15,0H8.1c0,.14.06.3-.06.42L8,86.38c-.06.09,0,.14.07.14h0l.06,0,0,0,0,0,0,0,0-.06a.12.12,0,0,0,.05,0c0-.06.1-.09.07-.17v-.21h0S8.34,85.88,8.32,85.9Z"/><polygon class="cls-3" points="8.39 85.89 8.39 85.89 8.39 85.9 8.39 85.89"/><path class="cls-3" d="M78.13,47.68a.67.67,0,0,0-.12.06c-.07.08-.07.15,0,.2s.39.06.62,0c-.17,0-.3-.07-.26-.24h0a.21.21,0,0,0-.13-.05l-.09.05Z"/><path class="cls-3" d="M77.21,46a.09.09,0,0,0,.1.11c.08,0,.16,0,.16-.09s0-.1-.15-.1A.1.1,0,0,0,77.21,46Z"/><path class="cls-3" d="M79.19,47.09v0L79.05,47H79c0,.11,0,.22.14.2,0,0,0,0,.06-.07Z"/><path class="cls-3" d="M99.23,89.74l.06,0c.06,0,.13,0,.12-.09a.13.13,0,0,0-.14-.09C99.2,89.61,99.23,89.68,99.23,89.74Z"/><path class="cls-3" d="M95.85,94.3l-.13.08a.5.5,0,0,0-.36.07c0,.19,0,.19.21.14l.15-.08.42-.14s.11,0,.15-.06h0C96.14,94.18,96,94.26,95.85,94.3Z"/><path class="cls-3" d="M101.16,95c.06.17.17.09.28,0v-.19l-.09-.08h0C101.3,94.9,101.19,94.93,101.16,95Z"/><path class="cls-3" d="M99.5,96.47a.38.38,0,0,1-.27.19c-.09.18-.34.11-.43.28a1.24,1.24,0,0,0-.44.47l-.78.63c-.06.07,0,.12,0,.16s.26-.1.35-.19a1.78,1.78,0,0,1,.6-.41,1.27,1.27,0,0,0,.25-.27c.08-.09.2-.14.28-.23a.43.43,0,0,1,.09-.1.92.92,0,0,0,.38-.35,1.12,1.12,0,0,0,.37-.41c0-.06,0-.09-.08-.07A1.31,1.31,0,0,0,99.5,96.47Z"/><path class="cls-3" d="M99,100.88c0,.06,0,.13-.1.16a.13.13,0,0,0-.11.12.25.25,0,0,0,0,.08,1,1,0,0,1,0,.16.3.3,0,0,0,0,.08l0,.08c.08.12.09.28.26.33s.07-.08.08-.13-.15-.36,0-.55a.4.4,0,0,1-.06-.28,0,0,0,0,0,0-.06h0C99.08,100.77,99,100.75,99,100.88Z"/><path class="cls-3" d="M99.29,99.62v-.13C99.22,99.53,99.21,99.58,99.29,99.62Z"/><path class="cls-3" d="M99.51,103.49h0a.15.15,0,0,0-.23,0C99.35,103.51,99.44,103.47,99.51,103.49Z"/><path class="cls-3" d="M102.79,74.93h.08s0-.13,0-.14.11,0,.15.09,0,0,0,0,.12-.11.2-.14v-.07l0-.06c-.14-.08-.29-.17-.44,0A.37.37,0,0,0,102.79,74.93Z"/><path class="cls-3" d="M103.8,76.24h.07l.08-.06s.07-.1,0-.15-.15,0-.2.06S103.67,76.22,103.8,76.24Z"/><path class="cls-3" d="M103.41,75.57h.06c.09-.09,0-.16,0-.24A.15.15,0,0,0,103.41,75.57Z"/><path class="cls-3" d="M103.65,78.59a.79.79,0,0,0,.36.48c.07,0,.15.21.22,0-.16-.26-.2-.59-.43-.82-.12-.08-.24,0-.35,0C103.39,78.42,103.57,78.48,103.65,78.59Z"/><path class="cls-3" d="M68,43.93a.68.68,0,0,0-.12.12v0c-.08.09-.16,0-.25,0a.16.16,0,0,0-.24.1l.07.07a.18.18,0,0,0,.2,0,.19.19,0,0,1,.22.06.19.19,0,0,0,.27,0h0c0,.16.19.1.31.12s.21,0,.29.06-.1.09-.11.17a.16.16,0,0,0,0,.07c.07,0,.15,0,.21.05h0c.22.09.17-.17.29-.2v.06l.07-.07h0c.15-.08.28.13.44,0l0,0a.22.22,0,0,0,.21.05h.59c-.14-.19-.35-.07-.47-.2h0c-.08-.09-.2-.05-.3-.07s-.18-.09-.23-.19-.07,0-.1,0l0,.08c0,.06-.09,0-.15,0l-.09,0a1.27,1.27,0,0,1-.28-.06,1.27,1.27,0,0,0-.54-.11.09.09,0,0,0,0,0c-.09-.06-.11-.19-.21-.23Z"/><path class="cls-3" d="M9.67,75.68h0c-.06-.08-.28-.13-.06-.28h0s0,0-.07-.07a.13.13,0,0,0,0-.06.37.37,0,0,0-.26-.1.16.16,0,0,0-.09,0c-.09,0-.14,0-.14.13s.3.07.29.28.06.11.13.15S9.62,75.76,9.67,75.68Z"/><path class="cls-3" d="M104.22,80.8c.09,0,.08-.14.08-.22a.13.13,0,0,0-.15.14Z"/><path class="cls-3" d="M104.3,80.24a.13.13,0,0,0,.07-.14s-.09,0-.12,0S104.24,80.2,104.3,80.24Z"/><path class="cls-3" d="M104.41,80.64c0,.09.12.19.18.28l0,0a.06.06,0,0,0,0-.09v-.13c-.06,0,0-.15-.07-.2h-.07C104.45,80.53,104.36,80.53,104.41,80.64Z"/><path class="cls-3" d="M105.1,83.19c.1,0,.13,0,.13-.12a.75.75,0,0,1-.07-.12s0-.07-.07-.06S105,83,105,83,105.08,83.12,105.1,83.19Z"/><path class="cls-3" d="M95.22,59.39h.07c.2.05.14-.14.21-.22v0C95.23,59.13,95.23,59.13,95.22,59.39Z"/><path class="cls-3" d="M17.26,59.26h0c-.13,0-.12.06-.07.14h0s0,.1.06.15.16.31.23.47.06.08.07.14l.14.07a.49.49,0,0,0,0,.12c.07,0,.06-.08,0-.12V60a4.53,4.53,0,0,1-.28-.69S17.3,59.31,17.26,59.26Z"/><path class="cls-3" d="M32,57.39c0,.06.05.07.1.07s.07,0,.07-.07,0-.08-.09-.09S32,57.34,32,57.39Z"/><path class="cls-3" d="M45.78,46.3l-.07-.14c-.16-.1-.15.07-.21.13s-.12.17,0,.17S45.78,46.47,45.78,46.3Z"/><path class="cls-3" d="M100.08,74.38a.17.17,0,0,0,.07-.14h0s-.05,0-.06-.08L100,74c-.11-.18-.33-.12-.5-.2s-.06.07-.07.13a3.36,3.36,0,0,1,.43.2h0a.09.09,0,0,0,0,.08h0s0,0,0,0,.11,0,.14.08Z"/><path class="cls-3" d="M99.83,74.55s.07,0,.07-.06a.09.09,0,0,0-.07-.1c-.06,0-.1,0-.09.07S99.78,74.54,99.83,74.55Z"/><path class="cls-3" d="M99.15,73.69l.1,0a.06.06,0,0,0,0-.09s-.05-.06-.08,0,0,.06,0,.09S99.15,73.66,99.15,73.69Z"/><path class="cls-3" d="M6.75,74l-.08-.06a.36.36,0,0,0-.14-.1.09.09,0,0,0-.07,0V74a.14.14,0,0,1,0,.06l.13.08C6.69,74.09,6.83,74.13,6.75,74Z"/><path class="cls-3" d="M20.1,78.36c.08-.06.1-.12,0-.2s-.16,0-.21-.06h0a.38.38,0,0,0,0,.48.46.46,0,0,0,.07-.07A.18.18,0,0,1,20.1,78.36Z"/><path class="cls-3" d="M14.82,76.3h0s.1,0,.14-.06h.22a.71.71,0,0,0,.64-.34c.12-.19,0-.14-.13-.14-.33.11-.72-.07-1,.21l-.35.14a1.33,1.33,0,0,0-.21.09l0,0c.11.13.26.09.39,0A.42.42,0,0,1,14.82,76.3Z"/><path class="cls-3" d="M48.8,55c0,.16.15.21.33.25a.85.85,0,0,0-.17-.33.1.1,0,0,0-.12,0A.1.1,0,0,0,48.8,55Z"/><path class="cls-3" d="M56.76,47.15a.11.11,0,0,0-.17,0c-.12.11,0,.13.08.2h0C56.74,47.28,56.83,47.25,56.76,47.15Z"/><path class="cls-3" d="M56.44,46.64c-.11-.09,0-.24-.14-.41v.41s0,.12.1.11S56.45,46.68,56.44,46.64Z"/><path class="cls-3" d="M56.38,45.6v-.07s-.11,0-.12,0a.16.16,0,0,0,.05.23h0S56.34,45.64,56.38,45.6Z"/><path class="cls-3" d="M49.1,61.93a.12.12,0,0,0,.21,0c0-.08.08-.17.15-.17s.18-.12.26-.19-.18,0-.27-.05h0l-.08.07a1.83,1.83,0,0,0-.24.13A.14.14,0,0,0,49.1,61.93Z"/><path class="cls-3" d="M48.79,56.37c0-.1-.14,0-.2,0l.07.13C48.75,56.5,48.83,56.47,48.79,56.37Z"/><path class="cls-3" d="M44.88,52c-.15,0-.14.08-.16.17a2.73,2.73,0,0,0-.56.15.25.25,0,0,1-.14.06c-.15.1-.3,0-.44,0s-.06.14-.08.21l.09.08L44,52.5h.07c.16.08.32,0,.49,0a.14.14,0,0,1,0-.06,3,3,0,0,1,.68-.14c.17,0,.34-.19.29-.27s-.22,0-.34,0S45,52,44.88,52Z"/><path class="cls-3" d="M45,51.67h-.14C44.93,51.75,45,51.74,45,51.67Z"/><path class="cls-3" d="M41.65,52.78a.46.46,0,0,1-.07.07c-.13,0-.31.13-.4-.08l-.1.08A.18.18,0,0,0,41,53a.1.1,0,0,0,0,.13h.28a.22.22,0,0,1,.21-.12h.22a.36.36,0,0,0,0-.09c0-.07,0-.14,0-.17S41.69,52.73,41.65,52.78Z"/><path class="cls-3" d="M42.43,52.22h0s0,.05,0,.07.18,0,.28,0C42.67,52.07,42.54,52.19,42.43,52.22Z"/><path class="cls-3" d="M43.76,52.15l0,0,0,0a0,0,0,0,0,0,.05S43.77,52.19,43.76,52.15Z"/><path class="cls-3" d="M47.37,48.08c.09,0,.07-.12.06-.19C47.22,47.9,47.34,48,47.37,48.08Z"/><path class="cls-3" d="M44,49.6v-.2H43.8s-.11.06-.11.13a.08.08,0,0,0,0,.07h0A.2.2,0,0,0,44,49.6Z"/><path class="cls-3" d="M42,51.41a.35.35,0,0,0,.07.26l0,0a.35.35,0,0,0,.17,0l.07,0h0c.07-.08.19-.15.07-.27a.65.65,0,0,0-.22.11C42.11,51.54,42.07,51.44,42,51.41Z"/><path class="cls-3" d="M45.89,46.79c-.06-.11-.15,0-.24,0s0,.23.14.27S46,46.91,45.89,46.79Z"/><path class="cls-3" d="M60.47,46.63c.07,0,0,.17.13.21l0-.06c-.06-.08,0-.18-.06-.26A.14.14,0,0,0,60.47,46.63Z"/><path class="cls-3" d="M75.55,46.78s-.1.06-.1.13a.21.21,0,0,0,.1.14c.13.05.2-.13.23-.1s.14-.07.2-.11h0c-.09-.06-.2,0-.29-.06h-.14Z"/><path class="cls-3" d="M75.62,45.6s.1,0,.11-.07,0-.12-.1-.11a1.45,1.45,0,0,0-.28,0A.29.29,0,0,0,75.62,45.6Z"/><path class="cls-3" d="M96.51,93.35v.05c0,.09.1.15.21.08h0C96.72,93.34,96.63,93.32,96.51,93.35Z"/><path class="cls-3" d="M98,97.28a1.47,1.47,0,0,0,.41-.62,1.61,1.61,0,0,0-.5.35C97.85,97.11,97.77,97.23,98,97.28Z"/><path class="cls-3" d="M94.64,94.86l.08-.06v-.15h-.15C94.54,94.74,94.44,94.85,94.64,94.86Z"/><path class="cls-3" d="M97.14,93a.32.32,0,0,0-.27.06c0,.2.12.1.21.07Z"/><path class="cls-3" d="M94.28,90.37a.13.13,0,0,0-.07-.14c-.09.06-.16.15-.28.15s0,.09.07.14S94.21,90.46,94.28,90.37Z"/><path class="cls-3" d="M73.44,45.66c0,.08.08.08.11.14a.12.12,0,0,0,.2,0c.1-.1,0-.14-.07-.19h-.06C73.55,45.61,73.47,45.58,73.44,45.66Z"/><path class="cls-3" d="M68.74,44.16l.08.06c.11,0,.22,0,.21-.13a.38.38,0,0,0-.28-.07A.11.11,0,0,0,68.74,44.16Z"/><path class="cls-3" d="M73.91,45.88c.08.27.13,0,.2,0v-.06c0-.07,0-.14-.11-.06A1.13,1.13,0,0,0,73.91,45.88Z"/><path class="cls-3" d="M102.51,76.65c0,.14.12.13.22.14h0a.14.14,0,0,0,0-.15l-.09-.06C102.57,76.54,102.54,76.59,102.51,76.65Z"/><path class="cls-3" d="M102.25,76.68c-.18,0-.37,0-.31.25h0c.09.06.2,0,.29.06h0a.23.23,0,0,0,.07.07h0l.13,0s.15.06.14-.06-.06-.09-.12-.09-.15,0-.15-.14Z"/><path class="cls-3" d="M102.38,77.6a.28.28,0,0,0-.15-.06s0,.06-.08,0,0,0,0-.08a.38.38,0,0,0,0-.1s-.05,0-.07-.07-.12-.13-.18-.2-.09-.08-.14,0a.11.11,0,0,0,0,.16.64.64,0,0,1,.2.49h0a.15.15,0,0,0,.11,0c.07,0,.07.07.1.1s0-.2.21-.17S102.42,77.65,102.38,77.6Z"/><path class="cls-3" d="M71.11,46.38a.07.07,0,0,0-.07-.06c-.08,0-.11,0-.15.11s0,0,0,.06v0s0,0,0,0S71.11,46.48,71.11,46.38Z"/><path class="cls-3" d="M9.68,74.13s-.06,0-.07.06.06.1.13.11a.17.17,0,0,0,0,0S9.75,74.13,9.68,74.13Z"/><path class="cls-3" d="M104.52,82l-.15-.14a.46.46,0,0,1-.07-.07c-.08,0-.07.14-.07.21l.07.14h.3s0,0,0-.07Z"/><path class="cls-3" d="M81.32,62.31c.06.09.11.16.24.13s.1,0,.13-.07l-.14-.14H81.4C81.34,62.22,81.32,62.26,81.32,62.31Z"/><path class="cls-3" d="M85.92,63.4c0,.11.11.13.21.07s-.1-.14-.2-.13S85.89,63.37,85.92,63.4Z"/><path class="cls-3" d="M75.83,53.05l.08-.06c0-.09.12-.19-.07-.2S75.71,53,75.83,53.05Z"/><path class="cls-3" d="M16.11,70.23c-.05-.07-.09-.14-.14-.2s-.18.14-.28.28C15.86,70.27,16,70.48,16.11,70.23Z"/><path class="cls-3" d="M16.16,70.7c0-.06-.05-.09-.12-.1s-.1.08-.1.15,0,.15.11.14A.17.17,0,0,0,16.16,70.7Z"/><path class="cls-3" d="M17.76,72a.2.2,0,0,0-.18-.22s-.09,0-.1.08a.27.27,0,0,0,.21.24C17.75,72.06,17.75,72,17.76,72Z"/><path class="cls-3" d="M13.53,66.23c.05.08.09,0,.14,0S13.57,66.17,13.53,66.23Z"/><path class="cls-3" d="M14.88,63.62h0a1.48,1.48,0,0,0,0-.21c0-.1-.13-.16-.14-.27a.4.4,0,0,1-.14-.15l-.07-.08h0a.13.13,0,0,0,0-.06.16.16,0,0,0-.12,0l-.06,0h0c0-.13-.07-.11-.15-.07l-.06,0a1,1,0,0,0,.41.61h0l0,.06h0l.08.09,0,0a.57.57,0,0,1,.08.13C14.8,63.75,14.89,63.76,14.88,63.62Zm-.55-.7h0Z"/><path class="cls-3" d="M10.54,67.82h0s0,.08.09,0Z"/><path class="cls-3" d="M17.89,64v-.4c-.22.16-.24.28-.07.46h0A.27.27,0,0,0,17.9,64Z"/><path class="cls-3" d="M30.82,54.35a.77.77,0,0,0-.69.22l-.28.07c-.09,0-.11,0-.15.07a1.75,1.75,0,0,1-.64.14.18.18,0,0,1-.09.06h0s-.05,0-.08.06h0c-.13,0-.29,0-.38.11.1.07.21,0,.32,0l.07-.06.14,0a.22.22,0,0,0,.16,0h0l.13,0a.14.14,0,0,0,.14-.06c.14,0,.28-.08.42,0s.18-.17.32-.17.3-.07.45-.09a1.23,1.23,0,0,0,.38-.08C31.07,54.4,30.93,54.38,30.82,54.35Z"/><path class="cls-3" d="M36.2,53.33c.21-.23,0-.24-.15-.24s-.24,0-.33.12a.7.7,0,0,1-.43.19c0,.09-.14.22.07.18a6.22,6.22,0,0,0,.71-.19h0Z"/><path class="cls-3" d="M33.13,53.59c0,.11-.4,0-.14.23h.07a1.11,1.11,0,0,1,.39-.2c.11,0,.19-.09.18-.21a.09.09,0,0,0-.13,0,.37.37,0,0,1-.29.14Z"/><path class="cls-3" d="M34.92,52.65h-.06s-.07,0-.08.06.1.1.16,0S34.93,52.68,34.92,52.65Z"/><path class="cls-3" d="M39.79,52.57a.78.78,0,0,1-.42.14,2,2,0,0,1-.58.14.06.06,0,0,0,0,.06.1.1,0,0,0,.05,0c0,.07-.06,0-.07.07-.21.14-.49.18-.67.37H38s-.07,0-.07.07l.08.08c.1,0,.21-.06.26.08s.1.06.15,0a.38.38,0,0,0,.15-.18l0,0a0,0,0,0,1,0,0c.19-.11.41,0,.61,0s.11-.41.39-.42l.07,0a.29.29,0,0,0,.19-.13h.06l.07-.07h0C40,52.57,40,52.51,39.79,52.57Z"/><path class="cls-3" d="M39.87,53.54s0,.09,0,.13.13.08.21.07,0-.28,0-.41a.15.15,0,0,0-.14.07C39.87,53.43,39.9,53.5,39.87,53.54Z"/><path class="cls-3" d="M44.94,47.88v-.15l-.07-.07c-.18,0-.13.12-.08.22h0c.06,0,0,.17.14.14h0s0,0,0,.06.13.26.2,0C45.07,48,45.06,47.9,44.94,47.88Z"/><path class="cls-3" d="M99.36,77s0,.06.08.1h.06a.11.11,0,0,0,.15,0c.12-.09,0-.13-.06-.15H99.5S99.37,76.89,99.36,77Z"/><path class="cls-3" d="M95.57,74.1a4.43,4.43,0,0,0,.8.27.16.16,0,0,0,.19-.06.15.15,0,0,1-.13-.07l-.07-.07c-.14-.07-.32,0-.43-.14a.13.13,0,0,0-.07-.06h-.07a.15.15,0,0,0-.21,0h0A.09.09,0,0,0,95.57,74.1Z"/><path class="cls-3" d="M98.91,77c-.16,0-.28-.06-.38.12C98.68,77.12,98.79,77.17,98.91,77Z"/><path class="cls-3" d="M98.65,76.78a.11.11,0,0,0,.07-.12c-.14,0-.15,0-.14.06l.07.07Z"/><path class="cls-3" d="M100.72,76.65c-.11-.05-.23-.14-.29.06s0,.15.08.21c-.11,0-.22,0-.27.13h.06l.14.07.07-.07v-.13c.12.14.24.09.35,0s.12-.06.18-.11l-.17-.09A.17.17,0,0,1,100.72,76.65Z"/><path class="cls-3" d="M99.25,75.84l0,0c.09,0,.08,0,.09-.11S99.24,75.75,99.25,75.84Z"/><path class="cls-3" d="M93.5,71.82h0s0,0,0,0h0a.16.16,0,0,0,.07-.07v0C93.54,71.68,93.42,71.65,93.5,71.82Z"/><path class="cls-3" d="M94.06,72.76v0h0s0,.06.06.08l.09,0h0s0,0,0,0,0,0,.05,0,.11,0,.11-.06-.18-.2-.33-.19S94.05,72.73,94.06,72.76Z"/><path class="cls-3" d="M20,77v.06c.07,0,.09.15.21.14S20.14,77,20,77Z"/><path class="cls-3" d="M12.39,75.2c0,.1,0,.2.15.21a.06.06,0,0,0,.07,0l.07-.09a.08.08,0,0,1,.07,0c.08-.11,0-.15-.07-.2h-.14s-.1,0-.15.06Z"/><path class="cls-3" d="M13,76.1h0a.38.38,0,0,0-.36,0A1.45,1.45,0,0,0,13,76.1Z"/><path class="cls-3" d="M13.11,76c0,.07.08.07.14.07S13.17,76,13.11,76Z"/><path class="cls-3" d="M59.1,61.61c-.06,0-.09,0-.12,0l-.13.24a.14.14,0,0,0,0,.09q.1.17.24,0l.08-.13C59.16,61.79,59.21,61.68,59.1,61.61Z"/><path class="cls-3" d="M53.59,57.88s0-.1-.07-.13h0a.09.09,0,0,0-.14,0h0a.45.45,0,0,0-.08.27c.15.13.25,0,.36-.07Z"/><path class="cls-3" d="M51.18,58.74c.08-.08,0-.16,0-.23C51,58.55,51.07,58.64,51.18,58.74Z"/><path class="cls-3" d="M58,47.19c.1,0,.14.18.29.18s0-.26-.09-.38C58,47,58,47,58,47.19Z"/><path class="cls-3" d="M47.67,63.64a.12.12,0,0,0,.11.15c.13,0,.07-.11.08-.18h0C47.8,63.64,47.7,63.51,47.67,63.64Z"/><path class="cls-3" d="M48.66,64.9l0,.08c0,.08.12.1.18.15h0a.23.23,0,0,1,.07.07c.08,0,.11.08.15.13s.14,0,.14-.13-.2-.23-.29-.35-.15-.08-.21-.14h0a.15.15,0,0,0-.07.14Z"/><path class="cls-3" d="M96.64,100.39c-.09,0-.16.06-.12.11.16.22,0,.27-.16.29l-.07.08c0,.06-.11.09-.09.17a1.42,1.42,0,0,0,.54-.23C96.84,100.73,96.77,100.43,96.64,100.39Z"/><path class="cls-3" d="M97.44,100.38h0a.1.1,0,0,1,0,.14h0a.08.08,0,0,0,0,.14h0c.11.06.2.09.16-.09a.09.09,0,0,1,0-.11c0-.11,0-.22-.07-.33C97.38,100.1,97.37,100.12,97.44,100.38Z"/><path class="cls-3" d="M96.08,99.63c0,.05,0,.11.09.12s.11-.06.12-.13S96.15,99.61,96.08,99.63Z"/><path class="cls-3" d="M97.21,98.38l.09.13h.06s0-.08,0-.13,0-.1-.06-.09S97.24,98.35,97.21,98.38Z"/><path class="cls-3" d="M97.83,97.4h0S97.84,97.38,97.83,97.4Z"/><path class="cls-3" d="M93.42,100.31v-.06c-.1,0-.2,0-.19.12s.12.17.15,0C93.38,100.34,93.41,100.33,93.42,100.31Z"/><path class="cls-3" d="M93.18,99.64s0,0,0,0,0-.06,0,0,0,0,0,0Z"/><path class="cls-3" d="M93.57,90.31h0s-.07-.12-.14-.15a.11.11,0,0,0-.08,0,.2.2,0,0,0-.07.29h.54C93.72,90.35,93.61,90.4,93.57,90.31Z"/><path class="cls-3" d="M97.57,98.87a.31.31,0,0,0,.09.19.15.15,0,0,0,0-.23S97.6,98.83,97.57,98.87Z"/><path class="cls-3" d="M72.25,46.3l.22.07c.08-.09.17-.17-.06-.17,0,0,0,0-.08,0S72.23,46.22,72.25,46.3Z"/><path class="cls-3" d="M102.14,76.06c-.06.13.11.08.14.15s0,0,0,0h0c.08-.06.11-.13,0-.19S102.16,76,102.14,76.06Z"/><path class="cls-3" d="M101.51,76.93s.11,0,.15.06h0c.07-.06.1-.14,0-.19s-.14,0-.15.13Z"/><path class="cls-3" d="M103.22,78.79c-.09-.06-.14,0-.15.08s0,0,0,0,0,.07,0,.09-.06.21.09.24.21,0,.22-.18A.39.39,0,0,1,103.22,78.79Z"/><path class="cls-3" d="M69,56.12a.63.63,0,0,0,0,.58l0,0a.11.11,0,0,0,.12,0,.15.15,0,0,0,0-.13s-.08,0,0-.07l.09,0c.21-.38.19-.52-.06-.65h0a.08.08,0,0,0-.13,0A.73.73,0,0,1,69,56.12Z"/><path class="cls-3" d="M68.36,55.39s-.07,0-.11.08l-.07.07c0,.06,0,.15.11.09s.07-.11.1-.17S68.4,55.39,68.36,55.39Z"/><path class="cls-3" d="M68,55a.13.13,0,0,1,0,.06l.06.07.14-.07s0,0,0-.07h0l-.06-.07h0C68.1,54.88,68.07,54.93,68,55Z"/><path class="cls-3" d="M103.45,79.62h0c0-.08,0-.19-.12-.24C103.29,79.51,103.29,79.6,103.45,79.62Z"/><path class="cls-3" d="M81.4,60.63a.09.09,0,0,0,0,.06.1.1,0,0,0,0,.07l0,0h.14a.46.46,0,0,1,.07-.07v-.14h-.18A.12.12,0,0,0,81.4,60.63Z"/><path class="cls-3" d="M84,62.67l0,0s0,0,0,0v0Z"/><path class="cls-3" d="M84.42,66.55a.11.11,0,0,0,0,.08l.06.08.12.08c.23.12.47.21.69.35a2.28,2.28,0,0,1,.3.17c.08,0,.17.09.25,0a.14.14,0,0,0,0-.25h0a.44.44,0,0,0-.2-.11.46.46,0,0,0-.23,0l-.29-.21s-.1,0-.14-.07h0a.36.36,0,0,0-.42-.15Z"/><path class="cls-3" d="M74.4,57.18c0-.07,0-.15-.07-.19S74.31,57.14,74.4,57.18Z"/><path class="cls-3" d="M79,56.1v0c.05,0,.1.09.16.05s0-.13,0-.19l-.06,0A.12.12,0,0,0,79,56.1Z"/><path class="cls-3" d="M23.24,72.31c.06-.15,0-.2-.25-.21h0a.21.21,0,0,0,.14.26S23.23,72.36,23.24,72.31Z"/><path class="cls-3" d="M20.4,74.57l.26-.11c.11,0,.21-.07.15-.2s-.16-.06-.25,0-.25.12-.37.19C20.13,74.68,20.32,74.54,20.4,74.57Z"/><path class="cls-3" d="M15.3,75.56l-.26,0h0C15.1,75.62,15.18,75.64,15.3,75.56Z"/><path class="cls-3" d="M14.68,75.75v-.14h-.08C14.57,75.69,14.52,75.77,14.68,75.75Z"/><path class="cls-3" d="M19.84,74.72c.05.09.14.06.21.07h.06C20,74.68,19.93,74.72,19.84,74.72Z"/><path class="cls-3" d="M19.53,62.23v0l0,0a0,0,0,0,0,0,0S19.53,62.26,19.53,62.23Z"/><path class="cls-3" d="M34.51,54.37a.11.11,0,0,0-.08,0,.13.13,0,0,0-.07.06v0a.58.58,0,0,0,.62,0c.15-.09,0-.11,0-.17h-.13A1.28,1.28,0,0,1,34.51,54.37Z"/><path class="cls-3" d="M32.62,53.78l-.13,0h-.15c-.09,0-.2,0-.28.07H32a1,1,0,0,0-.66.27l-.12.06-.07.06a.18.18,0,0,0-.07,0l0,0,.15.13h.07a.46.46,0,0,1,.43-.2l.43-.21h.06a.23.23,0,0,0,.22-.06h0c.15,0,.31,0,.44-.06S32.82,53.7,32.62,53.78Z"/><path class="cls-3" d="M34,53.65c0-.06-.11,0-.16,0a1.45,1.45,0,0,1-.45.13c-.12,0-.08.08-.06.14h.14c.09-.06.2,0,.29-.06h0c0-.06.09-.06.15-.08S34,53.69,34,53.65Z"/><path class="cls-3" d="M31.21,54c-.06.05-.15,0-.22.06l-.07.13h0a.17.17,0,0,0,.21,0C31.14,54.08,31.33,54.09,31.21,54Z"/><path class="cls-3" d="M34.21,58.43a.27.27,0,0,1,.14.14.27.27,0,0,0,.06.12l.1.09c.08.07.2.11.28.19h-.18l-.11,0h0c0-.06,0-.13-.07-.17h0c-.07,0-.09.12-.12.19s0,.15.13.14h.08a9.76,9.76,0,0,0,1.43,0c.06,0,.21,0,.14.12s0,.23-.14.3l-.07.07h0a.28.28,0,0,1-.14.21c.05.08.13.06.2,0s0-.28.21-.34l0,0a.16.16,0,0,0,0-.07v0a.3.3,0,0,1,.09-.21h.07a.23.23,0,0,0,.15-.15c0-.12-.06-.17-.18-.12a2.22,2.22,0,0,1-.85-.07v-.06a.15.15,0,0,0-.09-.06h-.12c-.14,0-.31,0-.37-.12s-.18-.06-.27-.09l-.07-.07h0s-.11,0-.14-.07h0a.16.16,0,0,1-.07-.07h0a.12.12,0,0,0-.15,0Z"/><path class="cls-3" d="M33.22,59.32l.13,0h0s0,0,.05,0l.08-.06a.91.91,0,0,0,.49-.08c-.13-.13-.29,0-.43-.06h-.27C33.12,59.14,33.14,59.22,33.22,59.32Z"/><path class="cls-3" d="M31.92,59.26v.07h0a.38.38,0,0,1,.14.14h0c.25.09.17-.11.21-.21s-.16-.13-.28-.07a.23.23,0,0,1-.07.07Z"/><path class="cls-3" d="M37.64,53.12c0-.09,0-.13-.14-.13s0,.15.06.2l.08-.06Z"/><path class="cls-3" d="M39.57,53.12h0l.16-.11C39.55,53,39.55,53,39.57,53.12Z"/><path class="cls-3" d="M101.25,76.14a.07.07,0,0,0-.06.07c0,.06.08.08.14.09h0s0,0,0-.06S101.32,76.14,101.25,76.14Z"/><path class="cls-3" d="M93.26,73.68a.18.18,0,0,0,.07,0c.07,0,.15,0,.21.07l.16.09c.15,0,.22.13.3.24l.09,0c.27,0,.14.21.23.3a.39.39,0,0,0,.25.17c.19,0,.25,0,.23-.2h0l.13.07c.1,0,.15.16.28.16h0c0,.21.17.23.33.25l0,0,0,0h0a.34.34,0,0,0,.06.06l.07,0h0v0H96a.11.11,0,0,0,0,.08.12.12,0,0,0,.14,0h0s0,0,0,0c.05.25.28.34.48.44s.28.33.55.28h.2c.09,0,.24.05.3-.1a.27.27,0,0,0-.28-.09.45.45,0,0,1-.45-.21.53.53,0,0,0-.14-.12.24.24,0,0,1-.09-.08.16.16,0,0,1,0-.07c0-.06,0-.11,0-.17a.08.08,0,0,0-.05-.07.28.28,0,0,0-.22,0l-.17.07c0-.06,0-.1-.09-.14.13-.1.18-.21.07-.35h-.06c-.1-.11-.19-.24-.38-.11,0,0-.11,0-.17,0s-.35-.11-.53-.15l-.14-.08c-.06,0-.08-.07-.09-.11a1.44,1.44,0,0,1-.42-.5c0-.12-.13-.19-.22-.27h-.06c-.18,0-.14.13-.13.23s.11.12.17.2a2.22,2.22,0,0,1-.48-.27c-.15-.07-.21-.22-.33-.32l-.1,0a.31.31,0,0,0-.19,0l-.08,0a.24.24,0,0,0-.05.14c0,.08.09.12.15.16A.35.35,0,0,1,93.26,73.68Z"/><path class="cls-3" d="M88.47,69.12a.33.33,0,0,0,.17.35,4.59,4.59,0,0,0,1,.47.21.21,0,0,0,.13-.07.15.15,0,0,0,0-.09.21.21,0,0,0-.06-.08c-.11-.06-.08-.21-.16-.29s-.2-.1-.3,0-.25-.06-.33-.17-.1-.17-.22-.19a.31.31,0,0,0-.19,0A.16.16,0,0,0,88.47,69.12Z"/><path class="cls-3" d="M90.15,69.47c.09,0,.13,0,.13-.14l-.07-.07c-.06,0-.11,0-.14.08s0,.1.08.13Z"/><path class="cls-3" d="M92.07,71.34a1.45,1.45,0,0,1,.29.26c.09.07.2.07.28.15h.15v-.06l-.07-.08h0a2.57,2.57,0,0,0-.57-.35C92.08,71.24,92.06,71.27,92.07,71.34Z"/><path class="cls-3" d="M87.53,104.1l0,0-.08.06-.06.06c-.11,0-.11.06-.07.14h0a.41.41,0,0,1,.1.13.45.45,0,0,0,.06.15.27.27,0,0,0-.14.07.57.57,0,0,0,0,.13c.07.21.07.21.25.09,0,0,.06,0,.09,0l.09-.06c0-.08,0-.1-.08-.14h0a.19.19,0,0,0-.1,0,.55.55,0,0,0,.11-.16h0l.07-.06a.6.6,0,0,1,.35-.08v-.13a.13.13,0,0,0-.12,0C87.79,104.22,87.69,104.05,87.53,104.1Z"/><path class="cls-3" d="M87.79,104.86s.09,0,.09-.08,0,0-.09,0S87.74,104.82,87.79,104.86Z"/><path class="cls-3" d="M23,77.68a.17.17,0,0,0-.14.07h0s0,0,.07.07l.07.07c.09,0,.22,0,.15-.14l0,0-.08,0Z"/><path class="cls-3" d="M20.41,82c.07-.06.16,0,.25,0a.1.1,0,0,0,.06-.05v0h0s0,0,0-.06v0a.12.12,0,0,1,0-.1l.07,0c.09-.1.23-.17.22-.33a.15.15,0,0,0-.15-.07h0s-.11,0-.14.06h0s-.06,0-.07.07a.65.65,0,0,0-.24.19.32.32,0,0,1-.33.1.08.08,0,0,1,0,.05.21.21,0,0,1-.13.21.33.33,0,0,0,0,.41C20.17,82.25,20.24,82.05,20.41,82Z"/><path class="cls-3" d="M19.69,82.92l.07-.13c-.07-.1-.18-.06-.28-.07l0,0C19.52,82.84,19.5,83,19.69,82.92Z"/><polygon class="cls-3" points="19.97 82.31 19.98 82.31 19.98 82.3 19.98 82.31 19.97 82.31"/><path class="cls-3" d="M20,82.33v0S19.94,82.33,20,82.33Z"/><path class="cls-3" d="M23,79.78c0-.08.09-.23-.11-.24h-.06a.23.23,0,0,0-.07.07h0c0,.09,0,.2.07.27h0S23,79.88,23,79.78Z"/><path class="cls-3" d="M8.33,89A.24.24,0,0,0,8,89a.38.38,0,0,0,.28.15h0C8.33,89.08,8.41,89,8.33,89Z"/><path class="cls-3" d="M64.22,69.38v0c.12-.18,0-.38.06-.57a.19.19,0,0,1,0-.08h0a.07.07,0,0,1,0-.07c0-.06,0-.12,0-.17h0c-.11-.08-.22-.16-.35-.06a1.08,1.08,0,0,0,.06.4A.18.18,0,0,1,64,69a.13.13,0,0,1,0,.06.24.24,0,0,0,.06.34.19.19,0,0,0,.09,0,.17.17,0,0,0,.1,0S64.25,69.4,64.22,69.38Z"/><path class="cls-3" d="M52.44,66.36h0c.05.08.13.07.21.06V66.3h-.07S52.49,66.33,52.44,66.36Z"/><path class="cls-3" d="M65.5,70.5c0-.08-.14-.07-.22-.06a.17.17,0,0,0-.15.12.08.08,0,0,0,.05.08.39.39,0,0,0,.3-.06S65.51,70.51,65.5,70.5Z"/><path class="cls-3" d="M65.4,62.57c.1.07,0,.2.09.3.06-.09,0-.18.11-.23l0-.06a.17.17,0,0,0-.19-.16C65.37,62.43,65.4,62.52,65.4,62.57Z"/><path class="cls-3" d="M53.23,66.23h-.07c.07.1.18.07.28.06S53.3,66.24,53.23,66.23Z"/><path class="cls-3" d="M49.59,66s.08.1.12.1.08-.09.08-.16,0-.1-.07-.14-.13,0-.14.08Z"/><path class="cls-3" d="M38.19,62a.41.41,0,0,1,.24,0h.06c.08-.21-.11-.16-.21-.21s-.13,0-.19,0l-.14.08,0,0C38,62,38.07,62.05,38.19,62Z"/><path class="cls-3" d="M41.47,58.6c-.09-.12-.18,0-.31,0,.13.08.21.12.31,0A.06.06,0,0,0,41.47,58.6Z"/><path class="cls-3" d="M41.81,57.89c-.11,0-.29,0-.29-.08s-.11-.11-.2-.13a.19.19,0,0,1-.11-.07c-.07,0-.15-.1-.22,0a.19.19,0,0,0,0,.22s.09.08.13.12.2.12.29.18a.39.39,0,0,0,.49,0,.13.13,0,0,0,.06-.15A.11.11,0,0,0,41.81,57.89Z"/><path class="cls-3" d="M13.53,92.18a.14.14,0,0,1-.06-.14c0-.1-.06-.13-.14-.14s-.25,0-.12.17l.12.17C13.4,92.24,13.48,92.26,13.53,92.18Z"/><path class="cls-3" d="M97.58,82.33a2.25,2.25,0,0,1-.52-.08.34.34,0,0,0-.2,0c-.06.11-.48.06-.18.34l.1,0a.32.32,0,0,1,.2.1.35.35,0,0,0,.38,0c.28,0,.52-.17.8-.14.06-.1.19-.14.2-.28h0a.26.26,0,0,0-.28,0c-.13-.05-.27,0-.41,0Z"/><path class="cls-3" d="M84.36,102.65l.08.06c.17.1.18.09.2-.09a.34.34,0,0,0,0-.1h-.06C84.39,102.42,84.36,102.43,84.36,102.65Z"/><path class="cls-3" d="M85.78,103.16s0-.11-.1-.11-.05,0-.05.07,0,.11.1.11S85.78,103.2,85.78,103.16Z"/><path class="cls-3" d="M92.52,101.73c-.07-.13-.23,0-.31-.11s-.11-.25-.28-.27-.18,0-.2.09.06.1.13.13a.25.25,0,0,1,.18.23c0,.2.13.16.25.17a.93.93,0,0,0,.14-.14S92.52,101.79,92.52,101.73Z"/><path class="cls-3" d="M93.84,101.2v-.12a.07.07,0,0,0-.06-.07c-.06-.06-.11-.11-.21-.07h0c-.11.06-.08.14,0,.21a.13.13,0,0,1,0,.06s.05,0,.07,0a.2.2,0,0,0,0,.07h.2A.2.2,0,0,0,93.84,101.2Z"/><path class="cls-3" d="M91.71,95.49h.13c.06,0,.12-.08.17-.13s0-.1,0-.12S91.71,95.31,91.71,95.49Z"/><path class="cls-3" d="M92.69,94.54a0,0,0,0,0,0,0l0,0,0,0S92.67,94.55,92.69,94.54Z"/><path class="cls-3" d="M91.21,88.24c.14,0,.16.16.16.3l.16-.2,0-.17C91.4,88.18,91.28,88.14,91.21,88.24Z"/><path class="cls-3" d="M90.86,91a.08.08,0,0,0,.07.09s0,0,0,0a.08.08,0,0,0,0-.11l-.08-.06h0A.28.28,0,0,0,90.86,91Z"/><path class="cls-3" d="M20,98.8a.32.32,0,0,0,.21-.21h0a.09.09,0,0,0,0-.09c-.12-.17-.22-.1-.3,0l-.09,0-.08.07-.06.07c-.06.15,0,.18.15.14Z"/><path class="cls-3" d="M14.54,97.21l.15.13.34-.07C14.88,97.16,14.7,97.23,14.54,97.21Z"/><path class="cls-3" d="M12.32,94.66c-.1,0-.14,0-.14.13S12.33,94.75,12.32,94.66Z"/><path class="cls-3" d="M70.55,50.77l.07.07.13.14h0l.08-.06h0c.09-.16,0-.21-.14-.28l-.32,0C70.4,50.71,70.51,50.7,70.55,50.77Z"/><path class="cls-3" d="M69.25,55.61c.1,0,.16,0,.15-.09s0-.19-.15-.12Z"/><path class="cls-3" d="M68,58.78c.07,0,.15,0,.2-.06l-.06-.08C68,58.65,67.88,58.6,68,58.78Z"/><path class="cls-3" d="M81.52,61.14c.07-.08,0-.15,0-.22S81.46,61.07,81.52,61.14Z"/><polygon class="cls-3" points="81.49 60.92 81.49 60.92 81.49 60.92 81.49 60.92"/><path class="cls-3" d="M86.13,67.34v0s0,0,0,.06,0,0,.08,0l.11.05,0,0,.07,0a.06.06,0,0,0,.07,0v0a.57.57,0,0,0,.4.25c.13,0,.25.12.39.16a.44.44,0,0,0,.23,0c.07,0,.16,0,.21-.06s0,0-.07-.07l-.15-.08a.37.37,0,0,0-.21-.06c-.08-.06-.2-.1-.24-.18s-.29-.2-.49-.18l-.13-.06c-.06-.06-.16,0-.22-.06h0A.13.13,0,0,0,86.13,67.34Z"/><path class="cls-3" d="M87.23,67.42s0,.09.09.08a.13.13,0,0,0,.1-.12s0-.08-.09-.07S87.23,67.36,87.23,67.42Z"/><path class="cls-3" d="M83.81,66.05a.37.37,0,0,0,.39.25.15.15,0,0,0,.15-.07l-.07-.07a.27.27,0,0,1-.08-.07h-.06a.27.27,0,0,1-.08-.07H84a.27.27,0,0,1-.08-.07h0a0,0,0,0,0-.06,0A.12.12,0,0,0,83.81,66.05Z"/><path class="cls-3" d="M83.29,65.26l.2.08.07.06h0a.46.46,0,0,0,.07.07h0a.08.08,0,0,0,.09,0s0,0,0,0l0,0a.13.13,0,0,0,.06.07l.18.19h0a1.08,1.08,0,0,1,.36.05l.06,0c.08,0,.14,0,.09-.13l-.16-.22-.13-.07v-.14h0v0a.17.17,0,0,0-.17-.08l0,0a.36.36,0,0,0-.31-.11C83.5,65.14,83.35,65.09,83.29,65.26Z"/><path class="cls-3" d="M74.79,52.31a.1.1,0,0,0,.08.1.08.08,0,0,0,.1-.07c0-.07,0-.1-.1-.11S74.78,52.26,74.79,52.31Z"/><path class="cls-3" d="M78.8,57.78l0,0h0Z"/><path class="cls-3" d="M24.63,71.75c.07-.07.18,0,.26-.07l.1-.09,0,0h0a.11.11,0,0,0,.08,0l.12-.07c.11-.09.28-.12.31-.29h0l0,0c.14-.19.14-.19-.07-.21l-.07.06h0a1.06,1.06,0,0,0-.42.22l-.08.06h0s0,0,0,.06h-.06s0,0,0,0,0,0-.06,0h0a.13.13,0,0,1,0,.06h0c-.12,0-.19.09-.27.15l-.07.07c0,.06.09.06.14.07Z"/><path class="cls-3" d="M19.12,65.06h0s0,0,0,0,0,0,0,0l0,0a.17.17,0,0,0,0-.17h0c-.08,0-.11-.16-.22-.14v.07c.1.07.07.24.22.28h0a.34.34,0,0,0,.07.27C19.26,65.23,19.15,65.15,19.12,65.06Z"/><path class="cls-3" d="M20.48,65.12a.36.36,0,0,1-.15-.12h-.07a.05.05,0,0,0-.08,0,.17.17,0,0,0,0,.14c0,.12.15.15.25.21h0l.08.06h0s0,.1.07.14h0c.09.07,0,.25.22.27s.13.11.14.21,0,.26.25.25c0-.12,0-.25-.05-.38A6.61,6.61,0,0,0,20.48,65.12Z"/><path class="cls-3" d="M37.08,58.1l.06-.08a.15.15,0,0,0-.07-.14l-.28.21c-.09.18.06.13.14.14A.37.37,0,0,0,37.08,58.1Z"/><path class="cls-3" d="M38.3,52.93l-.09,0h0l.07.06Z"/><path class="cls-3" d="M94.71,77.27a1.16,1.16,0,0,0-.22-.13,2.09,2.09,0,0,0-.66,0,.1.1,0,0,0-.07.07.1.1,0,0,0,0,.09c.09.12.24.09.36.13s.18,0,.23.09S94.59,77.35,94.71,77.27Z"/><polygon class="cls-3" points="93.72 76.31 93.72 76.31 93.72 76.31 93.72 76.31"/><path class="cls-3" d="M93.81,76.33l-.09,0S93.76,76.39,93.81,76.33Z"/><path class="cls-3" d="M94.58,75.2c0-.06,0-.08-.06-.1a.09.09,0,0,0-.08,0l-.09.13C94.48,75.39,94.54,75.34,94.58,75.2Z"/><polygon class="cls-3" points="93.28 76.24 93.29 76.23 93.29 76.23 93.28 76.24"/><path class="cls-3" d="M93.14,76v.06s0,0,0,.08.09,0,.15.06h0c-.05.11-.21,0-.27.17a.84.84,0,0,0,.47,0c0-.06.14-.06.16-.14-.16,0-.12-.2-.23-.26S93.24,76,93.14,76Z"/><path class="cls-3" d="M94.64,75.69l.08.07s0,0,.07,0h.07v-.14H94.8a.18.18,0,0,0-.16,0h0A.06.06,0,0,0,94.64,75.69Z"/><path class="cls-3" d="M95.31,74.94a.72.72,0,0,0-.41-.24l0,.08h0c.09.06,0,.21.14.25a.13.13,0,0,0,.08,0h.13S95.34,75,95.31,74.94Z"/><path class="cls-3" d="M90.64,71.48a1.86,1.86,0,0,0,.56.24s.06.06.09.1.25.08.2-.13c-.08-.06,0-.22-.2-.21h0l-.1-.08c-.18-.08-.33-.22-.55-.16S90.54,71.41,90.64,71.48Z"/><path class="cls-3" d="M86.71,103.34c0-.06,0-.13-.08-.19h0l-.15-.14h-.06c-.08,0-.07.12-.06.19l0,0c.08,0,0,.13,0,.19l.06.06.09,0h.09A.11.11,0,0,0,86.71,103.34Z"/><path class="cls-3" d="M21.31,81.61c-.08-.08-.16,0-.22.09s0,0-.05,0H21c-.1.09-.22.18-.22.34-.08,0-.14,0-.21.06l-.06,0s-.08.07-.06.11.09,0,.13,0h.07l.06,0a.15.15,0,0,1,.07,0,.1.1,0,0,0,0-.07.09.09,0,0,0,0-.07l0,0s0,0,.07,0l.06,0a1.24,1.24,0,0,1,.29-.27C21.26,81.77,21.41,81.72,21.31,81.61Z"/><path class="cls-3" d="M24.14,79.21l0,0,0-.08a.53.53,0,0,0,0-.17.11.11,0,0,0,0-.08h0a0,0,0,0,0-.05,0h-.08v.06L24,79l-.09.12h0c-.29.17-.23.52-.48.77l.27-.07h0a.27.27,0,0,0,.08-.07,1.07,1.07,0,0,1,.29-.27.76.76,0,0,0,0-.21s0,0,0-.06A.06.06,0,0,0,24.14,79.21Z"/><path class="cls-3" d="M23.34,79.13a.46.46,0,0,1-.07.07l-.08.07c0,.18.12.11.21.07S23.42,79.18,23.34,79.13Z"/><path class="cls-3" d="M82.34,102.87h-.06s-.06,0-.08-.07h0c-.06,0-.07.09-.08.15s.12.19.26.18S82.34,103,82.34,102.87Z"/><path class="cls-3" d="M65.58,72.39c.17,0,.29,0,.38.13a.29.29,0,0,0,.15-.16.48.48,0,0,1,.07-.26c.1-.18.07-.27-.14-.4,0,.13-.05.26-.08.39S65.92,72.37,65.58,72.39Z"/><path class="cls-3" d="M72,71.28v-.67l-.15.1c0,.16,0,.32,0,.48s-.06.35.09.5A.26.26,0,0,0,72,71.28Z"/><path class="cls-3" d="M68.1,73.94a2.11,2.11,0,0,0,0-.26h0c-.08,0-.1,0-.14.08a.5.5,0,0,1-.07.27C68,74.09,68.08,74.06,68.1,73.94Z"/><path class="cls-3" d="M61.32,74.3c.06,0,.13,0,.11.09s.07.12.1.19a.74.74,0,0,0,.21,0c.08-.11,0-.2-.06-.28a.63.63,0,0,1-.16-.26C61.22,74,61.2,74.06,61.32,74.3Z"/><polygon class="cls-3" points="40.43 62.23 40.43 62.23 40.43 62.23 40.43 62.23"/><path class="cls-3" d="M40.06,61.83h0c-.07,0-.06.08,0,.13h0a.16.16,0,0,0,.07.07h0l.2.15s.11,0,.15.06a.6.6,0,0,0,.08-.08s0,0,0-.06C40.42,61.9,40.21,61.91,40.06,61.83Z"/><path class="cls-3" d="M13.82,92.73l-.14.13s0,0,0,.06C13.9,92.92,13.91,92.91,13.82,92.73Z"/><path class="cls-3" d="M15.39,94.25l-.05,0c-.08-.12-.2,0-.3,0H15a.66.66,0,0,0,0,.14.39.39,0,0,0,.31.11C15.39,94.42,15.47,94.37,15.39,94.25Z"/><path class="cls-3" d="M92.63,83.65s0-.07,0-.07-.07,0,0,.09a.36.36,0,0,0,0,.09h0A.13.13,0,0,0,92.63,83.65Z"/><path class="cls-3" d="M94.22,86.37h0c.1-.15,0-.22-.11-.31C94,86.23,94.19,86.27,94.22,86.37Z"/><path class="cls-3" d="M95.35,100.94h0l-.09-.06c-.06,0-.12-.12-.2,0a.13.13,0,0,0,0,.21c.07.06.11.17.24.18S95.35,101,95.35,100.94Z"/><path class="cls-3" d="M82.66,101.13c.09,0,.1-.07.12-.13a.22.22,0,0,0-.21-.13.69.69,0,0,0,0,.13C82.55,101.07,82.57,101.13,82.66,101.13Z"/><path class="cls-3" d="M21.07,98.78s0,.1.07.11.1,0,.12-.09,0-.15,0-.21c.1-.24,0-.47,0-.7a.09.09,0,0,0-.12-.09c-.06,0-.07.06-.07.1v.34A.83.83,0,0,1,21.07,98.78Z"/><path class="cls-3" d="M22.42,96.68a.17.17,0,0,0-.09-.11c-.12,0-.22-.14-.35,0h0a.16.16,0,0,0,0,.07.05.05,0,0,0,0,.06,1,1,0,0,0,.07.15h.08a.17.17,0,0,0,.19,0A.14.14,0,0,0,22.42,96.68Z"/><path class="cls-3" d="M69.54,57.61c0,.07-.13.13,0,.2s.12-.06.19-.08a.09.09,0,0,0,.08-.12c0-.07-.08-.07-.14-.06A.52.52,0,0,0,69.54,57.61Z"/><path class="cls-3" d="M83.77,66c0-.14-.07-.19-.14-.27s0,.13-.07.2a.14.14,0,0,0,.08.07h0C83.68,66,83.72,66,83.77,66Z"/><path class="cls-3" d="M24.3,77.65a.11.11,0,0,0-.08-.09.08.08,0,0,0-.09.07c0,.05,0,.09.07.1A.11.11,0,0,0,24.3,77.65Z"/><path class="cls-3" d="M27.54,75.55c.07.08.12,0,.17,0l.06,0c0-.15-.12-.11-.2-.07A.11.11,0,0,0,27.54,75.55Z"/><polygon class="cls-3" points="27.77 75.47 27.77 75.47 27.77 75.47 27.77 75.47"/><path class="cls-3" d="M27.85,75.22c0,.23.18.07.28,0h.07c.11.07.16-.06.24-.08a.88.88,0,0,0,.15-.12.14.14,0,0,0,0-.14.14.14,0,0,1-.14-.06.53.53,0,0,0-.43.27h0A.22.22,0,0,1,27.85,75.22Z"/><path class="cls-3" d="M27.34,75.8c-.05,0,0,.07,0,.1l.07-.07S27.38,75.77,27.34,75.8Z"/><path class="cls-3" d="M26.54,69.3a.06.06,0,0,0-.05-.08.11.11,0,0,0-.12.1c0,.05,0,.06.06.07S26.54,69.36,26.54,69.3Z"/><path class="cls-3" d="M26.27,67.4c-.1,0,0-.2-.18-.22s0,.27-.1.36,0,.22,0,.32,0-.13.12-.15,0,.23.2.18A1.17,1.17,0,0,1,26.27,67.4Z"/><path class="cls-3" d="M36.92,59.05v-.13h-.13C36.7,59.1,36.84,59.05,36.92,59.05Z"/><path class="cls-3" d="M90.63,75.89h0c-.08.17-.32.09-.46.27h.39c.1,0,.19-.08.3,0s.06-.05.07-.09L90.85,76C90.8,75.89,90.69,76,90.63,75.89Z"/><path class="cls-3" d="M92.35,72.85c0,.19,0,.21.22.28.05,0,.14,0,.08-.09s-.08-.17.09-.16,0,0,0-.09l-.06-.07C92.58,72.74,92.39,72.6,92.35,72.85Z"/><path class="cls-3" d="M92.07,72.44h0l0,0v0c.1.16.2.19.32,0a.39.39,0,0,1,.1-.08c0-.08,0-.15-.13-.1A.44.44,0,0,1,92.07,72.44Z"/><path class="cls-3" d="M87.86,68.78h0c.1,0,.19.13.34.1C88.08,68.77,88,68.63,87.86,68.78Z"/><path class="cls-3" d="M18,86.72l.09.14a.28.28,0,0,0,.28.17c.05,0,.11,0,.14,0h0A.42.42,0,0,0,18,86.72Z"/><path class="cls-3" d="M19.12,86.72c.21-.06,0-.13,0-.2s-.21,0-.2.11S19.05,86.74,19.12,86.72Z"/><path class="cls-3" d="M20.19,86.59a.08.08,0,0,1,0,.06l.12.07c.05,0,.11,0,.14.09a.15.15,0,0,0,.09,0c.1,0,.12-.11.11-.2a.18.18,0,0,0-.05-.07.94.94,0,0,0-.15-.06l0,0-.07,0h0C20.24,86.45,20.11,86.42,20.19,86.59Z"/><path class="cls-3" d="M77.48,84.33a.19.19,0,0,0,0,.08s0,.07.06.11l0,.06h0a.57.57,0,0,1,.06.36c0,.14,0,.22.17.24h0a.13.13,0,0,0,.07.09h0v.14l.06,0h0c0,.1,0,.23.12.28a.39.39,0,0,0,0-.51h0l0,0a.37.37,0,0,0-.07-.3.53.53,0,0,1-.11-.15h0a.23.23,0,0,1-.07-.07l-.15-.34C77.61,84.24,77.55,84.28,77.48,84.33Z"/><path class="cls-3" d="M85.64,105.36l-.16.12s-.18.09,0,.15a.33.33,0,0,0,.29,0h0c.06-.12.14,0,.21,0l.05,0v-.06a.09.09,0,0,1,0,0,.74.74,0,0,0,0-.33h0l-.3.13Z"/><path class="cls-3" d="M63.56,80.83a.14.14,0,0,0-.16-.11c-.11,0-.21,0-.22.16a.1.1,0,0,0,.1.11A.37.37,0,0,0,63.56,80.83Z"/><path class="cls-3" d="M69.78,94.22c-.11,0-.07.19-.17.23l-.07.07-.08,0a.11.11,0,0,0,0,.1.36.36,0,0,0,.11.1h.1c.18,0,.09-.19.17-.26h0C69.82,94.42,69.87,94.31,69.78,94.22Z"/><path class="cls-3" d="M61.45,82c-.08-.18-.08-.18-.35-.07,0,.13.14.18.18.32C61.33,82.15,61.36,82.07,61.45,82Z"/><path class="cls-3" d="M66.27,87.67c0,.09,0,.18-.09.23s0,.18,0,.27h0c0,.08,0,.16.06.21s.17.1.27.06,0-.4.14-.56c-.13-.07-.21.09-.32,0S66.36,87.74,66.27,87.67Z"/><path class="cls-3" d="M66.72,87.47c-.07.22.09.41,0,.62.14,0,.12-.1.13-.19s0-.3.07-.42,0-.25-.17-.23S66.74,87.39,66.72,87.47Z"/><path class="cls-3" d="M72.63,86.12a.09.09,0,0,0,.1.08.16.16,0,0,0,.13-.18.08.08,0,0,0-.09-.06C72.69,86,72.63,86,72.63,86.12Z"/><path class="cls-3" d="M83.06,100.58l.07.07c.11-.16.1-.2-.07-.27h0l-.07.08v.05Z"/><path class="cls-3" d="M72.33,81.27a.83.83,0,0,1,.07.34c0,.11.1.24.25.16s.12-.19,0-.29v-.07s0-.1-.07-.14l0,0s0,0,0,0,0-.11,0-.17,0-.11,0-.15h0c-.08-.07-.18,0-.27,0s-.15.07-.15.17S72.23,81.23,72.33,81.27Z"/><path class="cls-3" d="M71.76,93.69c-.11,0-.14.07-.14.16s0,.19-.08.25a2.16,2.16,0,0,0-.2.7l0,.12h0a.06.06,0,0,0,0,0,.45.45,0,0,0-.07.34c0,.11.06.2.2.13l.07-.07a1.12,1.12,0,0,1,.1-.4l0,0h.07a.15.15,0,0,0,0-.14h0a1.42,1.42,0,0,1,0-.5A2.28,2.28,0,0,0,71.76,93.69Z"/><path class="cls-3" d="M66.12,89.7a.18.18,0,0,1-.08.13c0,.14,0,.14.18,0a0,0,0,0,1,0,0,.15.15,0,0,0,0,.13c.11.05.16.18.29.21a.08.08,0,0,0,.07,0c0-.11.1-.22,0-.33s-.13-.31-.36-.22C66.15,89.55,66.18,89.69,66.12,89.7Z"/><path class="cls-3" d="M71.07,96.3c-.22.07-.18.27-.23.43a.25.25,0,0,0,.06.27c.08,0,.14,0,.21-.07s0-.18,0-.26S71.21,96.4,71.07,96.3Z"/><path class="cls-3" d="M66.69,94v-.13l-.14.07s0,.08,0,.13,0,.28.15.35h0A.56.56,0,0,0,66.69,94Z"/><path class="cls-3" d="M69,91.42h0s.11.17.14,0,0-.16-.06-.16S69.05,91.35,69,91.42Z"/><path class="cls-3" d="M65.22,77.1c.07.06.13,0,.18,0h0c-.07,0-.08-.13-.17-.07A.07.07,0,0,0,65.22,77.1Z"/><path class="cls-3" d="M66,72.64s0,.1.06.07S66,72.66,66,72.64Z"/><path class="cls-3" d="M69.89,63.52c.06,0,.1,0,.15-.05s.11-.14,0-.22-.08,0-.13,0a.61.61,0,0,0,0,.12S69.84,63.48,69.89,63.52Z"/><path class="cls-3" d="M66,61.27a.29.29,0,0,1,0-.09l0,0,.06.07Z"/><path class="cls-3" d="M38.5,70.65l.07,0h.12l.07,0a.53.53,0,0,0,.1-.06l.07-.06c0-.08,0-.14-.07-.14h-.07a.51.51,0,0,1-.29.13Z"/><path class="cls-3" d="M42.8,68.86l-.16,0h-.13c-.1.11-.27,0-.37.13s0,.06-.07.08h0c0,.06.1.06.16.08a2.78,2.78,0,0,1,.63-.16C42.89,69,43,68.87,42.8,68.86Z"/><polygon class="cls-3" points="92.28 81.75 92.28 81.75 92.28 81.75 92.28 81.75"/><path class="cls-3" d="M92.12,81.52a3.58,3.58,0,0,0-.45-.09.25.25,0,0,0-.17,0c0,.11,0,.2.14.21s.16,0,.22,0l.07,0h.35C92.37,81.58,92.22,81.56,92.12,81.52Z"/><path class="cls-3" d="M92.48,82.61s0,0,0,0,.06.07.11.09h0S92.57,82.61,92.48,82.61Z"/><path class="cls-3" d="M91.21,81.4l-.37,0c.11.18.37.07.45.26.1,0,.15,0,.09-.14l-.1-.13Z"/><path class="cls-3" d="M90.41,81.38c0,.09.06.15.15.18s0,0,.08.06c.23-.07,0-.14,0-.21S90.46,81.28,90.41,81.38Z"/><path class="cls-3" d="M92.59,81.31c.13.21,0,.33-.16.44h0s.1,0,.14.07a.21.21,0,0,1,.15.07.06.06,0,0,1,.06,0s.1,0,.15,0h0l.08,0a.12.12,0,0,0,.1,0,.14.14,0,0,0,.11.11h0c.41,0,.81.14,1.25.11-.08-.12-.21-.09-.26-.17L94,81.89a3,3,0,0,0-.43-.07h-.28s0,0,0-.06a.66.66,0,0,0-.43-.13c-.11-.15,0-.38-.21-.5A.14.14,0,0,0,92.59,81.31Z"/><path class="cls-3" d="M92.29,88.49a.06.06,0,0,0,.09.06s0,0,0-.08,0-.06,0-.06S92.29,88.45,92.29,88.49Z"/><path class="cls-3" d="M16.2,95.42a.22.22,0,0,1-.16-.07l-.28.07h0a.08.08,0,0,0,0,.13c.1,0,.21,0,.29.07a.37.37,0,0,0,.27-.07C16.32,95.47,16.29,95.42,16.2,95.42Z"/><path class="cls-3" d="M78.42,64.44h0a2,2,0,0,0-.06.23.11.11,0,0,0,.09.09s.08,0,.08,0,.26-.33.09-.56C78.53,64.26,78.54,64.4,78.42,64.44Z"/><path class="cls-3" d="M85,68l.06.07a.24.24,0,0,0,.29-.13h0s0,0-.07-.06h0C85,67.76,85,67.76,85,68Z"/><path class="cls-3" d="M85.28,70h0l-.08-.06h-.14s0,0,0,0a.06.06,0,0,1-.05,0l-.08-.06c0-.07-.12,0-.18,0s-.17,0-.24,0h0a.08.08,0,0,0-.08,0h0c-.09,0-.17,0-.23,0h-.36c-.08,0-.13-.16-.24,0a.06.06,0,0,0,0,.06c.06.11.17,0,.25.06v.07a.33.33,0,0,0,.13.07l.17.08a2.81,2.81,0,0,0,1,.18C85.16,70.15,85.29,70.14,85.28,70Z"/><path class="cls-3" d="M80.85,68.17l.07-.07a1,1,0,0,1,0-.17c0-.21-.09-.07-.15,0s0,0,0,.06S80.67,68.15,80.85,68.17Z"/><path class="cls-3" d="M81.63,68h.14v-.13C81.67,67.88,81.62,67.92,81.63,68Z"/><path class="cls-3" d="M83.06,69.54,83,69.49l-.15-.08a1,1,0,0,0-.28-.13l-.11,0-.07,0-.12,0h-.08a.34.34,0,0,1-.2,0h-.13s-.06,0-.1,0l-.08,0c-.18,0-.16.11-.07.22a.26.26,0,0,0,.17.09c.09,0,.19-.06.28,0s.25,0,.37.08a1.37,1.37,0,0,0,.49.13s.11,0,.14.07h0C83.22,69.69,83.14,69.61,83.06,69.54Z"/><path class="cls-3" d="M83,69.34h0c.11.06.25,0,.35.14h0c.09,0,.14,0,.14-.13a.49.49,0,0,0-.49-.14S83,69.29,83,69.34Z"/><path class="cls-3" d="M79.07,66.63c.05,0,.13.1.16,0s.11-.23-.1-.25l0,.08Z"/><path class="cls-3" d="M87.13,68.52c.17-.13-.08-.2,0-.31s-.1-.1-.17-.13c-.24,0-.24,0-.19.15l.06.06C86.9,68.37,86.92,68.57,87.13,68.52Z"/><path class="cls-3" d="M86.27,67.62c-.1,0-.14,0-.14.13l.08.06C86.42,67.8,86.31,67.7,86.27,67.62Z"/><path class="cls-3" d="M72.19,61.06c0-.06.07-.07.13-.08a.46.46,0,0,1,.14-.23s.09-.09,0-.14a.11.11,0,0,0-.18,0c-.1.17-.31.24-.41.4s0,.05-.05.05-.17,0-.09.16.11,0,.18,0S72.09,61.12,72.19,61.06Z"/><path class="cls-3" d="M72.41,60.23h0s0,0,0,.06h0a.23.23,0,0,0,.07.07h.06l.09-.14a.08.08,0,0,1,0,0C72.5,60.07,72.46,60.16,72.41,60.23Z"/><path class="cls-3" d="M71.34,59.13c0,.07,0,.16.06.17s.12,0,.14-.12,0-.21-.14-.12Z"/><path class="cls-3" d="M28.57,71.46c.08,0,.06-.12,0-.18l-.12-.22s-.05,0-.08-.06-.18.09,0,.33c0,0,0,0,0,0S28.48,71.5,28.57,71.46Z"/><path class="cls-3" d="M27.14,77.1c.05.17.24,0,.37,0l.11,0a.39.39,0,0,0,.29-.09c.11-.19.32-.29.43-.48h.07c0-.1,0-.2-.06-.28s-.05-.23-.23-.14-.25.27-.42.35l-.22.34C27.32,76.85,27.08,76.91,27.14,77.1Z"/><path class="cls-3" d="M27.06,71.2a.46.46,0,0,1-.07-.07h0a.11.11,0,0,0-.15,0,.3.3,0,0,0,.08.27C27.08,71.41,27.06,71.3,27.06,71.2Z"/><path class="cls-3" d="M27.2,68.86s.07-.1,0-.16-.11,0-.16,0l-.08.06a.13.13,0,0,0,.15.15A.22.22,0,0,0,27.2,68.86Z"/><path class="cls-3" d="M26.61,70.4l0,0c0,.09,0,.13.11.13a.16.16,0,0,0,0-.06S26.7,70.39,26.61,70.4Z"/><path class="cls-3" d="M92.91,81.3l.37.18c.08,0,.17,0,.25,0a.33.33,0,0,0-.17-.18C93.22,81.4,93.06,81.22,92.91,81.3Z"/><path class="cls-3" d="M92.71,77.21h-.13a.57.57,0,0,0,0,.13h.06c.12,0,.27,0,.37-.08h0C92.92,77.2,92.8,77.28,92.71,77.21Z"/><path class="cls-3" d="M90.07,76.29c-.22-.08-.42.09-.64.08a.22.22,0,0,0-.14,0l-.06.07a.18.18,0,0,0,0,.17c.07.06.14.18.22,0s.43,0,.64-.06h0Z"/><path class="cls-3" d="M87.35,71.75s-.11,0-.14-.07h0l-.08-.07h0a.05.05,0,0,0-.08,0,.22.22,0,0,0,0,.08,2.85,2.85,0,0,0,.08.51.24.24,0,0,0,.06.08.12.12,0,0,0,.14,0c0-.18,0-.37.07-.55Z"/><path class="cls-3" d="M91.14,72.45c-.08,0-.16,0-.2.06s.06.15.16.16S91.13,72.52,91.14,72.45Z"/><path class="cls-3" d="M91.73,72.67l-.09,0h0S91.68,72.74,91.73,72.67Z"/><path class="cls-3" d="M21.16,84.44s-.05,0-.1-.06L21,84.5l.05,0C21.09,84.51,21.17,84.52,21.16,84.44Z"/><path class="cls-3" d="M75.94,81.42a.23.23,0,0,0,.37.1l-.12-.17c-.07,0,0-.12-.09-.17s-.2-.17-.33-.05C75.83,81.23,75.89,81.32,75.94,81.42Z"/><path class="cls-3" d="M85.09,105.05c0,.09.06.08.12.1h0c0-.06,0-.12-.09-.12Z"/><path class="cls-3" d="M70.55,98.87v.33h.06a.28.28,0,0,0,.07-.19C70.61,99,70.65,98.87,70.55,98.87Z"/><path class="cls-3" d="M65,90.58a.49.49,0,0,1-.21.08.93.93,0,0,0-.14.14s-.1.12,0,.17.11,0,.16,0,.28-.11.29-.28A.6.6,0,0,0,65,90.58Z"/><path class="cls-3" d="M65.1,89.34s0,0,0,.07h.2c0-.15,0-.21-.2-.12A.13.13,0,0,1,65.1,89.34Z"/><path class="cls-3" d="M66.54,84.17V84c0-.07-.06-.16-.13-.05S66.41,84.17,66.54,84.17Z"/><path class="cls-3" d="M70.75,95.69a.35.35,0,0,1-.13.14c0,.15.1.14.21.13a.12.12,0,0,0,.07-.07l.08-.13A.15.15,0,0,0,70.75,95.69Z"/><path class="cls-3" d="M67.1,84.55a.43.43,0,0,0,0-.16c-.07,0-.18-.12-.2.06v.2C67,84.72,67.09,84.68,67.1,84.55Z"/><path class="cls-3" d="M67.11,84.17h.06l0-.13c-.06,0,0-.1-.08-.14h0c-.16-.08-.22,0-.29.14l-.06.14c0,.13,0,.13.13.07S67.06,84.26,67.11,84.17Z"/><path class="cls-3" d="M71,95.76a.2.2,0,0,0,.21.13c0-.11,0-.23,0-.33A.27.27,0,0,1,71,95.76Z"/><path class="cls-3" d="M72.46,70.86h0c.06,0,.15.11.19,0s-.06-.11-.13-.12S72.46,70.8,72.46,70.86Z"/><path class="cls-3" d="M72.84,62.85h0c-.06.06,0,.15-.07.21h0a2.72,2.72,0,0,1,0,.28.06.06,0,0,1,0,.06.4.4,0,0,0,0,.34h0a.11.11,0,0,0-.09.05c-.07.14-.15.29,0,.45a2.45,2.45,0,0,0-.11.41c0,.2,0,.43-.09.62a2.17,2.17,0,0,0-.08.76h.12a.23.23,0,0,0,.07-.07l0-.08a1.59,1.59,0,0,1,.07-.38,6.27,6.27,0,0,0,.17-1.37c0-.1,0-.21,0-.31a.07.07,0,0,0,0,0h.06c0-.16.11-.31.09-.47s0-.15.06-.21,0-.14,0-.2,0-.12-.08-.15h0S72.87,62.81,72.84,62.85Z"/><path class="cls-3" d="M71,62.26l0-.06s0,0-.06,0l0,.05S70.94,62.28,71,62.26Z"/><path class="cls-3" d="M31.8,73.23l.11,0,.08,0c.1,0,.1-.14.14-.22a4.24,4.24,0,0,1,.5-.62.23.23,0,0,0,.07-.07h0c0-.06-.08-.06-.13-.06h0l-.08,0-.15.08c-.07,0-.16.06-.2.15s-.21.23-.29.36a.71.71,0,0,1-.1.14l0,0-.06,0-.06,0a.34.34,0,0,0-.09.08.11.11,0,0,0,0,.08.14.14,0,0,0,.08.09h.08l.12,0Z"/><path class="cls-3" d="M33.71,73c0-.06-.07-.07-.13-.07a.23.23,0,0,1-.16.06c-.19,0-.25.13-.32.24s0,.1.11.11a.64.64,0,0,1,.43-.15A.14.14,0,0,0,33.71,73Z"/><path class="cls-3" d="M20.69,101.83v-.07c0-.09,0-.18,0-.27l0,0,0,0h.06s0,0,0-.06a.54.54,0,0,1-.07-.27h-.14v.55h-.07c0,.25,0,.28.21.27Z"/><path class="cls-3" d="M20.66,104.74a2.26,2.26,0,0,1,.63-.17.1.1,0,0,0,.06,0c0-.15.11,0,.14-.11l.06-.07c0-.17-.09-.17-.22-.1a.38.38,0,0,0-.24.13.32.32,0,0,1-.39,0v0a.21.21,0,0,0-.07-.13h0c.28-.06.12-.28.16-.43a5.26,5.26,0,0,1,0-.89,1,1,0,0,0,0-.24v0c0-.11-.15-.2-.07-.34s0,0,0-.06a.15.15,0,0,1-.07-.14c-.06,0-.11,0-.09.1s.06.27-.05.39a1.74,1.74,0,0,1-.11.9.23.23,0,0,0,0,.2.65.65,0,0,1,0,.34v.2c-.06.12.06.23,0,.34a.35.35,0,0,0-.05.13.38.38,0,0,0,0,.15.15.15,0,0,0,.1.09.1.1,0,0,0,.08,0Zm-.1-.67h0v0Z"/><path class="cls-3" d="M22.19,95.42h0l.07-.08v-.13a.14.14,0,0,0-.22,0c-.05.08.05.11.09.15Z"/><path class="cls-3" d="M22.76,96.78a.25.25,0,0,1,.14-.06v-.06l0,0a.15.15,0,0,0-.17,0l0,0C22.69,96.66,22.67,96.74,22.76,96.78Z"/><path class="cls-3" d="M73.91,61.07v.12C74,61.15,74,61.11,73.91,61.07Z"/><polygon class="cls-3" points="71.76 61.61 71.76 61.61 71.76 61.61 71.76 61.61"/><path class="cls-3" d="M71.32,61.5a.2.2,0,0,0,0,.25c.06.06.15,0,.23,0a.32.32,0,0,0,.17-.11,1.11,1.11,0,0,1-.31-.46A1.81,1.81,0,0,1,71.32,61.5Z"/><path class="cls-3" d="M24.67,78.55c-.11,0-.12.08-.19.09h0s-.07.14,0,.12A.19.19,0,0,0,24.67,78.55Z"/><path class="cls-3" d="M28.77,74.44h0c.07.12.14,0,.22,0v-.06s0,0-.07,0h-.07S28.8,74.42,28.77,74.44Z"/><path class="cls-3" d="M26,78h0c-.06-.08-.13-.12-.18,0s.06.07.11.08h0A.46.46,0,0,0,26,78Z"/><path class="cls-3" d="M31.64,78.79s0,.1.06.13c.3-.13.49-.41.79-.55,0-.09.23-.18,0-.27h-.06A4,4,0,0,0,31.64,78.79Z"/><path class="cls-3" d="M32.92,77.74l-.07,0s-.05,0-.06.06h0l-.07.06h0l-.08.07.09.08c.1,0,.21,0,.2-.15Z"/><polygon class="cls-3" points="32.63 77.96 32.63 77.96 32.63 77.96 32.63 77.96"/><path class="cls-3" d="M29.89,75a.16.16,0,0,0,0,.07v0c.07.07.13,0,.17,0s.05-.1.11-.13h0s.11,0,.14-.07h0a.27.27,0,0,0,.08-.07c.11-.1.13-.27.28-.34a.15.15,0,0,1,.14-.07l.08-.07h0c.05-.07.06-.16.11-.23s0-.18-.16-.1-.19.27-.36.34a.51.51,0,0,0-.3.17.13.13,0,0,0,0,.08.67.67,0,0,1-.09.21.18.18,0,0,0-.05.07.47.47,0,0,0-.05.1Z"/><path class="cls-3" d="M29.41,75.4c.05-.11.24-.18.08-.33h0s-.08,0-.11.07l-.1.07h0c-.06.09-.1.18.07.2Z"/><path class="cls-3" d="M29.57,68l-.15,0-.07.06c-.05.07-.13.06-.2.07a.29.29,0,0,0,.41.06A1.48,1.48,0,0,1,29.57,68Z"/><path class="cls-3" d="M91.77,81.14c-.1,0-.21,0-.13.13C91.73,81.27,91.78,81.24,91.77,81.14Z"/><path class="cls-3" d="M87.27,71.07s0,0,0,.05l.55.09c.18,0,.14-.12.08-.22h-.21C87.56,71,87.4,70.92,87.27,71.07Z"/><path class="cls-3" d="M22.4,85.28l-.16,0c-.06,0-.12,0-.15,0s0,.11,0,.16.21,0,.28-.07A.13.13,0,0,0,22.4,85.28Z"/><path class="cls-3" d="M25.06,83.37c-.13,0-.23.08-.14.24s.17,0,.2,0,.28.09.43.05C25.48,83.45,25.24,83.43,25.06,83.37Z"/><path class="cls-3" d="M26.72,83.42c.06.1.14,0,.21,0a1.17,1.17,0,0,0,.35-.27c.24-.23.31-.56.56-.77,0-.11.09-.2,0-.35l-.35.43a.49.49,0,0,1-.11.18,2.1,2.1,0,0,0-.4.44h0l-.08.06a.24.24,0,0,1-.11.13C26.73,83.29,26.68,83.35,26.72,83.42Z"/><path class="cls-3" d="M77.12,104.12c-.09,0-.06.12-.07.19C77.24,104.3,77.17,104.21,77.12,104.12Z"/><path class="cls-3" d="M65.25,91.34c0-.11,0-.22,0-.33s-.12-.08-.17,0a.41.41,0,0,0,.1.47h0a.09.09,0,0,0,0-.11s0,0,0,0a0,0,0,0,0,0,0S65.23,91.36,65.25,91.34Zm-.08,0Z"/><path class="cls-3" d="M76.41,74.89s0,.07,0,.07.09,0,.09-.11,0-.09,0-.09S76.42,74.82,76.41,74.89Z"/><path class="cls-3" d="M65.82,97.45a.36.36,0,0,0,0-.09.26.26,0,0,0,0-.15,1.2,1.2,0,0,0-.24-.15.1.1,0,0,0-.09,0,.28.28,0,0,0-.07.17,1.9,1.9,0,0,0,0,.34,1.06,1.06,0,0,1-.06.56l0,.13a.14.14,0,0,0,0,.09l0,.07h0c.06,0,.12,0,.1.11a.73.73,0,0,0,0,.36c0,.13.1.13.2.08l.07-.07h0c.05-.08,0-.1-.06-.14s0,0,0-.06A2.65,2.65,0,0,1,65.82,97.45Z"/><path class="cls-3" d="M68.72,101.62h.1v-.06l-.06,0s-.09,0-.12,0S68.67,101.62,68.72,101.62Z"/><path class="cls-3" d="M68.56,101.91s0,0,0,0h0c0-.07,0-.15-.06-.19a1.28,1.28,0,0,1,0,.19h0Z"/><path class="cls-3" d="M68.55,100.86c.11,0,.2,0,.21-.13s-.15,0-.22,0Z"/><path class="cls-3" d="M65.69,93.13c.09,0,0,.25.19.14a.57.57,0,0,0,0-.13C65.82,93.12,65.76,93,65.69,93.13Z"/><path class="cls-3" d="M60.68,84.79c0,.09,0,.12.12.12a.53.53,0,0,0,.08-.25C60.77,84.65,60.7,84.69,60.68,84.79Z"/><path class="cls-3" d="M46.16,77.75a.3.3,0,0,0,.29.06.16.16,0,0,0,.08-.06.11.11,0,0,0,0-.13h0a4,4,0,0,1-.49-.29h0a.13.13,0,0,1-.07-.06l-.07-.07a.23.23,0,0,1-.07-.07h0c-.14.06-.13.15,0,.24s.16.09.18.18h0l.08.06.07.07.06.07Z"/><path class="cls-3" d="M54,76.72v.06l.08,0C54.11,76.7,54.06,76.73,54,76.72Z"/><path class="cls-3" d="M31.12,73.89a.17.17,0,0,0,0-.07c.05,0,0-.1.08-.13h0a.25.25,0,0,0-.23-.14l-.21.07a.23.23,0,0,1-.07.07h0a.15.15,0,0,0,.15.07s0,0,0,0a.06.06,0,0,0,.05,0s.06,0,.07,0S31,73.88,31.12,73.89Z"/><path class="cls-3" d="M89.64,80.72c-.06,0-.11,0-.15,0a.08.08,0,0,0,0,.12h0s.09.07.14,0v-.14Z"/><path class="cls-3" d="M81.56,81.27h0c0-.07.15,0,.21-.07v-.07h-.35A.19.19,0,0,0,81.56,81.27Z"/><path class="cls-3" d="M22.29,93.36c0-.07-.09-.15-.18-.12s-.05.11-.06.17v.18a.4.4,0,0,1,.12-.08C22.23,93.47,22.36,93.48,22.29,93.36Z"/><path class="cls-3" d="M78.91,68.72s0,.06,0,.1-.06.13,0,.17a.15.15,0,0,0,.17-.08.5.5,0,0,0,0-.13A.29.29,0,0,0,78.91,68.72Z"/><polygon class="cls-3" points="27.63 82.93 27.63 82.93 27.63 82.93 27.63 82.93"/><path class="cls-3" d="M27.61,83l0,0S27.59,83,27.61,83Z"/><path class="cls-3" d="M31.63,67.54c0-.1-.05-.13-.14-.13l-.07.06C31.47,67.56,31.55,67.55,31.63,67.54Z"/><path class="cls-3" d="M88.47,76.49h0s0,0,0,0,0,0,0,0S88.47,76.48,88.47,76.49Z"/><path class="cls-3" d="M89.07,76.45l0,0,0,0Z"/><path class="cls-3" d="M89.54,80s-.07-.05-.11,0v.12S89.55,80.09,89.54,80Z"/><path class="cls-3" d="M23.34,84c-.05,0-.07-.12-.12-.09s0,.1,0,.15l.1.07h.05S23.35,84.07,23.34,84Z"/><path class="cls-3" d="M62.1,92.93s0,.12.09.11,0,0,0,0S62.16,92.94,62.1,92.93Z"/><path class="cls-3" d="M78,80.52s0,0,0,0c.2,0,.2,0,.14-.14A.19.19,0,0,0,78,80.52Z"/><path class="cls-3" d="M65.42,96.05a.07.07,0,0,0,0,.07s.06,0,.06-.05a.08.08,0,0,0,0-.08S65.41,96,65.42,96.05Z"/><path class="cls-3" d="M59.51,88.26H59.4c-.09.08-.1.21-.23.26-.18.26-.16.31.14.34,0-.06,0-.15,0-.16C59.59,88.61,59.53,88.43,59.51,88.26Z"/><path class="cls-3" d="M60.59,87.35l-.07-.07c-.07,0-.18,0-.17.08s0,.19.16.17S60.59,87.43,60.59,87.35Z"/><path class="cls-3" d="M55.73,83.4l-.06-.13c-.1,0-.16,0-.14.14Z"/><path class="cls-3" d="M48.16,78.65c0,.1,0,.16.09.13s.49-.18.73,0l0-.08c-.14-.07,0-.21-.08-.28s-.24-.07-.35-.13c-.05.11-.09.23-.26.19S48.16,78.55,48.16,78.65Z"/><path class="cls-3" d="M87.06,79.48h.07c.09-.1,0-.14-.07-.19h0C86.89,79.35,86.94,79.42,87.06,79.48Z"/><path class="cls-3" d="M82.05,80.66H82c-.07.08,0,.19-.06.27L82,81h.13l.07-.07C82.36,80.73,82.13,80.73,82.05,80.66Z"/><path class="cls-3" d="M82.86,79s.1,0,.08-.08-.1,0-.16,0v0Z"/><path class="cls-3" d="M24.26,96.48l0,0s0,0,0,0,.05,0,.06,0A0,0,0,0,0,24.26,96.48Z"/><path class="cls-3" d="M37.22,93.43a.43.43,0,0,0-.16-.35,4.12,4.12,0,0,1-.35-.89c-.1.12,0,.26-.14.33,0,.22.18.33.23.52a1.62,1.62,0,0,0,.27.58C37.22,93.63,37.2,93.51,37.22,93.43Z"/><path class="cls-3" d="M37.91,95.71a.32.32,0,0,1,0-.23,1.29,1.29,0,0,0,0-.28c0-.24-.17-.43-.2-.66,0,0-.05,0-.08,0h0v-.11H37.5a.09.09,0,0,0-.15,0,.21.21,0,0,0,0,.31.69.69,0,0,1,.15.48.46.46,0,0,0,.07.26.21.21,0,0,1,.06.08l.08.2a.14.14,0,0,1,.08.13A.17.17,0,0,0,37.91,95.71Z"/><path class="cls-3" d="M36.42,94.73a.34.34,0,0,0-.1,0c-.06,0-.13,0-.15.06s0,.09.09.13.26,0,.38-.06C36.6,94.77,36.47,94.81,36.42,94.73Z"/><path class="cls-3" d="M35.2,82.18h-.13c0,.12,0,.25.14.28S35.23,82.27,35.2,82.18Z"/><path class="cls-3" d="M26.63,88.93c.09,0,.14-.05.14-.14a.42.42,0,0,0-.28-.14c0,.13.06.2.14.28Z"/><path class="cls-3" d="M60.71,100.91c-.07.07-.05.16,0,.23l.08-.13.06-.08h0C60.83,100.87,60.77,100.84,60.71,100.91Z"/><path class="cls-3" d="M65.4,97.62c-.05-.09-.11-.14-.21-.06s0,.09-.07.14C65.25,97.8,65.35,97.8,65.4,97.62Z"/><path class="cls-3" d="M79,73.2a.13.13,0,0,0,.14.14A.12.12,0,0,0,79,73.2Z"/><path class="cls-3" d="M47,80.16a.29.29,0,0,0,0,.09.27.27,0,0,0,.06.1l0,0,.14-.06c.11,0,.26,0,.28-.14h0c-.13-.1-.38-.09-.34-.35-.07,0-.12,0-.17,0S47.05,80.06,47,80.16Z"/><path class="cls-3" d="M48,80.47s-.05,0-.05,0,.07.07.12.08h0S48.1,80.47,48,80.47Z"/><path class="cls-3" d="M46,79.2h.11l-.06-.09s-.08,0-.11,0S46,79.19,46,79.2Z"/><path class="cls-3" d="M47.09,78.79c0,.19.17.15.28.2.17-.14,0-.18-.08-.27l-.14-.13c-.06,0-.06.08-.07.13S47.09,78.76,47.09,78.79Z"/><path class="cls-3" d="M86.5,79.35h-.07s0,0,0,0a.08.08,0,0,0,.09,0S86.52,79.37,86.5,79.35Z"/><path class="cls-3" d="M26.27,102.31a.82.82,0,0,0,0-.35s0-.06-.09-.06c-.12.17-.06.4-.22.55h0c0,.08-.06.16,0,.21s.15,0,.2-.06a.42.42,0,0,0,.07-.24Z"/><path class="cls-3" d="M84.42,75.76a1.07,1.07,0,0,1-.57-.29h0a.16.16,0,0,0-.09,0c0-.13-.26,0-.3-.16a.42.42,0,0,1,0-.22c0-.07,0-.16-.13-.23,0,.23-.07.34-.3.37.19.24.51.19.65.41a4.92,4.92,0,0,0,1,.56c.07,0,.16,0,.2-.07L84.77,76c0-.08-.15-.09-.2-.15A.32.32,0,0,1,84.42,75.76Z"/><path class="cls-3" d="M28.34,94.65l.07-.07c0-.12.15-.2.14-.33s0-.17-.14-.08-.41.2-.28.49h0A.17.17,0,0,0,28.34,94.65Z"/><path class="cls-3" d="M27.77,96.73l-.14.06c-.06,0-.12,0-.14,0s0,.09.07.12h.21A.15.15,0,0,0,27.77,96.73Z"/><path class="cls-3" d="M37.42,94s0,0,0-.06c-.19-.1-.2-.09-.22.12a.2.2,0,0,1,.08.14C37.39,94.19,37.34,94.07,37.42,94Z"/><path class="cls-3" d="M37.06,88.39c-.08,0-.11-.17-.22-.09s0,.16,0,.24v0H37A.21.21,0,0,0,37.06,88.39Z"/><path class="cls-3" d="M36.18,84.08l0,0,0,.06s0,0,0-.06S36.19,84.1,36.18,84.08Z"/><path class="cls-3" d="M47.15,94.14c0,.06,0,.13-.06.17l0,0a.58.58,0,0,0-.06.26c0,.13,0,.28.15.35a.12.12,0,0,0,.1,0c0-.12-.13-.23,0-.35a.93.93,0,0,1,.07-.41s0-.1-.06-.11S47.16,94.09,47.15,94.14Z"/><path class="cls-3" d="M56.17,99.21c0-.07.11-.14,0-.21H56a.47.47,0,0,1-.17,0l-.09,0-.21,0H55l.2.13c.13,0,.23,0,.21.2a.13.13,0,0,0,.08.14h.13v-.11l0,0,0,0a.13.13,0,0,1,.09,0c.07,0,0,.07,0,.11s-.09.17,0,.24a.17.17,0,0,0,.1,0H56c.14,0,.33.05.4-.1S56.15,99.36,56.17,99.21Z"/><path class="cls-3" d="M56.34,96.75a.36.36,0,0,0,0,.09s.07.13.15.08,0-.18,0-.27v-.06h0l-.06-.08a1.08,1.08,0,0,1-.08-.19c-.11.07-.07.17-.07.27S56.32,96.7,56.34,96.75Z"/><path class="cls-3" d="M51.33,98.6c-.13.05,0,.18,0,.26h0l.08.07h0c.08,0,.1,0,.13-.07V98.8C51.42,98.76,51.48,98.56,51.33,98.6Z"/><path class="cls-3" d="M58.38,96.72a.23.23,0,0,0,.11,0l.09-.07,0,0c0-.08,0-.17-.08-.21a1.48,1.48,0,0,0-.29.27A.15.15,0,0,0,58.38,96.72Z"/><path class="cls-3" d="M60.62,101.55c0,.08.06.11.12.14h0a.23.23,0,0,0,.07-.07h0c0-.07,0-.13-.11-.12S60.63,101.51,60.62,101.55Z"/><path class="cls-3" d="M60,102.17c.05.18.11,0,.17,0h0c0-.06,0-.11-.08-.14h0a.46.46,0,0,0-.07.07S60,102.15,60,102.17Z"/><path class="cls-3" d="M61,101.22c0,.14.07.08.13.06S61,101.21,61,101.22Z"/><path class="cls-3" d="M59.89,102.32s0,.1-.08.13h0a.12.12,0,0,1-.08.06h-.06a.12.12,0,0,0-.08.1s0,0,.08,0H60c0-.07,0-.15.08-.2v-.06c0-.12-.05-.12-.14-.07Z"/><path class="cls-3" d="M48.58,85.41l0,0s0,0-.05,0a.13.13,0,0,0-.14.14.08.08,0,0,0,0,.07s0,0,.05.06l.14,0A.31.31,0,0,0,48.58,85.41Z"/><path class="cls-3" d="M27.13,91.69s-.09-.07-.14,0a.07.07,0,0,0,0,0c.05.06.11,0,.16,0Z"/><path class="cls-3" d="M46.36,101.21h0a5.37,5.37,0,0,0,.21.56v0c.22.32.22.32.23.49s.13.33.36.33a.23.23,0,0,0,.19-.18.22.22,0,0,0-.1-.22.07.07,0,0,0-.09,0h0a.21.21,0,0,0,0-.26.27.27,0,0,0-.29-.22h0v-.1s0,0,0,0-.05-.15-.09-.21-.12-.37-.38-.38C46.33,101.08,46.31,101.14,46.36,101.21Z"/><path class="cls-3" d="M39.72,100.55c0,.31,0,.35,0,.36h.07A.26.26,0,0,0,39.72,100.55Z"/><path class="cls-3" d="M25.51,104.13c0,.1-.1.21,0,.32l0,0a.17.17,0,0,0,.17,0h0l.08-.07c0-.06.28-.06.06-.19-.06,0-.16.08-.2,0S25.54,104.08,25.51,104.13Z"/><path class="cls-3" d="M44.14,97.36c.07,0,.24,0,.15-.14s-.3,0-.42-.09h-.29v0c-.08,0-.16,0-.23,0a.45.45,0,0,0,.23,0,.13.13,0,0,1,.14.07l.08.06h.06a.22.22,0,0,0,.19,0Z"/><path class="cls-3" d="M45.58,99.14l0,0a.25.25,0,0,1-.11-.18l0-.09a.34.34,0,0,0-.26-.24h0a.15.15,0,0,0-.14.07l.22.41c.06.06,0,.15.07.21h0l.07.06C45.54,99.37,45.59,99.29,45.58,99.14Z"/><path class="cls-3" d="M41.87,97.34h.05l.07-.07v0l-.05-.08s0-.09,0-.14.16,0,.21-.07-.13,0-.14-.11l-.08,0,0,0c-.07-.05-.15-.12-.24,0h0l.06.26.06,0A.43.43,0,0,0,41.87,97.34Z"/><path class="cls-3" d="M40.67,88.71h0c0-.07,0-.15-.07-.19a.22.22,0,0,1-.14-.06c-.12.09-.09.18,0,.26a.17.17,0,0,0,0,.07h.06v.06a.41.41,0,0,1,.15.26.19.19,0,0,0,.07.08h0a.49.49,0,0,0,.13.28.29.29,0,0,0,.15.14.64.64,0,0,1,.08.33c.06.07,0,.16.07.22h0s0,.11.06.16,0,.1,0,.16,0,0,.07.05c.07-.14.17-.14.29-.1h0a.28.28,0,0,0,0,.09,1.41,1.41,0,0,0,.17.32.61.61,0,0,1,.07.1.59.59,0,0,0,0,.08.35.35,0,0,0,.18.23c.15,0,.21.11.28.21s.17.1.2,0a1,1,0,0,0-.21-.43.22.22,0,0,0-.05-.08c-.14-.14-.18-.33-.3-.48h0l-.06-.06c-.07,0-.12-.1-.22-.09.05,0,.08-.12,0-.16-.22-.2-.35-.48-.62-.63h0a.76.76,0,0,0-.08-.36C41,89,40.87,88.79,40.67,88.71Z"/><path class="cls-3" d="M47,96c.09.1.13,0,.18,0v-.14a.1.1,0,0,1,0-.14v-.14c-.11-.06,0-.22-.14-.27C46.86,95.51,47,95.76,47,96Z"/><path class="cls-3" d="M53.09,101.28l.06-.07c0-.23-.16-.11-.27-.07a.17.17,0,0,1,0,.07C52.92,101.29,53,101.28,53.09,101.28Z"/><path class="cls-3" d="M57.22,97.39c.07,0,.08-.07.09-.11s-.09-.14-.14-.21-.19,0-.19.11S57.12,97.35,57.22,97.39Z"/><path class="cls-3" d="M56.74,98.93c0,.08.08.17.17,0l0-.1s0-.1-.07-.14h0C56.72,98.78,56.74,98.86,56.74,98.93Z"/><path class="cls-3" d="M57.59,97.55h0s-.05,0-.08,0-.12,0-.12.08,0,.06,0,.06.09,0,.12,0Z"/><path class="cls-3" d="M56.29,97.91s0,0,.08,0,.07,0,.07-.1a.05.05,0,0,0-.07,0A.16.16,0,0,0,56.29,97.91Z"/><path class="cls-3" d="M56.53,98.52h0a.11.11,0,0,0,.17,0,.08.08,0,0,0,0-.12C56.6,98.39,56.59,98.51,56.53,98.52Z"/><path class="cls-3" d="M55.6,100v0h0s0,.11.07.14a.13.13,0,0,0,.13.06.08.08,0,0,0,0-.12c-.07,0-.05-.14-.08-.21s0,0,0,0a0,0,0,0,0,0,0A.27.27,0,0,0,55.6,100Z"/><path class="cls-3" d="M44.88,96.93h-.15V97l.06.07.22.14a.11.11,0,0,0,0-.14A.27.27,0,0,0,44.88,96.93Z"/><polygon class="cls-3" points="45.01 97.21 45.01 97.21 45.01 97.21 45.01 97.21"/><path class="cls-3" d="M43.93,95.07h0c.15.05.21,0,.15-.14h0A.13.13,0,0,0,43.93,95.07Z"/><path class="cls-3" d="M43.35,93.91c0,.14.15.18.23.26s.13.23.27.29c0-.11-.07-.19-.05-.29a.09.09,0,0,0,0-.13h0c-.17-.06-.16-.25-.29-.34v0l-.08-.06h0s0-.05-.06-.08,0-.05-.08-.05,0,.27,0,.41Z"/><path class="cls-3" d="M42.58,94.18h.09a.06.06,0,0,0,0,0c0-.12-.16-.15-.14-.28l-.07-.06C42.33,94,42.55,94.06,42.58,94.18Z"/><path class="cls-3" d="M44.93,97.35l-.21-.1a.13.13,0,0,0-.15,0c0,.06.07.07.1.11S44.9,97.59,44.93,97.35Z"/><path class="cls-3" d="M46.67,100l-.08-.07a.16.16,0,0,0-.08.15A.15.15,0,0,0,46.67,100Z"/><path class="cls-3" d="M47.15,98a2.52,2.52,0,0,0,0,.55l.14-.06a1.48,1.48,0,0,0,0-.21C47.18,98.25,47.27,98.09,47.15,98Z"/><path class="cls-3" d="M47.3,97.69a.16.16,0,0,1-.07,0c-.11.1,0,.12.06.14S47.36,97.74,47.3,97.69Z"/><path class="cls-3" d="M42.69,92.14a.13.13,0,0,0,.06-.07c0-.06,0-.08-.1-.1s-.21-.25-.35-.34a.57.57,0,0,0,.13.4l.08.07h0A.17.17,0,0,0,42.69,92.14Z"/><path class="cls-3" d="M40,88l.22.33c.07,0,.08-.09.09-.15s-.06-.28-.22-.35S40,87.89,40,88Z"/><path class="cls-3" d="M41.35,89.56c.08.08.12.2.27.24.05-.17-.07-.27-.12-.39h-.06A.2.2,0,0,0,41.35,89.56Z"/><path class="cls-3" d="M49.81,100.72h0s0,0,0,0,0,0,0,0a.08.08,0,0,1,.07,0c.12,0,.25,0,.35-.07a.86.86,0,0,1-.14-.13C49.83,100.5,49.83,100.5,49.81,100.72Z"/><path class="cls-3" d="M51.75,100.67s.08,0,.12.06a.33.33,0,0,0,0-.1c0-.06,0-.14-.09-.12S51.72,100.62,51.75,100.67Z"/><path class="cls-3" d="M56.88,99.35l.14.07s0,0,0-.06a.4.4,0,0,0-.09-.21C56.76,99.16,56.9,99.28,56.88,99.35Z"/><path class="cls-3" d="M59.09,102.58a.66.66,0,0,0,.46-.07.35.35,0,0,1-.31-.13h-.07C59.16,102.45,59.06,102.48,59.09,102.58Z"/><polygon class="cls-3" points="58.56 100.22 58.57 100.21 58.55 100.2 58.56 100.22"/><path class="cls-3" d="M47.36,105a.41.41,0,0,0-.11,0s-.13,0-.13.06.05.06.09.08a.26.26,0,0,1,.09,0C47.39,105.16,47.37,105.08,47.36,105Z"/><path class="cls-3" d="M47.65,102.11c-.09-.06,0-.16-.08-.24s-.1-.1-.16,0,0,.08,0,.13a1.92,1.92,0,0,1,.15.48.86.86,0,0,1,.14-.13C47.66,102.25,47.65,102.18,47.65,102.11Z"/><path class="cls-3" d="M48.11,106.16h0l0,0a.45.45,0,0,1,.07.25,1.65,1.65,0,0,0,.14.58h0c.12.45.14.92.23,1.37.12.09,0,.27.13.36h0c0,.26.18.48.16.74h.06v.06a.13.13,0,0,0,.07-.13l0,0s0-.06,0-.08v-.17a.28.28,0,0,0,0-.09,1,1,0,0,1-.11-.38.41.41,0,0,0,0-.09h0v0a.5.5,0,0,0,0-.21c0-.1-.06-.19-.09-.29a4.52,4.52,0,0,0-.12-.62.66.66,0,0,1-.09-.33V107a.13.13,0,0,0,0-.12h-.07a.19.19,0,0,0,0-.15,1.55,1.55,0,0,1,0-.43c0-.12,0-.23-.16-.25l0,0c-.07,0,0-.13-.12-.14A.46.46,0,0,0,48.11,106.16Z"/><path class="cls-3" d="M47.28,101.07s.06,0,.09.07a.14.14,0,0,0,.15-.07.23.23,0,0,0,.09-.19.31.31,0,0,0,0-.08c0-.06-.07-.13-.11-.18l0,0c-.15.11,0,.3-.14.42h0A0,0,0,0,0,47.28,101.07Z"/><path class="cls-3" d="M47,101.28a.13.13,0,0,1,0,.06s0,.1.07.11.08-.06.08-.11a.56.56,0,0,0,0-.13h-.07A.08.08,0,0,0,47,101.28Z"/><path class="cls-3" d="M47.3,99a.13.13,0,0,0,0-.06c-.12.15,0,.31,0,.47A1.15,1.15,0,0,0,47.3,99Z"/><path class="cls-3" d="M47.72,97.75c-.06,0,0,.1,0,.15s.15,0,.15-.06S47.79,97.76,47.72,97.75Z"/><path class="cls-3" d="M50.66,103.76h0s-.18,0-.13.12.18.06.27,0h0A.12.12,0,0,0,50.66,103.76Z"/><path class="cls-3" d="M51.9,103.28s0-.1.05-.14,0,0,0-.06-.19.09-.28.13h0c-.06.07,0,.13,0,.17a.1.1,0,0,0,.1,0h0A.53.53,0,0,0,51.9,103.28Z"/><path class="cls-3" d="M57,99.62l.1.16a1.4,1.4,0,0,1,.1-.16C57.09,99.53,57,99.53,57,99.62Z"/><path class="cls-3" d="M57.52,101.08c-.11-.1-.05-.23-.07-.35s0,0,0-.06h0a.49.49,0,0,0,0-.12c0-.05-.07-.1-.1-.16h0l-.08.08a.18.18,0,0,0,0,.2.06.06,0,0,1,0,.06s0,.11.07.15V101a4.52,4.52,0,0,1,.2.9v0a.41.41,0,0,0,0,.21l0,0c.08,0,.16,0,.12-.12a.29.29,0,0,1,.09-.37.2.2,0,0,0,.07-.18C57.56,101.44,57.56,101.44,57.52,101.08Z"/><path class="cls-3" d="M48.08,100.31v-.06a.12.12,0,0,0,0-.15c-.05-.06-.1-.16-.15,0s0,.12-.07.16v.06a0,0,0,0,0,0,.07v.07C48,100.55,48,100.38,48.08,100.31Z"/><path class="cls-3" d="M57.82,104.87a.17.17,0,0,0-.24,0c0,.1.06.16.09.24S57.81,105,57.82,104.87Z"/><path class="cls-3" d="M51.9,103.68a.15.15,0,0,0-.13,0s-.05,0-.05.08,0,0,.07,0,.16,0,.15.13-.08.13,0,.22a.88.88,0,0,0,.31-.39c0-.05,0-.1.05-.15s0-.11-.1-.12S52.08,103.73,51.9,103.68Z"/><path class="cls-3" d="M51.73,105.14a.13.13,0,0,1,0-.06.23.23,0,0,1,.07-.07h0a.8.8,0,0,0,.13-.13c-.06-.06-.13,0-.21,0s-.21.38-.38.52l.11.06.2-.16C51.71,105.24,51.69,105.18,51.73,105.14Z"/><path class="cls-3" d="M47.89,100.81h0s0,0,0,0h0Z"/></g></g><g id="visLines"><path class="cls-4" d="M54,83.43a1.32,1.32,0,0,0-.63-.37,1.29,1.29,0,0,0-.43-.07,1.25,1.25,0,0,0-.78.32,1.52,1.52,0,0,0-.42.65,1.4,1.4,0,0,0-.11.53,1.61,1.61,0,0,0,.07.51,1.56,1.56,0,0,0,.4.72,1.25,1.25,0,0,0,.61.32,1.38,1.38,0,0,0,.41,0,1.38,1.38,0,0,0,.87-.43,1.24,1.24,0,0,0,.36-.78c0-.21-.07-.32-.14-.32s-.11.13-.18.29a2.2,2.2,0,0,1-.28.55.89.89,0,0,1-1,.42,1,1,0,0,1-.58-.34,1.51,1.51,0,0,1-.18-.31,2.35,2.35,0,0,1-.11-.4,1.42,1.42,0,0,1,0-.65,1.24,1.24,0,0,1,.48-.64.47.47,0,0,1,.12-.07l.13-.06.2,0a1,1,0,0,1,.51.08l.11.07.18.14a1.47,1.47,0,0,1,.1.13,2.5,2.5,0,0,1,.28.59c.06.15.12.25.2.25s.11-.14.1-.37A1.24,1.24,0,0,0,54,83.43Z"/><path class="cls-4" d="M52,20.88l-.48.1c-.14,0-.17,0-.3,0H49.78a2.91,2.91,0,0,0-.31,0c-.19,0-.33,0-.52,0s-.32,0-.47,0h-.29l-.66-.11a1,1,0,0,0-.51,0,.29.29,0,0,0-.19.27c0,.1.09.19.22.24a1,1,0,0,0,.48,0l.47-.08c.18,0,.3,0,.48,0a5,5,0,0,1,.54,0,2.64,2.64,0,0,0,.58,0h.48c.19,0,.38,0,.62,0h1.14l.13,0a1.08,1.08,0,0,0,.52,0,.27.27,0,0,0,.18-.27c0-.1-.09-.18-.22-.22A1.25,1.25,0,0,0,52,20.88Z"/><circle class="cls-4" cx="56.51" cy="21.14" r="1.03"/><path class="cls-4" d="M65.1,87.14H40.72a6.38,6.38,0,0,1-6.38-6.38V25.24a6.38,6.38,0,0,1,6.38-6.38H65.1a6.38,6.38,0,0,1,6.38,6.38V80.76A6.38,6.38,0,0,1,65.1,87.14ZM40.72,19.36a5.89,5.89,0,0,0-5.88,5.88V80.76a5.89,5.89,0,0,0,5.88,5.88H65.1A5.89,5.89,0,0,0,71,80.76V25.24a5.89,5.89,0,0,0-5.88-5.88Z"/><path class="cls-4" d="M64.93,82.48H41.29a4.25,4.25,0,0,1-4.24-4.25V27a4.25,4.25,0,0,1,4.24-4.25H64.93A4.25,4.25,0,0,1,69.17,27V78.23A4.25,4.25,0,0,1,64.93,82.48ZM41.29,23a4,4,0,0,0-4,4V78.23a4,4,0,0,0,4,4H64.93a4,4,0,0,0,4-4V27a4,4,0,0,0-4-4Z"/><path class="cls-4" d="M71,34.69a1.1,1.1,0,0,1,1.1,1.1v5.36A1.1,1.1,0,0,1,71,42.24h0"/><path class="cls-4" d="M34.5,32a.59.59,0,0,1-.59-.58V29.06a.59.59,0,0,1,.59-.59h0"/><path class="cls-4" d="M34.5,39.1a.59.59,0,0,1-.59-.58V34.27a.59.59,0,0,1,.59-.59h0"/><path class="cls-4" d="M34.5,45.4h0a.59.59,0,0,1-.59-.59V40.56A.59.59,0,0,1,34.5,40h0"/><path class="cls-5" d="M47.3,62.08c0-3.64,0-7.28,0-10.92a6.15,6.15,0,0,1,2-4.63,4.2,4.2,0,0,1,1.6-1q7.68-2.65,15.34-5.33a9.12,9.12,0,0,1,2.46-.65,6.07,6.07,0,0,1,2.48.29c5.39,1.88,10.78,3.8,16.18,5.66a5.41,5.41,0,0,1,3.24,3.24A5.81,5.81,0,0,1,91,51.13V73.07a9.2,9.2,0,0,1-3.47,7.19A26.09,26.09,0,0,1,78,85.14c-1.66.52-3.36.91-5.06,1.27a18.58,18.58,0,0,1-7.68,0A41.33,41.33,0,0,1,54.87,83a16.57,16.57,0,0,1-5.43-4.07A8.87,8.87,0,0,1,47.29,73Q47.3,67.55,47.3,62.08Z"/><path class="cls-5" d="M51.66,62.32c0,3.63,0,7.26,0,10.88a4.27,4.27,0,0,0,.91,2.69,9.15,9.15,0,0,0,2.55,2.25,29.41,29.41,0,0,0,8.23,3.36,23,23,0,0,0,5.21,1c.44,0,.58-.12.58-.57,0-2,0-3.92,0-5.88a2.06,2.06,0,0,1,.36-1.2q5.16-7.59,10.31-15.21l3.75-5.55a1.85,1.85,0,0,0,.13-2,1.9,1.9,0,0,0-1.75-1,3,3,0,0,0-1.89.65L69.64,59.3c-.13.1-.27.31-.44.23s-.08-.32-.08-.48V44.71a3.08,3.08,0,0,1,0-.43c0-.43-.17-.49-.51-.36s-.53.22-.8.31L52.92,49.39c-1,.35-1.26.67-1.26,1.77Z"/><path class="cls-6" d="M47.3,62.08c0-3.64,0-7.28,0-10.92a6.15,6.15,0,0,1,2-4.63,4.2,4.2,0,0,1,1.6-1q7.68-2.65,15.34-5.33a9.12,9.12,0,0,1,2.46-.65,6.07,6.07,0,0,1,2.48.29c5.39,1.88,10.78,3.8,16.18,5.66a5.41,5.41,0,0,1,3.24,3.24A5.81,5.81,0,0,1,91,51.13V73.07a9.2,9.2,0,0,1-3.47,7.19A26.09,26.09,0,0,1,78,85.14c-1.66.52-3.36.91-5.06,1.27a18.58,18.58,0,0,1-7.68,0A41.33,41.33,0,0,1,54.87,83a16.57,16.57,0,0,1-5.43-4.07A8.87,8.87,0,0,1,47.29,73Q47.3,67.55,47.3,62.08Zm4.36.24c0,3.63,0,7.26,0,10.88a4.27,4.27,0,0,0,.91,2.69,9.15,9.15,0,0,0,2.55,2.25,29.41,29.41,0,0,0,8.23,3.36,23,23,0,0,0,5.21,1c.44,0,.58-.12.58-.57,0-2,0-3.92,0-5.88a2.06,2.06,0,0,1,.36-1.2q5.16-7.59,10.31-15.21l3.75-5.55a1.85,1.85,0,0,0,.13-2,1.9,1.9,0,0,0-1.75-1,3,3,0,0,0-1.89.65L69.64,59.3c-.13.1-.27.31-.44.23s-.08-.32-.08-.48V44.71a3.08,3.08,0,0,1,0-.43c0-.43-.17-.49-.51-.36s-.53.22-.8.31L52.92,49.39c-1,.35-1.26.67-1.26,1.77Z"/><path d="M56.66,61.26a7.27,7.27,0,0,1,1.63.5c1.42.49,2.83,1,4.25,1.51a5.36,5.36,0,0,0,5.29-.84q6.3-4.74,12.57-9.51a3,3,0,0,1,1.1-.63.82.82,0,0,1,.88.2.73.73,0,0,1,0,.88,6.81,6.81,0,0,1-.72,1.11c-4.84,6.86-9.7,13.7-14.51,20.57-1,1.44-2.42,1.59-3.44-.07-2.5-4-5.06-8-7.58-12.07a3.23,3.23,0,0,1-.36-.72C55.61,61.58,55.86,61.25,56.66,61.26Z"/></g></svg>